<?xml version="1.0" encoding="UTF-8" standalone="no"?>
<!-- Created with Inkscape (http://www.inkscape.org/) -->

<svg
   xmlns:dc="http://purl.org/dc/elements/1.1/"
   xmlns:cc="http://creativecommons.org/ns#"
   xmlns:rdf="http://www.w3.org/1999/02/22-rdf-syntax-ns#"
   xmlns:svg="http://www.w3.org/2000/svg"
   xmlns="http://www.w3.org/2000/svg"
   xmlns:sodipodi="http://sodipodi.sourceforge.net/DTD/sodipodi-0.dtd"
   xmlns:inkscape="http://www.inkscape.org/namespaces/inkscape"
   width="1000"
   height="1000"
   viewBox="0 0 264.58333 264.58334"
   version="1.1"
   id="svg8"
   inkscape:version="0.92.3 (2405546, 2018-03-11)"
   sodipodi:docname="ana-old.svg">
  <defs
     id="defs2" />
  <sodipodi:namedview
     id="base"
     pagecolor="#ffffff"
     bordercolor="#666666"
     borderopacity="1.0"
     inkscape:pageopacity="0.0"
     inkscape:pageshadow="2"
     inkscape:zoom="0.49497475"
     inkscape:cx="11.199193"
     inkscape:cy="501.9374"
     inkscape:document-units="mm"
     inkscape:current-layer="layer1"
     showgrid="false"
     units="px"
     inkscape:window-width="1920"
     inkscape:window-height="1029"
     inkscape:window-x="1920"
     inkscape:window-y="0"
     inkscape:window-maximized="1" />
  <metadata
     id="metadata5">
    <rdf:RDF>
      <cc:Work
         rdf:about="">
        <dc:format>image/svg+xml</dc:format>
        <dc:type
           rdf:resource="http://purl.org/dc/dcmitype/StillImage" />
        <dc:title />
      </cc:Work>
    </rdf:RDF>
  </metadata>
  <g
     inkscape:label="Layer 1"
     inkscape:groupmode="layer"
     id="layer1"
     transform="translate(0,-32.41665)">
    <rect
       style="opacity:1;fill:#532a44;fill-opacity:1;stroke:none;stroke-width:5.29166651;stroke-linecap:square;stroke-linejoin:round;stroke-miterlimit:4;stroke-dasharray:none;stroke-opacity:1;paint-order:normal"
       id="rect965"
       width="290.2547"
       height="293.46191"
       x="-5.8799243"
       y="23.315987" />
    <path
       sodipodi:nodetypes="ccccccccscccccccccccccccccccccccccccscccc"
       inkscape:connector-curvature="0"
       id="path967"
       d="m 68.576294,63.719219 c -28.541522,-0.12044 -31.311537,28.902517 -31.311537,28.902517 0,0 -12.166728,5.105528 -15.297848,6.430234 -3.131133,1.32472 -15.5355649,2.04719 -12.404445,10.95887 3.13116,8.91168 21.078895,1.15742 24.571321,0.55532 5.497682,-0.58671 5.827399,-0.25239 11.259858,-1.11429 0,0 3.251263,3.01058 6.26201,4.09444 3.010667,1.08385 7.276601,5.80812 7.916515,12.22621 1.42579,14.29998 -17.123266,24.69982 -9.970188,52.9715 5.663283,22.3834 28.625288,39.85328 67.69423,45.31543 0.3953,2.66913 0.82033,6.45379 0.24923,7.53251 -0.90927,1.71755 -24.247389,-3.4347 -35.56302,-2.52542 0,0 11.0123,5.05148 -1.919838,11.51755 0,0 36.270738,0.10111 22.530358,9.39612 0,0 22.42924,-5.55736 24.24782,-10.20484 0.40455,-1.03386 0.59606,-2.57013 0.66184,-4.31478 3.86288,-0.22603 8.4867,-0.72086 4.89453,-1.74718 -2.42668,-0.69334 -3.99395,-2.11156 -4.99767,-3.50527 -0.11503,-1.80435 -0.28665,-3.54955 -0.46104,-5.07586 7.63484,0.64258 15.80449,0.86537 24.5096,0.61807 0.27728,-0.008 0.55229,-0.0224 0.82905,-0.032 0.3935,2.63787 1.60587,6.4883 5.27745,8.19747 0,0 0.50529,11.9214 -1.41432,16.36682 l -23.33908,-3.33338 c 0,0 8.68934,4.34436 -13.73978,13.84138 0,0 22.22712,-3.83987 13.13421,10.40567 0,0 28.59211,-2.82886 32.73441,-10.81042 0.84206,-1.62249 1.31234,-3.58365 1.55962,-5.80878 7.75154,-0.11733 12.9649,-0.6183 8.94763,-1.97065 -5.04662,-1.69884 -7.5458,-4.45929 -8.78507,-6.81677 -0.21344,-6.3583 -0.76245,-13.73295 0.0539,-21.33171 52.47698,-7.30269 91.69741,-41.96642 91.69741,-41.96642 0,0 -12.43265,2.89529 -17.37163,0 -4.93904,-2.8953 -8.68606,-13.45478 -14.30633,-18.90474 -5.62026,-5.44997 -14.47667,-10.55959 -14.47667,-10.55959 6.98281,-6.30153 21.43408,-12.59509 21.43408,-12.59509 -10.35683,-3.61284 -46.60544,-11.68183 -77.19421,-11.44098 -30.58879,0.24085 -49.13461,6.98489 -53.3496,2.89032 -4.215,-4.09456 0.72275,-19.26859 -0.24065,-31.43183 -0.96341,-12.1633 -5.780611,-36.610005 -34.322133,-36.730431 z"
       style="fill:#b9975b;fill-opacity:1;stroke:#ffffff;stroke-width:5.29166667;stroke-linecap:butt;stroke-linejoin:round;stroke-opacity:1;stroke-miterlimit:4;stroke-dasharray:none" />
    <path
       style="fill:#00685e;fill-opacity:1;stroke:none;stroke-width:0.33719915px;stroke-linecap:butt;stroke-linejoin:miter;stroke-opacity:1"
       d="m 68.576294,63.719219 c -28.541522,-0.12044 -31.311537,28.902517 -31.311537,28.902517 0,0 -12.166728,5.105528 -15.297848,6.430234 -3.131133,1.32472 -15.5355649,2.04719 -12.404445,10.95887 3.13116,8.91168 21.078895,1.15742 24.571321,0.55532 5.497682,-0.58671 5.827399,-0.25239 11.259858,-1.11429 0,0 3.251263,3.01058 6.26201,4.09444 3.010667,1.08385 7.276601,5.80812 7.916515,12.22621 1.42579,14.29998 -17.123266,24.69982 -9.970188,52.9715 5.663283,22.3834 28.625288,39.85328 67.69423,45.31543 0.3953,2.66913 0.82033,6.45379 0.24923,7.53251 -0.90927,1.71755 -24.247389,-3.4347 -35.56302,-2.52542 0,0 11.0123,5.05148 -1.919838,11.51755 0,0 36.270738,0.10111 22.530358,9.39612 0,0 22.42924,-5.55736 24.24782,-10.20484 0.40455,-1.03386 0.59606,-2.57013 0.66184,-4.31478 3.86288,-0.22603 8.4867,-0.72086 4.89453,-1.74718 -2.42668,-0.69334 -3.99395,-2.11156 -4.99767,-3.50527 -0.11503,-1.80435 -0.28665,-3.54955 -0.46104,-5.07586 7.63484,0.64258 15.80449,0.86537 24.5096,0.61807 0.27728,-0.008 0.55229,-0.0224 0.82905,-0.032 0.3935,2.63787 1.60587,6.4883 5.27745,8.19747 0,0 0.50529,11.9214 -1.41432,16.36682 l -23.33908,-3.33338 c 0,0 8.68934,4.34436 -13.73978,13.84138 0,0 22.22712,-3.83987 13.13421,10.40567 0,0 28.59211,-2.82886 32.73441,-10.81042 0.84206,-1.62249 1.31234,-3.58365 1.55962,-5.80878 7.75154,-0.11733 12.9649,-0.6183 8.94763,-1.97065 -5.04662,-1.69884 -7.5458,-4.45929 -8.78507,-6.81677 -0.21344,-6.3583 -0.76245,-13.73295 0.0539,-21.33171 52.47698,-7.30269 91.69741,-41.96642 91.69741,-41.96642 0,0 -12.43265,2.89529 -17.37163,0 -4.93904,-2.8953 -8.68606,-13.45478 -14.30633,-18.90474 -5.62026,-5.44997 -14.47667,-10.55959 -14.47667,-10.55959 6.98281,-6.30153 21.43408,-12.59509 21.43408,-12.59509 -10.35683,-3.61284 -46.60544,-11.68183 -77.19421,-11.44098 -30.58879,0.24085 -49.13461,6.98489 -53.3496,2.89032 -4.215,-4.09456 0.72275,-19.26859 -0.24065,-31.43183 -0.96341,-12.1633 -5.780611,-36.610005 -34.322133,-36.730431 z"
       id="path918"
       inkscape:connector-curvature="0"
       sodipodi:nodetypes="ccccccccscccccccccccccccccccccccccccscccc" />
    <circle
       style="opacity:1;fill:#ffffff;fill-opacity:1;stroke:none;stroke-width:7.64819717;stroke-linecap:square;stroke-linejoin:round;stroke-miterlimit:4;stroke-dasharray:none;stroke-opacity:1;paint-order:normal"
       id="path931"
       cx="69.935379"
       cy="89.189056"
       r="4.7310953" />
    <g
       aria-label="ANAHEIM"
       transform="matrix(0.95664219,0,0,0.95664219,-1222.0555,-323.90617)"
       style="font-style:normal;font-weight:normal;font-size:40px;line-height:1.25;font-family:sans-serif;letter-spacing:0px;word-spacing:0px;fill:#ffffff;fill-opacity:1;stroke:none"
       id="flowRoot933">
      <path
         d="m 1368.9941,518.52591 -1.1328,-5.70312 h -5.9375 l -1.1328,5.70312 q -0.2344,1.13281 -1.3867,1.13281 h -2.9102 q -0.6836,0 -1.0937,-0.50781 -0.4297,-0.48828 -0.293,-1.17187 l 5.586,-27.8711 q 0.2148,-1.13281 1.3671,-1.13281 h 5.6641 q 1.1524,0 1.3867,1.13281 l 5.5664,27.8711 q 0.1172,0.68359 -0.2929,1.17187 -0.4297,0.50781 -1.0743,0.50781 h -2.9296 q -1.1719,0 -1.3868,-1.13281 z m -2.2656,-11.36719 -1.8359,-9.17968 -1.836,9.17968 z"
         style="font-style:normal;font-variant:normal;font-weight:normal;font-stretch:normal;font-family:'New Athletic M54';-inkscape-font-specification:'New Athletic M54';fill:#ffffff;fill-opacity:1"
         id="path835" />
      <path
         d="m 1389.0332,518.76029 -5.8398,-15.17579 v 14.66797 q 0,1.40625 -1.4063,1.40625 h -2.832 q -1.4063,0 -1.4063,-1.40625 v -27.87109 q 0,-1.40625 1.4063,-1.40625 h 3.7109 q 0.9375,0 1.3086,0.89844 l 5.8594,15.19531 v -14.6875 q 0,-1.40625 1.4062,-1.40625 h 2.8125 q 1.4063,0 1.4063,1.40625 v 27.85156 q 0,1.38672 -1.3867,1.38672 l -3.711,0.0195 q -0.9765,0.0195 -1.3281,-0.8789 z"
         style="font-style:normal;font-variant:normal;font-weight:normal;font-stretch:normal;font-family:'New Athletic M54';-inkscape-font-specification:'New Athletic M54';fill:#ffffff;fill-opacity:1"
         id="path837" />
      <path
         d="m 1412.1973,518.52591 -1.1328,-5.70312 h -5.9375 l -1.1329,5.70312 q -0.2343,1.13281 -1.3867,1.13281 h -2.9101 q -0.6836,0 -1.0938,-0.50781 -0.4297,-0.48828 -0.293,-1.17187 l 5.586,-27.8711 q 0.2148,-1.13281 1.3672,-1.13281 h 5.664 q 1.1524,0 1.3868,1.13281 l 5.5664,27.8711 q 0.1171,0.68359 -0.293,1.17187 -0.4297,0.50781 -1.0742,0.50781 h -2.9297 q -1.1719,0 -1.3867,-1.13281 z m -2.2657,-11.36719 -1.8359,-9.17968 -1.8359,9.17968 z"
         style="font-style:normal;font-variant:normal;font-weight:normal;font-stretch:normal;font-family:'New Athletic M54';-inkscape-font-specification:'New Athletic M54';fill:#ffffff;fill-opacity:1"
         id="path839" />
      <path
         d="m 1437.1191,519.65872 h -2.8711 q -1.4062,0 -1.4062,-1.40625 v -11.09375 h -6.4258 v 11.09375 q 0,1.40625 -1.3867,1.40625 h -2.8906 q -1.3867,0 -1.3867,-1.40625 v -27.87109 q 0,-1.40625 1.3867,-1.40625 h 2.8906 q 1.3867,0 1.3867,1.40625 v 11.09375 h 6.4258 v -11.09375 q 0,-1.40625 1.4062,-1.40625 h 2.8711 q 1.3868,0 1.3868,1.40625 v 27.87109 q 0,1.40625 -1.3868,1.40625 z"
         style="font-style:normal;font-variant:normal;font-weight:normal;font-stretch:normal;font-family:'New Athletic M54';-inkscape-font-specification:'New Athletic M54';fill:#ffffff;fill-opacity:1"
         id="path841" />
      <path
         d="m 1454.5996,519.65872 h -7.9883 q -2.2265,0 -3.8086,-1.58203 -1.582,-1.58203 -1.582,-3.80859 v -23.88672 q 0,-1.40625 1.4063,-1.40625 h 11.8554 q 1.4063,0 1.4063,1.40625 v 2.87109 q 0,1.38672 -1.4063,1.38672 h -7.5976 v 6.83594 h 6.3476 q 1.4063,0 1.4063,1.40625 v 2.87109 q 0,1.40625 -1.4063,1.40625 h -6.3476 v 6.83594 h 7.7148 q 1.4063,0 1.4063,1.40625 v 2.85156 q 0,1.40625 -1.4063,1.40625 z"
         style="font-style:normal;font-variant:normal;font-weight:normal;font-stretch:normal;font-family:'New Athletic M54';-inkscape-font-specification:'New Athletic M54';fill:#ffffff;fill-opacity:1"
         id="path843" />
      <path
         d="m 1462.998,519.65872 h -2.871 q -1.4063,0 -1.4063,-1.40625 v -27.87109 q 0,-1.40625 1.4063,-1.40625 h 2.871 q 1.4063,0 1.4063,1.40625 v 27.87109 q 0,1.40625 -1.4063,1.40625 z"
         style="font-style:normal;font-variant:normal;font-weight:normal;font-stretch:normal;font-family:'New Athletic M54';-inkscape-font-specification:'New Athletic M54';fill:#ffffff;fill-opacity:1"
         id="path845" />
      <path
         d="m 1486.9629,519.65872 h -2.8711 q -1.4063,0 -1.4063,-1.40625 v -15.8789 l -3.6718,7.83203 q -0.3711,0.80078 -1.2696,0.80078 -0.8984,0 -1.25,-0.80078 l -3.6718,-7.83203 v 15.8789 q 0,1.40625 -1.4063,1.40625 h -2.8711 q -1.3867,0 -1.3867,-1.40625 v -27.87109 q 0,-1.40625 1.3867,-1.40625 h 3.3789 q 0.8789,0 1.2696,0.82031 l 4.5507,9.72656 4.5704,-9.72656 q 0.371,-0.82031 1.2695,-0.82031 h 3.3789 q 1.4062,0 1.4062,1.40625 v 27.87109 q 0,1.40625 -1.4062,1.40625 z"
         style="font-style:normal;font-variant:normal;font-weight:normal;font-stretch:normal;font-family:'New Athletic M54';-inkscape-font-specification:'New Athletic M54';fill:#ffffff;fill-opacity:1"
         id="path847" />
    </g>
    <g
       aria-label="DUCKS"
       transform="matrix(0.95664219,0,0,0.95664219,-1205.1432,-285.81286)"
       style="font-style:normal;font-weight:normal;font-size:40px;line-height:1.25;font-family:sans-serif;letter-spacing:0px;word-spacing:0px;fill:#ffffff;fill-opacity:1;stroke:none"
       id="flowRoot959">
      <path
         d="m 1372.5879,494.65872 v 19.31641 q 0,2.28516 -1.7383,3.98437 -1.7383,1.69922 -3.9648,1.69922 h -10.5078 q -1.4063,0 -1.4063,-1.40625 v -27.87109 q 0,-1.40625 1.4063,-1.40625 h 10.4882 q 2.2461,0 3.9844,1.71875 1.7383,1.71875 1.7383,3.96484 z m -5.6641,19.33594 v -19.35547 h -6.2695 v 19.35547 z"
         style="font-style:normal;font-variant:normal;font-weight:normal;font-stretch:normal;font-family:'New Athletic M54';-inkscape-font-specification:'New Athletic M54';fill:#ffffff;fill-opacity:1"
         id="path824" />
      <path
         d="m 1387.2949,519.65872 h -6.25 q -2.2656,0 -3.9844,-1.67968 -1.6992,-1.69922 -1.6992,-3.96485 v -23.63281 q 0,-1.40625 1.4063,-1.40625 h 2.8515 q 1.4063,0 1.4063,1.40625 v 23.61328 h 6.3476 v -23.61328 q 0,-1.40625 1.3868,-1.40625 h 2.8711 q 1.4062,0 1.4062,1.40625 v 23.59375 q 0,2.28516 -1.7578,3.98437 -1.7383,1.69922 -3.9844,1.69922 z"
         style="font-style:normal;font-variant:normal;font-weight:normal;font-stretch:normal;font-family:'New Athletic M54';-inkscape-font-specification:'New Athletic M54';fill:#ffffff;fill-opacity:1"
         id="path826" />
      <path
         d="m 1410.9863,518.3306 q -1.5039,1.32812 -3.5351,1.32812 h -6.0352 q -2.2461,0 -3.9648,-1.67968 -1.6992,-1.69922 -1.6992,-3.96485 v -19.39453 q 0,-2.24609 1.7187,-3.94531 1.7188,-1.69922 3.9648,-1.69922 h 5.9961 q 2.2461,0 3.9844,1.71875 1.7578,1.71875 1.7578,3.96484 v 0.89844 q 0,1.38672 -1.4062,1.38672 h -2.8711 q -1.3867,0 -1.3867,-1.38672 v -0.91797 h -6.0938 v 19.35547 h 6.0938 v -1.07422 q 0,-1.40625 1.3867,-1.40625 h 2.8711 q 1.4062,0 1.4062,1.40625 v 1.07422 q 0,2.46094 -2.1875,4.33594 z"
         style="font-style:normal;font-variant:normal;font-weight:normal;font-stretch:normal;font-family:'New Athletic M54';-inkscape-font-specification:'New Athletic M54';fill:#ffffff;fill-opacity:1"
         id="path828" />
      <path
         d="m 1432.9785,491.00638 -6.582,13.32031 6.582,13.30078 q 0.332,0.6836 -0.059,1.36719 -0.4101,0.66406 -1.1914,0.66406 h -3.1836 q -0.9179,0 -1.2695,-0.80078 l -5.7031,-11.69922 v 11.09375 q 0,1.40625 -1.4063,1.40625 h -2.8711 q -1.3867,0 -1.3867,-1.40625 v -27.87109 q 0,-1.40625 1.3867,-1.40625 h 2.8711 q 1.4063,0 1.4063,1.40625 v 11.09375 l 5.7031,-11.69922 q 0.3906,-0.80078 1.2695,-0.80078 h 3.1836 q 0.7617,0 1.1914,0.66406 0.3906,0.70313 0.059,1.36719 z"
         style="font-style:normal;font-variant:normal;font-weight:normal;font-stretch:normal;font-family:'New Athletic M54';-inkscape-font-specification:'New Athletic M54';fill:#ffffff;fill-opacity:1"
         id="path830" />
      <path
         d="m 1447.4512,519.65872 h -5.7032 q -2.2656,0 -3.9843,-1.67968 -1.6992,-1.69922 -1.6992,-3.98438 v -1.07422 q 0,-1.40625 1.3867,-1.40625 h 2.8711 q 1.4062,0 1.4062,1.40625 v 1.07422 h 5.7227 v -6.83594 h -5.7032 q -2.2656,0 -3.9843,-1.69922 -1.6992,-1.69921 -1.6992,-3.96484 v -6.85547 q 0,-2.24609 1.6992,-3.94531 1.7187,-1.71875 3.9843,-1.71875 h 5.7032 q 2.2461,0 3.9453,1.69922 1.7187,1.69922 1.7187,3.94531 v 0.9375 q 0,1.38672 -1.3867,1.38672 h -2.8711 q -1.4062,0 -1.4062,-1.38672 v -0.91797 h -5.7227 v 6.83594 h 5.7227 q 2.2461,0 3.9453,1.69922 1.7187,1.69922 1.7187,3.94531 v 6.89453 q 0,2.28516 -1.7187,3.96485 -1.6992,1.67968 -3.9453,1.67968 z"
         style="font-style:normal;font-variant:normal;font-weight:normal;font-stretch:normal;font-family:'New Athletic M54';-inkscape-font-specification:'New Athletic M54';fill:#ffffff;fill-opacity:1"
         id="path832" />
    </g>
  </g>
</svg>
