<?xml version="1.0" encoding="UTF-8" standalone="no"?>
<!-- Created with Inkscape (http://www.inkscape.org/) -->

<svg
   xmlns:dc="http://purl.org/dc/elements/1.1/"
   xmlns:cc="http://creativecommons.org/ns#"
   xmlns:rdf="http://www.w3.org/1999/02/22-rdf-syntax-ns#"
   xmlns:svg="http://www.w3.org/2000/svg"
   xmlns="http://www.w3.org/2000/svg"
   xmlns:sodipodi="http://sodipodi.sourceforge.net/DTD/sodipodi-0.dtd"
   xmlns:inkscape="http://www.inkscape.org/namespaces/inkscape"
   width="1000"
   height="1000"
   viewBox="0 0 264.58333 264.58334"
   version="1.1"
   id="svg8"
   inkscape:version="0.92.3 (2405546, 2018-03-11)"
   sodipodi:docname="ari-home.svg">
  <defs
     id="defs2" />
  <sodipodi:namedview
     id="base"
     pagecolor="#ffffff"
     bordercolor="#666666"
     borderopacity="1.0"
     inkscape:pageopacity="0.0"
     inkscape:pageshadow="2"
     inkscape:zoom="0.7"
     inkscape:cx="229.26572"
     inkscape:cy="497.78493"
     inkscape:document-units="mm"
     inkscape:current-layer="layer1"
     showgrid="false"
     units="px"
     inkscape:window-width="1920"
     inkscape:window-height="1029"
     inkscape:window-x="0"
     inkscape:window-y="0"
     inkscape:window-maximized="1"
     inkscape:snap-global="false" />
  <metadata
     id="metadata5">
    <rdf:RDF>
      <cc:Work
         rdf:about="">
        <dc:format>image/svg+xml</dc:format>
        <dc:type
           rdf:resource="http://purl.org/dc/dcmitype/StillImage" />
        <dc:title />
      </cc:Work>
    </rdf:RDF>
  </metadata>
  <g
     inkscape:label="Layer 1"
     inkscape:groupmode="layer"
     id="layer1"
     transform="translate(0,-32.41665)">
    <rect
       style="opacity:1;fill:#8c2633;fill-opacity:1;stroke:none;stroke-width:0.26458332;stroke-linecap:butt;stroke-linejoin:round;stroke-miterlimit:4;stroke-dasharray:none;stroke-opacity:1;paint-order:normal"
       id="rect988"
       width="279.3244"
       height="275.54465"
       x="-4.9136906"
       y="27.50296" />
    <path
       style="fill:#e2d6b5;stroke:none;stroke-width:0.27800524px;stroke-linecap:butt;stroke-linejoin:miter;stroke-opacity:1;fill-opacity:1"
       d="m 217.51171,125.0131 c 0,0 -6.4537,-10.27628 -0.64536,-15.29029 l 10.07769,14.94278 z"
       id="path968"
       inkscape:connector-curvature="0"
       sodipodi:nodetypes="cccc" />
    <path
       style="opacity:1;fill:none;fill-opacity:1;stroke:none;stroke-width:6.95056915;stroke-linecap:butt;stroke-linejoin:round;stroke-miterlimit:4;stroke-dasharray:none;stroke-opacity:1;paint-order:normal"
       d="m 232.92609,134.87979 a 1.3652045,1.1542183 0 0 1 -1.36521,1.15422 1.3652045,1.1542183 0 0 1 -1.3652,-1.15422 1.3652045,1.1542183 0 0 1 1.3652,-1.15422 1.3652045,1.1542183 0 0 1 1.36521,1.15422 z"
       id="path972" />
    <path
       style="fill:#e2d6b5;stroke:none;stroke-width:0.27800524px;stroke-linecap:butt;stroke-linejoin:miter;stroke-opacity:1;fill-opacity:1"
       d="m 179.70788,158.68117 c 0,0 26.81906,3.22952 32.50582,5.12511 5.68676,1.89559 22.53641,13.40952 23.94057,14.04139 1.40414,0.63185 4.63365,1.12331 5.82718,2.17641 1.1935,1.05311 7.02068,5.89739 8.00358,6.38883 0.98288,0.49145 -1.10596,6.68513 -11.65435,3.36993 -2.45723,-0.77227 -3.72096,-4.1422 -4.98469,-5.12511 -1.26373,-0.98289 -17.20072,-9.68854 -20.78125,-10.39062 -3.58057,-0.70206 -31.17187,6.66966 -36.57782,8.63546 -5.40592,1.96579 -13.19891,-9.0567 -13.19891,-9.0567 z"
       id="path984"
       inkscape:connector-curvature="0"
       sodipodi:nodetypes="cscccsccccc" />
    <path
       style="fill:#e2d6b5;stroke:none;stroke-width:0.27800524px;stroke-linecap:butt;stroke-linejoin:miter;stroke-opacity:1;fill-opacity:1"
       d="m 111.71728,178.89286 c 0,0 -0.42121,17.83255 -15.445506,23.87036 -15.024295,6.03779 -30.329406,4.21241 -35.103476,5.19531 -4.774069,0.9829 -15.164682,11.09269 -16.007177,13.47973 -0.842474,2.38703 0.702066,3.65076 -0.561656,6.59945 -1.263732,2.94869 -4.493231,5.47614 -5.897382,5.0549 -1.40412,-0.42125 -1.825389,-8.56524 -0.702076,-10.95228 1.123302,-2.38704 16.147596,-19.23671 14.743455,-22.32581 0,0 11.935194,-3.93158 16.428435,-9.68855 L 95.008052,166.1152 Z"
       id="path986"
       inkscape:connector-curvature="0"
       sodipodi:nodetypes="csccccccccc" />
    <path
       sodipodi:nodetypes="ccccsccccccccccscscscccccccccccccssccsscsssscssccscsccc"
       inkscape:connector-curvature="0"
       id="path990"
       d="m 68.570324,158.8918 c 0,0 3.931574,-8.42484 13.479723,-12.07559 0,0 -1.952359,-1.54845 -5.725283,-1.44916 0,0 6.652267,-6.05654 24.275826,0.74465 0,0 9.18121,-2.3846 17.81666,-5.33329 8.63546,-2.9487 12.49683,-5.1251 18.39421,-7.16111 5.89739,-2.03599 12.14581,-3.36993 12.14581,-3.36993 0,0 -2.10621,-1.82537 -6.81008,-2.036 0,0 6.52925,-4.98469 30.46981,0.35103 0,0 11.09269,-7.72276 25.76595,-7.51214 0,0 2.31682,5.75698 8.98648,9.40773 0,0 -12.63725,-9.61835 -6.88027,-19.58773 l 15.72634,10.53104 c 0,0 1.9658,-0.9829 4.70387,-0.49145 2.73807,0.49145 18.60483,6.81007 20.57063,8.49504 1.96579,1.68497 0.63186,3.0891 2.17642,4.56345 1.54455,1.47434 12.77766,3.93158 13.76055,6.17821 0.9829,2.24662 -0.35103,4.84428 -0.98289,5.54634 -0.63187,0.70207 -2.31684,0.77228 -2.80829,1.26373 -0.49144,0.49145 -2.1764,2.52745 -3.29971,3.29973 -1.12332,0.77227 -13.54995,1.89558 -15.30512,0.91269 -1.75518,-0.9829 -2.52745,-2.87849 -2.52745,-2.87849 0,0 -14.11159,4.84428 -25.06387,11.02249 0,0 0.84249,-4.14221 1.96579,-5.75697 0,0 -11.86497,6.81007 -28.50401,23.16829 0,0 19.2367,6.45903 20.50042,8.07379 1.26373,1.61476 1.82538,7.37174 1.47435,8.56525 -0.35104,1.19352 -7.72276,8.14401 -8.56524,9.54815 -0.84249,1.40413 -0.77228,3.65075 -1.75518,4.42303 -0.9829,0.77227 -13.76056,4.072 -14.74346,3.0189 -0.98289,-1.0531 -1.26372,-7.1611 -0.28083,-7.79297 0.98291,-0.63187 9.61835,-1.40414 10.53105,-1.75517 0.91269,-0.35104 5.26551,-7.16111 5.26551,-7.16111 0,0 -16.35821,-4.28263 -20.07918,-4.49324 -3.72097,-0.21062 -19.16649,4.00179 -23.80015,3.15931 -4.63366,-0.84249 -9.61835,-8.63546 -9.61835,-8.63546 0,0 -19.23669,0.14042 -30.32939,2.38705 0,0 -8.70566,7.72276 -19.166496,10.39062 -10.460833,2.66786 -20.640837,-1.12331 -24.361803,-1.61476 -3.720966,-0.49145 -12.777658,0.14041 -12.777658,0.14041 -4.72727,3.06485 -14.362955,8.83111 -15.305112,11.44373 -1.896912,5.26018 -10.499468,7.06512 -11.654345,5.96759 -1.085424,-1.03154 1.614749,-8.28442 2.808272,-9.26731 1.193522,-0.9829 13.830761,-11.02249 16.077387,-13.1287 2.246625,-2.10621 4.423041,-4.42304 3.369938,-7.37173 0,0 8.511658,0.60511 12.42662,-0.77228 2.527496,-0.88924 8.775864,-5.54634 -0.140409,-10.53103 -8.916283,-4.9847 -26.187192,2.59765 -29.767739,2.80827 0,0 2.527444,-2.1062 3.15931,-3.29973 0,0 -12.567039,1.12332 -17.551738,-2.38703 -4.984687,-3.51035 -8.4950346,-11.93517 -9.056691,-17.76235 0,0 10.250214,8.28442 18.043184,8.56525 7.79297,0.28083 10.741661,-3.51035 15.234902,-3.72098 0,0 -0.912694,-1.54455 -3.229519,-2.31682 0,0 22.185377,-1.75517 30.961251,5.68676 z"
       style="fill:#e2d6b5;stroke:#8c2633;stroke-width:2.91041667;stroke-linecap:butt;stroke-linejoin:miter;stroke-opacity:1;fill-opacity:1;stroke-miterlimit:4;stroke-dasharray:none" />
    <path
       style="fill:#e2d6b5;stroke:none;stroke-width:0.27800524px;stroke-linecap:butt;stroke-linejoin:miter;stroke-opacity:1;fill-opacity:1"
       d="m 68.570324,158.8918 c 0,0 3.931574,-8.42484 13.479723,-12.07559 0,0 -1.952359,-1.54845 -5.725283,-1.44916 0,0 6.652267,-6.05654 24.275826,0.74465 0,0 9.18121,-2.3846 17.81666,-5.33329 8.63546,-2.9487 12.49683,-5.1251 18.39421,-7.16111 5.89739,-2.03599 12.14581,-3.36993 12.14581,-3.36993 0,0 -2.10621,-1.82537 -6.81008,-2.036 0,0 6.52925,-4.98469 30.46981,0.35103 0,0 11.09269,-7.72276 25.76595,-7.51214 0,0 2.31682,5.75698 8.98648,9.40773 0,0 -12.63725,-9.61835 -6.88027,-19.58773 l 15.72634,10.53104 c 0,0 1.9658,-0.9829 4.70387,-0.49145 2.73807,0.49145 18.60483,6.81007 20.57063,8.49504 1.96579,1.68497 0.63186,3.0891 2.17642,4.56345 1.54455,1.47434 12.77766,3.93158 13.76055,6.17821 0.9829,2.24662 -0.35103,4.84428 -0.98289,5.54634 -0.63187,0.70207 -2.31684,0.77228 -2.80829,1.26373 -0.49144,0.49145 -2.1764,2.52745 -3.29971,3.29973 -1.12332,0.77227 -13.54995,1.89558 -15.30512,0.91269 -1.75518,-0.9829 -2.52745,-2.87849 -2.52745,-2.87849 0,0 -14.11159,4.84428 -25.06387,11.02249 0,0 0.84249,-4.14221 1.96579,-5.75697 0,0 -11.86497,6.81007 -28.50401,23.16829 0,0 19.2367,6.45903 20.50042,8.07379 1.26373,1.61476 1.82538,7.37174 1.47435,8.56525 -0.35104,1.19352 -7.72276,8.14401 -8.56524,9.54815 -0.84249,1.40413 -0.77228,3.65075 -1.75518,4.42303 -0.9829,0.77227 -13.76056,4.072 -14.74346,3.0189 -0.98289,-1.0531 -1.26372,-7.1611 -0.28083,-7.79297 0.98291,-0.63187 9.61835,-1.40414 10.53105,-1.75517 0.91269,-0.35104 5.26551,-7.16111 5.26551,-7.16111 0,0 -16.35821,-4.28263 -20.07918,-4.49324 -3.72097,-0.21062 -19.16649,4.00179 -23.80015,3.15931 -4.63366,-0.84249 -9.61835,-8.63546 -9.61835,-8.63546 0,0 -19.23669,0.14042 -30.32939,2.38705 0,0 -8.70566,7.72276 -19.166496,10.39062 -10.460833,2.66786 -20.640837,-1.12331 -24.361803,-1.61476 -3.720966,-0.49145 -12.777658,0.14041 -12.777658,0.14041 -4.72727,3.06485 -14.362955,8.83111 -15.305112,11.44373 -1.896912,5.26018 -10.499468,7.06512 -11.654345,5.96759 -1.085424,-1.03154 1.614749,-8.28442 2.808272,-9.26731 1.193522,-0.9829 13.830761,-11.02249 16.077387,-13.1287 2.246625,-2.10621 4.423041,-4.42304 3.369938,-7.37173 0,0 8.511658,0.60511 12.42662,-0.77228 2.527496,-0.88924 8.775864,-5.54634 -0.140409,-10.53103 -8.916283,-4.9847 -26.187192,2.59765 -29.767739,2.80827 0,0 2.527444,-2.1062 3.15931,-3.29973 0,0 -12.567039,1.12332 -17.551738,-2.38703 -4.984687,-3.51035 -8.4950346,-11.93517 -9.056691,-17.76235 0,0 10.250214,8.28442 18.043184,8.56525 7.79297,0.28083 10.741661,-3.51035 15.234902,-3.72098 0,0 -0.912694,-1.54455 -3.229519,-2.31682 0,0 22.185377,-1.75517 30.961251,5.68676 z"
       id="path966"
       inkscape:connector-curvature="0"
       sodipodi:nodetypes="ccccsccccccccccscscscccccccccccccssccsscsssscssccscsccc" />
    <path
       style="opacity:1;fill:#8c2633;fill-opacity:1;stroke:none;stroke-width:0.34124798;stroke-linecap:butt;stroke-linejoin:round;stroke-miterlimit:4;stroke-dasharray:none;stroke-opacity:1;paint-order:normal"
       d="m 232.5129,133.48587 a 2.1023312,2.1023312 0 0 1 -2.10233,2.10233 2.1023312,2.1023312 0 0 1 -2.10233,-2.10233 2.1023312,2.1023312 0 0 1 2.10233,-2.10233 2.1023312,2.1023312 0 0 1 2.10233,2.10233 z"
       id="path978" />
    <flowRoot
       xml:space="preserve"
       id="flowRoot992"
       style="fill:black;fill-opacity:1;stroke:none;font-family:'New Athletic M54';font-style:normal;font-weight:normal;font-size:40px;line-height:1.25;letter-spacing:0px;word-spacing:0px;-inkscape-font-specification:'New Athletic M54';font-stretch:normal;font-variant:normal;"><flowRegion
         id="flowRegion994"
         style="-inkscape-font-specification:'New Athletic M54';font-family:'New Athletic M54';font-weight:normal;font-style:normal;font-stretch:normal;font-variant:normal;"><rect
           id="rect996"
           width="460"
           height="172.85715"
           x="202.85715"
           y="151.42857"
           style="-inkscape-font-specification:'New Athletic M54';font-family:'New Athletic M54';font-weight:normal;font-style:normal;font-stretch:normal;font-variant:normal;" /></flowRegion><flowPara
         id="flowPara998" /></flowRoot>    <g
       aria-label="ARIZONA"
       transform="matrix(0.50909998,-0.10987579,0.10987579,0.50909998,8.9719391,89.9909)"
       style="font-style:normal;font-variant:normal;font-weight:normal;font-stretch:normal;font-size:40px;line-height:1.25;font-family:'New Athletic M54';-inkscape-font-specification:'New Athletic M54';letter-spacing:0px;word-spacing:0px;fill:#111111;fill-opacity:1;stroke:none;stroke-width:0.5080111"
       id="flowRoot1000">
      <path
         d="m 175.39062,175.30716 -1.13281,-5.70312 h -5.9375 l -1.13281,5.70312 q -0.23438,1.13281 -1.38672,1.13281 h -2.91016 q -0.68359,0 -1.09375,-0.50781 -0.42968,-0.48828 -0.29296,-1.17187 l 5.58593,-27.8711 q 0.21485,-1.13281 1.36719,-1.13281 h 5.66406 q 1.15235,0 1.38672,1.13281 l 5.56641,27.8711 q 0.11719,0.68359 -0.29297,1.17187 -0.42969,0.50781 -1.07422,0.50781 h -2.92969 q -1.17187,0 -1.38672,-1.13281 z m -2.26562,-11.36719 -1.83594,-9.17968 -1.83594,9.17968 z"
         style="stroke-width:0.5080111"
         id="path1031" />
      <path
         d="m 200.15625,176.43997 h -3.06641 q -0.9375,0 -1.28906,-0.89843 l -4.49219,-11.60157 h -1.67968 v 11.09375 q 0,1.40625 -1.40625,1.40625 h -2.8711 q -1.40625,0 -1.40625,-1.40625 v -27.87109 q 0,-1.40625 1.40625,-1.40625 h 9.98047 q 2.24609,0 3.98438,1.71875 1.73828,1.69922 1.73828,3.96484 v 6.79688 q 0,1.79687 -1.11328,3.26172 -1.11329,1.46484 -2.73438,2.07031 l 4.25781,10.95703 q 0.27344,0.72266 -0.13672,1.30859 -0.42968,0.60547 -1.17187,0.60547 z m -4.78516,-18.18359 v -6.83594 h -5.74218 v 6.83594 z"
         style="stroke-width:0.5080111"
         id="path1033" />
      <path
         d="m 208.76953,176.43997 h -2.87109 q -1.40625,0 -1.40625,-1.40625 v -27.87109 q 0,-1.40625 1.40625,-1.40625 h 2.87109 q 1.40625,0 1.40625,1.40625 v 27.87109 q 0,1.40625 -1.40625,1.40625 z"
         style="stroke-width:0.5080111"
         id="path1035" />
      <path
         d="m 227.83203,176.43997 h -13.49609 q -1.40625,0 -1.40625,-1.40625 v -0.8789 q 0,-0.23438 0.0977,-0.52735 l 9.00391,-22.22656 h -6.91406 q -1.40625,0 -1.40625,-1.40625 v -2.83203 q 0,-1.40625 1.40625,-1.40625 h 12.67578 q 1.38672,0 1.38672,1.40625 v 1.42578 q 0,0.29297 -0.0977,0.50781 l -8.76953,21.67969 h 7.51953 q 1.40625,0 1.40625,1.40625 v 2.85156 q 0,1.40625 -1.40625,1.40625 z"
         style="stroke-width:0.5080111"
         id="path1037" />
      <path
         d="m 244.12109,176.43997 h -6.46484 q -2.26563,0 -3.96484,-1.67968 -1.69922,-1.67969 -1.69922,-3.94532 v -19.41406 q 0,-2.24609 1.69922,-3.94531 1.71875,-1.69922 3.96484,-1.69922 h 6.44531 q 2.2461,0 3.96485,1.69922 1.73828,1.69922 1.73828,3.96484 v 19.375 q 0,2.26563 -1.73828,3.96485 -1.71875,1.67968 -3.94532,1.67968 z m 0,-5.66406 v -19.35547 h -6.46484 v 19.35547 z"
         style="stroke-width:0.5080111"
         id="path1039" />
      <path
         d="m 264.02344,175.54154 -5.83985,-15.17579 v 14.66797 q 0,1.40625 -1.40625,1.40625 h -2.83203 q -1.40625,0 -1.40625,-1.40625 v -27.87109 q 0,-1.40625 1.40625,-1.40625 h 3.71094 q 0.9375,0 1.30859,0.89844 l 5.85938,15.19531 v -14.6875 q 0,-1.40625 1.40625,-1.40625 h 2.8125 q 1.40625,0 1.40625,1.40625 v 27.85156 q 0,1.38672 -1.38672,1.38672 l -3.71094,0.0195 q -0.97656,0.0195 -1.32812,-0.8789 z"
         style="stroke-width:0.5080111"
         id="path1041" />
      <path
         d="m 287.1875,175.30716 -1.13281,-5.70312 h -5.9375 l -1.13282,5.70312 q -0.23437,1.13281 -1.38671,1.13281 h -2.91016 q -0.68359,0 -1.09375,-0.50781 -0.42969,-0.48828 -0.29297,-1.17187 l 5.58594,-27.8711 q 0.21484,-1.13281 1.36719,-1.13281 h 5.66406 q 1.15234,0 1.38672,1.13281 l 5.5664,27.8711 q 0.11719,0.68359 -0.29297,1.17187 -0.42968,0.50781 -1.07421,0.50781 h -2.92969 q -1.17188,0 -1.38672,-1.13281 z m -2.26563,-11.36719 -1.83593,-9.17968 -1.83594,9.17968 z"
         style="stroke-width:0.5080111"
         id="path1043" />
    </g>
    <g
       aria-label="COYOTES"
       transform="matrix(0.50909998,-0.10987579,0.10987579,0.50909998,13.045511,110.40515)"
       style="font-style:normal;font-variant:normal;font-weight:normal;font-stretch:normal;font-size:40px;line-height:1.25;font-family:'New Athletic M54';-inkscape-font-specification:'New Athletic M54';letter-spacing:0px;word-spacing:0px;fill:#111111;fill-opacity:1;stroke:none;stroke-width:0.5080111"
       id="flowRoot1014">
      <path
         d="m 176.60156,175.11185 q -1.5039,1.32812 -3.53515,1.32812 h -6.03516 q -2.24609,0 -3.96484,-1.67968 -1.69922,-1.69922 -1.69922,-3.96485 v -19.39453 q 0,-2.24609 1.71875,-3.94531 1.71875,-1.69922 3.96484,-1.69922 h 5.99609 q 2.2461,0 3.98438,1.71875 1.75781,1.71875 1.75781,3.96484 v 0.89844 q 0,1.38672 -1.40625,1.38672 h -2.87109 q -1.38672,0 -1.38672,-1.38672 v -0.91797 h -6.09375 v 19.35547 h 6.09375 v -1.07422 q 0,-1.40625 1.38672,-1.40625 h 2.87109 q 1.40625,0 1.40625,1.40625 v 1.07422 q 0,2.46094 -2.1875,4.33594 z"
         style="stroke-width:0.5080111"
         id="path1016" />
      <path
         d="m 193.65234,176.43997 h -6.46484 q -2.26563,0 -3.96484,-1.67968 -1.69922,-1.67969 -1.69922,-3.94532 v -19.41406 q 0,-2.24609 1.69922,-3.94531 1.71875,-1.69922 3.96484,-1.69922 h 6.44531 q 2.2461,0 3.96485,1.69922 1.73828,1.69922 1.73828,3.96484 v 19.375 q 0,2.26563 -1.73828,3.96485 -1.71875,1.67968 -3.94532,1.67968 z m 0,-5.66406 v -19.35547 h -6.46484 v 19.35547 z"
         style="stroke-width:0.5080111"
         id="path1018" />
      <path
         d="m 214.21875,165.13138 v 9.90234 q 0,1.40625 -1.40625,1.40625 h -2.92969 q -1.40625,0 -1.40625,-1.40625 v -9.9414 l -6.15234,-17.46094 q -0.25391,-0.68359 0.17578,-1.28906 0.44922,-0.58594 1.15234,-0.58594 h 2.85157 q 0.99609,0 1.32812,0.95703 l 3.53516,10.46875 3.47656,-10.46875 q 0.3125,-0.95703 1.32812,-0.95703 h 3.02735 q 0.70312,0 1.13281,0.60547 0.41016,0.58594 0.17578,1.26953 z"
         style="stroke-width:0.5080111"
         id="path1020" />
      <path
         d="m 235.60547,176.43997 h -6.46485 q -2.26562,0 -3.96484,-1.67968 -1.69922,-1.67969 -1.69922,-3.94532 v -19.41406 q 0,-2.24609 1.69922,-3.94531 1.71875,-1.69922 3.96484,-1.69922 h 6.44532 q 2.24609,0 3.96484,1.69922 1.73828,1.69922 1.73828,3.96484 v 19.375 q 0,2.26563 -1.73828,3.96485 -1.71875,1.67968 -3.94531,1.67968 z m 0,-5.66406 v -19.35547 h -6.46485 v 19.35547 z"
         style="stroke-width:0.5080111"
         id="path1022" />
      <path
         d="m 259.55078,151.42044 h -4.21875 v 23.61328 q 0,1.40625 -1.40625,1.40625 h -2.87109 q -1.40625,0 -1.40625,-1.40625 v -23.61328 h -4.21875 q -1.40625,0 -1.40625,-1.38672 v -2.87109 q 0,-1.40625 1.40625,-1.40625 h 14.12109 q 1.40625,0 1.40625,1.40625 v 2.87109 q 0,1.38672 -1.40625,1.38672 z"
         style="stroke-width:0.5080111"
         id="path1024" />
      <path
         d="m 277.08984,176.43997 h -7.98828 q -2.22656,0 -3.80859,-1.58203 -1.58203,-1.58203 -1.58203,-3.80859 v -23.88672 q 0,-1.40625 1.40625,-1.40625 h 11.85547 q 1.40625,0 1.40625,1.40625 v 2.87109 q 0,1.38672 -1.40625,1.38672 H 269.375 v 6.83594 h 6.34766 q 1.40625,0 1.40625,1.40625 v 2.87109 q 0,1.40625 -1.40625,1.40625 H 269.375 v 6.83594 h 7.71484 q 1.40625,0 1.40625,1.40625 v 2.85156 q 0,1.40625 -1.40625,1.40625 z"
         style="stroke-width:0.5080111"
         id="path1026" />
      <path
         d="m 292.59766,176.43997 h -5.70313 q -2.26562,0 -3.98437,-1.67968 -1.69922,-1.69922 -1.69922,-3.98438 v -1.07422 q 0,-1.40625 1.38672,-1.40625 h 2.87109 q 1.40625,0 1.40625,1.40625 v 1.07422 h 5.72266 v -6.83594 h -5.70313 q -2.26562,0 -3.98437,-1.69922 -1.69922,-1.69921 -1.69922,-3.96484 v -6.85547 q 0,-2.24609 1.69922,-3.94531 1.71875,-1.71875 3.98437,-1.71875 h 5.70313 q 2.24609,0 3.94531,1.69922 1.71875,1.69922 1.71875,3.94531 v 0.9375 q 0,1.38672 -1.38672,1.38672 h -2.87109 q -1.40625,0 -1.40625,-1.38672 v -0.91797 H 286.875 v 6.83594 h 5.72266 q 2.24609,0 3.94531,1.69922 1.71875,1.69922 1.71875,3.94531 v 6.89453 q 0,2.28516 -1.71875,3.96485 -1.69922,1.67968 -3.94531,1.67968 z"
         style="stroke-width:0.5080111"
         id="path1028" />
    </g>
  </g>
</svg>
