<?xml version="1.0" encoding="UTF-8" standalone="no"?>
<!-- Created with Inkscape (http://www.inkscape.org/) -->

<svg
   xmlns:dc="http://purl.org/dc/elements/1.1/"
   xmlns:cc="http://creativecommons.org/ns#"
   xmlns:rdf="http://www.w3.org/1999/02/22-rdf-syntax-ns#"
   xmlns:svg="http://www.w3.org/2000/svg"
   xmlns="http://www.w3.org/2000/svg"
   xmlns:sodipodi="http://sodipodi.sourceforge.net/DTD/sodipodi-0.dtd"
   xmlns:inkscape="http://www.inkscape.org/namespaces/inkscape"
   width="1000"
   height="1000"
   viewBox="0 0 264.58333 264.58334"
   version="1.1"
   id="svg8"
   inkscape:version="0.92.3 (2405546, 2018-03-11)"
   sodipodi:docname="bos-road.svg">
  <defs
     id="defs2" />
  <sodipodi:namedview
     id="base"
     pagecolor="#ffffff"
     bordercolor="#666666"
     borderopacity="1.0"
     inkscape:pageopacity="0.0"
     inkscape:pageshadow="2"
     inkscape:zoom="0.49497475"
     inkscape:cx="482.88323"
     inkscape:cy="265.43545"
     inkscape:document-units="mm"
     inkscape:current-layer="layer1"
     showgrid="false"
     units="px"
     inkscape:window-width="1920"
     inkscape:window-height="1029"
     inkscape:window-x="1920"
     inkscape:window-y="0"
     inkscape:window-maximized="1" />
  <metadata
     id="metadata5">
    <rdf:RDF>
      <cc:Work
         rdf:about="">
        <dc:format>image/svg+xml</dc:format>
        <dc:type
           rdf:resource="http://purl.org/dc/dcmitype/StillImage" />
        <dc:title />
      </cc:Work>
    </rdf:RDF>
  </metadata>
  <g
     inkscape:label="Layer 1"
     inkscape:groupmode="layer"
     id="layer1"
     transform="translate(0,-32.41665)">
    <rect
       style="opacity:1;fill:#ffffff;fill-opacity:1;stroke:none;stroke-width:5.29166651;stroke-linecap:butt;stroke-linejoin:round;stroke-miterlimit:4;stroke-dasharray:none;stroke-opacity:1;paint-order:normal"
       id="rect957"
       width="281.70209"
       height="279.5639"
       x="-6.4144688"
       y="24.919605" />
    <path
       inkscape:connector-curvature="0"
       id="path923"
       d="m 26.238524,134.24943 c 0,0 -2.254165,-16.77092 3.786984,-20.19725 6.041148,-3.42631 7.573967,-2.97548 8.746116,-2.61482 1.172169,0.36067 11.541285,6.13131 14.60695,9.82813 3.065637,3.69681 -27.14005,12.98394 -27.14005,12.98394 z"
       style="opacity:1;fill:#000000;stroke:#ffb81c;stroke-width:5.29166667;stroke-linecap:butt;stroke-linejoin:miter;stroke-opacity:1;fill-opacity:1;stroke-miterlimit:4;stroke-dasharray:none" />
    <path
       inkscape:connector-curvature="0"
       id="path921"
       d="m 45.727241,190.8712 c 0,0 -0.721319,9.91829 -9.557607,22.90223 -8.836298,12.98394 -23.44322,26.32855 -20.738252,31.55819 2.704987,5.22965 15.688937,4.50832 27.230222,-12.08228 0,0 22.541576,-4.50831 34.263186,-11.90194 11.721619,-7.39363 25.96789,-29.21387 25.96789,-29.21387 L 101.08936,159.67367 65.022846,158.772 Z"
       style="opacity:1;fill:#000000;stroke:#ffb81c;stroke-width:5.29166667;stroke-linecap:butt;stroke-linejoin:miter;stroke-opacity:1;fill-opacity:1;stroke-miterlimit:4;stroke-dasharray:none" />
    <path
       inkscape:connector-curvature="0"
       id="path919"
       d="m 152.66446,193.03519 c 0,0 -4.32798,13.16427 -5.77065,23.26289 -1.44267,10.09862 -2.8853,19.65625 -4.68864,22.18091 -1.80334,2.52465 -7.03296,2.34432 -7.57396,5.40998 -0.54102,3.06565 2.34432,3.42631 9.91828,3.42631 7.57397,0 13.88561,0 17.31192,-1.62299 3.42633,-1.62299 9.55764,-15.86926 14.24627,-20.91858 4.68865,-5.0493 12.80362,-11.00028 15.32828,-15.50859 2.52465,-4.50832 3.78698,-12.62328 3.78698,-12.62328 z"
       style="opacity:1;fill:#000000;stroke:#ffb81c;stroke-width:5.29166667;stroke-linecap:butt;stroke-linejoin:miter;stroke-opacity:1;fill-opacity:1;stroke-miterlimit:4;stroke-dasharray:none" />
    <path
       style="opacity:1;fill:#000000;stroke:none;stroke-width:0.25246555px;stroke-linecap:butt;stroke-linejoin:miter;stroke-opacity:1;fill-opacity:1"
       d="m 26.238524,134.24943 c 0,0 -2.254165,-16.77092 3.786984,-20.19725 6.041148,-3.42631 7.573967,-2.97548 8.746116,-2.61482 1.172169,0.36067 11.541285,6.13131 14.60695,9.82813 3.065637,3.69681 -27.14005,12.98394 -27.14005,12.98394 z"
       id="path908"
       inkscape:connector-curvature="0" />
    <path
       style="opacity:1;fill:#000000;stroke:none;stroke-width:0.25246555px;stroke-linecap:butt;stroke-linejoin:miter;stroke-opacity:1;fill-opacity:1"
       d="m 45.727241,190.8712 c 0,0 -0.721319,9.91829 -9.557607,22.90223 -8.836298,12.98394 -23.44322,26.32855 -20.738252,31.55819 2.704987,5.22965 15.688937,4.50832 27.230222,-12.08228 0,0 22.541576,-4.50831 34.263186,-11.90194 11.721619,-7.39363 25.96789,-29.21387 25.96789,-29.21387 L 101.08936,159.67367 65.022846,158.772 Z"
       id="path904"
       inkscape:connector-curvature="0" />
    <path
       style="opacity:1;fill:#000000;stroke:none;stroke-width:0.25246555px;stroke-linecap:butt;stroke-linejoin:miter;stroke-opacity:1;fill-opacity:1"
       d="m 152.66446,193.03519 c 0,0 -4.32798,13.16427 -5.77065,23.26289 -1.44267,10.09862 -2.8853,19.65625 -4.68864,22.18091 -1.80334,2.52465 -7.03296,2.34432 -7.57396,5.40998 -0.54102,3.06565 2.34432,3.42631 9.91828,3.42631 7.57397,0 13.88561,0 17.31192,-1.62299 3.42633,-1.62299 9.55764,-15.86926 14.24627,-20.91858 4.68865,-5.0493 12.80362,-11.00028 15.32828,-15.50859 2.52465,-4.50832 3.78698,-12.62328 3.78698,-12.62328 z"
       id="path902"
       inkscape:connector-curvature="0" />
    <path
       inkscape:connector-curvature="0"
       id="path935"
       d="m 208.02655,199.70749 c 0,0 -23.60775,13.88363 -72.31336,-9.19696 -48.705582,-23.08059 32.09921,-43.8208 32.09921,-43.8208 z"
       style="opacity:1;fill:#000000;stroke:#ffb81c;stroke-width:5.04931116;stroke-linecap:butt;stroke-linejoin:miter;stroke-miterlimit:4;stroke-dasharray:none;stroke-opacity:1;fill-opacity:1" />
    <path
       style="opacity:1;fill:#000000;stroke:#ffb81c;stroke-width:0.25246555px;stroke-linecap:butt;stroke-linejoin:miter;stroke-opacity:1;fill-opacity:1"
       d="m 208.02655,199.70749 c 0,0 -23.60775,13.88363 -72.31336,-9.19696 -48.705582,-23.08059 32.09921,-43.8208 32.09921,-43.8208 z"
       id="path900"
       inkscape:connector-curvature="0" />
    <path
       sodipodi:nodetypes="ccsssscsscssssscscsc"
       inkscape:connector-curvature="0"
       id="path943"
       d="m 87.007608,167.42994 c 0,0 -8.415935,19.12716 -29.583328,17.59699 0,0 -13.516519,13.77155 -27.543095,13.51652 -14.026587,-0.25502 -21.1673851,-12.49641 -21.1673851,-14.02658 0,-1.53018 11.9863531,-16.06681 11.4762951,-21.93247 -0.510059,-5.86566 -3.31538,-7.90589 -3.31538,-10.96624 0,-3.06034 4.590516,-12.49641 9.181041,-18.87212 4.590516,-6.37572 11.221256,-13.00647 13.261489,-13.51653 2.040234,-0.51006 5.610633,0.76509 8.670974,-0.25503 3.06035,-1.02011 11.986352,-8.16091 16.06681,-10.45617 4.080467,-2.29526 13.006469,-5.10058 18.107044,-7.90589 5.100574,-2.805319 21.167387,-18.617101 30.093397,-19.637216 8.926,-1.020115 28.56321,18.617097 40.54957,20.402296 11.98635,1.7852 43.60991,-2.805309 60.44181,11.98635 16.8319,14.79166 27.5431,25.7579 35.44899,62.9921 7.90589,37.2342 8.92601,68.60273 7.90589,70.64296 -1.02011,2.04023 -1.01842,1.53017 -20.14726,1.53017 -18.55339,0 -20.27142,0.0325 -20.08352,-3.44289 0.2726,-5.04201 6.63075,-4.39924 7.07705,-6.50323 0.93774,-4.42075 -27.28808,-48.71049 -27.28808,-48.71049 0,0 -48.71049,-58.65661 -51.77083,-11.98635 -3.06035,46.67026 -18.87213,68.34771 -23.46265,70.1329 -4.59051,1.78521 -26.522986,1.78521 -26.778015,-2.80531 -0.255029,-4.59051 10.456175,-6.88578 13.261495,-10.45618 2.80532,-3.57041 -0.51005,-18.10704 -1.7852,-21.67744 -1.27514,-3.57041 -8.415954,-6.37572 -13.771557,-18.87213 -5.355604,-12.4964 -4.845555,-26.77802 -4.845555,-26.77802 z"
       style="opacity:1;fill:#000000;stroke:#ffb81c;stroke-width:5.04931116;stroke-linecap:butt;stroke-linejoin:miter;stroke-miterlimit:4;stroke-dasharray:none;stroke-opacity:1;fill-opacity:1" />
    <path
       style="opacity:1;fill:#000000;stroke:#ffb81c;stroke-width:0.25246555px;stroke-linecap:butt;stroke-linejoin:miter;stroke-opacity:1;fill-opacity:1"
       d="m 87.007608,167.42994 c 0,0 -8.415935,19.12716 -29.583328,17.59699 0,0 -13.516519,13.77155 -27.543095,13.51652 -14.026587,-0.25502 -21.1673851,-12.49641 -21.1673851,-14.02658 0,-1.53018 11.9863531,-16.06681 11.4762951,-21.93247 -0.510059,-5.86566 -3.31538,-7.90589 -3.31538,-10.96624 0,-3.06034 4.590516,-12.49641 9.181041,-18.87212 4.590516,-6.37572 11.221256,-13.00647 13.261489,-13.51653 2.040234,-0.51006 5.610633,0.76509 8.670974,-0.25503 3.06035,-1.02011 11.986352,-8.16091 16.06681,-10.45617 4.080467,-2.29526 13.006469,-5.10058 18.107044,-7.90589 5.100574,-2.805319 21.167387,-18.617101 30.093397,-19.637216 8.926,-1.020115 28.56321,18.617097 40.54957,20.402296 11.98635,1.7852 43.60991,-2.805309 60.44181,11.98635 16.8319,14.79166 27.5431,25.7579 35.44899,62.9921 7.90589,37.2342 8.92601,68.60273 7.90589,70.64296 -1.02011,2.04023 -1.01842,1.53017 -20.14726,1.53017 -18.55339,0 -20.27142,0.0325 -20.08352,-3.44289 0.2726,-5.04201 6.63075,-4.39924 7.07705,-6.50323 0.93774,-4.42075 -27.28808,-48.71049 -27.28808,-48.71049 0,0 -48.71049,-58.65661 -51.77083,-11.98635 -3.06035,46.67026 -18.87213,68.34771 -23.46265,70.1329 -4.59051,1.78521 -26.522986,1.78521 -26.778015,-2.80531 -0.255029,-4.59051 10.456175,-6.88578 13.261495,-10.45618 2.80532,-3.57041 -0.51005,-18.10704 -1.7852,-21.67744 -1.27514,-3.57041 -8.415954,-6.37572 -13.771557,-18.87213 -5.355604,-12.4964 -4.845555,-26.77802 -4.845555,-26.77802 z"
       id="path898"
       inkscape:connector-curvature="0"
       sodipodi:nodetypes="ccsssscsscssssscscsc" />
    <g
       id="g955"
       transform="matrix(0.95420057,0,0,0.95420057,-424.58002,23.788139)"
       style="fill:#ffb81c;fill-opacity:1">
      <path
         inkscape:connector-curvature="0"
         id="path906"
         d="m 472.84822,166.5982 c 0,0 1.32292,-5.57515 -2.45687,-7.37054 -3.77976,-1.79539 -7.84299,-1.22842 -13.98511,9.16592 0,0 0.94495,3.11831 4.25224,6.14212 0,0 3.02381,0.28348 4.44122,-1.88988 1.41741,-2.17337 -0.94494,-6.89807 1.79539,-7.84301 2.74033,-0.94494 5.10269,-0.18898 5.95313,1.79539 z"
         style="opacity:1;fill:#ffb81c;fill-opacity:1;stroke:none;stroke-width:0.26458332px;stroke-linecap:butt;stroke-linejoin:miter;stroke-opacity:1" />
      <path
         sodipodi:nodetypes="ccccsssc"
         inkscape:connector-curvature="0"
         id="path910"
         d="m 514.80357,113.96501 c 0,0 3.1183,-13.13467 10.29986,-14.835562 7.18153,-1.700896 15.30802,9.732882 17.38688,15.213542 2.07888,5.48065 2.55135,8.59896 -5.29167,16.06399 0,0 8.96746,-3.79123 8.96746,-10.68929 0,-6.86175 -7.19436,-16.94835 -12.48602,-20.64422 -4.9216,-3.437417 -10.39497,-2.679602 -12.94631,-0.411745 -2.55134,2.267855 -5.74121,7.082305 -5.9302,15.303285 z"
         style="opacity:1;fill:#ffb81c;fill-opacity:1;stroke:none;stroke-width:0.26458332px;stroke-linecap:butt;stroke-linejoin:miter;stroke-opacity:1" />
      <path
         sodipodi:nodetypes="ccccccccccc"
         inkscape:connector-curvature="0"
         id="path912"
         d="m 526.78612,105.70489 -3.38359,12.89033 5.95312,-1.79539 -1.32291,6.70908 5.38614,-2.07887 0.37799,5.95313 1.74674,-8.29452 -5.19716,1.79539 1.60639,-6.4256 -6.14211,1.51191 z"
         style="opacity:1;fill:#ffb81c;fill-opacity:1;stroke:none;stroke-width:0.26458332px;stroke-linecap:butt;stroke-linejoin:miter;stroke-opacity:1" />
      <circle
         r="4.2522321"
         cy="144.29761"
         cx="489.10117"
         id="path914"
         style="opacity:1;fill:#ffb81c;fill-opacity:1;stroke:none;stroke-width:0.26458332;stroke-linecap:butt;stroke-linejoin:round;stroke-miterlimit:4;stroke-dasharray:none;stroke-opacity:1;paint-order:normal" />
    </g>
    <path
       style="opacity:1;fill:#000000;fill-opacity:1;stroke:none;stroke-width:0.25246555px;stroke-linecap:butt;stroke-linejoin:miter;stroke-opacity:1"
       d="m 135.53286,179.51025 c 0,0 27.23023,21.09891 72.13302,11.36095 44.90282,-9.73796 -45.62414,-54.2801 -45.62414,-54.2801 l -43.64046,27.41054 z"
       id="path945"
       inkscape:connector-curvature="0" />
    <g
       aria-label="BOSTON"
       transform="matrix(0.39629191,0,0,0.39629191,-108.46956,-12.765354)"
       style="font-style:normal;font-weight:normal;font-size:40px;line-height:1.25;font-family:sans-serif;letter-spacing:0px;word-spacing:0px;fill:#ffb81c;fill-opacity:1;stroke:none"
       id="flowRoot959">
      <path
         d="m 541.5625,352.95672 h 13.96875 V 336.55047 H 541.5625 Z m 0,30.04687 h 13.96875 V 366.59734 H 541.5625 Z m 13.96875,13.59375 h -24.23438 q -3.32812,0 -3.32812,-3.375 v -66.89062 q 0,-3.375 3.32812,-3.375 h 24.23438 q 5.34375,0 9.46875,4.07812 4.17187,4.07813 4.17187,9.46875 v 12.1875 q 0,4.64063 -2.95312,8.20313 l -2.29688,2.8125 2.39063,2.95312 q 2.85937,3.5625 2.85937,8.10938 v 12.28125 q 0,5.4375 -4.125,9.51562 -4.125,4.03125 -9.51562,4.03125 z"
         style="font-style:normal;font-variant:normal;font-weight:normal;font-stretch:normal;font-size:96px;font-family:'New Athletic M54';-inkscape-font-specification:'New Athletic M54';text-align:center;text-anchor:middle;fill:#ffb81c;fill-opacity:1"
         id="path975" />
      <path
         d="M 604.89062,396.59734 H 589.375 q -5.4375,0 -9.51563,-4.03125 -4.07812,-4.03125 -4.07812,-9.46875 v -46.59375 q 0,-5.39062 4.07812,-9.46875 4.125,-4.07812 9.51563,-4.07812 h 15.46875 q 5.39062,0 9.51562,4.07812 4.17188,4.07813 4.17188,9.51563 v 46.5 q 0,5.4375 -4.17188,9.51562 -4.125,4.03125 -9.46875,4.03125 z m 0,-13.59375 V 336.55047 H 589.375 v 46.45312 z"
         style="font-style:normal;font-variant:normal;font-weight:normal;font-stretch:normal;font-size:96px;font-family:'New Athletic M54';-inkscape-font-specification:'New Athletic M54';text-align:center;text-anchor:middle;fill:#ffb81c;fill-opacity:1"
         id="path977" />
      <path
         d="m 652.42187,396.59734 h -13.6875 q -5.4375,0 -9.5625,-4.03125 -4.07812,-4.07812 -4.07812,-9.5625 v -2.57812 q 0,-3.375 3.32812,-3.375 h 6.89063 q 3.375,0 3.375,3.375 v 2.57812 h 13.73437 v -16.40625 h -13.6875 q -5.4375,0 -9.5625,-4.07812 -4.07812,-4.07813 -4.07812,-9.51563 v -16.45312 q 0,-5.39063 4.07812,-9.46875 4.125,-4.125 9.5625,-4.125 h 13.6875 q 5.39063,0 9.46875,4.07812 4.125,4.07813 4.125,9.46875 v 2.25 q 0,3.32813 -3.32812,3.32813 h -6.89063 q -3.375,0 -3.375,-3.32813 v -2.20312 H 638.6875 v 16.40625 h 13.73437 q 5.39063,0 9.46875,4.07812 4.125,4.07813 4.125,9.46875 v 16.54688 q 0,5.48437 -4.125,9.51562 -4.07812,4.03125 -9.46875,4.03125 z"
         style="font-style:normal;font-variant:normal;font-weight:normal;font-stretch:normal;font-size:96px;font-family:'New Athletic M54';-inkscape-font-specification:'New Athletic M54';text-align:center;text-anchor:middle;fill:#ffb81c;fill-opacity:1"
         id="path979" />
      <path
         d="m 709.79687,336.55047 h -10.125 v 56.67187 q 0,3.375 -3.375,3.375 h -6.89062 q -3.375,0 -3.375,-3.375 v -56.67187 h -10.125 q -3.375,0 -3.375,-3.32813 v -6.89062 q 0,-3.375 3.375,-3.375 h 33.89062 q 3.375,0 3.375,3.375 v 6.89062 q 0,3.32813 -3.375,3.32813 z"
         style="font-style:normal;font-variant:normal;font-weight:normal;font-stretch:normal;font-size:96px;font-family:'New Athletic M54';-inkscape-font-specification:'New Athletic M54';text-align:center;text-anchor:middle;fill:#ffb81c;fill-opacity:1"
         id="path981" />
      <path
         d="M 748.89062,396.59734 H 733.375 q -5.4375,0 -9.51563,-4.03125 -4.07812,-4.03125 -4.07812,-9.46875 v -46.59375 q 0,-5.39062 4.07812,-9.46875 4.125,-4.07812 9.51563,-4.07812 h 15.46875 q 5.39062,0 9.51562,4.07812 4.17188,4.07813 4.17188,9.51563 v 46.5 q 0,5.4375 -4.17188,9.51562 -4.125,4.03125 -9.46875,4.03125 z m 0,-13.59375 V 336.55047 H 733.375 v 46.45312 z"
         style="font-style:normal;font-variant:normal;font-weight:normal;font-stretch:normal;font-size:96px;font-family:'New Athletic M54';-inkscape-font-specification:'New Athletic M54';text-align:center;text-anchor:middle;fill:#ffb81c;fill-opacity:1"
         id="path983" />
      <path
         d="m 796.65625,394.44109 -14.01563,-36.42187 v 35.20312 q 0,3.375 -3.375,3.375 h -6.79687 q -3.375,0 -3.375,-3.375 v -66.89062 q 0,-3.375 3.375,-3.375 h 8.90625 q 2.25,0 3.14062,2.15625 l 14.0625,36.46875 v -35.25 q 0,-3.375 3.375,-3.375 h 6.75 q 3.375,0 3.375,3.375 v 66.84375 q 0,3.32812 -3.32812,3.32812 l -8.90625,0.0469 q -2.34375,0.0469 -3.1875,-2.10938 z"
         style="font-style:normal;font-variant:normal;font-weight:normal;font-stretch:normal;font-size:96px;font-family:'New Athletic M54';-inkscape-font-specification:'New Athletic M54';text-align:center;text-anchor:middle;fill:#ffb81c;fill-opacity:1"
         id="path985" />
    </g>
    <g
       aria-label="BRUINS"
       transform="matrix(0.39629191,0,0,0.39629191,-108.46956,22.136636)"
       style="font-style:normal;font-weight:normal;font-size:40px;line-height:1.25;font-family:sans-serif;letter-spacing:0px;word-spacing:0px;fill:#ffb81c;fill-opacity:1;stroke:none"
       id="flowRoot973">
      <path
         d="m 555.25,352.95672 h 13.96875 V 336.55047 H 555.25 Z m 0,30.04687 h 13.96875 V 366.59734 H 555.25 Z m 13.96875,13.59375 h -24.23438 q -3.32812,0 -3.32812,-3.375 v -66.89062 q 0,-3.375 3.32812,-3.375 h 24.23438 q 5.34375,0 9.46875,4.07812 4.17187,4.07813 4.17187,9.46875 v 12.1875 q 0,4.64063 -2.95312,8.20313 l -2.29688,2.8125 2.39063,2.95312 q 2.85937,3.5625 2.85937,8.10938 v 12.28125 q 0,5.4375 -4.125,9.51562 -4.125,4.03125 -9.51562,4.03125 z"
         style="font-style:normal;font-variant:normal;font-weight:normal;font-stretch:normal;font-size:96px;font-family:'New Athletic M54';-inkscape-font-specification:'New Athletic M54';text-align:center;text-anchor:middle;fill:#ffb81c;fill-opacity:1"
         id="path988" />
      <path
         d="m 628.375,396.59734 h -7.35938 q -2.25,0 -3.09375,-2.15625 l -10.78125,-27.84375 h -4.03125 v 26.625 q 0,3.375 -3.375,3.375 h -6.89062 q -3.375,0 -3.375,-3.375 v -66.89062 q 0,-3.375 3.375,-3.375 h 23.95312 q 5.39063,0 9.5625,4.125 4.17188,4.07812 4.17188,9.51562 v 16.3125 q 0,4.3125 -2.67188,7.82813 -2.67187,3.51562 -6.5625,4.96875 l 10.21875,26.29687 q 0.65625,1.73438 -0.32812,3.14063 -1.03125,1.45312 -2.8125,1.45312 z m -11.48438,-43.64062 v -16.40625 h -13.78125 v 16.40625 z"
         style="font-style:normal;font-variant:normal;font-weight:normal;font-stretch:normal;font-size:96px;font-family:'New Athletic M54';-inkscape-font-specification:'New Athletic M54';text-align:center;text-anchor:middle;fill:#ffb81c;fill-opacity:1"
         id="path990" />
      <path
         d="m 667.42187,396.59734 h -15 q -5.4375,0 -9.5625,-4.03125 -4.07812,-4.07812 -4.07812,-9.51562 v -56.71875 q 0,-3.375 3.375,-3.375 H 649 q 3.375,0 3.375,3.375 v 56.67187 h 15.23437 v -56.67187 q 0,-3.375 3.32813,-3.375 h 6.89062 q 3.375,0 3.375,3.375 v 56.625 q 0,5.48437 -4.21875,9.5625 -4.17187,4.07812 -9.5625,4.07812 z"
         style="font-style:normal;font-variant:normal;font-weight:normal;font-stretch:normal;font-size:96px;font-family:'New Athletic M54';-inkscape-font-specification:'New Athletic M54';text-align:center;text-anchor:middle;fill:#ffb81c;fill-opacity:1"
         id="path992" />
      <path
         d="m 697.98437,396.59734 h -6.89062 q -3.375,0 -3.375,-3.375 v -66.89062 q 0,-3.375 3.375,-3.375 h 6.89062 q 3.375,0 3.375,3.375 v 66.89062 q 0,3.375 -3.375,3.375 z"
         style="font-style:normal;font-variant:normal;font-weight:normal;font-stretch:normal;font-size:96px;font-family:'New Athletic M54';-inkscape-font-specification:'New Athletic M54';text-align:center;text-anchor:middle;fill:#ffb81c;fill-opacity:1"
         id="path994" />
      <path
         d="m 735.53125,394.44109 -14.01563,-36.42187 v 35.20312 q 0,3.375 -3.375,3.375 h -6.79687 q -3.375,0 -3.375,-3.375 v -66.89062 q 0,-3.375 3.375,-3.375 H 720.25 q 2.25,0 3.14062,2.15625 l 14.0625,36.46875 v -35.25 q 0,-3.375 3.375,-3.375 h 6.75 q 3.375,0 3.375,3.375 v 66.84375 q 0,3.32812 -3.32812,3.32812 l -8.90625,0.0469 q -2.34375,0.0469 -3.1875,-2.10938 z"
         style="font-style:normal;font-variant:normal;font-weight:normal;font-stretch:normal;font-size:96px;font-family:'New Athletic M54';-inkscape-font-specification:'New Athletic M54';text-align:center;text-anchor:middle;fill:#ffb81c;fill-opacity:1"
         id="path996" />
      <path
         d="m 784.79687,396.59734 h -13.6875 q -5.4375,0 -9.5625,-4.03125 -4.07812,-4.07812 -4.07812,-9.5625 v -2.57812 q 0,-3.375 3.32812,-3.375 h 6.89063 q 3.375,0 3.375,3.375 v 2.57812 h 13.73437 v -16.40625 h -13.6875 q -5.4375,0 -9.5625,-4.07812 -4.07812,-4.07813 -4.07812,-9.51563 v -16.45312 q 0,-5.39063 4.07812,-9.46875 4.125,-4.125 9.5625,-4.125 h 13.6875 q 5.39063,0 9.46875,4.07812 4.125,4.07813 4.125,9.46875 v 2.25 q 0,3.32813 -3.32812,3.32813 h -6.89063 q -3.375,0 -3.375,-3.32813 v -2.20312 H 771.0625 v 16.40625 h 13.73437 q 5.39063,0 9.46875,4.07812 4.125,4.07813 4.125,9.46875 v 16.54688 q 0,5.48437 -4.125,9.51562 -4.07812,4.03125 -9.46875,4.03125 z"
         style="font-style:normal;font-variant:normal;font-weight:normal;font-stretch:normal;font-size:96px;font-family:'New Athletic M54';-inkscape-font-specification:'New Athletic M54';text-align:center;text-anchor:middle;fill:#ffb81c;fill-opacity:1"
         id="path998" />
    </g>
  </g>
</svg>
