<?xml version="1.0" encoding="UTF-8" standalone="no"?>
<!-- Created with Inkscape (http://www.inkscape.org/) -->

<svg
   xmlns:dc="http://purl.org/dc/elements/1.1/"
   xmlns:cc="http://creativecommons.org/ns#"
   xmlns:rdf="http://www.w3.org/1999/02/22-rdf-syntax-ns#"
   xmlns:svg="http://www.w3.org/2000/svg"
   xmlns="http://www.w3.org/2000/svg"
   xmlns:sodipodi="http://sodipodi.sourceforge.net/DTD/sodipodi-0.dtd"
   xmlns:inkscape="http://www.inkscape.org/namespaces/inkscape"
   width="1000"
   height="1000"
   viewBox="0 0 264.58333 264.58334"
   version="1.1"
   id="svg8"
   inkscape:version="0.92.3 (2405546, 2018-03-11)"
   sodipodi:docname="cbj-road.svg">
  <defs
     id="defs2" />
  <sodipodi:namedview
     id="base"
     pagecolor="#ffffff"
     bordercolor="#666666"
     borderopacity="1.0"
     inkscape:pageopacity="0.0"
     inkscape:pageshadow="2"
     inkscape:zoom="0.70710678"
     inkscape:cx="580.49451"
     inkscape:cy="489.83118"
     inkscape:document-units="mm"
     inkscape:current-layer="layer1"
     showgrid="false"
     units="px"
     inkscape:window-width="1920"
     inkscape:window-height="1029"
     inkscape:window-x="1920"
     inkscape:window-y="0"
     inkscape:window-maximized="1" />
  <metadata
     id="metadata5">
    <rdf:RDF>
      <cc:Work
         rdf:about="">
        <dc:format>image/svg+xml</dc:format>
        <dc:type
           rdf:resource="http://purl.org/dc/dcmitype/StillImage" />
        <dc:title />
      </cc:Work>
    </rdf:RDF>
  </metadata>
  <g
     inkscape:label="Layer 1"
     inkscape:groupmode="layer"
     id="layer1"
     transform="translate(0,-32.41665)">
    <rect
       style="opacity:1;fill:#ffffff;fill-opacity:1;stroke:none;stroke-width:0.52916664;stroke-linecap:butt;stroke-linejoin:round;stroke-miterlimit:4;stroke-dasharray:none;stroke-opacity:1;paint-order:normal"
       id="rect953"
       width="275.39453"
       height="275.39453"
       x="-4.1159506"
       y="28.340654" />
    <path
       style="fill:#ce1126;stroke:none;stroke-width:0.24992289px;stroke-linecap:butt;stroke-linejoin:miter;stroke-opacity:1;fill-opacity:1"
       d="M 10.232091,91.456057 V 244.26585 l 245.638069,-28.55857 -61.58255,-47.92369 61.58255,-47.80557 z m 40.011734,48.637833 c 15.165227,-1.6e-4 27.459188,12.29358 27.459303,27.45881 -1.15e-4,15.16523 -12.294076,27.45897 -27.459303,27.45881 -15.165042,-10e-5 -27.458714,-12.29377 -27.45883,-27.45881 1.16e-4,-15.16504 12.293788,-27.45871 27.45883,-27.45881 z m 0,8.37291 c -10.540835,4e-5 -19.085861,8.54506 -19.085913,19.0859 4.7e-5,10.54084 8.545074,19.08587 19.085913,19.08591 10.540829,-6e-5 19.08584,-8.54508 19.085886,-19.08591 -5.2e-5,-10.54082 -8.545061,-19.08584 -19.085886,-19.0859 z"
       id="path896"
       inkscape:connector-curvature="0"
       sodipodi:nodetypes="cccccccccccccccc" />
    <g
       aria-label="COLUMBUS"
       transform="matrix(0.78333091,0,0,0.78333091,-233.58344,-129.38724)"
       style="font-style:normal;font-variant:normal;font-weight:normal;font-stretch:normal;font-size:40px;line-height:1.25;font-family:'New Athletic M54';-inkscape-font-specification:'New Athletic M54';letter-spacing:0px;word-spacing:0px;fill:#002654;fill-opacity:1;stroke:none"
       id="flowRoot929">
      <path
         d="m 415.41016,350.64505 q -1.50391,1.32813 -3.53516,1.32813 h -6.03516 q -2.24609,0 -3.96484,-1.67969 -1.69922,-1.69922 -1.69922,-3.96485 v -19.39453 q 0,-2.24609 1.71875,-3.94531 1.71875,-1.69922 3.96484,-1.69922 h 5.9961 q 2.24609,0 3.98437,1.71875 1.75782,1.71875 1.75782,3.96485 v 0.89843 q 0,1.38672 -1.40625,1.38672 h -2.8711 q -1.38672,0 -1.38672,-1.38672 v -0.91797 h -6.09375 v 19.35547 h 6.09375 v -1.07422 q 0,-1.40625 1.38672,-1.40625 h 2.8711 q 1.40625,0 1.40625,1.40625 v 1.07422 q 0,2.46094 -2.1875,4.33594 z"
         style="fill:#002654;fill-opacity:1"
         id="path850" />
      <path
         d="m 432.46094,351.97318 h -6.46485 q -2.26562,0 -3.96484,-1.67969 -1.69922,-1.67969 -1.69922,-3.94531 v -19.41407 q 0,-2.24609 1.69922,-3.94531 1.71875,-1.69922 3.96484,-1.69922 h 6.44532 q 2.24609,0 3.96484,1.69922 1.73828,1.69922 1.73828,3.96484 v 19.375 q 0,2.26563 -1.73828,3.96485 -1.71875,1.67969 -3.94531,1.67969 z m 0,-5.66407 v -19.35547 h -6.46485 v 19.35547 z"
         style="fill:#002654;fill-opacity:1"
         id="path852" />
      <path
         d="m 453.53516,351.97318 h -7.2461 q -2.22656,0 -3.82812,-1.58204 -1.58203,-1.58203 -1.58203,-3.80859 v -23.88672 q 0,-1.40625 1.40625,-1.40625 h 2.87109 q 1.40625,0 1.40625,1.40625 v 23.61328 h 6.97266 q 1.38671,0 1.38671,1.40625 v 2.85157 q 0,1.40625 -1.38671,1.40625 z"
         style="fill:#002654;fill-opacity:1"
         id="path854" />
      <path
         d="m 469.60937,351.97318 h -6.25 q -2.26562,0 -3.98437,-1.67969 -1.69922,-1.69922 -1.69922,-3.96485 v -23.63281 q 0,-1.40625 1.40625,-1.40625 h 2.85156 q 1.40625,0 1.40625,1.40625 v 23.61328 h 6.34766 v -23.61328 q 0,-1.40625 1.38672,-1.40625 h 2.87109 q 1.40625,0 1.40625,1.40625 v 23.59375 q 0,2.28516 -1.75781,3.98438 -1.73828,1.69922 -3.98438,1.69922 z"
         style="fill:#002654;fill-opacity:1"
         id="path856" />
      <path
         d="M 497.87109,351.97318 H 495 q -1.40625,0 -1.40625,-1.40625 v -15.87891 l -3.67188,7.83203 q -0.37109,0.80078 -1.26953,0.80078 -0.89843,0 -1.25,-0.80078 l -3.67187,-7.83203 v 15.87891 q 0,1.40625 -1.40625,1.40625 h -2.8711 q -1.38671,0 -1.38671,-1.40625 v -27.8711 q 0,-1.40625 1.38671,-1.40625 h 3.37891 q 0.87891,0 1.26953,0.82031 l 4.55078,9.72657 4.57032,-9.72657 q 0.37109,-0.82031 1.26953,-0.82031 h 3.3789 q 1.40625,0 1.40625,1.40625 v 27.8711 q 0,1.40625 -1.40625,1.40625 z"
         style="fill:#002654;fill-opacity:1"
         id="path858" />
      <path
         d="m 507.71484,333.78958 h 5.82032 v -6.83594 h -5.82032 z m 0,12.51953 h 5.82032 v -6.83593 h -5.82032 z m 5.82032,5.66407 H 503.4375 q -1.38672,0 -1.38672,-1.40625 v -27.8711 q 0,-1.40625 1.38672,-1.40625 h 10.09766 q 2.22656,0 3.94531,1.69922 1.73828,1.69922 1.73828,3.94531 v 5.07813 q 0,1.93359 -1.23047,3.41797 l -0.95703,1.17187 0.99609,1.23047 q 1.19141,1.48438 1.19141,3.37891 v 5.11718 q 0,2.26563 -1.71875,3.96485 -1.71875,1.67969 -3.96484,1.67969 z"
         style="fill:#002654;fill-opacity:1"
         id="path860" />
      <path
         d="m 533.90625,351.97318 h -6.25 q -2.26563,0 -3.98438,-1.67969 -1.69921,-1.69922 -1.69921,-3.96485 v -23.63281 q 0,-1.40625 1.40625,-1.40625 h 2.85156 q 1.40625,0 1.40625,1.40625 v 23.61328 h 6.34765 v -23.61328 q 0,-1.40625 1.38672,-1.40625 h 2.8711 q 1.40625,0 1.40625,1.40625 v 23.59375 q 0,2.28516 -1.75782,3.98438 -1.73828,1.69922 -3.98437,1.69922 z"
         style="fill:#002654;fill-opacity:1"
         id="path862" />
      <path
         d="m 553.75,351.97318 h -5.70313 q -2.26562,0 -3.98437,-1.67969 -1.69922,-1.69922 -1.69922,-3.98438 v -1.07422 q 0,-1.40625 1.38672,-1.40625 h 2.87109 q 1.40625,0 1.40625,1.40625 v 1.07422 H 553.75 v -6.83593 h -5.70313 q -2.26562,0 -3.98437,-1.69922 -1.69922,-1.69922 -1.69922,-3.96485 v -6.85547 q 0,-2.24609 1.69922,-3.94531 1.71875,-1.71875 3.98437,-1.71875 H 553.75 q 2.24609,0 3.94531,1.69922 1.71875,1.69922 1.71875,3.94531 v 0.9375 q 0,1.38672 -1.38672,1.38672 h -2.87109 q -1.40625,0 -1.40625,-1.38672 v -0.91797 h -5.72266 v 6.83594 H 553.75 q 2.24609,0 3.94531,1.69922 1.71875,1.69922 1.71875,3.94531 v 6.89453 q 0,2.28516 -1.71875,3.96485 -1.69922,1.67969 -3.94531,1.67969 z"
         style="fill:#002654;fill-opacity:1"
         id="path864" />
    </g>
    <g
       aria-label="BLUE"
       transform="matrix(0.78333091,0,0,0.78333091,-199.37391,-95.35179)"
       style="font-style:normal;font-variant:normal;font-weight:normal;font-stretch:normal;font-size:40px;line-height:1.25;font-family:'New Athletic M54';-inkscape-font-specification:'New Athletic M54';letter-spacing:0px;word-spacing:0px;fill:#002654;fill-opacity:1;stroke:none"
       id="flowRoot943">
      <path
         d="m 405.83984,333.78958 h 5.82032 v -6.83594 h -5.82032 z m 0,12.51953 h 5.82032 v -6.83593 h -5.82032 z m 5.82032,5.66407 H 401.5625 q -1.38672,0 -1.38672,-1.40625 v -27.8711 q 0,-1.40625 1.38672,-1.40625 h 10.09766 q 2.22656,0 3.94531,1.69922 1.73828,1.69922 1.73828,3.94531 v 5.07813 q 0,1.93359 -1.23047,3.41797 l -0.95703,1.17187 0.99609,1.23047 q 1.19141,1.48438 1.19141,3.37891 v 5.11718 q 0,2.26563 -1.71875,3.96485 -1.71875,1.67969 -3.96484,1.67969 z"
         style="fill:#002654;fill-opacity:1"
         id="path841" />
      <path
         d="m 432.75391,351.97318 h -7.2461 q -2.22656,0 -3.82812,-1.58204 -1.58203,-1.58203 -1.58203,-3.80859 v -23.88672 q 0,-1.40625 1.40625,-1.40625 h 2.87109 q 1.40625,0 1.40625,1.40625 v 23.61328 h 6.97266 q 1.38671,0 1.38671,1.40625 v 2.85157 q 0,1.40625 -1.38671,1.40625 z"
         style="fill:#002654;fill-opacity:1"
         id="path843" />
      <path
         d="m 448.82812,351.97318 h -6.25 q -2.26562,0 -3.98437,-1.67969 -1.69922,-1.69922 -1.69922,-3.96485 v -23.63281 q 0,-1.40625 1.40625,-1.40625 h 2.85156 q 1.40625,0 1.40625,1.40625 v 23.61328 h 6.34766 v -23.61328 q 0,-1.40625 1.38672,-1.40625 h 2.87109 q 1.40625,0 1.40625,1.40625 v 23.59375 q 0,2.28516 -1.75781,3.98438 -1.73828,1.69922 -3.98438,1.69922 z"
         style="fill:#002654;fill-opacity:1"
         id="path845" />
      <path
         d="m 470.66406,351.97318 h -7.98828 q -2.22656,0 -3.80859,-1.58204 -1.58203,-1.58203 -1.58203,-3.80859 v -23.88672 q 0,-1.40625 1.40625,-1.40625 h 11.85546 q 1.40625,0 1.40625,1.40625 v 2.8711 q 0,1.38671 -1.40625,1.38671 h -7.59765 v 6.83594 h 6.34765 q 1.40625,0 1.40625,1.40625 v 2.8711 q 0,1.40625 -1.40625,1.40625 h -6.34765 v 6.83593 h 7.71484 q 1.40625,0 1.40625,1.40625 v 2.85157 q 0,1.40625 -1.40625,1.40625 z"
         style="fill:#002654;fill-opacity:1"
         id="path847" />
    </g>
    <g
       aria-label="JACKETS"
       transform="matrix(0.78333091,0,0,0.78333091,-224.06719,-61.316351)"
       style="font-style:normal;font-variant:normal;font-weight:normal;font-stretch:normal;font-size:40px;line-height:1.25;font-family:'New Athletic M54';-inkscape-font-specification:'New Athletic M54';letter-spacing:0px;word-spacing:0px;fill:#002654;fill-opacity:1;stroke:none"
       id="flowRoot951">
      <path
         d="m 410.97656,351.97318 h -5.11719 q -2.26562,0 -3.98437,-1.67969 -1.69922,-1.69922 -1.69922,-3.96485 v -1.09375 q 0,-1.40625 1.40625,-1.40625 h 2.87109 q 1.38672,0 1.38672,1.40625 v 1.07422 h 5.15625 v -23.61328 q 0,-1.40625 1.38672,-1.40625 h 2.89063 q 1.38672,0 1.38672,1.40625 v 23.61328 q 0,2.28516 -1.73829,3.98438 -1.71875,1.67969 -3.94531,1.67969 z"
         style="fill:#002654;fill-opacity:1"
         id="path826" />
      <path
         d="m 432.63672,350.84036 -1.13281,-5.70312 h -5.9375 l -1.13282,5.70312 q -0.23437,1.13282 -1.38672,1.13282 h -2.91015 q -0.6836,0 -1.09375,-0.50782 -0.42969,-0.48828 -0.29297,-1.17187 l 5.58594,-27.8711 q 0.21484,-1.13281 1.36718,-1.13281 h 5.66407 q 1.15234,0 1.38672,1.13281 l 5.5664,27.8711 q 0.11719,0.68359 -0.29297,1.17187 -0.42968,0.50782 -1.07422,0.50782 h -2.92968 q -1.17188,0 -1.38672,-1.13282 z m -2.26563,-11.36718 -1.83593,-9.17969 -1.83594,9.17969 z"
         style="fill:#002654;fill-opacity:1"
         id="path828" />
      <path
         d="m 455.76172,350.64505 q -1.50391,1.32813 -3.53516,1.32813 h -6.03515 q -2.2461,0 -3.96485,-1.67969 -1.69922,-1.69922 -1.69922,-3.96485 v -19.39453 q 0,-2.24609 1.71875,-3.94531 1.71875,-1.69922 3.96485,-1.69922 h 5.99609 q 2.24609,0 3.98438,1.71875 1.75781,1.71875 1.75781,3.96485 v 0.89843 q 0,1.38672 -1.40625,1.38672 h -2.8711 q -1.38671,0 -1.38671,-1.38672 v -0.91797 h -6.09375 v 19.35547 h 6.09375 v -1.07422 q 0,-1.40625 1.38671,-1.40625 h 2.8711 q 1.40625,0 1.40625,1.40625 v 1.07422 q 0,2.46094 -2.1875,4.33594 z"
         style="fill:#002654;fill-opacity:1"
         id="path830" />
      <path
         d="m 477.79297,323.32083 -6.58203,13.32031 6.58203,13.30079 q 0.33203,0.68359 -0.0586,1.36718 -0.41015,0.66407 -1.1914,0.66407 h -3.1836 q -0.91796,0 -1.26953,-0.80079 l -5.70312,-11.69921 v 11.09375 q 0,1.40625 -1.40625,1.40625 h -2.8711 q -1.38671,0 -1.38671,-1.40625 v -27.8711 q 0,-1.40625 1.38671,-1.40625 h 2.8711 q 1.40625,0 1.40625,1.40625 v 11.09375 l 5.70312,-11.69922 q 0.39063,-0.80078 1.26953,-0.80078 h 3.1836 q 0.76172,0 1.1914,0.66406 0.39063,0.70313 0.0586,1.36719 z"
         style="fill:#002654;fill-opacity:1"
         id="path832" />
      <path
         d="m 494.25781,351.97318 h -7.98828 q -2.22656,0 -3.80859,-1.58204 -1.58203,-1.58203 -1.58203,-3.80859 v -23.88672 q 0,-1.40625 1.40625,-1.40625 h 11.85546 q 1.40625,0 1.40625,1.40625 v 2.8711 q 0,1.38671 -1.40625,1.38671 h -7.59765 v 6.83594 h 6.34765 q 1.40625,0 1.40625,1.40625 v 2.8711 q 0,1.40625 -1.40625,1.40625 h -6.34765 v 6.83593 h 7.71484 q 1.40625,0 1.40625,1.40625 v 2.85157 q 0,1.40625 -1.40625,1.40625 z"
         style="fill:#002654;fill-opacity:1"
         id="path834" />
      <path
         d="m 513.90625,326.95364 h -4.21875 v 23.61329 q 0,1.40625 -1.40625,1.40625 h -2.87109 q -1.40625,0 -1.40625,-1.40625 v -23.61329 h -4.21875 q -1.40625,0 -1.40625,-1.38671 v -2.8711 q 0,-1.40625 1.40625,-1.40625 h 14.12109 q 1.40625,0 1.40625,1.40625 v 2.8711 q 0,1.38671 -1.40625,1.38671 z"
         style="fill:#002654;fill-opacity:1"
         id="path836" />
      <path
         d="M 529.45312,351.97318 H 523.75 q -2.26563,0 -3.98438,-1.67969 -1.69921,-1.69922 -1.69921,-3.98438 v -1.07422 q 0,-1.40625 1.38671,-1.40625 h 2.8711 q 1.40625,0 1.40625,1.40625 v 1.07422 h 5.72265 v -6.83593 H 523.75 q -2.26563,0 -3.98438,-1.69922 -1.69921,-1.69922 -1.69921,-3.96485 v -6.85547 q 0,-2.24609 1.69921,-3.94531 1.71875,-1.71875 3.98438,-1.71875 h 5.70312 q 2.2461,0 3.94532,1.69922 1.71875,1.69922 1.71875,3.94531 v 0.9375 q 0,1.38672 -1.38672,1.38672 h -2.8711 q -1.40625,0 -1.40625,-1.38672 v -0.91797 h -5.72265 v 6.83594 h 5.72265 q 2.2461,0 3.94532,1.69922 1.71875,1.69922 1.71875,3.94531 v 6.89453 q 0,2.28516 -1.71875,3.96485 -1.69922,1.67969 -3.94532,1.67969 z"
         style="fill:#002654;fill-opacity:1"
         id="path838" />
    </g>
  </g>
</svg>
