<?xml version="1.0" encoding="UTF-8" standalone="no"?>
<!-- Created with Inkscape (http://www.inkscape.org/) -->

<svg
   xmlns:dc="http://purl.org/dc/elements/1.1/"
   xmlns:cc="http://creativecommons.org/ns#"
   xmlns:rdf="http://www.w3.org/1999/02/22-rdf-syntax-ns#"
   xmlns:svg="http://www.w3.org/2000/svg"
   xmlns="http://www.w3.org/2000/svg"
   xmlns:sodipodi="http://sodipodi.sourceforge.net/DTD/sodipodi-0.dtd"
   xmlns:inkscape="http://www.inkscape.org/namespaces/inkscape"
   width="1000"
   height="1000"
   viewBox="0 0 264.58333 264.58334"
   version="1.1"
   id="svg8"
   inkscape:version="0.92.3 (2405546, 2018-03-11)"
   sodipodi:docname="cgy-alt.svg">
  <defs
     id="defs2" />
  <sodipodi:namedview
     id="base"
     pagecolor="#ffffff"
     bordercolor="#666666"
     borderopacity="1.0"
     inkscape:pageopacity="0.0"
     inkscape:pageshadow="2"
     inkscape:zoom="0.49497475"
     inkscape:cx="798.26156"
     inkscape:cy="492.48084"
     inkscape:document-units="mm"
     inkscape:current-layer="layer1"
     showgrid="false"
     units="px"
     inkscape:window-width="1920"
     inkscape:window-height="1029"
     inkscape:window-x="1920"
     inkscape:window-y="0"
     inkscape:window-maximized="1" />
  <metadata
     id="metadata5">
    <rdf:RDF>
      <cc:Work
         rdf:about="">
        <dc:format>image/svg+xml</dc:format>
        <dc:type
           rdf:resource="http://purl.org/dc/dcmitype/StillImage" />
        <dc:title />
      </cc:Work>
    </rdf:RDF>
  </metadata>
  <g
     inkscape:label="Layer 1"
     inkscape:groupmode="layer"
     id="layer1"
     transform="translate(0,-32.41665)">
    <rect
       style="opacity:1;fill:#c8102e;fill-opacity:1;stroke:none;stroke-width:5.29166651;stroke-linecap:butt;stroke-linejoin:round;stroke-miterlimit:4;stroke-dasharray:none;stroke-opacity:1;paint-order:normal"
       id="rect976"
       width="274.03271"
       height="275.92264"
       x="-4.5357141"
       y="26.747007" />
    <path
       inkscape:connector-curvature="0"
       id="path891"
       d="M 111.17404,54.387623 C 91.10927,65.980579 80.853901,90.058099 79.516258,102.9887 c -1.337645,12.93061 1.783819,26.75324 1.783819,34.33324 0,7.58001 -5.797007,21.84813 -5.797007,21.84813 0,0 -8.471145,-18.28128 -13.821754,-22.29422 -5.350576,-4.01295 -17.835873,-3.56687 -24.524125,-8.91747 -6.688254,-5.35059 -15.159484,-24.96968 -15.159484,-24.96968 0,0 -1.783908,22.29378 2.674915,32.99497 4.458827,10.70118 12.930851,13.37677 19.173211,22.74031 6.24233,9.36354 6.688105,20.06431 6.688105,20.06431 -13.822366,-16.94354 -40.1297,-24.52305 -40.1297,-24.52305 11.592969,8.02589 17.87279,26.75288 17.87279,45.16214 v 81.21159 H 234.47434 v -81.21159 c 0,-18.599 23.39512,-39.81176 23.39512,-39.81176 -26.30712,2.22941 -33.88715,18.28157 -33.88715,18.28157 0,0 -2.22917,-10.70151 4.01319,-20.51094 6.24237,-9.80941 12.93073,-7.57996 20.06485,-17.38939 12.23361,-16.8212 -5.79701,-37.8998 -5.79701,-37.8998 9.36354,23.63179 -19.61853,29.42761 -30.7656,37.00762 -11.14708,7.58 -15.60611,27.19904 -15.60611,27.19904 -10.70118,-38.79182 4.45902,-43.24991 0.44609,-60.19347 -4.01293,-16.94356 -28.09068,-41.021878 -28.09068,-41.021878 0,0 10.25515,27.645014 8.91747,37.900328 -1.33764,10.25531 -19.17321,36.56261 -19.17321,36.56261 0,0 3.12132,-34.77958 -0.89164,-48.156076 -4.01294,-13.376492 -16.9431,-13.376187 -22.29368,-19.172671 -5.35057,-5.796478 -4.90536,-15.605572 -4.90536,-15.605572 0,0 -7.13349,8.917157 -4.4582,18.72658 2.67528,9.80943 10.70135,14.714528 12.03902,27.645129 1.33764,12.93061 -16.0522,41.4669 -16.0522,41.4669 0,0 -1.78331,-14.71404 -5.35038,-25.41523 -3.56708,-10.7012 -14.71421,-15.60584 -16.49775,-28.982324 -1.78353,-13.376492 11.59293,-35.670423 11.59293,-35.670423 z m -42.358532,8.248606 c 0,0 -0.223138,5.796658 -6.242554,12.039019 -6.019444,6.242355 -19.619102,12.48453 -19.173211,26.975722 0.445894,14.4912 13.598946,15.16035 21.624813,26.30741 2.401996,3.3361 5.351456,7.57974 5.351456,7.57974 0,0 0.504195,-11.13888 -1.338268,-16.0522 -2.006517,-5.35059 -6.464677,-8.02531 -7.356428,-17.38886 -0.891782,-9.363541 15.60598,-26.307283 7.134192,-39.460831 z m 161.240652,4.399257 c -13.13077,-0.153546 -22.18834,13.763389 -24.13211,23.914198 -2.00644,10.478246 2.67492,13.599546 2.67492,20.064856 0,6.4653 -8.02529,20.06485 -8.02529,20.06485 12.48472,-3.79001 24.07706,-14.93687 26.08355,-23.40864 2.00644,-8.471782 -5.12717,-15.606548 -4.23542,-22.963618 0.89178,-7.357073 8.91747,-17.611627 8.91747,-17.611627 -0.43198,-0.03483 -0.85954,-0.05507 -1.28312,-0.06002 z"
       style="opacity:1;fill:#ffd000;fill-opacity:1;stroke:#ffd000;stroke-width:6.61458333;stroke-linecap:butt;stroke-linejoin:round;stroke-miterlimit:4;stroke-dasharray:none;stroke-opacity:1;paint-order:normal" />
    <path
       style="opacity:1;fill:#ffffff;fill-opacity:1;stroke:none;stroke-width:6.67606735;stroke-linecap:butt;stroke-linejoin:round;stroke-miterlimit:4;stroke-dasharray:none;stroke-opacity:1;paint-order:normal"
       d="M 111.17404,54.387623 C 91.10927,65.980579 80.853901,90.058099 79.516258,102.9887 c -1.337645,12.93061 1.783819,26.75324 1.783819,34.33324 0,7.58001 -5.797007,21.84813 -5.797007,21.84813 0,0 -8.471145,-18.28128 -13.821754,-22.29422 -5.350576,-4.01295 -17.835873,-3.56687 -24.524125,-8.91747 -6.688254,-5.35059 -15.159484,-24.96968 -15.159484,-24.96968 0,0 -1.783908,22.29378 2.674915,32.99497 4.458827,10.70118 12.930851,13.37677 19.173211,22.74031 6.24233,9.36354 6.688105,20.06431 6.688105,20.06431 -13.822366,-16.94354 -40.1297,-24.52305 -40.1297,-24.52305 11.592969,8.02589 17.87279,26.75288 17.87279,45.16214 v 81.21159 H 234.47434 v -81.21159 c 0,-18.599 23.39512,-39.81176 23.39512,-39.81176 -26.30712,2.22941 -33.88715,18.28157 -33.88715,18.28157 0,0 -2.22917,-10.70151 4.01319,-20.51094 6.24237,-9.80941 12.93073,-7.57996 20.06485,-17.38939 12.23361,-16.8212 -5.79701,-37.8998 -5.79701,-37.8998 9.36354,23.63179 -19.61853,29.42761 -30.7656,37.00762 -11.14708,7.58 -15.60611,27.19904 -15.60611,27.19904 -10.70118,-38.79182 4.45902,-43.24991 0.44609,-60.19347 -4.01293,-16.94356 -28.09068,-41.021878 -28.09068,-41.021878 0,0 10.25515,27.645014 8.91747,37.900328 -1.33764,10.25531 -19.17321,36.56261 -19.17321,36.56261 0,0 3.12132,-34.77958 -0.89164,-48.156076 -4.01294,-13.376492 -16.9431,-13.376187 -22.29368,-19.172671 -5.35057,-5.796478 -4.90536,-15.605572 -4.90536,-15.605572 0,0 -7.13349,8.917157 -4.4582,18.72658 2.67528,9.80943 10.70135,14.714528 12.03902,27.645129 1.33764,12.93061 -16.0522,41.4669 -16.0522,41.4669 0,0 -1.78331,-14.71404 -5.35038,-25.41523 -3.56708,-10.7012 -14.71421,-15.60584 -16.49775,-28.982324 -1.78353,-13.376492 11.59293,-35.670423 11.59293,-35.670423 z m -42.358532,8.248606 c 0,0 -0.223138,5.796658 -6.242554,12.039019 -6.019444,6.242355 -19.619102,12.48453 -19.173211,26.975722 0.445894,14.4912 13.598946,15.16035 21.624813,26.30741 2.401996,3.3361 5.351456,7.57974 5.351456,7.57974 0,0 0.504195,-11.13888 -1.338268,-16.0522 -2.006517,-5.35059 -6.464677,-8.02531 -7.356428,-17.38886 -0.891782,-9.363541 15.60598,-26.307283 7.134192,-39.460831 z m 161.240652,4.399257 c -13.13077,-0.153546 -22.18834,13.763389 -24.13211,23.914198 -2.00644,10.478246 2.67492,13.599546 2.67492,20.064856 0,6.4653 -8.02529,20.06485 -8.02529,20.06485 12.48472,-3.79001 24.07706,-14.93687 26.08355,-23.40864 2.00644,-8.471782 -5.12717,-15.606548 -4.23542,-22.963618 0.89178,-7.357073 8.91747,-17.611627 8.91747,-17.611627 -0.43198,-0.03483 -0.85954,-0.05507 -1.28312,-0.06002 z"
       id="rect947"
       inkscape:connector-curvature="0" />
    <g
       aria-label="CALGARY"
       transform="matrix(1.2324562,0,0,1.2324562,-178.33135,-484.43696)"
       style="font-style:normal;font-variant:normal;font-weight:normal;font-stretch:normal;font-size:40px;line-height:1.25;font-family:'New Athletic M54';-inkscape-font-specification:'New Athletic M54';letter-spacing:0px;word-spacing:0px;fill:#ffd000;fill-opacity:1;stroke:none"
       id="flowRoot957">
      <path
         d="m 196.60156,575.11185 q -1.5039,1.32812 -3.53515,1.32812 h -6.03516 q -2.24609,0 -3.96484,-1.67968 -1.69922,-1.69922 -1.69922,-3.96485 v -19.39453 q 0,-2.24609 1.71875,-3.94531 1.71875,-1.69922 3.96484,-1.69922 h 5.99609 q 2.2461,0 3.98438,1.71875 1.75781,1.71875 1.75781,3.96484 v 0.89844 q 0,1.38672 -1.40625,1.38672 h -2.87109 q -1.38672,0 -1.38672,-1.38672 v -0.91797 h -6.09375 v 19.35547 h 6.09375 v -1.07422 q 0,-1.40625 1.38672,-1.40625 h 2.87109 q 1.40625,0 1.40625,1.40625 v 1.07422 q 0,2.46094 -2.1875,4.33594 z"
         style="fill:#ffd000;fill-opacity:1"
         id="path991" />
      <path
         d="m 214.76562,575.30716 -1.13281,-5.70312 h -5.9375 l -1.13281,5.70312 q -0.23438,1.13281 -1.38672,1.13281 h -2.91016 q -0.68359,0 -1.09375,-0.50781 -0.42968,-0.48828 -0.29296,-1.17187 l 5.58593,-27.8711 q 0.21485,-1.13281 1.36719,-1.13281 h 5.66406 q 1.15235,0 1.38672,1.13281 l 5.56641,27.8711 q 0.11719,0.68359 -0.29297,1.17187 -0.42969,0.50781 -1.07422,0.50781 h -2.92969 q -1.17187,0 -1.38672,-1.13281 z M 212.5,563.93997 l -1.83594,-9.17968 -1.83594,9.17968 z"
         style="fill:#ffd000;fill-opacity:1"
         id="path993" />
      <path
         d="m 235.97656,576.43997 h -7.24609 q -2.22656,0 -3.82813,-1.58203 -1.58203,-1.58203 -1.58203,-3.80859 v -23.88672 q 0,-1.40625 1.40625,-1.40625 h 2.8711 q 1.40625,0 1.40625,1.40625 v 23.61328 h 6.97265 q 1.38672,0 1.38672,1.40625 v 2.85156 q 0,1.40625 -1.38672,1.40625 z"
         style="fill:#ffd000;fill-opacity:1"
         id="path995" />
      <path
         d="m 251.89453,576.43997 h -6.11328 q -2.24609,0 -3.96484,-1.67968 -1.69922,-1.67969 -1.69922,-3.94532 v -19.39453 q 0,-2.24609 1.71875,-3.94531 1.73828,-1.71875 3.98437,-1.71875 h 6.07422 q 2.24609,0 3.96484,1.71875 1.73829,1.69922 1.73829,3.94531 v 0.97656 q 0,1.38672 -1.38672,1.38672 h -2.8711 q -1.40625,0 -1.40625,-1.38672 v -0.97656 h -6.13281 v 19.35547 h 6.13281 v -6.83594 h -2.48047 q -1.38671,0 -1.38671,-1.40625 v -2.87109 q 0,-1.40625 1.38671,-1.40625 h 6.75782 q 1.38672,0 1.38672,1.40625 v 11.11328 q 0,2.28516 -1.73829,3.98438 -1.71875,1.67968 -3.96484,1.67968 z"
         style="fill:#ffd000;fill-opacity:1"
         id="path997" />
      <path
         d="m 273.59375,575.30716 -1.13281,-5.70312 h -5.9375 l -1.13282,5.70312 q -0.23437,1.13281 -1.38671,1.13281 h -2.91016 q -0.68359,0 -1.09375,-0.50781 -0.42969,-0.48828 -0.29297,-1.17187 l 5.58594,-27.8711 q 0.21484,-1.13281 1.36719,-1.13281 h 5.66406 q 1.15234,0 1.38672,1.13281 l 5.5664,27.8711 q 0.11719,0.68359 -0.29297,1.17187 -0.42968,0.50781 -1.07421,0.50781 h -2.92969 q -1.17188,0 -1.38672,-1.13281 z m -2.26563,-11.36719 -1.83593,-9.17968 -1.83594,9.17968 z"
         style="fill:#ffd000;fill-opacity:1"
         id="path999" />
      <path
         d="m 298.35937,576.43997 h -3.0664 q -0.9375,0 -1.28906,-0.89843 l -4.49219,-11.60157 h -1.67969 v 11.09375 q 0,1.40625 -1.40625,1.40625 h -2.87109 q -1.40625,0 -1.40625,-1.40625 v -27.87109 q 0,-1.40625 1.40625,-1.40625 h 9.98047 q 2.24609,0 3.98437,1.71875 1.73828,1.69922 1.73828,3.96484 v 6.79688 q 0,1.79687 -1.11328,3.26172 -1.11328,1.46484 -2.73437,2.07031 l 4.25781,10.95703 q 0.27344,0.72266 -0.13672,1.30859 -0.42969,0.60547 -1.17188,0.60547 z m -4.78515,-18.18359 v -6.83594 h -5.74219 v 6.83594 z"
         style="fill:#ffd000;fill-opacity:1"
         id="path1001" />
      <path
         d="m 314.84375,565.13138 v 9.90234 q 0,1.40625 -1.40625,1.40625 h -2.92969 q -1.40625,0 -1.40625,-1.40625 v -9.9414 l -6.15234,-17.46094 q -0.25391,-0.68359 0.17578,-1.28906 0.44922,-0.58594 1.15234,-0.58594 h 2.85157 q 0.99609,0 1.32812,0.95703 l 3.53516,10.46875 3.47656,-10.46875 q 0.3125,-0.95703 1.32812,-0.95703 h 3.02735 q 0.70312,0 1.13281,0.60547 0.41016,0.58594 0.17578,1.26953 z"
         style="fill:#ffd000;fill-opacity:1"
         id="path1003" />
    </g>
    <g
       aria-label="FLAMES"
       transform="matrix(1.2324562,0,0,1.2324562,-163.22217,-439.19406)"
       style="font-style:normal;font-variant:normal;font-weight:normal;font-stretch:normal;font-size:40px;line-height:1.25;font-family:'New Athletic M54';-inkscape-font-specification:'New Athletic M54';letter-spacing:0px;word-spacing:0px;fill:#ffd000;fill-opacity:1;stroke:none"
       id="flowRoot971">
      <path
         d="m 194.62891,551.42044 h -7.57813 v 6.83594 h 6.34766 q 1.38672,0 1.38672,1.40625 v 2.87109 q 0,1.40625 -1.38672,1.40625 h -6.34766 v 11.09375 q 0,1.40625 -1.40625,1.40625 h -2.87109 q -1.40625,0 -1.40625,-1.40625 v -23.86718 q 0,-2.22657 1.58203,-3.8086 1.58203,-1.60156 3.82812,-1.60156 h 7.85157 q 1.40625,0 1.40625,1.40625 v 2.87109 q 0,1.38672 -1.40625,1.38672 z"
         style="fill:#ffd000;fill-opacity:1"
         id="path978" />
      <path
         d="m 211.44531,576.43997 h -7.24609 q -2.22656,0 -3.82813,-1.58203 -1.58203,-1.58203 -1.58203,-3.80859 v -23.88672 q 0,-1.40625 1.40625,-1.40625 h 2.8711 q 1.40625,0 1.40625,1.40625 v 23.61328 h 6.97265 q 1.38672,0 1.38672,1.40625 v 2.85156 q 0,1.40625 -1.38672,1.40625 z"
         style="fill:#ffd000;fill-opacity:1"
         id="path980" />
      <path
         d="m 229.60937,575.30716 -1.13281,-5.70312 h -5.9375 l -1.13281,5.70312 q -0.23438,1.13281 -1.38672,1.13281 h -2.91016 q -0.68359,0 -1.09375,-0.50781 -0.42968,-0.48828 -0.29296,-1.17187 l 5.58593,-27.8711 q 0.21485,-1.13281 1.36719,-1.13281 h 5.66406 q 1.15235,0 1.38672,1.13281 l 5.56641,27.8711 q 0.11719,0.68359 -0.29297,1.17187 -0.42969,0.50781 -1.07422,0.50781 h -2.92969 q -1.17187,0 -1.38672,-1.13281 z m -2.26562,-11.36719 -1.83594,-9.17968 -1.83594,9.17968 z"
         style="fill:#ffd000;fill-opacity:1"
         id="path982" />
      <path
         d="m 257.96875,576.43997 h -2.87109 q -1.40625,0 -1.40625,-1.40625 v -15.8789 l -3.67188,7.83203 q -0.37109,0.80078 -1.26953,0.80078 -0.89844,0 -1.25,-0.80078 l -3.67188,-7.83203 v 15.8789 q 0,1.40625 -1.40625,1.40625 h -2.87109 q -1.38672,0 -1.38672,-1.40625 v -27.87109 q 0,-1.40625 1.38672,-1.40625 h 3.37891 q 0.8789,0 1.26953,0.82031 l 4.55078,9.72656 4.57031,-9.72656 q 0.3711,-0.82031 1.26953,-0.82031 h 3.37891 q 1.40625,0 1.40625,1.40625 v 27.87109 q 0,1.40625 -1.40625,1.40625 z"
         style="fill:#ffd000;fill-opacity:1"
         id="path984" />
      <path
         d="m 275.52734,576.43997 h -7.98828 q -2.22656,0 -3.80859,-1.58203 -1.58203,-1.58203 -1.58203,-3.80859 v -23.88672 q 0,-1.40625 1.40625,-1.40625 h 11.85547 q 1.40625,0 1.40625,1.40625 v 2.87109 q 0,1.38672 -1.40625,1.38672 h -7.59766 v 6.83594 h 6.34766 q 1.40625,0 1.40625,1.40625 v 2.87109 q 0,1.40625 -1.40625,1.40625 h -6.34766 v 6.83594 h 7.71484 q 1.40625,0 1.40625,1.40625 v 2.85156 q 0,1.40625 -1.40625,1.40625 z"
         style="fill:#ffd000;fill-opacity:1"
         id="path986" />
      <path
         d="m 291.03516,576.43997 h -5.70313 q -2.26562,0 -3.98437,-1.67968 -1.69922,-1.69922 -1.69922,-3.98438 v -1.07422 q 0,-1.40625 1.38672,-1.40625 h 2.87109 q 1.40625,0 1.40625,1.40625 v 1.07422 h 5.72266 v -6.83594 h -5.70313 q -2.26562,0 -3.98437,-1.69922 -1.69922,-1.69921 -1.69922,-3.96484 v -6.85547 q 0,-2.24609 1.69922,-3.94531 1.71875,-1.71875 3.98437,-1.71875 h 5.70313 q 2.24609,0 3.94531,1.69922 1.71875,1.69922 1.71875,3.94531 v 0.9375 q 0,1.38672 -1.38672,1.38672 h -2.87109 q -1.40625,0 -1.40625,-1.38672 v -0.91797 h -5.72266 v 6.83594 h 5.72266 q 2.24609,0 3.94531,1.69922 1.71875,1.69922 1.71875,3.94531 v 6.89453 q 0,2.28516 -1.71875,3.96485 -1.69922,1.67968 -3.94531,1.67968 z"
         style="fill:#ffd000;fill-opacity:1"
         id="path988" />
    </g>
  </g>
</svg>
