<?xml version="1.0" encoding="UTF-8" standalone="no"?>
<!-- Created with Inkscape (http://www.inkscape.org/) -->

<svg
   xmlns:dc="http://purl.org/dc/elements/1.1/"
   xmlns:cc="http://creativecommons.org/ns#"
   xmlns:rdf="http://www.w3.org/1999/02/22-rdf-syntax-ns#"
   xmlns:svg="http://www.w3.org/2000/svg"
   xmlns="http://www.w3.org/2000/svg"
   xmlns:sodipodi="http://sodipodi.sourceforge.net/DTD/sodipodi-0.dtd"
   xmlns:inkscape="http://www.inkscape.org/namespaces/inkscape"
   width="1000"
   height="1000"
   viewBox="0 0 264.58333 264.58334"
   version="1.1"
   id="svg8"
   inkscape:version="0.92.3 (2405546, 2018-03-11)"
   sodipodi:docname="chi-road.svg">
  <defs
     id="defs2" />
  <sodipodi:namedview
     id="base"
     pagecolor="#ffffff"
     bordercolor="#666666"
     borderopacity="1.0"
     inkscape:pageopacity="0.0"
     inkscape:pageshadow="2"
     inkscape:zoom="0.7"
     inkscape:cx="149.3671"
     inkscape:cy="476.15727"
     inkscape:document-units="mm"
     inkscape:current-layer="layer1"
     showgrid="false"
     units="px"
     inkscape:window-width="1920"
     inkscape:window-height="1029"
     inkscape:window-x="1920"
     inkscape:window-y="0"
     inkscape:window-maximized="1" />
  <metadata
     id="metadata5">
    <rdf:RDF>
      <cc:Work
         rdf:about="">
        <dc:format>image/svg+xml</dc:format>
        <dc:type
           rdf:resource="http://purl.org/dc/dcmitype/StillImage" />
        <dc:title />
      </cc:Work>
    </rdf:RDF>
  </metadata>
  <g
     inkscape:label="Layer 1"
     inkscape:groupmode="layer"
     id="layer1"
     transform="translate(0,-32.41665)">
    <rect
       style="opacity:1;fill:#ffffff;fill-opacity:1;stroke:none;stroke-width:2.9104166;stroke-linecap:butt;stroke-linejoin:round;stroke-miterlimit:4;stroke-dasharray:none;stroke-opacity:1;paint-order:normal"
       id="rect914"
       width="272.52084"
       height="274.7887"
       x="-3.0238097"
       y="28.258911" />
    <path
       style="fill:#cf0a2c;stroke:none;stroke-width:0.26458332px;stroke-linecap:butt;stroke-linejoin:miter;stroke-opacity:1;fill-opacity:1"
       d="m 203.15928,163.04491 c 6.06951,7.10999 9.5378,8.67072 9.5378,8.67072 -3.98853,-6.06951 -4.50878,-11.61877 -4.50878,-11.61877 36.59047,-3.12146 52.31887,-12.24132 52.31887,-12.24132 -12.5075,0 -20.35536,-4.16917 -20.35536,-4.16917 -27.2222,14.46947 -59.10407,16.18618 -59.10407,16.18618 0,0 14.13448,-2.72374 28.00764,-7.92617 0,0 1.04048,-11.27194 5.72268,-16.6478 0,0 -5.72268,3.81513 -9.36438,10.57829 0,0 -1.56073,-3.64171 0.34682,-12.13901 0,0 -4.50877,6.24292 -3.98853,15.95413 0,0 -15.08706,-13.1795 -30.17412,-16.64779 l 8.15048,15.78073 -12.31243,-14.39341 c 0,0 -26.53242,-2.25439 -57.40019,1.73414 l 6.58975,8.3239 -11.9656,-6.06951 c 0,0 -9.711208,0 -20.462905,3.81511 l 8.497305,6.06952 -14.393401,-3.64171 c 0,0 -19.422421,4.33537 -31.56144,4.85561 l 6.416337,9.88463 -10.925116,-7.97707 c 0,0 -21.503395,0.17341 -30.520944,6.76316 -9.0175564,6.58975 -10.92511914,22.89071 -4.1619488,29.13364 6.7631638,6.24292 22.5438838,6.41633 22.5438838,6.41633 l 10.231453,-8.4973 -5.375852,9.88462 c 0,0 15.954139,1.2139 51.157279,-0.52024 l 6.589749,-11.09854 -2.427801,11.9656 c 0,0 31.388021,-1.2139 54.798971,-5.54926 l 6.24292,-12.65925 -1.73414,12.31243 c 0,0 24.79827,-5.37585 35.72338,-12.48585 l -0.34682,-10.05804 3.6417,8.32389 c 0,0 8.84414,-1.90755 14.56681,-12.31242 z"
       id="path912"
       inkscape:connector-curvature="0" />
    <g
       aria-label="CHICAGO"
       transform="matrix(0.47052946,-0.1566875,0.1566875,0.47052946,-100.95709,148.58205)"
       style="font-style:normal;font-weight:normal;font-size:40px;line-height:1.25;font-family:sans-serif;letter-spacing:0px;word-spacing:0px;fill:#000000;fill-opacity:1;stroke:none;stroke-width:0.53350681"
       id="flowRoot916">
      <path
         d="m 215.17383,146.53958 q -1.50391,1.32813 -3.53516,1.32813 h -6.03515 q -2.2461,0 -3.96485,-1.67969 -1.69922,-1.69922 -1.69922,-3.96484 v -19.39454 q 0,-2.24609 1.71875,-3.94531 1.71875,-1.69922 3.96485,-1.69922 h 5.99609 q 2.24609,0 3.98438,1.71875 1.75781,1.71875 1.75781,3.96485 v 0.89843 q 0,1.38672 -1.40625,1.38672 h -2.8711 q -1.38671,0 -1.38671,-1.38672 v -0.91796 h -6.09375 v 19.35546 h 6.09375 v -1.07421 q 0,-1.40625 1.38671,-1.40625 h 2.8711 q 1.40625,0 1.40625,1.40625 v 1.07421 q 0,2.46094 -2.1875,4.33594 z"
         style="font-style:normal;font-variant:normal;font-weight:normal;font-stretch:normal;font-family:'New Athletic M54';-inkscape-font-specification:'New Athletic M54';stroke-width:0.53350681"
         id="path846" />
      <path
         d="m 236.46289,147.86771 h -2.87109 q -1.40625,0 -1.40625,-1.40625 v -11.09375 h -6.42578 v 11.09375 q 0,1.40625 -1.38672,1.40625 h -2.89063 q -1.38672,0 -1.38672,-1.40625 v -27.8711 q 0,-1.40625 1.38672,-1.40625 h 2.89063 q 1.38672,0 1.38672,1.40625 v 11.09375 h 6.42578 v -11.09375 q 0,-1.40625 1.40625,-1.40625 h 2.87109 q 1.38672,0 1.38672,1.40625 v 27.8711 q 0,1.40625 -1.38672,1.40625 z"
         style="font-style:normal;font-variant:normal;font-weight:normal;font-stretch:normal;font-family:'New Athletic M54';-inkscape-font-specification:'New Athletic M54';stroke-width:0.53350681"
         id="path848" />
      <path
         d="m 244.8418,147.86771 h -2.8711 q -1.40625,0 -1.40625,-1.40625 v -27.8711 q 0,-1.40625 1.40625,-1.40625 h 2.8711 q 1.40625,0 1.40625,1.40625 v 27.8711 q 0,1.40625 -1.40625,1.40625 z"
         style="font-style:normal;font-variant:normal;font-weight:normal;font-stretch:normal;font-family:'New Athletic M54';-inkscape-font-specification:'New Athletic M54';stroke-width:0.53350681"
         id="path850" />
      <path
         d="m 264.23633,146.53958 q -1.50391,1.32813 -3.53516,1.32813 h -6.03515 q -2.2461,0 -3.96485,-1.67969 -1.69922,-1.69922 -1.69922,-3.96484 v -19.39454 q 0,-2.24609 1.71875,-3.94531 1.71875,-1.69922 3.96485,-1.69922 h 5.99609 q 2.24609,0 3.98438,1.71875 1.75781,1.71875 1.75781,3.96485 v 0.89843 q 0,1.38672 -1.40625,1.38672 h -2.8711 q -1.38671,0 -1.38671,-1.38672 v -0.91796 h -6.09375 v 19.35546 h 6.09375 v -1.07421 q 0,-1.40625 1.38671,-1.40625 h 2.8711 q 1.40625,0 1.40625,1.40625 v 1.07421 q 0,2.46094 -2.1875,4.33594 z"
         style="font-style:normal;font-variant:normal;font-weight:normal;font-stretch:normal;font-family:'New Athletic M54';-inkscape-font-specification:'New Athletic M54';stroke-width:0.53350681"
         id="path852" />
      <path
         d="m 282.40039,146.73489 -1.13281,-5.70312 h -5.9375 l -1.13281,5.70312 q -0.23438,1.13282 -1.38672,1.13282 h -2.91016 q -0.68359,0 -1.09375,-0.50782 -0.42969,-0.48828 -0.29297,-1.17187 l 5.58594,-27.87109 q 0.21484,-1.13282 1.36719,-1.13282 h 5.66406 q 1.15234,0 1.38672,1.13282 l 5.5664,27.87109 q 0.11719,0.68359 -0.29296,1.17187 -0.42969,0.50782 -1.07422,0.50782 h -2.92969 q -1.17188,0 -1.38672,-1.13282 z m -2.26562,-11.36718 -1.83594,-9.17969 -1.83594,9.17969 z"
         style="font-style:normal;font-variant:normal;font-weight:normal;font-stretch:normal;font-family:'New Athletic M54';-inkscape-font-specification:'New Athletic M54';stroke-width:0.53350681"
         id="path854" />
      <path
         d="m 302.06836,147.86771 h -6.11328 q -2.2461,0 -3.96485,-1.67969 -1.69921,-1.67969 -1.69921,-3.94531 v -19.39453 q 0,-2.2461 1.71875,-3.94532 1.73828,-1.71875 3.98437,-1.71875 h 6.07422 q 2.24609,0 3.96484,1.71875 1.73828,1.69922 1.73828,3.94532 v 0.97656 q 0,1.38672 -1.38671,1.38672 h -2.8711 q -1.40625,0 -1.40625,-1.38672 v -0.97656 h -6.13281 v 19.35546 h 6.13281 v -6.83593 h -2.48047 q -1.38672,0 -1.38672,-1.40625 v -2.8711 q 0,-1.40625 1.38672,-1.40625 h 6.75782 q 1.38671,0 1.38671,1.40625 v 11.11328 q 0,2.28516 -1.73828,3.98438 -1.71875,1.67969 -3.96484,1.67969 z"
         style="font-style:normal;font-variant:normal;font-weight:normal;font-stretch:normal;font-family:'New Athletic M54';-inkscape-font-specification:'New Athletic M54';stroke-width:0.53350681"
         id="path856" />
      <path
         d="m 322.69336,147.86771 h -6.46484 q -2.26563,0 -3.96485,-1.67969 -1.69922,-1.67969 -1.69922,-3.94531 v -19.41407 q 0,-2.24609 1.69922,-3.94531 1.71875,-1.69922 3.96485,-1.69922 h 6.44531 q 2.24609,0 3.96484,1.69922 1.73828,1.69922 1.73828,3.96485 v 19.375 q 0,2.26562 -1.73828,3.96484 -1.71875,1.67969 -3.94531,1.67969 z m 0,-5.66407 v -19.35546 h -6.46484 v 19.35546 z"
         style="font-style:normal;font-variant:normal;font-weight:normal;font-stretch:normal;font-family:'New Athletic M54';-inkscape-font-specification:'New Athletic M54';stroke-width:0.53350681"
         id="path858" />
    </g>
    <g
       aria-label="BLACKHAWKS"
       transform="matrix(0.53765072,-0.17903905,0.17903905,0.53765072,-69.970396,147.44284)"
       style="font-style:normal;font-weight:normal;font-size:40px;line-height:1.25;font-family:sans-serif;letter-spacing:0px;word-spacing:0px;fill:#000000;fill-opacity:1;stroke:none;stroke-width:0.46690288"
       id="flowRoot930">
      <path
         d="m 205.60352,129.68411 h 5.82031 v -6.83593 h -5.82031 z m 0,12.51953 h 5.82031 v -6.83593 h -5.82031 z m 5.82031,5.66407 h -10.09766 q -1.38672,0 -1.38672,-1.40625 v -27.8711 q 0,-1.40625 1.38672,-1.40625 h 10.09766 q 2.22656,0 3.94531,1.69922 1.73828,1.69922 1.73828,3.94531 v 5.07813 q 0,1.93359 -1.23047,3.41797 l -0.95703,1.17187 0.9961,1.23047 q 1.1914,1.48438 1.1914,3.37891 v 5.11719 q 0,2.26562 -1.71875,3.96484 -1.71875,1.67969 -3.96484,1.67969 z"
         style="font-style:normal;font-variant:normal;font-weight:normal;font-stretch:normal;font-family:'New Athletic M54';-inkscape-font-specification:'New Athletic M54';stroke-width:0.46690288"
         id="path825" />
      <path
         d="m 232.51758,147.86771 h -7.2461 q -2.22656,0 -3.82812,-1.58203 -1.58203,-1.58204 -1.58203,-3.8086 v -23.88672 q 0,-1.40625 1.40625,-1.40625 h 2.87109 q 1.40625,0 1.40625,1.40625 v 23.61328 h 6.97266 q 1.38672,0 1.38672,1.40625 v 2.85157 q 0,1.40625 -1.38672,1.40625 z"
         style="font-style:normal;font-variant:normal;font-weight:normal;font-stretch:normal;font-family:'New Athletic M54';-inkscape-font-specification:'New Athletic M54';stroke-width:0.46690288"
         id="path827" />
      <path
         d="m 250.68164,146.73489 -1.13281,-5.70312 h -5.9375 l -1.13281,5.70312 q -0.23438,1.13282 -1.38672,1.13282 h -2.91016 q -0.68359,0 -1.09375,-0.50782 -0.42969,-0.48828 -0.29297,-1.17187 l 5.58594,-27.87109 q 0.21484,-1.13282 1.36719,-1.13282 h 5.66406 q 1.15234,0 1.38672,1.13282 l 5.5664,27.87109 q 0.11719,0.68359 -0.29296,1.17187 -0.42969,0.50782 -1.07422,0.50782 h -2.92969 q -1.17188,0 -1.38672,-1.13282 z m -2.26562,-11.36718 -1.83594,-9.17969 -1.83594,9.17969 z"
         style="font-style:normal;font-variant:normal;font-weight:normal;font-stretch:normal;font-family:'New Athletic M54';-inkscape-font-specification:'New Athletic M54';stroke-width:0.46690288"
         id="path829" />
      <path
         d="m 273.80664,146.53958 q -1.50391,1.32813 -3.53516,1.32813 h -6.03515 q -2.2461,0 -3.96485,-1.67969 -1.69921,-1.69922 -1.69921,-3.96484 v -19.39454 q 0,-2.24609 1.71875,-3.94531 1.71875,-1.69922 3.96484,-1.69922 h 5.99609 q 2.2461,0 3.98438,1.71875 1.75781,1.71875 1.75781,3.96485 v 0.89843 q 0,1.38672 -1.40625,1.38672 h -2.87109 q -1.38672,0 -1.38672,-1.38672 v -0.91796 h -6.09375 v 19.35546 h 6.09375 v -1.07421 q 0,-1.40625 1.38672,-1.40625 h 2.87109 q 1.40625,0 1.40625,1.40625 v 1.07421 q 0,2.46094 -2.1875,4.33594 z"
         style="font-style:normal;font-variant:normal;font-weight:normal;font-stretch:normal;font-family:'New Athletic M54';-inkscape-font-specification:'New Athletic M54';stroke-width:0.46690288"
         id="path831" />
      <path
         d="m 295.83789,119.21536 -6.58203,13.32032 6.58203,13.30078 q 0.33203,0.68359 -0.0586,1.36718 -0.41016,0.66407 -1.19141,0.66407 h -3.18359 q -0.91797,0 -1.26953,-0.80078 l -5.70313,-11.69922 v 11.09375 q 0,1.40625 -1.40625,1.40625 h -2.87109 q -1.38672,0 -1.38672,-1.40625 v -27.8711 q 0,-1.40625 1.38672,-1.40625 h 2.87109 q 1.40625,0 1.40625,1.40625 v 11.09375 l 5.70313,-11.69922 q 0.39062,-0.80078 1.26953,-0.80078 h 3.18359 q 0.76172,0 1.19141,0.66407 0.39062,0.70312 0.0586,1.36718 z"
         style="font-style:normal;font-variant:normal;font-weight:normal;font-stretch:normal;font-family:'New Athletic M54';-inkscape-font-specification:'New Athletic M54';stroke-width:0.46690288"
         id="path833" />
      <path
         d="m 315.29102,147.86771 h -2.8711 q -1.40625,0 -1.40625,-1.40625 v -11.09375 h -6.42578 v 11.09375 q 0,1.40625 -1.38672,1.40625 h -2.89062 q -1.38672,0 -1.38672,-1.40625 v -27.8711 q 0,-1.40625 1.38672,-1.40625 h 2.89062 q 1.38672,0 1.38672,1.40625 v 11.09375 h 6.42578 v -11.09375 q 0,-1.40625 1.40625,-1.40625 h 2.8711 q 1.38671,0 1.38671,1.40625 v 27.8711 q 0,1.40625 -1.38671,1.40625 z"
         style="font-style:normal;font-variant:normal;font-weight:normal;font-stretch:normal;font-family:'New Athletic M54';-inkscape-font-specification:'New Athletic M54';stroke-width:0.46690288"
         id="path835" />
      <path
         d="m 333.41602,146.73489 -1.13282,-5.70312 h -5.9375 l -1.13281,5.70312 q -0.23437,1.13282 -1.38672,1.13282 h -2.91015 q -0.6836,0 -1.09375,-0.50782 -0.42969,-0.48828 -0.29297,-1.17187 l 5.58593,-27.87109 q 0.21485,-1.13282 1.36719,-1.13282 h 5.66406 q 1.15235,0 1.38672,1.13282 l 5.56641,27.87109 q 0.11719,0.68359 -0.29297,1.17187 -0.42969,0.50782 -1.07422,0.50782 h -2.92969 q -1.17187,0 -1.38671,-1.13282 z m -2.26563,-11.36718 -1.83594,-9.17969 -1.83593,9.17969 z"
         style="font-style:normal;font-variant:normal;font-weight:normal;font-stretch:normal;font-family:'New Athletic M54';-inkscape-font-specification:'New Athletic M54';stroke-width:0.46690288"
         id="path837" />
      <path
         d="m 363.70898,118.82474 -4.6875,27.89062 q -0.21484,1.15235 -1.36718,1.15235 h -3.45703 q -1.17188,0 -1.36719,-1.11328 l -2.44141,-12.14844 -2.4414,12.14844 q -0.23438,1.11328 -1.36719,1.11328 h -3.45703 q -1.19141,0 -1.38672,-1.15235 l -4.64844,-27.89062 q -0.11719,-0.625 0.3125,-1.13281 0.41016,-0.50782 1.07422,-0.50782 h 2.92969 q 1.21093,0 1.38672,1.19141 l 2.14843,14.49219 2.8711,-14.55078 q 0.21484,-1.13282 1.38672,-1.13282 h 2.40234 q 1.13281,0 1.36719,1.13282 l 2.85156,14.57031 2.14844,-14.51172 q 0.15625,-1.19141 1.38672,-1.19141 h 2.96875 q 0.625,0 1.07421,0.50782 0.39063,0.46875 0.3125,1.13281 z"
         style="font-style:normal;font-variant:normal;font-weight:normal;font-stretch:normal;font-family:'New Athletic M54';-inkscape-font-specification:'New Athletic M54';stroke-width:0.46690288"
         id="path839" />
      <path
         d="m 383.57227,119.21536 -6.58204,13.32032 6.58204,13.30078 q 0.33203,0.68359 -0.0586,1.36718 -0.41015,0.66407 -1.1914,0.66407 h -3.1836 q -0.91797,0 -1.26953,-0.80078 l -5.70312,-11.69922 v 11.09375 q 0,1.40625 -1.40625,1.40625 h -2.8711 q -1.38672,0 -1.38672,-1.40625 v -27.8711 q 0,-1.40625 1.38672,-1.40625 h 2.8711 q 1.40625,0 1.40625,1.40625 v 11.09375 l 5.70312,-11.69922 q 0.39063,-0.80078 1.26953,-0.80078 h 3.1836 q 0.76171,0 1.1914,0.66407 0.39063,0.70312 0.0586,1.36718 z"
         style="font-style:normal;font-variant:normal;font-weight:normal;font-stretch:normal;font-family:'New Athletic M54';-inkscape-font-specification:'New Athletic M54';stroke-width:0.46690288"
         id="path841" />
      <path
         d="m 398.04492,147.86771 h -5.70312 q -2.26563,0 -3.98438,-1.67969 -1.69922,-1.69922 -1.69922,-3.98438 v -1.07421 q 0,-1.40625 1.38672,-1.40625 h 2.8711 q 1.40625,0 1.40625,1.40625 v 1.07421 h 5.72265 v -6.83593 h -5.70312 q -2.26563,0 -3.98438,-1.69922 -1.69922,-1.69922 -1.69922,-3.96485 v -6.85546 q 0,-2.2461 1.69922,-3.94532 1.71875,-1.71875 3.98438,-1.71875 h 5.70312 q 2.2461,0 3.94531,1.69922 1.71875,1.69922 1.71875,3.94531 v 0.9375 q 0,1.38672 -1.38671,1.38672 h -2.8711 q -1.40625,0 -1.40625,-1.38672 v -0.91796 h -5.72265 v 6.83593 h 5.72265 q 2.2461,0 3.94531,1.69922 1.71875,1.69922 1.71875,3.94531 v 6.89454 q 0,2.28515 -1.71875,3.96484 -1.69921,1.67969 -3.94531,1.67969 z"
         style="font-style:normal;font-variant:normal;font-weight:normal;font-stretch:normal;font-family:'New Athletic M54';-inkscape-font-specification:'New Athletic M54';stroke-width:0.46690288"
         id="path843" />
    </g>
  </g>
</svg>
