<?xml version="1.0" encoding="UTF-8" standalone="no"?>
<!-- Created with Inkscape (http://www.inkscape.org/) -->

<svg
   xmlns:dc="http://purl.org/dc/elements/1.1/"
   xmlns:cc="http://creativecommons.org/ns#"
   xmlns:rdf="http://www.w3.org/1999/02/22-rdf-syntax-ns#"
   xmlns:svg="http://www.w3.org/2000/svg"
   xmlns="http://www.w3.org/2000/svg"
   xmlns:sodipodi="http://sodipodi.sourceforge.net/DTD/sodipodi-0.dtd"
   xmlns:inkscape="http://www.inkscape.org/namespaces/inkscape"
   width="1000"
   height="1000"
   viewBox="0 0 264.58333 264.58334"
   version="1.1"
   id="svg8"
   inkscape:version="0.92.3 (2405546, 2018-03-11)"
   sodipodi:docname="chi2-road.svg">
  <defs
     id="defs2" />
  <sodipodi:namedview
     id="base"
     pagecolor="#ffffff"
     bordercolor="#666666"
     borderopacity="1.0"
     inkscape:pageopacity="0.0"
     inkscape:pageshadow="2"
     inkscape:zoom="0.49497475"
     inkscape:cx="-45.180602"
     inkscape:cy="694.20897"
     inkscape:document-units="mm"
     inkscape:current-layer="layer1"
     showgrid="false"
     units="px"
     inkscape:window-width="1920"
     inkscape:window-height="1029"
     inkscape:window-x="1920"
     inkscape:window-y="0"
     inkscape:window-maximized="1"
     inkscape:snap-global="false" />
  <metadata
     id="metadata5">
    <rdf:RDF>
      <cc:Work
         rdf:about="">
        <dc:format>image/svg+xml</dc:format>
        <dc:type
           rdf:resource="http://purl.org/dc/dcmitype/StillImage" />
        <dc:title />
      </cc:Work>
    </rdf:RDF>
  </metadata>
  <g
     inkscape:label="Layer 1"
     inkscape:groupmode="layer"
     id="layer1"
     transform="translate(0,-32.41665)">
    <rect
       style="opacity:1;fill:#ffffff;fill-opacity:1;stroke:none;stroke-width:5.29166651;stroke-linecap:butt;stroke-linejoin:round;stroke-miterlimit:4;stroke-dasharray:none;stroke-opacity:1;paint-order:normal"
       id="rect997"
       width="272.8988"
       height="272.8988"
       x="-3.7797618"
       y="29.392841" />
    <path
       style="fill:#000000;stroke:none;stroke-width:0.26458332px;stroke-linecap:butt;stroke-linejoin:miter;stroke-opacity:1;fill-opacity:1"
       d="m 41.82768,173.65509 22.18337,-10.82441 21.381563,1.46998 -14.833459,17.23889 -25.657873,-3.60814 z"
       id="path1015"
       inkscape:connector-curvature="0" />
    <path
       style="opacity:1;fill:#cf0a2c;fill-opacity:1;stroke:none;stroke-width:3.38879728;stroke-linecap:butt;stroke-linejoin:round;stroke-miterlimit:4;stroke-dasharray:none;stroke-opacity:1;paint-order:normal"
       d="m 20.762129,95.301437 -14.8541239,6.034863 12.8506459,7.02113 2.773357,-0.93736 64.891011,34.54056 7.05874,-0.27347 11.101951,4.12888 -0.56121,0.81243 3.62121,2.50182 a 6.7275743,3.4139932 8.9085708 0 0 -0.27648,0.70343 6.7275743,3.4139932 8.9085708 0 0 -0.0179,0.27374 l -3.85213,0.5137 0.14031,1.05213 -92.387126,7.88682 -2.4139459,3.97622 6.3901719,-0.14223 1.988113,-1.56198 86.672367,-8.28768 0.11722,0.87805 6.33335,-0.84483 -1.31542,8.39037 c -7.39498,-1.42444 -16.827551,-2.73723 -26.481605,-2.73053 -3.902691,0.003 -7.840329,0.22082 -11.692524,0.73445 -9.037053,1.20494 -41.269402,18.47588 -42.474337,21.28741 -1.204935,2.81152 11.748149,18.47569 18.977786,22.09051 1.910613,0.9553 7.489646,2.75652 15.147914,4.97974 l 3.770577,9.66544 a 5.5226361,7.1292214 0 0 0 -1.145485,4.3326 5.5226361,7.1292214 0 0 0 5.522563,7.12903 5.5226361,7.1292214 0 0 0 5.52255,-7.12903 5.5226361,7.1292214 0 0 0 -0.387133,-2.61713 l 7.521376,-5.65325 c 8.172184,2.15645 16.950098,4.3829 25.487958,6.45278 l 3.46745,5.87866 a 4.6670164,6.6271633 0 0 0 -1.04582,4.17254 4.6670164,6.6271633 0 0 0 4.66703,6.62711 4.6670164,6.6271633 0 0 0 4.66702,-6.62711 4.6670164,6.6271633 0 0 0 -0.50053,-2.98259 l 4.49295,-3.37712 c 6.47806,1.46024 12.44133,2.72127 17.39933,3.64867 20.56445,3.84659 34.1573,3.34391 52.55023,7.411 l 4.30294,9.75577 a 2.1684568,3.4320868 0 0 0 -0.11751,1.10485 2.1684568,3.4320868 0 0 0 2.16822,3.43202 2.1684568,3.4320868 0 0 0 2.1685,-3.43202 2.1684568,3.4320868 0 0 0 -2.1685,-3.43205 2.1684568,3.4320868 0 0 0 -1.08726,0.46759 l -3.28351,-7.44395 c 6.0339,1.41719 12.60751,3.33979 20.11504,6.06674 0,0 0.94498,-2.28961 2.45074,-5.88389 l 39.88053,-1.92084 c 0,0 -2.91168,-7.22971 -10.94462,-12.75235 l -23.78208,2.50759 c 3.39696,-7.93248 7.6392,-17.67856 12.13429,-27.61059 -6.48684,-0.485 -15.18656,0.16458 -21.07819,0.7556 l -2.01666,-17.32355 -5.52255,1.50625 5.50141,16.02926 c -2.73267,0.29807 -4.49733,0.53869 -4.49733,0.53869 l 4.70216,1.26326 -10.93145,13.32427 4.91934,2.92683 8.02685,-15.70994 6.73832,1.81047 c -6.02467,13.95721 -14.66,21.68882 -14.66,21.68882 -18.17449,-7.53087 -36.24861,-22.49219 -36.24861,-22.49219 l -0.40168,-14.9612 6.62712,-3.21321 -14.25833,-8.13338 -7.93266,1.70696 c -11.74815,-7.8321 -26.91011,-13.35466 -28.21545,-13.25425 -1.30535,0.10041 -3.41419,2.91174 -3.41419,2.91174 0,0 -3.18743,-0.99576 -8.34645,-2.19211 l 1.33493,-8.51502 5.508,2.66271 0.47501,-0.98238 73.02355,22.68301 0.60266,1.70695 7.22953,2.00816 -1.30528,-4.81968 -78.82013,-23.08881 0.34623,-0.71634 -2.53011,-1.22318 4.64341,-0.44122 -0.12959,-1.36266 89.61347,-12.8295 2.02106,1.80992 15.29838,-2.35327 -6.88028,-7.17982 -100.25168,18.45858 -0.0989,-1.04142 -7.07411,0.67186 a 6.7275743,3.4139932 8.9085708 0 0 -3.78183,-1.24761 6.7275743,3.4139932 8.9085708 0 0 -1.51311,-0.1436 l -6.43824,-4.44846 -0.62545,0.90523 z m 41.463117,69.534393 c 3.951821,0.18059 9.60096,0.59059 14.946384,1.51971 l -6.089255,8.44473 c -4.779506,-0.66009 -14.818867,-1.84029 -25.462692,-1.81843 5.325308,-2.86508 11.334574,-5.84749 16.605563,-8.14601 z m 3.106959,44.30841 c 4.5298,1.29086 9.639449,2.69539 15.089968,4.1481 l -5.677676,4.26753 a 5.5226361,7.1292214 0 0 0 -4.097304,-2.36152 5.5226361,7.1292214 0 0 0 -2.617964,0.85911 z m 46.450815,12.08598 c 3.38532,0.81134 6.70966,1.59106 9.93205,2.32912 l -2.73521,2.05593 a 4.6670164,6.6271633 0 0 0 -3.09925,-1.68115 4.6670164,6.6271633 0 0 0 -2.08833,0.7026 z"
       id="path933"
       inkscape:connector-curvature="0" />
    <g
       aria-label="CHICAGO"
       transform="matrix(0.48006965,0.11276873,-0.11276873,0.48006965,-83.688054,86.968697)"
       style="font-style:normal;font-weight:normal;font-size:40px;line-height:1.25;font-family:sans-serif;letter-spacing:0px;word-spacing:0px;fill:#000000;fill-opacity:1;stroke:none"
       id="flowRoot999">
      <path
         d="m 405.17383,109.397 q -1.50391,1.32813 -3.53516,1.32813 h -6.03515 q -2.2461,0 -3.96485,-1.67969 -1.69922,-1.69922 -1.69922,-3.96484 V 85.686067 q 0,-2.246094 1.71875,-3.945313 1.71875,-1.699218 3.96485,-1.699218 h 5.99609 q 2.24609,0 3.98438,1.71875 1.75781,1.71875 1.75781,3.964843 v 0.898438 q 0,1.386719 -1.40625,1.386719 h -2.8711 q -1.38671,0 -1.38671,-1.386719 v -0.917969 h -6.09375 v 19.355472 h 6.09375 v -1.07422 q 0,-1.40625 1.38671,-1.40625 h 2.8711 q 1.40625,0 1.40625,1.40625 v 1.07422 q 0,2.46093 -2.1875,4.33593 z"
         style="font-style:normal;font-variant:normal;font-weight:normal;font-stretch:normal;font-family:'New Athletic M54';-inkscape-font-specification:'New Athletic M54';fill:#000000;fill-opacity:1"
         id="path1038" />
      <path
         d="m 426.46289,110.72513 h -2.87109 q -1.40625,0 -1.40625,-1.40625 V 98.225129 h -6.42578 v 11.093751 q 0,1.40625 -1.38672,1.40625 h -2.89063 q -1.38672,0 -1.38672,-1.40625 V 81.447786 q 0,-1.40625 1.38672,-1.40625 h 2.89063 q 1.38672,0 1.38672,1.40625 v 11.09375 h 6.42578 v -11.09375 q 0,-1.40625 1.40625,-1.40625 h 2.87109 q 1.38672,0 1.38672,1.40625 v 27.871094 q 0,1.40625 -1.38672,1.40625 z"
         style="font-style:normal;font-variant:normal;font-weight:normal;font-stretch:normal;font-family:'New Athletic M54';-inkscape-font-specification:'New Athletic M54';fill:#000000;fill-opacity:1"
         id="path1040" />
      <path
         d="m 434.8418,110.72513 h -2.8711 q -1.40625,0 -1.40625,-1.40625 V 81.447786 q 0,-1.40625 1.40625,-1.40625 h 2.8711 q 1.40625,0 1.40625,1.40625 v 27.871094 q 0,1.40625 -1.40625,1.40625 z"
         style="font-style:normal;font-variant:normal;font-weight:normal;font-stretch:normal;font-family:'New Athletic M54';-inkscape-font-specification:'New Athletic M54';fill:#000000;fill-opacity:1"
         id="path1042" />
      <path
         d="m 454.23633,109.397 q -1.50391,1.32813 -3.53516,1.32813 h -6.03515 q -2.2461,0 -3.96485,-1.67969 -1.69922,-1.69922 -1.69922,-3.96484 V 85.686067 q 0,-2.246094 1.71875,-3.945313 1.71875,-1.699218 3.96485,-1.699218 h 5.99609 q 2.24609,0 3.98438,1.71875 1.75781,1.71875 1.75781,3.964843 v 0.898438 q 0,1.386719 -1.40625,1.386719 h -2.8711 q -1.38671,0 -1.38671,-1.386719 v -0.917969 h -6.09375 v 19.355472 h 6.09375 v -1.07422 q 0,-1.40625 1.38671,-1.40625 h 2.8711 q 1.40625,0 1.40625,1.40625 v 1.07422 q 0,2.46093 -2.1875,4.33593 z"
         style="font-style:normal;font-variant:normal;font-weight:normal;font-stretch:normal;font-family:'New Athletic M54';-inkscape-font-specification:'New Athletic M54';fill:#000000;fill-opacity:1"
         id="path1044" />
      <path
         d="m 472.40039,109.59232 -1.13281,-5.70313 h -5.9375 l -1.13281,5.70313 q -0.23438,1.13281 -1.38672,1.13281 h -2.91016 q -0.68359,0 -1.09375,-0.50781 -0.42969,-0.48828 -0.29297,-1.17188 l 5.58594,-27.871092 q 0.21484,-1.132812 1.36719,-1.132812 h 5.66406 q 1.15234,0 1.38672,1.132812 l 5.5664,27.871092 q 0.11719,0.6836 -0.29296,1.17188 -0.42969,0.50781 -1.07422,0.50781 h -2.92969 q -1.17188,0 -1.38672,-1.13281 z m -2.26562,-11.367191 -1.83594,-9.179687 -1.83594,9.179687 z"
         style="font-style:normal;font-variant:normal;font-weight:normal;font-stretch:normal;font-family:'New Athletic M54';-inkscape-font-specification:'New Athletic M54';fill:#000000;fill-opacity:1"
         id="path1046" />
      <path
         d="m 492.06836,110.72513 h -6.11328 q -2.2461,0 -3.96485,-1.67969 -1.69921,-1.67969 -1.69921,-3.94531 V 85.705598 q 0,-2.246094 1.71875,-3.945312 1.73828,-1.71875 3.98437,-1.71875 h 6.07422 q 2.24609,0 3.96484,1.71875 1.73828,1.699218 1.73828,3.945312 v 0.976563 q 0,1.386718 -1.38671,1.386718 h -2.8711 q -1.40625,0 -1.40625,-1.386718 v -0.976563 h -6.13281 v 19.355472 h 6.13281 v -6.835941 h -2.48047 q -1.38672,0 -1.38672,-1.40625 v -2.871093 q 0,-1.40625 1.38672,-1.40625 h 6.75782 q 1.38671,0 1.38671,1.40625 v 11.113284 q 0,2.28515 -1.73828,3.98437 -1.71875,1.67969 -3.96484,1.67969 z"
         style="font-style:normal;font-variant:normal;font-weight:normal;font-stretch:normal;font-family:'New Athletic M54';-inkscape-font-specification:'New Athletic M54';fill:#000000;fill-opacity:1"
         id="path1048" />
      <path
         d="m 512.69336,110.72513 h -6.46484 q -2.26563,0 -3.96485,-1.67969 -1.69922,-1.67969 -1.69922,-3.94531 V 85.686067 q 0,-2.246094 1.69922,-3.945313 1.71875,-1.699218 3.96485,-1.699218 h 6.44531 q 2.24609,0 3.96484,1.699218 1.73828,1.699219 1.73828,3.964844 V 105.0806 q 0,2.26562 -1.73828,3.96484 -1.71875,1.67969 -3.94531,1.67969 z m 0,-5.66406 V 85.705598 h -6.46484 v 19.355472 z"
         style="font-style:normal;font-variant:normal;font-weight:normal;font-stretch:normal;font-family:'New Athletic M54';-inkscape-font-specification:'New Athletic M54';fill:#000000;fill-opacity:1"
         id="path1050" />
    </g>
    <g
       aria-label="BLACKHAWKS"
       transform="matrix(0.48006965,0.11276873,-0.11276873,0.48006965,-106.54026,103.20327)"
       style="font-style:normal;font-weight:normal;font-size:40px;line-height:1.25;font-family:sans-serif;letter-spacing:0px;word-spacing:0px;fill:#000000;fill-opacity:1;stroke:none"
       id="flowRoot1013">
      <path
         d="m 395.60352,92.541536 h 5.82031 v -6.835938 h -5.82031 z m 0,12.519534 h 5.82031 v -6.835941 h -5.82031 z m 5.82031,5.66406 h -10.09766 q -1.38672,0 -1.38672,-1.40625 V 81.447786 q 0,-1.40625 1.38672,-1.40625 h 10.09766 q 2.22656,0 3.94531,1.699218 1.73828,1.699219 1.73828,3.945313 v 5.078125 q 0,1.933594 -1.23047,3.417969 l -0.95703,1.171875 0.9961,1.230468 q 1.1914,1.484375 1.1914,3.378907 v 5.117189 q 0,2.26562 -1.71875,3.96484 -1.71875,1.67969 -3.96484,1.67969 z"
         style="font-style:normal;font-variant:normal;font-weight:normal;font-stretch:normal;font-family:'New Athletic M54';-inkscape-font-specification:'New Athletic M54';fill:#000000;fill-opacity:1"
         id="path1017" />
      <path
         d="m 422.51758,110.72513 h -7.2461 q -2.22656,0 -3.82812,-1.58203 -1.58203,-1.58203 -1.58203,-3.8086 V 81.447786 q 0,-1.40625 1.40625,-1.40625 h 2.87109 q 1.40625,0 1.40625,1.40625 v 23.613284 h 6.97266 q 1.38672,0 1.38672,1.40625 v 2.85156 q 0,1.40625 -1.38672,1.40625 z"
         style="font-style:normal;font-variant:normal;font-weight:normal;font-stretch:normal;font-family:'New Athletic M54';-inkscape-font-specification:'New Athletic M54';fill:#000000;fill-opacity:1"
         id="path1019" />
      <path
         d="m 440.68164,109.59232 -1.13281,-5.70313 h -5.9375 l -1.13281,5.70313 q -0.23438,1.13281 -1.38672,1.13281 h -2.91016 q -0.68359,0 -1.09375,-0.50781 -0.42969,-0.48828 -0.29297,-1.17188 l 5.58594,-27.871092 q 0.21484,-1.132812 1.36719,-1.132812 h 5.66406 q 1.15234,0 1.38672,1.132812 l 5.5664,27.871092 q 0.11719,0.6836 -0.29296,1.17188 -0.42969,0.50781 -1.07422,0.50781 h -2.92969 q -1.17188,0 -1.38672,-1.13281 z m -2.26562,-11.367191 -1.83594,-9.179687 -1.83594,9.179687 z"
         style="font-style:normal;font-variant:normal;font-weight:normal;font-stretch:normal;font-family:'New Athletic M54';-inkscape-font-specification:'New Athletic M54';fill:#000000;fill-opacity:1"
         id="path1021" />
      <path
         d="m 463.80664,109.397 q -1.50391,1.32813 -3.53516,1.32813 h -6.03515 q -2.2461,0 -3.96485,-1.67969 -1.69921,-1.69922 -1.69921,-3.96484 V 85.686067 q 0,-2.246094 1.71875,-3.945313 1.71875,-1.699218 3.96484,-1.699218 h 5.99609 q 2.2461,0 3.98438,1.71875 1.75781,1.71875 1.75781,3.964843 v 0.898438 q 0,1.386719 -1.40625,1.386719 h -2.87109 q -1.38672,0 -1.38672,-1.386719 v -0.917969 h -6.09375 v 19.355472 h 6.09375 v -1.07422 q 0,-1.40625 1.38672,-1.40625 h 2.87109 q 1.40625,0 1.40625,1.40625 v 1.07422 q 0,2.46093 -2.1875,4.33593 z"
         style="font-style:normal;font-variant:normal;font-weight:normal;font-stretch:normal;font-family:'New Athletic M54';-inkscape-font-specification:'New Athletic M54';fill:#000000;fill-opacity:1"
         id="path1023" />
      <path
         d="m 485.83789,82.072786 -6.58203,13.320312 6.58203,13.300782 q 0.33203,0.68359 -0.0586,1.36719 -0.41016,0.66406 -1.19141,0.66406 h -3.18359 q -0.91797,0 -1.26953,-0.80078 l -5.70313,-11.699221 v 11.093751 q 0,1.40625 -1.40625,1.40625 h -2.87109 q -1.38672,0 -1.38672,-1.40625 V 81.447786 q 0,-1.40625 1.38672,-1.40625 h 2.87109 q 1.40625,0 1.40625,1.40625 v 11.09375 l 5.70313,-11.699219 q 0.39062,-0.800781 1.26953,-0.800781 h 3.18359 q 0.76172,0 1.19141,0.664062 0.39062,0.703125 0.0586,1.367188 z"
         style="font-style:normal;font-variant:normal;font-weight:normal;font-stretch:normal;font-family:'New Athletic M54';-inkscape-font-specification:'New Athletic M54';fill:#000000;fill-opacity:1"
         id="path1025" />
      <path
         d="m 505.29102,110.72513 h -2.8711 q -1.40625,0 -1.40625,-1.40625 V 98.225129 h -6.42578 v 11.093751 q 0,1.40625 -1.38672,1.40625 h -2.89062 q -1.38672,0 -1.38672,-1.40625 V 81.447786 q 0,-1.40625 1.38672,-1.40625 h 2.89062 q 1.38672,0 1.38672,1.40625 v 11.09375 h 6.42578 v -11.09375 q 0,-1.40625 1.40625,-1.40625 h 2.8711 q 1.38671,0 1.38671,1.40625 v 27.871094 q 0,1.40625 -1.38671,1.40625 z"
         style="font-style:normal;font-variant:normal;font-weight:normal;font-stretch:normal;font-family:'New Athletic M54';-inkscape-font-specification:'New Athletic M54';fill:#000000;fill-opacity:1"
         id="path1027" />
      <path
         d="m 523.41602,109.59232 -1.13282,-5.70313 h -5.9375 l -1.13281,5.70313 q -0.23437,1.13281 -1.38672,1.13281 h -2.91015 q -0.6836,0 -1.09375,-0.50781 -0.42969,-0.48828 -0.29297,-1.17188 l 5.58593,-27.871092 q 0.21485,-1.132812 1.36719,-1.132812 h 5.66406 q 1.15235,0 1.38672,1.132812 l 5.56641,27.871092 q 0.11719,0.6836 -0.29297,1.17188 -0.42969,0.50781 -1.07422,0.50781 h -2.92969 q -1.17187,0 -1.38671,-1.13281 z m -2.26563,-11.367191 -1.83594,-9.179687 -1.83593,9.179687 z"
         style="font-style:normal;font-variant:normal;font-weight:normal;font-stretch:normal;font-family:'New Athletic M54';-inkscape-font-specification:'New Athletic M54';fill:#000000;fill-opacity:1"
         id="path1029" />
      <path
         d="m 553.70898,81.682161 -4.6875,27.890629 q -0.21484,1.15234 -1.36718,1.15234 h -3.45703 q -1.17188,0 -1.36719,-1.11328 l -2.44141,-12.148439 -2.4414,12.148439 q -0.23438,1.11328 -1.36719,1.11328 h -3.45703 q -1.19141,0 -1.38672,-1.15234 l -4.64844,-27.890629 q -0.11719,-0.625 0.3125,-1.132813 0.41016,-0.507812 1.07422,-0.507812 h 2.92969 q 1.21093,0 1.38672,1.191406 l 2.14843,14.492187 2.8711,-14.550781 q 0.21484,-1.132812 1.38672,-1.132812 h 2.40234 q 1.13281,0 1.36719,1.132812 l 2.85156,14.570313 2.14844,-14.511719 q 0.15625,-1.191406 1.38672,-1.191406 h 2.96875 q 0.625,0 1.07421,0.507812 0.39063,0.46875 0.3125,1.132813 z"
         style="font-style:normal;font-variant:normal;font-weight:normal;font-stretch:normal;font-family:'New Athletic M54';-inkscape-font-specification:'New Athletic M54';fill:#000000;fill-opacity:1"
         id="path1031" />
      <path
         d="m 573.57227,82.072786 -6.58204,13.320312 6.58204,13.300782 q 0.33203,0.68359 -0.0586,1.36719 -0.41015,0.66406 -1.1914,0.66406 h -3.1836 q -0.91797,0 -1.26953,-0.80078 l -5.70312,-11.699221 v 11.093751 q 0,1.40625 -1.40625,1.40625 h -2.8711 q -1.38672,0 -1.38672,-1.40625 V 81.447786 q 0,-1.40625 1.38672,-1.40625 h 2.8711 q 1.40625,0 1.40625,1.40625 v 11.09375 l 5.70312,-11.699219 q 0.39063,-0.800781 1.26953,-0.800781 h 3.1836 q 0.76171,0 1.1914,0.664062 0.39063,0.703125 0.0586,1.367188 z"
         style="font-style:normal;font-variant:normal;font-weight:normal;font-stretch:normal;font-family:'New Athletic M54';-inkscape-font-specification:'New Athletic M54';fill:#000000;fill-opacity:1"
         id="path1033" />
      <path
         d="m 588.04492,110.72513 h -5.70312 q -2.26563,0 -3.98438,-1.67969 -1.69922,-1.69922 -1.69922,-3.98437 v -1.07422 q 0,-1.40625 1.38672,-1.40625 h 2.8711 q 1.40625,0 1.40625,1.40625 v 1.07422 h 5.72265 v -6.835941 h -5.70312 q -2.26563,0 -3.98438,-1.699218 -1.69922,-1.699219 -1.69922,-3.964844 v -6.855469 q 0,-2.246094 1.69922,-3.945312 1.71875,-1.71875 3.98438,-1.71875 h 5.70312 q 2.2461,0 3.94531,1.699218 1.71875,1.699219 1.71875,3.945313 v 0.9375 q 0,1.386719 -1.38671,1.386719 h -2.8711 q -1.40625,0 -1.40625,-1.386719 v -0.917969 h -5.72265 v 6.835938 h 5.72265 q 2.2461,0 3.94531,1.699218 1.71875,1.699219 1.71875,3.945313 v 6.894533 q 0,2.28515 -1.71875,3.96484 -1.69921,1.67969 -3.94531,1.67969 z"
         style="font-style:normal;font-variant:normal;font-weight:normal;font-stretch:normal;font-family:'New Athletic M54';-inkscape-font-specification:'New Athletic M54';fill:#000000;fill-opacity:1"
         id="path1035" />
    </g>
  </g>
</svg>
