<?xml version="1.0" encoding="UTF-8" standalone="no"?>
<!-- Created with Inkscape (http://www.inkscape.org/) -->

<svg
   xmlns:dc="http://purl.org/dc/elements/1.1/"
   xmlns:cc="http://creativecommons.org/ns#"
   xmlns:rdf="http://www.w3.org/1999/02/22-rdf-syntax-ns#"
   xmlns:svg="http://www.w3.org/2000/svg"
   xmlns="http://www.w3.org/2000/svg"
   xmlns:sodipodi="http://sodipodi.sourceforge.net/DTD/sodipodi-0.dtd"
   xmlns:inkscape="http://www.inkscape.org/namespaces/inkscape"
   width="1000"
   height="1000"
   viewBox="0 0 264.58333 264.58334"
   version="1.1"
   id="svg8"
   inkscape:version="0.92.3 (2405546, 2018-03-11)"
   sodipodi:docname="col-road.svg">
  <defs
     id="defs2" />
  <sodipodi:namedview
     id="base"
     pagecolor="#ffffff"
     bordercolor="#666666"
     borderopacity="1.0"
     inkscape:pageopacity="0.0"
     inkscape:pageshadow="2"
     inkscape:zoom="0.5"
     inkscape:cx="289.83417"
     inkscape:cy="499.67993"
     inkscape:document-units="mm"
     inkscape:current-layer="layer1"
     showgrid="false"
     units="px"
     inkscape:window-width="1920"
     inkscape:window-height="1029"
     inkscape:window-x="1920"
     inkscape:window-y="0"
     inkscape:window-maximized="1"
     inkscape:snap-global="false" />
  <metadata
     id="metadata5">
    <rdf:RDF>
      <cc:Work
         rdf:about="">
        <dc:format>image/svg+xml</dc:format>
        <dc:type
           rdf:resource="http://purl.org/dc/dcmitype/StillImage" />
        <dc:title />
      </cc:Work>
    </rdf:RDF>
  </metadata>
  <g
     inkscape:label="Layer 1"
     inkscape:groupmode="layer"
     id="layer1"
     transform="translate(0,-32.41665)">
    <rect
       style="opacity:1;fill:#ffffff;fill-opacity:1;stroke:none;stroke-width:5.29166651;stroke-linecap:square;stroke-linejoin:round;stroke-miterlimit:4;stroke-dasharray:none;stroke-opacity:1;paint-order:normal"
       id="rect975"
       width="280.45834"
       height="283.10416"
       x="-5.2916665"
       y="26.066652" />
    <path
       style="fill:#a2aaad;fill-opacity:1;stroke:#000000;stroke-width:0.99999994px;stroke-linecap:butt;stroke-linejoin:miter;stroke-opacity:1"
       d="M 510 160 L 423 308 L 403 290 L 330 397 L 315 380 L 223 547 L 408 519 L 656 411 L 510 160 z M 726 458 L 657 565 L 799 568 L 726 458 z "
       transform="matrix(0.26458333,0,0,0.26458333,0,32.41665)"
       id="path883" />
    <path
       style="fill:#6f263d;fill-opacity:1;stroke:none;stroke-width:0.29649884px;stroke-linecap:butt;stroke-linejoin:miter;stroke-opacity:1"
       d="M 135.07348,66.877508 111.37673,107.92059 106.53602,99.535807 87.895405,131.82175 83.925661,124.94669 6.7578048,258.60224 H 257.08797 l -64.57481,-111.84494 -5.66011,9.80358 z m 0,13.638947 28.23338,48.900885 -26.57542,-15.34324 -22.45226,38.88769 -9.51287,-11.1662 -17.231101,23.31106 -5.995995,-10.38499 -16.396624,16.39662 18.783071,-32.53264 3.969744,6.87507 18.640615,-32.28596 4.84071,8.38478 z m 57.43968,79.879805 10.53789,18.25205 -10.53729,-6.08343 -10.53903,6.08459 c 3.5128,-6.08443 7.02563,-12.16884 10.53843,-18.25321 z"
       id="path898"
       inkscape:connector-curvature="0" />
    <g
       aria-label="COLORADO"
       transform="matrix(0.29649885,0,0,0.29649885,-431.57318,11.952352)"
       style="font-style:normal;font-variant:normal;font-weight:normal;font-stretch:normal;font-size:120px;line-height:1.25;font-family:'New Athletic M54';-inkscape-font-specification:'New Athletic M54';text-align:center;letter-spacing:0px;word-spacing:0px;text-anchor:middle;fill:#a2aaad;fill-opacity:1;stroke:none;stroke-opacity:1"
       id="flowRoot928">
      <path
         d="m 1707.1406,674.61875 q -4.5117,3.98437 -10.6054,3.98437 h -18.1055 q -6.7383,0 -11.8945,-5.03906 -5.0977,-5.09766 -5.0977,-11.89453 v -58.1836 q 0,-6.73828 5.1563,-11.83593 5.1562,-5.09766 11.8945,-5.09766 h 17.9883 q 6.7382,0 11.9531,5.15625 5.2734,5.15625 5.2734,11.89453 v 2.69531 q 0,4.16016 -4.2187,4.16016 h -8.6133 q -4.1602,0 -4.1602,-4.16016 v -2.7539 h -18.2812 v 58.0664 h 18.2812 v -3.22265 q 0,-4.21875 4.1602,-4.21875 h 8.6133 q 4.2187,0 4.2187,4.21875 v 3.22265 q 0,7.38282 -6.5625,13.00782 z"
         style="font-size:120px;fill:#a2aaad;fill-opacity:1"
         id="path842" />
      <path
         d="m 1758.293,678.60312 h -19.3946 q -6.7968,0 -11.8945,-5.03906 -5.0976,-5.03906 -5.0976,-11.83594 v -58.24219 q 0,-6.73828 5.0976,-11.83593 5.1563,-5.09766 11.8945,-5.09766 h 19.336 q 6.7383,0 11.8945,5.09766 5.2149,5.09765 5.2149,11.89453 v 58.125 q 0,6.79687 -5.2149,11.89453 -5.1562,5.03906 -11.8359,5.03906 z m 0,-16.99219 v -58.0664 h -19.3946 v 58.0664 z"
         style="font-size:120px;fill:#a2aaad;fill-opacity:1"
         id="path844" />
      <path
         d="m 1821.5156,678.60312 h -21.7383 q -6.6796,0 -11.4843,-4.74609 -4.7461,-4.7461 -4.7461,-11.42578 v -71.66016 q 0,-4.21875 4.2187,-4.21875 h 8.6133 q 4.2188,0 4.2188,4.21875 v 70.83984 h 20.9179 q 4.1602,0 4.1602,4.21875 v 8.55469 q 0,4.21875 -4.1602,4.21875 z"
         style="font-size:120px;fill:#a2aaad;fill-opacity:1"
         id="path846" />
      <path
         d="m 1870.3242,678.60312 h -19.3945 q -6.7969,0 -11.8945,-5.03906 -5.0977,-5.03906 -5.0977,-11.83594 v -58.24219 q 0,-6.73828 5.0977,-11.83593 5.1562,-5.09766 11.8945,-5.09766 h 19.3359 q 6.7383,0 11.8946,5.09766 5.2148,5.09765 5.2148,11.89453 v 58.125 q 0,6.79687 -5.2148,11.89453 -5.1563,5.03906 -11.836,5.03906 z m 0,-16.99219 v -58.0664 h -19.3945 v 58.0664 z"
         style="font-size:120px;fill:#a2aaad;fill-opacity:1"
         id="path848" />
      <path
         d="m 1944.2109,678.60312 h -9.1992 q -2.8125,0 -3.8672,-2.69531 l -13.4765,-34.80469 h -5.0391 v 33.28125 q 0,4.21875 -4.2187,4.21875 h -8.6133 q -4.2188,0 -4.2188,-4.21875 v -83.61328 q 0,-4.21875 4.2188,-4.21875 h 29.9414 q 6.7383,0 11.9531,5.15625 5.2149,5.09766 5.2149,11.89453 v 20.39063 q 0,5.39062 -3.3399,9.78515 -3.3398,4.39453 -8.2031,6.21094 l 12.7734,32.87109 q 0.8203,2.16797 -0.4101,3.92579 -1.2891,1.8164 -3.5157,1.8164 z m -14.3554,-54.55078 v -20.50781 h -17.2266 v 20.50781 z"
         style="font-size:120px;fill:#a2aaad;fill-opacity:1"
         id="path850" />
      <path
         d="m 1999.2891,675.20468 -3.3985,-17.10937 h -17.8125 l -3.3984,17.10937 q -0.7031,3.39844 -4.1602,3.39844 h -8.7304 q -2.0508,0 -3.2813,-1.52344 -1.289,-1.46484 -0.8789,-3.51562 l 16.7578,-83.61328 q 0.6446,-3.39844 4.1016,-3.39844 h 16.9922 q 3.457,0 4.1601,3.39844 l 16.6992,83.61328 q 0.3516,2.05078 -0.8789,3.51562 -1.289,1.52344 -3.2226,1.52344 h -8.7891 q -3.5156,0 -4.1601,-3.39844 z m -6.7969,-34.10156 -5.5078,-27.53906 -5.5078,27.53906 z"
         style="font-size:120px;fill:#a2aaad;fill-opacity:1"
         id="path852" />
      <path
         d="m 2077.8047,603.60312 v 57.94922 q 0,6.85547 -5.2149,11.95313 -5.2148,5.09765 -11.8945,5.09765 h -31.5234 q -4.2188,0 -4.2188,-4.21875 v -83.61328 q 0,-4.21875 4.2188,-4.21875 h 31.4648 q 6.7383,0 11.9531,5.15625 5.2149,5.15625 5.2149,11.89453 z m -16.9922,58.00781 v -58.0664 h -18.8086 v 58.0664 z"
         style="font-size:120px;fill:#a2aaad;fill-opacity:1"
         id="path854" />
      <path
         d="m 2122.5117,678.60312 h -19.3945 q -6.7969,0 -11.8945,-5.03906 -5.0977,-5.03906 -5.0977,-11.83594 v -58.24219 q 0,-6.73828 5.0977,-11.83593 5.1562,-5.09766 11.8945,-5.09766 h 19.3359 q 6.7383,0 11.8946,5.09766 5.2148,5.09765 5.2148,11.89453 v 58.125 q 0,6.79687 -5.2148,11.89453 -5.1563,5.03906 -11.836,5.03906 z m 0,-16.99219 v -58.0664 h -19.3945 v 58.0664 z"
         style="font-size:120px;fill:#a2aaad;fill-opacity:1"
         id="path856" />
    </g>
    <g
       aria-label="AVALANCHE"
       transform="matrix(0.29649885,0,0,0.29649885,-431.628,46.346216)"
       style="font-style:normal;font-variant:normal;font-weight:normal;font-stretch:normal;font-size:120px;line-height:1.25;font-family:'New Athletic M54';-inkscape-font-specification:'New Athletic M54';text-align:center;letter-spacing:0px;word-spacing:0px;text-anchor:middle;fill:#a2aaad;fill-opacity:1;stroke:none;stroke-opacity:1"
       id="flowRoot973">
      <path
         d="m 1685.1094,675.20468 -3.3985,-17.10937 h -17.8125 l -3.3984,17.10937 q -0.7031,3.39844 -4.1602,3.39844 h -8.7304 q -2.0508,0 -3.2813,-1.52344 -1.289,-1.46484 -0.8789,-3.51562 l 16.7578,-83.61328 q 0.6446,-3.39844 4.1016,-3.39844 h 16.9922 q 3.457,0 4.1601,3.39844 l 16.6993,83.61328 q 0.3515,2.05078 -0.8789,3.51562 -1.2891,1.52344 -3.2227,1.52344 h -8.7891 q -3.5156,0 -4.1601,-3.39844 z m -6.7969,-34.10156 -5.5078,-27.53906 -5.5078,27.53906 z"
         style="font-size:120px;fill:#a2aaad;fill-opacity:1"
         id="path823" />
      <path
         d="m 1723.3125,639.63828 q 3.5742,-16.17188 5.7422,-25.78125 2.168,-9.60938 5.332,-24.02344 0.7617,-3.28125 4.1602,-3.28125 h 8.789 q 2.0508,0 3.2813,1.58203 1.2305,1.64063 0.8203,3.51563 l -18.6914,83.73047 q -0.7031,3.22265 -4.1016,3.22265 h -10.7226 q -3.3985,0 -4.043,-3.22265 L 1695.1875,591.65 q -0.4687,-1.875 0.8203,-3.51563 1.2305,-1.58203 3.2813,-1.58203 h 8.789 q 3.3399,0 4.1602,3.28125 3.164,14.41406 5.2734,24.02344 2.1094,9.60937 5.8008,25.78125 z"
         style="font-size:120px;fill:#a2aaad;fill-opacity:1"
         id="path825" />
      <path
         d="m 1786.0078,675.20468 -3.3984,-17.10937 h -17.8125 l -3.3985,17.10937 q -0.7031,3.39844 -4.1601,3.39844 h -8.7305 q -2.0508,0 -3.2812,-1.52344 -1.2891,-1.46484 -0.8789,-3.51562 l 16.7578,-83.61328 q 0.6445,-3.39844 4.1015,-3.39844 h 16.9922 q 3.4571,0 4.1602,3.39844 l 16.6992,83.61328 q 0.3516,2.05078 -0.8789,3.51562 -1.2891,1.52344 -3.2227,1.52344 h -8.789 q -3.5157,0 -4.1602,-3.39844 z m -6.7969,-34.10156 -5.5078,-27.53906 -5.5078,27.53906 z"
         style="font-size:120px;fill:#a2aaad;fill-opacity:1"
         id="path827" />
      <path
         d="m 1849.7578,678.60312 h -21.7383 q -6.6797,0 -11.4843,-4.74609 -4.7461,-4.7461 -4.7461,-11.42578 v -71.66016 q 0,-4.21875 4.2187,-4.21875 h 8.6133 q 4.2187,0 4.2187,4.21875 v 70.83984 h 20.918 q 4.1602,0 4.1602,4.21875 v 8.55469 q 0,4.21875 -4.1602,4.21875 z"
         style="font-size:120px;fill:#a2aaad;fill-opacity:1"
         id="path829" />
      <path
         d="m 1904.25,675.20468 -3.3984,-17.10937 h -17.8125 l -3.3985,17.10937 q -0.7031,3.39844 -4.1601,3.39844 h -8.7305 q -2.0508,0 -3.2812,-1.52344 -1.2891,-1.46484 -0.879,-3.51562 l 16.7579,-83.61328 q 0.6445,-3.39844 4.1015,-3.39844 h 16.9922 q 3.457,0 4.1602,3.39844 l 16.6992,83.61328 q 0.3515,2.05078 -0.8789,3.51562 -1.2891,1.52344 -3.2227,1.52344 h -8.789 q -3.5157,0 -4.1602,-3.39844 z m -6.7969,-34.10156 -5.5078,-27.53906 -5.5078,27.53906 z"
         style="font-size:120px;fill:#a2aaad;fill-opacity:1"
         id="path831" />
      <path
         d="m 1964.3672,675.90781 -17.5195,-45.52734 v 44.0039 q 0,4.21875 -4.2188,4.21875 h -8.4961 q -4.2187,0 -4.2187,-4.21875 v -83.61328 q 0,-4.21875 4.2187,-4.21875 h 11.1328 q 2.8125,0 3.9258,2.69531 l 17.5781,45.58594 v -44.0625 q 0,-4.21875 4.2188,-4.21875 h 8.4375 q 4.2187,0 4.2187,4.21875 v 83.55469 q 0,4.16015 -4.1601,4.16015 l -11.1328,0.0586 q -2.9297,0.0586 -3.9844,-2.63672 z"
         style="font-size:120px;fill:#a2aaad;fill-opacity:1"
         id="path833" />
      <path
         d="m 2037.4922,674.61875 q -4.5117,3.98437 -10.6055,3.98437 h -18.1054 q -6.7383,0 -11.8946,-5.03906 -5.0976,-5.09766 -5.0976,-11.89453 v -58.1836 q 0,-6.73828 5.1562,-11.83593 5.1563,-5.09766 11.8945,-5.09766 h 17.9883 q 6.7383,0 11.9532,5.15625 5.2734,5.15625 5.2734,11.89453 v 2.69531 q 0,4.16016 -4.2188,4.16016 h -8.6132 q -4.1602,0 -4.1602,-4.16016 v -2.7539 h -18.2812 v 58.0664 h 18.2812 v -3.22265 q 0,-4.21875 4.1602,-4.21875 h 8.6132 q 4.2188,0 4.2188,4.21875 v 3.22265 q 0,7.38282 -6.5625,13.00782 z"
         style="font-size:120px;fill:#a2aaad;fill-opacity:1"
         id="path835" />
      <path
         d="m 2101.3594,678.60312 h -8.6133 q -4.2188,0 -4.2188,-4.21875 V 641.10312 H 2069.25 v 33.28125 q 0,4.21875 -4.1602,4.21875 h -8.6718 q -4.1602,0 -4.1602,-4.21875 v -83.61328 q 0,-4.21875 4.1602,-4.21875 h 8.6718 q 4.1602,0 4.1602,4.21875 v 33.28125 h 19.2773 v -33.28125 q 0,-4.21875 4.2188,-4.21875 h 8.6133 q 4.1601,0 4.1601,4.21875 v 83.61328 q 0,4.21875 -4.1601,4.21875 z"
         style="font-size:120px;fill:#a2aaad;fill-opacity:1"
         id="path837" />
      <path
         d="m 2153.8008,678.60312 h -23.9649 q -6.6796,0 -11.4257,-4.74609 -4.7461,-4.7461 -4.7461,-11.42578 v -71.66016 q 0,-4.21875 4.2187,-4.21875 h 35.5664 q 4.2188,0 4.2188,4.21875 v 8.61328 q 0,4.16016 -4.2188,4.16016 h -22.7929 v 20.50781 h 19.0429 q 4.2188,0 4.2188,4.21875 v 8.61328 q 0,4.21875 -4.2188,4.21875 h -19.0429 v 20.50781 h 23.1445 q 4.2187,0 4.2187,4.21875 v 8.55469 q 0,4.21875 -4.2187,4.21875 z"
         style="font-size:120px;fill:#a2aaad;fill-opacity:1"
         id="path839" />
    </g>
  </g>
</svg>
