<?xml version="1.0" encoding="UTF-8" standalone="no"?>
<!-- Created with Inkscape (http://www.inkscape.org/) -->

<svg
   xmlns:dc="http://purl.org/dc/elements/1.1/"
   xmlns:cc="http://creativecommons.org/ns#"
   xmlns:rdf="http://www.w3.org/1999/02/22-rdf-syntax-ns#"
   xmlns:svg="http://www.w3.org/2000/svg"
   xmlns="http://www.w3.org/2000/svg"
   xmlns:sodipodi="http://sodipodi.sourceforge.net/DTD/sodipodi-0.dtd"
   xmlns:inkscape="http://www.inkscape.org/namespaces/inkscape"
   width="1000"
   height="1000"
   viewBox="0 0 264.58333 264.58334"
   version="1.1"
   id="svg8"
   sodipodi:docname="det-home.svg"
   inkscape:version="0.92.3 (2405546, 2018-03-11)">
  <defs
     id="defs2" />
  <sodipodi:namedview
     id="base"
     pagecolor="#ffffff"
     bordercolor="#666666"
     borderopacity="1.0"
     inkscape:pageopacity="0.0"
     inkscape:pageshadow="2"
     inkscape:zoom="0.7"
     inkscape:cx="260.17863"
     inkscape:cy="430.49872"
     inkscape:document-units="mm"
     inkscape:current-layer="layer1"
     showgrid="false"
     units="px"
     inkscape:window-width="1920"
     inkscape:window-height="1029"
     inkscape:window-x="1920"
     inkscape:window-y="0"
     inkscape:window-maximized="1"
     inkscape:snap-object-midpoints="false"
     inkscape:snap-smooth-nodes="true"
     inkscape:snap-global="false" />
  <metadata
     id="metadata5">
    <rdf:RDF>
      <cc:Work
         rdf:about="">
        <dc:format>image/svg+xml</dc:format>
        <dc:type
           rdf:resource="http://purl.org/dc/dcmitype/StillImage" />
        <dc:title />
      </cc:Work>
    </rdf:RDF>
  </metadata>
  <g
     inkscape:label="Layer 1"
     inkscape:groupmode="layer"
     id="layer1"
     transform="translate(0,-32.41665)">
    <rect
       style="opacity:1;fill:#ce1126;fill-opacity:1;stroke:none;stroke-width:5.29166651;stroke-linecap:butt;stroke-linejoin:round;stroke-miterlimit:4;stroke-dasharray:none;stroke-opacity:1;paint-order:normal"
       id="rect1015"
       width="283.30569"
       height="279.02939"
       x="-9.0871639"
       y="24.385065" />
    <g
       id="g1049">
      <circle
         r="47.625"
         cy="191.92259"
         cx="73.327377"
         id="path1024"
         style="opacity:1;fill:#ce1126;fill-opacity:1;stroke:none;stroke-width:5.29166651;stroke-linecap:butt;stroke-linejoin:round;stroke-miterlimit:4;stroke-dasharray:none;stroke-opacity:1;paint-order:normal" />
      <path
         style="opacity:1;fill:#ce1126;fill-opacity:1;stroke:#ce1126;stroke-width:5.29166667;stroke-linecap:butt;stroke-linejoin:miter;stroke-opacity:1;stroke-miterlimit:4;stroke-dasharray:none"
         d="m 238.29852,80.057421 c -21.26825,25.546459 -34.90445,28.925879 -63.37623,32.162689 -28.47172,3.23681 -48.77706,-5.57834 -70.83993,5.85437 -11.076745,5.73984 -14.286306,16.59073 -15.206788,27.07859 l 19.949908,12.59627 3.62087,-3.57013 49.77797,7.99452 57.21913,-28.88761 c 16.00828,-14.81487 18.77718,-28.0499 18.77718,-28.0499 -11.47002,10.89597 -28.14528,17.82396 -28.14528,17.82396 26.92666,-24.405224 28.22317,-43.002759 28.22317,-43.002759 z"
         id="path1022"
         inkscape:connector-curvature="0" />
      <path
         inkscape:connector-curvature="0"
         id="path994"
         d="m 238.29852,80.057421 c -21.26825,25.546459 -34.90445,28.925879 -63.37623,32.162689 -28.47172,3.23681 -48.77706,-5.57834 -70.83993,5.85437 -11.076745,5.73984 -14.286306,16.59073 -15.206788,27.07859 l 19.949908,12.59627 3.62087,-3.57013 49.77797,7.99452 57.21913,-28.88761 c 16.00828,-14.81487 18.77718,-28.0499 18.77718,-28.0499 -11.47002,10.89597 -28.14528,17.82396 -28.14528,17.82396 26.92666,-24.405224 28.22317,-43.002759 28.22317,-43.002759 z"
         style="opacity:1;fill:#ffffff;fill-opacity:1;stroke:none;stroke-width:0.26458332px;stroke-linecap:butt;stroke-linejoin:miter;stroke-opacity:1" />
      <path
         inkscape:connector-curvature="0"
         style="opacity:1;fill:#ffffff;fill-opacity:1;stroke:#ce1126;stroke-width:5.29166651;stroke-linecap:butt;stroke-linejoin:round;stroke-miterlimit:4;stroke-dasharray:none;stroke-opacity:1;paint-order:normal"
         d="m 79.619492,128.06343 a 64.242623,64.201878 0 0 0 -69.581964,58.3801 64.242623,64.201878 0 0 0 58.417117,69.53829 64.242623,64.201878 0 0 0 69.582005,-58.38056 64.242623,64.201878 0 0 0 -58.417158,-69.53783 z m -2.238926,25.65195 a 38.476865,38.452462 0 0 1 11.145378,2.68709 l -0.52111,5.9705 -12.280625,10.30361 -10.307634,-12.26933 0.518011,-5.93497 a 38.476865,38.452462 0 0 1 11.44598,-0.7569 z m -13.911114,1.34348 -0.239623,2.74536 -1.74681,-2.07937 a 38.476865,38.452462 0 0 1 1.986433,-0.66599 z m 27.376247,2.42268 a 38.476865,38.452462 0 0 1 1.856197,0.95054 l -2.092384,1.75554 z m 4.04477,2.25235 a 38.476865,38.452462 0 0 1 14.576951,17.35603 l -4.57446,3.83803 -15.972161,-1.3923 1.393183,-15.96203 z m -35.7983,-3.11772 3.842167,4.57358 -1.39293,15.95923 -15.974967,-1.39254 -3.840022,-4.57104 a 38.476865,38.452462 0 0 1 17.365752,-14.56923 z m 28.617136,9.14281 -1.184218,13.56784 -5.626633,-0.49048 -3.628193,-4.31888 z m -22.588187,-1.96667 8.761483,10.42937 -4.322122,3.62633 -5.62337,-0.49019 z m 10.307562,12.27027 2.082077,2.47846 -4.562117,-0.39769 z m -35.004901,-2.69001 1.754508,2.08853 -2.704511,-0.23576 a 38.476865,38.452462 0 0 1 0.950003,-1.85277 z m 69.934971,6.10757 a 38.476865,38.452462 0 0 1 0.66574,1.9823 l -2.74338,-0.23914 z m -71.964741,-1.93652 5.971016,0.5205 10.31016,12.27285 -12.277607,10.30104 -5.934051,-0.51728 a 38.476865,38.452462 0 0 1 -0.757761,-11.43969 38.476865,38.452462 0 0 1 2.688243,-11.13742 z m 9.358694,0.8158 13.579729,1.18376 -0.490499,5.61979 -4.325166,3.62888 z m 15.975441,1.39259 3.227666,0.28135 -3.509199,2.94426 z m 19.357056,1.68736 3.230921,0.28163 -0.281823,3.22889 z m 5.626633,0.49047 13.576447,1.18346 -10.439043,8.75849 -3.628193,-4.31888 z m 16.964597,1.47882 5.93499,0.51735 a 38.476865,38.452462 0 0 1 0.757,11.43773 38.476865,38.452462 0 0 1 -2.68887,11.13926 l -5.97665,-0.52099 -10.307575,-12.2698 z m -45.130026,5.14031 -0.398427,4.56486 -2.084667,-2.48152 z m 27.379147,2.38947 2.082104,2.47847 -2.48004,2.08078 z m -31.704277,1.23894 3.631165,4.32244 -0.490253,5.617 -13.576911,-1.18351 z m 35.332469,3.07994 8.761487,10.42938 -13.573652,-1.18321 0.490544,-5.62027 z m -6.926335,5.81173 -0.281533,3.2256 -3.227667,-0.28136 z m -22.588223,-1.9662 2.943571,3.50391 -3.224867,-0.28111 z m -24.988697,3.48145 2.742421,0.23906 -2.077132,1.74273 a 38.476865,38.452462 0 0 1 -0.665289,-1.98179 z m 6.130573,0.5344 15.972159,1.3923 -1.393184,15.96204 -4.57496,3.83845 A 38.476865,38.452462 0 0 1 38.607619,206.95588 Z m 18.367862,1.60113 5.62057,0.48995 3.631174,4.32245 -10.435998,8.75592 z m 9.008722,0.7853 4.567752,0.39817 -2.483085,2.08335 z m 7.955886,0.69351 5.623369,0.4902 -1.184499,13.57111 -8.764037,-10.43242 z m 8.019081,0.69903 15.969358,1.39206 3.84302,4.57461 a 38.476865,38.452462 0 0 1 -17.368376,14.56664 l -3.837467,-4.568 z m 19.357028,1.68736 2.70969,0.2362 a 38.476865,38.452462 0 0 1 -0.95218,1.85588 z m -33.542857,2.78761 10.310124,12.27285 -0.51731,5.92702 a 38.476865,38.452462 0 0 1 -11.44598,0.75689 38.476865,38.452462 0 0 1 -11.145388,-2.68708 l 0.520992,-5.9691 z m -14.88224,12.48593 -0.236069,2.70468 a 38.476865,38.452462 0 0 1 -1.855306,-0.95 z m 27.379111,2.38994 1.741693,2.07326 a 38.476865,38.452462 0 0 1 -1.980616,0.66416 z"
         id="path1006" />
      <path
         inkscape:connector-curvature="0"
         id="path968"
         d="m 79.619492,128.06343 a 64.242623,64.201878 0 0 0 -69.581964,58.3801 64.242623,64.201878 0 0 0 58.417117,69.53829 64.242623,64.201878 0 0 0 69.582005,-58.38056 64.242623,64.201878 0 0 0 -58.417158,-69.53783 z m -2.238926,25.65195 a 38.476865,38.452462 0 0 1 11.145378,2.68709 l -0.52111,5.9705 -12.280625,10.30361 -10.307634,-12.26933 0.518011,-5.93497 a 38.476865,38.452462 0 0 1 11.44598,-0.7569 z m -13.911114,1.34348 -0.239623,2.74536 -1.74681,-2.07937 a 38.476865,38.452462 0 0 1 1.986433,-0.66599 z m 27.376247,2.42268 a 38.476865,38.452462 0 0 1 1.856197,0.95054 l -2.092384,1.75554 z m 4.04477,2.25235 a 38.476865,38.452462 0 0 1 14.576951,17.35603 l -4.57446,3.83803 -15.972161,-1.3923 1.393183,-15.96203 z m -35.7983,-3.11772 3.842167,4.57358 -1.39293,15.95923 -15.974967,-1.39254 -3.840022,-4.57104 a 38.476865,38.452462 0 0 1 17.365752,-14.56923 z m 28.617136,9.14281 -1.184218,13.56784 -5.626633,-0.49048 -3.628193,-4.31888 z m -22.588187,-1.96667 8.761483,10.42937 -4.322122,3.62633 -5.62337,-0.49019 z m 10.307562,12.27027 2.082077,2.47846 -4.562117,-0.39769 z m -35.004901,-2.69001 1.754508,2.08853 -2.704511,-0.23576 a 38.476865,38.452462 0 0 1 0.950003,-1.85277 z m 69.934971,6.10757 a 38.476865,38.452462 0 0 1 0.66574,1.9823 l -2.74338,-0.23914 z m -71.964741,-1.93652 5.971016,0.5205 10.31016,12.27285 -12.277607,10.30104 -5.934051,-0.51728 a 38.476865,38.452462 0 0 1 -0.757761,-11.43969 38.476865,38.452462 0 0 1 2.688243,-11.13742 z m 9.358694,0.8158 13.579729,1.18376 -0.490499,5.61979 -4.325166,3.62888 z m 15.975441,1.39259 3.227666,0.28135 -3.509199,2.94426 z m 19.357056,1.68736 3.230921,0.28163 -0.281823,3.22889 z m 5.626633,0.49047 13.576447,1.18346 -10.439043,8.75849 -3.628193,-4.31888 z m 16.964597,1.47882 5.93499,0.51735 a 38.476865,38.452462 0 0 1 0.757,11.43773 38.476865,38.452462 0 0 1 -2.68887,11.13926 l -5.97665,-0.52099 -10.307575,-12.2698 z m -45.130026,5.14031 -0.398427,4.56486 -2.084667,-2.48152 z m 27.379147,2.38947 2.082104,2.47847 -2.48004,2.08078 z m -31.704277,1.23894 3.631165,4.32244 -0.490253,5.617 -13.576911,-1.18351 z m 35.332469,3.07994 8.761487,10.42938 -13.573652,-1.18321 0.490544,-5.62027 z m -6.926335,5.81173 -0.281533,3.2256 -3.227667,-0.28136 z m -22.588223,-1.9662 2.943571,3.50391 -3.224867,-0.28111 z m -24.988697,3.48145 2.742421,0.23906 -2.077132,1.74273 a 38.476865,38.452462 0 0 1 -0.665289,-1.98179 z m 6.130573,0.5344 15.972159,1.3923 -1.393184,15.96204 -4.57496,3.83845 A 38.476865,38.452462 0 0 1 38.607619,206.95588 Z m 18.367862,1.60113 5.62057,0.48995 3.631174,4.32245 -10.435998,8.75592 z m 9.008722,0.7853 4.567752,0.39817 -2.483085,2.08335 z m 7.955886,0.69351 5.623369,0.4902 -1.184499,13.57111 -8.764037,-10.43242 z m 8.019081,0.69903 15.969358,1.39206 3.84302,4.57461 a 38.476865,38.452462 0 0 1 -17.368376,14.56664 l -3.837467,-4.568 z m 19.357028,1.68736 2.70969,0.2362 a 38.476865,38.452462 0 0 1 -0.95218,1.85588 z m -33.542857,2.78761 10.310124,12.27285 -0.51731,5.92702 a 38.476865,38.452462 0 0 1 -11.44598,0.75689 38.476865,38.452462 0 0 1 -11.145388,-2.68708 l 0.520992,-5.9691 z m -14.88224,12.48593 -0.236069,2.70468 a 38.476865,38.452462 0 0 1 -1.855306,-0.95 z m 27.379111,2.38994 1.741693,2.07326 a 38.476865,38.452462 0 0 1 -1.980616,0.66416 z"
         style="opacity:1;fill:#ffffff;fill-opacity:1;stroke:none;stroke-width:5.29166651;stroke-linecap:butt;stroke-linejoin:round;stroke-miterlimit:4;stroke-dasharray:none;stroke-opacity:1;paint-order:normal" />
      <path
         style="opacity:1;fill:#ce1126;fill-opacity:1;stroke:#ce1126;stroke-width:5.29166651;stroke-linecap:butt;stroke-linejoin:miter;stroke-miterlimit:4;stroke-dasharray:none;stroke-opacity:1"
         d="m 77.658708,193.45298 c 0,0 10.081181,-3.75132 14.734252,-12.36223 4.653089,-8.61091 -1.693321,-42.06222 22.06817,-51.68803 23.76153,-9.62579 43.77165,1.3787 73.32842,0.78721 29.55679,-0.59149 43.88848,-2.75385 68.19051,-26.95391 0,0 -3.1196,18.97954 -33.12417,41.46407 0,0 17.79438,-5.51586 30.62353,-15.60726 0,0 -4.76012,15.42488 -26.28177,30.11973 0,0 8.17608,-1.4805 15.33212,-5.24312 -15.73173,24.46811 -58.20134,59.07792 -104.07097,66.47188 -52.235923,8.42017 -60.800092,-26.98834 -60.800092,-26.98834 z"
         id="path1004"
         inkscape:connector-curvature="0"
         sodipodi:nodetypes="ccsscccccsc" />
      <path
         sodipodi:nodetypes="ccsscccccsc"
         inkscape:connector-curvature="0"
         id="path992"
         d="m 77.658708,193.45298 c 0,0 10.081181,-3.75132 14.734252,-12.36223 4.653089,-8.61091 -1.693321,-42.06222 22.06817,-51.68803 23.76153,-9.62579 43.77165,1.3787 73.32842,0.78721 29.55679,-0.59149 43.88848,-2.75385 68.19051,-26.95391 0,0 -3.1196,18.97954 -33.12417,41.46407 0,0 17.79438,-5.51586 30.62353,-15.60726 0,0 -4.76012,15.42488 -26.28177,30.11973 0,0 8.17608,-1.4805 15.33212,-5.24312 -15.73173,24.46811 -58.20134,59.07792 -104.07097,66.47188 -52.235923,8.42017 -60.800092,-26.98834 -60.800092,-26.98834 z"
         style="opacity:1;fill:#ffffff;fill-opacity:1;stroke:none;stroke-width:0.26458332px;stroke-linecap:butt;stroke-linejoin:miter;stroke-opacity:1" />
    </g>
    <g
       aria-label="DETROIT"
       transform="matrix(0.69308004,-0.1666678,0.1666678,0.69308004,7.1578506,118.40387)"
       style="font-style:normal;font-variant:normal;font-weight:normal;font-stretch:normal;font-size:40px;line-height:1.25;font-family:'New Athletic M54';-inkscape-font-specification:'New Athletic M54';letter-spacing:0px;word-spacing:0px;fill:#ce1126;fill-opacity:1;stroke:none;stroke-width:0.37116894"
       id="flowRoot1026">
      <path
         d="m 133.26953,85.725129 v 19.316411 q 0,2.28515 -1.73828,3.98437 -1.73828,1.69922 -3.96484,1.69922 h -10.50782 q -1.40625,0 -1.40625,-1.40625 V 81.447786 q 0,-1.40625 1.40625,-1.40625 h 10.48829 q 2.24609,0 3.98437,1.71875 1.73828,1.71875 1.73828,3.964843 z m -5.66406,19.335941 V 85.705598 h -6.26953 v 19.355472 z"
         style="stroke-width:0.37116894"
         id="path846" />
      <path
         d="m 149.42187,110.72513 h -7.98828 q -2.22656,0 -3.80859,-1.58203 -1.58203,-1.58203 -1.58203,-3.8086 V 81.447786 q 0,-1.40625 1.40625,-1.40625 h 11.85547 q 1.40625,0 1.40625,1.40625 v 2.871093 q 0,1.386719 -1.40625,1.386719 h -7.59766 v 6.835938 h 6.34766 q 1.40625,0 1.40625,1.40625 v 2.871093 q 0,1.40625 -1.40625,1.40625 h -6.34766 v 6.835941 h 7.71484 q 1.40625,0 1.40625,1.40625 v 2.85156 q 0,1.40625 -1.40625,1.40625 z"
         style="stroke-width:0.37116894"
         id="path848" />
      <path
         d="m 169.07031,85.705598 h -4.21875 v 23.613282 q 0,1.40625 -1.40625,1.40625 h -2.87109 q -1.40625,0 -1.40625,-1.40625 V 85.705598 h -4.21875 q -1.40625,0 -1.40625,-1.386719 v -2.871093 q 0,-1.40625 1.40625,-1.40625 h 14.12109 q 1.40625,0 1.40625,1.40625 v 2.871093 q 0,1.386719 -1.40625,1.386719 z"
         style="stroke-width:0.37116894"
         id="path850" />
      <path
         d="M 189.44141,110.72513 H 186.375 q -0.9375,0 -1.28906,-0.89844 l -4.49219,-11.601561 h -1.67969 v 11.093751 q 0,1.40625 -1.40625,1.40625 h -2.87109 q -1.40625,0 -1.40625,-1.40625 V 81.447786 q 0,-1.40625 1.40625,-1.40625 h 9.98047 q 2.24609,0 3.98437,1.71875 1.73828,1.699218 1.73828,3.964843 v 6.796875 q 0,1.796875 -1.11328,3.261719 -1.11328,1.464844 -2.73437,2.070313 L 190.75,108.81107 q 0.27344,0.72265 -0.13672,1.30859 -0.42969,0.60547 -1.17187,0.60547 z m -4.78516,-18.183594 v -6.835938 h -5.74219 v 6.835938 z"
         style="stroke-width:0.37116894"
         id="path852" />
      <path
         d="m 205.90625,110.72513 h -6.46484 q -2.26563,0 -3.96485,-1.67969 -1.69922,-1.67969 -1.69922,-3.94531 V 85.686067 q 0,-2.246094 1.69922,-3.945313 1.71875,-1.699218 3.96485,-1.699218 h 6.44531 q 2.24609,0 3.96484,1.699218 1.73828,1.699219 1.73828,3.964844 V 105.0806 q 0,2.26562 -1.73828,3.96484 -1.71875,1.67969 -3.94531,1.67969 z m 0,-5.66406 V 85.705598 h -6.46484 v 19.355472 z"
         style="stroke-width:0.37116894"
         id="path854" />
      <path
         d="m 218.60156,110.72513 h -2.87109 q -1.40625,0 -1.40625,-1.40625 V 81.447786 q 0,-1.40625 1.40625,-1.40625 h 2.87109 q 1.40625,0 1.40625,1.40625 v 27.871094 q 0,1.40625 -1.40625,1.40625 z"
         style="stroke-width:0.37116894"
         id="path856" />
      <path
         d="m 238.28906,85.705598 h -4.21875 v 23.613282 q 0,1.40625 -1.40625,1.40625 h -2.87109 q -1.40625,0 -1.40625,-1.40625 V 85.705598 h -4.21875 q -1.40625,0 -1.40625,-1.386719 v -2.871093 q 0,-1.40625 1.40625,-1.40625 h 14.12109 q 1.40625,0 1.40625,1.40625 v 2.871093 q 0,1.386719 -1.40625,1.386719 z"
         style="stroke-width:0.37116894"
         id="path858" />
    </g>
    <g
       aria-label="RED WINGS"
       transform="matrix(0.69308004,-0.1666678,0.1666678,0.69308004,3.0433456,149.35342)"
       style="font-style:normal;font-variant:normal;font-weight:normal;font-stretch:normal;font-size:40px;line-height:1.25;font-family:'New Athletic M54';-inkscape-font-specification:'New Athletic M54';letter-spacing:0px;word-spacing:0px;fill:#ce1126;fill-opacity:1;stroke:none;stroke-width:0.37116894"
       id="flowRoot1040">
      <path
         d="m 131.86328,110.72513 h -3.06641 q -0.93749,0 -1.28906,-0.89844 l -4.49218,-11.601561 h -1.67969 v 11.093751 q 0,1.40625 -1.40625,1.40625 h -2.8711 q -1.40625,0 -1.40625,-1.40625 V 81.447786 q 0,-1.40625 1.40625,-1.40625 h 9.98047 q 2.2461,0 3.98438,1.71875 1.73828,1.699218 1.73828,3.964843 v 6.796875 q 0,1.796875 -1.11328,3.261719 -1.11328,1.464844 -2.73438,2.070313 l 4.25781,10.957034 q 0.27344,0.72265 -0.13671,1.30859 -0.42969,0.60547 -1.17188,0.60547 z m -4.78515,-18.183594 v -6.835938 h -5.74219 v 6.835938 z"
         style="stroke-width:0.37116894"
         id="path829" />
      <path
         d="m 149.57812,110.72513 h -7.98828 q -2.22656,0 -3.80859,-1.58203 -1.58203,-1.58203 -1.58203,-3.8086 V 81.447786 q 0,-1.40625 1.40625,-1.40625 h 11.85547 q 1.40625,0 1.40625,1.40625 v 2.871093 q 0,1.386719 -1.40625,1.386719 h -7.59766 v 6.835938 h 6.34766 q 1.40625,0 1.40625,1.40625 v 2.871093 q 0,1.40625 -1.40625,1.40625 h -6.34766 v 6.835941 h 7.71484 q 1.40625,0 1.40625,1.40625 v 2.85156 q 0,1.40625 -1.40625,1.40625 z"
         style="stroke-width:0.37116894"
         id="path831" />
      <path
         d="m 171.31641,85.725129 v 19.316411 q 0,2.28515 -1.73829,3.98437 -1.73828,1.69922 -3.96484,1.69922 h -10.50781 q -1.40625,0 -1.40625,-1.40625 V 81.447786 q 0,-1.40625 1.40625,-1.40625 h 10.48828 q 2.24609,0 3.98437,1.71875 1.73829,1.71875 1.73829,3.964843 z m -5.66407,19.335941 V 85.705598 h -6.26953 v 19.355472 z"
         style="stroke-width:0.37116894"
         id="path833" />
      <path
         d="m 210.59375,81.682161 -4.6875,27.890629 q -0.21484,1.15234 -1.36719,1.15234 h -3.45703 q -1.17187,0 -1.36719,-1.11328 l -2.4414,-12.148439 -2.44141,12.148439 q -0.23437,1.11328 -1.36719,1.11328 h -3.45703 q -1.1914,0 -1.38672,-1.15234 l -4.64843,-27.890629 q -0.11719,-0.625 0.3125,-1.132813 0.41015,-0.507812 1.07421,-0.507812 h 2.92969 q 1.21094,0 1.38672,1.191406 l 2.14844,14.492187 2.87109,-14.550781 q 0.21485,-1.132812 1.38672,-1.132812 h 2.40234 q 1.13282,0 1.36719,1.132812 l 2.85156,14.570313 2.14844,-14.511719 q 0.15625,-1.191406 1.38672,-1.191406 h 2.96875 q 0.625,0 1.07422,0.507812 0.39062,0.46875 0.3125,1.132813 z"
         style="stroke-width:0.37116894"
         id="path835" />
      <path
         d="m 217.66406,110.72513 h -2.87109 q -1.40625,0 -1.40625,-1.40625 V 81.447786 q 0,-1.40625 1.40625,-1.40625 h 2.87109 q 1.40625,0 1.40625,1.40625 v 27.871094 q 0,1.40625 -1.40625,1.40625 z"
         style="stroke-width:0.37116894"
         id="path837" />
      <path
         d="m 233.30859,109.82669 -5.83984,-15.175779 v 14.667969 q 0,1.40625 -1.40625,1.40625 h -2.83203 q -1.40625,0 -1.40625,-1.40625 V 81.447786 q 0,-1.40625 1.40625,-1.40625 h 3.71094 q 0.9375,0 1.30859,0.898437 l 5.85937,15.195313 v -14.6875 q 0,-1.40625 1.40625,-1.40625 h 2.8125 q 1.40625,0 1.40625,1.40625 v 27.851564 q 0,1.38672 -1.38671,1.38672 l -3.71094,0.0195 q -0.97656,0.0195 -1.32813,-0.87891 z"
         style="stroke-width:0.37116894"
         id="path839" />
      <path
         d="m 254.22656,110.72513 h -6.11328 q -2.24609,0 -3.96484,-1.67969 -1.69922,-1.67969 -1.69922,-3.94531 V 85.705598 q 0,-2.246094 1.71875,-3.945312 1.73828,-1.71875 3.98437,-1.71875 h 6.07422 q 2.2461,0 3.96485,1.71875 1.73828,1.699218 1.73828,3.945312 v 0.976563 q 0,1.386718 -1.38672,1.386718 h -2.8711 q -1.40625,0 -1.40625,-1.386718 v -0.976563 h -6.13281 v 19.355472 h 6.13281 v -6.835941 h -2.48046 q -1.38672,0 -1.38672,-1.40625 v -2.871093 q 0,-1.40625 1.38672,-1.40625 h 6.75781 q 1.38672,0 1.38672,1.40625 v 11.113284 q 0,2.28515 -1.73828,3.98437 -1.71875,1.67969 -3.96485,1.67969 z"
         style="stroke-width:0.37116894"
         id="path841" />
      <path
         d="m 274.07031,110.72513 h -5.70312 q -2.26563,0 -3.98438,-1.67969 -1.69922,-1.69922 -1.69922,-3.98437 v -1.07422 q 0,-1.40625 1.38672,-1.40625 h 2.8711 q 1.40625,0 1.40625,1.40625 v 1.07422 h 5.72265 v -6.835941 h -5.70312 q -2.26563,0 -3.98438,-1.699218 -1.69922,-1.699219 -1.69922,-3.964844 v -6.855469 q 0,-2.246094 1.69922,-3.945312 1.71875,-1.71875 3.98438,-1.71875 h 5.70312 q 2.2461,0 3.94531,1.699218 1.71875,1.699219 1.71875,3.945313 v 0.9375 q 0,1.386719 -1.38671,1.386719 h -2.8711 q -1.40625,0 -1.40625,-1.386719 v -0.917969 h -5.72265 v 6.835938 h 5.72265 q 2.2461,0 3.94531,1.699218 1.71875,1.699219 1.71875,3.945313 v 6.894533 q 0,2.28515 -1.71875,3.96484 -1.69921,1.67969 -3.94531,1.67969 z"
         style="stroke-width:0.37116894"
         id="path843" />
    </g>
  </g>
</svg>
