<?xml version="1.0" encoding="UTF-8" standalone="no"?>
<!-- Created with Inkscape (http://www.inkscape.org/) -->

<svg
   xmlns:dc="http://purl.org/dc/elements/1.1/"
   xmlns:cc="http://creativecommons.org/ns#"
   xmlns:rdf="http://www.w3.org/1999/02/22-rdf-syntax-ns#"
   xmlns:svg="http://www.w3.org/2000/svg"
   xmlns="http://www.w3.org/2000/svg"
   xmlns:sodipodi="http://sodipodi.sourceforge.net/DTD/sodipodi-0.dtd"
   xmlns:inkscape="http://www.inkscape.org/namespaces/inkscape"
   width="1000"
   height="1000"
   viewBox="0 0 264.58333 264.58334"
   version="1.1"
   id="svg8"
   sodipodi:docname="edm-alt2.svg"
   inkscape:version="0.92.3 (2405546, 2018-03-11)">
  <defs
     id="defs2" />
  <sodipodi:namedview
     id="base"
     pagecolor="#ffffff"
     bordercolor="#666666"
     borderopacity="1.0"
     inkscape:pageopacity="0.0"
     inkscape:pageshadow="2"
     inkscape:zoom="0.49497475"
     inkscape:cx="685.71653"
     inkscape:cy="411.10996"
     inkscape:document-units="mm"
     inkscape:current-layer="layer1"
     showgrid="false"
     units="px"
     inkscape:window-width="1920"
     inkscape:window-height="1029"
     inkscape:window-x="1920"
     inkscape:window-y="0"
     inkscape:window-maximized="1" />
  <metadata
     id="metadata5">
    <rdf:RDF>
      <cc:Work
         rdf:about="">
        <dc:format>image/svg+xml</dc:format>
        <dc:type
           rdf:resource="http://purl.org/dc/dcmitype/StillImage" />
        <dc:title />
      </cc:Work>
    </rdf:RDF>
  </metadata>
  <g
     inkscape:label="Layer 1"
     inkscape:groupmode="layer"
     id="layer1"
     transform="translate(0,-32.41665)">
    <rect
       style="opacity:1;fill:#ff4c00;fill-opacity:1;stroke:none;stroke-width:7.937;stroke-linecap:butt;stroke-linejoin:round;stroke-miterlimit:4;stroke-dasharray:none;stroke-opacity:1;paint-order:normal"
       id="rect893"
       width="306.82541"
       height="293.99649"
       x="-10.690781"
       y="22.781448" />
    <path
       style="fill:#041e42;fill-opacity:1;stroke-width:1.02666116"
       d="M 117.6834,281.63581 C 97.652305,278.05499 80.043732,267.60452 68.999092,252.74217 62.981917,244.64505 59.351902,237.48416 56.35407,227.79739 53.483147,213.1666 53.598666,196.4223 57.406678,183.65097 61.740734,169.26386 68.935032,155.83168 86.290735,129.72281 109.22937,95.215235 123.31694,70.625115 129.35778,54.54832 c 1.00779,-2.68214 2.16885,-4.876643 2.58009,-4.876643 0.41123,0 1.57225,2.194503 2.58008,4.876643 6.06862,16.150715 18.64624,38.158034 41.74339,73.03935 18.57171,28.04696 25.82076,41.50067 30.2077,56.0633 5.21836,19.6968 3.35559,41.54516 -4.31901,57.49301 -9.0251,18.56969 -27.00902,33.06752 -48.03233,38.72144 -8.51531,2.29008 -28.18148,3.24569 -36.4343,1.77039 z"
       id="path935"
       inkscape:connector-curvature="0"
       sodipodi:nodetypes="scccccsccccss" />
    <g
       aria-label="OILERS"
       transform="matrix(0.37235905,0,0,0.37235905,-99.07027,49.632822)"
       style="font-style:normal;font-weight:normal;font-size:40px;line-height:1.25;font-family:sans-serif;letter-spacing:0px;word-spacing:0px;fill:#f7f7fe;fill-opacity:1;stroke:none"
       id="flowRoot981">
      <path
         d="m 528.3125,511.05437 h -15.51563 q -5.4375,0 -9.51562,-4.03125 -4.07813,-4.03125 -4.07813,-9.46875 v -46.59375 q 0,-5.39062 4.07813,-9.46875 4.125,-4.07812 9.51562,-4.07812 h 15.46875 q 5.39063,0 9.51563,4.07812 4.17187,4.07813 4.17187,9.51563 v 46.5 q 0,5.4375 -4.17187,9.51562 -4.125,4.03125 -9.46875,4.03125 z m 0,-13.59375 V 451.0075 h -15.51563 v 46.45312 z"
         style="font-style:normal;font-variant:normal;font-weight:normal;font-stretch:normal;font-size:96px;font-family:'New Athletic M54';-inkscape-font-specification:'New Athletic M54';text-align:center;text-anchor:middle;fill:#f7f7fe;fill-opacity:1"
         id="path840" />
      <path
         d="m 558.78125,511.05437 h -6.89063 q -3.375,0 -3.375,-3.375 v -66.89062 q 0,-3.375 3.375,-3.375 h 6.89063 q 3.375,0 3.375,3.375 v 66.89062 q 0,3.375 -3.375,3.375 z"
         style="font-style:normal;font-variant:normal;font-weight:normal;font-stretch:normal;font-size:96px;font-family:'New Athletic M54';-inkscape-font-specification:'New Athletic M54';text-align:center;text-anchor:middle;fill:#f7f7fe;fill-opacity:1"
         id="path842" />
      <path
         d="M 599.14062,511.05437 H 581.75 q -5.34375,0 -9.1875,-3.79687 -3.79688,-3.79688 -3.79688,-9.14063 v -57.32812 q 0,-3.375 3.375,-3.375 h 6.89063 q 3.375,0 3.375,3.375 v 56.67187 h 16.73437 q 3.32813,0 3.32813,3.375 v 6.84375 q 0,3.375 -3.32813,3.375 z"
         style="font-style:normal;font-variant:normal;font-weight:normal;font-stretch:normal;font-size:96px;font-family:'New Athletic M54';-inkscape-font-specification:'New Athletic M54';text-align:center;text-anchor:middle;fill:#f7f7fe;fill-opacity:1"
         id="path844" />
      <path
         d="m 641.1875,511.05437 h -19.17188 q -5.34375,0 -9.14062,-3.79687 -3.79688,-3.79688 -3.79688,-9.14063 v -57.32812 q 0,-3.375 3.375,-3.375 h 28.45313 q 3.375,0 3.375,3.375 v 6.89062 q 0,3.32813 -3.375,3.32813 h -18.23438 v 16.40625 h 15.23438 q 3.375,0 3.375,3.375 v 6.89062 q 0,3.375 -3.375,3.375 h -15.23438 v 16.40625 h 18.51563 q 3.375,0 3.375,3.375 v 6.84375 q 0,3.375 -3.375,3.375 z"
         style="font-style:normal;font-variant:normal;font-weight:normal;font-stretch:normal;font-size:96px;font-family:'New Athletic M54';-inkscape-font-specification:'New Athletic M54';text-align:center;text-anchor:middle;fill:#f7f7fe;fill-opacity:1"
         id="path846" />
      <path
         d="M 689.98437,511.05437 H 682.625 q -2.25,0 -3.09375,-2.15625 L 668.75,481.05437 h -4.03125 v 26.625 q 0,3.375 -3.375,3.375 h -6.89063 q -3.375,0 -3.375,-3.375 v -66.89062 q 0,-3.375 3.375,-3.375 h 23.95313 q 5.39062,0 9.5625,4.125 4.17187,4.07812 4.17187,9.51562 v 16.3125 q 0,4.3125 -2.67187,7.82813 -2.67188,3.51562 -6.5625,4.96875 l 10.21875,26.29687 q 0.65625,1.73438 -0.32813,3.14063 -1.03125,1.45312 -2.8125,1.45312 z M 678.5,467.41375 V 451.0075 h -13.78125 v 16.40625 z"
         style="font-style:normal;font-variant:normal;font-weight:normal;font-stretch:normal;font-size:96px;font-family:'New Athletic M54';-inkscape-font-specification:'New Athletic M54';text-align:center;text-anchor:middle;fill:#f7f7fe;fill-opacity:1"
         id="path848" />
      <path
         d="m 727.71875,511.05437 h -13.6875 q -5.4375,0 -9.5625,-4.03125 -4.07813,-4.07812 -4.07813,-9.5625 v -2.57812 q 0,-3.375 3.32813,-3.375 h 6.89062 q 3.375,0 3.375,3.375 v 2.57812 h 13.73438 v -16.40625 h -13.6875 q -5.4375,0 -9.5625,-4.07812 -4.07813,-4.07813 -4.07813,-9.51563 V 451.0075 q 0,-5.39063 4.07813,-9.46875 4.125,-4.125 9.5625,-4.125 h 13.6875 q 5.39062,0 9.46875,4.07812 4.125,4.07813 4.125,9.46875 v 2.25 q 0,3.32813 -3.32813,3.32813 h -6.89062 q -3.375,0 -3.375,-3.32813 v -2.20312 h -13.73438 v 16.40625 h 13.73438 q 5.39062,0 9.46875,4.07812 4.125,4.07813 4.125,9.46875 v 16.54688 q 0,5.48437 -4.125,9.51562 -4.07813,4.03125 -9.46875,4.03125 z"
         style="font-style:normal;font-variant:normal;font-weight:normal;font-stretch:normal;font-size:96px;font-family:'New Athletic M54';-inkscape-font-specification:'New Athletic M54';text-align:center;text-anchor:middle;fill:#f7f7fe;fill-opacity:1"
         id="path850" />
    </g>
    <ellipse
       style="opacity:0;fill:#9c9bef;fill-opacity:1;stroke:none;stroke-width:8.08520603;stroke-linecap:butt;stroke-linejoin:round;stroke-miterlimit:4;stroke-dasharray:none;stroke-opacity:1;paint-order:normal"
       id="path983"
       cx="258.74899"
       cy="-129.01215"
       rx="70.711876"
       ry="74.236153"
       transform="matrix(0.01126421,0.99993656,-0.99970228,0.02440002,0,0)" />
    <g
       aria-label="EDMONTON"
       transform="translate(-0.12216753,5.8208334)"
       style="font-style:normal;font-weight:normal;font-size:13.32526588px;line-height:1.25;font-family:sans-serif;text-align:center;letter-spacing:0px;word-spacing:0px;text-anchor:middle;fill:#f7f7fe;fill-opacity:1;stroke:none;stroke-width:0.30869022"
       id="text1019">
      <path
         d="m 81.899181,203.81152 -4.514123,4.51812 q -1.258215,1.25933 -3.046996,1.26012 -1.788781,7.9e-4 -3.048109,-1.25743 L 57.77979,194.83411 q -0.795366,-0.79466 -7.03e-4,-1.59003 l 6.699443,-6.70537 q 0.794663,-0.79536 1.590028,-7e-4 l 1.623871,1.62244 q 0.784318,0.78362 -0.01034,1.57899 l -4.293383,4.29718 3.866359,3.86294 3.587017,-3.59019 q 0.794662,-0.79537 1.590027,-7e-4 l 1.623871,1.62243 q 0.795365,0.79466 7.03e-4,1.59003 l -3.587017,3.59019 3.866359,3.86294 4.359605,-4.36346 q 0.794662,-0.79537 1.590028,-7e-4 l 1.612824,1.61139 q 0.795365,0.79467 7.03e-4,1.59003 z"
         style="font-style:normal;font-variant:normal;font-weight:normal;font-stretch:normal;font-size:31.9806385px;font-family:'New Athletic M54';-inkscape-font-specification:'New Athletic M54';text-align:center;text-anchor:middle;fill:#f7f7fe;fill-opacity:1;stroke-width:0.30869022"
         id="path823" />
      <path
         d="m 85.050186,177.09315 8.524817,12.8778 q 1.008497,1.52346 0.599533,3.42344 -0.408963,1.89997 -1.893361,2.88261 l -7.005313,4.63736 q -0.937515,0.62062 -1.558128,-0.3169 L 71.417518,182.01645 q -0.620614,-0.93751 0.3169,-1.55812 l 6.992293,-4.62875 q 1.497419,-0.99125 3.414818,-0.61255 1.917399,0.3787 2.908657,1.87612 z m 4.757338,15.39051 -8.542056,-12.90384 -4.179751,2.76691 8.542057,12.90384 z"
         style="font-style:normal;font-variant:normal;font-weight:normal;font-stretch:normal;font-size:31.9806385px;font-family:'New Athletic M54';-inkscape-font-specification:'New Athletic M54';text-align:center;text-anchor:middle;fill:#f7f7fe;fill-opacity:1;stroke-width:0.30869022"
         id="path825" />
      <path
         d="m 112.90161,187.10594 -2.15377,0.79405 q -1.05491,0.38892 -1.44383,-0.66599 l -4.39156,-11.9117 -0.58841,6.89078 q -0.0569,0.70334 -0.73089,0.95182 -0.67397,0.24848 -1.15916,-0.255 l -4.920558,-4.85975 4.391558,11.91169 q 0.38892,1.05491 -0.66599,1.44383 l -2.153776,0.79404 q -1.040258,0.38352 -1.429178,-0.67139 l -7.708182,-20.90773 q -0.38892,-1.05491 0.651339,-1.43843 l 2.534714,-0.93448 q 0.659319,-0.24308 1.179219,0.26425 l 6.103834,6.03787 0.73843,-8.56045 q 0.0515,-0.71799 0.72548,-0.96647 l 2.53471,-0.93449 q 1.05491,-0.38892 1.44383,0.66599 l 7.70818,20.90773 q 0.38892,1.05491 -0.66599,1.44383 z"
         style="font-style:normal;font-variant:normal;font-weight:normal;font-stretch:normal;font-size:31.9806385px;font-family:'New Athletic M54';-inkscape-font-specification:'New Athletic M54';text-align:center;text-anchor:middle;fill:#f7f7fe;fill-opacity:1;stroke-width:0.30869022"
         id="path827" />
      <path
         d="m 125.83399,185.13746 -5.12912,0.63878 q -1.79752,0.22386 -3.31162,-0.94089 -1.5141,-1.16474 -1.73796,-2.96226 l -1.91826,-15.40287 q -0.22193,-1.78202 0.95831,-3.29805 1.19574,-1.51796 2.97776,-1.7399 l 5.11363,-0.63684 q 1.78202,-0.22193 3.31355,0.95638 1.54702,1.17638 1.77089,2.9739 l 1.91439,15.37187 q 0.22386,1.79752 -0.98737,3.31741 -1.19767,1.50247 -2.9642,1.72247 z m -0.55965,-4.49379 -1.91246,-15.35638 -5.12913,0.63878 1.91247,15.35637 z"
         style="font-style:normal;font-variant:normal;font-weight:normal;font-stretch:normal;font-size:31.9806385px;font-family:'New Athletic M54';-inkscape-font-specification:'New Athletic M54';text-align:center;text-anchor:middle;fill:#f7f7fe;fill-opacity:1;stroke-width:0.30869022"
         id="path829" />
      <path
         d="m 141.78754,184.5956 -3.61367,-12.48831 -1.00351,11.68426 q -0.0962,1.1202 -1.2164,1.02399 l -2.25595,-0.19376 q -1.1202,-0.0962 -1.02399,-1.2164 l 1.90681,-22.20165 q 0.0962,-1.1202 1.2164,-1.02399 l 2.95607,0.25389 q 0.7468,0.0641 0.98094,0.8052 l 3.62789,12.50521 1.00485,-11.69982 q 0.0962,-1.1202 1.21641,-1.02399 l 2.24039,0.19242 q 1.12019,0.0962 1.02398,1.2164 l -1.90547,22.1861 q -0.0949,1.10463 -1.19951,1.00976 l -2.95741,-0.23832 q -0.77925,-0.0513 -0.99783,-0.79099 z"
         style="font-style:normal;font-variant:normal;font-weight:normal;font-stretch:normal;font-size:31.9806385px;font-family:'New Athletic M54';-inkscape-font-specification:'New Athletic M54';text-align:center;text-anchor:middle;fill:#f7f7fe;fill-opacity:1;stroke-width:0.30869022"
         id="path831" />
      <path
         d="m 166.73643,170.69855 -3.22566,-0.98589 -5.51827,18.05471 q -0.32863,1.07522 -1.40385,0.74659 l -2.19524,-0.67096 q -1.07522,-0.32863 -0.74659,-1.40385 l 5.51827,-18.05471 -3.22565,-0.9859 q -1.07522,-0.32863 -0.75115,-1.38891 l 0.67095,-2.19524 q 0.32863,-1.07522 1.40385,-0.74659 l 10.79699,3.30001 q 1.07522,0.32863 0.74659,1.40385 l -0.67096,2.19524 q -0.32407,1.06028 -1.39928,0.73165 z"
         style="font-style:normal;font-variant:normal;font-weight:normal;font-stretch:normal;font-size:31.9806385px;font-family:'New Athletic M54';-inkscape-font-specification:'New Athletic M54';text-align:center;text-anchor:middle;fill:#f7f7fe;fill-opacity:1;stroke-width:0.30869022"
         id="path833" />
      <path
         d="m 172.5043,195.75498 -4.50445,-2.53493 q -1.5786,-0.88837 -2.10393,-2.72499 -0.52532,-1.83663 0.36305,-3.41522 l 7.61244,-13.52696 q 0.88072,-1.56499 2.73095,-2.08266 1.86384,-0.51001 3.42883,0.3707 l 4.49084,2.52727 q 1.56499,0.88072 2.09627,2.73861 0.54488,1.86554 -0.34349,3.44414 l -7.59713,13.49974 q -0.88837,1.5786 -2.76582,2.08095 -1.85618,0.49641 -3.40756,-0.37665 z m 2.22093,-3.9465 7.58947,-13.48613 -4.50445,-2.53493 -7.58947,13.48613 z"
         style="font-style:normal;font-variant:normal;font-weight:normal;font-stretch:normal;font-size:31.9806385px;font-family:'New Athletic M54';-inkscape-font-specification:'New Athletic M54';text-align:center;text-anchor:middle;fill:#f7f7fe;fill-opacity:1;stroke-width:0.30869022"
         id="path835" />
      <path
         d="m 185.5622,204.93728 4.72135,-12.11303 -7.89895,8.66808 q -0.75729,0.83102 -1.58832,0.0737 l -1.6736,-1.5251 q -0.83102,-0.75729 -0.0737,-1.58832 l 15.00906,-16.4705 q 0.75729,-0.83102 1.58832,-0.0737 l 2.19298,1.9984 q 0.55402,0.50486 0.2895,1.23563 l -4.72033,12.13509 7.90947,-8.67962 q 0.75729,-0.83103 1.58832,-0.0737 l 1.66206,1.51458 q 0.83102,0.75729 0.0737,1.58832 l -14.99854,16.45895 q -0.74677,0.81949 -1.56626,0.0727 l -2.2035,-1.98686 q -0.58762,-0.51436 -0.31156,-1.23461 z"
         style="font-style:normal;font-variant:normal;font-weight:normal;font-stretch:normal;font-size:31.9806385px;font-family:'New Athletic M54';-inkscape-font-specification:'New Athletic M54';text-align:center;text-anchor:middle;fill:#f7f7fe;fill-opacity:1;stroke-width:0.30869022"
         id="path837" />
    </g>
  </g>
</svg>
