<?xml version="1.0" encoding="UTF-8" standalone="no"?>
<!-- Created with Inkscape (http://www.inkscape.org/) -->

<svg
   xmlns:dc="http://purl.org/dc/elements/1.1/"
   xmlns:cc="http://creativecommons.org/ns#"
   xmlns:rdf="http://www.w3.org/1999/02/22-rdf-syntax-ns#"
   xmlns:svg="http://www.w3.org/2000/svg"
   xmlns="http://www.w3.org/2000/svg"
   xmlns:sodipodi="http://sodipodi.sourceforge.net/DTD/sodipodi-0.dtd"
   xmlns:inkscape="http://www.inkscape.org/namespaces/inkscape"
   width="1000"
   height="1000"
   viewBox="0 0 264.58333 264.58334"
   version="1.1"
   id="svg8"
   inkscape:version="0.92.3 (2405546, 2018-03-11)"
   sodipodi:docname="fla-home.svg">
  <defs
     id="defs2" />
  <sodipodi:namedview
     id="base"
     pagecolor="#ffffff"
     bordercolor="#666666"
     borderopacity="1.0"
     inkscape:pageopacity="0.0"
     inkscape:pageshadow="2"
     inkscape:zoom="0.7"
     inkscape:cx="465.57456"
     inkscape:cy="479.72096"
     inkscape:document-units="mm"
     inkscape:current-layer="layer1"
     showgrid="false"
     units="px"
     inkscape:window-width="1920"
     inkscape:window-height="1029"
     inkscape:window-x="1920"
     inkscape:window-y="0"
     inkscape:window-maximized="1"
     inkscape:snap-global="false" />
  <metadata
     id="metadata5">
    <rdf:RDF>
      <cc:Work
         rdf:about="">
        <dc:format>image/svg+xml</dc:format>
        <dc:type
           rdf:resource="http://purl.org/dc/dcmitype/StillImage" />
        <dc:title />
      </cc:Work>
    </rdf:RDF>
  </metadata>
  <g
     inkscape:label="Layer 1"
     inkscape:groupmode="layer"
     id="layer1"
     transform="translate(0,-32.41665)">
    <rect
       style="opacity:1;fill:#c8102e;fill-opacity:1;stroke:none;stroke-width:5.29166651;stroke-linecap:butt;stroke-linejoin:round;stroke-miterlimit:4;stroke-dasharray:none;stroke-opacity:1;paint-order:normal"
       id="rect1094"
       width="271.76486"
       height="274.03271"
       x="-2.6458333"
       y="27.880936" />
    <g
       id="g1092"
       transform="matrix(0.63601142,0,0,0.63219717,-3.3247469,-91.463748)"
       style="stroke-width:1.47200763">
      <path
         style="opacity:1;fill:#b9975b;fill-opacity:1;stroke:#041e42;stroke-width:7.7893734;stroke-linecap:butt;stroke-linejoin:miter;stroke-miterlimit:4;stroke-dasharray:none;stroke-opacity:1"
         d="m 253.62203,419.27528 c 0,0 6.61458,17.57589 8.69344,21.35565 2.07886,3.77977 8.50447,9.44941 7.37052,12.47322 -1.13392,3.02381 -13.23391,7.94863 -19.65476,10.01637 -16.72544,5.38615 -53.48361,26.45833 -56.12944,24.75744 -2.64584,-1.70089 0.18899,-10.01637 2.26785,-11.90625 2.07885,-1.88988 31.74999,-20.5997 34.01784,-22.11161 2.26788,-1.5119 2.83483,-5.48065 0.189,-8.12649 -2.64584,-2.64583 -7.758,-6.92771 -11.53776,-11.27443 -3.77979,-4.34673 -13.21968,-17.82973 -13.21968,-17.82973 l 21.16667,-22.67857 27.97024,7.18154 z"
         id="path1066"
         inkscape:connector-curvature="0"
         sodipodi:nodetypes="ccccccccccccc" />
      <path
         sodipodi:nodetypes="ccccccccccccc"
         inkscape:connector-curvature="0"
         id="path955"
         d="m 253.62203,419.27528 c 0,0 6.61458,17.57589 8.69344,21.35565 2.07886,3.77977 8.50447,9.44941 7.37052,12.47322 -1.13392,3.02381 -13.23391,7.94863 -19.65476,10.01637 -16.72544,5.38615 -53.48361,26.45833 -56.12944,24.75744 -2.64584,-1.70089 0.18899,-10.01637 2.26785,-11.90625 2.07885,-1.88988 31.74999,-20.5997 34.01784,-22.11161 2.26788,-1.5119 2.83483,-5.48065 0.189,-8.12649 -2.64584,-2.64583 -7.758,-6.92771 -11.53776,-11.27443 -3.77979,-4.34673 -13.21968,-17.82973 -13.21968,-17.82973 l 21.16667,-22.67857 27.97024,7.18154 z"
         style="opacity:1;fill:#b9975b;fill-opacity:1;stroke:none;stroke-width:0.38946867px;stroke-linecap:butt;stroke-linejoin:miter;stroke-opacity:1" />
      <path
         style="opacity:1;fill:#b9975b;fill-opacity:1;stroke:#041e42;stroke-width:7.7893734;stroke-linecap:butt;stroke-linejoin:miter;stroke-miterlimit:4;stroke-dasharray:none;stroke-opacity:1"
         d="m 121.33097,430.72325 c 0,0 6.28029,17.57844 9.42043,22.81013 3.14016,5.23168 12.56061,14.0209 12.14192,22.60085 -0.41871,8.57995 -5.44291,14.64869 -7.95506,15.9043 -2.51211,1.2556 -6.89467,0.28739 -8.83254,1.56325 -1.7306,1.13942 -5.44292,6.9058 -2.72146,9.20776 2.72146,2.30192 14.9035,1.15721 18.04365,0.32015 3.14016,-0.83707 10.04847,-7.74289 12.76993,-11.30042 2.72146,-3.55754 7.46728,-10.90703 8.79241,-14.43945 1.88409,-5.02239 2.09346,-21.76377 -13.18861,-52.94458 -15.28207,-31.1808 -28.47067,6.27801 -28.47067,6.27801 z"
         id="path1064"
         inkscape:connector-curvature="0"
         sodipodi:nodetypes="ccccccscssc" />
      <path
         sodipodi:nodetypes="ccccccscssc"
         inkscape:connector-curvature="0"
         id="path953"
         d="m 121.33097,430.72325 c 0,0 6.28029,17.57844 9.42043,22.81013 3.14016,5.23168 12.56061,14.0209 12.14192,22.60085 -0.41871,8.57995 -5.44291,14.64869 -7.95506,15.9043 -2.51211,1.2556 -6.89467,0.28739 -8.83254,1.56325 -1.7306,1.13942 -5.44292,6.9058 -2.72146,9.20776 2.72146,2.30192 14.9035,1.15721 18.04365,0.32015 3.14016,-0.83707 10.04847,-7.74289 12.76993,-11.30042 2.72146,-3.55754 7.46728,-10.90703 8.79241,-14.43945 1.88409,-5.02239 2.09346,-21.76377 -13.18861,-52.94458 -15.28207,-31.1808 -28.47067,6.27801 -28.47067,6.27801 z"
         style="opacity:1;fill:#b9975b;fill-opacity:1;stroke:none;stroke-width:0.38946867px;stroke-linecap:butt;stroke-linejoin:miter;stroke-opacity:1" />
      <path
         style="opacity:1;fill:#b9975b;fill-opacity:1;stroke:#041e42;stroke-width:29.44015312;stroke-linecap:butt;stroke-linejoin:miter;stroke-miterlimit:4;stroke-dasharray:none;stroke-opacity:1"
         d="m 474.87305,1153.1621 c -42.96402,0.039 -98.20247,3.2138 -160.97657,11.7129 L 280,1213.5723 l -31.42773,95 -23.45508,9.2929 c 21.02993,32.1582 70.47329,108.7109 76.03711,126.1973 7.07111,22.2234 13.2035,39.988 27.3457,56.1504 14.14212,16.1624 67.68118,43.4367 155.56445,45.457 87.8832,2.0203 200.0093,-34.345 282.8418,-51.5176 82.8325,-17.1725 106.06567,-14.1429 128.28906,-23.2343 22.22332,-9.0914 101.01563,-92.9336 101.01563,-92.9336 l 132.33006,-47.4785 c 0,0 86.8731,95.9657 193.9492,139.4023 107.0762,43.4365 196.9794,65.6604 225.2637,19.1934 28.2843,-46.4671 8.7067,-156.9083 -52.5273,-142.4317 -69.0533,16.3252 -6.2384,63.0963 4.041,93.9434 8.3032,24.9169 -8.0827,37.3749 -92.9356,12.1211 -84.8528,-25.2538 -189.9087,-103.0353 -224.2539,-148.4922 -34.3452,-45.4568 -115.0503,-104.3354 -188.89841,-131.3184 -105.05586,-38.3857 -183.84673,19.1926 -252.53711,21.2129 -68.69038,2.0203 -151.52278,-22.2246 -173.7461,-32.3262 -10.41721,-4.735 -43.36368,-8.6923 -92.02343,-8.6484 z"
         transform="matrix(0.26458333,0,0,0.26458333,0,32.41665)"
         id="path1068"
         inkscape:connector-curvature="0" />
      <path
         id="path951"
         transform="matrix(0.26458333,0,0,0.26458333,0,32.41665)"
         d="m 474.87305,1153.1621 c -42.96402,0.039 -98.20247,3.2138 -160.97657,11.7129 L 280,1213.5723 l -31.42773,95 -23.45508,9.2929 c 21.02993,32.1582 70.47329,108.7109 76.03711,126.1973 7.07111,22.2234 13.2035,39.988 27.3457,56.1504 14.14212,16.1624 67.68118,43.4367 155.56445,45.457 87.8832,2.0203 200.0093,-34.345 282.8418,-51.5176 82.8325,-17.1725 106.06567,-14.1429 128.28906,-23.2343 22.22332,-9.0914 101.01563,-92.9336 101.01563,-92.9336 l 132.33006,-47.4785 c 0,0 86.8731,95.9657 193.9492,139.4023 107.0762,43.4365 196.9794,65.6604 225.2637,19.1934 28.2843,-46.4671 8.7067,-156.9083 -52.5273,-142.4317 -69.0533,16.3252 -6.2384,63.0963 4.041,93.9434 8.3032,24.9169 -8.0827,37.3749 -92.9356,12.1211 -84.8528,-25.2538 -189.9087,-103.0353 -224.2539,-148.4922 -34.3452,-45.4568 -115.0503,-104.3354 -188.89841,-131.3184 -105.05586,-38.3857 -183.84673,19.1926 -252.53711,21.2129 -68.69038,2.0203 -151.52278,-22.2246 -173.7461,-32.3262 -10.41721,-4.735 -43.36368,-8.6923 -92.02343,-8.6484 z"
         style="opacity:1;fill:#b9975b;fill-opacity:1;stroke:none;stroke-width:1.47200751px;stroke-linecap:butt;stroke-linejoin:miter;stroke-opacity:1"
         inkscape:connector-curvature="0" />
      <path
         id="path1059"
         transform="matrix(0.26458333,0,0,0.26458333,0,32.41665)"
         d="m 344.18359,1035.6035 c -26.47668,0.7033 -64.10407,42.7055 -72.44726,52.3985 -21.65968,-12.0383 -46.68187,-18.8909 -71.97266,-18.7461 -2.1425,0.011 -4.28725,0.076 -6.43164,0.1894 -20.7614,1.101 -40.04475,7.1562 -56.91992,16.9024 -13.79191,-21.1075 -36.525083,-49.7722 -55.492188,-44.0821 -26.893002,8.0678 -21.813071,97.2791 -8.097656,130.7559 -1.799509,7.9093 -2.895639,16.0414 -3.21875,24.3105 -1.736278,44.4509 25.973425,74.4966 44.574214,89.5625 -0.004,0.9625 0.038,1.9551 0.13282,2.9766 1.55958,16.6359 8.98178,24.6692 15.55468,27.7246 7.80352,3.6275 15.11917,5.0265 20.83789,3.4668 0,0 3.63722,10.9169 15.07422,15.5957 11.43719,4.6788 56.14785,0.5183 62.90625,-3.6406 6.75829,-4.159 15.59571,-14.0352 15.59571,-14.0352 0,0 11.16965,-0.4169 20.52734,-5.0957 7.06689,-4.1689 11.55011,-11.4438 14.8457,-27.5156 21.75213,-17.6898 62.67492,-57.8177 57.6836,-106.1953 -0.28687,-2.779 -0.68868,-5.5259 -1.19336,-8.2422 21.0263,-34.1162 43.55751,-120.2057 18.28125,-134.0176 -3.11962,-1.7047 -6.56884,-2.41 -10.24024,-2.3125 z"
         style="opacity:1;fill:#041e42;fill-opacity:1;stroke:#041e42;stroke-width:29.44015312;stroke-linecap:butt;stroke-linejoin:miter;stroke-miterlimit:4;stroke-dasharray:none;stroke-opacity:1"
         inkscape:connector-curvature="0" />
      <path
         inkscape:connector-curvature="0"
         id="path957"
         d="m 91.065342,306.41994 c -7.00529,0.18608 -16.96088,11.29914 -19.16835,13.86374 -5.73079,-3.18513 -12.35125,-4.99819 -19.04277,-4.95988 -0.56687,0.003 -1.13433,0.0201 -1.7017,0.0501 -5.49312,0.2913 -10.59516,1.89343 -15.06005,4.47209 -3.64911,-5.58469 -9.66394,-13.16889 -14.68232,-11.66339 -7.11544,2.13461 -5.77138,25.73843 -2.14251,34.59583 -0.47612,2.09267 -0.76613,4.24429 -0.85162,6.43216 -0.45939,11.76096 6.87213,19.71055 11.79359,23.69674 -0.001,0.25466 0.01,0.51729 0.0351,0.78756 0.41264,4.40158 2.37643,6.52706 4.11551,7.33547 2.06468,0.95977 4.00029,1.32992 5.51337,0.91725 0,0 0.96234,2.88843 3.98838,4.12637 3.02609,1.23793 14.8558,0.13713 16.64396,-0.96325 1.78813,-1.1004 4.12636,-3.71348 4.12636,-3.71348 0,0 2.95529,-0.1103 5.43118,-1.34823 1.86978,-1.10303 3.05596,-3.02784 3.92792,-7.28017 5.75525,-4.68043 16.58274,-15.2976 15.26212,-28.09751 -0.0759,-0.73528 -0.18222,-1.46206 -0.31575,-2.18075 5.56321,-9.02658 11.524608,-31.80442 4.83693,-35.45882 -0.8254,-0.45104 -1.738,-0.63765 -2.70939,-0.61185 z m -1.49243,4.15015 1.87068,3.34087 -2.93987,0.13385 1.60354,4.54337 -4.1424,0.53486 2.53886,5.21157 -4.9444,0.53433 1.73736,5.74643 c -2.4054,-3.74176 -8.95344,-8.15144 -8.95344,-8.15144 0,0 6.14703,-8.28569 13.22967,-11.89384 z m -67.0972,0.92138 c 6.14124,3.33918 11.35176,10.77093 11.35176,10.77093 0,0 -5.85745,4.52839 -8.05841,7.76385 l 1.66037,-5.81618 -4.33359,-0.58549 2.35283,-4.5253 -3.62873,-0.5669 1.51463,-3.95944 -2.58071,-0.18655 z m 54.91655,25.16074 h 5.3e-4 0.001 c 0.27077,-0.007 0.54533,-0.007 0.82476,0 -1.15872,0.13166 -2.23586,0.35494 -3.23961,0.65524 -0.0803,0.53652 -1.16497,7.58034 -2.97657,8.77054 -1.69243,1.11194 -6.69488,1.28363 -7.73491,1.30895 -3.18582,7.29623 -2.6603,15.5789 -2.6603,15.5789 -6.77585,2.97728 -8.62738,5.31318 -9.72397,6.55413 0.16526,1.53294 0.33195,3.73981 0.13851,5.3299 0.0707,0.31988 0.16865,0.59333 0.3116,0.78393 1.16713,1.5562 7.68377,3.45303 7.68377,3.45303 2e-5,0 -6.96238,-0.81183 -8.51731,-2.60036 -1.41642,1.82772 -7.62125,3.47576 -7.62125,3.47576 0,0 5.54408,-2.67457 6.71121,-4.23074 0.81264,-1.08503 0.35214,-4.54774 -0.003,-6.56551 -3.2707,-3.72978 -10.85152,-4.41214 -10.85152,-4.41214 0,0 0.4431,-8.99149 -2.84636,-16.88062 -2.36553,-0.41352 -7.79211,-1.46172 -8.46666,-2.51405 -0.81997,-1.2791 -0.21506,-6.88549 -0.15606,-7.41455 -0.70707,-0.34983 -1.45473,-0.65625 -2.25102,-0.90691 0,0 14.68305,-0.48183 15.09572,26.75289 l 19.11975,-1.37512 c 0,0 0.10237,-25.36425 17.16175,-25.76327 z"
         style="opacity:1;fill:#b9975b;fill-opacity:1;stroke:none;stroke-width:0.38946867px;stroke-linecap:butt;stroke-linejoin:miter;stroke-opacity:1" />
      <path
         style="opacity:1;fill:#b9975b;fill-opacity:1;stroke:#041e42;stroke-width:7.7893734;stroke-linecap:butt;stroke-linejoin:miter;stroke-miterlimit:4;stroke-dasharray:none;stroke-opacity:1"
         d="m 144.37861,384.17929 c 0,0 3.47451,29.93419 -4.81086,46.23763 -8.28535,16.30344 -67.08466,68.421 -82.58628,74.03366 -15.50164,5.61266 -37.685,3.20723 -39.02135,1.06907 -1.33634,-2.13815 1.33635,-9.88897 6.41447,-12.82893 5.07813,-2.93997 18.44159,-1.87089 26.1924,-6.1472 7.75084,-4.27631 19.77795,-28.33057 43.56495,-57.73022 0,0 -9.88897,-26.99422 14.9671,-52.38482 z"
         id="path1070"
         inkscape:connector-curvature="0" />
      <path
         inkscape:connector-curvature="0"
         id="path947"
         d="m 144.37861,384.17929 c 0,0 3.47451,29.93419 -4.81086,46.23763 -8.28535,16.30344 -67.08466,68.421 -82.58628,74.03366 -15.50164,5.61266 -37.685,3.20723 -39.02135,1.06907 -1.33634,-2.13815 1.33635,-9.88897 6.41447,-12.82893 5.07813,-2.93997 18.44159,-1.87089 26.1924,-6.1472 7.75084,-4.27631 19.77795,-28.33057 43.56495,-57.73022 0,0 -9.88897,-26.99422 14.9671,-52.38482 z"
         style="opacity:1;fill:#b9975b;fill-opacity:1;stroke:none;stroke-width:0.38946867px;stroke-linecap:butt;stroke-linejoin:miter;stroke-opacity:1" />
      <path
         style="opacity:1;fill:#b9975b;fill-opacity:1;stroke:#041e42;stroke-width:7.7893734;stroke-linecap:butt;stroke-linejoin:miter;stroke-miterlimit:4;stroke-dasharray:none;stroke-opacity:1"
         d="m 229.63757,388.18833 c 0,0 1.60364,18.4416 26.45969,41.15951 24.85607,22.71791 41.96133,19.77794 45.16855,29.39965 3.20725,9.6217 -9.35442,26.45968 -12.02711,27.52876 -2.67271,1.06908 -8.55263,-0.26727 -10.42352,1.33635 -1.8709,1.60362 -5.07813,6.68173 -2.93998,8.55262 2.13818,1.87089 15.50165,2.6727 20.84703,0.26727 5.3454,-2.40542 34.55783,-30.42689 33.67598,-42.49585 -0.53455,-9.08717 -5.4235,-5.37206 -14.43257,-18.97614 -4.5051,-6.8029 -2.93996,-17.90706 -5.34538,-29.39965 -4.70147,-22.46267 -17.6398,-37.15046 -17.6398,-37.15046 l -48.37578,-17.90706 z"
         id="path1072"
         inkscape:connector-curvature="0"
         sodipodi:nodetypes="csccccccssccc" />
      <path
         sodipodi:nodetypes="csccccccssccc"
         inkscape:connector-curvature="0"
         id="path949"
         d="m 229.63757,388.18833 c 0,0 1.60364,18.4416 26.45969,41.15951 24.85607,22.71791 41.96133,19.77794 45.16855,29.39965 3.20725,9.6217 -9.35442,26.45968 -12.02711,27.52876 -2.67271,1.06908 -8.55263,-0.26727 -10.42352,1.33635 -1.8709,1.60362 -5.07813,6.68173 -2.93998,8.55262 2.13818,1.87089 15.50165,2.6727 20.84703,0.26727 5.3454,-2.40542 34.55783,-30.42689 33.67598,-42.49585 -0.53455,-9.08717 -5.4235,-5.37206 -14.43257,-18.97614 -4.5051,-6.8029 -2.93996,-17.90706 -5.34538,-29.39965 -4.70147,-22.46267 -17.6398,-37.15046 -17.6398,-37.15046 l -48.37578,-17.90706 z"
         style="opacity:1;fill:#b9975b;fill-opacity:1;stroke:none;stroke-width:0.38946867px;stroke-linecap:butt;stroke-linejoin:miter;stroke-opacity:1" />
      <path
         inkscape:connector-curvature="0"
         id="path1074"
         d="m 93.927082,382.04463 12.662198,9.44941 31.37203,28.72618 15.68601,5.10268 13.04018,-59.90924 -65.95685,-6.42559 z"
         style="fill:#b9975b;fill-opacity:1;stroke:none;stroke-width:0.38946867px;stroke-linecap:butt;stroke-linejoin:miter;stroke-opacity:1" />
      <path
         inkscape:connector-curvature="0"
         id="path1076"
         d="m 233.96726,415.4955 13.41815,-9.26041 54.23959,-16.81994 10.58333,-3.59076 -15.68601,-22.1116 -55.18452,-20.9777 -17.76489,48.19197 z"
         style="fill:#b9975b;fill-opacity:1;stroke:none;stroke-width:0.38946867px;stroke-linecap:butt;stroke-linejoin:miter;stroke-opacity:1" />
    </g>
    <g
       aria-label="FLORIDA"
       transform="matrix(0.54292576,-0.07255615,0.07255615,0.54292576,-115.65664,90.316366)"
       style="font-style:normal;font-variant:normal;font-weight:normal;font-stretch:normal;font-size:40px;line-height:1.25;font-family:'New Athletic M54';-inkscape-font-specification:'New Athletic M54';letter-spacing:0px;word-spacing:0px;fill:#041e42;fill-opacity:1;stroke:none"
       id="flowRoot1096">
      <path
         d="m 326.05664,138.56302 h -7.57812 v 6.83594 h 6.34765 q 1.38672,0 1.38672,1.40625 v 2.87109 q 0,1.40625 -1.38672,1.40625 h -6.34765 v 11.09375 q 0,1.40625 -1.40625,1.40625 h -2.8711 q -1.40625,0 -1.40625,-1.40625 v -23.86719 q 0,-2.22656 1.58203,-3.80859 1.58203,-1.60156 3.82813,-1.60156 h 7.85156 q 1.40625,0 1.40625,1.40625 v 2.87109 q 0,1.38672 -1.40625,1.38672 z"
         style=""
         id="path853" />
      <path
         d="m 342.87305,163.58255 h -7.2461 q -2.22656,0 -3.82812,-1.58203 -1.58203,-1.58203 -1.58203,-3.80859 v -23.88672 q 0,-1.40625 1.40625,-1.40625 h 2.87109 q 1.40625,0 1.40625,1.40625 v 23.61328 h 6.97266 q 1.38672,0 1.38672,1.40625 v 2.85156 q 0,1.40625 -1.38672,1.40625 z"
         style=""
         id="path855" />
      <path
         d="m 359.14258,163.58255 h -6.46485 q -2.26562,0 -3.96484,-1.67969 -1.69922,-1.67968 -1.69922,-3.94531 v -19.41406 q 0,-2.2461 1.69922,-3.94531 1.71875,-1.69922 3.96484,-1.69922 h 6.44532 q 2.24609,0 3.96484,1.69922 1.73828,1.69921 1.73828,3.96484 v 19.375 q 0,2.26562 -1.73828,3.96484 -1.71875,1.67969 -3.94531,1.67969 z m 0,-5.66406 v -19.35547 h -6.46485 v 19.35547 z"
         style=""
         id="path857" />
      <path
         d="m 383.77148,163.58255 h -3.0664 q -0.9375,0 -1.28906,-0.89844 l -4.49219,-11.60156 h -1.67969 v 11.09375 q 0,1.40625 -1.40625,1.40625 h -2.87109 q -1.40625,0 -1.40625,-1.40625 v -27.87109 q 0,-1.40625 1.40625,-1.40625 h 9.98047 q 2.24609,0 3.98437,1.71875 1.73828,1.69922 1.73828,3.96484 v 6.79688 q 0,1.79687 -1.11328,3.26171 -1.11328,1.46485 -2.73437,2.07032 l 4.25781,10.95703 q 0.27344,0.72265 -0.13672,1.30859 -0.42969,0.60547 -1.17188,0.60547 z m -4.78515,-18.18359 v -6.83594 h -5.74219 v 6.83594 z"
         style=""
         id="path859" />
      <path
         d="m 392.38477,163.58255 h -2.8711 q -1.40625,0 -1.40625,-1.40625 v -27.87109 q 0,-1.40625 1.40625,-1.40625 h 2.8711 q 1.40625,0 1.40625,1.40625 v 27.87109 q 0,1.40625 -1.40625,1.40625 z"
         style=""
         id="path861" />
      <path
         d="m 414.16211,138.58255 v 19.31641 q 0,2.28515 -1.73828,3.98437 -1.73828,1.69922 -3.96485,1.69922 h -10.50781 q -1.40625,0 -1.40625,-1.40625 v -27.87109 q 0,-1.40625 1.40625,-1.40625 h 10.48828 q 2.2461,0 3.98438,1.71875 1.73828,1.71875 1.73828,3.96484 z m -5.66406,19.33594 v -19.35547 h -6.26953 v 19.35547 z"
         style=""
         id="path863" />
      <path
         d="m 430.17773,162.44974 -1.13281,-5.70313 h -5.9375 l -1.13281,5.70313 q -0.23438,1.13281 -1.38672,1.13281 h -2.91016 q -0.68359,0 -1.09375,-0.50781 -0.42968,-0.48828 -0.29296,-1.17188 l 5.58593,-27.87109 q 0.21485,-1.13281 1.36719,-1.13281 h 5.66406 q 1.15235,0 1.38672,1.13281 l 5.56641,27.87109 q 0.11719,0.6836 -0.29297,1.17188 -0.42969,0.50781 -1.07422,0.50781 h -2.92969 q -1.17187,0 -1.38672,-1.13281 z m -2.26562,-11.36719 -1.83594,-9.17969 -1.83594,9.17969 z"
         style=""
         id="path865" />
    </g>
    <g
       aria-label="PANTHERS"
       transform="matrix(0.54292576,-0.07255615,0.07255615,0.54292576,-87.323295,107.42496)"
       style="font-style:normal;font-variant:normal;font-weight:normal;font-stretch:normal;font-size:40px;line-height:1.25;font-family:'New Athletic M54';-inkscape-font-specification:'New Athletic M54';letter-spacing:0px;word-spacing:0px;fill:#041e42;fill-opacity:1;stroke:none"
       id="flowRoot1110">
      <path
         d="m 324.16211,153.17239 h -5.70313 v 9.00391 q 0,1.40625 -1.38671,1.40625 h -2.8711 q -1.40625,0 -1.40625,-1.40625 v -27.87109 q 0,-1.40625 1.40625,-1.40625 h 9.98047 q 2.22656,0 3.96484,1.71875 1.73829,1.69922 1.73829,3.96484 v 8.90625 q 0,2.28516 -1.73829,3.98438 -1.73828,1.69921 -3.98437,1.69921 z m 0.0586,-5.66406 v -8.94531 h -5.76172 v 8.94531 z"
         style=""
         id="path836" />
      <path
         d="m 343.38086,162.44974 -1.13281,-5.70313 h -5.9375 l -1.13282,5.70313 q -0.23437,1.13281 -1.38671,1.13281 h -2.91016 q -0.68359,0 -1.09375,-0.50781 -0.42969,-0.48828 -0.29297,-1.17188 l 5.58594,-27.87109 q 0.21484,-1.13281 1.36719,-1.13281 h 5.66406 q 1.15234,0 1.38672,1.13281 l 5.5664,27.87109 q 0.11719,0.6836 -0.29297,1.17188 -0.42968,0.50781 -1.07421,0.50781 h -2.92969 q -1.17188,0 -1.38672,-1.13281 z m -2.26563,-11.36719 -1.83593,-9.17969 -1.83594,9.17969 z"
         style=""
         id="path838" />
      <path
         d="m 363.41992,162.68411 -5.83984,-15.17578 v 14.66797 q 0,1.40625 -1.40625,1.40625 h -2.83203 q -1.40625,0 -1.40625,-1.40625 v -27.87109 q 0,-1.40625 1.40625,-1.40625 h 3.71093 q 0.9375,0 1.3086,0.89843 l 5.85937,15.19532 v -14.6875 q 0,-1.40625 1.40625,-1.40625 h 2.8125 q 1.40625,0 1.40625,1.40625 v 27.85156 q 0,1.38672 -1.38672,1.38672 l -3.71093,0.0195 q -0.97657,0.0195 -1.32813,-0.87891 z"
         style=""
         id="path840" />
      <path
         d="m 388.08789,138.56302 h -4.21875 v 23.61328 q 0,1.40625 -1.40625,1.40625 h -2.87109 q -1.40625,0 -1.40625,-1.40625 v -23.61328 h -4.21875 q -1.40625,0 -1.40625,-1.38672 v -2.87109 q 0,-1.40625 1.40625,-1.40625 h 14.12109 q 1.40625,0 1.40625,1.40625 v 2.87109 q 0,1.38672 -1.40625,1.38672 z"
         style=""
         id="path842" />
      <path
         d="m 408.61523,163.58255 h -2.87109 q -1.40625,0 -1.40625,-1.40625 v -11.09375 h -6.42578 v 11.09375 q 0,1.40625 -1.38672,1.40625 h -2.89062 q -1.38672,0 -1.38672,-1.40625 v -27.87109 q 0,-1.40625 1.38672,-1.40625 h 2.89062 q 1.38672,0 1.38672,1.40625 v 11.09375 h 6.42578 v -11.09375 q 0,-1.40625 1.40625,-1.40625 h 2.87109 q 1.38672,0 1.38672,1.40625 v 27.87109 q 0,1.40625 -1.38672,1.40625 z"
         style=""
         id="path844" />
      <path
         d="m 426.0957,163.58255 h -7.98828 q -2.22656,0 -3.80859,-1.58203 -1.58203,-1.58203 -1.58203,-3.80859 v -23.88672 q 0,-1.40625 1.40625,-1.40625 h 11.85547 q 1.40625,0 1.40625,1.40625 v 2.87109 q 0,1.38672 -1.40625,1.38672 h -7.59766 v 6.83594 h 6.34766 q 1.40625,0 1.40625,1.40625 v 2.87109 q 0,1.40625 -1.40625,1.40625 h -6.34766 v 6.83594 h 7.71484 q 1.40625,0 1.40625,1.40625 v 2.85156 q 0,1.40625 -1.40625,1.40625 z"
         style=""
         id="path846" />
      <path
         d="m 446.42773,163.58255 h -3.0664 q -0.9375,0 -1.28906,-0.89844 l -4.49219,-11.60156 h -1.67969 v 11.09375 q 0,1.40625 -1.40625,1.40625 h -2.87109 q -1.40625,0 -1.40625,-1.40625 v -27.87109 q 0,-1.40625 1.40625,-1.40625 h 9.98047 q 2.24609,0 3.98437,1.71875 1.73828,1.69922 1.73828,3.96484 v 6.79688 q 0,1.79687 -1.11328,3.26171 -1.11328,1.46485 -2.73437,2.07032 l 4.25781,10.95703 q 0.27344,0.72265 -0.13672,1.30859 -0.42969,0.60547 -1.17188,0.60547 z m -4.78515,-18.18359 v -6.83594 h -5.74219 v 6.83594 z"
         style=""
         id="path848" />
      <path
         d="m 462.15039,163.58255 h -5.70312 q -2.26563,0 -3.98438,-1.67969 -1.69922,-1.69922 -1.69922,-3.98437 v -1.07422 q 0,-1.40625 1.38672,-1.40625 h 2.87109 q 1.40625,0 1.40625,1.40625 v 1.07422 h 5.72266 v -6.83594 h -5.70312 q -2.26563,0 -3.98438,-1.69922 -1.69922,-1.69922 -1.69922,-3.96484 v -6.85547 q 0,-2.24609 1.69922,-3.94531 1.71875,-1.71875 3.98438,-1.71875 h 5.70312 q 2.24609,0 3.94531,1.69922 1.71875,1.69921 1.71875,3.94531 v 0.9375 q 0,1.38672 -1.38672,1.38672 h -2.87109 q -1.40625,0 -1.40625,-1.38672 v -0.91797 h -5.72266 v 6.83594 h 5.72266 q 2.24609,0 3.94531,1.69922 1.71875,1.69921 1.71875,3.94531 v 6.89453 q 0,2.28516 -1.71875,3.96484 -1.69922,1.67969 -3.94531,1.67969 z"
         style=""
         id="path850" />
    </g>
  </g>
</svg>
