<?xml version="1.0" encoding="UTF-8" standalone="no"?>
<!-- Created with Inkscape (http://www.inkscape.org/) -->

<svg
   xmlns:dc="http://purl.org/dc/elements/1.1/"
   xmlns:cc="http://creativecommons.org/ns#"
   xmlns:rdf="http://www.w3.org/1999/02/22-rdf-syntax-ns#"
   xmlns:svg="http://www.w3.org/2000/svg"
   xmlns="http://www.w3.org/2000/svg"
   xmlns:sodipodi="http://sodipodi.sourceforge.net/DTD/sodipodi-0.dtd"
   xmlns:inkscape="http://www.inkscape.org/namespaces/inkscape"
   width="1000"
   height="1000"
   viewBox="0 0 264.58333 264.58334"
   version="1.1"
   id="svg8"
   inkscape:version="0.92.3 (2405546, 2018-03-11)"
   sodipodi:docname="fla-road.svg">
  <defs
     id="defs2" />
  <sodipodi:namedview
     id="base"
     pagecolor="#ffffff"
     bordercolor="#666666"
     borderopacity="1.0"
     inkscape:pageopacity="0.0"
     inkscape:pageshadow="2"
     inkscape:zoom="0.49497475"
     inkscape:cx="107.97712"
     inkscape:cy="528.39616"
     inkscape:document-units="mm"
     inkscape:current-layer="layer1"
     showgrid="false"
     units="px"
     inkscape:window-width="1920"
     inkscape:window-height="1029"
     inkscape:window-x="1920"
     inkscape:window-y="0"
     inkscape:window-maximized="1"
     inkscape:snap-global="false" />
  <metadata
     id="metadata5">
    <rdf:RDF>
      <cc:Work
         rdf:about="">
        <dc:format>image/svg+xml</dc:format>
        <dc:type
           rdf:resource="http://purl.org/dc/dcmitype/StillImage" />
        <dc:title />
      </cc:Work>
    </rdf:RDF>
  </metadata>
  <g
     inkscape:label="Layer 1"
     inkscape:groupmode="layer"
     id="layer1"
     transform="translate(0,-32.41665)">
    <rect
       style="opacity:1;fill:#ffffff;fill-opacity:1;stroke:none;stroke-width:5.29166651;stroke-linecap:butt;stroke-linejoin:round;stroke-miterlimit:4;stroke-dasharray:none;stroke-opacity:1;paint-order:normal"
       id="rect1094"
       width="271.76486"
       height="274.03271"
       x="-2.6458333"
       y="27.880936" />
    <path
       sodipodi:nodetypes="ccccccccccccc"
       inkscape:connector-curvature="0"
       id="path1066"
       d="m 157.98176,173.6009 c 0,0 4.20695,11.11143 5.52913,13.50098 1.32218,2.38956 5.40894,5.97389 4.68773,7.88553 -0.72118,1.91165 -8.41692,5.0251 -12.50065,6.33232 -10.63757,3.40511 -34.01619,16.72689 -35.69896,15.65159 -1.68279,-1.0753 0.1202,-6.33232 1.44237,-7.5271 1.32218,-1.19478 20.19336,-13.02307 21.63574,-13.9789 1.4424,-0.95582 1.80298,-3.46485 0.12021,-5.13754 -1.68279,-1.67269 -4.93418,-4.37968 -7.33815,-7.12766 -2.40399,-2.74799 -8.40787,-11.27191 -8.40787,-11.27191 l 13.46224,-14.33733 17.7894,4.54015 z"
       style="opacity:1;fill:#b9975b;fill-opacity:1;stroke:#b9975b;stroke-width:4.93925285;stroke-linecap:butt;stroke-linejoin:miter;stroke-miterlimit:4;stroke-dasharray:none;stroke-opacity:1" />
    <path
       style="opacity:1;fill:#c8102e;fill-opacity:1;stroke:none;stroke-width:0.24696264px;stroke-linecap:butt;stroke-linejoin:miter;stroke-opacity:1"
       d="m 157.98176,173.6009 c 0,0 4.20695,11.11143 5.52913,13.50098 1.32218,2.38956 5.40894,5.97389 4.68773,7.88553 -0.72118,1.91165 -8.41692,5.0251 -12.50065,6.33232 -10.63757,3.40511 -34.01619,16.72689 -35.69896,15.65159 -1.68279,-1.0753 0.1202,-6.33232 1.44237,-7.5271 1.32218,-1.19478 20.19336,-13.02307 21.63574,-13.9789 1.4424,-0.95582 1.80298,-3.46485 0.12021,-5.13754 -1.68279,-1.67269 -4.93418,-4.37968 -7.33815,-7.12766 -2.40399,-2.74799 -8.40787,-11.27191 -8.40787,-11.27191 l 13.46224,-14.33733 17.7894,4.54015 z"
       id="path955"
       inkscape:connector-curvature="0"
       sodipodi:nodetypes="ccccccccccccc" />
    <path
       sodipodi:nodetypes="ccccccscssc"
       inkscape:connector-curvature="0"
       id="path1064"
       d="m 73.843136,180.83827 c 0,0 3.994336,11.11304 5.991501,14.4205 1.997177,3.30745 7.988691,8.86397 7.722399,14.28819 -0.266304,5.42422 -3.461752,9.26087 -5.059509,10.05466 -1.59773,0.79378 -4.385088,0.18169 -5.617596,0.98828 -1.100681,0.72034 -3.461759,4.36583 -1.730879,5.82112 1.730879,1.45527 9.478796,0.73159 11.475967,0.2024 1.997178,-0.5292 6.390942,-4.89503 8.121821,-7.1441 1.73088,-2.24906 4.749276,-6.89539 5.59207,-9.12857 1.19831,-3.17515 1.33147,-13.759 -8.388103,-33.47142 -9.719571,-19.71241 -18.107671,3.96894 -18.107671,3.96894 z"
       style="opacity:1;fill:#b9975b;fill-opacity:1;stroke:#b9975b;stroke-width:4.93925285;stroke-linecap:butt;stroke-linejoin:miter;stroke-miterlimit:4;stroke-dasharray:none;stroke-opacity:1" />
    <path
       style="opacity:1;fill:#c8102e;fill-opacity:1;stroke:none;stroke-width:0.24696264px;stroke-linecap:butt;stroke-linejoin:miter;stroke-opacity:1"
       d="m 73.843136,180.83827 c 0,0 3.994336,11.11304 5.991501,14.4205 1.997177,3.30745 7.988691,8.86397 7.722399,14.28819 -0.266304,5.42422 -3.461752,9.26087 -5.059509,10.05466 -1.59773,0.79378 -4.385088,0.18169 -5.617596,0.98828 -1.100681,0.72034 -3.461759,4.36583 -1.730879,5.82112 1.730879,1.45527 9.478796,0.73159 11.475967,0.2024 1.997178,-0.5292 6.390942,-4.89503 8.121821,-7.1441 1.73088,-2.24906 4.749276,-6.89539 5.59207,-9.12857 1.19831,-3.17515 1.33147,-13.759 -8.388103,-33.47142 -9.719571,-19.71241 -18.107671,3.96894 -18.107671,3.96894 z"
       id="path953"
       inkscape:connector-curvature="0"
       sodipodi:nodetypes="ccccccscssc" />
    <path
       inkscape:connector-curvature="0"
       id="path1068"
       d="m 76.58595,121.91804 c -7.229901,0.007 -16.525318,0.53757 -27.088819,1.9592 l -5.704032,8.14554 -5.288596,15.89054 -3.946975,1.55442 c 3.538875,5.37906 11.859106,18.18394 12.795374,21.10887 1.189913,3.71728 2.221859,6.68875 4.601681,9.39221 2.379808,2.70347 11.389255,7.26561 26.178077,7.60354 14.788811,0.33793 33.65717,-5.74485 47.59606,-8.61729 13.93889,-2.87242 17.84852,-2.36566 21.58823,-3.88637 3.73969,-1.52071 16.99871,-15.5449 16.99871,-15.5449 l 22.26824,-7.94167 c 0,0 14.61883,16.05207 32.63739,23.31766 18.01857,7.26557 33.1473,10.98294 37.90692,3.21046 4.75963,-7.7725 1.46515,-26.24587 -8.83919,-23.82439 -11.62015,2.7307 -1.04978,10.55405 0.68002,15.71381 1.39724,4.16782 -1.36014,6.25165 -15.63902,2.02748 -14.27886,-4.22417 -31.95746,-17.23459 -37.737,-24.83812 -5.77955,-7.6035 -19.36044,-17.45206 -31.78746,-21.96547 -17.67859,-6.42073 -30.93736,3.21032 -42.49644,3.54825 -11.55908,0.33794 -25.497953,-3.71748 -29.23765,-5.40716 -1.752987,-0.79202 -7.297154,-1.45395 -15.48552,-1.44661 z"
       style="opacity:1;fill:#b9975b;fill-opacity:1;stroke:#b9975b;stroke-width:4.93925285;stroke-linecap:butt;stroke-linejoin:miter;stroke-miterlimit:4;stroke-dasharray:none;stroke-opacity:1" />
    <path
       inkscape:connector-curvature="0"
       style="opacity:1;fill:#c8102e;fill-opacity:1;stroke:none;stroke-width:0.24696262px;stroke-linecap:butt;stroke-linejoin:miter;stroke-opacity:1"
       d="m 76.58595,121.91804 c -7.229901,0.007 -16.525318,0.53757 -27.088819,1.9592 l -5.704032,8.14554 -5.288596,15.89054 -3.946975,1.55442 c 3.538875,5.37906 11.859106,18.18394 12.795374,21.10887 1.189913,3.71728 2.221859,6.68875 4.601681,9.39221 2.379808,2.70347 11.389255,7.26561 26.178077,7.60354 14.788811,0.33793 33.65717,-5.74485 47.59606,-8.61729 13.93889,-2.87242 17.84852,-2.36566 21.58823,-3.88637 3.73969,-1.52071 16.99871,-15.5449 16.99871,-15.5449 l 22.26824,-7.94167 c 0,0 14.61883,16.05207 32.63739,23.31766 18.01857,7.26557 33.1473,10.98294 37.90692,3.21046 4.75963,-7.7725 1.46515,-26.24587 -8.83919,-23.82439 -11.62015,2.7307 -1.04978,10.55405 0.68002,15.71381 1.39724,4.16782 -1.36014,6.25165 -15.63902,2.02748 -14.27886,-4.22417 -31.95746,-17.23459 -37.737,-24.83812 -5.77955,-7.6035 -19.36044,-17.45206 -31.78746,-21.96547 -17.67859,-6.42073 -30.93736,3.21032 -42.49644,3.54825 -11.55908,0.33794 -25.497953,-3.71748 -29.23765,-5.40716 -1.752987,-0.79202 -7.297154,-1.45395 -15.48552,-1.44661 z"
       id="path951" />
    <path
       inkscape:connector-curvature="0"
       style="opacity:1;fill:#b9975b;fill-opacity:1;stroke:#b9975b;stroke-width:4.93925285;stroke-linecap:butt;stroke-linejoin:miter;stroke-miterlimit:4;stroke-dasharray:none;stroke-opacity:1"
       d="m 54.593786,102.25415 c -4.455443,0.11764 -10.787306,7.1433 -12.191281,8.76464 -3.644848,-2.01363 -7.855533,-3.15986 -12.111417,-3.13564 -0.360536,0.002 -0.72145,0.0127 -1.082304,0.0317 -3.493687,0.18416 -6.738651,1.19701 -9.578371,2.82724 -2.320875,-3.53062 -6.146369,-8.32533 -9.338116,-7.37356 -4.5255008,1.34949 -3.67066,16.27176 -1.3626572,21.87139 -0.3028178,1.32298 -0.4872724,2.68323 -0.5416448,4.06639 -0.2921775,7.43525 4.370756,12.46096 7.50086,14.98101 -6.73e-4,0.161 0.0064,0.32703 0.02235,0.4979 0.262443,2.78266 1.511436,4.12638 2.617511,4.63746 1.313161,0.60676 2.544224,0.84077 3.506559,0.57988 0,0 0.612064,1.82606 2.53666,2.60868 1.924627,0.78262 9.448449,0.0867 10.585739,-0.60896 1.137271,-0.69567 2.624415,-2.34765 2.624415,-2.34765 0,0 1.879607,-0.0697 3.4543,-0.85235 1.189202,-0.69733 1.94363,-1.91419 2.498205,-4.60251 3.660406,-2.95895 10.546812,-9.67109 9.706882,-17.76316 -0.04827,-0.46484 -0.11589,-0.92431 -0.200816,-1.37866 3.538264,-5.70658 7.329771,-20.10667 3.076332,-22.41697 -0.524963,-0.28514 -1.105391,-0.40312 -1.723207,-0.38681 z"
       id="path1059" />
    <path
       style="opacity:1;fill:#c8102e;fill-opacity:1;stroke:none;stroke-width:0.24696264px;stroke-linecap:butt;stroke-linejoin:miter;stroke-opacity:1"
       d="m 54.593851,102.25407 c -4.455445,0.11764 -10.787314,7.14329 -12.19129,8.76462 -3.644848,-2.01363 -7.855536,-3.15984 -12.111419,-3.13562 -0.360536,0.002 -0.721447,0.0127 -1.082301,0.0317 -3.493687,0.18416 -6.738643,1.19702 -9.578364,2.82724 -2.320875,-3.53062 -6.146376,-8.32533 -9.338123,-7.37356 -4.5255008,1.34949 -3.6706633,16.27176 -1.3626606,21.87139 -0.3028177,1.32298 -0.4872674,2.68322 -0.54164,4.06639 -0.2921773,7.43524 4.3707536,12.46095 7.5008576,14.98101 -6.36e-4,0.161 0.0064,0.32703 0.02232,0.49789 0.262444,2.78267 1.511437,4.12639 2.617512,4.63747 1.31316,0.60676 2.54423,0.84077 3.506566,0.57988 0,0 0.612059,1.82606 2.536655,2.60868 1.924628,0.78262 9.448459,0.0867 10.585749,-0.60896 1.137271,-0.69567 2.624412,-2.34766 2.624412,-2.34766 0,0 1.879598,-0.0697 3.454292,-0.85234 1.189202,-0.69734 1.943626,-1.91419 2.498202,-4.60251 3.660405,-2.95895 10.546812,-9.6711 9.706883,-17.76316 -0.04827,-0.46484 -0.115894,-0.92431 -0.200821,-1.37867 3.538265,-5.70657 7.329783,-20.10666 3.076343,-22.41696 -0.524964,-0.28515 -1.105388,-0.40312 -1.723203,-0.38681 z m -0.949203,2.62371 1.189774,2.11209 -1.869791,0.0846 1.01987,2.87231 -2.634614,0.33813 1.614744,3.29474 -3.144695,0.33781 1.104981,3.63287 c -1.529862,-2.36553 -5.69449,-5.15331 -5.69449,-5.15331 0,0 3.909581,-5.23819 8.414221,-7.51926 z m -42.674585,0.5825 c 3.905898,2.11102 7.219849,6.80935 7.219849,6.80935 0,0 -3.725405,2.86283 -5.125241,4.90828 l 1.056014,-3.67697 -2.756213,-0.37014 1.496427,-2.86089 -2.307914,-0.35839 0.963322,-2.50315 -1.6413607,-0.11793 z m 34.927553,15.90655 h 3.37e-4 6.36e-4 c 0.172212,-0.004 0.346836,-0.004 0.524556,0 -0.736959,0.0832 -1.422032,0.22439 -2.060429,0.41424 -0.05107,0.33918 -0.740934,4.79227 -1.893132,5.54471 -1.076405,0.70296 -4.25802,0.81151 -4.919491,0.82751 -2.026218,4.61266 -1.691981,9.84894 -1.691981,9.84894 -4.309518,1.88223 -5.487113,3.35898 -6.184556,4.1435 0.105107,0.96912 0.211124,2.3643 0.08809,3.36955 0.04497,0.20223 0.107263,0.3751 0.198181,0.4956 0.742308,0.98382 4.886965,2.18299 4.886965,2.18299 1.3e-5,0 -4.428153,-0.51323 -5.417106,-1.64394 -0.900859,1.15548 -4.847202,2.19737 -4.847202,2.19737 0,0 3.526098,-1.69086 4.268406,-2.67466 0.516848,-0.68596 0.223965,-2.87507 -0.0019,-4.1507 -2.080203,-2.35796 -6.901691,-2.78934 -6.901691,-2.78934 0,0 0.281817,-5.6844 -1.810317,-10.67188 -1.504504,-0.26143 -4.955871,-0.9241 -5.384893,-1.58938 -0.52151,-0.80864 -0.13678,-4.35299 -0.09926,-4.68746 -0.449704,-0.22116 -0.925224,-0.41488 -1.431674,-0.57334 0,0 9.338588,-0.30461 9.60105,16.9131 l 12.16038,-0.86935 c 0,0 0.06511,-16.0352 10.915069,-16.28746 z"
       id="path957"
       inkscape:connector-curvature="0" />
    <path
       inkscape:connector-curvature="0"
       id="path1070"
       d="m 88.501698,151.41331 c 0,0 2.209828,18.92431 -3.059762,29.2313 -5.269577,10.30699 -42.66661,43.25556 -52.525817,46.80387 -9.85922,3.54831 -23.9680906,2.0276 -24.8180245,0.67586 -0.8499275,-1.35173 0.8499339,-6.25177 4.0796765,-8.11041 3.229748,-1.85864 11.729062,-1.18277 16.658665,-3.88624 4.929623,-2.70347 12.579002,-17.91051 27.707806,-36.49688 0,0 -6.289498,-17.06567 9.519246,-33.11754 z"
       style="opacity:1;fill:#b9975b;fill-opacity:1;stroke:#b9975b;stroke-width:4.93925285;stroke-linecap:butt;stroke-linejoin:miter;stroke-miterlimit:4;stroke-dasharray:none;stroke-opacity:1" />
    <path
       style="opacity:1;fill:#c8102e;fill-opacity:1;stroke:none;stroke-width:0.24696264px;stroke-linecap:butt;stroke-linejoin:miter;stroke-opacity:1"
       d="m 88.501698,151.41331 c 0,0 2.209828,18.92431 -3.059762,29.2313 -5.269577,10.30699 -42.66661,43.25556 -52.525817,46.80387 -9.85922,3.54831 -23.9680906,2.0276 -24.8180245,0.67586 -0.8499275,-1.35173 0.8499339,-6.25177 4.0796765,-8.11041 3.229748,-1.85864 11.729062,-1.18277 16.658665,-3.88624 4.929623,-2.70347 12.579002,-17.91051 27.707806,-36.49688 0,0 -6.289498,-17.06567 9.519246,-33.11754 z"
       id="path947"
       inkscape:connector-curvature="0" />
    <path
       sodipodi:nodetypes="csccccccssccc"
       inkscape:connector-curvature="0"
       id="path1072"
       d="m 142.72737,153.94782 c 0,0 1.01993,11.65872 16.82867,26.02092 15.80874,14.3622 26.68788,12.50356 28.72771,18.58638 2.03985,6.08281 -5.94952,16.72773 -7.64938,17.4036 -1.69987,0.67587 -5.43957,-0.16897 -6.62948,0.84484 -1.18991,1.0138 -3.22975,4.22417 -1.86986,5.40694 1.35991,1.18277 9.85923,1.68967 13.25895,0.16897 3.39974,-1.5207 21.97917,-19.2358 21.41831,-26.86576 -0.33998,-5.74488 -3.44941,-3.3962 -9.17928,-11.99666 -2.8653,-4.30077 -1.86985,-11.32079 -3.39972,-18.58638 -2.99019,-14.20083 -11.21912,-23.48641 -11.21912,-23.48641 l -30.76755,-11.32079 z"
       style="opacity:1;fill:#b9975b;fill-opacity:1;stroke:#b9975b;stroke-width:4.93925285;stroke-linecap:butt;stroke-linejoin:miter;stroke-miterlimit:4;stroke-dasharray:none;stroke-opacity:1" />
    <path
       style="opacity:1;fill:#c8102e;fill-opacity:1;stroke:none;stroke-width:0.24696264px;stroke-linecap:butt;stroke-linejoin:miter;stroke-opacity:1"
       d="m 142.72737,153.94782 c 0,0 1.01993,11.65872 16.82867,26.02092 15.80874,14.3622 26.68788,12.50356 28.72771,18.58638 2.03985,6.08281 -5.94952,16.72773 -7.64938,17.4036 -1.69987,0.67587 -5.43957,-0.16897 -6.62948,0.84484 -1.18991,1.0138 -3.22975,4.22417 -1.86986,5.40694 1.35991,1.18277 9.85923,1.68967 13.25895,0.16897 3.39974,-1.5207 21.97917,-19.2358 21.41831,-26.86576 -0.33998,-5.74488 -3.44941,-3.3962 -9.17928,-11.99666 -2.8653,-4.30077 -1.86985,-11.32079 -3.39972,-18.58638 -2.99019,-14.20083 -11.21912,-23.48641 -11.21912,-23.48641 l -30.76755,-11.32079 z"
       id="path949"
       inkscape:connector-curvature="0"
       sodipodi:nodetypes="csccccccssccc" />
    <path
       style="fill:#c8102e;fill-opacity:1;stroke:none;stroke-width:0.24696264px;stroke-linecap:butt;stroke-linejoin:miter;stroke-opacity:1"
       d="m 56.41395,150.06379 8.053302,5.97389 19.95297,18.16061 9.976481,3.2259 8.293707,-37.87446 -41.949313,-4.06224 z"
       id="path1074"
       inkscape:connector-curvature="0" />
    <path
       style="fill:#c8102e;fill-opacity:1;stroke:none;stroke-width:0.24696264px;stroke-linecap:butt;stroke-linejoin:miter;stroke-opacity:1"
       d="m 145.4811,171.21133 8.5341,-5.8544 34.497,-10.63352 6.73112,-2.27007 -9.97649,-13.97889 -35.09798,-13.26204 -11.29867,30.46682 z"
       id="path1076"
       inkscape:connector-curvature="0" />
    <g
       aria-label="FLORIDA"
       transform="matrix(0.54292576,-0.07255615,0.07255615,0.54292576,-115.65664,90.316366)"
       style="font-style:normal;font-variant:normal;font-weight:normal;font-stretch:normal;font-size:40px;line-height:1.25;font-family:'New Athletic M54';-inkscape-font-specification:'New Athletic M54';letter-spacing:0px;word-spacing:0px;fill:#b9975b;fill-opacity:1;stroke:none"
       id="flowRoot1096">
      <path
         d="m 326.05664,138.56302 h -7.57812 v 6.83594 h 6.34765 q 1.38672,0 1.38672,1.40625 v 2.87109 q 0,1.40625 -1.38672,1.40625 h -6.34765 v 11.09375 q 0,1.40625 -1.40625,1.40625 h -2.8711 q -1.40625,0 -1.40625,-1.40625 v -23.86719 q 0,-2.22656 1.58203,-3.80859 1.58203,-1.60156 3.82813,-1.60156 h 7.85156 q 1.40625,0 1.40625,1.40625 v 2.87109 q 0,1.38672 -1.40625,1.38672 z"
         style="fill:#b9975b;fill-opacity:1"
         id="path853" />
      <path
         d="m 342.87305,163.58255 h -7.2461 q -2.22656,0 -3.82812,-1.58203 -1.58203,-1.58203 -1.58203,-3.80859 v -23.88672 q 0,-1.40625 1.40625,-1.40625 h 2.87109 q 1.40625,0 1.40625,1.40625 v 23.61328 h 6.97266 q 1.38672,0 1.38672,1.40625 v 2.85156 q 0,1.40625 -1.38672,1.40625 z"
         style="fill:#b9975b;fill-opacity:1"
         id="path855" />
      <path
         d="m 359.14258,163.58255 h -6.46485 q -2.26562,0 -3.96484,-1.67969 -1.69922,-1.67968 -1.69922,-3.94531 v -19.41406 q 0,-2.2461 1.69922,-3.94531 1.71875,-1.69922 3.96484,-1.69922 h 6.44532 q 2.24609,0 3.96484,1.69922 1.73828,1.69921 1.73828,3.96484 v 19.375 q 0,2.26562 -1.73828,3.96484 -1.71875,1.67969 -3.94531,1.67969 z m 0,-5.66406 v -19.35547 h -6.46485 v 19.35547 z"
         style="fill:#b9975b;fill-opacity:1"
         id="path857" />
      <path
         d="m 383.77148,163.58255 h -3.0664 q -0.9375,0 -1.28906,-0.89844 l -4.49219,-11.60156 h -1.67969 v 11.09375 q 0,1.40625 -1.40625,1.40625 h -2.87109 q -1.40625,0 -1.40625,-1.40625 v -27.87109 q 0,-1.40625 1.40625,-1.40625 h 9.98047 q 2.24609,0 3.98437,1.71875 1.73828,1.69922 1.73828,3.96484 v 6.79688 q 0,1.79687 -1.11328,3.26171 -1.11328,1.46485 -2.73437,2.07032 l 4.25781,10.95703 q 0.27344,0.72265 -0.13672,1.30859 -0.42969,0.60547 -1.17188,0.60547 z m -4.78515,-18.18359 v -6.83594 h -5.74219 v 6.83594 z"
         style="fill:#b9975b;fill-opacity:1"
         id="path859" />
      <path
         d="m 392.38477,163.58255 h -2.8711 q -1.40625,0 -1.40625,-1.40625 v -27.87109 q 0,-1.40625 1.40625,-1.40625 h 2.8711 q 1.40625,0 1.40625,1.40625 v 27.87109 q 0,1.40625 -1.40625,1.40625 z"
         style="fill:#b9975b;fill-opacity:1"
         id="path861" />
      <path
         d="m 414.16211,138.58255 v 19.31641 q 0,2.28515 -1.73828,3.98437 -1.73828,1.69922 -3.96485,1.69922 h -10.50781 q -1.40625,0 -1.40625,-1.40625 v -27.87109 q 0,-1.40625 1.40625,-1.40625 h 10.48828 q 2.2461,0 3.98438,1.71875 1.73828,1.71875 1.73828,3.96484 z m -5.66406,19.33594 v -19.35547 h -6.26953 v 19.35547 z"
         style="fill:#b9975b;fill-opacity:1"
         id="path863" />
      <path
         d="m 430.17773,162.44974 -1.13281,-5.70313 h -5.9375 l -1.13281,5.70313 q -0.23438,1.13281 -1.38672,1.13281 h -2.91016 q -0.68359,0 -1.09375,-0.50781 -0.42968,-0.48828 -0.29296,-1.17188 l 5.58593,-27.87109 q 0.21485,-1.13281 1.36719,-1.13281 h 5.66406 q 1.15235,0 1.38672,1.13281 l 5.56641,27.87109 q 0.11719,0.6836 -0.29297,1.17188 -0.42969,0.50781 -1.07422,0.50781 h -2.92969 q -1.17187,0 -1.38672,-1.13281 z m -2.26562,-11.36719 -1.83594,-9.17969 -1.83594,9.17969 z"
         style="fill:#b9975b;fill-opacity:1"
         id="path865" />
    </g>
    <g
       aria-label="PANTHERS"
       transform="matrix(0.54292576,-0.07255615,0.07255615,0.54292576,-87.323295,107.42496)"
       style="font-style:normal;font-variant:normal;font-weight:normal;font-stretch:normal;font-size:40px;line-height:1.25;font-family:'New Athletic M54';-inkscape-font-specification:'New Athletic M54';letter-spacing:0px;word-spacing:0px;fill:#b9975b;fill-opacity:1;stroke:none"
       id="flowRoot1110">
      <path
         d="m 324.16211,153.17239 h -5.70313 v 9.00391 q 0,1.40625 -1.38671,1.40625 h -2.8711 q -1.40625,0 -1.40625,-1.40625 v -27.87109 q 0,-1.40625 1.40625,-1.40625 h 9.98047 q 2.22656,0 3.96484,1.71875 1.73829,1.69922 1.73829,3.96484 v 8.90625 q 0,2.28516 -1.73829,3.98438 -1.73828,1.69921 -3.98437,1.69921 z m 0.0586,-5.66406 v -8.94531 h -5.76172 v 8.94531 z"
         style="fill:#b9975b;fill-opacity:1"
         id="path836" />
      <path
         d="m 343.38086,162.44974 -1.13281,-5.70313 h -5.9375 l -1.13282,5.70313 q -0.23437,1.13281 -1.38671,1.13281 h -2.91016 q -0.68359,0 -1.09375,-0.50781 -0.42969,-0.48828 -0.29297,-1.17188 l 5.58594,-27.87109 q 0.21484,-1.13281 1.36719,-1.13281 h 5.66406 q 1.15234,0 1.38672,1.13281 l 5.5664,27.87109 q 0.11719,0.6836 -0.29297,1.17188 -0.42968,0.50781 -1.07421,0.50781 h -2.92969 q -1.17188,0 -1.38672,-1.13281 z m -2.26563,-11.36719 -1.83593,-9.17969 -1.83594,9.17969 z"
         style="fill:#b9975b;fill-opacity:1"
         id="path838" />
      <path
         d="m 363.41992,162.68411 -5.83984,-15.17578 v 14.66797 q 0,1.40625 -1.40625,1.40625 h -2.83203 q -1.40625,0 -1.40625,-1.40625 v -27.87109 q 0,-1.40625 1.40625,-1.40625 h 3.71093 q 0.9375,0 1.3086,0.89843 l 5.85937,15.19532 v -14.6875 q 0,-1.40625 1.40625,-1.40625 h 2.8125 q 1.40625,0 1.40625,1.40625 v 27.85156 q 0,1.38672 -1.38672,1.38672 l -3.71093,0.0195 q -0.97657,0.0195 -1.32813,-0.87891 z"
         style="fill:#b9975b;fill-opacity:1"
         id="path840" />
      <path
         d="m 388.08789,138.56302 h -4.21875 v 23.61328 q 0,1.40625 -1.40625,1.40625 h -2.87109 q -1.40625,0 -1.40625,-1.40625 v -23.61328 h -4.21875 q -1.40625,0 -1.40625,-1.38672 v -2.87109 q 0,-1.40625 1.40625,-1.40625 h 14.12109 q 1.40625,0 1.40625,1.40625 v 2.87109 q 0,1.38672 -1.40625,1.38672 z"
         style="fill:#b9975b;fill-opacity:1"
         id="path842" />
      <path
         d="m 408.61523,163.58255 h -2.87109 q -1.40625,0 -1.40625,-1.40625 v -11.09375 h -6.42578 v 11.09375 q 0,1.40625 -1.38672,1.40625 h -2.89062 q -1.38672,0 -1.38672,-1.40625 v -27.87109 q 0,-1.40625 1.38672,-1.40625 h 2.89062 q 1.38672,0 1.38672,1.40625 v 11.09375 h 6.42578 v -11.09375 q 0,-1.40625 1.40625,-1.40625 h 2.87109 q 1.38672,0 1.38672,1.40625 v 27.87109 q 0,1.40625 -1.38672,1.40625 z"
         style="fill:#b9975b;fill-opacity:1"
         id="path844" />
      <path
         d="m 426.0957,163.58255 h -7.98828 q -2.22656,0 -3.80859,-1.58203 -1.58203,-1.58203 -1.58203,-3.80859 v -23.88672 q 0,-1.40625 1.40625,-1.40625 h 11.85547 q 1.40625,0 1.40625,1.40625 v 2.87109 q 0,1.38672 -1.40625,1.38672 h -7.59766 v 6.83594 h 6.34766 q 1.40625,0 1.40625,1.40625 v 2.87109 q 0,1.40625 -1.40625,1.40625 h -6.34766 v 6.83594 h 7.71484 q 1.40625,0 1.40625,1.40625 v 2.85156 q 0,1.40625 -1.40625,1.40625 z"
         style="fill:#b9975b;fill-opacity:1"
         id="path846" />
      <path
         d="m 446.42773,163.58255 h -3.0664 q -0.9375,0 -1.28906,-0.89844 l -4.49219,-11.60156 h -1.67969 v 11.09375 q 0,1.40625 -1.40625,1.40625 h -2.87109 q -1.40625,0 -1.40625,-1.40625 v -27.87109 q 0,-1.40625 1.40625,-1.40625 h 9.98047 q 2.24609,0 3.98437,1.71875 1.73828,1.69922 1.73828,3.96484 v 6.79688 q 0,1.79687 -1.11328,3.26171 -1.11328,1.46485 -2.73437,2.07032 l 4.25781,10.95703 q 0.27344,0.72265 -0.13672,1.30859 -0.42969,0.60547 -1.17188,0.60547 z m -4.78515,-18.18359 v -6.83594 h -5.74219 v 6.83594 z"
         style="fill:#b9975b;fill-opacity:1"
         id="path848" />
      <path
         d="m 462.15039,163.58255 h -5.70312 q -2.26563,0 -3.98438,-1.67969 -1.69922,-1.69922 -1.69922,-3.98437 v -1.07422 q 0,-1.40625 1.38672,-1.40625 h 2.87109 q 1.40625,0 1.40625,1.40625 v 1.07422 h 5.72266 v -6.83594 h -5.70312 q -2.26563,0 -3.98438,-1.69922 -1.69922,-1.69922 -1.69922,-3.96484 v -6.85547 q 0,-2.24609 1.69922,-3.94531 1.71875,-1.71875 3.98438,-1.71875 h 5.70312 q 2.24609,0 3.94531,1.69922 1.71875,1.69921 1.71875,3.94531 v 0.9375 q 0,1.38672 -1.38672,1.38672 h -2.87109 q -1.40625,0 -1.40625,-1.38672 v -0.91797 h -5.72266 v 6.83594 h 5.72266 q 2.24609,0 3.94531,1.69922 1.71875,1.69921 1.71875,3.94531 v 6.89453 q 0,2.28516 -1.71875,3.96484 -1.69922,1.67969 -3.94531,1.67969 z"
         style="fill:#b9975b;fill-opacity:1"
         id="path850" />
    </g>
  </g>
</svg>
