<?xml version="1.0" encoding="UTF-8" standalone="no"?>
<!-- Created with Inkscape (http://www.inkscape.org/) -->

<svg
   xmlns:dc="http://purl.org/dc/elements/1.1/"
   xmlns:cc="http://creativecommons.org/ns#"
   xmlns:rdf="http://www.w3.org/1999/02/22-rdf-syntax-ns#"
   xmlns:svg="http://www.w3.org/2000/svg"
   xmlns="http://www.w3.org/2000/svg"
   xmlns:sodipodi="http://sodipodi.sourceforge.net/DTD/sodipodi-0.dtd"
   xmlns:inkscape="http://www.inkscape.org/namespaces/inkscape"
   width="1000"
   height="1000"
   viewBox="0 0 264.58333 264.58334"
   version="1.1"
   id="svg8"
   inkscape:version="0.92.3 (2405546, 2018-03-11)"
   sodipodi:docname="lak-home.svg">
  <defs
     id="defs2" />
  <sodipodi:namedview
     id="base"
     pagecolor="#ffffff"
     bordercolor="#666666"
     borderopacity="1.0"
     inkscape:pageopacity="0.0"
     inkscape:pageshadow="2"
     inkscape:zoom="0.5"
     inkscape:cx="396.46611"
     inkscape:cy="432.49755"
     inkscape:document-units="mm"
     inkscape:current-layer="layer1"
     showgrid="false"
     units="px"
     inkscape:snap-smooth-nodes="false"
     inkscape:window-width="1920"
     inkscape:window-height="1029"
     inkscape:window-x="1920"
     inkscape:window-y="0"
     inkscape:window-maximized="1"
     inkscape:snap-global="false" />
  <metadata
     id="metadata5">
    <rdf:RDF>
      <cc:Work
         rdf:about="">
        <dc:format>image/svg+xml</dc:format>
        <dc:type
           rdf:resource="http://purl.org/dc/dcmitype/StillImage" />
        <dc:title />
      </cc:Work>
    </rdf:RDF>
  </metadata>
  <g
     inkscape:label="Layer 1"
     inkscape:groupmode="layer"
     id="layer1"
     transform="translate(0,-32.41665)">
    <rect
       style="opacity:1;fill:#111111;fill-opacity:1;stroke:none;stroke-width:6.61458302;stroke-linecap:butt;stroke-linejoin:round;stroke-miterlimit:4;stroke-dasharray:none;stroke-opacity:1;paint-order:normal"
       id="rect944"
       width="298.44998"
       height="277.28333"
       x="-10.054167"
       y="22.362484" />
    <path
       style="opacity:1;fill:#a2aaad;fill-opacity:1;stroke:none;stroke-width:7.89718533;stroke-linecap:butt;stroke-linejoin:round;stroke-miterlimit:4;stroke-dasharray:none;stroke-opacity:1;paint-order:normal"
       d="m 131.95869,101.24946 a 101.53524,89.125383 0 0 0 -101.535605,89.1253 101.53524,89.125383 0 0 0 7.805896,34.07081 H 225.74333 a 101.53524,89.125383 0 0 0 7.75033,-34.07081 101.53524,89.125383 0 0 0 -101.53497,-89.1253 z"
       id="path905"
       inkscape:connector-curvature="0" />
    <path
       inkscape:connector-curvature="0"
       id="path938"
       d="M 131.95837,61.67098 115.3607,90.419218 H 86.479838 l 22.527952,39.020122 22.95058,2.49625 22.95058,-2.49625 22.52795,-39.020122 h -28.88085 z"
       style="opacity:1;fill:#a2aaad;fill-opacity:1;stroke:#111111;stroke-width:6.61458333;stroke-linecap:butt;stroke-linejoin:miter;stroke-opacity:1;stroke-miterlimit:4;stroke-dasharray:none" />
    <path
       style="opacity:1;fill:#a2aaad;fill-opacity:1;stroke:none;stroke-width:0.31588742px;stroke-linecap:butt;stroke-linejoin:miter;stroke-opacity:1"
       d="M 131.95837,61.67098 115.3607,90.419218 H 86.479838 l 22.527952,39.020122 22.95058,2.49625 22.95058,-2.49625 22.52795,-39.020122 h -28.88085 z"
       id="path909"
       inkscape:connector-curvature="0" />
    <path
       inkscape:connector-curvature="0"
       id="path940"
       d="M 7.4083293,126.52045 29.069458,240.69093 a 102.88905,16.696907 0 0 0 102.888612,16.697 102.88905,16.696907 0 0 0 102.8892,-16.697 l 21.66113,-114.17048 -46.48113,43.77324 9.41616,29.59285 a 102.88905,16.696907 0 0 0 -87.48536,-7.93234 102.88905,16.696907 0 0 0 -87.490964,7.95023 l 9.421721,-29.61074 z"
       style="opacity:1;fill:#a2aaad;fill-opacity:1;stroke:#111111;stroke-width:7.89718533;stroke-linecap:butt;stroke-linejoin:round;stroke-miterlimit:4;stroke-dasharray:none;stroke-opacity:1;paint-order:normal" />
    <path
       style="opacity:1;fill:#a2aaad;fill-opacity:1;stroke:none;stroke-width:7.89718533;stroke-linecap:butt;stroke-linejoin:round;stroke-miterlimit:4;stroke-dasharray:none;stroke-opacity:1;paint-order:normal"
       d="M 7.4083293,126.52045 29.069458,240.69093 a 102.88905,16.696907 0 0 0 102.888612,16.697 102.88905,16.696907 0 0 0 102.8892,-16.697 l 21.66113,-114.17048 -46.48113,43.77324 9.41616,29.59285 a 102.88905,16.696907 0 0 0 -87.48536,-7.93234 102.88905,16.696907 0 0 0 -87.490964,7.95023 l 9.421721,-29.61074 z"
       id="path896"
       inkscape:connector-curvature="0" />
    <ellipse
       ry="16.694958"
       rx="102.88814"
       cy="240.69092"
       cx="131.95758"
       id="ellipse942"
       style="opacity:1;fill:#a2aaad;fill-opacity:1;stroke:#111111;stroke-width:9.96278095;stroke-linecap:butt;stroke-linejoin:round;stroke-miterlimit:4;stroke-dasharray:none;stroke-opacity:1;paint-order:normal" />
    <ellipse
       style="opacity:1;fill:#a2aaad;fill-opacity:1;stroke:none;stroke-width:9.96278095;stroke-linecap:butt;stroke-linejoin:round;stroke-miterlimit:4;stroke-dasharray:none;stroke-opacity:1;paint-order:normal"
       id="path936"
       cx="131.95758"
       cy="240.69092"
       rx="102.88814"
       ry="16.694958" />
    <path
       style="opacity:1;fill:#a2aaad;fill-opacity:1;stroke:none;stroke-width:26.67282677;stroke-linecap:butt;stroke-linejoin:round;stroke-miterlimit:4;stroke-dasharray:none;stroke-opacity:1;paint-order:normal"
       d="M 646.44922 286.10742 L 609.98828 324.29492 L 610.17188 324.35742 A 195.1213 63.099052 0 0 0 498.74023 313.0293 A 195.1213 63.099052 0 0 0 387.57812 324.35938 L 351.13867 286.19336 L 328.91016 344.60156 L 331.83203 343.5957 A 195.1213 63.099052 0 0 0 303.61914 376.12695 A 195.1213 63.099052 0 0 0 498.74023 439.22656 A 195.1213 63.099052 0 0 0 693.86133 376.12695 A 195.1213 63.099052 0 0 0 665.21094 343.32227 L 668.67773 344.51562 L 646.44922 286.10742 z M 498.74023 568.6582 A 388.86856 132.39552 0 0 0 120.01758 671.55859 L 877.3418 671.55859 A 388.86856 132.39552 0 0 0 498.74023 568.6582 z "
       id="ellipse946"
       transform="matrix(0.26458333,0,0,0.26458333,0,32.41665)" />
    <g
       aria-label="KINGS"
       transform="matrix(0.96981131,0,0,1.0331739,-137.61508,-224.60271)"
       style="font-style:normal;font-weight:normal;font-size:40px;line-height:1.25;font-family:sans-serif;letter-spacing:0px;word-spacing:0px;fill:#111111;fill-opacity:1;stroke:none"
       id="flowRoot973">
      <path
         d="m 251.7832,382.71927 -6.58203,13.32031 6.58203,13.30078 q 0.33203,0.6836 -0.0586,1.36719 -0.41016,0.66406 -1.19141,0.66406 h -3.18359 q -0.91797,0 -1.26953,-0.80078 l -5.70313,-11.69922 v 11.09375 q 0,1.40625 -1.40625,1.40625 h -2.87109 q -1.38672,0 -1.38672,-1.40625 v -27.87109 q 0,-1.40625 1.38672,-1.40625 h 2.87109 q 1.40625,0 1.40625,1.40625 v 11.09375 l 5.70313,-11.69922 q 0.39062,-0.80078 1.26953,-0.80078 h 3.18359 q 0.76172,0 1.19141,0.66406 0.39062,0.70313 0.0586,1.36719 z"
         style="font-style:normal;font-variant:normal;font-weight:normal;font-stretch:normal;font-family:'New Athletic M54';-inkscape-font-specification:'New Athletic M54';fill:#111111;fill-opacity:1"
         id="path836" />
      <path
         d="m 259.14648,411.37161 h -2.87109 q -1.40625,0 -1.40625,-1.40625 v -27.87109 q 0,-1.40625 1.40625,-1.40625 h 2.87109 q 1.40625,0 1.40625,1.40625 v 27.87109 q 0,1.40625 -1.40625,1.40625 z"
         style="font-style:normal;font-variant:normal;font-weight:normal;font-stretch:normal;font-family:'New Athletic M54';-inkscape-font-specification:'New Athletic M54';fill:#111111;fill-opacity:1"
         id="path838" />
      <path
         d="m 274.79102,410.47318 -5.83985,-15.17579 v 14.66797 q 0,1.40625 -1.40625,1.40625 h -2.83203 q -1.40625,0 -1.40625,-1.40625 v -27.87109 q 0,-1.40625 1.40625,-1.40625 h 3.71094 q 0.9375,0 1.30859,0.89844 l 5.85938,15.19531 v -14.6875 q 0,-1.40625 1.40625,-1.40625 h 2.8125 q 1.40625,0 1.40625,1.40625 v 27.85156 q 0,1.38672 -1.38672,1.38672 l -3.71094,0.0195 q -0.97656,0.0195 -1.32812,-0.8789 z"
         style="font-style:normal;font-variant:normal;font-weight:normal;font-stretch:normal;font-family:'New Athletic M54';-inkscape-font-specification:'New Athletic M54';fill:#111111;fill-opacity:1"
         id="path840" />
      <path
         d="m 295.70898,411.37161 h -6.11328 q -2.24609,0 -3.96484,-1.67968 -1.69922,-1.67969 -1.69922,-3.94532 v -19.39453 q 0,-2.24609 1.71875,-3.94531 1.73828,-1.71875 3.98438,-1.71875 h 6.07421 q 2.2461,0 3.96485,1.71875 1.73828,1.69922 1.73828,3.94531 v 0.97656 q 0,1.38672 -1.38672,1.38672 h -2.87109 q -1.40625,0 -1.40625,-1.38672 v -0.97656 h -6.13282 v 19.35547 h 6.13282 v -6.83594 h -2.48047 q -1.38672,0 -1.38672,-1.40625 v -2.87109 q 0,-1.40625 1.38672,-1.40625 h 6.75781 q 1.38672,0 1.38672,1.40625 v 11.11328 q 0,2.28516 -1.73828,3.98438 -1.71875,1.67968 -3.96485,1.67968 z"
         style="font-style:normal;font-variant:normal;font-weight:normal;font-stretch:normal;font-family:'New Athletic M54';-inkscape-font-specification:'New Athletic M54';fill:#111111;fill-opacity:1"
         id="path842" />
      <path
         d="m 315.55273,411.37161 h -5.70312 q -2.26563,0 -3.98438,-1.67968 -1.69921,-1.69922 -1.69921,-3.98438 v -1.07422 q 0,-1.40625 1.38671,-1.40625 h 2.8711 q 1.40625,0 1.40625,1.40625 v 1.07422 h 5.72265 v -6.83594 h -5.70312 q -2.26563,0 -3.98438,-1.69922 -1.69921,-1.69921 -1.69921,-3.96484 v -6.85547 q 0,-2.24609 1.69921,-3.94531 1.71875,-1.71875 3.98438,-1.71875 h 5.70312 q 2.2461,0 3.94532,1.69922 1.71875,1.69922 1.71875,3.94531 v 0.9375 q 0,1.38672 -1.38672,1.38672 h -2.8711 q -1.40625,0 -1.40625,-1.38672 v -0.91797 h -5.72265 v 6.83594 h 5.72265 q 2.2461,0 3.94532,1.69922 1.71875,1.69922 1.71875,3.94531 v 6.89453 q 0,2.28516 -1.71875,3.96485 -1.69922,1.67968 -3.94532,1.67968 z"
         style="font-style:normal;font-variant:normal;font-weight:normal;font-stretch:normal;font-family:'New Athletic M54';-inkscape-font-specification:'New Athletic M54';fill:#111111;fill-opacity:1"
         id="path844" />
    </g>
    <g
       aria-label="LOS ANGELES"
       style="font-style:normal;font-weight:normal;font-size:28.61958313px;line-height:1.25;font-family:sans-serif;text-align:start;letter-spacing:0px;word-spacing:0px;text-anchor:start;fill:#111111;fill-opacity:1;stroke:none;stroke-width:0.71548957"
       id="text1021"
       transform="matrix(1.0652632,0,0,1.1348621,-6.3547331,-17.707975)">
      <path
         d="m 68.281575,158.1643 -5.086194,1.00485 q -1.562873,0.30877 -2.906433,-0.5796 -1.32985,-0.89108 -1.638617,-2.45395 l -3.312478,-16.76662 q -0.195011,-0.98708 0.792067,-1.18209 l 2.015285,-0.39814 q 0.987078,-0.19501 1.182089,0.79206 l 3.274558,16.57469 4.894262,-0.96693 q 0.973369,-0.1923 1.16838,0.79478 l 0.395439,2.00157 q 0.195011,0.98708 -0.778358,1.17938 z"
         style="font-style:normal;font-variant:normal;font-weight:normal;font-stretch:normal;font-family:'New Athletic M54';-inkscape-font-specification:'New Athletic M54';text-align:start;text-anchor:start;fill:#111111;fill-opacity:1;stroke-width:0.71548957"
         id="path1027"
         inkscape:connector-curvature="0" />
      <path
         d="m 79.789334,156.41987 -4.580036,0.64713 q -1.605089,0.22679 -2.977042,-0.7931 -1.371953,-1.01989 -1.598742,-2.62497 l -1.94335,-13.75395 q -0.224834,-1.59125 0.80889,-2.96516 1.047561,-1.37586 2.638813,-1.6007 l 4.566199,-0.64517 q 1.591251,-0.22484 2.978997,0.80693 1.401582,1.02982 1.628371,2.6349 l 1.939439,13.72628 q 0.22679,1.60508 -0.834608,2.9829 -1.049517,1.36203 -2.626931,1.58491 z m -0.566973,-4.01272 -1.937485,-13.71244 -4.580036,0.64713 1.937484,13.71244 z"
         style="font-style:normal;font-variant:normal;font-weight:normal;font-stretch:normal;font-family:'New Athletic M54';-inkscape-font-specification:'New Athletic M54';text-align:start;text-anchor:start;fill:#111111;fill-opacity:1;stroke-width:0.71548957"
         id="path1029"
         inkscape:connector-curvature="0" />
      <path
         d="m 93.874989,154.87324 -4.062138,0.38695 q -1.613726,0.15372 -2.951898,-0.92604 -1.325586,-1.095 -1.480634,-2.72264 l -0.07289,-0.76513 q -0.09541,-1.00162 0.892298,-1.09571 l 2.04498,-0.19481 q 1.001623,-0.0954 1.097037,0.90621 l 0.07289,0.76513 4.076049,-0.38828 -0.463818,-4.869 -4.062137,0.38696 q -1.613726,0.15372 -2.953224,-0.93996 -1.325586,-1.095 -1.479308,-2.70873 l -0.465143,-4.88291 q -0.152397,-1.59981 0.942605,-2.9254 1.107589,-1.34082 2.721315,-1.49454 l 4.062138,-0.38696 q 1.599814,-0.1524 2.9254,0.9426 1.339498,1.09368 1.491895,2.6935 l 0.06361,0.66775 q 0.09409,0.98771 -0.893622,1.0818 l -2.044981,0.1948 q -1.001623,0.0954 -1.095711,-0.8923 l -0.06228,-0.65384 -4.076049,0.38829 0.463817,4.869 4.076049,-0.38829 q 1.599815,-0.15239 2.925401,0.94261 1.339497,1.09368 1.491895,2.69349 l 0.467793,4.91074 q 0.155047,1.62763 -0.955192,2.94063 -1.096328,1.31168 -2.696142,1.46408 z"
         style="font-style:normal;font-variant:normal;font-weight:normal;font-stretch:normal;font-family:'New Athletic M54';-inkscape-font-specification:'New Athletic M54';text-align:start;text-anchor:start;fill:#111111;fill-opacity:1;stroke-width:0.71548957"
         id="path1031"
         inkscape:connector-curvature="0" />
      <path
         d="m 116.81701,152.68604 -0.96917,-4.04578 -4.24498,0.16582 -0.65063,4.10906 q -0.13593,0.81644 -0.95979,0.84862 l -2.0806,0.0813 q -0.48873,0.0191 -0.79615,-0.33251 -0.32084,-0.3371 -0.24218,-0.82965 l 3.21525,-20.08228 q 0.12197,-0.8159 0.94583,-0.84808 l 4.04949,-0.15819 q 0.82386,-0.0322 1.02306,0.77117 l 4.75805,19.77083 q 0.10287,0.48546 -0.17673,0.84601 -0.29302,0.37505 -0.75382,0.39305 l -2.09457,0.0818 q -0.83782,0.0327 -1.02306,-0.77117 z m -1.93726,-8.06363 -1.56896,-6.51169 -1.05622,6.61424 z"
         style="font-style:normal;font-variant:normal;font-weight:normal;font-stretch:normal;font-family:'New Athletic M54';-inkscape-font-specification:'New Athletic M54';text-align:start;text-anchor:start;fill:#111111;fill-opacity:1;stroke-width:0.71548957"
         id="path1033"
         inkscape:connector-curvature="0" />
      <path
         d="m 131.18175,152.62995 -4.22277,-10.84092 0.043,10.49469 q 0.004,1.00615 -1.00203,1.01027 l -2.02628,0.008 q -1.00614,0.004 -1.01026,-1.00203 l -0.0816,-19.94131 q -0.004,-1.00615 1.00203,-1.01027 l 2.65512,-0.0109 q 0.67076,-0.003 0.93891,0.63898 l 4.2368,10.85483 -0.043,-10.50866 q -0.004,-1.00615 1.00203,-1.01027 l 2.0123,-0.008 q 1.00615,-0.004 1.01027,1.00203 l 0.0816,19.92734 q 0.004,0.99217 -0.98811,0.99623 l -2.65506,0.0248 q -0.69865,0.0168 -0.95282,-0.62495 z"
         style="font-style:normal;font-variant:normal;font-weight:normal;font-stretch:normal;font-family:'New Athletic M54';-inkscape-font-specification:'New Athletic M54';text-align:start;text-anchor:start;fill:#111111;fill-opacity:1;stroke-width:0.71548957"
         id="path1035"
         inkscape:connector-curvature="0" />
      <path
         d="m 146.14888,153.52009 -4.3722,-0.12519 q -1.6064,-0.046 -2.80125,-1.2825 -1.18087,-1.2361 -1.13448,-2.85647 l 0.39716,-13.8709 q 0.046,-1.6064 1.31004,-2.78647 1.27841,-1.19365 2.88481,-1.14766 l 4.34426,0.12439 q 1.6064,0.046 2.80044,1.31044 1.20842,1.25087 1.16242,2.85727 l -0.02,0.69843 q -0.0284,0.99178 -1.02018,0.96338 l -2.05339,-0.0588 q -1.00575,-0.0288 -0.97735,-1.02058 l 0.02,-0.69843 -4.38617,-0.12559 -0.39636,13.84296 4.38616,0.12559 0.13999,-4.88904 -1.77402,-0.0508 q -0.99178,-0.0284 -0.96298,-1.03414 l 0.0588,-2.0534 q 0.0288,-1.00574 1.02058,-0.97735 l 4.83316,0.13839 q 0.99178,0.0284 0.96298,1.03414 l -0.22758,7.94818 q -0.0468,1.63434 -1.3248,2.81402 -1.26364,1.16611 -2.87004,1.12011 z"
         style="font-style:normal;font-variant:normal;font-weight:normal;font-stretch:normal;font-family:'New Athletic M54';-inkscape-font-specification:'New Athletic M54';text-align:start;text-anchor:start;fill:#111111;fill-opacity:1;stroke-width:0.71548957"
         id="path1037"
         inkscape:connector-curvature="0" />
      <path
         d="m 161.75226,154.31368 -5.70511,-0.34505 q -1.59018,-0.0962 -2.6517,-1.29437 -1.06153,-1.1982 -0.96535,-2.78838 l 1.03178,-17.05952 q 0.0607,-1.00433 1.06507,-0.94358 l 8.46699,0.51209 q 1.00432,0.0608 0.94358,1.06507 l -0.12402,2.05049 q -0.0599,0.99037 -1.06422,0.92963 l -5.42613,-0.32818 -0.29528,4.88212 4.5334,0.27419 q 1.00432,0.0607 0.94358,1.06506 l -0.12402,2.05049 q -0.0607,1.00432 -1.06506,0.94358 l -4.5334,-0.27419 -0.29528,4.88213 5.50983,0.33324 q 1.00432,0.0607 0.94357,1.06506 l -0.12317,2.03654 q -0.0607,1.00433 -1.06506,0.94358 z"
         style="font-style:normal;font-variant:normal;font-weight:normal;font-stretch:normal;font-family:'New Athletic M54';-inkscape-font-specification:'New Athletic M54';text-align:start;text-anchor:start;fill:#111111;fill-opacity:1;stroke-width:0.71548957"
         id="path1039"
         inkscape:connector-curvature="0" />
      <path
         d="m 173.71071,155.35645 -5.16238,-0.47838 q -1.58629,-0.147 -2.62286,-1.37983 -1.02265,-1.23154 -0.87566,-2.81783 l 1.57699,-17.01779 q 0.0928,-1.00186 1.0947,-0.90902 l 2.04548,0.18955 q 1.00186,0.0928 0.90902,1.0947 l -1.55893,16.82298 4.96758,0.46033 q 0.98795,0.0916 0.89511,1.09342 l -0.18826,2.03156 q -0.0928,1.00186 -1.08079,0.91031 z"
         style="font-style:normal;font-variant:normal;font-weight:normal;font-stretch:normal;font-family:'New Athletic M54';-inkscape-font-specification:'New Athletic M54';text-align:start;text-anchor:start;fill:#111111;fill-opacity:1;stroke-width:0.71548957"
         id="path1041"
         inkscape:connector-curvature="0" />
      <path
         d="m 186.15328,156.88975 -5.6675,-0.73944 q -1.5797,-0.20611 -2.55567,-1.47496 -0.97597,-1.26886 -0.76987,-2.84855 l 2.2111,-16.94707 q 0.13017,-0.9977 1.12787,-0.86753 l 8.41118,1.09741 q 0.9977,0.13017 0.86753,1.12788 l -0.26577,2.03697 q -0.12836,0.98384 -1.12606,0.85367 l -5.39036,-0.70328 -0.63277,4.84994 4.50351,0.58757 q 0.9977,0.13017 0.86753,1.12787 l -0.26577,2.03698 q -0.13017,0.9977 -1.12787,0.86753 l -4.50351,-0.58758 -0.63278,4.84994 5.4735,0.71413 q 0.99771,0.13017 0.86754,1.12787 l -0.26396,2.02312 q -0.13017,0.9977 -1.12787,0.86753 z"
         style="font-style:normal;font-variant:normal;font-weight:normal;font-stretch:normal;font-family:'New Athletic M54';-inkscape-font-specification:'New Athletic M54';text-align:start;text-anchor:start;fill:#111111;fill-opacity:1;stroke-width:0.71548957"
         id="path1043"
         inkscape:connector-curvature="0" />
      <path
         d="m 197.0944,158.74415 -4.01379,-0.73499 q -1.59452,-0.29198 -2.58768,-1.69563 -0.9769,-1.41487 -0.6824,-3.02313 l 0.13844,-0.75603 q 0.18123,-0.9897 1.15718,-0.81098 l 2.02064,0.37001 q 0.9897,0.18123 0.80847,1.17093 l -0.13844,0.75602 4.02754,0.73751 0.88098,-4.81105 -4.01379,-0.73499 q -1.59452,-0.29198 -2.58517,-1.70937 -0.9769,-1.41488 -0.68492,-3.0094 l 0.8835,-4.82479 q 0.28947,-1.58077 1.70434,-2.55767 1.43114,-0.98813 3.02566,-0.69615 l 4.01379,0.73499 q 1.58077,0.28947 2.55767,1.70434 0.99065,1.41739 0.70118,2.99817 l -0.12082,0.6598 q -0.17871,0.97595 -1.15466,0.79724 l -2.02064,-0.37001 q -0.98971,-0.18123 -0.81099,-1.15719 l 0.1183,-0.64605 -4.02753,-0.73751 -0.88098,4.81104 4.02753,0.73751 q 1.58077,0.28947 2.55767,1.70434 0.99065,1.41739 0.70119,2.99817 l -0.88854,4.85228 q -0.2945,1.60826 -1.7206,2.5689 -1.41236,0.96316 -2.99313,0.67369 z"
         style="font-style:normal;font-variant:normal;font-weight:normal;font-stretch:normal;font-family:'New Athletic M54';-inkscape-font-specification:'New Athletic M54';text-align:start;text-anchor:start;fill:#111111;fill-opacity:1;stroke-width:0.71548957"
         id="path1045"
         inkscape:connector-curvature="0" />
    </g>
  </g>
</svg>
