<?xml version="1.0" encoding="UTF-8" standalone="no"?>
<!-- Created with Inkscape (http://www.inkscape.org/) -->

<svg
   xmlns:dc="http://purl.org/dc/elements/1.1/"
   xmlns:cc="http://creativecommons.org/ns#"
   xmlns:rdf="http://www.w3.org/1999/02/22-rdf-syntax-ns#"
   xmlns:svg="http://www.w3.org/2000/svg"
   xmlns="http://www.w3.org/2000/svg"
   xmlns:sodipodi="http://sodipodi.sourceforge.net/DTD/sodipodi-0.dtd"
   xmlns:inkscape="http://www.inkscape.org/namespaces/inkscape"
   width="1000"
   height="1000"
   viewBox="0 0 264.58333 264.58334"
   version="1.1"
   id="svg8"
   inkscape:version="0.92.3 (2405546, 2018-03-11)"
   sodipodi:docname="min-home.svg">
  <defs
     id="defs2" />
  <sodipodi:namedview
     id="base"
     pagecolor="#ffffff"
     bordercolor="#666666"
     borderopacity="1.0"
     inkscape:pageopacity="0.0"
     inkscape:pageshadow="2"
     inkscape:zoom="0.49497475"
     inkscape:cx="77.396003"
     inkscape:cy="478.29201"
     inkscape:document-units="mm"
     inkscape:current-layer="layer1"
     showgrid="false"
     units="px"
     inkscape:snap-global="false"
     inkscape:window-width="1920"
     inkscape:window-height="1029"
     inkscape:window-x="1920"
     inkscape:window-y="0"
     inkscape:window-maximized="1" />
  <metadata
     id="metadata5">
    <rdf:RDF>
      <cc:Work
         rdf:about="">
        <dc:format>image/svg+xml</dc:format>
        <dc:type
           rdf:resource="http://purl.org/dc/dcmitype/StillImage" />
        <dc:title />
      </cc:Work>
    </rdf:RDF>
  </metadata>
  <g
     inkscape:label="Layer 1"
     inkscape:groupmode="layer"
     id="layer1"
     transform="translate(0,-32.41665)">
    <rect
       style="opacity:1;fill:#154734;fill-opacity:1;stroke:none;stroke-width:0.45905209;stroke-linecap:butt;stroke-linejoin:round;stroke-miterlimit:4;stroke-dasharray:none;stroke-opacity:1;paint-order:normal"
       id="rect1060"
       width="275.16666"
       height="272.52084"
       x="-4.9136906"
       y="28.636889" />
    <path
       inkscape:connector-curvature="0"
       id="path1062"
       d="M 40.090414,284.17106 H 196.71035 c 0,0 3.20723,-9.62171 -1.60361,-16.57073 -4.81084,-6.94899 -10.15624,-2.13815 -14.96708,-5.34537 -4.81087,-3.20723 -4.81087,-11.22532 -10.69078,-15.50165 -5.87994,-4.2763 -12.29442,-3.20723 -16.57072,-8.01806 -4.2763,-4.81087 3.74176,-27.79604 2.67269,-31.53781 -1.06908,-3.74179 -11.75986,-6.41448 -11.22532,-10.69078 0.53453,-4.27633 14.96711,-10.69079 18.70887,-16.03618 3.74176,-5.34539 -2.67269,-22.45064 0.53454,-26.72695 3.20722,-4.27632 53.98844,-48.10852 77.50815,-53.45391 23.51974,-5.345392 -36.88318,-11.225322 -42.22859,-10.156242 -5.34537,1.06908 -7.48352,8.55262 -12.82893,7.48354 -5.34537,-1.06907 -9.08716,-10.69078 -13.898,-11.22531 -4.81087,-0.53454 -9.08717,3.20723 -12.2944,2.13815 -3.20725,-1.06908 -7.48355,-15.50163 -18.70887,-16.57071 -11.22532,-1.06908 -8.55263,6.94901 -14.43257,6.41447 -5.87991,-0.53454 -22.45064,-4.81085 -27.261476,-9.08717 -4.81086,-4.27631 1.603616,-26.19241 -7.48355,-27.26148 -9.08717,-1.06908 -7.48355,0 -8.01809,3.74177 -0.53454,3.74177 5.3454,9.6217 1.0691,11.75986 -4.27633,2.13815 -26.72696,-1.60362 -56.12662,0 0,0 -0.53453,30.46872 0.53455,40.09043 1.06908,9.621702 5.34539,1.60361 5.34539,23.519722 0,21.9161 6.94901,56.66114 6.41447,68.421 -21.9161,6.41447 -1.06909,17.63978 -1.06909,17.63978 z"
       style="opacity:1;fill:#a6192e;fill-opacity:1;stroke:#ddcba4;stroke-width:6.61458333;stroke-linecap:butt;stroke-linejoin:miter;stroke-opacity:1;stroke-miterlimit:4;stroke-dasharray:none" />
    <path
       style="opacity:1;fill:#a6192e;fill-opacity:1;stroke:none;stroke-width:0.26458332px;stroke-linecap:butt;stroke-linejoin:miter;stroke-opacity:1"
       d="M 40.090414,284.17106 H 196.71035 c 0,0 3.20723,-9.62171 -1.60361,-16.57073 -4.81084,-6.94899 -10.15624,-2.13815 -14.96708,-5.34537 -4.81087,-3.20723 -4.81087,-11.22532 -10.69078,-15.50165 -5.87994,-4.2763 -12.29442,-3.20723 -16.57072,-8.01806 -4.2763,-4.81087 3.74176,-27.79604 2.67269,-31.53781 -1.06908,-3.74179 -11.75986,-6.41448 -11.22532,-10.69078 0.53453,-4.27633 14.96711,-10.69079 18.70887,-16.03618 3.74176,-5.34539 -2.67269,-22.45064 0.53454,-26.72695 3.20722,-4.27632 53.98844,-48.10852 77.50815,-53.45391 23.51974,-5.345392 -36.88318,-11.225322 -42.22859,-10.156242 -5.34537,1.06908 -7.48352,8.55262 -12.82893,7.48354 -5.34537,-1.06907 -9.08716,-10.69078 -13.898,-11.22531 -4.81087,-0.53454 -9.08717,3.20723 -12.2944,2.13815 -3.20725,-1.06908 -7.48355,-15.50163 -18.70887,-16.57071 -11.22532,-1.06908 -8.55263,6.94901 -14.43257,6.41447 -5.87991,-0.53454 -22.45064,-4.81085 -27.261476,-9.08717 -4.81086,-4.27631 1.603616,-26.19241 -7.48355,-27.26148 -9.08717,-1.06908 -7.48355,0 -8.01809,3.74177 -0.53454,3.74177 5.3454,9.6217 1.0691,11.75986 -4.27633,2.13815 -26.72696,-1.60362 -56.12662,0 0,0 -0.53453,30.46872 0.53455,40.09043 1.06908,9.621702 5.34539,1.60361 5.34539,23.519722 0,21.9161 6.94901,56.66114 6.41447,68.421 -21.9161,6.41447 -1.06909,17.63978 -1.06909,17.63978 z"
       id="path912"
       inkscape:connector-curvature="0" />
    <path
       style="color:#000000;font-style:normal;font-variant:normal;font-weight:normal;font-stretch:normal;font-size:medium;line-height:normal;font-family:sans-serif;font-variant-ligatures:normal;font-variant-position:normal;font-variant-caps:normal;font-variant-numeric:normal;font-variant-alternates:normal;font-feature-settings:normal;text-indent:0;text-align:start;text-decoration:none;text-decoration-line:none;text-decoration-style:solid;text-decoration-color:#000000;letter-spacing:normal;word-spacing:normal;text-transform:none;writing-mode:lr-tb;direction:ltr;text-orientation:mixed;dominant-baseline:auto;baseline-shift:baseline;text-anchor:start;white-space:normal;shape-padding:0;clip-rule:nonzero;display:inline;overflow:visible;visibility:visible;opacity:1;isolation:auto;mix-blend-mode:normal;color-interpolation:sRGB;color-interpolation-filters:linearRGB;solid-color:#000000;solid-opacity:1;vector-effect:none;fill:#ddcba4;fill-opacity:1;fill-rule:nonzero;stroke:none;stroke-width:4.39025402;stroke-linecap:butt;stroke-linejoin:miter;stroke-miterlimit:4;stroke-dasharray:none;stroke-dashoffset:0;stroke-opacity:1;color-rendering:auto;image-rendering:auto;shape-rendering:auto;text-rendering:auto;enable-background:accumulate"
       d="m 49.296108,73.799917 -1.960589,2.182296 -2.909384,-0.377753 1.469681,2.538862 -1.258332,2.649966 2.868559,-0.612881 2.131669,2.015379 0.303318,-2.91765 2.57556,-1.404565 -2.68097,-1.190109 z m 92.851182,7.081739 -4.09017,4.552177 -6.06888,-0.788066 3.06594,5.296318 -2.62567,5.528344 5.98516,-1.278991 4.44625,4.205428 0.63304,-6.087486 5.37332,-2.929535 -5.59348,-2.483054 z m -77.624199,4.140832 -1.960589,2.182294 -2.909385,-0.377753 1.469681,2.538862 -1.258332,2.649969 2.869089,-0.612884 2.131113,2.015898 0.303345,-2.918167 2.576089,-1.404048 -2.681499,-1.190109 z m 5.818769,11.372948 -1.960589,2.182297 -2.908882,-0.378272 1.469152,2.539379 -1.258305,2.64997 2.869062,-0.6134 2.131668,2.0159 0.303345,-2.91817 2.575534,-1.40405 -2.681473,-1.190108 z m 5.83065,11.941904 -1.960087,2.1823 -2.909384,-0.37776 1.469681,2.53887 -1.258306,2.64997 2.868533,-0.61289 2.131669,2.01538 0.303345,-2.91765 2.57556,-1.40405 -2.680997,-1.19062 z m -4.969193,13.00231 -1.960615,2.1823 -2.908856,-0.37827 1.469681,2.53886 -1.258861,2.65048 2.869089,-0.6134 2.131642,2.0159 0.303345,-2.91817 2.57556,-1.40405 -2.68097,-1.19011 z m 27.778154,3.25665 -1.960615,2.1823 -2.909385,-0.37828 1.469681,2.53938 -1.258332,2.64997 2.869089,-0.6134 2.131139,2.0159 0.303345,-2.91817 2.576067,-1.40405 -2.681503,-1.19011 z m -10.404025,8.53436 -1.960615,2.1823 -2.909385,-0.37827 1.469681,2.53938 -1.258306,2.64996 2.86856,-0.6134 2.131642,2.0159 0.303345,-2.91817 2.576063,-1.40405 -2.681473,-1.1901 z m 49.372704,92.40056 -1.83142,2.76727 -12.2618,18.53581 h 3.94912 l -2.81326,4.25247 -5.61155,-8.48218 -0.19119,0.28941 -1.42628,2.15593 -9.78906,14.79909 h 3.07838 l -6.1309,9.26558 h 3.61114 l -5.34953,8.08376 h 2.60191 l 6.78304,-10.2521 h -3.61116 l 6.13089,-9.26558 h -3.08043 l 7.37319,-11.14454 7.3732,11.14454 h -3.07837 l 6.13089,9.26558 h -3.6132 l 6.78304,10.2521 h 2.60192 l -5.35006,-8.08376 h 3.61373 l -6.13296,-9.26558 h 3.07991 l -4.48035,-6.77219 5.58157,-8.43669 h -3.94962 l 10.00868,-15.12983 10.00818,15.12983 h -3.94964 l 7.86722,11.89178 h -4.63383 l 8.31527,12.56977 h 2.63136 l -6.86316,-10.37508 h 4.63437 l -7.86723,-11.89231 h 3.95065 z"
       id="path1034"
       inkscape:connector-curvature="0" />
    <g
       aria-label="MINNESOTA"
       transform="matrix(0.75744063,-0.55508363,0.55508363,0.75744063,-1461.3725,251.60029)"
       style="font-style:normal;font-weight:normal;font-size:40px;line-height:1.25;font-family:sans-serif;letter-spacing:0px;word-spacing:0px;opacity:1;fill:#ddcba4;fill-opacity:1;stroke:none"
       id="flowRoot993">
      <path
         d="m 1342.5996,927.86771 h -2.8711 q -1.4062,0 -1.4062,-1.40625 v -15.87891 l -3.6719,7.83203 q -0.3711,0.80078 -1.2695,0.80078 -0.8985,0 -1.25,-0.80078 l -3.6719,-7.83203 v 15.87891 q 0,1.40625 -1.4063,1.40625 h -2.8711 q -1.3867,0 -1.3867,-1.40625 v -27.8711 q 0,-1.40625 1.3867,-1.40625 h 3.3789 q 0.879,0 1.2696,0.82032 l 4.5508,9.72656 4.5703,-9.72656 q 0.3711,-0.82032 1.2695,-0.82032 h 3.3789 q 1.4063,0 1.4063,1.40625 v 27.8711 q 0,1.40625 -1.4063,1.40625 z"
         style="font-style:normal;font-variant:normal;font-weight:normal;font-stretch:normal;font-family:'New Athletic M54';-inkscape-font-specification:'New Athletic M54';fill:#ddcba4;fill-opacity:1"
         id="path833"
         inkscape:connector-curvature="0" />
      <path
         d="m 1351.0566,927.86771 h -2.8711 q -1.4062,0 -1.4062,-1.40625 v -27.8711 q 0,-1.40625 1.4062,-1.40625 h 2.8711 q 1.4063,0 1.4063,1.40625 v 27.8711 q 0,1.40625 -1.4063,1.40625 z"
         style="font-style:normal;font-variant:normal;font-weight:normal;font-stretch:normal;font-family:'New Athletic M54';-inkscape-font-specification:'New Athletic M54';fill:#ddcba4;fill-opacity:1"
         id="path835"
         inkscape:connector-curvature="0" />
      <path
         d="m 1366.7012,926.96927 -5.8399,-15.17578 v 14.66797 q 0,1.40625 -1.4062,1.40625 h -2.8321 q -1.4062,0 -1.4062,-1.40625 v -27.8711 q 0,-1.40625 1.4062,-1.40625 h 3.711 q 0.9375,0 1.3086,0.89844 l 5.8594,15.19531 v -14.6875 q 0,-1.40625 1.4062,-1.40625 h 2.8125 q 1.4063,0 1.4063,1.40625 v 27.85157 q 0,1.38671 -1.3868,1.38671 l -3.7109,0.0195 q -0.9766,0.0195 -1.3281,-0.87891 z"
         style="font-style:normal;font-variant:normal;font-weight:normal;font-stretch:normal;font-family:'New Athletic M54';-inkscape-font-specification:'New Athletic M54';fill:#ddcba4;fill-opacity:1"
         id="path837"
         inkscape:connector-curvature="0" />
      <path
         d="m 1387.3262,926.96927 -5.8399,-15.17578 v 14.66797 q 0,1.40625 -1.4062,1.40625 h -2.8321 q -1.4062,0 -1.4062,-1.40625 v -27.8711 q 0,-1.40625 1.4062,-1.40625 h 3.711 q 0.9375,0 1.3086,0.89844 l 5.8594,15.19531 v -14.6875 q 0,-1.40625 1.4062,-1.40625 h 2.8125 q 1.4063,0 1.4063,1.40625 v 27.85157 q 0,1.38671 -1.3868,1.38671 l -3.7109,0.0195 q -0.9766,0.0195 -1.3281,-0.87891 z"
         style="font-style:normal;font-variant:normal;font-weight:normal;font-stretch:normal;font-family:'New Athletic M54';-inkscape-font-specification:'New Athletic M54';fill:#ddcba4;fill-opacity:1"
         id="path839"
         inkscape:connector-curvature="0" />
      <path
         d="m 1409.8457,927.86771 h -7.9883 q -2.2265,0 -3.8086,-1.58203 -1.582,-1.58204 -1.582,-3.8086 v -23.88672 q 0,-1.40625 1.4062,-1.40625 h 11.8555 q 1.4063,0 1.4063,1.40625 v 2.8711 q 0,1.38672 -1.4063,1.38672 h -7.5976 v 6.83593 h 6.3476 q 1.4063,0 1.4063,1.40625 v 2.8711 q 0,1.40625 -1.4063,1.40625 h -6.3476 v 6.83593 h 7.7148 q 1.4063,0 1.4063,1.40625 v 2.85157 q 0,1.40625 -1.4063,1.40625 z"
         style="font-style:normal;font-variant:normal;font-weight:normal;font-stretch:normal;font-family:'New Athletic M54';-inkscape-font-specification:'New Athletic M54';fill:#ddcba4;fill-opacity:1"
         id="path841"
         inkscape:connector-curvature="0" />
      <path
         d="m 1425.3535,927.86771 h -5.7031 q -2.2656,0 -3.9844,-1.67969 -1.6992,-1.69922 -1.6992,-3.98438 v -1.07421 q 0,-1.40625 1.3867,-1.40625 h 2.8711 q 1.4063,0 1.4063,1.40625 v 1.07421 h 5.7226 v -6.83593 h -5.7031 q -2.2656,0 -3.9844,-1.69922 -1.6992,-1.69922 -1.6992,-3.96485 v -6.85546 q 0,-2.2461 1.6992,-3.94532 1.7188,-1.71875 3.9844,-1.71875 h 5.7031 q 2.2461,0 3.9453,1.69922 1.7188,1.69922 1.7188,3.94531 v 0.9375 q 0,1.38672 -1.3867,1.38672 h -2.8711 q -1.4063,0 -1.4063,-1.38672 v -0.91796 h -5.7226 v 6.83593 h 5.7226 q 2.2461,0 3.9453,1.69922 1.7188,1.69922 1.7188,3.94531 v 6.89454 q 0,2.28515 -1.7188,3.96484 -1.6992,1.67969 -3.9453,1.67969 z"
         style="font-style:normal;font-variant:normal;font-weight:normal;font-stretch:normal;font-family:'New Athletic M54';-inkscape-font-specification:'New Athletic M54';fill:#ddcba4;fill-opacity:1"
         id="path843"
         inkscape:connector-curvature="0" />
      <path
         d="m 1445.8613,927.86771 h -6.4648 q -2.2656,0 -3.9649,-1.67969 -1.6992,-1.67969 -1.6992,-3.94531 v -19.41407 q 0,-2.24609 1.6992,-3.94531 1.7188,-1.69922 3.9649,-1.69922 h 6.4453 q 2.2461,0 3.9648,1.69922 1.7383,1.69922 1.7383,3.96485 v 19.375 q 0,2.26562 -1.7383,3.96484 -1.7187,1.67969 -3.9453,1.67969 z m 0,-5.66407 v -19.35546 h -6.4648 v 19.35546 z"
         style="font-style:normal;font-variant:normal;font-weight:normal;font-stretch:normal;font-family:'New Athletic M54';-inkscape-font-specification:'New Athletic M54';fill:#ddcba4;fill-opacity:1"
         id="path845"
         inkscape:connector-curvature="0" />
      <path
         d="m 1469.8066,902.84818 h -4.2187 v 23.61328 q 0,1.40625 -1.4063,1.40625 h -2.8711 q -1.4062,0 -1.4062,-1.40625 v -23.61328 h -4.2188 q -1.4062,0 -1.4062,-1.38672 v -2.8711 q 0,-1.40625 1.4062,-1.40625 h 14.1211 q 1.4063,0 1.4063,1.40625 v 2.8711 q 0,1.38672 -1.4063,1.38672 z"
         style="font-style:normal;font-variant:normal;font-weight:normal;font-stretch:normal;font-family:'New Athletic M54';-inkscape-font-specification:'New Athletic M54';fill:#ddcba4;fill-opacity:1"
         id="path847"
         inkscape:connector-curvature="0" />
      <path
         d="m 1482.6387,926.73489 -1.1328,-5.70312 h -5.9375 l -1.1329,5.70312 q -0.2343,1.13282 -1.3867,1.13282 h -2.9101 q -0.6836,0 -1.0938,-0.50782 -0.4297,-0.48828 -0.2929,-1.17187 l 5.5859,-27.87109 q 0.2148,-1.13282 1.3672,-1.13282 h 5.664 q 1.1524,0 1.3868,1.13282 l 5.5664,27.87109 q 0.1172,0.68359 -0.293,1.17187 -0.4297,0.50782 -1.0742,0.50782 h -2.9297 q -1.1719,0 -1.3867,-1.13282 z m -2.2657,-11.36718 -1.8359,-9.17969 -1.8359,9.17969 z"
         style="font-style:normal;font-variant:normal;font-weight:normal;font-stretch:normal;font-family:'New Athletic M54';-inkscape-font-specification:'New Athletic M54';fill:#ddcba4;fill-opacity:1"
         id="path849"
         inkscape:connector-curvature="0" />
    </g>
    <g
       aria-label="WILD"
       transform="matrix(0.75744063,-0.55508363,0.55508363,0.75744063,-1435.5559,286.97472)"
       style="font-style:normal;font-weight:normal;font-size:40px;line-height:1.25;font-family:sans-serif;letter-spacing:0px;word-spacing:0px;opacity:1;fill:#ddcba4;fill-opacity:1;stroke:none"
       id="flowRoot1007">
      <path
         d="m 1349.5332,898.82474 -4.6875,27.89062 q -0.2148,1.15235 -1.3672,1.15235 h -3.457 q -1.1719,0 -1.3672,-1.11328 l -2.4414,-12.14844 -2.4414,12.14844 q -0.2344,1.11328 -1.3672,1.11328 h -3.457 q -1.1914,0 -1.3868,-1.15235 l -4.6484,-27.89062 q -0.1172,-0.625 0.3125,-1.13281 0.4102,-0.50782 1.0742,-0.50782 h 2.9297 q 1.211,0 1.3867,1.19141 l 2.1485,14.49219 2.8711,-14.55078 q 0.2148,-1.13282 1.3867,-1.13282 h 2.4023 q 1.1328,0 1.3672,1.13282 l 2.8516,14.57031 2.1484,-14.51172 q 0.1563,-1.19141 1.3867,-1.19141 h 2.9688 q 0.625,0 1.0742,0.50782 0.3906,0.46875 0.3125,1.13281 z"
         style="font-style:normal;font-variant:normal;font-weight:normal;font-stretch:normal;font-family:'New Athletic M54';-inkscape-font-specification:'New Athletic M54';fill:#ddcba4;fill-opacity:1"
         id="path824"
         inkscape:connector-curvature="0" />
      <path
         d="m 1356.6035,927.86771 h -2.8711 q -1.4062,0 -1.4062,-1.40625 v -27.8711 q 0,-1.40625 1.4062,-1.40625 h 2.8711 q 1.4063,0 1.4063,1.40625 v 27.8711 q 0,1.40625 -1.4063,1.40625 z"
         style="font-style:normal;font-variant:normal;font-weight:normal;font-stretch:normal;font-family:'New Athletic M54';-inkscape-font-specification:'New Athletic M54';fill:#ddcba4;fill-opacity:1"
         id="path826"
         inkscape:connector-curvature="0" />
      <path
         d="m 1373.4199,927.86771 h -7.2461 q -2.2265,0 -3.8281,-1.58203 -1.582,-1.58204 -1.582,-3.8086 v -23.88672 q 0,-1.40625 1.4062,-1.40625 h 2.8711 q 1.4063,0 1.4063,1.40625 v 23.61328 h 6.9726 q 1.3867,0 1.3867,1.40625 v 2.85157 q 0,1.40625 -1.3867,1.40625 z"
         style="font-style:normal;font-variant:normal;font-weight:normal;font-stretch:normal;font-family:'New Athletic M54';-inkscape-font-specification:'New Athletic M54';fill:#ddcba4;fill-opacity:1"
         id="path828"
         inkscape:connector-curvature="0" />
      <path
         d="m 1395.1777,902.86771 v 19.3164 q 0,2.28516 -1.7382,3.98438 -1.7383,1.69922 -3.9649,1.69922 h -10.5078 q -1.4063,0 -1.4063,-1.40625 v -27.8711 q 0,-1.40625 1.4063,-1.40625 h 10.4883 q 2.2461,0 3.9844,1.71875 1.7382,1.71875 1.7382,3.96485 z m -5.664,19.33593 v -19.35546 h -6.2696 v 19.35546 z"
         style="font-style:normal;font-variant:normal;font-weight:normal;font-stretch:normal;font-family:'New Athletic M54';-inkscape-font-specification:'New Athletic M54';fill:#ddcba4;fill-opacity:1"
         id="path830"
         inkscape:connector-curvature="0" />
    </g>
  </g>
</svg>
