<?xml version="1.0" encoding="UTF-8" standalone="no"?>
<!-- Created with Inkscape (http://www.inkscape.org/) -->

<svg
   xmlns:dc="http://purl.org/dc/elements/1.1/"
   xmlns:cc="http://creativecommons.org/ns#"
   xmlns:rdf="http://www.w3.org/1999/02/22-rdf-syntax-ns#"
   xmlns:svg="http://www.w3.org/2000/svg"
   xmlns="http://www.w3.org/2000/svg"
   xmlns:sodipodi="http://sodipodi.sourceforge.net/DTD/sodipodi-0.dtd"
   xmlns:inkscape="http://www.inkscape.org/namespaces/inkscape"
   width="1000"
   height="1000"
   viewBox="0 0 264.58333 264.58334"
   version="1.1"
   id="svg8"
   inkscape:version="0.92.3 (2405546, 2018-03-11)"
   sodipodi:docname="mtl-road.svg">
  <defs
     id="defs2" />
  <sodipodi:namedview
     id="base"
     pagecolor="#ffffff"
     bordercolor="#666666"
     borderopacity="1.0"
     inkscape:pageopacity="0.0"
     inkscape:pageshadow="2"
     inkscape:zoom="0.7"
     inkscape:cx="690.64537"
     inkscape:cy="491.22629"
     inkscape:document-units="mm"
     inkscape:current-layer="layer1"
     showgrid="false"
     units="px"
     inkscape:window-width="1920"
     inkscape:window-height="1029"
     inkscape:window-x="1920"
     inkscape:window-y="0"
     inkscape:window-maximized="1"
     inkscape:snap-global="false" />
  <metadata
     id="metadata5">
    <rdf:RDF>
      <cc:Work
         rdf:about="">
        <dc:format>image/svg+xml</dc:format>
        <dc:type
           rdf:resource="http://purl.org/dc/dcmitype/StillImage" />
        <dc:title />
      </cc:Work>
    </rdf:RDF>
  </metadata>
  <g
     inkscape:label="Layer 1"
     inkscape:groupmode="layer"
     id="layer1"
     transform="translate(0,-32.41665)">
    <rect
       style="opacity:1;fill:#ffffff;fill-opacity:1;stroke:none;stroke-width:5.29166651;stroke-linecap:butt;stroke-linejoin:round;stroke-miterlimit:4;stroke-dasharray:none;stroke-opacity:1;paint-order:normal"
       id="rect949"
       width="285.44385"
       height="283.30569"
       x="-8.5526247"
       y="23.315987" />
    <path
       style="fill:#af1e2d;stroke:none;stroke-width:0.29187706px;stroke-linecap:butt;stroke-linejoin:miter;stroke-opacity:1;fill-opacity:1"
       d="m 126.78464,279.25961 c 0,0 13.7599,-17.9296 3.33575,-27.93682 0,0 -17.44839,17.79083 -24.53683,16.12295 -3.61394,-0.86605 2.68362,-11.13027 1.43272,-12.79814 -1.25089,-1.66787 -10.156905,1.67881 -16.411411,1.26183 -6.254516,-0.41697 -14.957508,-4.48 -20.795043,-5.7309 -5.837545,-1.2509 -19.180499,7.50541 -20.848363,5.83754 -1.667875,-1.66787 5.003602,-12.50902 11.258108,-15.42779 6.254517,-2.91876 18.763528,-8.75631 17.929596,-12.09205 -0.833931,-3.33574 -9.79873,-9.06903 -15.532027,-14.17688 -5.733297,-5.10785 -10.73691,-15.63628 -14.385372,-19.07625 -3.648461,-3.43998 -13.655677,-5.42058 -13.342954,-10.52843 0.312723,-5.10785 11.570842,-5.7333 13.759926,-11.57084 2.189072,-5.83755 -12.092051,-28.45801 -12.300537,-30.23012 -0.208486,-1.77212 1.667864,-4.69089 1.355141,-6.15027 -0.312724,-1.45939 -12.925983,-18.86777 -10.736911,-21.6823 2.189084,-2.81453 19.388986,8.65207 26.581672,9.90297 7.192675,1.2509 9.485996,-2.18907 11.466594,-1.77211 1.980598,0.41697 22.724713,24.1841 32.419206,18.13808 9.694495,-6.04603 -10.632662,-50.870015 -6.984201,-52.329401 3.648462,-1.459384 9.381759,4.795125 15.427786,4.169673 6.04603,-0.625451 6.87996,-5.21209 7.50542,-8.026619 0.62544,-2.81453 1.14665,-13.342952 2.60604,-15.53203 1.45939,-2.189079 7.08845,-6.879961 8.65208,-12.196293 1.56363,-5.316332 2.39756,-8.235104 1.7721,-10.424182 -0.62545,-2.189078 -1.98059,-7.296927 -1.14665,-7.609652 0.83393,-0.312725 4.89936,-0.208484 7.19268,8.026619 2.29332,8.235104 11.98782,21.995023 13.34296,24.705311 1.35514,2.710287 2.50179,22.203507 6.77571,24.80955 4.27392,2.606044 7.7139,1.459389 10.00722,0.521208 2.29332,-0.938169 6.56723,-7.609649 7.71389,-6.671474 1.14666,0.938177 1.35514,4.065431 1.45939,6.567237 0.10425,2.501807 -7.29693,41.071273 -0.31273,46.700333 6.9842,5.62906 14.90658,-4.89936 17.61687,-8.02662 2.71028,-3.12725 7.92238,-10.31994 9.27752,-10.31994 1.35514,0 1.77211,2.29333 3.7527,2.71029 1.9806,0.41697 13.86416,-1.56363 21.36957,-7.08844 7.50541,-5.52482 15.42779,-9.59025 16.99142,-7.60966 1.56363,1.9806 -7.92237,13.03023 -9.48601,17.30415 -1.56362,4.27391 0.83395,6.9842 0.52122,8.96479 -0.31273,1.9806 -15.74052,22.20351 -13.03023,33.04466 2.71028,10.84115 16.07339,4.37233 17.72111,10.11145 0.8573,2.98604 -5.31633,3.96119 -9.48601,8.9648 -4.16967,5.0036 -12.30053,18.65928 -17.61687,23.45441 -5.31632,4.79512 -12.19629,6.04602 -12.50901,8.75631 -0.31272,2.71028 2.50181,7.08844 4.69088,9.69448 2.18908,2.60606 6.2545,4.16969 8.9648,6.87997 2.71028,2.71029 6.77571,8.2351 5.31633,9.17328 -1.45939,0.93817 -9.17328,-4.16967 -15.84476,-3.64846 -6.67147,0.52121 -15.94112,1.86609 -19.48535,3.95092 -3.54422,2.08484 -8.49691,3.03088 -10.79023,4.90724 -2.29331,1.87635 2.09765,10.80422 -1.2509,13.34294 -2.04485,1.55031 -10.68599,-2.00179 -14.17688,-6.2545 -5.79502,-7.05967 -13.55144,-8.75632 -13.55144,-8.75632 0,0 6.04602,12.82175 -0.52121,32.94042 0,0 -7.08846,10e-6 -13.13448,-7.29692 z"
       id="path896"
       inkscape:connector-curvature="0"
       sodipodi:nodetypes="ccccsssssssscsccscssscsscssssccsscscscccsscsssccsssssccc" />
    <path
       style="fill:#192168;stroke:none;stroke-width:0.29187706px;stroke-linecap:butt;stroke-linejoin:miter;stroke-opacity:1;fill-opacity:1"
       d="m 129.22765,64.83666 c -1.68588,8.14842 -1.00481,40.38736 -0.38136,60.58217 -4.52203,-1.59565 -17.70101,-7.60287 -30.057101,-26.390937 0,0 3.983251,20.887907 30.210451,31.182967 0.23846,7.15623 0.43665,11.97323 0.43665,11.97323 3.54424,0.83393 4.7949,-0.62537 4.7949,-0.62537 0.096,-0.76803 0.10049,-2.40684 0.0387,-4.65122 23.5199,-7.90611 28.52357,-28.70657 28.52357,-28.70657 -14.97244,19.36653 -24.98993,23.86965 -28.66495,24.91331 -0.90561,-20.32299 -4.90091,-68.27758 -4.90091,-68.27758 z"
       id="path1064" />
    <path
       style="fill:#192168;stroke:none;stroke-width:0.29187706px;stroke-linecap:butt;stroke-linejoin:miter;stroke-opacity:1;fill-opacity:1"
       d="m 41.470689,127.0709 c 0,0 18.032196,21.43371 27.561311,32.17147 -8.967778,2.75844 -20.337907,-11.38492 -20.337907,-11.38492 0,0 8.585564,19.83705 23.966406,15.38682 0.716237,0.7629 1.328537,1.39716 1.684569,1.71364 0,0 2.653687,-1.03184 4.1279,-3.98024 -1.998833,-2.19226 -4.91807,-5.0638 -8.220454,-8.18681 3.044248,-11.2885 -7.553459,-23.21393 -7.553459,-23.21393 4.835615,9.78112 4.263536,16.68957 3.659293,19.57515 C 55.048053,138.71172 41.470689,127.0709 41.470689,127.0709 Z"
       id="path1062" />
    <path
       style="fill:#192168;stroke:none;stroke-width:0.29187706px;stroke-linecap:butt;stroke-linejoin:miter;stroke-opacity:1;fill-opacity:1"
       d="m 225.81959,128.7663 c -2.74027,1.58091 -17.94703,16.12529 -26.46105,24.35178 -3.92363,-6.22485 -1.10651,-19.56033 -1.10651,-19.56033 0,0 -6.97875,8.60328 -1.14644,21.73972 -1.82142,1.76703 -3.57091,3.46888 -3.57091,3.46888 0.8845,3.09583 3.53787,3.31668 3.53787,3.31668 2.80083,-2.88009 7.29042,-7.98191 11.89454,-13.33569 8.66902,0.97766 14.93592,-5.82843 14.93592,-5.82843 -4.62264,2.62649 -9.71739,2.81768 -12.27195,2.71184 7.32314,-8.5823 14.18853,-16.86445 14.18853,-16.86445 z"
       id="path1060" />
    <path
       style="fill:#192168;fill-opacity:1;stroke:none;stroke-width:0.29187706px;stroke-linecap:butt;stroke-linejoin:miter;stroke-opacity:1"
       d="m 225.02603,187.78561 c -14.80234,8.75631 -29.39634,7.29692 -29.39634,7.29692 0,0 -0.6257,1.77188 0.41672,4.79489 19.70169,-2.08485 28.97962,-12.09181 28.97962,-12.09181 z"
       id="path1058"
       inkscape:connector-curvature="0" />
    <path
       style="fill:#192168;fill-opacity:1;stroke:none;stroke-width:0.29187706px;stroke-linecap:butt;stroke-linejoin:miter;stroke-opacity:1"
       d="m 50.160308,188.02988 c 0,0 9.590263,9.27785 26.633784,11.72753 0.416975,-2.2412 -0.52103,-4.22195 -0.52103,-4.22195 -17.252008,-2.39757 -26.112754,-7.50558 -26.112754,-7.50558 z"
       id="path1056"
       inkscape:connector-curvature="0" />
    <path
       style="fill:#192168;fill-opacity:1;stroke:none;stroke-width:0.29187706px;stroke-linecap:butt;stroke-linejoin:miter;stroke-opacity:1"
       d="m 161.9595,234.69402 c -1.66786,0.10424 -2.50146,2.08533 -2.50146,2.08533 4.48238,4.27389 7.60931,6.67098 13.44686,6.67098 5.83754,0 7.29683,-3.02285 14.48953,-3.43981 7.19268,-0.41697 12.61341,1.98042 12.61341,1.98042 -4.48238,-3.9612 -10.31966,-4.69055 -15.01056,-4.69055 -4.69088,0 -9.38219,2.50171 -13.65609,2.81444 -4.27389,0.31272 -9.38169,-5.42081 -9.38169,-5.42081 z"
       id="path1054"
       inkscape:connector-curvature="0" />
    <path
       style="fill:#192168;stroke:none;stroke-width:0.29187706px;stroke-linecap:butt;stroke-linejoin:miter;stroke-opacity:1;fill-opacity:1"
       d="m 108.17829,234.46684 c -8.550363,6.26536 -12.530778,7.14951 -16.953387,7.29692 -4.42258,0.14743 -14.594438,-2.35845 -18.279941,-1.84247 -3.685502,0.51597 -11.277751,6.11802 -11.277751,6.11802 0,0 5.82327,-2.43284 10.761829,-3.02252 4.93859,-0.58969 13.120079,2.13782 19.0906,1.62185 5.970521,-0.51597 8.84539,-0.51588 18.86997,-6.92866 -0.44225,-2.2113 -2.21132,-3.24314 -2.21132,-3.24314 z"
       id="path917" />
    <g
       aria-label="DE"
       transform="matrix(0.46938488,0,0,0.46938488,-18.21149,-30.539048)"
       style="font-style:normal;font-variant:normal;font-weight:normal;font-stretch:normal;font-size:40px;line-height:1.25;font-family:'New Athletic M54';-inkscape-font-specification:'New Athletic M54';letter-spacing:0px;word-spacing:0px;fill:#192168;fill-opacity:1;stroke:none"
       id="flowRoot985">
      <path
         d="m 333.26953,464.29544 v 19.31641 q 0,2.28515 -1.73828,3.98437 -1.73828,1.69922 -3.96484,1.69922 h -10.50782 q -1.40625,0 -1.40625,-1.40625 V 460.0181 q 0,-1.40625 1.40625,-1.40625 h 10.48828 q 2.2461,0 3.98438,1.71875 1.73828,1.71875 1.73828,3.96484 z m -5.66406,19.33594 v -19.35547 h -6.26953 v 19.35547 z"
         style=""
         id="path1101" />
      <path
         d="m 349.42187,489.29544 h -7.98828 q -2.22656,0 -3.80859,-1.58203 -1.58203,-1.58203 -1.58203,-3.80859 V 460.0181 q 0,-1.40625 1.40625,-1.40625 h 11.85547 q 1.40625,0 1.40625,1.40625 v 2.87109 q 0,1.38672 -1.40625,1.38672 h -7.59766 v 6.83594 h 6.34766 q 1.40625,0 1.40625,1.40625 v 2.87109 q 0,1.40625 -1.40625,1.40625 h -6.34766 v 6.83594 h 7.71484 q 1.40625,0 1.40625,1.40625 v 2.85156 q 0,1.40625 -1.40625,1.40625 z"
         style=""
         id="path1103" />
    </g>
    <g
       aria-label="MONTREAL"
       transform="matrix(0.66597459,0,0,0.66597459,-125.12538,-100.36514)"
       style="font-style:normal;font-variant:normal;font-weight:normal;font-stretch:normal;font-size:40px;line-height:1.25;font-family:'New Athletic M54';-inkscape-font-specification:'New Athletic M54';letter-spacing:0px;word-spacing:0px;fill:#192168;fill-opacity:1;stroke:none"
       id="flowRoot993">
      <path
         d="m 335.45703,489.29544 h -2.87109 q -1.40625,0 -1.40625,-1.40625 v -15.8789 l -3.67188,7.83203 q -0.37109,0.80078 -1.26953,0.80078 -0.89844,0 -1.25,-0.80078 l -3.67187,-7.83203 v 15.8789 q 0,1.40625 -1.40625,1.40625 h -2.8711 q -1.38672,0 -1.38672,-1.40625 V 460.0181 q 0,-1.40625 1.38672,-1.40625 h 3.37891 q 0.8789,0 1.26953,0.82031 l 4.55078,9.72656 4.57031,-9.72656 q 0.3711,-0.82031 1.26953,-0.82031 h 3.37891 q 1.40625,0 1.40625,1.40625 v 27.87109 q 0,1.40625 -1.40625,1.40625 z"
         style=""
         id="path1084" />
      <path
         d="m 351.76562,489.29544 h -6.46484 q -2.26562,0 -3.96484,-1.67969 -1.69922,-1.67968 -1.69922,-3.94531 v -19.41406 q 0,-2.24609 1.69922,-3.94531 1.71875,-1.69922 3.96484,-1.69922 h 6.44531 q 2.2461,0 3.96485,1.69922 1.73828,1.69922 1.73828,3.96484 v 19.375 q 0,2.26563 -1.73828,3.96484 -1.71875,1.67969 -3.94532,1.67969 z m 0,-5.66406 v -19.35547 h -6.46484 v 19.35547 z"
         style=""
         id="path1086" />
      <path
         d="m 371.66797,488.397 -5.83985,-15.17578 v 14.66797 q 0,1.40625 -1.40625,1.40625 h -2.83203 q -1.40625,0 -1.40625,-1.40625 V 460.0181 q 0,-1.40625 1.40625,-1.40625 h 3.71094 q 0.9375,0 1.30859,0.89844 l 5.85938,15.19531 v -14.6875 q 0,-1.40625 1.40625,-1.40625 h 2.8125 q 1.40625,0 1.40625,1.40625 v 27.85156 q 0,1.38672 -1.38672,1.38672 l -3.71094,0.0195 q -0.97656,0.0195 -1.32812,-0.87891 z"
         style=""
         id="path1088" />
      <path
         d="m 396.33594,464.27591 h -4.21875 v 23.61328 q 0,1.40625 -1.40625,1.40625 h -2.8711 q -1.40625,0 -1.40625,-1.40625 v -23.61328 h -4.21875 q -1.40625,0 -1.40625,-1.38672 v -2.87109 q 0,-1.40625 1.40625,-1.40625 h 14.1211 q 1.40625,0 1.40625,1.40625 v 2.87109 q 0,1.38672 -1.40625,1.38672 z"
         style=""
         id="path1090" />
      <path
         d="m 416.70703,489.29544 h -3.06641 q -0.9375,0 -1.28906,-0.89844 l -4.49219,-11.60156 h -1.67968 v 11.09375 q 0,1.40625 -1.40625,1.40625 h -2.8711 q -1.40625,0 -1.40625,-1.40625 V 460.0181 q 0,-1.40625 1.40625,-1.40625 h 9.98047 q 2.2461,0 3.98438,1.71875 1.73828,1.69922 1.73828,3.96484 v 6.79688 q 0,1.79687 -1.11328,3.26172 -1.11328,1.46484 -2.73438,2.07031 l 4.25781,10.95703 q 0.27344,0.72266 -0.13671,1.30859 -0.42969,0.60547 -1.17188,0.60547 z m -4.78516,-18.18359 v -6.83594 h -5.74218 v 6.83594 z"
         style=""
         id="path1092" />
      <path
         d="m 434.42187,489.29544 h -7.98828 q -2.22656,0 -3.80859,-1.58203 -1.58203,-1.58203 -1.58203,-3.80859 V 460.0181 q 0,-1.40625 1.40625,-1.40625 h 11.85547 q 1.40625,0 1.40625,1.40625 v 2.87109 q 0,1.38672 -1.40625,1.38672 h -7.59766 v 6.83594 h 6.34766 q 1.40625,0 1.40625,1.40625 v 2.87109 q 0,1.40625 -1.40625,1.40625 h -6.34766 v 6.83594 h 7.71484 q 1.40625,0 1.40625,1.40625 v 2.85156 q 0,1.40625 -1.40625,1.40625 z"
         style=""
         id="path1094" />
      <path
         d="m 452.56641,488.16263 -1.13282,-5.70313 h -5.9375 l -1.13281,5.70313 q -0.23437,1.13281 -1.38672,1.13281 h -2.91015 q -0.6836,0 -1.09375,-0.50781 -0.42969,-0.48828 -0.29297,-1.17188 l 5.58593,-27.87109 q 0.21485,-1.13281 1.36719,-1.13281 h 5.66406 q 1.15235,0 1.38672,1.13281 l 5.56641,27.87109 q 0.11719,0.6836 -0.29297,1.17188 -0.42969,0.50781 -1.07422,0.50781 h -2.92969 q -1.17187,0 -1.38671,-1.13281 z m -2.26563,-11.36719 -1.83594,-9.17969 -1.83593,9.17969 z"
         style=""
         id="path1096" />
      <path
         d="m 473.77734,489.29544 h -7.24609 q -2.22656,0 -3.82813,-1.58203 -1.58203,-1.58203 -1.58203,-3.80859 V 460.0181 q 0,-1.40625 1.40625,-1.40625 h 2.8711 q 1.40625,0 1.40625,1.40625 v 23.61328 h 6.97265 q 1.38672,0 1.38672,1.40625 v 2.85156 q 0,1.40625 -1.38672,1.40625 z"
         style=""
         id="path1098" />
    </g>
    <g
       aria-label="LES"
       transform="matrix(0.36485885,0,0,0.36485885,-30.783276,-18.93471)"
       style="font-style:normal;font-variant:normal;font-weight:normal;font-stretch:normal;font-size:40px;line-height:1.25;font-family:'New Athletic M54';-inkscape-font-specification:'New Athletic M54';letter-spacing:0px;word-spacing:0px;fill:#192168;fill-opacity:1;stroke:none"
       id="flowRoot1019">
      <path
         d="m 328.30859,489.29544 h -7.24609 q -2.22656,0 -3.82813,-1.58203 -1.58203,-1.58203 -1.58203,-3.80859 V 460.0181 q 0,-1.40625 1.40625,-1.40625 h 2.8711 q 1.40625,0 1.40625,1.40625 v 23.61328 h 6.97265 q 1.38672,0 1.38672,1.40625 v 2.85156 q 0,1.40625 -1.38672,1.40625 z"
         style=""
         id="path1077" />
      <path
         d="m 345.82812,489.29544 h -7.98828 q -2.22656,0 -3.80859,-1.58203 -1.58203,-1.58203 -1.58203,-3.80859 V 460.0181 q 0,-1.40625 1.40625,-1.40625 h 11.85547 q 1.40625,0 1.40625,1.40625 v 2.87109 q 0,1.38672 -1.40625,1.38672 h -7.59766 v 6.83594 h 6.34766 q 1.40625,0 1.40625,1.40625 v 2.87109 q 0,1.40625 -1.40625,1.40625 h -6.34766 v 6.83594 h 7.71484 q 1.40625,0 1.40625,1.40625 v 2.85156 q 0,1.40625 -1.40625,1.40625 z"
         style=""
         id="path1079" />
      <path
         d="m 361.33594,489.29544 h -5.70313 q -2.26562,0 -3.98437,-1.67969 -1.69922,-1.69921 -1.69922,-3.98437 v -1.07422 q 0,-1.40625 1.38672,-1.40625 h 2.87109 q 1.40625,0 1.40625,1.40625 v 1.07422 h 5.72266 v -6.83594 h -5.70313 q -2.26562,0 -3.98437,-1.69922 -1.69922,-1.69922 -1.69922,-3.96484 v -6.85547 q 0,-2.24609 1.69922,-3.94531 1.71875,-1.71875 3.98437,-1.71875 h 5.70313 q 2.24609,0 3.94531,1.69922 Q 367,462.01029 367,464.25638 v 0.9375 q 0,1.38672 -1.38672,1.38672 h -2.87109 q -1.40625,0 -1.40625,-1.38672 v -0.91797 h -5.72266 v 6.83594 h 5.72266 q 2.24609,0 3.94531,1.69922 Q 367,474.51029 367,476.75638 v 6.89453 q 0,2.28516 -1.71875,3.96484 -1.69922,1.67969 -3.94531,1.67969 z"
         style=""
         id="path1081" />
    </g>
    <g
       aria-label="CANADIENS"
       style="font-style:normal;font-variant:normal;font-weight:normal;font-stretch:normal;font-size:24.0160141px;line-height:1.25;font-family:'New Athletic M54';-inkscape-font-specification:'New Athletic M54';letter-spacing:0px;word-spacing:0px;fill:#192168;fill-opacity:1;stroke:none;stroke-width:0.60040033"
       id="text1027"
       transform="matrix(1.1092176,0,0,1.1092176,-10.944128,-13.051789)">
      <path
         d="m 94.347948,181.90209 q -0.29208,1.1687 -1.296914,1.85981 l -2.985518,2.05342 q -1.111116,0.76421 -2.53286,0.51808 -1.418729,-0.26244 -2.189589,-1.38321 l -6.598833,-9.59424 q -0.764216,-1.11112 -0.492117,-2.53649 0.2721,-1.42537 1.383215,-2.18959 l 2.966194,-2.04012 q 1.111115,-0.76422 2.555813,-0.50541 1.454359,0.25216 2.218574,1.36328 l 0.305686,0.44445 q 0.47182,0.68599 -0.223835,1.16445 l -1.420295,0.97687 q -0.685992,0.47182 -1.157812,-0.21417 l -0.312332,-0.45411 -3.014503,2.07335 6.585542,9.57491 3.014504,-2.07335 -0.365495,-0.5314 q -0.478465,-0.69565 0.207528,-1.16747 l 1.420295,-0.97687 q 0.695655,-0.47847 1.17412,0.21719 l 0.365494,0.5314 q 0.837314,1.2174 0.393138,2.88922 z"
         style="stroke-width:0.60040033"
         id="path1033"
         inkscape:connector-curvature="0" />
      <path
         d="m 104.25057,177.01823 -2.05279,-2.82374 -3.23659,1.49426 0.817767,3.39392 q 0.157329,0.67649 -0.470826,0.9665 l -1.586356,0.73238 q -0.372634,0.17204 -0.724013,-0.002 -0.357111,-0.15803 -0.45462,-0.56507 l -3.969219,-16.59861 q -0.167975,-0.67157 0.460179,-0.96158 l 3.08754,-1.42544 q 0.628155,-0.29001 1.041004,0.26852 l 10.048474,13.79195 q 0.23592,0.34315 0.13522,0.71254 -0.10643,0.38495 -0.45777,0.54715 l -1.597,0.7373 q -0.6388,0.29492 -1.041,-0.26852 z m -4.09574,-5.62619 -3.310992,-4.54191 1.309415,5.46599 z"
         style="stroke-width:0.60040033"
         id="path1035"
         inkscape:connector-curvature="0" />
      <path
         d="m 115.82098,173.36359 -5.7159,-7.9147 2.24798,8.51492 q 0.21552,0.81634 -0.60082,1.03186 l -1.64402,0.43403 q -0.81635,0.21552 -1.03187,-0.60082 l -4.27147,-16.17947 q -0.21552,-0.81634 0.60083,-1.03186 l 2.15423,-0.56873 q 0.54423,-0.14368 0.89735,0.321 l 5.73023,7.92304 -2.25097,-8.52625 q -0.21552,-0.81634 0.60082,-1.03186 l 1.63269,-0.43104 q 0.81634,-0.21552 1.03186,0.60082 l 4.26848,16.16813 q 0.21252,0.80501 -0.59248,1.01753 l -2.15125,0.58007 q -0.56391,0.16101 -0.90569,-0.30667 z"
         style="stroke-width:0.60040033"
         id="path1037"
         inkscape:connector-curvature="0" />
      <path
         d="m 129.64788,171.19547 -0.96181,-3.35594 -3.55259,0.29568 -0.39379,3.46877 q -0.0838,0.68947 -0.7733,0.74686 l -1.74124,0.14492 q -0.40902,0.034 -0.67971,-0.24937 -0.28142,-0.27076 -0.23365,-0.68658 l 1.95429,-16.95433 q 0.0721,-0.6885 0.76161,-0.74588 l 3.38899,-0.28207 q 0.68949,-0.0574 0.88613,0.60874 l 4.71851,16.39895 q 0.10416,0.40318 -0.11693,0.71576 -0.23181,0.32524 -0.61745,0.35734 l -1.75293,0.14589 q -0.70117,0.0584 -0.88613,-0.60874 z m -1.92167,-6.68852 -1.55564,-5.40107 -0.64136,5.58393 z"
         style="stroke-width:0.60040033"
         id="path1039"
         inkscape:connector-curvature="0" />
      <path
         d="m 146.73863,157.64913 -1.0429,11.55059 q -0.12338,1.36645 -1.25456,2.28868 -1.13118,0.92222 -2.46259,0.80201 l -6.28333,-0.56732 q -0.8409,-0.0759 -0.76497,-0.91682 l 1.50477,-16.66602 q 0.0759,-0.84089 0.91682,-0.76497 l 6.27165,0.56627 q 1.3431,0.12127 2.28974,1.24288 0.94664,1.12161 0.82537,2.4647 z m -4.43089,11.25646 1.04502,-11.57395 -3.74898,-0.33849 -1.04501,11.57395 z"
         style="stroke-width:0.60040033"
         id="path1041"
         inkscape:connector-curvature="0" />
      <path
         d="m 149.52604,173.5745 -1.68735,-0.35262 q -0.82646,-0.17271 -0.65375,-0.99917 l 3.42303,-16.37997 q 0.17271,-0.82646 0.99917,-0.65375 l 1.68736,0.35262 q 0.82646,0.17271 0.65375,0.99917 l -3.42304,16.37997 q -0.17271,0.82646 -0.99917,0.65375 z"
         style="stroke-width:0.60040033"
         id="path1043"
         inkscape:connector-curvature="0" />
      <path
         d="m 159.64062,176.48768 -4.56661,-1.46604 q -1.27284,-0.40863 -1.88689,-1.60336 -0.61405,-1.19473 -0.20542,-2.46758 l 4.38378,-13.65517 q 0.25808,-0.8039 1.06198,-0.54582 l 6.77734,2.17576 q 0.80391,0.25808 0.54582,1.06198 l -0.52691,1.6413 q -0.2545,0.79274 -1.0584,0.53466 l -4.3433,-1.39435 -1.25456,3.90786 3.62873,1.16494 q 0.8039,0.25808 0.54582,1.06198 l -0.52692,1.64131 q -0.25808,0.8039 -1.06198,0.54582 l -3.62873,-1.16495 -1.25455,3.90786 4.41029,1.41586 q 0.80391,0.25808 0.54583,1.06198 l -0.52333,1.63014 q -0.25808,0.8039 -1.06199,0.54582 z"
         style="stroke-width:0.60040033"
         id="path1045"
         inkscape:connector-curvature="0" />
      <path
         d="m 168.40209,179.91285 0.95405,-9.71616 -3.95087,7.87069 q -0.37878,0.75458 -1.13336,0.37581 l -1.51964,-0.76282 q -0.75458,-0.37878 -0.3758,-1.13336 l 7.50717,-14.95536 q 0.37878,-0.75458 1.13336,-0.3758 l 1.99125,0.99955 q 0.50306,0.25252 0.46019,0.83457 l -0.94883,9.7319 3.95613,-7.88117 q 0.37878,-0.75458 1.13336,-0.37581 l 1.50916,0.75756 q 0.75458,0.37878 0.3758,1.13336 l -7.50191,14.94488 q -0.37352,0.7441 -1.11762,0.37058 l -1.99652,-0.98907 q -0.52927,-0.25256 -0.47592,-0.82935 z"
         style="stroke-width:0.60040033"
         id="path1047"
         inkscape:connector-curvature="0" />
      <path
         d="m 178.5322,187.03052 -2.76728,-2.01669 q -1.09933,-0.80115 -1.33934,-2.22394 -0.22364,-1.42536 0.58442,-2.53416 l 0.37985,-0.52124 q 0.49727,-0.68234 1.17014,-0.19198 l 1.39311,1.01525 q 0.68234,0.49727 0.18508,1.17961 l -0.37986,0.52123 2.77676,2.0236 2.41726,-3.31695 -2.76728,-2.01668 q -1.09933,-0.80115 -1.33244,-2.23342 -0.22363,-1.42536 0.57752,-2.52469 l 2.42417,-3.32642 q 0.79424,-1.08985 2.2196,-1.31349 1.44174,-0.2262 2.54107,0.57495 l 2.76728,2.01669 q 1.08985,0.79424 1.31349,2.2196 0.23311,1.43227 -0.56113,2.52212 l -0.33151,0.45489 q -0.49036,0.67287 -1.16323,0.18251 l -1.39311,-1.01525 q -0.68235,-0.49727 -0.19199,-1.17013 l 0.32461,-0.44542 -2.77676,-2.02359 -2.41726,3.31694 2.77675,2.02359 q 1.08986,0.79425 1.31349,2.21961 0.23311,1.43226 -0.56113,2.52212 l -2.43798,3.34537 q -0.80806,1.10881 -2.23599,1.31606 -1.41845,0.21416 -2.50831,-0.58009 z"
         style="stroke-width:0.60040033"
         id="path1049"
         inkscape:connector-curvature="0" />
    </g>
    <g
       aria-label="'"
       transform="matrix(0.30654127,0.59123143,-0.59123143,0.30654127,337.45218,-130.22723)"
       style="font-style:normal;font-variant:normal;font-weight:normal;font-stretch:normal;font-size:40px;line-height:1.25;font-family:'New Athletic M54';-inkscape-font-specification:'New Athletic M54';letter-spacing:0px;word-spacing:0px;fill:#192168;fill-opacity:1;stroke:none"
       id="flowRoot1072">
      <path
         d="m 321.45312,460.13529 v 10.83984 h -3.32031 v -10.83984 z"
         id="path1074"
         inkscape:connector-curvature="0" />
    </g>
  </g>
</svg>
