<?xml version="1.0" encoding="UTF-8" standalone="no"?>
<!-- Created with Inkscape (http://www.inkscape.org/) -->

<svg
   xmlns:dc="http://purl.org/dc/elements/1.1/"
   xmlns:cc="http://creativecommons.org/ns#"
   xmlns:rdf="http://www.w3.org/1999/02/22-rdf-syntax-ns#"
   xmlns:svg="http://www.w3.org/2000/svg"
   xmlns="http://www.w3.org/2000/svg"
   xmlns:sodipodi="http://sodipodi.sourceforge.net/DTD/sodipodi-0.dtd"
   xmlns:inkscape="http://www.inkscape.org/namespaces/inkscape"
   width="1000"
   height="1000"
   viewBox="0 0 264.58333 264.58334"
   version="1.1"
   id="svg8"
   inkscape:version="0.92.3 (2405546, 2018-03-11)"
   sodipodi:docname="njd-home.svg">
  <defs
     id="defs2" />
  <sodipodi:namedview
     id="base"
     pagecolor="#ffffff"
     bordercolor="#666666"
     borderopacity="1.0"
     inkscape:pageopacity="0.0"
     inkscape:pageshadow="2"
     inkscape:zoom="0.7"
     inkscape:cx="668.84768"
     inkscape:cy="509.53334"
     inkscape:document-units="mm"
     inkscape:current-layer="layer1"
     showgrid="false"
     units="px"
     inkscape:window-width="1920"
     inkscape:window-height="1029"
     inkscape:window-x="1920"
     inkscape:window-y="0"
     inkscape:window-maximized="1" />
  <metadata
     id="metadata5">
    <rdf:RDF>
      <cc:Work
         rdf:about="">
        <dc:format>image/svg+xml</dc:format>
        <dc:type
           rdf:resource="http://purl.org/dc/dcmitype/StillImage" />
        <dc:title></dc:title>
      </cc:Work>
    </rdf:RDF>
  </metadata>
  <g
     inkscape:label="Layer 1"
     inkscape:groupmode="layer"
     id="layer1"
     transform="translate(0,-32.41665)">
    <rect
       style="opacity:1;fill:#ce1126;fill-opacity:1;stroke:none;stroke-width:7.9369998;stroke-linecap:butt;stroke-linejoin:round;stroke-miterlimit:4;stroke-dasharray:none;stroke-opacity:1;paint-order:normal"
       id="rect957"
       width="281.59229"
       height="280.08035"
       x="-6.8035712"
       y="26.36903" />
    <path
       style="opacity:1;fill:#000000;fill-opacity:1;stroke:none;stroke-width:9.78370762;stroke-linecap:butt;stroke-linejoin:round;stroke-miterlimit:4;stroke-dasharray:none;stroke-opacity:1;paint-order:normal"
       d="m 73.686683,106.12186 c 0,0 -46.824907,11.41551 -59.404743,51.95057 -12.5798359,40.53506 6.988487,74.77999 75.47879,74.77999 h 86.19569 c 68.49033,0 88.05865,-34.24493 75.47881,-74.77999 -12.57986,-40.53506 -59.40473,-51.95057 -59.40473,-51.95057 30.51779,40.06915 -0.46577,47.98969 -16.07408,47.98969 H 89.76073 c -15.608313,0 -46.591844,-7.92054 -16.074047,-47.98969 z"
       id="rect915"
       inkscape:connector-curvature="0" />
    <g
       aria-label="NEW JERSEY"
       transform="matrix(0.3447853,0,0,0.3447853,-15.052532,-8.4482487)"
       style="font-style:normal;font-weight:normal;font-size:40px;line-height:1.25;font-family:sans-serif;letter-spacing:0px;word-spacing:0px;fill:#ce1126;fill-opacity:1;stroke:none"
       id="flowRoot941">
      <path
         d="M 227.98633,571.58367 213.9707,535.16179 v 35.20313 q 0,3.375 -3.375,3.375 h -6.79687 q -3.375,0 -3.375,-3.375 v -66.89063 q 0,-3.375 3.375,-3.375 h 8.90625 q 2.25,0 3.14062,2.15625 l 14.0625,36.46875 v -35.25 q 0,-3.375 3.375,-3.375 h 6.75 q 3.375,0 3.375,3.375 v 66.84375 q 0,3.32813 -3.32812,3.32813 l -8.90625,0.0469 q -2.34375,0.0469 -3.1875,-2.10937 z"
         style="font-style:normal;font-variant:normal;font-weight:normal;font-stretch:normal;font-size:96px;font-family:'New Athletic M54';-inkscape-font-specification:'New Athletic M54';fill:#ce1126;fill-opacity:1"
         id="path976" />
      <path
         d="m 282.0332,573.73992 h -19.17187 q -5.34375,0 -9.14063,-3.79688 -3.79687,-3.79687 -3.79687,-9.14062 v -57.32813 q 0,-3.375 3.375,-3.375 h 28.45312 q 3.375,0 3.375,3.375 v 6.89063 q 0,3.32812 -3.375,3.32812 h -18.23437 v 16.40625 h 15.23437 q 3.375,0 3.375,3.375 v 6.89063 q 0,3.375 -3.375,3.375 h -15.23437 v 16.40625 h 18.51562 q 3.375,0 3.375,3.375 v 6.84375 q 0,3.375 -3.375,3.375 z"
         style="font-style:normal;font-variant:normal;font-weight:normal;font-stretch:normal;font-size:96px;font-family:'New Athletic M54';-inkscape-font-specification:'New Athletic M54';fill:#ce1126;fill-opacity:1"
         id="path978" />
      <path
         d="m 356.0957,504.03679 -11.25,66.9375 q -0.51562,2.76563 -3.28125,2.76563 h -8.29687 q -2.8125,0 -3.28125,-2.67188 l -5.85938,-29.15625 -5.85937,29.15625 q -0.5625,2.67188 -3.28125,2.67188 h -8.29688 q -2.85937,0 -3.32812,-2.76563 l -11.15625,-66.9375 q -0.28125,-1.5 0.75,-2.71875 0.98437,-1.21875 2.57812,-1.21875 h 7.03125 q 2.90625,0 3.32813,2.85938 l 5.15625,34.78125 6.89062,-34.92188 q 0.51563,-2.71875 3.32813,-2.71875 h 5.76562 q 2.71875,0 3.28125,2.71875 l 6.84375,34.96875 5.15625,-34.82812 q 0.375,-2.85938 3.32813,-2.85938 h 7.125 q 1.5,0 2.57812,1.21875 0.9375,1.125 0.75,2.71875 z"
         style="font-style:normal;font-variant:normal;font-weight:normal;font-stretch:normal;font-size:96px;font-family:'New Athletic M54';-inkscape-font-specification:'New Athletic M54';fill:#ce1126;fill-opacity:1"
         id="path980" />
      <path
         d="m 412.1582,573.73992 h -12.28125 q -5.4375,0 -9.5625,-4.03125 -4.07812,-4.07813 -4.07812,-9.51563 v -2.625 q 0,-3.375 3.375,-3.375 h 6.89062 q 3.32813,0 3.32813,3.375 v 2.57813 h 12.375 v -56.67188 q 0,-3.375 3.32812,-3.375 h 6.9375 q 3.32813,0 3.32813,3.375 v 56.67188 q 0,5.48437 -4.17188,9.5625 -4.125,4.03125 -9.46875,4.03125 z"
         style="font-style:normal;font-variant:normal;font-weight:normal;font-stretch:normal;font-size:96px;font-family:'New Athletic M54';-inkscape-font-specification:'New Athletic M54';fill:#ce1126;fill-opacity:1"
         id="path982" />
      <path
         d="m 464.4707,573.73992 h -19.17187 q -5.34375,0 -9.14063,-3.79688 -3.79687,-3.79687 -3.79687,-9.14062 v -57.32813 q 0,-3.375 3.375,-3.375 h 28.45312 q 3.375,0 3.375,3.375 v 6.89063 q 0,3.32812 -3.375,3.32812 h -18.23437 v 16.40625 h 15.23437 q 3.375,0 3.375,3.375 v 6.89063 q 0,3.375 -3.375,3.375 h -15.23437 v 16.40625 h 18.51562 q 3.375,0 3.375,3.375 v 6.84375 q 0,3.375 -3.375,3.375 z"
         style="font-style:normal;font-variant:normal;font-weight:normal;font-stretch:normal;font-size:96px;font-family:'New Athletic M54';-inkscape-font-specification:'New Athletic M54';fill:#ce1126;fill-opacity:1"
         id="path984" />
      <path
         d="m 513.26758,573.73992 h -7.35938 q -2.25,0 -3.09375,-2.15625 L 492.0332,543.73992 h -4.03125 v 26.625 q 0,3.375 -3.375,3.375 h -6.89062 q -3.375,0 -3.375,-3.375 v -66.89063 q 0,-3.375 3.375,-3.375 h 23.95312 q 5.39063,0 9.5625,4.125 4.17188,4.07813 4.17188,9.51563 v 16.3125 q 0,4.3125 -2.67188,7.82812 -2.67187,3.51563 -6.5625,4.96875 l 10.21875,26.29688 q 0.65625,1.73437 -0.32812,3.14062 -1.03125,1.45313 -2.8125,1.45313 z M 501.7832,530.09929 v -16.40625 h -13.78125 v 16.40625 z"
         style="font-style:normal;font-variant:normal;font-weight:normal;font-stretch:normal;font-size:96px;font-family:'New Athletic M54';-inkscape-font-specification:'New Athletic M54';fill:#ce1126;fill-opacity:1"
         id="path986" />
      <path
         d="m 551.00195,573.73992 h -13.6875 q -5.4375,0 -9.5625,-4.03125 -4.07812,-4.07813 -4.07812,-9.5625 v -2.57813 q 0,-3.375 3.32812,-3.375 h 6.89063 q 3.375,0 3.375,3.375 v 2.57813 h 13.73437 v -16.40625 h -13.6875 q -5.4375,0 -9.5625,-4.07813 -4.07812,-4.07812 -4.07812,-9.51562 v -16.45313 q 0,-5.39062 4.07812,-9.46875 4.125,-4.125 9.5625,-4.125 h 13.6875 q 5.39063,0 9.46875,4.07813 4.125,4.07812 4.125,9.46875 v 2.25 q 0,3.32812 -3.32812,3.32812 h -6.89063 q -3.375,0 -3.375,-3.32812 v -2.20313 h -13.73437 v 16.40625 h 13.73437 q 5.39063,0 9.46875,4.07813 4.125,4.07812 4.125,9.46875 v 16.54687 q 0,5.48438 -4.125,9.51563 -4.07812,4.03125 -9.46875,4.03125 z"
         style="font-style:normal;font-variant:normal;font-weight:normal;font-stretch:normal;font-size:96px;font-family:'New Athletic M54';-inkscape-font-specification:'New Athletic M54';fill:#ce1126;fill-opacity:1"
         id="path988" />
      <path
         d="m 603.2207,573.73992 h -19.17187 q -5.34375,0 -9.14063,-3.79688 -3.79687,-3.79687 -3.79687,-9.14062 v -57.32813 q 0,-3.375 3.375,-3.375 h 28.45312 q 3.375,0 3.375,3.375 v 6.89063 q 0,3.32812 -3.375,3.32812 h -18.23437 v 16.40625 h 15.23437 q 3.375,0 3.375,3.375 v 6.89063 q 0,3.375 -3.375,3.375 h -15.23437 v 16.40625 h 18.51562 q 3.375,0 3.375,3.375 v 6.84375 q 0,3.375 -3.375,3.375 z"
         style="font-style:normal;font-variant:normal;font-weight:normal;font-stretch:normal;font-size:96px;font-family:'New Athletic M54';-inkscape-font-specification:'New Athletic M54';fill:#ce1126;fill-opacity:1"
         id="path990" />
      <path
         d="m 642.26758,546.59929 v 23.76563 q 0,3.375 -3.375,3.375 h -7.03125 q -3.375,0 -3.375,-3.375 V 546.50554 L 613.7207,504.59929 q -0.60937,-1.64062 0.42188,-3.09375 1.07812,-1.40625 2.76562,-1.40625 h 6.84375 q 2.39063,0 3.1875,2.29688 l 8.48438,25.125 8.34375,-25.125 q 0.75,-2.29688 3.1875,-2.29688 h 7.26562 q 1.6875,0 2.71875,1.45313 0.98438,1.40625 0.42188,3.04687 z"
         style="font-style:normal;font-variant:normal;font-weight:normal;font-stretch:normal;font-size:96px;font-family:'New Athletic M54';-inkscape-font-specification:'New Athletic M54';fill:#ce1126;fill-opacity:1"
         id="path992" />
    </g>
    <g
       aria-label="DEVILS"
       transform="matrix(0.3447853,0,0,0.3447853,21.564989,23.384448)"
       style="font-style:normal;font-weight:normal;font-size:40px;line-height:1.25;font-family:sans-serif;letter-spacing:0px;word-spacing:0px;fill:#ce1126;fill-opacity:1;stroke:none"
       id="flowRoot955">
      <path
         d="m 242.70508,513.73992 v 46.35937 q 0,5.48438 -4.17188,9.5625 -4.17187,4.07813 -9.51562,4.07813 h -25.21875 q -3.375,0 -3.375,-3.375 v -66.89063 q 0,-3.375 3.375,-3.375 h 25.17187 q 5.39063,0 9.5625,4.125 4.17188,4.125 4.17188,9.51563 z m -13.59375,46.40625 v -46.45313 h -15.04688 v 46.45313 z"
         style="font-style:normal;font-variant:normal;font-weight:normal;font-stretch:normal;font-size:96px;font-family:'New Athletic M54';-inkscape-font-specification:'New Athletic M54';fill:#ce1126;fill-opacity:1"
         id="path963" />
      <path
         d="m 281.4707,573.73992 h -19.17187 q -5.34375,0 -9.14063,-3.79688 -3.79687,-3.79687 -3.79687,-9.14062 v -57.32813 q 0,-3.375 3.375,-3.375 h 28.45312 q 3.375,0 3.375,3.375 v 6.89063 q 0,3.32812 -3.375,3.32812 h -18.23437 v 16.40625 h 15.23437 q 3.375,0 3.375,3.375 v 6.89063 q 0,3.375 -3.375,3.375 h -15.23437 v 16.40625 h 18.51562 q 3.375,0 3.375,3.375 v 6.84375 q 0,3.375 -3.375,3.375 z"
         style="font-style:normal;font-variant:normal;font-weight:normal;font-stretch:normal;font-size:96px;font-family:'New Athletic M54';-inkscape-font-specification:'New Athletic M54';fill:#ce1126;fill-opacity:1"
         id="path965" />
      <path
         d="m 314.23633,542.56804 q 2.85937,-12.9375 4.59375,-20.625 1.73437,-7.6875 4.26562,-19.21875 0.60938,-2.625 3.32813,-2.625 h 7.03125 q 1.64062,0 2.625,1.26563 0.98437,1.3125 0.65625,2.8125 l -14.95313,66.98437 q -0.5625,2.57813 -3.28125,2.57813 h -8.57812 q -2.71875,0 -3.23438,-2.57813 l -14.95312,-66.98437 q -0.375,-1.5 0.65625,-2.8125 0.98437,-1.26563 2.625,-1.26563 h 7.03125 q 2.67187,0 3.32812,2.625 2.53125,11.53125 4.21875,19.21875 1.6875,7.6875 4.64063,20.625 z"
         style="font-style:normal;font-variant:normal;font-weight:normal;font-stretch:normal;font-size:96px;font-family:'New Athletic M54';-inkscape-font-specification:'New Athletic M54';fill:#ce1126;fill-opacity:1"
         id="path967" />
      <path
         d="m 353.93945,573.73992 h -6.89062 q -3.375,0 -3.375,-3.375 v -66.89063 q 0,-3.375 3.375,-3.375 h 6.89062 q 3.375,0 3.375,3.375 v 66.89063 q 0,3.375 -3.375,3.375 z"
         style="font-style:normal;font-variant:normal;font-weight:normal;font-stretch:normal;font-size:96px;font-family:'New Athletic M54';-inkscape-font-specification:'New Athletic M54';fill:#ce1126;fill-opacity:1"
         id="path969" />
      <path
         d="M 394.29883,573.73992 H 376.9082 q -5.34375,0 -9.1875,-3.79688 -3.79687,-3.79687 -3.79687,-9.14062 v -57.32813 q 0,-3.375 3.375,-3.375 h 6.89062 q 3.375,0 3.375,3.375 v 56.67188 h 16.73438 q 3.32812,0 3.32812,3.375 v 6.84375 q 0,3.375 -3.32812,3.375 z"
         style="font-style:normal;font-variant:normal;font-weight:normal;font-stretch:normal;font-size:96px;font-family:'New Athletic M54';-inkscape-font-specification:'New Athletic M54';fill:#ce1126;fill-opacity:1"
         id="path971" />
      <path
         d="m 431.56445,573.73992 h -13.6875 q -5.4375,0 -9.5625,-4.03125 -4.07812,-4.07813 -4.07812,-9.5625 v -2.57813 q 0,-3.375 3.32812,-3.375 h 6.89063 q 3.375,0 3.375,3.375 v 2.57813 h 13.73437 v -16.40625 h -13.6875 q -5.4375,0 -9.5625,-4.07813 -4.07812,-4.07812 -4.07812,-9.51562 v -16.45313 q 0,-5.39062 4.07812,-9.46875 4.125,-4.125 9.5625,-4.125 h 13.6875 q 5.39063,0 9.46875,4.07813 4.125,4.07812 4.125,9.46875 v 2.25 q 0,3.32812 -3.32812,3.32812 h -6.89063 q -3.375,0 -3.375,-3.32812 v -2.20313 h -13.73437 v 16.40625 h 13.73437 q 5.39063,0 9.46875,4.07813 4.125,4.07812 4.125,9.46875 v 16.54687 q 0,5.48438 -4.125,9.51563 -4.07812,4.03125 -9.46875,4.03125 z"
         style="font-style:normal;font-variant:normal;font-weight:normal;font-stretch:normal;font-size:96px;font-family:'New Athletic M54';-inkscape-font-specification:'New Athletic M54';fill:#ce1126;fill-opacity:1"
         id="path973" />
    </g>
  </g>
</svg>
