<?xml version="1.0" encoding="UTF-8" standalone="no"?>
<!-- Created with Inkscape (http://www.inkscape.org/) -->

<svg
   xmlns:dc="http://purl.org/dc/elements/1.1/"
   xmlns:cc="http://creativecommons.org/ns#"
   xmlns:rdf="http://www.w3.org/1999/02/22-rdf-syntax-ns#"
   xmlns:svg="http://www.w3.org/2000/svg"
   xmlns="http://www.w3.org/2000/svg"
   xmlns:sodipodi="http://sodipodi.sourceforge.net/DTD/sodipodi-0.dtd"
   xmlns:inkscape="http://www.inkscape.org/namespaces/inkscape"
   width="1000"
   height="1000"
   viewBox="0 0 264.58333 264.58334"
   version="1.1"
   id="svg8"
   inkscape:version="0.92.3 (2405546, 2018-03-11)"
   sodipodi:docname="nyi-road.svg">
  <defs
     id="defs2" />
  <sodipodi:namedview
     id="base"
     pagecolor="#ffffff"
     bordercolor="#666666"
     borderopacity="1.0"
     inkscape:pageopacity="0.0"
     inkscape:pageshadow="2"
     inkscape:zoom="0.7"
     inkscape:cx="486.54082"
     inkscape:cy="466.23615"
     inkscape:document-units="mm"
     inkscape:current-layer="layer1"
     showgrid="false"
     units="px"
     inkscape:snap-global="false"
     inkscape:window-width="1920"
     inkscape:window-height="1029"
     inkscape:window-x="1920"
     inkscape:window-y="0"
     inkscape:window-maximized="1" />
  <metadata
     id="metadata5">
    <rdf:RDF>
      <cc:Work
         rdf:about="">
        <dc:format>image/svg+xml</dc:format>
        <dc:type
           rdf:resource="http://purl.org/dc/dcmitype/StillImage" />
        <dc:title />
      </cc:Work>
    </rdf:RDF>
  </metadata>
  <g
     inkscape:label="Layer 1"
     inkscape:groupmode="layer"
     id="layer1"
     transform="translate(0,-32.41665)">
    <rect
       style="opacity:1;fill:#ffffff;fill-opacity:1;stroke:none;stroke-width:6.61458302;stroke-linecap:butt;stroke-linejoin:round;stroke-miterlimit:4;stroke-dasharray:none;stroke-opacity:1;paint-order:normal"
       id="rect914"
       width="274.21854"
       height="276.35669"
       x="-1.6036172"
       y="27.05776" />
    <path
       style="fill:#f47d30;stroke:none;stroke-width:0.19311278px;stroke-linecap:butt;stroke-linejoin:miter;stroke-opacity:1;fill-opacity:1"
       d="m 192.52244,121.97729 c 0,0 4.83128,-4.14862 6.06496,-6.42095 1.23367,-2.27234 2.63591,-7.44618 5.20563,-8.78638 2.56972,-1.3402 10.32542,-3.90424 8.92423,-6.875568 -1.40121,-2.97134 -9.63364,1.025998 -12.17544,3.240148 -2.54179,2.21415 -5.19632,9.07769 -6.98117,10.45281 -1.78484,1.37511 -2.61626,-0.11637 -7.57369,4.17209 -4.95745,4.28845 -8.77584,15.60919 -17.16234,18.87241 -8.38652,3.26324 -14.64227,3.71224 -16.98759,3.89882 -2.34533,0.18658 -3.16279,-0.86793 -6.42846,-0.86773 -3.26568,1.8e-4 -7.28829,0.83941 -10.16153,0.85706 -2.87324,0.0176 -7.33949,-0.76281 -9.16156,-0.55296 -1.82209,0.20986 -3.89839,2.33303 -4.81874,2.14665 -3.55507,-4.9203 -5.48802,-5.14406 -5.98305,-4.6549 -0.64618,0.63852 2.94392,3.62928 1.72069,5.35751 -0.38526,0.54432 -1.71784,-0.19234 -3.49581,-2.82911 -1.09956,-1.6307 -0.37952,-3.39418 -1.67569,-3.35743 -6.05676,0.17172 -3.17438,6.71538 -3.19307,9.252 -0.83658,2.43545 -7.11147,6.37441 -9.732371,6.11238 -2.620918,-0.26204 -5.180321,-6.7757 -11.693033,-6.19267 -6.512738,0.58301 -1.715565,7.63256 -3.920784,8.11627 -2.205191,0.48372 -1.788979,-2.84312 -3.101768,-3.04697 -1.312783,-0.20384 -5.877271,0.0295 -6.573215,-1.31053 -0.695951,-1.34001 2.448217,-1.0547 2.270868,-2.5171 -0.177355,-1.46239 -6.731457,-6.26288 -7.904131,-6.16959 -1.172647,0.0933 -0.528916,7.97625 3.333431,18.47502 0,0 -1.588362,-0.65244 -2.443039,-2.87222 -0.854677,-2.21977 -2.470722,-5.78246 -2.917449,-1.36609 -0.44672,4.41637 -2.756632,1.62279 -3.520311,0.20704 -0.763686,-1.41574 0.542639,-5.50297 -1.575969,-6.39719 -2.118602,-0.89421 -9.918782,2.32238 -10.687627,4.83356 -0.768845,2.51118 -0.573905,12.70139 -0.573905,12.70139 0,0 -4.343728,-9.21115 -7.202997,-8.75652 -2.859276,0.45462 -2.016744,6.38284 0.276882,8.66662 2.293633,2.28377 0.987309,6.371 0.335575,6.41474 -0.651741,0.0437 -2.734421,-7.90323 -4.946604,-7.638 -2.212189,0.26523 -1.841466,5.73611 -1.47487,6.98874 0.366595,1.25264 3.29541,5.01918 1.643697,6.47294 -1.6517,1.45376 -1.048571,-2.15568 -4.169209,-3.74899 -3.120652,-1.59331 -3.064549,-1.88171 -3.907854,-1.70104 -0.843304,0.18066 -3.810124,1.35775 -4.156018,2.79687 -0.345909,1.43912 2.379717,4.97843 1.211697,5.21739 -1.168006,0.23895 -0.994792,-2.51691 -1.929101,-3.14027 -0.93431,-0.62336 -3.594518,-4.15977 -6.65958,-1.96889 -3.065048,2.19087 -5.050238,17.73849 -5.690346,18.14636 -0.640102,0.40789 -1.840687,-0.37277 -2.667699,0.3177 -0.8270252,0.69047 -2.4955234,5.70701 -2.4045323,6.51104 0.091005,0.80403 1.7354739,1.16807 1.697995,2.03911 -0.03752,0.87103 -4.9623569,6.17909 -4.3439742,11.22463 0.6183964,5.04555 5.1358505,7.42824 5.1358505,7.42824 0,0 -1.4764352,0.80703 -1.1214784,1.69553 0.3549571,0.88848 3.0177484,2.46143 5.1107624,2.55453 2.093007,0.0931 7.057434,-3.97688 8.050163,-3.5691 0.992728,0.40779 0.513709,1.76825 2.076468,1.61959 1.562779,-0.14866 1.182481,-3.87456 0.08711,-5.45051 -1.095358,-1.57596 -2.391602,-3.30629 0.246108,-6.60705 2.637717,-3.30076 4.429552,-4.45739 6.695247,-3.04755 2.265708,1.40983 4.505556,4.05484 2.89806,6.89234 -1.607502,2.8375 -0.818223,5.05437 -1.180417,5.9837 -0.362187,0.92931 -2.100238,1.7247 -2.431931,1.56449 -0.331686,-0.16019 -0.364231,-1.17981 -1.522956,-0.64953 -1.158711,0.53026 -11.75998,6.02218 -11.309371,7.86035 0.450608,1.83818 13.761989,-6.73311 16.604972,-7.69754 2.84297,-0.96444 11.31583,-3.56926 11.31583,-3.56926 0,0 -0.599766,-4.46293 2.063285,-4.92627 2.663052,-0.46336 0.912843,4.04049 1.396291,4.86196 0.48344,0.82149 3.254035,-0.36432 4.569408,-2.12395 1.315359,-1.75962 5.865898,-2.42992 7.487103,-2.79416 1.621199,-0.36423 1.460389,-3.35313 3.607181,-3.62126 2.146772,-0.26815 2.207016,3.66171 3.449741,3.71698 1.242718,0.0553 0.920593,-1.84992 1.551394,-2.54911 0.630793,-0.6992 1.19827,0.70783 1.847674,0.59127 0.64941,-0.11657 8.400465,-2.82626 12.759693,-5.39592 4.359228,-2.56967 10.059157,-4.06154 15.600864,-10.50575 0,0 4.55467,3.54794 7.67558,3.10496 3.12089,-0.44298 1.93013,-5.00491 3.35511,-5.37789 1.42497,-0.37298 1.89653,2.12067 4.24186,1.93409 2.34533,-0.18658 7.67195,-5.18587 10.13413,-5.80361 2.46217,-0.61773 3.69068,1.03687 6.80693,0.44822 3.11625,-0.58863 3.70981,-2.4531 7.07372,-3.46707 0,0 -0.49119,5.06891 2.75122,4.34044 3.2424,-0.72848 6.31676,-2.62804 6.28004,-7.86589 -0.0367,-5.23785 2.62557,0.40769 5.20926,-0.49555 2.58368,-0.90322 1.64989,-5.59918 3.86441,-5.79158 2.2145,-0.19239 2.70002,2.73821 4.38663,2.37688 1.6866,-0.36133 5.29302,2.12629 10.55862,-0.69396 5.26561,-2.82025 2.52371,-6.86936 4.44402,-8.09301 1.92031,-1.22363 6.12493,-0.45481 7.75571,-2.56402 1.63077,-2.10922 -1.09719,-5.72137 0.57081,-6.66533 1.668,-0.94397 6.3023,1.00758 6.38142,3.48375 0.0791,2.47617 -2.37378,3.38523 -1.8319,3.99113 0.54186,0.6059 7.73709,-3.14667 27.25355,-17.84177 19.51646,-14.69511 20.18863,-10.01079 37.3644,-24.37366 17.1758,-14.36287 -7.9646,-8.06314 -8.56747,-6.49 -0.60288,1.57314 2.49889,4.62011 0.45242,5.98359 -2.04647,1.36348 -2.76103,-0.55917 -3.68138,-0.74556 -0.92034,-0.18637 -2.58419,4.97584 -3.86906,5.64593 -1.28486,0.67011 -1.20058,-0.78065 -2.88254,-0.27367 -1.68197,0.50697 -2.4115,6.29256 -4.49521,6.49078 -2.08369,0.19822 -6.58564,-13.96526 -8.28621,-14.04091 -1.70057,-0.0756 -0.86087,9.85234 -2.7998,10.49335 -1.93894,0.64098 -1.96582,-8.37811 -5.34836,-7.94678 -3.38251,0.43137 -2.1333,6.15646 -2.1333,6.15646 0,0 -5.79988,3.18076 -9.68482,3.00798 -3.88495,-0.1728 -4.04362,0.64293 -6.78641,7.30896 -2.74279,6.66603 -3.99242,13.80988 -9.6747,15.20271 -5.68227,1.39284 -17.00296,-3.12181 -16.37155,-6.48773 0.6314,-3.36593 2.02839,-0.11549 4.72767,-2.36094 2.69927,-2.24548 5.0589,-9.33995 7.67555,-11.28053 2.61666,-1.94059 5.7448,0.56407 7.63792,-0.89446 1.89312,-1.45853 -0.95389,-6.72761 0.54949,-8.82056 1.50338,-2.09297 3.31315,2.51289 5.35835,0.0327 2.04521,-2.48025 -3.77424,-6.20957 -3.77424,-6.20957 z"
       id="path896"
       inkscape:connector-curvature="0"
       sodipodi:nodetypes="ccsccscsccsscsssscsscccsccccccsccscsccscccsccccccccssscscccsccscccscssssscscssscccscsscscscsscsccccscccsccsccsscc" />
    <g
       aria-label="NEW YORK"
       transform="matrix(0.48634233,-0.2270099,0.2270099,0.48634233,-799.38967,293.42619)"
       style="font-style:normal;font-variant:normal;font-weight:normal;font-stretch:normal;font-size:40px;line-height:1.25;font-family:'New Athletic M54';-inkscape-font-specification:'New Athletic M54';letter-spacing:0px;word-spacing:0px;fill:#00539b;fill-opacity:1;stroke:none"
       id="flowRoot898">
      <path
         d="m 1468.5664,499.82669 -5.8398,-15.17578 v 14.66797 q 0,1.40625 -1.4063,1.40625 h -2.832 q -1.4063,0 -1.4063,-1.40625 v -27.87109 q 0,-1.40625 1.4063,-1.40625 h 3.7109 q 0.9375,0 1.3086,0.89843 l 5.8594,15.19532 v -14.6875 q 0,-1.40625 1.4062,-1.40625 h 2.8125 q 1.4063,0 1.4063,1.40625 v 27.85156 q 0,1.38672 -1.3867,1.38672 l -3.711,0.0195 q -0.9765,0.0195 -1.3281,-0.87891 z"
         style="fill:#00539b;fill-opacity:1"
         id="path954" />
      <path
         d="m 1491.0859,500.72513 h -7.9882 q -2.2266,0 -3.8086,-1.58203 -1.5821,-1.58203 -1.5821,-3.8086 v -23.88671 q 0,-1.40625 1.4063,-1.40625 h 11.8555 q 1.4062,0 1.4062,1.40625 v 2.87109 q 0,1.38672 -1.4062,1.38672 h -7.5977 v 6.83594 h 6.3477 q 1.4062,0 1.4062,1.40625 v 2.87109 q 0,1.40625 -1.4062,1.40625 h -6.3477 v 6.83594 h 7.7148 q 1.4063,0 1.4063,1.40625 v 2.85156 q 0,1.40625 -1.4063,1.40625 z"
         style="fill:#00539b;fill-opacity:1"
         id="path956" />
      <path
         d="m 1521.9453,471.68216 -4.6875,27.89063 q -0.2148,1.15234 -1.3672,1.15234 h -3.457 q -1.1719,0 -1.3672,-1.11328 l -2.4414,-12.14844 -2.4414,12.14844 q -0.2344,1.11328 -1.3672,1.11328 h -3.457 q -1.1914,0 -1.3867,-1.15234 l -4.6485,-27.89063 q -0.1172,-0.625 0.3125,-1.13281 0.4102,-0.50781 1.0742,-0.50781 h 2.9297 q 1.211,0 1.3867,1.1914 l 2.1485,14.49219 2.8711,-14.55078 q 0.2148,-1.13281 1.3867,-1.13281 h 2.4023 q 1.1329,0 1.3672,1.13281 l 2.8516,14.57031 2.1484,-14.51172 q 0.1563,-1.1914 1.3867,-1.1914 h 2.9688 q 0.625,0 1.0742,0.50781 0.3906,0.46875 0.3125,1.13281 z"
         style="fill:#00539b;fill-opacity:1"
         id="path958" />
      <path
         d="m 1546.6523,489.41654 v 9.90234 q 0,1.40625 -1.4062,1.40625 h -2.9297 q -1.4062,0 -1.4062,-1.40625 v -9.94141 l -6.1524,-17.46093 q -0.2539,-0.6836 0.1758,-1.28907 0.4492,-0.58593 1.1523,-0.58593 h 2.8516 q 0.9961,0 1.3281,0.95703 l 3.5352,10.46875 3.4765,-10.46875 q 0.3125,-0.95703 1.3282,-0.95703 h 3.0273 q 0.7031,0 1.1328,0.60546 0.4102,0.58594 0.1758,1.26954 z"
         style="fill:#00539b;fill-opacity:1"
         id="path960" />
      <path
         d="m 1568.0391,500.72513 h -6.4649 q -2.2656,0 -3.9648,-1.67969 -1.6992,-1.67969 -1.6992,-3.94531 v -19.41406 q 0,-2.2461 1.6992,-3.94532 1.7187,-1.69921 3.9648,-1.69921 h 6.4453 q 2.2461,0 3.9649,1.69921 1.7383,1.69922 1.7383,3.96485 v 19.375 q 0,2.26562 -1.7383,3.96484 -1.7188,1.67969 -3.9453,1.67969 z m 0,-5.66406 V 475.7056 h -6.4649 v 19.35547 z"
         style="fill:#00539b;fill-opacity:1"
         id="path962" />
      <path
         d="m 1592.668,500.72513 h -3.0664 q -0.9375,0 -1.2891,-0.89844 l -4.4922,-11.60156 h -1.6797 v 11.09375 q 0,1.40625 -1.4062,1.40625 h -2.8711 q -1.4063,0 -1.4063,-1.40625 v -27.87109 q 0,-1.40625 1.4063,-1.40625 h 9.9805 q 2.246,0 3.9843,1.71875 1.7383,1.69921 1.7383,3.96484 v 6.79687 q 0,1.79688 -1.1133,3.26172 -1.1133,1.46485 -2.7343,2.07032 l 4.2578,10.95703 q 0.2734,0.72265 -0.1368,1.30859 -0.4296,0.60547 -1.1718,0.60547 z m -4.7852,-18.18359 v -6.83594 h -5.7422 v 6.83594 z"
         style="fill:#00539b;fill-opacity:1"
         id="path964" />
      <path
         d="m 1614.0742,472.07279 -6.582,13.32031 6.582,13.30078 q 0.3321,0.68359 -0.059,1.36719 -0.4101,0.66406 -1.1914,0.66406 h -3.1836 q -0.9179,0 -1.2695,-0.80078 l -5.7031,-11.69922 v 11.09375 q 0,1.40625 -1.4063,1.40625 h -2.8711 q -1.3867,0 -1.3867,-1.40625 v -27.87109 q 0,-1.40625 1.3867,-1.40625 h 2.8711 q 1.4063,0 1.4063,1.40625 v 11.09375 l 5.7031,-11.69922 q 0.3906,-0.80078 1.2695,-0.80078 h 3.1836 q 0.7617,0 1.1914,0.66406 0.3907,0.70312 0.059,1.36719 z"
         style="fill:#00539b;fill-opacity:1"
         id="path966" />
    </g>
    <g
       aria-label="ISLANDERS"
       transform="matrix(0.48634233,-0.2270099,0.2270099,0.48634233,-733.3739,285.26683)"
       style="font-style:normal;font-variant:normal;font-weight:normal;font-stretch:normal;font-size:40px;line-height:1.25;font-family:'New Athletic M54';-inkscape-font-specification:'New Athletic M54';letter-spacing:0px;word-spacing:0px;fill:#00539b;fill-opacity:1;stroke:none"
       id="flowRoot912">
      <path
         d="m 1461.3594,500.72513 h -2.8711 q -1.4063,0 -1.4063,-1.40625 v -27.87109 q 0,-1.40625 1.4063,-1.40625 h 2.8711 q 1.4062,0 1.4062,1.40625 v 27.87109 q 0,1.40625 -1.4062,1.40625 z"
         style="fill:#00539b;fill-opacity:1"
         id="path935" />
      <path
         d="m 1476.9063,500.72513 h -5.7032 q -2.2656,0 -3.9843,-1.67969 -1.6993,-1.69922 -1.6993,-3.98437 v -1.07422 q 0,-1.40625 1.3868,-1.40625 h 2.871 q 1.4063,0 1.4063,1.40625 v 1.07422 h 5.7227 v -6.83594 h -5.7032 q -2.2656,0 -3.9843,-1.69922 -1.6993,-1.69922 -1.6993,-3.96484 v -6.85547 q 0,-2.2461 1.6993,-3.94531 1.7187,-1.71875 3.9843,-1.71875 h 5.7032 q 2.246,0 3.9453,1.69921 1.7187,1.69922 1.7187,3.94532 v 0.9375 q 0,1.38672 -1.3867,1.38672 h -2.8711 q -1.4062,0 -1.4062,-1.38672 v -0.91797 h -5.7227 v 6.83594 h 5.7227 q 2.246,0 3.9453,1.69921 1.7187,1.69922 1.7187,3.94532 v 6.89453 q 0,2.28515 -1.7187,3.96484 -1.6993,1.67969 -3.9453,1.67969 z"
         style="fill:#00539b;fill-opacity:1"
         id="path937" />
      <path
         d="m 1497.9414,500.72513 h -7.2461 q -2.2265,0 -3.8281,-1.58203 -1.582,-1.58203 -1.582,-3.8086 v -23.88671 q 0,-1.40625 1.4062,-1.40625 h 2.8711 q 1.4063,0 1.4063,1.40625 v 23.61328 h 6.9726 q 1.3867,0 1.3867,1.40625 v 2.85156 q 0,1.40625 -1.3867,1.40625 z"
         style="fill:#00539b;fill-opacity:1"
         id="path939" />
      <path
         d="m 1516.1055,499.59232 -1.1328,-5.70313 h -5.9375 l -1.1329,5.70313 q -0.2343,1.13281 -1.3867,1.13281 h -2.9101 q -0.6836,0 -1.0938,-0.50781 -0.4297,-0.48828 -0.2929,-1.17188 l 5.5859,-27.87109 q 0.2148,-1.13281 1.3672,-1.13281 h 5.664 q 1.1524,0 1.3868,1.13281 l 5.5664,27.87109 q 0.1172,0.6836 -0.293,1.17188 -0.4297,0.50781 -1.0742,0.50781 h -2.9297 q -1.1719,0 -1.3867,-1.13281 z m -2.2657,-11.36719 -1.8359,-9.17969 -1.8359,9.17969 z"
         style="fill:#00539b;fill-opacity:1"
         id="path941" />
      <path
         d="m 1536.1445,499.82669 -5.8398,-15.17578 v 14.66797 q 0,1.40625 -1.4063,1.40625 h -2.832 q -1.4062,0 -1.4062,-1.40625 v -27.87109 q 0,-1.40625 1.4062,-1.40625 h 3.7109 q 0.9375,0 1.3086,0.89843 l 5.8594,15.19532 v -14.6875 q 0,-1.40625 1.4063,-1.40625 h 2.8125 q 1.4062,0 1.4062,1.40625 v 27.85156 q 0,1.38672 -1.3867,1.38672 l -3.7109,0.0195 q -0.9766,0.0195 -1.3282,-0.87891 z"
         style="fill:#00539b;fill-opacity:1"
         id="path943" />
      <path
         d="m 1562.9023,475.72513 v 19.31641 q 0,2.28515 -1.7382,3.98437 -1.7383,1.69922 -3.9649,1.69922 h -10.5078 q -1.4062,0 -1.4062,-1.40625 v -27.87109 q 0,-1.40625 1.4062,-1.40625 h 10.4883 q 2.2461,0 3.9844,1.71875 1.7382,1.71875 1.7382,3.96484 z m -5.664,19.33594 V 475.7056 h -6.2695 v 19.35547 z"
         style="fill:#00539b;fill-opacity:1"
         id="path945" />
      <path
         d="m 1579.0547,500.72513 h -7.9883 q -2.2266,0 -3.8086,-1.58203 -1.582,-1.58203 -1.582,-3.8086 v -23.88671 q 0,-1.40625 1.4062,-1.40625 h 11.8555 q 1.4063,0 1.4063,1.40625 v 2.87109 q 0,1.38672 -1.4063,1.38672 h -7.5977 v 6.83594 h 6.3477 q 1.4063,0 1.4063,1.40625 v 2.87109 q 0,1.40625 -1.4063,1.40625 h -6.3477 v 6.83594 h 7.7149 q 1.4062,0 1.4062,1.40625 v 2.85156 q 0,1.40625 -1.4062,1.40625 z"
         style="fill:#00539b;fill-opacity:1"
         id="path947" />
      <path
         d="m 1599.3867,500.72513 h -3.0664 q -0.9375,0 -1.289,-0.89844 l -4.4922,-11.60156 h -1.6797 v 11.09375 q 0,1.40625 -1.4063,1.40625 h -2.8711 q -1.4062,0 -1.4062,-1.40625 v -27.87109 q 0,-1.40625 1.4062,-1.40625 h 9.9805 q 2.2461,0 3.9844,1.71875 1.7383,1.69921 1.7383,3.96484 v 6.79687 q 0,1.79688 -1.1133,3.26172 -1.1133,1.46485 -2.7344,2.07032 l 4.2578,10.95703 q 0.2735,0.72265 -0.1367,1.30859 -0.4297,0.60547 -1.1719,0.60547 z m -4.7851,-18.18359 v -6.83594 h -5.7422 v 6.83594 z"
         style="fill:#00539b;fill-opacity:1"
         id="path949" />
      <path
         d="m 1615.1094,500.72513 h -5.7031 q -2.2657,0 -3.9844,-1.67969 -1.6992,-1.69922 -1.6992,-3.98437 v -1.07422 q 0,-1.40625 1.3867,-1.40625 h 2.8711 q 1.4062,0 1.4062,1.40625 v 1.07422 h 5.7227 v -6.83594 h -5.7031 q -2.2657,0 -3.9844,-1.69922 -1.6992,-1.69922 -1.6992,-3.96484 v -6.85547 q 0,-2.2461 1.6992,-3.94531 1.7187,-1.71875 3.9844,-1.71875 h 5.7031 q 2.2461,0 3.9453,1.69921 1.7187,1.69922 1.7187,3.94532 v 0.9375 q 0,1.38672 -1.3867,1.38672 h -2.8711 q -1.4062,0 -1.4062,-1.38672 v -0.91797 h -5.7227 v 6.83594 h 5.7227 q 2.2461,0 3.9453,1.69921 1.7187,1.69922 1.7187,3.94532 v 6.89453 q 0,2.28515 -1.7187,3.96484 -1.6992,1.67969 -3.9453,1.67969 z"
         style="fill:#00539b;fill-opacity:1"
         id="path951" />
    </g>
  </g>
</svg>
