<?xml version="1.0" encoding="UTF-8" standalone="no"?>
<!-- Created with Inkscape (http://www.inkscape.org/) -->

<svg
   xmlns:dc="http://purl.org/dc/elements/1.1/"
   xmlns:cc="http://creativecommons.org/ns#"
   xmlns:rdf="http://www.w3.org/1999/02/22-rdf-syntax-ns#"
   xmlns:svg="http://www.w3.org/2000/svg"
   xmlns="http://www.w3.org/2000/svg"
   xmlns:sodipodi="http://sodipodi.sourceforge.net/DTD/sodipodi-0.dtd"
   xmlns:inkscape="http://www.inkscape.org/namespaces/inkscape"
   width="1000"
   height="1000"
   viewBox="0 0 264.58333 264.58334"
   version="1.1"
   id="svg8"
   inkscape:version="0.92.3 (2405546, 2018-03-11)"
   sodipodi:docname="nyr-road.svg">
  <defs
     id="defs2" />
  <sodipodi:namedview
     id="base"
     pagecolor="#ffffff"
     bordercolor="#666666"
     borderopacity="1.0"
     inkscape:pageopacity="0.0"
     inkscape:pageshadow="2"
     inkscape:zoom="0.7"
     inkscape:cx="171.75725"
     inkscape:cy="474.9151"
     inkscape:document-units="mm"
     inkscape:current-layer="layer1"
     showgrid="false"
     units="px"
     inkscape:snap-smooth-nodes="true"
     inkscape:window-width="1920"
     inkscape:window-height="1029"
     inkscape:window-x="1920"
     inkscape:window-y="0"
     inkscape:window-maximized="1" />
  <metadata
     id="metadata5">
    <rdf:RDF>
      <cc:Work
         rdf:about="">
        <dc:format>image/svg+xml</dc:format>
        <dc:type
           rdf:resource="http://purl.org/dc/dcmitype/StillImage" />
        <dc:title />
      </cc:Work>
    </rdf:RDF>
  </metadata>
  <g
     inkscape:label="Layer 1"
     inkscape:groupmode="layer"
     id="layer1"
     transform="translate(0,-32.41665)">
    <rect
       style="opacity:1;fill:#ffffff;fill-opacity:1;stroke:none;stroke-width:0.13229166;stroke-linecap:butt;stroke-linejoin:round;stroke-miterlimit:4;stroke-dasharray:none;stroke-opacity:1;paint-order:normal"
       id="rect954"
       width="276.35669"
       height="280.633"
       x="-6.9490075"
       y="24.385065" />
    <path
       style="opacity:1;fill:#0038a8;fill-opacity:1;stroke:none;stroke-width:0.13774075;stroke-linecap:butt;stroke-linejoin:round;stroke-miterlimit:4;stroke-dasharray:none;stroke-opacity:1;paint-order:normal"
       d="m 11.760099,66.057208 29.496962,37.469252 v 113.90138 c 10e-7,14.4537 11.717041,26.17074 26.170743,26.17074 h 34.455626 c 15.25571,0.0168 28.4006,2.8115 31.46895,17.75547 3.07067,-14.95522 16.23235,-17.7532 31.49956,-17.75547 h 34.45511 c 14.4537,0 26.17075,-11.71704 26.17075,-26.17074 V 103.52646 L 254.97528,66.057208 H 225.4778 193.60803 L 179.78659,78.564799 166.00282,66.057208 H 100.73308 L 86.948258,78.564799 73.126828,66.057208 H 41.257061 Z"
       id="rect912"
       inkscape:connector-curvature="0"
       sodipodi:nodetypes="ccsscccssccccccccccc" />
    <g
       id="flowRoot956"
       style="font-style:normal;font-weight:normal;font-size:40px;line-height:1.25;font-family:sans-serif;letter-spacing:0px;word-spacing:0px;fill:#ce1126;fill-opacity:1;stroke:none"
       transform="matrix(1.0133871,0,0,1.0133871,-154.42447,-171.89832)"
       aria-label="NEW YORK">
      <path
         inkscape:connector-curvature="0"
         id="path823"
         style="font-style:normal;font-variant:normal;font-weight:normal;font-stretch:normal;font-family:'New Athletic M54';-inkscape-font-specification:'New Athletic M54';fill:#ce1126;fill-opacity:1"
         d="M 216.90234,319.76029 211.0625,304.5845 v 14.66797 q 0,1.40625 -1.40625,1.40625 h -2.83203 q -1.40625,0 -1.40625,-1.40625 v -27.87109 q 0,-1.40625 1.40625,-1.40625 h 3.71094 q 0.9375,0 1.30859,0.89844 l 5.85937,15.19531 v -14.6875 q 0,-1.40625 1.40625,-1.40625 h 2.8125 q 1.40625,0 1.40625,1.40625 v 27.85156 q 0,1.38672 -1.38671,1.38672 l -3.71094,0.0195 q -0.97656,0.0195 -1.32813,-0.8789 z" />
      <path
         inkscape:connector-curvature="0"
         id="path825"
         style="font-style:normal;font-variant:normal;font-weight:normal;font-stretch:normal;font-family:'New Athletic M54';-inkscape-font-specification:'New Athletic M54';fill:#ce1126;fill-opacity:1"
         d="m 239.42187,320.65872 h -7.98828 q -2.22656,0 -3.80859,-1.58203 -1.58203,-1.58203 -1.58203,-3.80859 v -23.88672 q 0,-1.40625 1.40625,-1.40625 h 11.85547 q 1.40625,0 1.40625,1.40625 v 2.87109 q 0,1.38672 -1.40625,1.38672 h -7.59766 v 6.83594 h 6.34766 q 1.40625,0 1.40625,1.40625 v 2.87109 q 0,1.40625 -1.40625,1.40625 h -6.34766 v 6.83594 h 7.71484 q 1.40625,0 1.40625,1.40625 v 2.85156 q 0,1.40625 -1.40625,1.40625 z" />
      <path
         inkscape:connector-curvature="0"
         id="path827"
         style="font-style:normal;font-variant:normal;font-weight:normal;font-stretch:normal;font-family:'New Athletic M54';-inkscape-font-specification:'New Athletic M54';fill:#ce1126;fill-opacity:1"
         d="m 270.28125,291.61575 -4.6875,27.89063 q -0.21484,1.15234 -1.36719,1.15234 h -3.45703 q -1.17187,0 -1.36719,-1.11328 l -2.4414,-12.14844 -2.44141,12.14844 q -0.23437,1.11328 -1.36719,1.11328 h -3.45703 q -1.1914,0 -1.38672,-1.15234 l -4.64843,-27.89063 q -0.11719,-0.625 0.3125,-1.13281 0.41015,-0.50781 1.07421,-0.50781 h 2.92969 q 1.21094,0 1.38672,1.19141 l 2.14844,14.49218 2.87109,-14.55078 q 0.21485,-1.13281 1.38672,-1.13281 h 2.40234 q 1.13282,0 1.36719,1.13281 l 2.85156,14.57031 2.14844,-14.51171 q 0.15625,-1.19141 1.38672,-1.19141 h 2.96875 q 0.625,0 1.07422,0.50781 0.39062,0.46875 0.3125,1.13281 z" />
      <path
         inkscape:connector-curvature="0"
         id="path829"
         style="font-style:normal;font-variant:normal;font-weight:normal;font-stretch:normal;font-family:'New Athletic M54';-inkscape-font-specification:'New Athletic M54';fill:#ce1126;fill-opacity:1"
         d="m 294.98828,309.35013 v 9.90234 q 0,1.40625 -1.40625,1.40625 h -2.92969 q -1.40625,0 -1.40625,-1.40625 v -9.9414 l -6.15234,-17.46094 q -0.25391,-0.68359 0.17578,-1.28906 0.44922,-0.58594 1.15234,-0.58594 h 2.85157 q 0.99609,0 1.32812,0.95703 l 3.53516,10.46875 3.47656,-10.46875 q 0.3125,-0.95703 1.32813,-0.95703 h 3.02734 q 0.70312,0 1.13281,0.60547 0.41016,0.58594 0.17578,1.26953 z" />
      <path
         inkscape:connector-curvature="0"
         id="path831"
         style="font-style:normal;font-variant:normal;font-weight:normal;font-stretch:normal;font-family:'New Athletic M54';-inkscape-font-specification:'New Athletic M54';fill:#ce1126;fill-opacity:1"
         d="m 316.375,320.65872 h -6.46484 q -2.26563,0 -3.96485,-1.67968 -1.69922,-1.67969 -1.69922,-3.94532 v -19.41406 q 0,-2.24609 1.69922,-3.94531 1.71875,-1.69922 3.96485,-1.69922 h 6.44531 q 2.24609,0 3.96484,1.69922 1.73828,1.69922 1.73828,3.96484 v 19.375 q 0,2.26563 -1.73828,3.96485 -1.71875,1.67968 -3.94531,1.67968 z m 0,-5.66406 v -19.35547 h -6.46484 v 19.35547 z" />
      <path
         inkscape:connector-curvature="0"
         id="path833"
         style="font-style:normal;font-variant:normal;font-weight:normal;font-stretch:normal;font-family:'New Athletic M54';-inkscape-font-specification:'New Athletic M54';fill:#ce1126;fill-opacity:1"
         d="m 341.00391,320.65872 h -3.06641 q -0.9375,0 -1.28906,-0.89843 l -4.49219,-11.60157 h -1.67969 v 11.09375 q 0,1.40625 -1.40625,1.40625 h -2.87109 q -1.40625,0 -1.40625,-1.40625 v -27.87109 q 0,-1.40625 1.40625,-1.40625 h 9.98047 q 2.24609,0 3.98437,1.71875 1.73828,1.69922 1.73828,3.96484 v 6.79688 q 0,1.79687 -1.11328,3.26172 -1.11328,1.46484 -2.73437,2.07031 l 4.25781,10.95703 q 0.27344,0.72266 -0.13672,1.30859 -0.42969,0.60547 -1.17187,0.60547 z m -4.78516,-18.18359 v -6.83594 h -5.74219 v 6.83594 z" />
      <path
         inkscape:connector-curvature="0"
         id="path835"
         style="font-style:normal;font-variant:normal;font-weight:normal;font-stretch:normal;font-family:'New Athletic M54';-inkscape-font-specification:'New Athletic M54';fill:#ce1126;fill-opacity:1"
         d="m 362.41016,292.00638 -6.58204,13.32031 6.58204,13.30078 q 0.33203,0.6836 -0.0586,1.36719 -0.41015,0.66406 -1.1914,0.66406 h -3.1836 q -0.91797,0 -1.26953,-0.80078 l -5.70312,-11.69922 v 11.09375 q 0,1.40625 -1.40625,1.40625 h -2.8711 q -1.38672,0 -1.38672,-1.40625 v -27.87109 q 0,-1.40625 1.38672,-1.40625 h 2.8711 q 1.40625,0 1.40625,1.40625 v 11.09375 l 5.70312,-11.69922 q 0.39063,-0.80078 1.26953,-0.80078 h 3.1836 q 0.76171,0 1.1914,0.66406 0.39063,0.70313 0.0586,1.36719 z" />
    </g>
    <g
       id="flowRoot970"
       style="font-style:normal;font-weight:normal;font-size:40px;line-height:1.25;font-family:sans-serif;letter-spacing:0px;word-spacing:0px;fill:#ce1126;fill-opacity:1;stroke:none"
       transform="matrix(1.0133871,0,0,1.0133871,-145.2722,-119.52655)"
       aria-label="RANGERS">
      <path
         inkscape:connector-curvature="0"
         id="path838"
         style="font-style:normal;font-variant:normal;font-weight:normal;font-stretch:normal;font-family:'New Athletic M54';-inkscape-font-specification:'New Athletic M54';fill:#ce1126;fill-opacity:1"
         d="m 221.62891,320.65872 h -3.06641 q -0.9375,0 -1.28906,-0.89843 l -4.49219,-11.60157 h -1.67969 v 11.09375 q 0,1.40625 -1.40625,1.40625 h -2.87109 q -1.40625,0 -1.40625,-1.40625 v -27.87109 q 0,-1.40625 1.40625,-1.40625 h 9.98047 q 2.24609,0 3.98437,1.71875 1.73828,1.69922 1.73828,3.96484 v 6.79688 q 0,1.79687 -1.11328,3.26172 -1.11328,1.46484 -2.73437,2.07031 l 4.25781,10.95703 q 0.27344,0.72266 -0.13672,1.30859 -0.42969,0.60547 -1.17187,0.60547 z m -4.78516,-18.18359 v -6.83594 h -5.74219 v 6.83594 z" />
      <path
         inkscape:connector-curvature="0"
         id="path840"
         style="font-style:normal;font-variant:normal;font-weight:normal;font-stretch:normal;font-family:'New Athletic M54';-inkscape-font-specification:'New Athletic M54';fill:#ce1126;fill-opacity:1"
         d="m 239.98828,319.52591 -1.13281,-5.70312 h -5.9375 l -1.13281,5.70312 q -0.23438,1.13281 -1.38672,1.13281 h -2.91016 q -0.68359,0 -1.09375,-0.50781 -0.42969,-0.48828 -0.29297,-1.17187 l 5.58594,-27.8711 q 0.21484,-1.13281 1.36719,-1.13281 h 5.66406 q 1.15234,0 1.38672,1.13281 l 5.5664,27.8711 q 0.11719,0.68359 -0.29296,1.17187 -0.42969,0.50781 -1.07422,0.50781 H 241.375 q -1.17188,0 -1.38672,-1.13281 z m -2.26562,-11.36719 -1.83594,-9.17968 -1.83594,9.17968 z" />
      <path
         inkscape:connector-curvature="0"
         id="path842"
         style="font-style:normal;font-variant:normal;font-weight:normal;font-stretch:normal;font-family:'New Athletic M54';-inkscape-font-specification:'New Athletic M54';fill:#ce1126;fill-opacity:1"
         d="M 260.02734,319.76029 254.1875,304.5845 v 14.66797 q 0,1.40625 -1.40625,1.40625 h -2.83203 q -1.40625,0 -1.40625,-1.40625 v -27.87109 q 0,-1.40625 1.40625,-1.40625 h 3.71094 q 0.9375,0 1.30859,0.89844 l 5.85937,15.19531 v -14.6875 q 0,-1.40625 1.40625,-1.40625 h 2.8125 q 1.40625,0 1.40625,1.40625 v 27.85156 q 0,1.38672 -1.38671,1.38672 l -3.71094,0.0195 q -0.97656,0.0195 -1.32813,-0.8789 z" />
      <path
         inkscape:connector-curvature="0"
         id="path844"
         style="font-style:normal;font-variant:normal;font-weight:normal;font-stretch:normal;font-family:'New Athletic M54';-inkscape-font-specification:'New Athletic M54';fill:#ce1126;fill-opacity:1"
         d="m 280.94531,320.65872 h -6.11328 q -2.24609,0 -3.96484,-1.67968 -1.69922,-1.67969 -1.69922,-3.94532 v -19.39453 q 0,-2.24609 1.71875,-3.94531 1.73828,-1.71875 3.98437,-1.71875 h 6.07422 q 2.2461,0 3.96485,1.71875 1.73828,1.69922 1.73828,3.94531 v 0.97656 q 0,1.38672 -1.38672,1.38672 h -2.8711 q -1.40625,0 -1.40625,-1.38672 v -0.97656 h -6.13281 v 19.35547 h 6.13281 v -6.83594 h -2.48046 q -1.38672,0 -1.38672,-1.40625 v -2.87109 q 0,-1.40625 1.38672,-1.40625 h 6.75781 q 1.38672,0 1.38672,1.40625 v 11.11328 q 0,2.28516 -1.73828,3.98438 -1.71875,1.67968 -3.96485,1.67968 z" />
      <path
         inkscape:connector-curvature="0"
         id="path846"
         style="font-style:normal;font-variant:normal;font-weight:normal;font-stretch:normal;font-family:'New Athletic M54';-inkscape-font-specification:'New Athletic M54';fill:#ce1126;fill-opacity:1"
         d="m 302.78125,320.65872 h -7.98828 q -2.22656,0 -3.8086,-1.58203 -1.58203,-1.58203 -1.58203,-3.80859 v -23.88672 q 0,-1.40625 1.40625,-1.40625 h 11.85547 q 1.40625,0 1.40625,1.40625 v 2.87109 q 0,1.38672 -1.40625,1.38672 h -7.59765 v 6.83594 h 6.34765 q 1.40625,0 1.40625,1.40625 v 2.87109 q 0,1.40625 -1.40625,1.40625 h -6.34765 v 6.83594 h 7.71484 q 1.40625,0 1.40625,1.40625 v 2.85156 q 0,1.40625 -1.40625,1.40625 z" />
      <path
         inkscape:connector-curvature="0"
         id="path848"
         style="font-style:normal;font-variant:normal;font-weight:normal;font-stretch:normal;font-family:'New Athletic M54';-inkscape-font-specification:'New Athletic M54';fill:#ce1126;fill-opacity:1"
         d="m 323.11328,320.65872 h -3.06641 q -0.9375,0 -1.28906,-0.89843 l -4.49219,-11.60157 h -1.67968 v 11.09375 q 0,1.40625 -1.40625,1.40625 h -2.8711 q -1.40625,0 -1.40625,-1.40625 v -27.87109 q 0,-1.40625 1.40625,-1.40625 h 9.98047 q 2.2461,0 3.98438,1.71875 1.73828,1.69922 1.73828,3.96484 v 6.79688 q 0,1.79687 -1.11328,3.26172 -1.11328,1.46484 -2.73438,2.07031 l 4.25781,10.95703 q 0.27344,0.72266 -0.13671,1.30859 -0.42969,0.60547 -1.17188,0.60547 z m -4.78516,-18.18359 v -6.83594 h -5.74218 v 6.83594 z" />
      <path
         inkscape:connector-curvature="0"
         id="path850"
         style="font-style:normal;font-variant:normal;font-weight:normal;font-stretch:normal;font-family:'New Athletic M54';-inkscape-font-specification:'New Athletic M54';fill:#ce1126;fill-opacity:1"
         d="m 338.83594,320.65872 h -5.70313 q -2.26562,0 -3.98437,-1.67968 -1.69922,-1.69922 -1.69922,-3.98438 v -1.07422 q 0,-1.40625 1.38672,-1.40625 h 2.87109 q 1.40625,0 1.40625,1.40625 v 1.07422 h 5.72266 v -6.83594 h -5.70313 q -2.26562,0 -3.98437,-1.69922 -1.69922,-1.69921 -1.69922,-3.96484 v -6.85547 q 0,-2.24609 1.69922,-3.94531 1.71875,-1.71875 3.98437,-1.71875 h 5.70313 q 2.24609,0 3.94531,1.69922 1.71875,1.69922 1.71875,3.94531 v 0.9375 q 0,1.38672 -1.38672,1.38672 h -2.87109 q -1.40625,0 -1.40625,-1.38672 v -0.91797 h -5.72266 v 6.83594 h 5.72266 q 2.24609,0 3.94531,1.69922 1.71875,1.69922 1.71875,3.94531 v 6.89453 q 0,2.28516 -1.71875,3.96485 -1.69922,1.67968 -3.94531,1.67968 z" />
    </g>
  </g>
</svg>
