<?xml version="1.0" encoding="UTF-8" standalone="no"?>
<!-- Created with Inkscape (http://www.inkscape.org/) -->

<svg
   xmlns:dc="http://purl.org/dc/elements/1.1/"
   xmlns:cc="http://creativecommons.org/ns#"
   xmlns:rdf="http://www.w3.org/1999/02/22-rdf-syntax-ns#"
   xmlns:svg="http://www.w3.org/2000/svg"
   xmlns="http://www.w3.org/2000/svg"
   xmlns:sodipodi="http://sodipodi.sourceforge.net/DTD/sodipodi-0.dtd"
   xmlns:inkscape="http://www.inkscape.org/namespaces/inkscape"
   width="1000"
   height="1000"
   viewBox="0 0 264.58333 264.58334"
   version="1.1"
   id="svg8"
   inkscape:version="0.92.3 (2405546, 2018-03-11)"
   sodipodi:docname="ott-home.svg">
  <defs
     id="defs2" />
  <sodipodi:namedview
     id="base"
     pagecolor="#ffffff"
     bordercolor="#666666"
     borderopacity="1.0"
     inkscape:pageopacity="0.0"
     inkscape:pageshadow="2"
     inkscape:zoom="0.49497475"
     inkscape:cx="308.82905"
     inkscape:cy="599.78991"
     inkscape:document-units="mm"
     inkscape:current-layer="layer1"
     showgrid="false"
     units="px"
     inkscape:snap-object-midpoints="true"
     inkscape:window-width="1920"
     inkscape:window-height="1029"
     inkscape:window-x="1920"
     inkscape:window-y="0"
     inkscape:window-maximized="1" />
  <metadata
     id="metadata5">
    <rdf:RDF>
      <cc:Work
         rdf:about="">
        <dc:format>image/svg+xml</dc:format>
        <dc:type
           rdf:resource="http://purl.org/dc/dcmitype/StillImage" />
        <dc:title />
      </cc:Work>
    </rdf:RDF>
  </metadata>
  <g
     inkscape:label="Layer 1"
     inkscape:groupmode="layer"
     id="layer1"
     transform="translate(0,-32.41665)">
    <rect
       style="opacity:1;fill:#c52032;fill-opacity:1;stroke:none;stroke-width:5.29166651;stroke-linecap:butt;stroke-linejoin:round;stroke-miterlimit:4;stroke-dasharray:none;stroke-opacity:1;paint-order:normal"
       id="rect927"
       width="287.58203"
       height="275.82214"
       x="-7.4835467"
       y="26.523222" />
    <path
       id="path956"
       d="M 158.9585,42.231772 A 146.08387,146.08386 0 0 0 12.87479,188.31548 a 146.08387,146.08386 0 0 0 1.891355,22.26839 c 7.819996,-4.79469 23.773594,-13.51401 41.219859,-16.85478 L 59.64785,175.4209 c 0,0 7.323173,-5.49261 11.246454,-5.23105 3.92328,0.26155 12.554741,7.58462 12.554741,7.58462 l 74.803475,-68.78808 c 0,0 -6.0153,-4.96952 -6.27686,-9.154345 -0.26154,-4.184837 3.4,-9.415901 5.75397,-10.462111 2.35397,-1.0462 19.35502,-3.13843 19.35502,-3.13843 0,0 3.81808,-21.946905 22.16016,-38.274093 A 146.08387,146.08386 0 0 0 158.9585,42.231772 Z"
       style="opacity:1;fill:#c2912c;fill-opacity:1;stroke:#000000;stroke-width:5.29166667;stroke-linecap:butt;stroke-linejoin:round;stroke-miterlimit:4;stroke-dasharray:none;stroke-opacity:1;paint-order:normal"
       inkscape:connector-curvature="0" />
    <path
       inkscape:connector-curvature="0"
       style="opacity:1;fill:#c2912c;fill-opacity:1;stroke:none;stroke-width:0.51784623;stroke-linecap:butt;stroke-linejoin:round;stroke-miterlimit:4;stroke-dasharray:none;stroke-opacity:1;paint-order:normal"
       d="M 158.9585,42.231772 A 146.08387,146.08386 0 0 0 12.87479,188.31548 a 146.08387,146.08386 0 0 0 1.891355,22.26839 c 7.819996,-4.79469 23.773594,-13.51401 41.219859,-16.85478 L 59.64785,175.4209 c 0,0 7.323173,-5.49261 11.246454,-5.23105 3.92328,0.26155 12.554741,7.58462 12.554741,7.58462 l 74.803475,-68.78808 c 0,0 -6.0153,-4.96952 -6.27686,-9.154345 -0.26154,-4.184837 3.4,-9.415901 5.75397,-10.462111 2.35397,-1.0462 19.35502,-3.13843 19.35502,-3.13843 0,0 3.81808,-21.946905 22.16016,-38.274093 A 146.08387,146.08386 0 0 0 158.9585,42.231772 Z"
       id="path910" />
    <path
       inkscape:connector-curvature="0"
       id="path916"
       d="m 158.9585,81.18756 a 107.12815,107.12817 0 0 0 -107.127901,107.12792 107.12815,107.12817 0 0 0 1.41952,16.54731 l 9.508847,-1.87062 a 97.389248,97.389248 0 0 1 -1.189441,-14.67669 97.389248,97.389248 0 0 1 97.388975,-97.388973 97.389248,97.389248 0 0 1 22.11771,2.6484 l 2.31663,-9.430971 A 107.12815,107.12817 0 0 0 158.9585,81.18756 Z"
       style="opacity:1;fill:#c2912c;fill-opacity:1;stroke:#000000;stroke-width:5.178425;stroke-linecap:butt;stroke-linejoin:round;stroke-miterlimit:4;stroke-dasharray:none;stroke-opacity:1;paint-order:normal" />
    <path
       inkscape:connector-curvature="0"
       style="opacity:1;fill:#c2912c;fill-opacity:1;stroke:none;stroke-width:0.51784623;stroke-linecap:butt;stroke-linejoin:round;stroke-miterlimit:4;stroke-dasharray:none;stroke-opacity:1;paint-order:normal"
       d="m 158.9585,81.18756 a 107.12815,107.12817 0 0 0 -107.127901,107.12792 107.12815,107.12817 0 0 0 1.41952,16.54731 l 9.508847,-1.87062 a 97.389248,97.389248 0 0 1 -1.189441,-14.67669 97.389248,97.389248 0 0 1 97.388975,-97.388973 97.389248,97.389248 0 0 1 22.11771,2.6484 l 2.31663,-9.430971 A 107.12815,107.12817 0 0 0 158.9585,81.18756 Z"
       id="path898" />
    <path
       id="path954"
       transform="matrix(0.26458333,0,0,0.26458333,0,32.41665)"
       d="M 592.18945 279.51172 C 379.54019 279.51172 308.47791 442.62115 295.62695 538.50977 C 282.77588 634.39835 338.13353 788.61285 335.16797 841.99414 C 332.2023 895.37539 304.52344 942.82422 304.52344 942.82422 C 304.52344 942.82422 402.38931 907.237 436.98828 838.03906 C 471.58729 768.84109 439.95312 719.41317 439.95312 685.80273 C 439.95313 652.1923 484.43799 597.8224 526.94531 634.39844 C 569.4526 670.97455 557.59033 809.37119 600.09766 875.60352 C 642.60494 941.83588 771.11523 949.74414 771.11523 949.74414 C 692.03187 851.87845 722.67773 740.17383 722.67773 740.17383 C 646.55994 737.20822 616.90234 655.1582 616.90234 655.1582 C 778.03475 587.93734 903.58008 577.06445 903.58008 577.06445 C 919.39676 549.38527 912.47617 503.91174 906.54492 483.15234 C 900.61363 462.39295 870.95746 412.96592 876.88867 394.18359 C 882.81992 375.40131 906.54531 365.51654 912.47656 354.64258 C 918.40781 343.76861 928.29297 319.05469 928.29297 319.05469 C 844.99771 349.67792 779.18883 387.49567 741.14844 411.84961 L 789.89844 374.41211 C 789.89844 374.41211 730.59949 279.51172 592.18945 279.51172 z "
       style="fill:#c2912c;fill-opacity:1;stroke:#000000;stroke-width:20.00000025;stroke-linecap:butt;stroke-linejoin:miter;stroke-miterlimit:4;stroke-dasharray:none;stroke-opacity:1" />
    <path
       style="fill:#c2912c;fill-opacity:1;stroke:none;stroke-width:1.95721412;stroke-linecap:butt;stroke-linejoin:miter;stroke-miterlimit:4;stroke-dasharray:none;stroke-opacity:1"
       d="M 592.18945 279.51172 C 379.54019 279.51172 308.47791 442.62115 295.62695 538.50977 C 282.77588 634.39835 338.13353 788.61285 335.16797 841.99414 C 332.2023 895.37539 304.52344 942.82422 304.52344 942.82422 C 304.52344 942.82422 402.38931 907.237 436.98828 838.03906 C 471.58729 768.84109 439.95312 719.41317 439.95312 685.80273 C 439.95313 652.1923 484.43799 597.8224 526.94531 634.39844 C 569.4526 670.97455 557.59033 809.37119 600.09766 875.60352 C 642.60494 941.83588 771.11523 949.74414 771.11523 949.74414 C 692.03187 851.87845 722.67773 740.17383 722.67773 740.17383 C 646.55994 737.20822 616.90234 655.1582 616.90234 655.1582 C 778.03475 587.93734 903.58008 577.06445 903.58008 577.06445 C 919.39676 549.38527 912.47617 503.91174 906.54492 483.15234 C 900.61363 462.39295 870.95746 412.96592 876.88867 394.18359 C 882.81992 375.40131 906.54531 365.51654 912.47656 354.64258 C 918.40781 343.76861 928.29297 319.05469 928.29297 319.05469 C 844.99771 349.67792 779.18883 387.49567 741.14844 411.84961 L 789.89844 374.41211 C 789.89844 374.41211 730.59949 279.51172 592.18945 279.51172 z "
       transform="matrix(0.26458333,0,0,0.26458333,0,32.41665)"
       id="path896" />
    <g
       aria-label="OTTAWA"
       transform="matrix(0.79064936,0,0,0.79064936,-116.53203,-157.45206)"
       style="font-style:normal;font-weight:normal;font-size:40px;line-height:1.25;font-family:sans-serif;letter-spacing:0px;word-spacing:0px;fill:#000000;fill-opacity:1;stroke:none"
       id="flowRoot929">
      <path
         d="m 290.27734,393.39114 h -6.46484 q -2.26563,0 -3.96484,-1.67968 -1.69922,-1.67969 -1.69922,-3.94532 v -19.41406 q 0,-2.24609 1.69922,-3.94531 1.71875,-1.69922 3.96484,-1.69922 h 6.44531 q 2.2461,0 3.96485,1.69922 1.73828,1.69922 1.73828,3.96484 v 19.375 q 0,2.26563 -1.73828,3.96485 -1.71875,1.67968 -3.94532,1.67968 z m 0,-5.66406 v -19.35547 h -6.46484 v 19.35547 z"
         style="font-style:normal;font-variant:normal;font-weight:normal;font-stretch:normal;font-family:'New Athletic M54';-inkscape-font-specification:'New Athletic M54'"
         id="path844" />
      <path
         d="m 314.22266,368.37161 h -4.21875 v 23.61328 q 0,1.40625 -1.40625,1.40625 h -2.8711 q -1.40625,0 -1.40625,-1.40625 v -23.61328 h -4.21875 q -1.40625,0 -1.40625,-1.38672 v -2.87109 q 0,-1.40625 1.40625,-1.40625 h 14.1211 q 1.40625,0 1.40625,1.40625 v 2.87109 q 0,1.38672 -1.40625,1.38672 z"
         style="font-style:normal;font-variant:normal;font-weight:normal;font-stretch:normal;font-family:'New Athletic M54';-inkscape-font-specification:'New Athletic M54'"
         id="path846" />
      <path
         d="m 333.91016,368.37161 h -4.21875 v 23.61328 q 0,1.40625 -1.40625,1.40625 h -2.8711 q -1.40625,0 -1.40625,-1.40625 v -23.61328 h -4.21875 q -1.40625,0 -1.40625,-1.38672 v -2.87109 q 0,-1.40625 1.40625,-1.40625 h 14.1211 q 1.40625,0 1.40625,1.40625 v 2.87109 q 0,1.38672 -1.40625,1.38672 z"
         style="font-style:normal;font-variant:normal;font-weight:normal;font-stretch:normal;font-family:'New Athletic M54';-inkscape-font-specification:'New Athletic M54'"
         id="path848" />
      <path
         d="m 346.74219,392.25833 -1.13282,-5.70312 h -5.9375 l -1.13281,5.70312 q -0.23437,1.13281 -1.38672,1.13281 h -2.91015 q -0.6836,0 -1.09375,-0.50781 -0.42969,-0.48828 -0.29297,-1.17187 l 5.58594,-27.8711 q 0.21484,-1.13281 1.36718,-1.13281 h 5.66407 q 1.15234,0 1.38671,1.13281 l 5.56641,27.8711 q 0.11719,0.68359 -0.29297,1.17187 -0.42969,0.50781 -1.07422,0.50781 h -2.92968 q -1.17188,0 -1.38672,-1.13281 z m -2.26563,-11.36719 -1.83594,-9.17968 -1.83593,9.17968 z"
         style="font-style:normal;font-variant:normal;font-weight:normal;font-stretch:normal;font-family:'New Athletic M54';-inkscape-font-specification:'New Athletic M54'"
         id="path850" />
      <path
         d="m 377.07422,364.34818 -4.6875,27.89062 q -0.21485,1.15234 -1.36719,1.15234 h -3.45703 q -1.17188,0 -1.36719,-1.11328 l -2.4414,-12.14843 -2.44141,12.14843 q -0.23438,1.11328 -1.36719,1.11328 h -3.45703 q -1.19141,0 -1.38672,-1.15234 l -4.64844,-27.89062 q -0.11718,-0.625 0.3125,-1.13282 0.41016,-0.50781 1.07422,-0.50781 h 2.92969 q 1.21094,0 1.38672,1.19141 l 2.14844,14.49218 2.87109,-14.55078 q 0.21484,-1.13281 1.38672,-1.13281 h 2.40234 q 1.13282,0 1.36719,1.13281 l 2.85156,14.57032 2.14844,-14.51172 q 0.15625,-1.19141 1.38672,-1.19141 h 2.96875 q 0.625,0 1.07422,0.50781 0.39062,0.46875 0.3125,1.13282 z"
         style="font-style:normal;font-variant:normal;font-weight:normal;font-stretch:normal;font-family:'New Athletic M54';-inkscape-font-specification:'New Athletic M54'"
         id="path852" />
      <path
         d="m 388.69531,392.25833 -1.13281,-5.70312 h -5.9375 l -1.13281,5.70312 q -0.23438,1.13281 -1.38672,1.13281 h -2.91016 q -0.68359,0 -1.09375,-0.50781 -0.42969,-0.48828 -0.29297,-1.17187 l 5.58594,-27.8711 q 0.21484,-1.13281 1.36719,-1.13281 h 5.66406 q 1.15234,0 1.38672,1.13281 l 5.56641,27.8711 q 0.11718,0.68359 -0.29297,1.17187 -0.42969,0.50781 -1.07422,0.50781 h -2.92969 q -1.17187,0 -1.38672,-1.13281 z m -2.26562,-11.36719 -1.83594,-9.17968 -1.83594,9.17968 z"
         style="font-style:normal;font-variant:normal;font-weight:normal;font-stretch:normal;font-family:'New Athletic M54';-inkscape-font-specification:'New Athletic M54'"
         id="path854" />
    </g>
    <g
       aria-label="SENATORS"
       transform="matrix(0.79064936,0,0,0.79064936,-131.05301,-124.97719)"
       style="font-style:normal;font-weight:normal;font-size:40px;line-height:1.25;font-family:sans-serif;letter-spacing:0px;word-spacing:0px;fill:#000000;fill-opacity:1;stroke:none"
       id="flowRoot943">
      <path
         d="m 289.53516,393.39114 h -5.70313 q -2.26562,0 -3.98437,-1.67968 -1.69922,-1.69922 -1.69922,-3.98438 v -1.07422 q 0,-1.40625 1.38672,-1.40625 h 2.87109 q 1.40625,0 1.40625,1.40625 v 1.07422 h 5.72266 v -6.83594 h -5.70313 q -2.26562,0 -3.98437,-1.69921 -1.69922,-1.69922 -1.69922,-3.96485 v -6.85547 q 0,-2.24609 1.69922,-3.94531 1.71875,-1.71875 3.98437,-1.71875 h 5.70313 q 2.24609,0 3.94531,1.69922 1.71875,1.69922 1.71875,3.94531 v 0.9375 q 0,1.38672 -1.38672,1.38672 h -2.87109 q -1.40625,0 -1.40625,-1.38672 v -0.91797 h -5.72266 v 6.83594 h 5.72266 q 2.24609,0 3.94531,1.69922 1.71875,1.69922 1.71875,3.94531 v 6.89453 q 0,2.28516 -1.71875,3.96485 -1.69922,1.67968 -3.94531,1.67968 z"
         style="font-style:normal;font-variant:normal;font-weight:normal;font-stretch:normal;font-family:'New Athletic M54';-inkscape-font-specification:'New Athletic M54'"
         id="path827" />
      <path
         d="m 311.29297,393.39114 h -7.98828 q -2.22657,0 -3.8086,-1.58203 -1.58203,-1.58203 -1.58203,-3.80859 V 364.1138 q 0,-1.40625 1.40625,-1.40625 h 11.85547 q 1.40625,0 1.40625,1.40625 v 2.87109 q 0,1.38672 -1.40625,1.38672 h -7.59766 v 6.83594 h 6.34766 q 1.40625,0 1.40625,1.40625 v 2.87109 q 0,1.40625 -1.40625,1.40625 h -6.34766 v 6.83594 h 7.71485 q 1.40625,0 1.40625,1.40625 v 2.85156 q 0,1.40625 -1.40625,1.40625 z"
         style="font-style:normal;font-variant:normal;font-weight:normal;font-stretch:normal;font-family:'New Athletic M54';-inkscape-font-specification:'New Athletic M54'"
         id="path829" />
      <path
         d="m 326.89844,392.49271 -5.83985,-15.17578 v 14.66796 q 0,1.40625 -1.40625,1.40625 h -2.83203 q -1.40625,0 -1.40625,-1.40625 V 364.1138 q 0,-1.40625 1.40625,-1.40625 h 3.71094 q 0.9375,0 1.30859,0.89844 l 5.85938,15.19531 v -14.6875 q 0,-1.40625 1.40625,-1.40625 h 2.8125 q 1.40625,0 1.40625,1.40625 v 27.85156 q 0,1.38672 -1.38672,1.38672 l -3.71094,0.0195 q -0.97656,0.0195 -1.32812,-0.8789 z"
         style="font-style:normal;font-variant:normal;font-weight:normal;font-stretch:normal;font-family:'New Athletic M54';-inkscape-font-specification:'New Athletic M54'"
         id="path831" />
      <path
         d="m 350.0625,392.25833 -1.13281,-5.70312 h -5.9375 l -1.13282,5.70312 q -0.23437,1.13281 -1.38671,1.13281 h -2.91016 q -0.68359,0 -1.09375,-0.50781 -0.42969,-0.48828 -0.29297,-1.17187 l 5.58594,-27.8711 q 0.21484,-1.13281 1.36719,-1.13281 h 5.66406 q 1.15234,0 1.38672,1.13281 l 5.5664,27.8711 q 0.11719,0.68359 -0.29297,1.17187 -0.42968,0.50781 -1.07421,0.50781 h -2.92969 q -1.17188,0 -1.38672,-1.13281 z m -2.26563,-11.36719 -1.83593,-9.17968 -1.83594,9.17968 z"
         style="font-style:normal;font-variant:normal;font-weight:normal;font-stretch:normal;font-family:'New Athletic M54';-inkscape-font-specification:'New Athletic M54'"
         id="path833" />
      <path
         d="m 368.79297,368.37161 h -4.21875 v 23.61328 q 0,1.40625 -1.40625,1.40625 h -2.8711 q -1.40625,0 -1.40625,-1.40625 v -23.61328 h -4.21875 q -1.40625,0 -1.40625,-1.38672 v -2.87109 q 0,-1.40625 1.40625,-1.40625 h 14.1211 q 1.40625,0 1.40625,1.40625 v 2.87109 q 0,1.38672 -1.40625,1.38672 z"
         style="font-style:normal;font-variant:normal;font-weight:normal;font-stretch:normal;font-family:'New Athletic M54';-inkscape-font-specification:'New Athletic M54'"
         id="path835" />
      <path
         d="m 385.12109,393.39114 h -6.46484 q -2.26563,0 -3.96484,-1.67968 -1.69922,-1.67969 -1.69922,-3.94532 v -19.41406 q 0,-2.24609 1.69922,-3.94531 1.71875,-1.69922 3.96484,-1.69922 h 6.44531 q 2.2461,0 3.96485,1.69922 1.73828,1.69922 1.73828,3.96484 v 19.375 q 0,2.26563 -1.73828,3.96485 -1.71875,1.67968 -3.94532,1.67968 z m 0,-5.66406 v -19.35547 h -6.46484 v 19.35547 z"
         style="font-style:normal;font-variant:normal;font-weight:normal;font-stretch:normal;font-family:'New Athletic M54';-inkscape-font-specification:'New Athletic M54'"
         id="path837" />
      <path
         d="m 409.75,393.39114 h -3.06641 q -0.9375,0 -1.28906,-0.89843 l -4.49219,-11.60157 h -1.67968 v 11.09375 q 0,1.40625 -1.40625,1.40625 h -2.8711 q -1.40625,0 -1.40625,-1.40625 V 364.1138 q 0,-1.40625 1.40625,-1.40625 h 9.98047 q 2.24609,0 3.98438,1.71875 1.73828,1.69922 1.73828,3.96484 v 6.79688 q 0,1.79687 -1.11328,3.26172 -1.11329,1.46484 -2.73438,2.07031 l 4.25781,10.95703 q 0.27344,0.72266 -0.13672,1.3086 -0.42968,0.60546 -1.17187,0.60546 z m -4.78516,-18.18359 v -6.83594 h -5.74218 v 6.83594 z"
         style="font-style:normal;font-variant:normal;font-weight:normal;font-stretch:normal;font-family:'New Athletic M54';-inkscape-font-specification:'New Athletic M54'"
         id="path839" />
      <path
         d="m 425.47266,393.39114 h -5.70313 q -2.26562,0 -3.98437,-1.67968 -1.69922,-1.69922 -1.69922,-3.98438 v -1.07422 q 0,-1.40625 1.38672,-1.40625 h 2.87109 q 1.40625,0 1.40625,1.40625 v 1.07422 h 5.72266 v -6.83594 h -5.70313 q -2.26562,0 -3.98437,-1.69921 -1.69922,-1.69922 -1.69922,-3.96485 v -6.85547 q 0,-2.24609 1.69922,-3.94531 1.71875,-1.71875 3.98437,-1.71875 h 5.70313 q 2.24609,0 3.94531,1.69922 1.71875,1.69922 1.71875,3.94531 v 0.9375 q 0,1.38672 -1.38672,1.38672 h -2.87109 q -1.40625,0 -1.40625,-1.38672 v -0.91797 H 419.75 v 6.83594 h 5.72266 q 2.24609,0 3.94531,1.69922 1.71875,1.69922 1.71875,3.94531 v 6.89453 q 0,2.28516 -1.71875,3.96485 -1.69922,1.67968 -3.94531,1.67968 z"
         style="font-style:normal;font-variant:normal;font-weight:normal;font-stretch:normal;font-family:'New Athletic M54';-inkscape-font-specification:'New Athletic M54'"
         id="path841" />
    </g>
  </g>
</svg>
