<?xml version="1.0" encoding="UTF-8" standalone="no"?>
<!-- Created with Inkscape (http://www.inkscape.org/) -->

<svg
   xmlns:dc="http://purl.org/dc/elements/1.1/"
   xmlns:cc="http://creativecommons.org/ns#"
   xmlns:rdf="http://www.w3.org/1999/02/22-rdf-syntax-ns#"
   xmlns:svg="http://www.w3.org/2000/svg"
   xmlns="http://www.w3.org/2000/svg"
   xmlns:sodipodi="http://sodipodi.sourceforge.net/DTD/sodipodi-0.dtd"
   xmlns:inkscape="http://www.inkscape.org/namespaces/inkscape"
   width="1000"
   height="1000"
   viewBox="0 0 264.58333 264.58334"
   version="1.1"
   id="svg8"
   sodipodi:docname="phi-home.svg"
   inkscape:version="0.92.3 (2405546, 2018-03-11)">
  <defs
     id="defs2" />
  <sodipodi:namedview
     id="base"
     pagecolor="#ffffff"
     bordercolor="#666666"
     borderopacity="1.0"
     inkscape:pageopacity="0.0"
     inkscape:pageshadow="2"
     inkscape:zoom="0.35"
     inkscape:cx="272.24893"
     inkscape:cy="652.22829"
     inkscape:document-units="mm"
     inkscape:current-layer="layer1"
     showgrid="false"
     units="px"
     inkscape:window-width="1920"
     inkscape:window-height="1029"
     inkscape:window-x="1920"
     inkscape:window-y="0"
     inkscape:window-maximized="1" />
  <metadata
     id="metadata5">
    <rdf:RDF>
      <cc:Work
         rdf:about="">
        <dc:format>image/svg+xml</dc:format>
        <dc:type
           rdf:resource="http://purl.org/dc/dcmitype/StillImage" />
        <dc:title />
      </cc:Work>
    </rdf:RDF>
  </metadata>
  <g
     inkscape:label="Layer 1"
     inkscape:groupmode="layer"
     id="layer1"
     transform="translate(0,-32.41665)">
    <rect
       style="opacity:1;fill:#f74902;fill-opacity:1;stroke:none;stroke-width:2.9104166;stroke-linecap:butt;stroke-linejoin:round;stroke-miterlimit:4;stroke-dasharray:none;stroke-opacity:1;paint-order:normal"
       id="rect986"
       width="272.52084"
       height="274.7887"
       x="-3.4017856"
       y="27.124983" />
    <path
       style="fill:#000000;fill-opacity:1;stroke:none;stroke-width:0.26458332px;stroke-linecap:butt;stroke-linejoin:miter;stroke-opacity:1"
       d="m 7.7711647,63.422362 c 0,0 -1.336331,33.943213 36.3486963,52.652078 L 6.2591239,100.12503 c 0.00265,0.43298 0.00767,0.87977 0.010848,1.31775 0.2080155,6.39155 3.0376813,34.80234 36.3378211,51.33433 L 8.3545974,138.3475 c 0,0 -1.336331,33.94322 36.3486956,52.65209 L 16.328795,179.04631 c 4.248388,13.9951 10.189712,26.90682 18.444871,37.06699 19.654758,24.19046 97.744914,56.31801 97.744914,56.31801 0,0 78.09018,-32.12755 97.74494,-56.31801 8.25516,-10.16017 14.19648,-23.07189 18.44487,-37.06699 l -28.3745,11.95328 c 37.68503,-18.70887 36.3487,-52.65209 36.3487,-52.65209 l -34.2532,14.42961 c 33.30014,-16.53199 36.12981,-44.94278 36.33782,-51.33433 0.003,-0.43798 0.008,-0.88478 0.0109,-1.31775 l -37.86073,15.94941 C 258.60235,97.365575 257.26602,63.422362 257.26602,63.422362 L 164.11769,86.845221 132.51858,119.53237 100.9195,86.845221 Z"
       id="path946"
       inkscape:connector-curvature="0"
       sodipodi:nodetypes="ccccccccccscccccccccccc" />
    <g
       aria-label="PHILADELPHIA"
       transform="matrix(0.81376043,0,0,0.81376043,-135.91849,-148.73451)"
       style="font-style:normal;font-weight:normal;font-size:40px;line-height:1.25;font-family:sans-serif;letter-spacing:0px;word-spacing:0px;fill:#000000;fill-opacity:1;stroke:none;stroke-width:0.32513663"
       id="flowRoot988">
      <path
         d="m 235.5918,370.31497 h -5.70313 v 9.00391 q 0,1.40625 -1.38672,1.40625 h -2.87109 q -1.40625,0 -1.40625,-1.40625 v -27.87109 q 0,-1.40625 1.40625,-1.40625 h 9.98047 q 2.22656,0 3.96484,1.71875 1.73828,1.69921 1.73828,3.96484 v 8.90625 q 0,2.28516 -1.73828,3.98437 -1.73828,1.69922 -3.98437,1.69922 z m 0.0586,-5.66406 v -8.94531 h -5.76172 v 8.94531 z"
         style="font-style:normal;font-variant:normal;font-weight:normal;font-stretch:normal;font-family:'New Athletic M54';-inkscape-font-specification:'New Athletic M54';fill:#ffffff;fill-opacity:1;stroke-width:0.12208457"
         id="path838" />
      <path
         d="m 260.43555,380.72513 h -2.8711 q -1.40625,0 -1.40625,-1.40625 v -11.09375 h -6.42578 v 11.09375 q 0,1.40625 -1.38672,1.40625 h -2.89062 q -1.38672,0 -1.38672,-1.40625 v -27.87109 q 0,-1.40625 1.38672,-1.40625 h 2.89062 q 1.38672,0 1.38672,1.40625 v 11.09375 h 6.42578 v -11.09375 q 0,-1.40625 1.40625,-1.40625 h 2.8711 q 1.38672,0 1.38672,1.40625 v 27.87109 q 0,1.40625 -1.38672,1.40625 z"
         style="font-style:normal;font-variant:normal;font-weight:normal;font-stretch:normal;font-family:'New Athletic M54';-inkscape-font-specification:'New Athletic M54';fill:#ffffff;fill-opacity:1;stroke-width:0.12208457"
         id="path840" />
      <path
         d="m 268.81445,380.72513 h -2.87109 q -1.40625,0 -1.40625,-1.40625 v -27.87109 q 0,-1.40625 1.40625,-1.40625 h 2.87109 q 1.40625,0 1.40625,1.40625 v 27.87109 q 0,1.40625 -1.40625,1.40625 z"
         style="font-style:normal;font-variant:normal;font-weight:normal;font-stretch:normal;font-family:'New Athletic M54';-inkscape-font-specification:'New Athletic M54';fill:#ffffff;fill-opacity:1;stroke-width:0.12208457"
         id="path842" />
      <path
         d="m 285.63086,380.72513 h -7.24609 q -2.22657,0 -3.82813,-1.58203 -1.58203,-1.58203 -1.58203,-3.8086 v -23.88671 q 0,-1.40625 1.40625,-1.40625 h 2.87109 q 1.40625,0 1.40625,1.40625 v 23.61328 h 6.97266 q 1.38672,0 1.38672,1.40625 v 2.85156 q 0,1.40625 -1.38672,1.40625 z"
         style="font-style:normal;font-variant:normal;font-weight:normal;font-stretch:normal;font-family:'New Athletic M54';-inkscape-font-specification:'New Athletic M54';fill:#ffffff;fill-opacity:1;stroke-width:0.12208457"
         id="path844" />
      <path
         d="m 303.79492,379.59232 -1.13281,-5.70313 h -5.9375 l -1.13281,5.70313 q -0.23438,1.13281 -1.38672,1.13281 h -2.91016 q -0.68359,0 -1.09375,-0.50781 -0.42969,-0.48828 -0.29297,-1.17188 l 5.58594,-27.87109 q 0.21484,-1.13281 1.36719,-1.13281 h 5.66406 q 1.15234,0 1.38672,1.13281 l 5.56641,27.87109 q 0.11718,0.6836 -0.29297,1.17188 -0.42969,0.50781 -1.07422,0.50781 h -2.92969 q -1.17187,0 -1.38672,-1.13281 z m -2.26562,-11.36719 -1.83594,-9.17969 -1.83594,9.17969 z"
         style="font-style:normal;font-variant:normal;font-weight:normal;font-stretch:normal;font-family:'New Athletic M54';-inkscape-font-specification:'New Athletic M54';fill:#ffffff;fill-opacity:1;stroke-width:0.12208457"
         id="path846" />
      <path
         d="m 329.9668,355.72513 v 19.31641 q 0,2.28515 -1.73828,3.98437 -1.73829,1.69922 -3.96485,1.69922 h -10.50781 q -1.40625,0 -1.40625,-1.40625 v -27.87109 q 0,-1.40625 1.40625,-1.40625 h 10.48828 q 2.24609,0 3.98438,1.71875 1.73828,1.71875 1.73828,3.96484 z m -5.66407,19.33594 V 355.7056 h -6.26953 v 19.35547 z"
         style="font-style:normal;font-variant:normal;font-weight:normal;font-stretch:normal;font-family:'New Athletic M54';-inkscape-font-specification:'New Athletic M54';fill:#ffffff;fill-opacity:1;stroke-width:0.12208457"
         id="path848" />
      <path
         d="m 346.11914,380.72513 h -7.98828 q -2.22656,0 -3.80859,-1.58203 -1.58204,-1.58203 -1.58204,-3.8086 v -23.88671 q 0,-1.40625 1.40625,-1.40625 h 11.85547 q 1.40625,0 1.40625,1.40625 v 2.87109 q 0,1.38672 -1.40625,1.38672 h -7.59765 v 6.83594 h 6.34765 q 1.40625,0 1.40625,1.40625 v 2.87109 q 0,1.40625 -1.40625,1.40625 h -6.34765 v 6.83594 h 7.71484 q 1.40625,0 1.40625,1.40625 v 2.85156 q 0,1.40625 -1.40625,1.40625 z"
         style="font-style:normal;font-variant:normal;font-weight:normal;font-stretch:normal;font-family:'New Athletic M54';-inkscape-font-specification:'New Athletic M54';fill:#ffffff;fill-opacity:1;stroke-width:0.12208457"
         id="path850" />
      <path
         d="m 362.89648,380.72513 h -7.24609 q -2.22656,0 -3.82812,-1.58203 -1.58204,-1.58203 -1.58204,-3.8086 v -23.88671 q 0,-1.40625 1.40625,-1.40625 h 2.8711 q 1.40625,0 1.40625,1.40625 v 23.61328 h 6.97265 q 1.38672,0 1.38672,1.40625 v 2.85156 q 0,1.40625 -1.38672,1.40625 z"
         style="font-style:normal;font-variant:normal;font-weight:normal;font-stretch:normal;font-family:'New Athletic M54';-inkscape-font-specification:'New Athletic M54';fill:#ffffff;fill-opacity:1;stroke-width:0.12208457"
         id="path852" />
      <path
         d="m 378.4043,370.31497 h -5.70313 v 9.00391 q 0,1.40625 -1.38672,1.40625 h -2.87109 q -1.40625,0 -1.40625,-1.40625 v -27.87109 q 0,-1.40625 1.40625,-1.40625 h 9.98047 q 2.22656,0 3.96484,1.71875 1.73828,1.69921 1.73828,3.96484 v 8.90625 q 0,2.28516 -1.73828,3.98437 -1.73828,1.69922 -3.98437,1.69922 z m 0.0586,-5.66406 v -8.94531 h -5.76172 v 8.94531 z"
         style="font-style:normal;font-variant:normal;font-weight:normal;font-stretch:normal;font-family:'New Athletic M54';-inkscape-font-specification:'New Athletic M54';fill:#ffffff;fill-opacity:1;stroke-width:0.12208457"
         id="path854" />
      <path
         d="m 403.24805,380.72513 h -2.8711 q -1.40625,0 -1.40625,-1.40625 v -11.09375 h -6.42578 v 11.09375 q 0,1.40625 -1.38672,1.40625 h -2.89062 q -1.38672,0 -1.38672,-1.40625 v -27.87109 q 0,-1.40625 1.38672,-1.40625 h 2.89062 q 1.38672,0 1.38672,1.40625 v 11.09375 h 6.42578 v -11.09375 q 0,-1.40625 1.40625,-1.40625 h 2.8711 q 1.38672,0 1.38672,1.40625 v 27.87109 q 0,1.40625 -1.38672,1.40625 z"
         style="font-style:normal;font-variant:normal;font-weight:normal;font-stretch:normal;font-family:'New Athletic M54';-inkscape-font-specification:'New Athletic M54';fill:#ffffff;fill-opacity:1;stroke-width:0.12208457"
         id="path856" />
      <path
         d="m 411.62695,380.72513 h -2.87109 q -1.40625,0 -1.40625,-1.40625 v -27.87109 q 0,-1.40625 1.40625,-1.40625 h 2.87109 q 1.40625,0 1.40625,1.40625 v 27.87109 q 0,1.40625 -1.40625,1.40625 z"
         style="font-style:normal;font-variant:normal;font-weight:normal;font-stretch:normal;font-family:'New Athletic M54';-inkscape-font-specification:'New Athletic M54';fill:#ffffff;fill-opacity:1;stroke-width:0.12208457"
         id="path858" />
      <path
         d="m 429.81055,379.59232 -1.13282,-5.70313 h -5.9375 l -1.13281,5.70313 q -0.23437,1.13281 -1.38672,1.13281 h -2.91015 q -0.6836,0 -1.09375,-0.50781 -0.42969,-0.48828 -0.29297,-1.17188 l 5.58594,-27.87109 q 0.21484,-1.13281 1.36718,-1.13281 h 5.66407 q 1.15234,0 1.38671,1.13281 l 5.56641,27.87109 q 0.11719,0.6836 -0.29297,1.17188 -0.42969,0.50781 -1.07422,0.50781 h -2.92968 q -1.17188,0 -1.38672,-1.13281 z m -2.26563,-11.36719 -1.83594,-9.17969 -1.83593,9.17969 z"
         style="font-style:normal;font-variant:normal;font-weight:normal;font-stretch:normal;font-family:'New Athletic M54';-inkscape-font-specification:'New Athletic M54';fill:#ffffff;fill-opacity:1;stroke-width:0.12208457"
         id="path860" />
    </g>
    <g
       aria-label="FLYERS"
       transform="matrix(1.2591913,0,0,1.2591913,-214.90997,-263.7647)"
       style="font-style:normal;font-weight:normal;font-size:40px;line-height:1.25;font-family:sans-serif;letter-spacing:0px;word-spacing:0px;fill:#000000;fill-opacity:1;stroke:none;stroke-width:0.21012163"
       id="flowRoot1002">
      <path
         d="m 237.48633,355.7056 h -7.57813 v 6.83594 h 6.34766 q 1.38672,0 1.38672,1.40625 v 2.87109 q 0,1.40625 -1.38672,1.40625 h -6.34766 v 11.09375 q 0,1.40625 -1.40625,1.40625 h -2.87109 q -1.40625,0 -1.40625,-1.40625 v -23.86719 q 0,-2.22656 1.58203,-3.80859 1.58203,-1.60156 3.82813,-1.60156 h 7.85156 q 1.40625,0 1.40625,1.40625 v 2.87109 q 0,1.38672 -1.40625,1.38672 z"
         style="font-style:normal;font-variant:normal;font-weight:normal;font-stretch:normal;font-family:'New Athletic M54';-inkscape-font-specification:'New Athletic M54';fill:#ffffff;fill-opacity:1;stroke-width:0.07889793"
         id="path825" />
      <path
         d="m 254.30273,380.72513 h -7.24609 q -2.22656,0 -3.82812,-1.58203 -1.58204,-1.58203 -1.58204,-3.8086 v -23.88671 q 0,-1.40625 1.40625,-1.40625 h 2.8711 q 1.40625,0 1.40625,1.40625 v 23.61328 h 6.97265 q 1.38672,0 1.38672,1.40625 v 2.85156 q 0,1.40625 -1.38672,1.40625 z"
         style="font-style:normal;font-variant:normal;font-weight:normal;font-stretch:normal;font-family:'New Athletic M54';-inkscape-font-specification:'New Athletic M54';fill:#ffffff;fill-opacity:1;stroke-width:0.07889793"
         id="path827" />
      <path
         d="m 263.24805,369.41654 v 9.90234 q 0,1.40625 -1.40625,1.40625 h -2.92969 q -1.40625,0 -1.40625,-1.40625 v -9.94141 l -6.15234,-17.46093 q -0.25391,-0.6836 0.17578,-1.28907 0.44922,-0.58593 1.15234,-0.58593 h 2.85156 q 0.9961,0 1.32813,0.95703 l 3.53515,10.46875 3.47657,-10.46875 q 0.3125,-0.95703 1.32812,-0.95703 h 3.02735 q 0.70312,0 1.13281,0.60546 0.41015,0.58594 0.17578,1.26954 z"
         style="font-style:normal;font-variant:normal;font-weight:normal;font-stretch:normal;font-family:'New Athletic M54';-inkscape-font-specification:'New Athletic M54';fill:#ffffff;fill-opacity:1;stroke-width:0.07889793"
         id="path829" />
      <path
         d="m 285.88477,380.72513 h -7.98829 q -2.22656,0 -3.80859,-1.58203 -1.58203,-1.58203 -1.58203,-3.8086 v -23.88671 q 0,-1.40625 1.40625,-1.40625 h 11.85547 q 1.40625,0 1.40625,1.40625 v 2.87109 q 0,1.38672 -1.40625,1.38672 h -7.59766 v 6.83594 h 6.34766 q 1.40625,0 1.40625,1.40625 v 2.87109 q 0,1.40625 -1.40625,1.40625 h -6.34766 v 6.83594 h 7.71485 q 1.40625,0 1.40625,1.40625 v 2.85156 q 0,1.40625 -1.40625,1.40625 z"
         style="font-style:normal;font-variant:normal;font-weight:normal;font-stretch:normal;font-family:'New Athletic M54';-inkscape-font-specification:'New Athletic M54';fill:#ffffff;fill-opacity:1;stroke-width:0.07889793"
         id="path831" />
      <path
         d="m 306.2168,380.72513 h -3.06641 q -0.9375,0 -1.28906,-0.89844 l -4.49219,-11.60156 h -1.67969 v 11.09375 q 0,1.40625 -1.40625,1.40625 h -2.87109 q -1.40625,0 -1.40625,-1.40625 v -27.87109 q 0,-1.40625 1.40625,-1.40625 h 9.98047 q 2.24609,0 3.98437,1.71875 1.73828,1.69921 1.73828,3.96484 v 6.79687 q 0,1.79688 -1.11328,3.26172 -1.11328,1.46485 -2.73437,2.07032 l 4.25781,10.95703 q 0.27344,0.72265 -0.13672,1.30859 -0.42969,0.60547 -1.17187,0.60547 z m -4.78516,-18.18359 v -6.83594 h -5.74219 v 6.83594 z"
         style="font-style:normal;font-variant:normal;font-weight:normal;font-stretch:normal;font-family:'New Athletic M54';-inkscape-font-specification:'New Athletic M54';fill:#ffffff;fill-opacity:1;stroke-width:0.07889793"
         id="path833" />
      <path
         d="m 321.93945,380.72513 h -5.70312 q -2.26563,0 -3.98438,-1.67969 -1.69922,-1.69922 -1.69922,-3.98437 v -1.07422 q 0,-1.40625 1.38672,-1.40625 h 2.8711 q 1.40625,0 1.40625,1.40625 v 1.07422 h 5.72265 v -6.83594 h -5.70312 q -2.26563,0 -3.98438,-1.69922 -1.69922,-1.69922 -1.69922,-3.96484 v -6.85547 q 0,-2.2461 1.69922,-3.94531 1.71875,-1.71875 3.98438,-1.71875 h 5.70312 q 2.2461,0 3.94532,1.69921 1.71875,1.69922 1.71875,3.94532 v 0.9375 q 0,1.38672 -1.38672,1.38672 h -2.8711 q -1.40625,0 -1.40625,-1.38672 v -0.91797 h -5.72265 v 6.83594 h 5.72265 q 2.2461,0 3.94532,1.69921 1.71875,1.69922 1.71875,3.94532 v 6.89453 q 0,2.28515 -1.71875,3.96484 -1.69922,1.67969 -3.94532,1.67969 z"
         style="font-style:normal;font-variant:normal;font-weight:normal;font-stretch:normal;font-family:'New Athletic M54';-inkscape-font-specification:'New Athletic M54';fill:#ffffff;fill-opacity:1;stroke-width:0.07889793"
         id="path835" />
    </g>
  </g>
</svg>
