<?xml version="1.0" encoding="UTF-8" standalone="no"?>
<!-- Created with Inkscape (http://www.inkscape.org/) -->

<svg
   xmlns:dc="http://purl.org/dc/elements/1.1/"
   xmlns:cc="http://creativecommons.org/ns#"
   xmlns:rdf="http://www.w3.org/1999/02/22-rdf-syntax-ns#"
   xmlns:svg="http://www.w3.org/2000/svg"
   xmlns="http://www.w3.org/2000/svg"
   xmlns:sodipodi="http://sodipodi.sourceforge.net/DTD/sodipodi-0.dtd"
   xmlns:inkscape="http://www.inkscape.org/namespaces/inkscape"
   width="1000"
   height="1000"
   viewBox="0 0 264.58333 264.58334"
   version="1.1"
   id="svg8"
   inkscape:version="0.92.3 (2405546, 2018-03-11)"
   sodipodi:docname="pit-road.svg">
  <defs
     id="defs2" />
  <sodipodi:namedview
     id="base"
     pagecolor="#ffffff"
     bordercolor="#666666"
     borderopacity="1.0"
     inkscape:pageopacity="0.0"
     inkscape:pageshadow="2"
     inkscape:zoom="0.7"
     inkscape:cx="301.45402"
     inkscape:cy="412.82613"
     inkscape:document-units="mm"
     inkscape:current-layer="layer1"
     showgrid="false"
     units="px"
     inkscape:window-width="1920"
     inkscape:window-height="1029"
     inkscape:window-x="1920"
     inkscape:window-y="0"
     inkscape:window-maximized="1"
     inkscape:snap-global="false"
     showguides="true" />
  <metadata
     id="metadata5">
    <rdf:RDF>
      <cc:Work
         rdf:about="">
        <dc:format>image/svg+xml</dc:format>
        <dc:type
           rdf:resource="http://purl.org/dc/dcmitype/StillImage" />
        <dc:title />
      </cc:Work>
    </rdf:RDF>
  </metadata>
  <g
     inkscape:label="Layer 1"
     inkscape:groupmode="layer"
     id="layer1"
     transform="translate(0,-32.41665)">
    <rect
       style="opacity:1;fill:#ffffff;fill-opacity:1;stroke:none;stroke-width:0.13229166;stroke-linecap:butt;stroke-linejoin:round;stroke-miterlimit:4;stroke-dasharray:none;stroke-opacity:1;paint-order:normal"
       id="rect898"
       width="276.3006"
       height="275.16666"
       x="-6.0476193"
       y="27.124983" />
    <path
       inkscape:connector-curvature="0"
       id="path928"
       d="m 145.98434,50.391152 c -1.68599,-0.0099 -3.53851,0.05478 -5.5804,0.20765 -21.7804,1.630617 -25.27507,37.853636 -31.56456,50.549168 -0.16277,0.3285 -0.37012,0.7671 -0.55034,1.13825 -1.4232,2.05211 -2.87742,4.26155 -4.34152,6.54923 -7.454274,11.64726 -37.037964,70.5823 -38.668615,81.29779 -1.630586,10.71549 1.863307,43.79357 5.357495,43.79357 2.621936,0 7.86669,-9.44236 10.321945,-14.15708 2.311597,20.05769 7.334424,39.30658 12.506712,46.76945 1.916368,2.76508 4.437858,4.8547 7.300833,6.4333 -1.085502,2.0518 -2.409239,5.07253 -1.942719,6.90274 0.757097,2.97005 2.736989,1.10685 4.367609,2.09687 1.63062,0.99002 2.56239,3.20291 2.85359,4.77529 0,0 3.90167,-2.85331 4.25108,-5.76512 0,0 3.96006,-0.0583 8.56075,4.4842 0,0 1.3975,-2.21309 0.5822,-5.41608 0,0 3.55239,0.4073 6.93012,3.61029 0,0 0.73704,-2.15806 -0.45925,-5.83391 1.67158,0.0163 3.23016,0.01 4.59437,0.01 0.62051,0 1.24993,-0.006 1.88669,-0.0203 0.85203,1.85632 2.37937,4.83114 4.16956,6.65942 0,0 1.57237,-2.91146 4.07654,-4.4256 0,0 1.74744,0.46579 4.54278,4.36763 0,0 2.85367,-2.2714 2.97016,-5.53263 0,0 2.9117,0.69893 5.18292,3.78545 0,0 5.87986,-8.05005 0.15416,-10.25633 2.50193,-1.58667 4.85393,-3.61861 6.95051,-6.22438 3.73856,-4.64651 9.16451,-15.39833 13.94688,-28.50143 1.21471,-0.34192 2.69222,-0.94603 3.87337,-2.0147 2.44593,-2.21297 18.51936,-41.69743 17.3546,-57.30477 -1.09942,-14.73236 -15.08112,-35.60675 -23.01846,-64.2228 -1.75225,-8.90098 -2.8102,-15.89398 -2.25611,-19.287803 1.86356,-11.414321 21.89689,-22.595521 42.39607,-16.888355 0,0 1e-4,-4.659462 -1.51406,-6.406552 -1.51412,-1.74709 -35.99007,-9.783525 -42.39608,-11.996511 -5.80543,-2.005516 -6.54093,-9.080702 -22.83883,-9.176051 z"
       style="opacity:1;fill:#000000;stroke:none;stroke-width:0.32623125;stroke-linecap:butt;stroke-linejoin:miter;stroke-opacity:1;stroke-miterlimit:4;stroke-dasharray:none" />
    <path
       style="opacity:1;fill:#fcb514;stroke:none;stroke-width:1.2325933px;stroke-linecap:butt;stroke-linejoin:miter;stroke-opacity:1;fill-opacity:1"
       d="m 552.83984,131.17383 a 13.246307,13.515683 0 0 0 -13.24609,13.51367 13.246307,13.515683 0 0 0 13.24609,13.51758 13.246307,13.515683 0 0 0 13.2461,-13.51758 13.246307,13.515683 0 0 0 -13.2461,-13.51367 z"
       transform="matrix(0.26458333,0,0,0.26458333,0,32.41665)"
       id="path1004" />
    <path
       style="opacity:1;fill:#fcb514;stroke:none;stroke-width:1.2325933px;stroke-linecap:butt;stroke-linejoin:miter;stroke-opacity:1;fill-opacity:1"
       d="m 471.83984,147.20898 c -6.27267,0.11047 -15.1179,8.24121 -23.48242,17.94922 -7.83605,23.40059 -19.46,63.95456 -23.42578,77.9043 11.61092,-14.2011 22.13178,-23.32753 30.5,-23.12109 2.89671,0.0713 5.53642,1.25817 7.875,3.73437 14.96716,15.8476 -41.37857,43.14076 -95.96484,138.22656 -0.74154,1.29158 -1.47535,2.61023 -2.20899,3.93946 -27.39032,69.13606 -56.24866,154.51611 -62.18359,216.09179 -3.64182,37.78315 4.566,81.98194 9.60115,125.67071 8.73685,75.80767 27.21577,146.03243 46.76446,174.23829 7.24296,10.45069 12.22736,14.30748 23.04806,20.27384 18.78003,10.84266 63.4759,18.4459 91.81763,18.7223 6.31779,0.0616 12.20917,0.0371 17.36524,0.0371 2.34523,0 4.7242,-0.0221 7.13086,-0.0762 25.78189,-0.56659 59.63121,-7.72154 76.5641,-18.46003 9.45611,-5.99685 18.92449,-15.00975 26.84857,-24.85833 25.08554,-36.93208 39.29511,-71.22332 51.52073,-104.21566 21.34318,-58.47731 44.77093,-126.7922 44.77093,-186.85744 0,-59.75779 -17.84142,-144.1324 -33.23438,-216.14062 -20.16627,-50.64006 -26.85217,-93.24718 -28.7539,-108.66797 -19.35915,-7.45475 -44.66643,-16.24514 -62.63281,-18.95703 -32.99543,-4.98044 -85.91278,4.35828 -96.4961,-14.31836 -10.58339,-18.6766 11.20494,-77.19827 -3.73633,-80.9336 -0.53813,-0.13461 -1.10201,-0.19188 -1.6875,-0.18164 z"
       transform="matrix(0.26458333,0,0,0.26458333,0,32.41665)"
       id="path1002"
       inkscape:connector-curvature="0"
       sodipodi:nodetypes="ccccccccscccsccccsccscccc" />
    <path
       style="opacity:1;fill:#fcb514;stroke:none;stroke-width:1.2325933px;stroke-linecap:butt;stroke-linejoin:miter;stroke-opacity:1;fill-opacity:1"
       d="m 701.41797,148.38281 c -66.45256,0.57525 -97.12695,33.29688 -97.12695,33.29688 0,0 44.82244,-21.78769 118.90625,-32.3711 -7.64576,-0.70032 -14.90476,-0.98541 -21.7793,-0.92578 z"
       transform="matrix(0.26458333,0,0,0.26458333,0,32.41665)"
       id="path1000" />
    <g
       aria-label="PITTSBURGH"
       transform="matrix(0.46077914,-0.35499812,0.35499812,0.46077914,-201.91825,121.98749)"
       style="font-style:normal;font-weight:normal;font-size:40px;line-height:1.25;font-family:sans-serif;letter-spacing:0px;word-spacing:0px;fill:#000000;fill-opacity:1;stroke:none"
       id="flowRoot1006">
      <path
         d="m 317.01953,420.31497 h -5.70312 v 9.00391 q 0,1.40625 -1.38672,1.40625 h -2.8711 q -1.40625,0 -1.40625,-1.40625 v -27.87109 q 0,-1.40625 1.40625,-1.40625 h 9.98047 q 2.22656,0 3.96485,1.71875 1.73828,1.69921 1.73828,3.96484 v 8.90625 q 0,2.28516 -1.73828,3.98437 -1.73829,1.69922 -3.98438,1.69922 z m 0.0586,-5.66406 v -8.94531 h -5.76171 v 8.94531 z"
         style="font-style:normal;font-variant:normal;font-weight:normal;font-stretch:normal;font-family:'New Athletic M54';-inkscape-font-specification:'New Athletic M54'"
         id="path1022"
         inkscape:connector-curvature="0" />
      <path
         d="m 329.77344,430.72513 h -2.8711 q -1.40625,0 -1.40625,-1.40625 v -27.87109 q 0,-1.40625 1.40625,-1.40625 h 2.8711 q 1.40625,0 1.40625,1.40625 v 27.87109 q 0,1.40625 -1.40625,1.40625 z"
         style="font-style:normal;font-variant:normal;font-weight:normal;font-stretch:normal;font-family:'New Athletic M54';-inkscape-font-specification:'New Athletic M54'"
         id="path1024"
         inkscape:connector-curvature="0" />
      <path
         d="m 349.46094,405.7056 h -4.21875 v 23.61328 q 0,1.40625 -1.40625,1.40625 h -2.8711 q -1.40625,0 -1.40625,-1.40625 V 405.7056 h -4.21875 q -1.40625,0 -1.40625,-1.38672 v -2.87109 q 0,-1.40625 1.40625,-1.40625 h 14.1211 q 1.40625,0 1.40625,1.40625 v 2.87109 q 0,1.38672 -1.40625,1.38672 z"
         style="font-style:normal;font-variant:normal;font-weight:normal;font-stretch:normal;font-family:'New Athletic M54';-inkscape-font-specification:'New Athletic M54'"
         id="path1026"
         inkscape:connector-curvature="0" />
      <path
         d="m 369.14844,405.7056 h -4.21875 v 23.61328 q 0,1.40625 -1.40625,1.40625 h -2.8711 q -1.40625,0 -1.40625,-1.40625 V 405.7056 h -4.21875 q -1.40625,0 -1.40625,-1.38672 v -2.87109 q 0,-1.40625 1.40625,-1.40625 h 14.1211 q 1.40625,0 1.40625,1.40625 v 2.87109 q 0,1.38672 -1.40625,1.38672 z"
         style="font-style:normal;font-variant:normal;font-weight:normal;font-stretch:normal;font-family:'New Athletic M54';-inkscape-font-specification:'New Athletic M54'"
         id="path1028"
         inkscape:connector-curvature="0" />
      <path
         d="m 384.69531,430.72513 h -5.70312 q -2.26563,0 -3.98438,-1.67969 -1.69922,-1.69922 -1.69922,-3.98437 v -1.07422 q 0,-1.40625 1.38672,-1.40625 h 2.8711 q 1.40625,0 1.40625,1.40625 v 1.07422 h 5.72265 v -6.83594 h -5.70312 q -2.26563,0 -3.98438,-1.69922 -1.69922,-1.69922 -1.69922,-3.96484 v -6.85547 q 0,-2.2461 1.69922,-3.94531 1.71875,-1.71875 3.98438,-1.71875 h 5.70312 q 2.2461,0 3.94531,1.69921 1.71875,1.69922 1.71875,3.94532 v 0.9375 q 0,1.38672 -1.38671,1.38672 h -2.8711 q -1.40625,0 -1.40625,-1.38672 v -0.91797 h -5.72265 v 6.83594 h 5.72265 q 2.2461,0 3.94531,1.69921 1.71875,1.69922 1.71875,3.94532 v 6.89453 q 0,2.28515 -1.71875,3.96484 -1.69921,1.67969 -3.94531,1.67969 z"
         style="font-style:normal;font-variant:normal;font-weight:normal;font-stretch:normal;font-family:'New Athletic M54';-inkscape-font-specification:'New Athletic M54'"
         id="path1030"
         inkscape:connector-curvature="0" />
      <path
         d="m 398.73828,412.54154 h 5.82031 v -6.83594 h -5.82031 z m 0,12.51953 h 5.82031 v -6.83594 h -5.82031 z m 5.82031,5.66406 h -10.09765 q -1.38672,0 -1.38672,-1.40625 v -27.87109 q 0,-1.40625 1.38672,-1.40625 h 10.09765 q 2.22657,0 3.94532,1.69921 1.73828,1.69922 1.73828,3.94532 v 5.07812 q 0,1.9336 -1.23047,3.41797 l -0.95703,1.17188 0.99609,1.23046 q 1.19141,1.48438 1.19141,3.37891 v 5.11719 q 0,2.26562 -1.71875,3.96484 -1.71875,1.67969 -3.96485,1.67969 z"
         style="font-style:normal;font-variant:normal;font-weight:normal;font-stretch:normal;font-family:'New Athletic M54';-inkscape-font-specification:'New Athletic M54'"
         id="path1032"
         inkscape:connector-curvature="0" />
      <path
         d="m 424.92969,430.72513 h -6.25 q -2.26563,0 -3.98438,-1.67969 -1.69922,-1.69922 -1.69922,-3.96484 v -23.63281 q 0,-1.40625 1.40625,-1.40625 h 2.85157 q 1.40625,0 1.40625,1.40625 v 23.61328 h 6.34765 v -23.61328 q 0,-1.40625 1.38672,-1.40625 h 2.87109 q 1.40625,0 1.40625,1.40625 v 23.59375 q 0,2.28515 -1.75781,3.98437 -1.73828,1.69922 -3.98437,1.69922 z"
         style="font-style:normal;font-variant:normal;font-weight:normal;font-stretch:normal;font-family:'New Athletic M54';-inkscape-font-specification:'New Athletic M54'"
         id="path1034"
         inkscape:connector-curvature="0" />
      <path
         d="m 449.59766,430.72513 h -3.06641 q -0.9375,0 -1.28906,-0.89844 L 440.75,418.22513 h -1.67969 v 11.09375 q 0,1.40625 -1.40625,1.40625 h -2.87109 q -1.40625,0 -1.40625,-1.40625 v -27.87109 q 0,-1.40625 1.40625,-1.40625 h 9.98047 q 2.24609,0 3.98437,1.71875 1.73828,1.69921 1.73828,3.96484 v 6.79687 q 0,1.79688 -1.11328,3.26172 -1.11328,1.46485 -2.73437,2.07032 l 4.25781,10.95703 q 0.27344,0.72265 -0.13672,1.30859 -0.42969,0.60547 -1.17187,0.60547 z m -4.78516,-18.18359 v -6.83594 h -5.74219 v 6.83594 z"
         style="font-style:normal;font-variant:normal;font-weight:normal;font-stretch:normal;font-family:'New Athletic M54';-inkscape-font-specification:'New Athletic M54'"
         id="path1036"
         inkscape:connector-curvature="0" />
      <path
         d="m 465.71094,430.72513 h -6.11328 q -2.2461,0 -3.96485,-1.67969 -1.69922,-1.67969 -1.69922,-3.94531 V 405.7056 q 0,-2.2461 1.71875,-3.94531 1.73828,-1.71875 3.98438,-1.71875 h 6.07422 q 2.24609,0 3.96484,1.71875 1.73828,1.69921 1.73828,3.94531 v 0.97656 q 0,1.38672 -1.38672,1.38672 h -2.87109 q -1.40625,0 -1.40625,-1.38672 v -0.97656 h -6.13281 v 19.35547 H 465.75 v -6.83594 h -2.48047 q -1.38672,0 -1.38672,-1.40625 v -2.87109 q 0,-1.40625 1.38672,-1.40625 h 6.75781 q 1.38672,0 1.38672,1.40625 v 11.11328 q 0,2.28515 -1.73828,3.98437 -1.71875,1.67969 -3.96484,1.67969 z"
         style="font-style:normal;font-variant:normal;font-weight:normal;font-stretch:normal;font-family:'New Athletic M54';-inkscape-font-specification:'New Athletic M54'"
         id="path1038"
         inkscape:connector-curvature="0" />
      <path
         d="m 490.53516,430.72513 h -2.8711 q -1.40625,0 -1.40625,-1.40625 v -11.09375 h -6.42578 v 11.09375 q 0,1.40625 -1.38672,1.40625 h -2.89062 q -1.38672,0 -1.38672,-1.40625 v -27.87109 q 0,-1.40625 1.38672,-1.40625 h 2.89062 q 1.38672,0 1.38672,1.40625 v 11.09375 h 6.42578 v -11.09375 q 0,-1.40625 1.40625,-1.40625 h 2.8711 q 1.38671,0 1.38671,1.40625 v 27.87109 q 0,1.40625 -1.38671,1.40625 z"
         style="font-style:normal;font-variant:normal;font-weight:normal;font-stretch:normal;font-family:'New Athletic M54';-inkscape-font-specification:'New Athletic M54'"
         id="path1040"
         inkscape:connector-curvature="0" />
    </g>
    <g
       aria-label="PENGUINS"
       transform="matrix(0.46077914,-0.35499812,0.35499812,0.46077914,-187.39385,140.88154)"
       style="font-style:normal;font-weight:normal;font-size:40px;line-height:1.25;font-family:sans-serif;letter-spacing:0px;word-spacing:0px;fill:#000000;fill-opacity:1;stroke:none"
       id="flowRoot1020">
      <path
         d="m 317.01953,420.31497 h -5.70312 v 9.00391 q 0,1.40625 -1.38672,1.40625 h -2.8711 q -1.40625,0 -1.40625,-1.40625 v -27.87109 q 0,-1.40625 1.40625,-1.40625 h 9.98047 q 2.22656,0 3.96485,1.71875 1.73828,1.69921 1.73828,3.96484 v 8.90625 q 0,2.28516 -1.73828,3.98437 -1.73829,1.69922 -3.98438,1.69922 z m 0.0586,-5.66406 v -8.94531 h -5.76171 v 8.94531 z"
         style="font-style:normal;font-variant:normal;font-weight:normal;font-stretch:normal;font-family:'New Athletic M54';-inkscape-font-specification:'New Athletic M54'"
         id="path1043"
         inkscape:connector-curvature="0" />
      <path
         d="m 338.875,430.72513 h -7.98828 q -2.22656,0 -3.8086,-1.58203 -1.58203,-1.58203 -1.58203,-3.8086 v -23.88671 q 0,-1.40625 1.40625,-1.40625 h 11.85547 q 1.40625,0 1.40625,1.40625 v 2.87109 q 0,1.38672 -1.40625,1.38672 h -7.59765 v 6.83594 h 6.34765 q 1.40625,0 1.40625,1.40625 v 2.87109 q 0,1.40625 -1.40625,1.40625 h -6.34765 v 6.83594 h 7.71484 q 1.40625,0 1.40625,1.40625 v 2.85156 q 0,1.40625 -1.40625,1.40625 z"
         style="font-style:normal;font-variant:normal;font-weight:normal;font-stretch:normal;font-family:'New Athletic M54';-inkscape-font-specification:'New Athletic M54'"
         id="path1045"
         inkscape:connector-curvature="0" />
      <path
         d="m 354.48047,429.82669 -5.83985,-15.17578 v 14.66797 q 0,1.40625 -1.40625,1.40625 h -2.83203 q -1.40625,0 -1.40625,-1.40625 v -27.87109 q 0,-1.40625 1.40625,-1.40625 h 3.71094 q 0.9375,0 1.30859,0.89843 l 5.85938,15.19532 v -14.6875 q 0,-1.40625 1.40625,-1.40625 H 359.5 q 1.40625,0 1.40625,1.40625 v 27.85156 q 0,1.38672 -1.38672,1.38672 l -3.71094,0.0195 q -0.97656,0.0195 -1.32812,-0.87891 z"
         style="font-style:normal;font-variant:normal;font-weight:normal;font-stretch:normal;font-family:'New Athletic M54';-inkscape-font-specification:'New Athletic M54'"
         id="path1047"
         inkscape:connector-curvature="0" />
      <path
         d="m 375.39844,430.72513 h -6.11328 q -2.2461,0 -3.96485,-1.67969 -1.69922,-1.67969 -1.69922,-3.94531 V 405.7056 q 0,-2.2461 1.71875,-3.94531 1.73828,-1.71875 3.98438,-1.71875 h 6.07422 q 2.24609,0 3.96484,1.71875 1.73828,1.69921 1.73828,3.94531 v 0.97656 q 0,1.38672 -1.38672,1.38672 h -2.87109 q -1.40625,0 -1.40625,-1.38672 v -0.97656 h -6.13281 v 19.35547 h 6.13281 v -6.83594 h -2.48047 q -1.38672,0 -1.38672,-1.40625 v -2.87109 q 0,-1.40625 1.38672,-1.40625 h 6.75781 q 1.38672,0 1.38672,1.40625 v 11.11328 q 0,2.28515 -1.73828,3.98437 -1.71875,1.67969 -3.96484,1.67969 z"
         style="font-style:normal;font-variant:normal;font-weight:normal;font-stretch:normal;font-family:'New Athletic M54';-inkscape-font-specification:'New Athletic M54'"
         id="path1049"
         inkscape:connector-curvature="0" />
      <path
         d="m 395.78906,430.72513 h -6.25 q -2.26562,0 -3.98437,-1.67969 -1.69922,-1.69922 -1.69922,-3.96484 v -23.63281 q 0,-1.40625 1.40625,-1.40625 h 2.85156 q 1.40625,0 1.40625,1.40625 v 23.61328 h 6.34766 v -23.61328 q 0,-1.40625 1.38672,-1.40625 h 2.87109 q 1.40625,0 1.40625,1.40625 v 23.59375 q 0,2.28515 -1.75781,3.98437 -1.73828,1.69922 -3.98438,1.69922 z"
         style="font-style:normal;font-variant:normal;font-weight:normal;font-stretch:normal;font-family:'New Athletic M54';-inkscape-font-specification:'New Athletic M54'"
         id="path1051"
         inkscape:connector-curvature="0" />
      <path
         d="m 408.52344,430.72513 h -2.8711 q -1.40625,0 -1.40625,-1.40625 v -27.87109 q 0,-1.40625 1.40625,-1.40625 h 2.8711 q 1.40625,0 1.40625,1.40625 v 27.87109 q 0,1.40625 -1.40625,1.40625 z"
         style="font-style:normal;font-variant:normal;font-weight:normal;font-stretch:normal;font-family:'New Athletic M54';-inkscape-font-specification:'New Athletic M54'"
         id="path1053"
         inkscape:connector-curvature="0" />
      <path
         d="m 424.16797,429.82669 -5.83985,-15.17578 v 14.66797 q 0,1.40625 -1.40625,1.40625 h -2.83203 q -1.40625,0 -1.40625,-1.40625 v -27.87109 q 0,-1.40625 1.40625,-1.40625 h 3.71094 q 0.9375,0 1.30859,0.89843 l 5.85938,15.19532 v -14.6875 q 0,-1.40625 1.40625,-1.40625 h 2.8125 q 1.40625,0 1.40625,1.40625 v 27.85156 q 0,1.38672 -1.38672,1.38672 l -3.71094,0.0195 q -0.97656,0.0195 -1.32812,-0.87891 z"
         style="font-style:normal;font-variant:normal;font-weight:normal;font-stretch:normal;font-family:'New Athletic M54';-inkscape-font-specification:'New Athletic M54'"
         id="path1055"
         inkscape:connector-curvature="0" />
      <path
         d="m 444.69531,430.72513 h -5.70312 q -2.26563,0 -3.98438,-1.67969 -1.69922,-1.69922 -1.69922,-3.98437 v -1.07422 q 0,-1.40625 1.38672,-1.40625 h 2.8711 q 1.40625,0 1.40625,1.40625 v 1.07422 h 5.72265 v -6.83594 h -5.70312 q -2.26563,0 -3.98438,-1.69922 -1.69922,-1.69922 -1.69922,-3.96484 v -6.85547 q 0,-2.2461 1.69922,-3.94531 1.71875,-1.71875 3.98438,-1.71875 h 5.70312 q 2.2461,0 3.94531,1.69921 1.71875,1.69922 1.71875,3.94532 v 0.9375 q 0,1.38672 -1.38671,1.38672 h -2.8711 q -1.40625,0 -1.40625,-1.38672 v -0.91797 h -5.72265 v 6.83594 h 5.72265 q 2.2461,0 3.94531,1.69921 1.71875,1.69922 1.71875,3.94532 v 6.89453 q 0,2.28515 -1.71875,3.96484 -1.69921,1.67969 -3.94531,1.67969 z"
         style="font-style:normal;font-variant:normal;font-weight:normal;font-stretch:normal;font-family:'New Athletic M54';-inkscape-font-specification:'New Athletic M54'"
         id="path1057"
         inkscape:connector-curvature="0" />
    </g>
  </g>
</svg>
