<?xml version="1.0" encoding="UTF-8" standalone="no"?>
<!-- Created with Inkscape (http://www.inkscape.org/) -->

<svg
   xmlns:dc="http://purl.org/dc/elements/1.1/"
   xmlns:cc="http://creativecommons.org/ns#"
   xmlns:rdf="http://www.w3.org/1999/02/22-rdf-syntax-ns#"
   xmlns:svg="http://www.w3.org/2000/svg"
   xmlns="http://www.w3.org/2000/svg"
   xmlns:sodipodi="http://sodipodi.sourceforge.net/DTD/sodipodi-0.dtd"
   xmlns:inkscape="http://www.inkscape.org/namespaces/inkscape"
   width="1000"
   height="1000"
   viewBox="0 0 264.58333 264.58334"
   version="1.1"
   id="svg8"
   inkscape:version="0.92.3 (2405546, 2018-03-11)"
   sodipodi:docname="stl-home.svg">
  <defs
     id="defs2" />
  <sodipodi:namedview
     id="base"
     pagecolor="#ffffff"
     bordercolor="#666666"
     borderopacity="1.0"
     inkscape:pageopacity="0.0"
     inkscape:pageshadow="2"
     inkscape:zoom="0.70710678"
     inkscape:cx="937.64096"
     inkscape:cy="510.39549"
     inkscape:document-units="mm"
     inkscape:current-layer="layer1"
     showgrid="false"
     units="px"
     inkscape:window-width="1920"
     inkscape:window-height="1029"
     inkscape:window-x="1920"
     inkscape:window-y="0"
     inkscape:window-maximized="1" />
  <metadata
     id="metadata5">
    <rdf:RDF>
      <cc:Work
         rdf:about="">
        <dc:format>image/svg+xml</dc:format>
        <dc:type
           rdf:resource="http://purl.org/dc/dcmitype/StillImage" />
        <dc:title />
      </cc:Work>
    </rdf:RDF>
  </metadata>
  <g
     inkscape:label="Layer 1"
     inkscape:groupmode="layer"
     id="layer1"
     transform="translate(0,-32.41665)">
    <rect
       style="opacity:1;fill:#002f87;fill-opacity:1;stroke:none;stroke-width:0.32623127;stroke-linecap:butt;stroke-linejoin:round;stroke-miterlimit:4;stroke-dasharray:none;stroke-opacity:1;paint-order:normal"
       id="rect958"
       width="279.13629"
       height="276.89124"
       x="-4.1159506"
       y="28.340654" />
    <path
       sodipodi:nodetypes="cccccccccccccccccc"
       inkscape:connector-curvature="0"
       id="path960"
       d="M 12.400778,56.170744 98.63016,205.5237 c -7.161222,-2.21016 -14.970762,-3.36272 -22.880784,-3.37683 -29.945272,-3e-5 -54.220757,15.97062 -54.220834,35.67146 7.7e-5,19.70084 24.275562,35.67148 54.220834,35.67145 29.945264,3e-5 54.220754,-15.97061 54.220834,-35.67145 -0.009,-4.28848 -1.19355,-8.54074 -3.49648,-12.55267 l 0.0227,-0.013 -14.3825,-24.91092 c 19.73153,-5.09491 71.03867,-6.52608 91.96857,-56.59494 h -22.60051 c 0,0 44.02375,-9.88745 47.08421,-44.494214 h -21.18752 c 0,0 36.21385,-8.13176 44.28355,-43.081843 H 45.860688 C 65.666824,90.475986 63.454473,105.91102 60.917546,111.66677 L 28.876505,56.170783 Z"
       style="opacity:1;fill:#041e42;fill-opacity:1;stroke:#fcb514;stroke-width:6.61458333;stroke-linecap:butt;stroke-linejoin:round;stroke-miterlimit:4;stroke-dasharray:none;stroke-opacity:1;paint-order:normal" />
    <path
       style="opacity:1;fill:#041e42;fill-opacity:1;stroke:none;stroke-width:0.41050816;stroke-linecap:butt;stroke-linejoin:round;stroke-miterlimit:4;stroke-dasharray:none;stroke-opacity:1;paint-order:normal"
       d="M 12.400778,56.170744 98.63016,205.5237 c -7.161222,-2.21016 -14.970762,-3.36272 -22.880784,-3.37683 -29.945272,-3e-5 -54.220757,15.97062 -54.220834,35.67146 7.7e-5,19.70084 24.275562,35.67148 54.220834,35.67145 29.945264,3e-5 54.220754,-15.97061 54.220834,-35.67145 -0.009,-4.28848 -1.19355,-8.54074 -3.49648,-12.55267 l 0.0227,-0.013 -14.3825,-24.91092 c 19.73153,-5.09491 71.03867,-6.52608 91.96857,-56.59494 h -22.60051 c 0,0 44.02375,-9.88745 47.08421,-44.494214 h -21.18752 c 0,0 36.21385,-8.13176 44.28355,-43.081843 H 45.860688 C 65.666824,90.475986 63.454473,105.91102 60.917546,111.66677 L 28.876505,56.170783 Z"
       id="path912"
       inkscape:connector-curvature="0"
       sodipodi:nodetypes="cccccccccccccccccc" />
    <g
       aria-label="ST. LOUIS"
       transform="matrix(0.91263352,0,0,0.91263352,-164.64148,-20.041148)"
       style="font-style:normal;font-weight:normal;font-size:40px;line-height:1.25;font-family:sans-serif;letter-spacing:0px;word-spacing:0px;fill:#fcb514;fill-opacity:1;stroke:none"
       id="flowRoot962">
      <path
         d="m 268.72656,145.49857 h -5.70312 q -2.26563,0 -3.98438,-1.67969 -1.69922,-1.69922 -1.69922,-3.98438 v -1.07421 q 0,-1.40625 1.38672,-1.40625 h 2.8711 q 1.40625,0 1.40625,1.40625 v 1.07421 h 5.72265 v -6.83593 h -5.70312 q -2.26563,0 -3.98438,-1.69922 -1.69922,-1.69922 -1.69922,-3.96485 v -6.85546 q 0,-2.2461 1.69922,-3.94532 1.71875,-1.71875 3.98438,-1.71875 h 5.70312 q 2.2461,0 3.94531,1.69922 1.71875,1.69922 1.71875,3.94531 v 0.9375 q 0,1.38672 -1.38671,1.38672 h -2.8711 q -1.40625,0 -1.40625,-1.38672 v -0.91796 h -5.72265 v 6.83593 h 5.72265 q 2.2461,0 3.94531,1.69922 1.71875,1.69922 1.71875,3.94531 v 6.89454 q 0,2.28515 -1.71875,3.96484 -1.69921,1.67969 -3.94531,1.67969 z"
         style="font-style:normal;font-variant:normal;font-weight:normal;font-stretch:normal;font-family:'New Athletic M54';-inkscape-font-specification:'New Athletic M54';fill:#fcb514;fill-opacity:1"
         id="path950" />
      <path
         d="m 292.63281,120.47904 h -4.21875 v 23.61328 q 0,1.40625 -1.40625,1.40625 h -2.87109 q -1.40625,0 -1.40625,-1.40625 v -23.61328 h -4.21875 q -1.40625,0 -1.40625,-1.38672 v -2.8711 q 0,-1.40625 1.40625,-1.40625 h 14.12109 q 1.40625,0 1.40625,1.40625 v 2.8711 q 0,1.38672 -1.40625,1.38672 z"
         style="font-style:normal;font-variant:normal;font-weight:normal;font-stretch:normal;font-family:'New Athletic M54';-inkscape-font-specification:'New Athletic M54';fill:#fcb514;fill-opacity:1"
         id="path952" />
      <path
         d="m 301.05078,145.49857 h -2.87109 q -1.38672,0 -1.38672,-1.40625 v -2.85157 q 0,-1.40625 1.38672,-1.40625 h 2.87109 q 1.40625,0 1.40625,1.40625 v 2.85157 q 0,1.40625 -1.40625,1.40625 z"
         style="font-style:normal;font-variant:normal;font-weight:normal;font-stretch:normal;font-family:'New Athletic M54';-inkscape-font-specification:'New Athletic M54';fill:#fcb514;fill-opacity:1"
         id="path954" />
      <path
         d="m 327.65234,145.49857 h -7.24609 q -2.22656,0 -3.82813,-1.58203 -1.58203,-1.58204 -1.58203,-3.8086 v -23.88672 q 0,-1.40625 1.40625,-1.40625 h 2.8711 q 1.40625,0 1.40625,1.40625 v 23.61328 h 6.97265 q 1.38672,0 1.38672,1.40625 v 2.85157 q 0,1.40625 -1.38672,1.40625 z"
         style="font-style:normal;font-variant:normal;font-weight:normal;font-stretch:normal;font-family:'New Athletic M54';-inkscape-font-specification:'New Athletic M54';fill:#fcb514;fill-opacity:1"
         id="path956" />
      <path
         d="m 343.92187,145.49857 h -6.46484 q -2.26562,0 -3.96484,-1.67969 -1.69922,-1.67969 -1.69922,-3.94531 V 120.4595 q 0,-2.24609 1.69922,-3.94531 1.71875,-1.69922 3.96484,-1.69922 h 6.44531 q 2.2461,0 3.96485,1.69922 1.73828,1.69922 1.73828,3.96485 v 19.375 q 0,2.26562 -1.73828,3.96484 -1.71875,1.67969 -3.94532,1.67969 z m 0,-5.66407 v -19.35546 h -6.46484 v 19.35546 z"
         style="font-style:normal;font-variant:normal;font-weight:normal;font-stretch:normal;font-family:'New Athletic M54';-inkscape-font-specification:'New Athletic M54';fill:#fcb514;fill-opacity:1"
         id="path958" />
      <path
         d="m 364.27344,145.49857 h -6.25 q -2.26563,0 -3.98438,-1.67969 -1.69922,-1.69922 -1.69922,-3.96484 v -23.63282 q 0,-1.40625 1.40625,-1.40625 h 2.85157 q 1.40625,0 1.40625,1.40625 v 23.61328 h 6.34765 v -23.61328 q 0,-1.40625 1.38672,-1.40625 h 2.87109 q 1.40625,0 1.40625,1.40625 v 23.59375 q 0,2.28516 -1.75781,3.98438 -1.73828,1.69922 -3.98437,1.69922 z"
         style="font-style:normal;font-variant:normal;font-weight:normal;font-stretch:normal;font-family:'New Athletic M54';-inkscape-font-specification:'New Athletic M54';fill:#fcb514;fill-opacity:1"
         id="path961" />
      <path
         d="m 377.00781,145.49857 h -2.87109 q -1.40625,0 -1.40625,-1.40625 v -27.8711 q 0,-1.40625 1.40625,-1.40625 h 2.87109 q 1.40625,0 1.40625,1.40625 v 27.8711 q 0,1.40625 -1.40625,1.40625 z"
         style="font-style:normal;font-variant:normal;font-weight:normal;font-stretch:normal;font-family:'New Athletic M54';-inkscape-font-specification:'New Athletic M54';fill:#fcb514;fill-opacity:1"
         id="path963" />
      <path
         d="m 392.55469,145.49857 h -5.70313 q -2.26562,0 -3.98437,-1.67969 -1.69922,-1.69922 -1.69922,-3.98438 v -1.07421 q 0,-1.40625 1.38672,-1.40625 h 2.87109 q 1.40625,0 1.40625,1.40625 v 1.07421 h 5.72266 v -6.83593 h -5.70313 q -2.26562,0 -3.98437,-1.69922 -1.69922,-1.69922 -1.69922,-3.96485 v -6.85546 q 0,-2.2461 1.69922,-3.94532 1.71875,-1.71875 3.98437,-1.71875 h 5.70313 q 2.24609,0 3.94531,1.69922 1.71875,1.69922 1.71875,3.94531 v 0.9375 q 0,1.38672 -1.38672,1.38672 h -2.87109 q -1.40625,0 -1.40625,-1.38672 v -0.91796 h -5.72266 v 6.83593 h 5.72266 q 2.24609,0 3.94531,1.69922 1.71875,1.69922 1.71875,3.94531 v 6.89454 q 0,2.28515 -1.71875,3.96484 -1.69922,1.67969 -3.94531,1.67969 z"
         style="font-style:normal;font-variant:normal;font-weight:normal;font-stretch:normal;font-family:'New Athletic M54';-inkscape-font-specification:'New Athletic M54';fill:#fcb514;fill-opacity:1"
         id="path965" />
    </g>
    <g
       aria-label="BLUES"
       transform="matrix(0.91263352,0,0,0.91263352,-142.18214,24.678628)"
       style="font-style:normal;font-weight:normal;font-size:40px;line-height:1.25;font-family:sans-serif;letter-spacing:0px;word-spacing:0px;fill:#fcb514;fill-opacity:1;stroke:none"
       id="flowRoot976">
      <path
         d="m 263.00391,127.31497 h 5.82031 v -6.83593 h -5.82031 z m 0,12.51953 h 5.82031 v -6.83593 h -5.82031 z m 5.82031,5.66407 h -10.09766 q -1.38672,0 -1.38672,-1.40625 v -27.8711 q 0,-1.40625 1.38672,-1.40625 h 10.09766 q 2.22656,0 3.94531,1.69922 1.73828,1.69922 1.73828,3.94531 v 5.07813 q 0,1.93359 -1.23047,3.41797 l -0.95703,1.17187 0.9961,1.23047 q 1.1914,1.48438 1.1914,3.37891 v 5.11719 q 0,2.26562 -1.71875,3.96484 -1.71875,1.67969 -3.96484,1.67969 z"
         style="font-style:normal;font-variant:normal;font-weight:normal;font-stretch:normal;font-family:'New Athletic M54';-inkscape-font-specification:'New Athletic M54';fill:#fcb514;fill-opacity:1"
         id="path939" />
      <path
         d="m 289.91797,145.49857 h -7.2461 q -2.22656,0 -3.82812,-1.58203 -1.58203,-1.58204 -1.58203,-3.8086 v -23.88672 q 0,-1.40625 1.40625,-1.40625 h 2.87109 q 1.40625,0 1.40625,1.40625 v 23.61328 h 6.97266 q 1.38672,0 1.38672,1.40625 v 2.85157 q 0,1.40625 -1.38672,1.40625 z"
         style="font-style:normal;font-variant:normal;font-weight:normal;font-stretch:normal;font-family:'New Athletic M54';-inkscape-font-specification:'New Athletic M54';fill:#fcb514;fill-opacity:1"
         id="path941" />
      <path
         d="m 305.99219,145.49857 h -6.25 q -2.26563,0 -3.98438,-1.67969 -1.69922,-1.69922 -1.69922,-3.96484 v -23.63282 q 0,-1.40625 1.40625,-1.40625 h 2.85157 q 1.40625,0 1.40625,1.40625 v 23.61328 h 6.34765 v -23.61328 q 0,-1.40625 1.38672,-1.40625 h 2.87109 q 1.40625,0 1.40625,1.40625 v 23.59375 q 0,2.28516 -1.75781,3.98438 -1.73828,1.69922 -3.98437,1.69922 z"
         style="font-style:normal;font-variant:normal;font-weight:normal;font-stretch:normal;font-family:'New Athletic M54';-inkscape-font-specification:'New Athletic M54';fill:#fcb514;fill-opacity:1"
         id="path943" />
      <path
         d="m 327.82812,145.49857 h -7.98828 q -2.22656,0 -3.80859,-1.58203 -1.58203,-1.58204 -1.58203,-3.8086 v -23.88672 q 0,-1.40625 1.40625,-1.40625 h 11.85547 q 1.40625,0 1.40625,1.40625 v 2.8711 q 0,1.38672 -1.40625,1.38672 h -7.59766 v 6.83593 h 6.34766 q 1.40625,0 1.40625,1.40625 v 2.8711 q 0,1.40625 -1.40625,1.40625 h -6.34766 v 6.83593 h 7.71484 q 1.40625,0 1.40625,1.40625 v 2.85157 q 0,1.40625 -1.40625,1.40625 z"
         style="font-style:normal;font-variant:normal;font-weight:normal;font-stretch:normal;font-family:'New Athletic M54';-inkscape-font-specification:'New Athletic M54';fill:#fcb514;fill-opacity:1"
         id="path945" />
      <path
         d="m 343.33594,145.49857 h -5.70313 q -2.26562,0 -3.98437,-1.67969 -1.69922,-1.69922 -1.69922,-3.98438 v -1.07421 q 0,-1.40625 1.38672,-1.40625 h 2.87109 q 1.40625,0 1.40625,1.40625 v 1.07421 h 5.72266 v -6.83593 h -5.70313 q -2.26562,0 -3.98437,-1.69922 -1.69922,-1.69922 -1.69922,-3.96485 v -6.85546 q 0,-2.2461 1.69922,-3.94532 1.71875,-1.71875 3.98437,-1.71875 h 5.70313 q 2.24609,0 3.94531,1.69922 Q 349,118.21341 349,120.4595 v 0.9375 q 0,1.38672 -1.38672,1.38672 h -2.87109 q -1.40625,0 -1.40625,-1.38672 v -0.91796 h -5.72266 v 6.83593 h 5.72266 q 2.24609,0 3.94531,1.69922 Q 349,130.71341 349,132.9595 v 6.89454 q 0,2.28515 -1.71875,3.96484 -1.69922,1.67969 -3.94531,1.67969 z"
         style="font-style:normal;font-variant:normal;font-weight:normal;font-stretch:normal;font-family:'New Athletic M54';-inkscape-font-specification:'New Athletic M54';fill:#fcb514;fill-opacity:1"
         id="path947" />
    </g>
  </g>
</svg>
