<?xml version="1.0" encoding="UTF-8" standalone="no"?>
<!-- Created with Inkscape (http://www.inkscape.org/) -->

<svg
   xmlns:dc="http://purl.org/dc/elements/1.1/"
   xmlns:cc="http://creativecommons.org/ns#"
   xmlns:rdf="http://www.w3.org/1999/02/22-rdf-syntax-ns#"
   xmlns:svg="http://www.w3.org/2000/svg"
   xmlns="http://www.w3.org/2000/svg"
   xmlns:sodipodi="http://sodipodi.sourceforge.net/DTD/sodipodi-0.dtd"
   xmlns:inkscape="http://www.inkscape.org/namespaces/inkscape"
   width="1000"
   height="1000"
   viewBox="0 0 264.58333 264.58334"
   version="1.1"
   id="svg8"
   inkscape:version="0.92.3 (2405546, 2018-03-11)"
   sodipodi:docname="tbl-alt.svg">
  <defs
     id="defs2" />
  <sodipodi:namedview
     id="base"
     pagecolor="#ffffff"
     bordercolor="#666666"
     borderopacity="1.0"
     inkscape:pageopacity="0.0"
     inkscape:pageshadow="2"
     inkscape:zoom="0.49497475"
     inkscape:cx="749.05495"
     inkscape:cy="303.61815"
     inkscape:document-units="mm"
     inkscape:current-layer="layer1"
     showgrid="false"
     units="px"
     inkscape:window-width="1920"
     inkscape:window-height="1029"
     inkscape:window-x="1920"
     inkscape:window-y="0"
     inkscape:window-maximized="1" />
  <metadata
     id="metadata5">
    <rdf:RDF>
      <cc:Work
         rdf:about="">
        <dc:format>image/svg+xml</dc:format>
        <dc:type
           rdf:resource="http://purl.org/dc/dcmitype/StillImage" />
        <dc:title />
      </cc:Work>
    </rdf:RDF>
  </metadata>
  <g
     inkscape:label="Layer 1"
     inkscape:groupmode="layer"
     id="layer1"
     transform="translate(0,-32.41665)">
    <rect
       style="opacity:1;fill:#040204;fill-opacity:1;stroke:none;stroke-width:2.9104166;stroke-linecap:butt;stroke-linejoin:round;stroke-miterlimit:4;stroke-dasharray:none;stroke-opacity:1;paint-order:normal"
       id="rect958"
       width="278.49484"
       height="275.82214"
       x="-5.3453903"
       y="25.988684" />
    <path
       style="opacity:1;fill:#a2aaad;fill-opacity:1;stroke:none;stroke-width:2.9104166;stroke-linecap:butt;stroke-linejoin:round;stroke-miterlimit:4;stroke-dasharray:none;stroke-opacity:1;paint-order:normal"
       d="M 124.80858,54.130957 A 24.7478,36.504048 50.231459 0 0 96.858773,65.466315 24.7478,36.504048 50.231459 0 0 84.218582,81.442723 22.903404,22.258236 0 0 0 64.264143,70.055596 22.903404,22.258236 0 0 0 41.360781,92.314039 a 22.903404,22.258236 0 0 0 2.006484,9.042591 26.451818,26.7744 0 0 0 -3.941882,-0.33306 26.451818,26.7744 0 0 0 -26.451655,26.77474 26.451818,26.7744 0 0 0 26.451655,26.77413 26.451818,26.7744 0 0 0 7.039235,-0.96675 26.588103,44.524182 66.660934 0 0 3.180924,22.57467 26.588103,44.524182 66.660934 0 0 48.718221,0.10669 l -17.107804,56.0138 41.970891,-7.75525 -16.87957,48.81364 66.60509,-82.57273 -42.42685,8.2118 8.64842,-21.95282 a 30.645399,34.516399 0 0 0 1.86553,0.1079 30.645399,34.516399 0 0 0 27.76705,-20.00434 34.516399,30.645399 0 0 0 25.78181,10.32681 34.516399,30.645399 0 0 0 34.51626,-30.6455 34.516399,30.645399 0 0 0 -0.4054,-4.50134 19.032404,19.032404 0 0 0 3.30817,0.30811 19.032404,19.032404 0 0 0 19.0326,-19.0326 19.032404,19.032404 0 0 0 -19.0326,-19.032603 19.032404,19.032404 0 0 0 -6.26457,1.08339 20.506812,30.248412 50.231459 0 0 -3.56014,-10.269432 20.506812,30.248412 50.231459 0 0 -27.5463,-1.864903 24.7478,36.504048 50.231459 0 0 -4.08842,-15.718189 24.7478,36.504048 50.231459 0 0 -44.01107,4.760176 24.7478,36.504048 50.231459 0 0 -1.39089,1.232456 24.7478,36.504048 50.231459 0 0 -4.27553,-13.089239 24.7478,36.504048 50.231459 0 0 -16.06186,-6.575181 z"
       id="path934"
       inkscape:connector-curvature="0" />
    <g
       aria-label="TAMPA BAY"
       transform="matrix(0.85002512,0,0,0.85002512,-110.98742,-99.903051)"
       style="font-style:normal;font-weight:normal;font-size:40px;line-height:1.25;font-family:sans-serif;letter-spacing:0px;word-spacing:0px;fill:#041f5b;fill-opacity:1;stroke:none;stroke-width:0.31126532"
       id="flowRoot960">
      <path
         d="m 214.88477,228.96927 h -4.21875 v 23.61328 q 0,1.40625 -1.40625,1.40625 h -2.8711 q -1.40625,0 -1.40625,-1.40625 v -23.61328 h -4.21875 q -1.40625,0 -1.40625,-1.38672 v -2.87109 q 0,-1.40625 1.40625,-1.40625 h 14.1211 q 1.40625,0 1.40625,1.40625 v 2.87109 q 0,1.38672 -1.40625,1.38672 z"
         style="font-style:normal;font-variant:normal;font-weight:normal;font-stretch:normal;font-family:'New Athletic M54';-inkscape-font-specification:'New Athletic M54';fill:#041f5b;fill-opacity:1;stroke-width:0.0968861"
         id="path890" />
      <path
         d="m 227.7168,252.85599 -1.13282,-5.70313 h -5.9375 l -1.13281,5.70313 q -0.23437,1.13281 -1.38672,1.13281 h -2.91015 q -0.6836,0 -1.09375,-0.50781 -0.42969,-0.48828 -0.29297,-1.17188 l 5.58594,-27.87109 q 0.21484,-1.13281 1.36718,-1.13281 h 5.66407 q 1.15234,0 1.38671,1.13281 l 5.56641,27.87109 q 0.11719,0.6836 -0.29297,1.17188 -0.42969,0.50781 -1.07422,0.50781 h -2.92968 q -1.17188,0 -1.38672,-1.13281 z m -2.26563,-11.36719 -1.83594,-9.17969 -1.83593,9.17969 z"
         style="font-style:normal;font-variant:normal;font-weight:normal;font-stretch:normal;font-family:'New Athletic M54';-inkscape-font-specification:'New Athletic M54';fill:#041f5b;fill-opacity:1;stroke-width:0.0968861"
         id="path892" />
      <path
         d="m 256.11523,253.9888 h -2.87109 q -1.40625,0 -1.40625,-1.40625 v -15.87891 l -3.67187,7.83204 q -0.3711,0.80078 -1.26954,0.80078 -0.89843,0 -1.25,-0.80078 l -3.67187,-7.83204 v 15.87891 q 0,1.40625 -1.40625,1.40625 h -2.87109 q -1.38672,0 -1.38672,-1.40625 v -27.87109 q 0,-1.40625 1.38672,-1.40625 h 3.3789 q 0.87891,0 1.26953,0.82031 l 4.55078,9.72656 4.57032,-9.72656 q 0.37109,-0.82031 1.26953,-0.82031 h 3.3789 q 1.40625,0 1.40625,1.40625 v 27.87109 q 0,1.40625 -1.40625,1.40625 z"
         style="font-style:normal;font-variant:normal;font-weight:normal;font-stretch:normal;font-family:'New Athletic M54';-inkscape-font-specification:'New Athletic M54';fill:#041f5b;fill-opacity:1;stroke-width:0.0968861"
         id="path894" />
      <path
         d="m 271.66211,243.57864 h -5.70313 v 9.00391 q 0,1.40625 -1.38671,1.40625 h -2.8711 q -1.40625,0 -1.40625,-1.40625 v -27.87109 q 0,-1.40625 1.40625,-1.40625 h 9.98047 q 2.22656,0 3.96484,1.71875 1.73829,1.69922 1.73829,3.96484 v 8.90625 q 0,2.28516 -1.73829,3.98438 -1.73828,1.69921 -3.98437,1.69921 z m 0.0586,-5.66406 v -8.94531 h -5.76172 v 8.94531 z"
         style="font-style:normal;font-variant:normal;font-weight:normal;font-stretch:normal;font-family:'New Athletic M54';-inkscape-font-specification:'New Athletic M54';fill:#041f5b;fill-opacity:1;stroke-width:0.0968861"
         id="path896" />
      <path
         d="m 290.88086,252.85599 -1.13281,-5.70313 h -5.9375 l -1.13282,5.70313 q -0.23437,1.13281 -1.38671,1.13281 h -2.91016 q -0.68359,0 -1.09375,-0.50781 -0.42969,-0.48828 -0.29297,-1.17188 l 5.58594,-27.87109 q 0.21484,-1.13281 1.36719,-1.13281 h 5.66406 q 1.15234,0 1.38672,1.13281 l 5.5664,27.87109 q 0.11719,0.6836 -0.29297,1.17188 -0.42968,0.50781 -1.07421,0.50781 h -2.92969 q -1.17188,0 -1.38672,-1.13281 z m -2.26563,-11.36719 -1.83593,-9.17969 -1.83594,9.17969 z"
         style="font-style:normal;font-variant:normal;font-weight:normal;font-stretch:normal;font-family:'New Athletic M54';-inkscape-font-specification:'New Athletic M54';fill:#041f5b;fill-opacity:1;stroke-width:0.0968861"
         id="path898" />
      <path
         d="m 314.86523,235.80521 h 5.82032 v -6.83594 h -5.82032 z m 0,12.51953 h 5.82032 v -6.83594 h -5.82032 z m 5.82032,5.66406 h -10.09766 q -1.38672,0 -1.38672,-1.40625 v -27.87109 q 0,-1.40625 1.38672,-1.40625 h 10.09766 q 2.22656,0 3.94531,1.69922 1.73828,1.69921 1.73828,3.94531 v 5.07812 q 0,1.9336 -1.23047,3.41797 l -0.95703,1.17188 0.99609,1.23047 q 1.19141,1.48437 1.19141,3.3789 v 5.11719 q 0,2.26562 -1.71875,3.96484 -1.71875,1.67969 -3.96484,1.67969 z"
         style="font-style:normal;font-variant:normal;font-weight:normal;font-stretch:normal;font-family:'New Athletic M54';-inkscape-font-specification:'New Athletic M54';fill:#041f5b;fill-opacity:1;stroke-width:0.0968861"
         id="path900" />
      <path
         d="m 342.36523,252.85599 -1.13281,-5.70313 h -5.9375 l -1.13281,5.70313 q -0.23438,1.13281 -1.38672,1.13281 h -2.91016 q -0.68359,0 -1.09375,-0.50781 -0.42968,-0.48828 -0.29296,-1.17188 l 5.58593,-27.87109 q 0.21485,-1.13281 1.36719,-1.13281 h 5.66406 q 1.15235,0 1.38672,1.13281 l 5.56641,27.87109 q 0.11719,0.6836 -0.29297,1.17188 -0.42969,0.50781 -1.07422,0.50781 h -2.92969 q -1.17187,0 -1.38672,-1.13281 z m -2.26562,-11.36719 -1.83594,-9.17969 -1.83594,9.17969 z"
         style="font-style:normal;font-variant:normal;font-weight:normal;font-stretch:normal;font-family:'New Athletic M54';-inkscape-font-specification:'New Athletic M54';fill:#041f5b;fill-opacity:1;stroke-width:0.0968861"
         id="path902" />
      <path
         d="m 357.28711,242.68021 v 9.90234 q 0,1.40625 -1.40625,1.40625 h -2.92969 q -1.40625,0 -1.40625,-1.40625 v -9.94141 l -6.15234,-17.46093 q -0.25391,-0.6836 0.17578,-1.28907 0.44922,-0.58593 1.15234,-0.58593 h 2.85157 q 0.99609,0 1.32812,0.95703 l 3.53516,10.46875 3.47656,-10.46875 q 0.3125,-0.95703 1.32812,-0.95703 h 3.02735 q 0.70312,0 1.13281,0.60547 0.41016,0.58593 0.17578,1.26953 z"
         style="font-style:normal;font-variant:normal;font-weight:normal;font-stretch:normal;font-family:'New Athletic M54';-inkscape-font-specification:'New Athletic M54';fill:#041f5b;fill-opacity:1;stroke-width:0.0968861"
         id="path904" />
    </g>
    <g
       aria-label="LIGHTNING"
       transform="matrix(0.85002512,0,0,0.85002512,-106.09509,-65.887834)"
       style="font-style:normal;font-weight:normal;font-size:40px;line-height:1.25;font-family:sans-serif;letter-spacing:0px;word-spacing:0px;fill:#041f5b;fill-opacity:1;stroke:none;stroke-width:0.31126532"
       id="flowRoot974">
      <path
         d="m 212.01367,253.9888 h -7.24609 q -2.22656,0 -3.82813,-1.58203 -1.58203,-1.58203 -1.58203,-3.80859 v -23.88672 q 0,-1.40625 1.40625,-1.40625 h 2.8711 q 1.40625,0 1.40625,1.40625 v 23.61328 h 6.97265 q 1.38672,0 1.38672,1.40625 v 2.85156 q 0,1.40625 -1.38672,1.40625 z"
         style="font-style:normal;font-variant:normal;font-weight:normal;font-stretch:normal;font-family:'New Athletic M54';-inkscape-font-specification:'New Athletic M54';fill:#041f5b;fill-opacity:1;stroke-width:0.31126532"
         id="path871" />
      <path
         d="m 220.43164,253.9888 h -2.87109 q -1.40625,0 -1.40625,-1.40625 v -27.87109 q 0,-1.40625 1.40625,-1.40625 h 2.87109 q 1.40625,0 1.40625,1.40625 v 27.87109 q 0,1.40625 -1.40625,1.40625 z"
         style="font-style:normal;font-variant:normal;font-weight:normal;font-stretch:normal;font-family:'New Athletic M54';-inkscape-font-specification:'New Athletic M54';fill:#041f5b;fill-opacity:1;stroke-width:0.31126532"
         id="path873" />
      <path
         d="m 236.36914,253.9888 h -6.11328 q -2.24609,0 -3.96484,-1.67969 -1.69922,-1.67968 -1.69922,-3.94531 v -19.39453 q 0,-2.24609 1.71875,-3.94531 1.73828,-1.71875 3.98437,-1.71875 h 6.07422 q 2.24609,0 3.96484,1.71875 1.73829,1.69922 1.73829,3.94531 v 0.97656 q 0,1.38672 -1.38672,1.38672 h -2.8711 q -1.40625,0 -1.40625,-1.38672 v -0.97656 h -6.13281 v 19.35547 h 6.13281 v -6.83594 h -2.48047 q -1.38671,0 -1.38671,-1.40625 v -2.87109 q 0,-1.40625 1.38671,-1.40625 h 6.75782 q 1.38672,0 1.38672,1.40625 v 11.11328 q 0,2.28515 -1.73829,3.98437 -1.71875,1.67969 -3.96484,1.67969 z"
         style="font-style:normal;font-variant:normal;font-weight:normal;font-stretch:normal;font-family:'New Athletic M54';-inkscape-font-specification:'New Athletic M54';fill:#041f5b;fill-opacity:1;stroke-width:0.31126532"
         id="path875" />
      <path
         d="m 261.19336,253.9888 h -2.87109 q -1.40625,0 -1.40625,-1.40625 V 241.4888 h -6.42579 v 11.09375 q 0,1.40625 -1.38671,1.40625 h -2.89063 q -1.38672,0 -1.38672,-1.40625 v -27.87109 q 0,-1.40625 1.38672,-1.40625 h 2.89063 q 1.38671,0 1.38671,1.40625 v 11.09375 h 6.42579 v -11.09375 q 0,-1.40625 1.40625,-1.40625 h 2.87109 q 1.38672,0 1.38672,1.40625 v 27.87109 q 0,1.40625 -1.38672,1.40625 z"
         style="font-style:normal;font-variant:normal;font-weight:normal;font-stretch:normal;font-family:'New Athletic M54';-inkscape-font-specification:'New Athletic M54';fill:#041f5b;fill-opacity:1;stroke-width:0.31126532"
         id="path877" />
      <path
         d="m 280.82227,228.96927 h -4.21875 v 23.61328 q 0,1.40625 -1.40625,1.40625 h -2.8711 q -1.40625,0 -1.40625,-1.40625 v -23.61328 h -4.21875 q -1.40625,0 -1.40625,-1.38672 v -2.87109 q 0,-1.40625 1.40625,-1.40625 h 14.1211 q 1.40625,0 1.40625,1.40625 v 2.87109 q 0,1.38672 -1.40625,1.38672 z"
         style="font-style:normal;font-variant:normal;font-weight:normal;font-stretch:normal;font-family:'New Athletic M54';-inkscape-font-specification:'New Athletic M54';fill:#041f5b;fill-opacity:1;stroke-width:0.31126532"
         id="path879" />
      <path
         d="m 296.4668,253.09036 -5.83985,-15.17578 v 14.66797 q 0,1.40625 -1.40625,1.40625 h -2.83203 q -1.40625,0 -1.40625,-1.40625 v -27.87109 q 0,-1.40625 1.40625,-1.40625 h 3.71094 q 0.9375,0 1.30859,0.89843 l 5.85938,15.19532 v -14.6875 q 0,-1.40625 1.40625,-1.40625 h 2.8125 q 1.40625,0 1.40625,1.40625 v 27.85156 q 0,1.38672 -1.38672,1.38672 l -3.71094,0.0195 q -0.97656,0.0195 -1.32812,-0.87891 z"
         style="font-style:normal;font-variant:normal;font-weight:normal;font-stretch:normal;font-family:'New Athletic M54';-inkscape-font-specification:'New Athletic M54';fill:#041f5b;fill-opacity:1;stroke-width:0.31126532"
         id="path881" />
      <path
         d="m 309.88477,253.9888 h -2.8711 q -1.40625,0 -1.40625,-1.40625 v -27.87109 q 0,-1.40625 1.40625,-1.40625 h 2.8711 q 1.40625,0 1.40625,1.40625 v 27.87109 q 0,1.40625 -1.40625,1.40625 z"
         style="font-style:normal;font-variant:normal;font-weight:normal;font-stretch:normal;font-family:'New Athletic M54';-inkscape-font-specification:'New Athletic M54';fill:#041f5b;fill-opacity:1;stroke-width:0.31126532"
         id="path883" />
      <path
         d="m 325.5293,253.09036 -5.83985,-15.17578 v 14.66797 q 0,1.40625 -1.40625,1.40625 h -2.83203 q -1.40625,0 -1.40625,-1.40625 v -27.87109 q 0,-1.40625 1.40625,-1.40625 h 3.71094 q 0.9375,0 1.30859,0.89843 l 5.85938,15.19532 v -14.6875 q 0,-1.40625 1.40625,-1.40625 h 2.8125 q 1.40625,0 1.40625,1.40625 v 27.85156 q 0,1.38672 -1.38672,1.38672 l -3.71094,0.0195 q -0.97656,0.0195 -1.32812,-0.87891 z"
         style="font-style:normal;font-variant:normal;font-weight:normal;font-stretch:normal;font-family:'New Athletic M54';-inkscape-font-specification:'New Athletic M54';fill:#041f5b;fill-opacity:1;stroke-width:0.31126532"
         id="path885" />
      <path
         d="m 346.44727,253.9888 h -6.11329 q -2.24609,0 -3.96484,-1.67969 -1.69922,-1.67968 -1.69922,-3.94531 v -19.39453 q 0,-2.24609 1.71875,-3.94531 1.73828,-1.71875 3.98438,-1.71875 h 6.07422 q 2.24609,0 3.96484,1.71875 1.73828,1.69922 1.73828,3.94531 v 0.97656 q 0,1.38672 -1.38672,1.38672 h -2.87109 q -1.40625,0 -1.40625,-1.38672 v -0.97656 h -6.13281 v 19.35547 h 6.13281 v -6.83594 h -2.48047 q -1.38672,0 -1.38672,-1.40625 v -2.87109 q 0,-1.40625 1.38672,-1.40625 h 6.75781 q 1.38672,0 1.38672,1.40625 v 11.11328 q 0,2.28515 -1.73828,3.98437 -1.71875,1.67969 -3.96484,1.67969 z"
         style="font-style:normal;font-variant:normal;font-weight:normal;font-stretch:normal;font-family:'New Athletic M54';-inkscape-font-specification:'New Athletic M54';fill:#041f5b;fill-opacity:1;stroke-width:0.31126532"
         id="path887" />
    </g>
  </g>
</svg>
