<?xml version="1.0" encoding="UTF-8" standalone="no"?>
<!-- Created with Inkscape (http://www.inkscape.org/) -->

<svg
   xmlns:dc="http://purl.org/dc/elements/1.1/"
   xmlns:cc="http://creativecommons.org/ns#"
   xmlns:rdf="http://www.w3.org/1999/02/22-rdf-syntax-ns#"
   xmlns:svg="http://www.w3.org/2000/svg"
   xmlns="http://www.w3.org/2000/svg"
   xmlns:sodipodi="http://sodipodi.sourceforge.net/DTD/sodipodi-0.dtd"
   xmlns:inkscape="http://www.inkscape.org/namespaces/inkscape"
   width="1000"
   height="1000"
   viewBox="0 0 264.58333 264.58334"
   version="1.1"
   id="svg8"
   inkscape:version="0.92.3 (2405546, 2018-03-11)"
   sodipodi:docname="van-alt.svg">
  <defs
     id="defs2" />
  <sodipodi:namedview
     id="base"
     pagecolor="#ffffff"
     bordercolor="#666666"
     borderopacity="1.0"
     inkscape:pageopacity="0.0"
     inkscape:pageshadow="2"
     inkscape:zoom="0.35355339"
     inkscape:cx="1367.8603"
     inkscape:cy="468.91224"
     inkscape:document-units="mm"
     inkscape:current-layer="layer1"
     showgrid="false"
     units="px"
     inkscape:window-width="1920"
     inkscape:window-height="1029"
     inkscape:window-x="1920"
     inkscape:window-y="0"
     inkscape:window-maximized="1"
     inkscape:snap-global="false"
     showguides="false" />
  <metadata
     id="metadata5">
    <rdf:RDF>
      <cc:Work
         rdf:about="">
        <dc:format>image/svg+xml</dc:format>
        <dc:type
           rdf:resource="http://purl.org/dc/dcmitype/StillImage" />
        <dc:title />
      </cc:Work>
    </rdf:RDF>
  </metadata>
  <g
     inkscape:label="Layer 1"
     inkscape:groupmode="layer"
     id="layer1"
     transform="translate(0,-32.41665)">
    <rect
       style="opacity:1;fill:#882532;fill-opacity:1;stroke:none;stroke-width:0.52916664;stroke-linecap:butt;stroke-linejoin:round;stroke-miterlimit:4;stroke-dasharray:none;stroke-opacity:1;paint-order:normal"
       id="rect914"
       width="291.11969"
       height="286.08203"
       x="-13.0146"
       y="21.779129" />
    <path
       style="fill:#97999b;fill-opacity:1;stroke:none;stroke-width:5.29166698;stroke-linecap:butt;stroke-linejoin:miter;stroke-miterlimit:4;stroke-dasharray:none;stroke-opacity:1"
       d="m 198.07617,146.39062 c -13.12507,2.54326 -26.24957,5.08947 -39.375,7.63086 7.2906,12.26594 17.59702,26.22816 13.33238,41.37755 -1.36028,4.70667 -2.90598,12.75925 3.68325,14.183 10.72465,1.48508 18.13284,-9.35032 21.40039,-18.17969 4.75596,-14.60111 4.28904,-30.30638 3.14648,-45.43554 -0.72916,0.14127 -1.45833,0.28255 -2.1875,0.42382 z"
       id="path912"
       inkscape:connector-curvature="0" />
    <path
       inkscape:connector-curvature="0"
       id="path964"
       d="m 170.30031,169.67505 c 0,0 3.95651,8.72525 4.74576,16.3179 0.78926,7.59265 -4.23443,16.76412 -1.31186,20.23676 2.92258,3.47263 13.65031,2.23566 20.58183,-13.22515 6.93154,-15.46081 4.14115,-44.65131 4.14115,-44.65131 l -36.58892,7.09255 z"
       style="fill:#021c2c;fill-opacity:1;stroke:none;stroke-width:5.29166698;stroke-linecap:butt;stroke-linejoin:miter;stroke-miterlimit:4;stroke-dasharray:none;stroke-opacity:1" />
    <path
       style="fill:#97999b;fill-opacity:1;stroke:none;stroke-width:5.29166651;stroke-linecap:butt;stroke-linejoin:miter;stroke-miterlimit:4;stroke-dasharray:none;stroke-opacity:1"
       d="m 97.925781,66.785156 c -4.494614,-0.487409 -6.275598,4.537351 -4.304687,7.96875 5.535146,12.232212 8.342246,25.536304 9.808596,38.785154 0.12943,5.78159 -7.510252,7.6283 -11.037112,10.8418 -23.235046,14.48252 -43.228362,35.06686 -55.279297,59.77734 -3.960255,8.81714 -5.146878,18.8998 -5.666015,28.19922 -9.192167,3.56876 -18.863879,9.38272 -21.4921879,19.63867 -2.7554423,7.36693 -2.2826897,15.38187 -1.3164062,23.03516 3.3816341,-6.18175 5.3706731,-13.24936 14.5527341,-15.64648 6.195243,-1.61737 13.734904,-2.34613 17.150391,-8.01563 6.094119,6.24911 15.623809,-0.40615 20.42496,3.16951 2.23423,1.66395 3.517094,2.82097 6.079505,5.8173 -0.735542,-6.62387 -0.588303,-19.25977 -7.430246,-23.34423 -1.821094,-1.08715 -3.881717,-1.68696 -5.951172,-2.17969 3.958004,-9.97396 11.888839,-18.14705 22.171875,-21.79101 20.691813,-7.33248 41.077621,-13.73655 62.510791,-18.49065 0.96593,4.75554 2.04111,9.14327 -0.54595,13.98479 -2.83799,5.31112 -6.56621,15.26723 -2.80664,18.86523 3.90056,3.73294 14.68359,0.83308 19.17578,-1.98242 9.81211,-6.14979 15.99255,-16.77845 21.49388,-26.77045 2.7417,-4.97972 4.3556,-10.55845 4.65065,-16.25299 10.00565,-3.86595 20.85088,-4.88013 31.53711,-6.22851 14.8859,-1.87829 27.9778,-10.92879 39.89844,-19.45508 4.72367,0.21168 8.98615,-4.6966 6.34961,-9.16797 -6.1819,-10.48403 -19.00943,-13.59915 -29.74414,-17.08789 -27.30644,-8.87449 -56.81281,-9.95092 -84.95898,-4.42774 -3.31913,0.65132 -7.14002,0.80565 -10.66602,-2.99414 -6.44354,-6.943872 -18.85473,-27.019882 -25.16602,-33.306638 -2.35777,-2.3486 -6.10213,-2.980219 -9.439449,-2.941406 z"
       id="path880"
       inkscape:connector-curvature="0"
       sodipodi:nodetypes="ccccccccscscscscsssscscsssssc" />
    <path
       sodipodi:nodetypes="sscscccccscccscscsccccsccscsccssccsscccsscsccccc"
       style="fill:#021c2c;fill-opacity:1;stroke:none;stroke-width:5.29166698;stroke-linecap:butt;stroke-linejoin:miter;stroke-miterlimit:4;stroke-dasharray:none;stroke-opacity:1"
       d="m 97.303532,68.835806 c -0.94737,0.117321 -1.702935,0.422116 -2.123539,0.939607 -1.682426,2.069971 3.593945,11.341263 4.424855,14.355937 0.830882,3.014672 7.154792,27.33806 5.585202,32.15279 -1.5696,4.81473 -13.961898,10.21881 -25.111404,18.97701 -13.39669,10.52343 -30.248066,27.97036 -39.807934,46.86344 -7.517316,14.85651 -6.556107,31.51974 -6.556107,31.51974 0,0 -14.663988,4.97005 -19.175004,13.01929 -4.510997,8.04925 -5.0791343,15.86072 -4.51219,21.31475 0,0 3.422459,-6.90248 6.694001,-8.6208 3.271524,-1.71831 14.80581,-3.60642 18.230282,-5.51291 3.424473,-1.90649 4.87665,-6.19191 4.87665,-6.19191 0,0 1.908135,3.4194 5.427698,4.08723 3.51959,0.66782 9.72785,-1.01147 12.71771,-0.46087 2.989851,0.55061 6.863596,4.62762 6.863596,4.62762 0,0 -1.240191,-11.93069 -4.001528,-15.26154 -2.761338,-3.33084 -10.106,-4.30942 -10.106,-4.30942 0,0 4.656248,-13.88397 15.157194,-20.82291 4.974253,-3.28695 18.442084,-8.08564 32.607164,-12.47897 -1.123906,-1.80515 -3.05301,-3.7532 -6.33011,-4.62749 -6.900302,-1.84095 -17.59378,2.07231 -20.768972,2.03691 -3.175183,-0.0354 -11.038863,-7.62356 0.759894,-16.15926 11.79871,-8.5357 26.572747,-6.05136 33.32528,1.40869 4.28357,4.73238 4.73538,10.39384 4.49472,13.90727 11.74799,-3.39141 22.76849,-6.4627 27.89184,-7.40694 0,0 -0.25728,-8.66633 4.50433,-13.3962 3.14933,-3.12834 17.02195,-7.31684 17.02195,-7.31684 0,0 -13.26279,6.41814 -15.70993,9.42899 -2.44714,3.01087 -3.09294,7.16951 -3.23289,10.80194 -0.13992,3.63243 1.98073,9.09738 1.25792,12.10128 -0.72278,3.0039 -8.79508,17.45294 -5.74792,21.8739 2.30607,3.34575 13.74232,0.60985 18.92986,-3.21525 6.46736,-4.76879 20.48535,-23.36425 22.55862,-34.95026 2.07329,-11.58601 -0.75242,-13.87656 -1.5591,-14.99866 -0.80666,-1.12212 -5.36784,-1.85387 -5.8397,-4.73358 -0.47185,-2.87972 13.63129,-11.58184 30.52041,-15.06026 16.88915,-3.47842 23.82212,-3.16542 32.55016,-2.17761 8.72803,0.98779 15.25071,5.6508 20.57018,3.7196 5.3195,-1.9312 3.21624,-7.2256 -3.53002,-12.38186 -6.74623,-5.15626 -40.84836,-18.25721 -76.99562,-17.14958 -21.15103,0.64811 -33.27264,5.18188 -38.12857,3.27473 -4.85595,-1.90716 -24.62356,-32.757966 -27.87919,-35.865152 -2.44169,-2.330388 -7.01164,-3.664421 -9.853788,-3.312452 z m 89.175388,48.646074 c 9.37834,-0.97492 17.31025,1.40153 17.71641,5.30795 0.40599,3.90643 -6.86755,7.86349 -16.24591,8.83832 -9.37818,0.9748 -17.30982,-1.40165 -17.71596,-5.308 -0.40598,-3.90635 6.8673,-7.86335 16.24546,-8.83827 z"
       id="path901"
       inkscape:connector-curvature="0" />
    <g
       aria-label="VANCOUVER"
       transform="matrix(0.4414043,-0.16928256,0.16928256,0.4414043,45.289876,60.063243)"
       style="font-style:normal;font-weight:normal;font-size:40px;line-height:1.25;font-family:sans-serif;letter-spacing:0px;word-spacing:0px;fill:#97999b;fill-opacity:1;stroke:none;stroke-width:0.55966634"
       id="flowRoot997">
      <path
         d="m 14.939453,199.5845 q 1.191406,-5.39062 1.914063,-8.59375 0.722656,-3.20312 1.777343,-8.00781 0.253907,-1.09375 1.386719,-1.09375 h 2.929688 q 0.683593,0 1.09375,0.52735 0.410156,0.54687 0.273437,1.17187 l -6.230469,27.91016 q -0.234375,1.07422 -1.367187,1.07422 h -3.574219 q -1.132812,0 -1.347656,-1.07422 L 5.5644531,183.58841 q -0.15625,-0.625 0.2734375,-1.17187 0.4101563,-0.52735 1.09375,-0.52735 h 2.9296875 q 1.1132809,0 1.3867189,1.09375 1.054687,4.80469 1.757812,8.00781 0.703125,3.20313 1.933594,8.59375 z"
         style="font-style:normal;font-variant:normal;font-weight:normal;font-stretch:normal;font-family:'New Athletic M54';-inkscape-font-specification:'New Athletic M54';fill:#97999b;stroke-width:0.55966634;fill-opacity:1"
         id="path1028" />
      <path
         d="m 35.876953,211.43997 -1.132812,-5.70312 h -5.9375 l -1.132813,5.70312 q -0.234375,1.13282 -1.386719,1.13282 h -2.910156 q -0.683594,0 -1.09375,-0.50782 -0.429687,-0.48828 -0.292969,-1.17187 l 5.585938,-27.8711 q 0.214844,-1.13281 1.367187,-1.13281 h 5.664063 q 1.152344,0 1.386719,1.13281 l 5.566406,27.8711 q 0.117187,0.68359 -0.292969,1.17187 -0.429687,0.50782 -1.074219,0.50782 h -2.929687 q -1.171875,0 -1.386719,-1.13282 z m -2.265625,-11.36718 -1.835937,-9.17969 -1.835938,9.17969 z"
         style="font-style:normal;font-variant:normal;font-weight:normal;font-stretch:normal;font-family:'New Athletic M54';-inkscape-font-specification:'New Athletic M54';fill:#97999b;stroke-width:0.55966634;fill-opacity:1"
         id="path1030" />
      <path
         d="m 55.955078,211.67435 -5.839844,-15.17578 v 14.66797 q 0,1.40625 -1.40625,1.40625 h -2.832031 q -1.40625,0 -1.40625,-1.40625 v -27.8711 q 0,-1.40625 1.40625,-1.40625 h 3.710938 q 0.9375,0 1.308593,0.89844 l 5.859375,15.19531 v -14.6875 q 0,-1.40625 1.40625,-1.40625 h 2.8125 q 1.40625,0 1.40625,1.40625 V 211.147 q 0,1.38672 -1.386718,1.38672 l -3.710938,0.0195 q -0.976562,0.0195 -1.328125,-0.8789 z"
         style="font-style:normal;font-variant:normal;font-weight:normal;font-stretch:normal;font-family:'New Athletic M54';-inkscape-font-specification:'New Athletic M54';fill:#97999b;stroke-width:0.55966634;fill-opacity:1"
         id="path1032" />
      <path
         d="m 80.330078,211.24466 q -1.503906,1.32813 -3.535156,1.32813 h -6.035156 q -2.246094,0 -3.964844,-1.67969 -1.699219,-1.69922 -1.699219,-3.96485 v -19.39453 q 0,-2.24609 1.71875,-3.94531 1.71875,-1.69922 3.964844,-1.69922 h 5.996094 q 2.246093,0 3.984375,1.71875 1.757812,1.71875 1.757812,3.96485 v 0.89843 q 0,1.38672 -1.40625,1.38672 h -2.871094 q -1.386718,0 -1.386718,-1.38672 v -0.91797 h -6.09375 v 19.35547 h 6.09375 v -1.07422 q 0,-1.40625 1.386718,-1.40625 h 2.871094 q 1.40625,0 1.40625,1.40625 v 1.07422 q 0,2.46094 -2.1875,4.33594 z"
         style="font-style:normal;font-variant:normal;font-weight:normal;font-stretch:normal;font-family:'New Athletic M54';-inkscape-font-specification:'New Athletic M54';fill:#97999b;stroke-width:0.55966634;fill-opacity:1"
         id="path1034" />
      <path
         d="m 97.380859,212.57279 h -6.464843 q -2.265625,0 -3.964844,-1.67969 -1.699219,-1.67969 -1.699219,-3.94531 v -19.41407 q 0,-2.24609 1.699219,-3.94531 1.71875,-1.69922 3.964844,-1.69922 h 6.445312 q 2.246094,0 3.964842,1.69922 1.73828,1.69922 1.73828,3.96484 v 19.375 q 0,2.26563 -1.73828,3.96485 -1.718748,1.67969 -3.945311,1.67969 z m 0,-5.66407 v -19.35547 h -6.464843 v 19.35547 z"
         style="font-style:normal;font-variant:normal;font-weight:normal;font-stretch:normal;font-family:'New Athletic M54';-inkscape-font-specification:'New Athletic M54';fill:#97999b;stroke-width:0.55966634;fill-opacity:1"
         id="path1036" />
      <path
         d="m 117.73242,212.57279 h -6.25 q -2.26562,0 -3.98437,-1.67969 -1.69922,-1.69922 -1.69922,-3.96485 v -23.63281 q 0,-1.40625 1.40625,-1.40625 h 2.85156 q 1.40625,0 1.40625,1.40625 v 23.61328 h 6.34766 v -23.61328 q 0,-1.40625 1.38672,-1.40625 h 2.87109 q 1.40625,0 1.40625,1.40625 v 23.59375 q 0,2.28516 -1.75781,3.98438 -1.73828,1.69922 -3.98438,1.69922 z"
         style="font-style:normal;font-variant:normal;font-weight:normal;font-stretch:normal;font-family:'New Athletic M54';-inkscape-font-specification:'New Athletic M54';fill:#97999b;stroke-width:0.55966634;fill-opacity:1"
         id="path1038" />
      <path
         d="m 135.7207,199.5845 q 1.19141,-5.39062 1.91407,-8.59375 0.72265,-3.20312 1.77734,-8.00781 0.25391,-1.09375 1.38672,-1.09375 h 2.92969 q 0.68359,0 1.09375,0.52735 0.41015,0.54687 0.27343,1.17187 l -6.23047,27.91016 q -0.23437,1.07422 -1.36718,1.07422 h -3.57422 q -1.13281,0 -1.34766,-1.07422 l -6.23047,-27.91016 q -0.15625,-0.625 0.27344,-1.17187 0.41016,-0.52735 1.09375,-0.52735 h 2.92969 q 1.11328,0 1.38672,1.09375 1.05468,4.80469 1.75781,8.00781 0.70312,3.20313 1.93359,8.59375 z"
         style="font-style:normal;font-variant:normal;font-weight:normal;font-stretch:normal;font-family:'New Athletic M54';-inkscape-font-specification:'New Athletic M54';fill:#97999b;stroke-width:0.55966634;fill-opacity:1"
         id="path1040" />
      <path
         d="m 161.36523,212.57279 h -7.98828 q -2.22656,0 -3.80859,-1.58204 -1.58203,-1.58203 -1.58203,-3.80859 v -23.88672 q 0,-1.40625 1.40625,-1.40625 h 11.85547 q 1.40625,0 1.40625,1.40625 v 2.8711 q 0,1.38671 -1.40625,1.38671 h -7.59766 v 6.83594 h 6.34766 q 1.40625,0 1.40625,1.40625 v 2.8711 q 0,1.40625 -1.40625,1.40625 h -6.34766 v 6.83593 h 7.71484 q 1.40625,0 1.40625,1.40625 v 2.85157 q 0,1.40625 -1.40625,1.40625 z"
         style="font-style:normal;font-variant:normal;font-weight:normal;font-stretch:normal;font-family:'New Athletic M54';-inkscape-font-specification:'New Athletic M54';fill:#97999b;stroke-width:0.55966634;fill-opacity:1"
         id="path1042" />
      <path
         d="m 181.69727,212.57279 h -3.06641 q -0.9375,0 -1.28906,-0.89844 l -4.49219,-11.60156 h -1.67969 v 11.09375 q 0,1.40625 -1.40625,1.40625 h -2.87109 q -1.40625,0 -1.40625,-1.40625 v -27.8711 q 0,-1.40625 1.40625,-1.40625 h 9.98047 q 2.24609,0 3.98437,1.71875 1.73828,1.69922 1.73828,3.96485 v 6.79687 q 0,1.79688 -1.11328,3.26172 -1.11328,1.46484 -2.73437,2.07031 l 4.25781,10.95703 q 0.27344,0.72266 -0.13672,1.3086 -0.42969,0.60547 -1.17187,0.60547 z m -4.78516,-18.1836 v -6.83594 h -5.74219 v 6.83594 z"
         style="font-style:normal;font-variant:normal;font-weight:normal;font-stretch:normal;font-family:'New Athletic M54';-inkscape-font-specification:'New Athletic M54';fill:#97999b;stroke-width:0.55966634;fill-opacity:1"
         id="path1044" />
    </g>
    <g
       aria-label="CANUCKS"
       transform="matrix(0.4414043,-0.16928256,0.16928256,0.4414043,68.21897,70.448291)"
       style="font-style:normal;font-weight:normal;font-size:40px;line-height:1.25;font-family:sans-serif;letter-spacing:0px;word-spacing:0px;fill:#97999b;fill-opacity:1;stroke:none;stroke-width:0.55966634"
       id="flowRoot1011">
      <path
         d="m 20.642578,211.24466 q -1.503906,1.32813 -3.535156,1.32813 h -6.035156 q -2.2460941,0 -3.9648441,-1.67969 -1.6992188,-1.69922 -1.6992188,-3.96485 v -19.39453 q 0,-2.24609 1.71875,-3.94531 1.71875,-1.69922 3.9648439,-1.69922 h 5.996094 q 2.246093,0 3.984375,1.71875 1.757812,1.71875 1.757812,3.96485 v 0.89843 q 0,1.38672 -1.40625,1.38672 h -2.871094 q -1.386718,0 -1.386718,-1.38672 v -0.91797 h -6.09375 v 19.35547 h 6.09375 v -1.07422 q 0,-1.40625 1.386718,-1.40625 h 2.871094 q 1.40625,0 1.40625,1.40625 v 1.07422 q 0,2.46094 -2.1875,4.33594 z"
         style="font-style:normal;font-variant:normal;font-weight:normal;font-stretch:normal;font-family:'New Athletic M54';-inkscape-font-specification:'New Athletic M54';fill:#97999b;stroke-width:0.55966634;fill-opacity:1"
         id="path1013" />
      <path
         d="m 38.806641,211.43997 -1.132813,-5.70312 h -5.9375 l -1.132812,5.70312 q -0.234375,1.13282 -1.386719,1.13282 h -2.910156 q -0.683594,0 -1.09375,-0.50782 -0.429688,-0.48828 -0.292969,-1.17187 l 5.585937,-27.8711 q 0.214844,-1.13281 1.367188,-1.13281 h 5.664062 q 1.152344,0 1.386719,1.13281 l 5.566406,27.8711 q 0.117188,0.68359 -0.292968,1.17187 -0.429688,0.50782 -1.074219,0.50782 h -2.929688 q -1.171875,0 -1.386718,-1.13282 z m -2.265625,-11.36718 -1.835938,-9.17969 -1.835937,9.17969 z"
         style="font-style:normal;font-variant:normal;font-weight:normal;font-stretch:normal;font-family:'New Athletic M54';-inkscape-font-specification:'New Athletic M54';fill:#97999b;stroke-width:0.55966634;fill-opacity:1"
         id="path1015" />
      <path
         d="m 58.845703,211.67435 -5.839844,-15.17578 v 14.66797 q 0,1.40625 -1.40625,1.40625 h -2.832031 q -1.40625,0 -1.40625,-1.40625 v -27.8711 q 0,-1.40625 1.40625,-1.40625 h 3.710938 q 0.9375,0 1.308593,0.89844 l 5.859375,15.19531 v -14.6875 q 0,-1.40625 1.40625,-1.40625 h 2.8125 q 1.40625,0 1.40625,1.40625 V 211.147 q 0,1.38672 -1.386718,1.38672 l -3.710938,0.0195 q -0.976562,0.0195 -1.328125,-0.8789 z"
         style="font-style:normal;font-variant:normal;font-weight:normal;font-stretch:normal;font-family:'New Athletic M54';-inkscape-font-specification:'New Athletic M54';fill:#97999b;stroke-width:0.55966634;fill-opacity:1"
         id="path1017" />
      <path
         d="m 79.919922,212.57279 h -6.25 q -2.265625,0 -3.984375,-1.67969 -1.699219,-1.69922 -1.699219,-3.96485 v -23.63281 q 0,-1.40625 1.40625,-1.40625 h 2.851563 q 1.40625,0 1.40625,1.40625 v 23.61328 h 6.347656 v -23.61328 q 0,-1.40625 1.386719,-1.40625 h 2.871093 q 1.40625,0 1.40625,1.40625 v 23.59375 q 0,2.28516 -1.757812,3.98438 -1.738281,1.69922 -3.984375,1.69922 z"
         style="font-style:normal;font-variant:normal;font-weight:normal;font-stretch:normal;font-family:'New Athletic M54';-inkscape-font-specification:'New Athletic M54';fill:#97999b;stroke-width:0.55966634;fill-opacity:1"
         id="path1019" />
      <path
         d="m 103.61133,211.24466 q -1.50391,1.32813 -3.53516,1.32813 h -6.035154 q -2.246094,0 -3.964844,-1.67969 -1.699219,-1.69922 -1.699219,-3.96485 v -19.39453 q 0,-2.24609 1.71875,-3.94531 1.71875,-1.69922 3.964844,-1.69922 h 5.996093 q 2.24609,0 3.98438,1.71875 1.75781,1.71875 1.75781,3.96485 v 0.89843 q 0,1.38672 -1.40625,1.38672 h -2.8711 q -1.38671,0 -1.38671,-1.38672 v -0.91797 h -6.093754 v 19.35547 h 6.093754 v -1.07422 q 0,-1.40625 1.38671,-1.40625 h 2.8711 q 1.40625,0 1.40625,1.40625 v 1.07422 q 0,2.46094 -2.1875,4.33594 z"
         style="font-style:normal;font-variant:normal;font-weight:normal;font-stretch:normal;font-family:'New Athletic M54';-inkscape-font-specification:'New Athletic M54';fill:#97999b;stroke-width:0.55966634;fill-opacity:1"
         id="path1021" />
      <path
         d="m 125.60352,183.92044 -6.58204,13.32031 6.58204,13.30079 q 0.33203,0.68359 -0.0586,1.36718 -0.41015,0.66407 -1.1914,0.66407 h -3.1836 q -0.91797,0 -1.26953,-0.80079 l -5.70312,-11.69921 v 11.09375 q 0,1.40625 -1.40625,1.40625 h -2.8711 q -1.38672,0 -1.38672,-1.40625 v -27.8711 q 0,-1.40625 1.38672,-1.40625 h 2.8711 q 1.40625,0 1.40625,1.40625 v 11.09375 l 5.70312,-11.69922 q 0.39063,-0.80078 1.26953,-0.80078 h 3.1836 q 0.76171,0 1.1914,0.66406 0.39063,0.70313 0.0586,1.36719 z"
         style="font-style:normal;font-variant:normal;font-weight:normal;font-stretch:normal;font-family:'New Athletic M54';-inkscape-font-specification:'New Athletic M54';fill:#97999b;stroke-width:0.55966634;fill-opacity:1"
         id="path1023" />
      <path
         d="m 140.07617,212.57279 h -5.70312 q -2.26563,0 -3.98438,-1.67969 -1.69922,-1.69922 -1.69922,-3.98438 v -1.07422 q 0,-1.40625 1.38672,-1.40625 h 2.8711 q 1.40625,0 1.40625,1.40625 v 1.07422 h 5.72265 v -6.83593 h -5.70312 q -2.26563,0 -3.98438,-1.69922 -1.69922,-1.69922 -1.69922,-3.96485 v -6.85547 q 0,-2.24609 1.69922,-3.94531 1.71875,-1.71875 3.98438,-1.71875 h 5.70312 q 2.2461,0 3.94531,1.69922 1.71875,1.69922 1.71875,3.94531 v 0.9375 q 0,1.38672 -1.38671,1.38672 h -2.8711 q -1.40625,0 -1.40625,-1.38672 v -0.91797 h -5.72265 v 6.83594 h 5.72265 q 2.2461,0 3.94531,1.69922 1.71875,1.69922 1.71875,3.94531 v 6.89453 q 0,2.28516 -1.71875,3.96485 -1.69921,1.67969 -3.94531,1.67969 z"
         style="font-style:normal;font-variant:normal;font-weight:normal;font-stretch:normal;font-family:'New Athletic M54';-inkscape-font-specification:'New Athletic M54';fill:#97999b;stroke-width:0.55966634;fill-opacity:1"
         id="path1025" />
    </g>
  </g>
</svg>
