<?xml version="1.0" encoding="UTF-8" standalone="no"?>
<!-- Created with Inkscape (http://www.inkscape.org/) -->

<svg
   xmlns:dc="http://purl.org/dc/elements/1.1/"
   xmlns:cc="http://creativecommons.org/ns#"
   xmlns:rdf="http://www.w3.org/1999/02/22-rdf-syntax-ns#"
   xmlns:svg="http://www.w3.org/2000/svg"
   xmlns="http://www.w3.org/2000/svg"
   xmlns:sodipodi="http://sodipodi.sourceforge.net/DTD/sodipodi-0.dtd"
   xmlns:inkscape="http://www.inkscape.org/namespaces/inkscape"
   width="1000"
   height="1000"
   viewBox="0 0 264.58333 264.58334"
   version="1.1"
   id="svg8"
   inkscape:version="0.92.3 (2405546, 2018-03-11)"
   sodipodi:docname="vgk-alt.svg">
  <defs
     id="defs2" />
  <sodipodi:namedview
     id="base"
     pagecolor="#ffffff"
     bordercolor="#666666"
     borderopacity="1.0"
     inkscape:pageopacity="0.0"
     inkscape:pageshadow="2"
     inkscape:zoom="0.49497475"
     inkscape:cx="1068.1428"
     inkscape:cy="461.49242"
     inkscape:document-units="mm"
     inkscape:current-layer="layer1"
     showgrid="false"
     inkscape:window-width="1920"
     inkscape:window-height="1029"
     inkscape:window-x="1920"
     inkscape:window-y="0"
     inkscape:window-maximized="1"
     units="px" />
  <metadata
     id="metadata5">
    <rdf:RDF>
      <cc:Work
         rdf:about="">
        <dc:format>image/svg+xml</dc:format>
        <dc:type
           rdf:resource="http://purl.org/dc/dcmitype/StillImage" />
        <dc:title />
      </cc:Work>
    </rdf:RDF>
  </metadata>
  <g
     inkscape:label="Layer 1"
     inkscape:groupmode="layer"
     id="layer1"
     transform="translate(0,-32.41665)">
    <rect
       style="opacity:1;fill:#ec3b34;fill-opacity:1;stroke:none;stroke-width:6.61458302;stroke-linecap:butt;stroke-linejoin:round;stroke-miterlimit:4;stroke-dasharray:none;stroke-opacity:1;paint-order:normal"
       id="rect967"
       width="282.2366"
       height="283.30569"
       x="-7.4835467"
       y="23.315987" />
    <path
       sodipodi:nodetypes="cccscscccccsccc"
       inkscape:connector-curvature="0"
       id="path838"
       d="m 137.1095,42.5595 -11.22569,26.860376 6.71899,10.878404 c -15.29411,0.805157 -33.565011,6.416272 -46.257664,24.4352 -12.654728,17.96509 -33.26204,183.31852 -33.26204,183.31852 0,0 32.128116,-36.28615 67.657874,-36.28615 35.52978,0 79.75277,28.72641 79.75277,28.72641 l -33.63982,-112.63705 22.30046,7.18147 -4.15737,12.47366 20.78839,21.92217 c 0,0 -7.5593,-88.0683 -21.54444,-106.96711 -7.2708,-9.825411 -23.6149,-20.197328 -42.74105,-21.979533 l 6.83474,-11.065991 z"
       style="fill:#241f24;fill-opacity:1;stroke:#241f24;stroke-width:6.61458333;stroke-linecap:butt;stroke-linejoin:miter;stroke-opacity:1;stroke-miterlimit:4;stroke-dasharray:none" />
    <path
       style="fill:#ffffff;fill-opacity:1;stroke:none;stroke-width:0.26458332px;stroke-linecap:butt;stroke-linejoin:miter;stroke-opacity:1"
       d="m 137.1095,42.5595 -11.22569,26.860376 6.71899,10.878404 c -15.29411,0.805157 -33.565011,6.416272 -46.257664,24.4352 -12.654728,17.96509 -33.26204,183.31852 -33.26204,183.31852 0,0 32.128116,-36.28615 67.657874,-36.28615 35.52978,0 79.75277,28.72641 79.75277,28.72641 l -33.63982,-112.63705 22.30046,7.18147 -4.15737,12.47366 20.78839,21.92217 c 0,0 -7.5593,-88.0683 -21.54444,-106.96711 -7.2708,-9.825411 -23.6149,-20.197328 -42.74105,-21.979533 l 6.83474,-11.065991 z"
       id="path912"
       inkscape:connector-curvature="0"
       sodipodi:nodetypes="cccscscccccsccc" />
    <path
       style="fill:#241f24;stroke:none;stroke-width:0.26458332px;stroke-linecap:butt;stroke-linejoin:miter;stroke-opacity:1;fill-opacity:1"
       d="m 164.39708,151.60234 24.19048,9.44941 c 0,0 -6.04763,-50.08184 -25.13541,-60.85416 15.87501,12.6622 21.92261,56.50743 21.92261,56.50743 z"
       id="path939"
       inkscape:connector-curvature="0" />
    <path
       style="fill:#241f24;stroke:none;stroke-width:0.26458332px;stroke-linecap:butt;stroke-linejoin:miter;stroke-opacity:1;fill-opacity:1"
       d="m 71.093685,250.22782 c 0,0 41.159505,-32.33961 104.235105,3.20724 l -19.77793,-58.26476 14.69982,51.85029 c 0,0 -57.46295,-32.07236 -99.156995,3.20723 z"
       id="path941"
       inkscape:connector-curvature="0" />
    <g
       aria-label="VEGAS"
       transform="matrix(0.6000807,-0.31581654,0.31581654,0.6000807,-1074.868,425.87101)"
       style="font-style:normal;font-variant:normal;font-weight:normal;font-stretch:normal;font-size:40px;line-height:1.25;font-family:'New Athletic M54';-inkscape-font-specification:'New Athletic M54';letter-spacing:0px;word-spacing:0px;fill:#241f24;fill-opacity:1;stroke:none"
       id="flowRoot943">
      <path
         d="m 1736.2383,417.05911 q 1.1914,-5.39062 1.914,-8.59375 0.7227,-3.20312 1.7774,-8.00781 0.2539,-1.09375 1.3867,-1.09375 h 2.9297 q 0.6836,0 1.0937,0.52734 0.4102,0.54688 0.2735,1.17188 l -6.2305,27.91016 q -0.2344,1.07421 -1.3672,1.07421 h -3.5742 q -1.1328,0 -1.3476,-1.07421 l -6.2305,-27.91016 q -0.1563,-0.625 0.2734,-1.17188 0.4102,-0.52734 1.0938,-0.52734 h 2.9297 q 1.1132,0 1.3867,1.09375 1.0547,4.80469 1.7578,8.00781 0.7031,3.20313 1.9336,8.59375 z"
         style="fill:#241f24;fill-opacity:1"
         id="path857" />
      <path
         d="m 1761.8828,430.04739 h -7.9883 q -2.2265,0 -3.8086,-1.58203 -1.582,-1.58203 -1.582,-3.80859 v -23.88672 q 0,-1.40625 1.4063,-1.40625 h 11.8554 q 1.4063,0 1.4063,1.40625 v 2.87109 q 0,1.38672 -1.4063,1.38672 h -7.5976 v 6.83594 h 6.3476 q 1.4063,0 1.4063,1.40625 v 2.87109 q 0,1.40625 -1.4063,1.40625 h -6.3476 v 6.83594 h 7.7148 q 1.4063,0 1.4063,1.40625 v 2.85156 q 0,1.40625 -1.4063,1.40625 z"
         style="fill:#241f24;fill-opacity:1"
         id="path859" />
      <path
         d="m 1777.7813,430.04739 h -6.1133 q -2.2461,0 -3.9649,-1.67968 -1.6992,-1.67969 -1.6992,-3.94532 v -19.39453 q 0,-2.24609 1.7188,-3.94531 1.7382,-1.71875 3.9843,-1.71875 h 6.0743 q 2.246,0 3.9648,1.71875 1.7383,1.69922 1.7383,3.94531 v 0.97657 q 0,1.38671 -1.3867,1.38671 h -2.8711 q -1.4063,0 -1.4063,-1.38671 v -0.97657 h -6.1328 v 19.35547 h 6.1328 v -6.83594 h -2.4805 q -1.3867,0 -1.3867,-1.40625 v -2.87109 q 0,-1.40625 1.3867,-1.40625 h 6.7579 q 1.3867,0 1.3867,1.40625 v 11.11328 q 0,2.28516 -1.7383,3.98438 -1.7188,1.67968 -3.9648,1.67968 z"
         style="fill:#241f24;fill-opacity:1"
         id="path861" />
      <path
         d="m 1799.4805,428.91458 -1.1328,-5.70312 h -5.9375 l -1.1329,5.70312 q -0.2343,1.13281 -1.3867,1.13281 h -2.9101 q -0.6836,0 -1.0938,-0.50781 -0.4297,-0.48828 -0.2929,-1.17187 l 5.5859,-27.8711 q 0.2148,-1.13281 1.3672,-1.13281 h 5.664 q 1.1524,0 1.3868,1.13281 l 5.5664,27.8711 q 0.1172,0.68359 -0.293,1.17187 -0.4297,0.50781 -1.0742,0.50781 h -2.9297 q -1.1719,0 -1.3867,-1.13281 z m -2.2657,-11.36719 -1.8359,-9.17968 -1.8359,9.17968 z"
         style="fill:#241f24;fill-opacity:1"
         id="path863" />
      <path
         d="m 1818.7578,430.04739 h -5.7031 q -2.2656,0 -3.9844,-1.67968 -1.6992,-1.69922 -1.6992,-3.98438 v -1.07422 q 0,-1.40625 1.3867,-1.40625 h 2.8711 q 1.4063,0 1.4063,1.40625 v 1.07422 h 5.7226 v -6.83594 h -5.7031 q -2.2656,0 -3.9844,-1.69921 -1.6992,-1.69922 -1.6992,-3.96485 v -6.85547 q 0,-2.24609 1.6992,-3.94531 1.7188,-1.71875 3.9844,-1.71875 h 5.7031 q 2.2461,0 3.9453,1.69922 1.7188,1.69922 1.7188,3.94531 v 0.9375 q 0,1.38672 -1.3867,1.38672 h -2.8711 q -1.4063,0 -1.4063,-1.38672 v -0.91797 h -5.7226 v 6.83594 h 5.7226 q 2.2461,0 3.9453,1.69922 1.7188,1.69922 1.7188,3.94531 v 6.89453 q 0,2.28516 -1.7188,3.96485 -1.6992,1.67968 -3.9453,1.67968 z"
         style="fill:#241f24;fill-opacity:1"
         id="path865" />
    </g>
    <g
       aria-label="GOLDEN"
       transform="matrix(0.6000807,-0.31581654,0.31581654,0.6000807,-1086.7943,469.82906)"
       style="font-style:normal;font-variant:normal;font-weight:normal;font-stretch:normal;font-size:40px;line-height:1.25;font-family:'New Athletic M54';-inkscape-font-specification:'New Athletic M54';letter-spacing:0px;word-spacing:0px;fill:#241f24;fill-opacity:1;stroke:none"
       id="flowRoot957">
      <path
         d="m 1738.4844,430.04739 h -6.1133 q -2.2461,0 -3.9648,-1.67968 -1.6993,-1.67969 -1.6993,-3.94532 v -19.39453 q 0,-2.24609 1.7188,-3.94531 1.7383,-1.71875 3.9844,-1.71875 h 6.0742 q 2.2461,0 3.9648,1.71875 1.7383,1.69922 1.7383,3.94531 v 0.97657 q 0,1.38671 -1.3867,1.38671 h -2.8711 q -1.4063,0 -1.4063,-1.38671 v -0.97657 h -6.1328 v 19.35547 h 6.1328 v -6.83594 h -2.4804 q -1.3867,0 -1.3867,-1.40625 v -2.87109 q 0,-1.40625 1.3867,-1.40625 h 6.7578 q 1.3867,0 1.3867,1.40625 v 11.11328 q 0,2.28516 -1.7383,3.98438 -1.7187,1.67968 -3.9648,1.67968 z"
         style="fill:#241f24;fill-opacity:1"
         id="path844" />
      <path
         d="m 1759.0703,430.04739 h -6.4648 q -2.2657,0 -3.9649,-1.67968 -1.6992,-1.67969 -1.6992,-3.94532 v -19.41406 q 0,-2.24609 1.6992,-3.94531 1.7188,-1.69922 3.9649,-1.69922 h 6.4453 q 2.2461,0 3.9648,1.69922 1.7383,1.69922 1.7383,3.96484 v 19.375 q 0,2.26563 -1.7383,3.96485 -1.7187,1.67968 -3.9453,1.67968 z m 0,-5.66406 v -19.35547 h -6.4648 v 19.35547 z"
         style="fill:#241f24;fill-opacity:1"
         id="path846" />
      <path
         d="m 1780.1445,430.04739 h -7.2461 q -2.2265,0 -3.8281,-1.58203 -1.582,-1.58203 -1.582,-3.80859 v -23.88672 q 0,-1.40625 1.4062,-1.40625 h 2.8711 q 1.4063,0 1.4063,1.40625 v 23.61328 h 6.9726 q 1.3868,0 1.3868,1.40625 v 2.85156 q 0,1.40625 -1.3868,1.40625 z"
         style="fill:#241f24;fill-opacity:1"
         id="path848" />
      <path
         d="m 1801.9023,405.04739 v 19.31641 q 0,2.28516 -1.7382,3.98438 -1.7383,1.69921 -3.9649,1.69921 h -10.5078 q -1.4062,0 -1.4062,-1.40625 v -27.87109 q 0,-1.40625 1.4062,-1.40625 h 10.4883 q 2.2461,0 3.9844,1.71875 1.7382,1.71875 1.7382,3.96484 z m -5.664,19.33594 v -19.35547 h -6.2695 v 19.35547 z"
         style="fill:#241f24;fill-opacity:1"
         id="path850" />
      <path
         d="m 1818.0547,430.04739 h -7.9883 q -2.2266,0 -3.8086,-1.58203 -1.582,-1.58203 -1.582,-3.80859 v -23.88672 q 0,-1.40625 1.4062,-1.40625 h 11.8555 q 1.4063,0 1.4063,1.40625 v 2.87109 q 0,1.38672 -1.4063,1.38672 h -7.5977 v 6.83594 h 6.3477 q 1.4063,0 1.4063,1.40625 v 2.87109 q 0,1.40625 -1.4063,1.40625 h -6.3477 v 6.83594 h 7.7149 q 1.4062,0 1.4062,1.40625 v 2.85156 q 0,1.40625 -1.4062,1.40625 z"
         style="fill:#241f24;fill-opacity:1"
         id="path852" />
      <path
         d="m 1833.6602,429.14896 -5.8399,-15.17578 v 14.66796 q 0,1.40625 -1.4062,1.40625 h -2.8321 q -1.4062,0 -1.4062,-1.40625 v -27.87109 q 0,-1.40625 1.4062,-1.40625 h 3.711 q 0.9375,0 1.3086,0.89844 l 5.8593,15.19531 v -14.6875 q 0,-1.40625 1.4063,-1.40625 h 2.8125 q 1.4062,0 1.4062,1.40625 v 27.85156 q 0,1.38672 -1.3867,1.38672 l -3.7109,0.0195 q -0.9766,0.0195 -1.3281,-0.8789 z"
         style="fill:#241f24;fill-opacity:1"
         id="path854" />
    </g>
    <g
       aria-label="KNIGHTS"
       transform="matrix(0.6000807,-0.31581654,0.31581654,0.6000807,-1092.4375,510.47916)"
       style="font-style:normal;font-variant:normal;font-weight:normal;font-stretch:normal;font-size:40px;line-height:1.25;font-family:'New Athletic M54';-inkscape-font-specification:'New Athletic M54';letter-spacing:0px;word-spacing:0px;fill:#241f24;fill-opacity:1;stroke:none"
       id="flowRoot965">
      <path
         d="m 1743.7773,401.39505 -6.582,13.32031 6.582,13.30078 q 0.3321,0.6836 -0.058,1.36719 -0.4102,0.66406 -1.1915,0.66406 h -3.1835 q -0.918,0 -1.2696,-0.80078 l -5.7031,-11.69922 v 11.09375 q 0,1.40625 -1.4063,1.40625 h -2.871 q -1.3868,0 -1.3868,-1.40625 v -27.87109 q 0,-1.40625 1.3868,-1.40625 h 2.871 q 1.4063,0 1.4063,1.40625 v 11.09375 l 5.7031,-11.69922 q 0.3906,-0.80078 1.2696,-0.80078 h 3.1835 q 0.7618,0 1.1915,0.66406 0.3906,0.70313 0.058,1.36719 z"
         style="fill:#241f24;fill-opacity:1"
         id="path829" />
      <path
         d="m 1758.3477,429.14896 -5.8399,-15.17578 v 14.66796 q 0,1.40625 -1.4062,1.40625 h -2.8321 q -1.4062,0 -1.4062,-1.40625 v -27.87109 q 0,-1.40625 1.4062,-1.40625 h 3.711 q 0.9375,0 1.3086,0.89844 l 5.8593,15.19531 v -14.6875 q 0,-1.40625 1.4063,-1.40625 h 2.8125 q 1.4062,0 1.4062,1.40625 v 27.85156 q 0,1.38672 -1.3867,1.38672 l -3.7109,0.0195 q -0.9766,0.0195 -1.3281,-0.8789 z"
         style="fill:#241f24;fill-opacity:1"
         id="path831" />
      <path
         d="m 1771.7656,430.04739 h -2.8711 q -1.4062,0 -1.4062,-1.40625 v -27.87109 q 0,-1.40625 1.4062,-1.40625 h 2.8711 q 1.4063,0 1.4063,1.40625 v 27.87109 q 0,1.40625 -1.4063,1.40625 z"
         style="fill:#241f24;fill-opacity:1"
         id="path833" />
      <path
         d="m 1787.7031,430.04739 h -6.1133 q -2.246,0 -3.9648,-1.67968 -1.6992,-1.67969 -1.6992,-3.94532 v -19.39453 q 0,-2.24609 1.7187,-3.94531 1.7383,-1.71875 3.9844,-1.71875 h 6.0742 q 2.2461,0 3.9649,1.71875 1.7383,1.69922 1.7383,3.94531 v 0.97657 q 0,1.38671 -1.3868,1.38671 h -2.8711 q -1.4062,0 -1.4062,-1.38671 v -0.97657 h -6.1328 v 19.35547 h 6.1328 v -6.83594 h -2.4805 q -1.3867,0 -1.3867,-1.40625 v -2.87109 q 0,-1.40625 1.3867,-1.40625 h 6.7578 q 1.3868,0 1.3868,1.40625 v 11.11328 q 0,2.28516 -1.7383,3.98438 -1.7188,1.67968 -3.9649,1.67968 z"
         style="fill:#241f24;fill-opacity:1"
         id="path835" />
      <path
         d="m 1812.5273,430.04739 h -2.871 q -1.4063,0 -1.4063,-1.40625 v -11.09375 h -6.4258 v 11.09375 q 0,1.40625 -1.3867,1.40625 h -2.8906 q -1.3867,0 -1.3867,-1.40625 v -27.87109 q 0,-1.40625 1.3867,-1.40625 h 2.8906 q 1.3867,0 1.3867,1.40625 v 11.09375 h 6.4258 v -11.09375 q 0,-1.40625 1.4063,-1.40625 h 2.871 q 1.3868,0 1.3868,1.40625 v 27.87109 q 0,1.40625 -1.3868,1.40625 z"
         style="fill:#241f24;fill-opacity:1"
         id="path837" />
      <path
         d="m 1832.1563,405.02786 h -4.2188 v 23.61328 q 0,1.40625 -1.4062,1.40625 h -2.8711 q -1.4063,0 -1.4063,-1.40625 v -23.61328 h -4.2187 q -1.4063,0 -1.4063,-1.38672 v -2.87109 q 0,-1.40625 1.4063,-1.40625 h 14.1211 q 1.4062,0 1.4062,1.40625 v 2.87109 q 0,1.38672 -1.4062,1.38672 z"
         style="fill:#241f24;fill-opacity:1"
         id="path839" />
      <path
         d="M 1847.7031,430.04739 H 1842 q -2.2656,0 -3.9844,-1.67968 -1.6992,-1.69922 -1.6992,-3.98438 v -1.07422 q 0,-1.40625 1.3867,-1.40625 h 2.8711 q 1.4063,0 1.4063,1.40625 v 1.07422 h 5.7226 v -6.83594 H 1842 q -2.2656,0 -3.9844,-1.69921 -1.6992,-1.69922 -1.6992,-3.96485 v -6.85547 q 0,-2.24609 1.6992,-3.94531 1.7188,-1.71875 3.9844,-1.71875 h 5.7031 q 2.2461,0 3.9453,1.69922 1.7188,1.69922 1.7188,3.94531 v 0.9375 q 0,1.38672 -1.3867,1.38672 h -2.8711 q -1.4063,0 -1.4063,-1.38672 v -0.91797 h -5.7226 v 6.83594 h 5.7226 q 2.2461,0 3.9453,1.69922 1.7188,1.69922 1.7188,3.94531 v 6.89453 q 0,2.28516 -1.7188,3.96485 -1.6992,1.67968 -3.9453,1.67968 z"
         style="fill:#241f24;fill-opacity:1"
         id="path841" />
    </g>
    <path
       style="fill:#241f24;stroke:none;stroke-width:0.21005763px;stroke-linecap:butt;stroke-linejoin:miter;stroke-opacity:1;fill-opacity:1"
       d="m 137.08158,46.968825 8.26313,22.999134 -5.03123,9.475229 1.65065,-9.523223 z"
       id="path969"
       inkscape:connector-curvature="0"
       sodipodi:nodetypes="ccccc" />
  </g>
</svg>
