<?xml version="1.0" encoding="UTF-8" standalone="no"?>
<!-- Created with Inkscape (http://www.inkscape.org/) -->

<svg
   xmlns:dc="http://purl.org/dc/elements/1.1/"
   xmlns:cc="http://creativecommons.org/ns#"
   xmlns:rdf="http://www.w3.org/1999/02/22-rdf-syntax-ns#"
   xmlns:svg="http://www.w3.org/2000/svg"
   xmlns="http://www.w3.org/2000/svg"
   xmlns:sodipodi="http://sodipodi.sourceforge.net/DTD/sodipodi-0.dtd"
   xmlns:inkscape="http://www.inkscape.org/namespaces/inkscape"
   width="1000"
   height="1000"
   viewBox="0 0 264.58333 264.58334"
   version="1.1"
   id="svg8"
   inkscape:version="0.92.3 (2405546, 2018-03-11)"
   sodipodi:docname="wpg-home.svg">
  <defs
     id="defs2" />
  <sodipodi:namedview
     id="base"
     pagecolor="#ffffff"
     bordercolor="#666666"
     borderopacity="1.0"
     inkscape:pageopacity="0.0"
     inkscape:pageshadow="2"
     inkscape:zoom="0.49497475"
     inkscape:cx="568.01694"
     inkscape:cy="506.42974"
     inkscape:document-units="mm"
     inkscape:current-layer="layer1"
     showgrid="false"
     units="px"
     inkscape:window-width="1920"
     inkscape:window-height="1029"
     inkscape:window-x="1920"
     inkscape:window-y="0"
     inkscape:window-maximized="1" />
  <metadata
     id="metadata5">
    <rdf:RDF>
      <cc:Work
         rdf:about="">
        <dc:format>image/svg+xml</dc:format>
        <dc:type
           rdf:resource="http://purl.org/dc/dcmitype/StillImage" />
        <dc:title />
      </cc:Work>
    </rdf:RDF>
  </metadata>
  <g
     inkscape:label="Layer 1"
     inkscape:groupmode="layer"
     id="layer1"
     transform="translate(0,-32.41665)">
    <path
       sodipodi:nodetypes="csccccccccccccccccccccccccc"
       inkscape:connector-curvature="0"
       id="path1000"
       d="m 130.14177,45.867839 c -3.76908,11.33423 -14.02359,61.188231 -16.50108,75.264781 -2.4775,14.07656 -3.71602,39.86514 -3.71602,39.86514 L 56.433849,186.33564 45.62325,162.34894 v 62.79197 l 6.531053,-4.61703 54.054327,2.92774 v 9.12135 l -24.324178,29.10011 v 22.18474 l 33.783618,-17.00482 2.81506,-6.41839 11.65864,24.66169 11.65923,-24.66169 2.81507,6.41839 33.78365,17.00482 v -22.18474 l -24.32421,-29.10011 v -9.12135 l 54.05432,-2.92774 6.53109,4.61703 v -62.79197 l -10.81063,23.9867 -53.49082,-25.33788 c 0,0 -1.23852,-25.78858 -3.71602,-39.86514 -2.47746,-14.07655 -12.7326,-63.930551 -16.50168,-75.264781 z"
       style="opacity:1;fill:#8e9090;fill-opacity:1;stroke:none;stroke-width:0.31531477px;stroke-linecap:butt;stroke-linejoin:miter;stroke-opacity:1" />
    <rect
       style="opacity:1;fill:#041e42;fill-opacity:1;stroke:none;stroke-width:6.61458302;stroke-linecap:butt;stroke-linejoin:round;stroke-miterlimit:4;stroke-dasharray:none;stroke-opacity:1;paint-order:normal"
       id="rect897"
       width="280.633"
       height="279.5639"
       x="-4.8108511"
       y="27.5923" />
    <path
       style="opacity:1;fill:#8e9090;fill-opacity:1;stroke:none;stroke-width:0.31531477px;stroke-linecap:butt;stroke-linejoin:miter;stroke-opacity:1"
       d="m 130.14177,45.867839 c -3.76908,11.33423 -14.02359,61.188231 -16.50108,75.264781 -2.4775,14.07656 -3.71602,39.86514 -3.71602,39.86514 L 56.433849,186.33564 45.62325,162.34894 v 62.79197 l 6.531053,-4.61703 54.054327,2.92774 v 9.12135 l -24.324178,29.10011 v 22.18474 l 33.783618,-17.00482 2.81506,-6.41839 11.65864,24.66169 11.65923,-24.66169 2.81507,6.41839 33.78365,17.00482 v -22.18474 l -24.32421,-29.10011 v -9.12135 l 54.05432,-2.92774 6.53109,4.61703 v -62.79197 l -10.81063,23.9867 -53.49082,-25.33788 c 0,0 -1.23852,-25.78858 -3.71602,-39.86514 -2.47746,-14.07655 -12.7326,-63.930551 -16.50168,-75.264781 z"
       id="path892"
       inkscape:connector-curvature="0"
       sodipodi:nodetypes="csccccccccccccccccccccccccc" />
    <g
       aria-label="WINNIPEG"
       style="font-style:normal;font-weight:normal;font-size:28.47668076px;line-height:1.25;font-family:sans-serif;letter-spacing:0px;word-spacing:0px;fill:#000000;fill-opacity:1;stroke:none;stroke-width:0.71191698"
       id="text950"
       transform="rotate(0.52643548,-5304.3997,-4254.7837)">
      <path
         d="m 129.25911,127.07414 7.34645,18.74617 q 0.2906,0.78228 -0.41304,1.20407 l -2.11091,1.26536 q -0.71557,0.42894 -1.24232,-0.17935 l -5.93741,-6.5244 2.95589,8.31163 q 0.26438,0.76558 -0.42733,1.18022 l -2.11091,1.26536 q -0.72749,0.43609 -1.26854,-0.19606 l -13.04712,-15.32898 q -0.30032,-0.33874 -0.22382,-0.80609 0.0646,-0.46021 0.47006,-0.70327 l 1.78891,-1.07235 q 0.73942,-0.44323 1.28284,0.21992 l 6.61639,8.06276 -3.57284,-9.93582 q -0.28345,-0.77035 0.43211,-1.19929 l 1.46691,-0.87932 q 0.69171,-0.41464 1.24947,0.19128 l 7.07432,7.85311 -3.9998,-9.64746 q -0.34068,-0.78468 0.41066,-1.23507 l 1.81276,-1.08664 q 0.38164,-0.22876 0.84181,-0.0831 0.4101,0.14324 0.60546,0.57733 z"
         style="font-style:normal;font-variant:normal;font-weight:normal;font-stretch:normal;font-family:'New Athletic M54';-inkscape-font-specification:'New Athletic M54';fill:#ffffff;fill-opacity:1;stroke-width:0.71191698"
         id="path956"
         inkscape:connector-curvature="0" />
      <path
         d="m 144.84887,143.46584 -1.91362,0.71826 q -0.93728,0.3518 -1.28909,-0.58548 l -6.97251,-18.57648 q -0.3518,-0.93728 0.58548,-1.28908 l 1.91363,-0.71826 q 0.93728,-0.35181 1.28908,0.58548 l 6.97252,18.57647 q 0.3518,0.93729 -0.58549,1.28909 z"
         style="font-style:normal;font-variant:normal;font-weight:normal;font-stretch:normal;font-family:'New Athletic M54';-inkscape-font-specification:'New Athletic M54';fill:#ffffff;fill-opacity:1;stroke-width:0.71191698"
         id="path958"
         inkscape:connector-curvature="0" />
      <path
         d="m 155.42892,139.85132 -6.41814,-9.63413 2.28214,10.18995 q 0.2188,0.97693 -0.75813,1.19573 l -1.96744,0.44063 q -0.97693,0.21879 -1.19572,-0.75814 l -4.33638,-19.36226 q -0.2188,-0.97693 0.75813,-1.19573 L 146.3714,120.15 q 0.65129,-0.14586 1.04888,0.42055 l 6.43474,9.64465 -2.28518,-10.20351 q -0.2188,-0.97693 0.75814,-1.19573 l 1.95386,-0.43759 q 0.97693,-0.21879 1.19573,0.75814 l 4.33334,19.34869 q 0.21575,0.96337 -0.74761,1.17912 l -2.57498,0.59094 q -0.67538,0.16551 -1.0594,-0.40394 z"
         style="font-style:normal;font-variant:normal;font-weight:normal;font-stretch:normal;font-family:'New Athletic M54';-inkscape-font-specification:'New Athletic M54';fill:#ffffff;fill-opacity:1;stroke-width:0.71191698"
         id="path960"
         inkscape:connector-curvature="0" />
      <path
         d="m 170.14659,138.39875 -4.42184,-10.69842 0.25673,10.43922 q 0.0246,1.00083 -0.97622,1.02545 l -2.01556,0.0496 q -1.00083,0.0246 -1.02544,-0.97622 l -0.48782,-19.83591 q -0.0246,-1.00083 0.97622,-1.02544 l 2.64108,-0.065 q 0.66722,-0.0164 0.94705,0.61652 l 4.43609,10.71198 -0.25707,-10.45312 q -0.0246,-1.00083 0.97622,-1.02545 l 2.00166,-0.0492 q 1.00083,-0.0246 1.02544,0.97622 l 0.48747,19.822 q 0.0243,0.98693 -0.96265,1.01121 l -2.64074,0.0788 q -0.69468,0.031 -0.96062,-0.60228 z"
         style="font-style:normal;font-variant:normal;font-weight:normal;font-stretch:normal;font-family:'New Athletic M54';-inkscape-font-specification:'New Athletic M54';fill:#ffffff;fill-opacity:1;stroke-width:0.71191698"
         id="path962"
         inkscape:connector-curvature="0" />
      <path
         d="m 179.69082,139.65207 -2.03103,-0.22972 q -0.99479,-0.11252 -0.88227,-1.10731 l 2.23003,-19.71619 q 0.11251,-0.99479 1.1073,-0.88227 l 2.03103,0.22972 q 0.99479,0.11252 0.88228,1.10731 l -2.23003,19.71619 q -0.11252,0.99479 -1.10731,0.88227 z"
         style="font-style:normal;font-variant:normal;font-weight:normal;font-stretch:normal;font-family:'New Athletic M54';-inkscape-font-specification:'New Athletic M54';fill:#ffffff;fill-opacity:1;stroke-width:0.71191698"
         id="path964"
         inkscape:connector-curvature="0" />
      <path
         d="m 192.32836,134.63275 -3.93774,-0.98945 -1.56211,6.21678 q -0.24398,0.97095 -1.20144,0.73036 l -1.98236,-0.49811 q -0.97095,-0.24397 -0.72697,-1.21492 l 4.83542,-19.2437 q 0.24398,-0.97095 1.21493,-0.72698 l 6.89105,1.73154 q 1.53734,0.38629 2.43935,1.87459 0.9054,1.47481 0.51233,3.03912 l -1.54517,6.14935 q -0.39646,1.5778 -1.89146,2.44945 -1.495,0.87165 -3.04583,0.48197 z m 1.02313,-3.90061 1.55195,-6.17632 -3.9782,-0.99962 -1.55195,6.17633 z"
         style="font-style:normal;font-variant:normal;font-weight:normal;font-stretch:normal;font-family:'New Athletic M54';-inkscape-font-specification:'New Athletic M54';fill:#ffffff;fill-opacity:1;stroke-width:0.71191698"
         id="path966"
         inkscape:connector-curvature="0" />
      <path
         d="m 205.01143,147.4459 -5.18491,-2.33637 q -1.44519,-0.65121 -2.00932,-2.14076 -0.56414,-1.48954 0.0871,-2.93472 l 6.98626,-15.50402 q 0.41129,-0.91275 1.32404,-0.50146 l 7.69496,3.46742 q 0.91275,0.4113 0.50145,1.32404 l -0.83972,1.86353 q -0.40558,0.90007 -1.31832,0.48878 l -4.93137,-2.22212 -1.99934,4.43696 4.12004,1.85653 q 0.91275,0.41129 0.50145,1.32404 l -0.83972,1.86352 q -0.41129,0.91275 -1.32404,0.50145 l -4.12003,-1.85652 -1.99934,4.43696 5.00743,2.2564 q 0.91275,0.41129 0.50145,1.32403 l -0.83401,1.85085 q -0.41129,0.91275 -1.32403,0.50146 z"
         style="font-style:normal;font-variant:normal;font-weight:normal;font-stretch:normal;font-family:'New Athletic M54';-inkscape-font-specification:'New Athletic M54';fill:#ffffff;fill-opacity:1;stroke-width:0.71191698"
         id="path968"
         inkscape:connector-curvature="0" />
      <path
         d="m 214.57868,153.50317 -3.58321,-2.47017 q -1.31652,-0.90757 -1.64524,-2.58659 -0.31727,-1.67112 0.59819,-2.99909 l 7.83668,-11.36784 q 0.90757,-1.31652 2.60159,-1.61801 1.71336,-0.30504 3.02988,0.60253 l 3.56032,2.45439 q 1.31652,0.90757 1.62945,2.60948 0.33227,1.69836 -0.5753,3.01488 l -0.39459,0.57239 q -0.56033,0.81281 -1.37314,0.25248 l -1.68285,-1.16011 q -0.82425,-0.56822 -0.26393,-1.38102 l 0.3946,-0.5724 -3.59467,-2.47806 -7.82089,11.34495 3.59467,2.47806 2.76217,-4.00679 -1.4539,-1.00228 q -0.8128,-0.56032 -0.24458,-1.38458 l 1.16011,-1.68285 q 0.56822,-0.82426 1.38102,-0.26393 l 3.96101,2.7306 q 0.8128,0.56033 0.24458,1.38458 l -4.4905,6.51391 q -0.92335,1.33941 -2.62882,1.633 -1.68613,0.29004 -3.00265,-0.61753 z"
         style="font-style:normal;font-variant:normal;font-weight:normal;font-stretch:normal;font-family:'New Athletic M54';-inkscape-font-specification:'New Athletic M54';fill:#ffffff;fill-opacity:1;stroke-width:0.71191698"
         id="path970"
         inkscape:connector-curvature="0" />
    </g>
    <g
       aria-label="JETS"
       transform="matrix(0.71224543,0,0,0.71224543,-177.89682,-235.04494)"
       style="font-style:normal;font-weight:normal;font-size:40px;line-height:1.25;font-family:sans-serif;letter-spacing:0px;word-spacing:0px;fill:#ffffff;fill-opacity:1;stroke:none"
       id="flowRoot973">
      <path
         d="m 405.07617,638.10989 h -5.11719 q -2.26562,0 -3.98437,-1.67968 -1.69922,-1.69922 -1.69922,-3.96485 v -1.09375 q 0,-1.40625 1.40625,-1.40625 h 2.87109 q 1.38672,0 1.38672,1.40625 v 1.07422 h 5.15625 v -23.61328 q 0,-1.40625 1.38672,-1.40625 h 2.89063 q 1.38672,0 1.38672,1.40625 v 23.61328 q 0,2.28516 -1.73829,3.98438 -1.71875,1.67968 -3.94531,1.67968 z"
         style="font-style:normal;font-variant:normal;font-weight:normal;font-stretch:normal;font-family:'New Athletic M54';-inkscape-font-specification:'New Athletic M54';fill:#ffffff;fill-opacity:1"
         id="path831" />
      <path
         d="m 426.87305,638.10989 h -7.98828 q -2.22657,0 -3.8086,-1.58203 -1.58203,-1.58203 -1.58203,-3.80859 v -23.88672 q 0,-1.40625 1.40625,-1.40625 h 11.85547 q 1.40625,0 1.40625,1.40625 v 2.87109 q 0,1.38672 -1.40625,1.38672 h -7.59766 v 6.83594 h 6.34766 q 1.40625,0 1.40625,1.40625 v 2.87109 q 0,1.40625 -1.40625,1.40625 h -6.34766 v 6.83594 h 7.71485 q 1.40625,0 1.40625,1.40625 v 2.85156 q 0,1.40625 -1.40625,1.40625 z"
         style="font-style:normal;font-variant:normal;font-weight:normal;font-stretch:normal;font-family:'New Athletic M54';-inkscape-font-specification:'New Athletic M54';fill:#ffffff;fill-opacity:1"
         id="path833" />
      <path
         d="m 446.52148,613.09036 h -4.21875 v 23.61328 q 0,1.40625 -1.40625,1.40625 h -2.87109 q -1.40625,0 -1.40625,-1.40625 v -23.61328 h -4.21875 q -1.40625,0 -1.40625,-1.38672 v -2.87109 q 0,-1.40625 1.40625,-1.40625 h 14.12109 q 1.40625,0 1.40625,1.40625 v 2.87109 q 0,1.38672 -1.40625,1.38672 z"
         style="font-style:normal;font-variant:normal;font-weight:normal;font-stretch:normal;font-family:'New Athletic M54';-inkscape-font-specification:'New Athletic M54';fill:#ffffff;fill-opacity:1"
         id="path835" />
      <path
         d="m 462.06836,638.10989 h -5.70313 q -2.26562,0 -3.98437,-1.67968 -1.69922,-1.69922 -1.69922,-3.98438 v -1.07422 q 0,-1.40625 1.38672,-1.40625 h 2.87109 q 1.40625,0 1.40625,1.40625 v 1.07422 h 5.72266 v -6.83594 h -5.70313 q -2.26562,0 -3.98437,-1.69921 -1.69922,-1.69922 -1.69922,-3.96485 v -6.85547 q 0,-2.24609 1.69922,-3.94531 1.71875,-1.71875 3.98437,-1.71875 h 5.70313 q 2.24609,0 3.94531,1.69922 1.71875,1.69922 1.71875,3.94531 v 0.9375 q 0,1.38672 -1.38672,1.38672 h -2.87109 q -1.40625,0 -1.40625,-1.38672 v -0.91797 h -5.72266 v 6.83594 h 5.72266 q 2.24609,0 3.94531,1.69922 1.71875,1.69922 1.71875,3.94531 v 6.89453 q 0,2.28516 -1.71875,3.96485 -1.69922,1.67968 -3.94531,1.67968 z"
         style="font-style:normal;font-variant:normal;font-weight:normal;font-stretch:normal;font-family:'New Athletic M54';-inkscape-font-specification:'New Athletic M54';fill:#ffffff;fill-opacity:1"
         id="path837" />
    </g>
  </g>
</svg>
