<?xml version="1.0" encoding="UTF-8" standalone="no"?>
<!-- Created with Inkscape (http://www.inkscape.org/) -->

<svg
   xmlns:dc="http://purl.org/dc/elements/1.1/"
   xmlns:cc="http://creativecommons.org/ns#"
   xmlns:rdf="http://www.w3.org/1999/02/22-rdf-syntax-ns#"
   xmlns:svg="http://www.w3.org/2000/svg"
   xmlns="http://www.w3.org/2000/svg"
   xmlns:sodipodi="http://sodipodi.sourceforge.net/DTD/sodipodi-0.dtd"
   xmlns:inkscape="http://www.inkscape.org/namespaces/inkscape"
   width="1000"
   height="1000"
   viewBox="0 0 264.58333 264.58334"
   version="1.1"
   id="svg8"
   inkscape:version="0.92.3 (2405546, 2018-03-11)"
   sodipodi:docname="wsh-road.svg">
  <defs
     id="defs2" />
  <sodipodi:namedview
     id="base"
     pagecolor="#ffffff"
     bordercolor="#666666"
     borderopacity="1.0"
     inkscape:pageopacity="0.0"
     inkscape:pageshadow="2"
     inkscape:zoom="0.49497475"
     inkscape:cx="213.49241"
     inkscape:cy="408.59805"
     inkscape:document-units="mm"
     inkscape:current-layer="layer1"
     showgrid="false"
     units="px"
     inkscape:window-width="1920"
     inkscape:window-height="1029"
     inkscape:window-x="1920"
     inkscape:window-y="0"
     inkscape:window-maximized="1" />
  <metadata
     id="metadata5">
    <rdf:RDF>
      <cc:Work
         rdf:about="">
        <dc:format>image/svg+xml</dc:format>
        <dc:type
           rdf:resource="http://purl.org/dc/dcmitype/StillImage" />
        <dc:title />
      </cc:Work>
    </rdf:RDF>
  </metadata>
  <g
     inkscape:label="Layer 1"
     inkscape:groupmode="layer"
     id="layer1"
     transform="translate(0,-32.41665)">
    <rect
       style="opacity:1;fill:#ffffff;fill-opacity:1;stroke:none;stroke-width:6.61458302;stroke-linecap:butt;stroke-linejoin:round;stroke-miterlimit:4;stroke-dasharray:none;stroke-opacity:1;paint-order:normal"
       id="rect919"
       width="276.3006"
       height="275.92264"
       x="-3.7797618"
       y="28.258911" />
    <g
       inkscape:label="Layer 1"
       id="layer1-3"
       transform="translate(-434.18281,-8.049311)"
       style="display:inline;opacity:0.67900002" />
    <path
       style="fill:#ffffff;fill-opacity:1;stroke:#c8102e;stroke-width:6.61458333;stroke-linecap:butt;stroke-linejoin:miter;stroke-opacity:1;stroke-miterlimit:4;stroke-dasharray:none"
       d="m 130.66577,43.411583 -1.97267,27.155479 -5.996,15.465265 -7.58389,5.658458 5.37064,5.575544 0.87505,17.525111 -9.13055,3.47044 -3.31901,12.67101 c -31.978635,4.41434 -34.352818,52.88117 -34.352818,52.88117 l -8.295474,13.37672 0.158884,24.5417 -12.143016,7.79135 0.290533,44.87678 -15.903254,15.52943 189.759165,0.17408 -16.1028,-15.32222 -0.29053,-44.87673 -9.96608,-9.05085 -0.15888,-24.5417 -8.47829,-14.67074 c 0,0 -4.85359,-43.4449 -36.14725,-50.95573 l -0.83437,-11.21332 -9.17152,-4.14835 -0.11349,-17.530039 5.29797,-5.643658 -6.89495,-5.565677 -6.97212,-17.484682 -0.92496,-25.238503 -3.69752,-1.87611 z"
       id="path940"
       inkscape:connector-curvature="0"
       sodipodi:nodetypes="cccccccccccccccccccccccccccccc" />
    <path
       sodipodi:nodetypes="cccccccccccccccccccccccccccccc"
       inkscape:connector-curvature="0"
       id="path917"
       d="m 130.66577,43.411583 -1.97267,27.155479 -5.996,15.465265 -7.58389,5.658458 5.37064,5.575544 0.87505,17.525111 -9.13055,3.47044 -3.31901,12.67101 c -31.978635,4.41434 -34.352818,52.88117 -34.352818,52.88117 l -8.295474,13.37672 0.158884,24.5417 -12.143016,7.79135 0.290533,44.87678 -15.903254,15.52943 189.759165,0.17408 -16.1028,-15.32222 -0.29053,-44.87673 -9.96608,-9.05085 -0.15888,-24.5417 -8.47829,-14.67074 c 0,0 -4.85359,-43.4449 -36.14725,-50.95573 l -0.83437,-11.21332 -9.17152,-4.14835 -0.11349,-17.530039 5.29797,-5.643658 -6.89495,-5.565677 -6.97212,-17.484682 -0.92496,-25.238503 -3.69752,-1.87611 z"
       style="fill:#041e42;fill-opacity:1;stroke:none;stroke-width:0.51170087px;stroke-linecap:butt;stroke-linejoin:miter;stroke-opacity:1" />
    <g
       aria-label="CAPITALS"
       transform="matrix(1.0207027,0,0,1.0207027,-267.91135,-337.49973)"
       style="font-style:normal;font-variant:normal;font-weight:normal;font-stretch:normal;font-size:40px;line-height:1.25;font-family:'New Athletic M54';-inkscape-font-specification:'New Athletic M54';letter-spacing:0px;word-spacing:0px;fill:#c8102e;fill-opacity:1;stroke:none"
       id="flowRoot956">
      <path
         d="m 338.0293,589.397 q -1.50391,1.32813 -3.53516,1.32813 h -6.03516 q -2.24609,0 -3.96484,-1.67969 -1.69922,-1.69922 -1.69922,-3.96484 v -19.39453 q 0,-2.2461 1.71875,-3.94532 1.71875,-1.69921 3.96485,-1.69921 h 5.99609 q 2.24609,0 3.98437,1.71875 1.75782,1.71875 1.75782,3.96484 v 0.89844 q 0,1.38672 -1.40625,1.38672 h -2.8711 q -1.38672,0 -1.38672,-1.38672 v -0.91797 h -6.09375 v 19.35547 h 6.09375 v -1.07422 q 0,-1.40625 1.38672,-1.40625 h 2.8711 q 1.40625,0 1.40625,1.40625 v 1.07422 q 0,2.46093 -2.1875,4.33593 z"
         style=""
         id="path834" />
      <path
         d="m 356.19336,589.59232 -1.13281,-5.70313 h -5.9375 l -1.13282,5.70313 q -0.23437,1.13281 -1.38671,1.13281 h -2.91016 q -0.68359,0 -1.09375,-0.50781 -0.42969,-0.48828 -0.29297,-1.17188 l 5.58594,-27.87109 q 0.21484,-1.13281 1.36719,-1.13281 h 5.66406 q 1.15234,0 1.38672,1.13281 l 5.5664,27.87109 q 0.11719,0.6836 -0.29297,1.17188 -0.42968,0.50781 -1.07421,0.50781 h -2.92969 q -1.17188,0 -1.38672,-1.13281 z m -2.26563,-11.36719 -1.83593,-9.17969 -1.83594,9.17969 z"
         style=""
         id="path836" />
      <path
         d="m 376.11523,580.31497 h -5.70312 v 9.00391 q 0,1.40625 -1.38672,1.40625 h -2.87109 q -1.40625,0 -1.40625,-1.40625 v -27.87109 q 0,-1.40625 1.40625,-1.40625 h 9.98047 q 2.22656,0 3.96484,1.71875 1.73828,1.69921 1.73828,3.96484 v 8.90625 q 0,2.28516 -1.73828,3.98437 -1.73828,1.69922 -3.98438,1.69922 z m 0.0586,-5.66406 v -8.94531 h -5.76172 v 8.94531 z"
         style=""
         id="path838" />
      <path
         d="m 388.86914,590.72513 h -2.87109 q -1.40625,0 -1.40625,-1.40625 v -27.87109 q 0,-1.40625 1.40625,-1.40625 h 2.87109 q 1.40625,0 1.40625,1.40625 v 27.87109 q 0,1.40625 -1.40625,1.40625 z"
         style=""
         id="path840" />
      <path
         d="m 408.55664,565.7056 h -4.21875 v 23.61328 q 0,1.40625 -1.40625,1.40625 h -2.87109 q -1.40625,0 -1.40625,-1.40625 V 565.7056 h -4.21875 q -1.40625,0 -1.40625,-1.38672 v -2.87109 q 0,-1.40625 1.40625,-1.40625 h 14.12109 q 1.40625,0 1.40625,1.40625 v 2.87109 q 0,1.38672 -1.40625,1.38672 z"
         style=""
         id="path842" />
      <path
         d="m 421.38867,589.59232 -1.13281,-5.70313 h -5.9375 l -1.13281,5.70313 q -0.23438,1.13281 -1.38672,1.13281 h -2.91016 q -0.68359,0 -1.09375,-0.50781 -0.42969,-0.48828 -0.29297,-1.17188 l 5.58594,-27.87109 q 0.21484,-1.13281 1.36719,-1.13281 h 5.66406 q 1.15234,0 1.38672,1.13281 l 5.56641,27.87109 q 0.11718,0.6836 -0.29297,1.17188 -0.42969,0.50781 -1.07422,0.50781 h -2.92969 q -1.17187,0 -1.38672,-1.13281 z m -2.26562,-11.36719 -1.83594,-9.17969 -1.83594,9.17969 z"
         style=""
         id="path844" />
      <path
         d="m 442.63867,590.72513 h -7.24609 q -2.22656,0 -3.82813,-1.58203 -1.58203,-1.58203 -1.58203,-3.8086 v -23.88671 q 0,-1.40625 1.40625,-1.40625 h 2.8711 q 1.40625,0 1.40625,1.40625 v 23.61328 h 6.97265 q 1.38672,0 1.38672,1.40625 v 2.85156 q 0,1.40625 -1.38672,1.40625 z"
         style=""
         id="path846" />
      <path
         d="m 458.16602,590.72513 h -5.70313 q -2.26562,0 -3.98437,-1.67969 -1.69922,-1.69922 -1.69922,-3.98437 v -1.07422 q 0,-1.40625 1.38672,-1.40625 h 2.87109 q 1.40625,0 1.40625,1.40625 v 1.07422 h 5.72266 v -6.83594 h -5.70313 q -2.26562,0 -3.98437,-1.69922 -1.69922,-1.69922 -1.69922,-3.96484 v -6.85547 q 0,-2.2461 1.69922,-3.94531 1.71875,-1.71875 3.98437,-1.71875 h 5.70313 q 2.24609,0 3.94531,1.69921 1.71875,1.69922 1.71875,3.94532 v 0.9375 q 0,1.38672 -1.38672,1.38672 h -2.87109 q -1.40625,0 -1.40625,-1.38672 v -0.91797 h -5.72266 v 6.83594 h 5.72266 q 2.24609,0 3.94531,1.69921 1.71875,1.69922 1.71875,3.94532 v 6.89453 q 0,2.28515 -1.71875,3.96484 -1.69922,1.67969 -3.94531,1.67969 z"
         style=""
         id="path848" />
    </g>
    <g
       aria-label="WASHINGTON"
       style="font-style:normal;font-variant:normal;font-weight:normal;font-stretch:normal;font-size:26.33187103px;line-height:1.25;font-family:'New Athletic M54';-inkscape-font-specification:'New Athletic M54';letter-spacing:0px;word-spacing:0px;fill:#c8102e;fill-opacity:1;stroke:none;stroke-width:0.65829676"
       id="text964"
       transform="matrix(0.90847185,0.221654,-0.221654,0.90847185,60.718688,-16.795888)">
      <path
         d="m 72.826389,212.47206 14.602297,11.54971 q 0.596602,0.48941 0.231129,1.15415 l -1.096419,1.99422 q -0.371667,0.67601 -1.075818,0.43559 l -7.782246,-2.4446 6.233632,5.2613 q 0.567873,0.48828 0.208595,1.14176 l -1.096419,1.99422 q -0.377862,0.68727 -1.104546,0.43447 l -17.563247,-6.16419 q -0.397704,-0.13062 -0.554362,-0.53955 -0.162853,-0.39766 0.04776,-0.78073 l 0.929169,-1.69002 q 0.384056,-0.69854 1.12708,-0.42208 l 9.041343,3.35694 -7.483169,-6.27108 q -0.585334,-0.48321 -0.213667,-1.15922 l 0.761918,-1.38582 q 0.359279,-0.65347 1.087086,-0.42939 l 9.30941,2.97611 -7.68983,-5.84183 q -0.637718,-0.46799 -0.247467,-1.1778 l 0.941557,-1.71255 q 0.198223,-0.36054 0.633632,-0.45862 0.394291,-0.0767 0.752584,0.17901 z"
         style="stroke-width:0.65829676;fill:#c8102e;fill-opacity:1"
         id="path970"
         inkscape:connector-curvature="0" />
      <path
         d="m 94.518854,215.68305 -3.296373,-1.94556 -2.604417,2.91453 2.302581,3.05767 q 0.453255,0.61194 -0.05221,1.17759 l -1.276507,1.4285 q -0.299851,0.33556 -0.72903,0.31414 -0.428158,-0.003 -0.703742,-0.37022 L 76.928359,207.2924 q -0.461822,-0.60235 0.04364,-1.168 l 2.484477,-2.7803 q 0.505463,-0.56565 1.16433,-0.1838 l 16.122649,9.49298 q 0.386956,0.24232 0.446727,0.65783 0.06079,0.43367 -0.221925,0.75005 l -1.285075,1.43809 q -0.514029,0.57523 -1.164329,0.1838 z m -6.573571,-3.87397 -5.311322,-3.12537 3.700695,4.92777 z"
         style="stroke-width:0.65829676;fill:#c8102e;fill-opacity:1"
         id="path972"
         inkscape:connector-curvature="0" />
      <path
         d="m 104.59843,207.8523 -2.98525,2.2767 q -1.18593,0.90445 -2.756129,0.71136 -1.567776,-0.21111 -2.480017,-1.40726 l -0.428831,-0.56229 q -0.561379,-0.73609 0.164488,-1.28967 l 1.502852,-1.14615 q 0.73609,-0.56138 1.297469,0.17471 l 0.428832,0.56229 2.995476,-2.2845 -2.728922,-3.57822 -2.985257,2.27671 q -1.185923,0.90444 -2.763923,0.70113 -1.567775,-0.21111 -2.472219,-1.39704 l -2.736723,-3.58844 q -0.896647,-1.1757 -0.685537,-2.74347 0.213536,-1.5858 1.39946,-2.49024 l 2.985256,-2.27671 q 1.1757,-0.89665 2.743476,-0.68554 1.577999,0.20332 2.474646,1.37902 l 0.374253,0.49072 q 0.553582,0.72587 -0.172285,1.27945 l -1.502852,1.14615 q -0.73609,0.56138 -1.289672,-0.16449 l -0.366456,-0.4805 -2.99548,2.2845 2.728926,3.57822 2.99548,-2.2845 q 1.1757,-0.89665 2.743479,-0.68554 1.578,0.20331 2.47464,1.37902 l 2.75232,3.60888 q 0.91224,1.19615 0.68311,2.7615 -0.21891,1.55755 -1.39461,2.4542 z"
         style="stroke-width:0.65829676;fill:#c8102e;fill-opacity:1"
         id="path974"
         inkscape:connector-curvature="0" />
      <path
         d="m 118.77504,199.82032 -1.69459,0.837 q -0.83001,0.40996 -1.23997,-0.42005 l -3.23412,-6.54782 -3.79266,1.87328 3.23412,6.54783 q 0.40996,0.83 -0.40852,1.23427 l -1.70613,0.84269 q -0.81847,0.40427 -1.22843,-0.42574 l -8.12516,-16.45025 q -0.40996,-0.83001 0.40852,-1.23427 l 1.70612,-0.8427 q 0.81848,-0.40426 1.22844,0.42574 l 3.23412,6.54783 3.79267,-1.87329 -3.23412,-6.54782 q -0.40996,-0.83001 0.42004,-1.23996 l 1.6946,-0.837 q 0.81848,-0.40427 1.22844,0.42574 l 8.12515,16.45025 q 0.40996,0.83001 -0.40852,1.23427 z"
         style="stroke-width:0.65829676;fill:#c8102e;fill-opacity:1"
         id="path976"
         inkscape:connector-curvature="0" />
      <path
         d="m 124.03537,198.10489 -1.79435,0.59373 q -0.87887,0.29081 -1.16967,-0.58806 l -5.76361,-17.41866 q -0.29081,-0.87887 0.58806,-1.16967 l 1.79435,-0.59373 q 0.87887,-0.29081 1.16968,0.58806 l 5.76361,17.41866 q 0.2908,0.87887 -0.58807,1.16967 z"
         style="stroke-width:0.65829676;fill:#c8102e;fill-opacity:1"
         id="path978"
         inkscape:connector-curvature="0" />
      <path
         d="m 133.94592,195.16066 -5.56255,-9.14551 1.72014,9.50142 q 0.16491,0.91092 -0.74601,1.07584 l -1.8345,0.33211 q -0.91092,0.16492 -1.07583,-0.746 l -3.2685,-18.05397 q -0.16492,-0.91093 0.74601,-1.07584 l 2.40382,-0.43519 q 0.60728,-0.10994 0.95302,0.42852 l 5.5775,9.15588 -1.72244,-9.51408 q -0.16491,-0.91092 0.74601,-1.07584 l 1.82185,-0.32982 q 0.91092,-0.16492 1.07583,0.746 l 3.26621,18.04132 q 0.16263,0.89827 -0.73564,1.0609 l -2.40154,0.44784 q -0.63029,0.12717 -0.96338,-0.41358 z"
         style="stroke-width:0.65829676;fill:#c8102e;fill-opacity:1"
         id="path980"
         inkscape:connector-curvature="0" />
      <path
         d="m 147.78293,195.00736 -4.02358,-0.0789 q -1.47831,-0.029 -2.58787,-1.15667 -1.09671,-1.12744 -1.06748,-2.61861 l 0.2502,-12.7649 q 0.029,-1.47831 1.18213,-2.57452 1.16626,-1.1088 2.64457,-1.07983 l 3.99787,0.0784 q 1.47832,0.029 2.58737,1.18238 1.12217,1.1408 1.09319,2.61911 l -0.0126,0.64274 q -0.0179,0.9127 -0.93058,0.89481 l -1.88967,-0.037 q -0.92556,-0.0181 -0.90767,-0.93084 l 0.0126,-0.64274 -4.03643,-0.0791 -0.2497,12.7392 4.03643,0.0791 0.0882,-4.49921 -1.63257,-0.032 q -0.9127,-0.0179 -0.89456,-0.94344 l 0.037,-1.88967 q 0.0182,-0.92555 0.93084,-0.90766 l 4.44779,0.0872 q 0.9127,0.0179 0.89456,0.94344 l -0.14337,7.31443 q -0.0295,1.50403 -1.19549,2.59998 -1.1529,1.08334 -2.63121,1.05437 z"
         style="stroke-width:0.65829676;fill:#c8102e;fill-opacity:1"
         id="path982"
         inkscape:connector-curvature="0" />
      <path
         d="m 166.85558,181.39185 -2.71376,-0.59015 -3.3032,15.18953 q -0.19672,0.90458 -1.1013,0.70787 l -1.84687,-0.40163 q -0.90459,-0.19672 -0.70787,-1.1013 l 3.30319,-15.18954 -2.71376,-0.59014 q -0.90459,-0.19672 -0.7106,-1.08874 l 0.40163,-1.84687 q 0.19671,-0.90459 1.1013,-0.70787 l 9.08357,1.97536 q 0.90458,0.19672 0.70787,1.1013 l -0.40163,1.84687 q -0.19399,0.89202 -1.09857,0.69531 z"
         style="stroke-width:0.65829676;fill:#c8102e;fill-opacity:1"
         id="path984"
         inkscape:connector-curvature="0" />
      <path
         d="m 173.35583,201.38938 -3.90723,-1.68679 q -1.36931,-0.59113 -1.95803,-2.04966 -0.58872,-1.45853 0.002,-2.82783 l 5.06545,-11.73351 q 0.58604,-1.35749 2.05637,-1.94112 1.48213,-0.57852 2.83963,0.008 l 3.89543,1.68168 q 1.3575,0.58605 1.95293,2.06147 0.60723,1.48053 0.0161,2.84983 l -5.05525,11.7099 q -0.59114,1.3693 -2.08508,1.94273 -1.47704,0.56672 -2.82273,-0.0142 z m 1.47784,-3.42326 5.05016,-11.69809 -3.90723,-1.68679 -5.05016,11.6981 z"
         style="stroke-width:0.65829676;fill:#c8102e;fill-opacity:1"
         id="path986"
         inkscape:connector-curvature="0" />
      <path
         d="m 184.94857,207.57984 2.53676,-10.39939 -5.50465,7.93314 q -0.52775,0.76057 -1.28831,0.23282 l -1.5317,-1.06282 q -0.76057,-0.52774 -0.23283,-1.28831 l 10.45959,-15.07402 q 0.52774,-0.76056 1.28831,-0.23282 l 2.00705,1.39266 q 0.50705,0.35183 0.37058,0.97701 l -2.53353,10.41728 5.51199,-7.9437 q 0.52774,-0.76057 1.28831,-0.23282 l 1.52113,1.05548 q 0.76057,0.52775 0.23283,1.28831 l -10.45226,15.06346 q -0.52041,0.75 -1.27042,0.22959 l -2.01438,-1.38209 q -0.5355,-0.35593 -0.38847,-0.97378 z"
         style="stroke-width:0.65829676;fill:#c8102e;fill-opacity:1"
         id="path988"
         inkscape:connector-curvature="0" />
    </g>
  </g>
</svg>
