<?xml version="1.0" standalone="no"?>
<!DOCTYPE svg PUBLIC "-//W3C//DTD SVG 20010904//EN"
 "http://www.w3.org/TR/2001/REC-SVG-20010904/DTD/svg10.dtd">
<svg version="1.0" xmlns="http://www.w3.org/2000/svg"
 width="700.000000pt" height="700.000000pt" viewBox="0 0 700.000000 700.000000"
 preserveAspectRatio="xMidYMid meet">
<metadata>
Created by potrace 1.11, written by Peter Selinger 2001-2013
</metadata>
<g transform="translate(0.000000,700.000000) scale(0.100000,-0.100000)"
fill="#000000" stroke="none">
<path d="M0 3500 l0 -3500 3500 0 3500 0 0 3500 0 3500 -3500 0 -3500 0 0
-3500z m3805 2649 c803 -55 1461 -102 1463 -103 1 -2 -8 -165 -20 -362 l-23
-359 -45 3 c-25 1 -270 18 -545 37 -274 19 -501 33 -503 30 -2 -2 22 -834 53
-1849 l58 -1845 -129 -180 -129 -179 -1019 -297 c-560 -163 -1020 -294 -1022
-292 -11 11 -212 673 -206 679 4 3 402 121 885 261 483 140 881 257 883 260 3
3 -18 787 -47 1743 -40 1317 -55 1742 -65 1749 -6 6 -271 31 -588 55 l-576 44
0 25 c0 15 12 173 27 354 l27 327 31 0 c16 0 687 -45 1490 -101z"/>
</g>
</svg>
