<?xml version="1.0" encoding="UTF-8" standalone="no"?>
<!-- Created with Inkscape (http://www.inkscape.org/) -->

<svg
   xmlns:dc="http://purl.org/dc/elements/1.1/"
   xmlns:cc="http://creativecommons.org/ns#"
   xmlns:rdf="http://www.w3.org/1999/02/22-rdf-syntax-ns#"
   xmlns:svg="http://www.w3.org/2000/svg"
   xmlns="http://www.w3.org/2000/svg"
   xmlns:sodipodi="http://sodipodi.sourceforge.net/DTD/sodipodi-0.dtd"
   xmlns:inkscape="http://www.inkscape.org/namespaces/inkscape"
   width="1000"
   height="1000"
   viewBox="0 0 264.58333 264.58334"
   version="1.1"
   id="svg8"
   sodipodi:docname="monogram-on-silver.svg"
   inkscape:version="0.92.3 (2405546, 2018-03-11)">
  <defs
     id="defs2">
    <clipPath
       clipPathUnits="userSpaceOnUse"
       id="clipPath979">
      <rect
         style="opacity:1;fill:#ffffff;fill-opacity:1;stroke:none;stroke-width:7.9375;stroke-linecap:butt;stroke-linejoin:miter;stroke-miterlimit:4;stroke-dasharray:none;stroke-opacity:1;paint-order:normal"
         id="rect981"
         width="880.92035"
         height="880.92035"
         x="399.83521"
         y="-141.32204"
         transform="rotate(-90)" />
    </clipPath>
  </defs>
  <sodipodi:namedview
     id="base"
     pagecolor="#ffffff"
     bordercolor="#666666"
     borderopacity="1.0"
     inkscape:pageopacity="0.0"
     inkscape:pageshadow="2"
     inkscape:zoom="0.49497475"
     inkscape:cx="306.47228"
     inkscape:cy="376.12086"
     inkscape:document-units="mm"
     inkscape:current-layer="layer1"
     showgrid="false"
     units="px"
     inkscape:window-width="1920"
     inkscape:window-height="1029"
     inkscape:window-x="1920"
     inkscape:window-y="0"
     inkscape:window-maximized="1"
     inkscape:snap-smooth-nodes="false"
     inkscape:snap-object-midpoints="true"
     showguides="true"
     inkscape:snap-global="false" />
  <metadata
     id="metadata5">
    <rdf:RDF>
      <cc:Work
         rdf:about="">
        <dc:format>image/svg+xml</dc:format>
        <dc:type
           rdf:resource="http://purl.org/dc/dcmitype/StillImage" />
        <dc:title />
      </cc:Work>
    </rdf:RDF>
  </metadata>
  <g
     inkscape:label="Layer 1"
     inkscape:groupmode="layer"
     id="layer1"
     transform="translate(0,-32.41665)">
    <rect
       style="opacity:1;fill:#c5ced3;fill-opacity:1;stroke:none;stroke-width:7.9375;stroke-linecap:butt;stroke-linejoin:miter;stroke-miterlimit:4;stroke-dasharray:none;stroke-opacity:1;paint-order:normal"
       id="rect1000"
       width="277.9603"
       height="276.89124"
       x="-3.9246511"
       y="29.493305" />
    <path
       style="opacity:1;fill:#044714;fill-opacity:1;stroke:none;stroke-width:2.02255535;stroke-linecap:butt;stroke-linejoin:miter;stroke-miterlimit:4;stroke-dasharray:none;stroke-opacity:1;paint-order:normal"
       d="m 158.50122,133.29264 v 14.17851 4.87387 14.17852 4.87386 14.17851 l 21.26778,-5.07657 23.26163,-5.5525 10.90388,-2.60275 3.93925,-0.94029 a 10.160739,13.679481 20.027576 0 0 10.63389,-15.6091 10.160739,13.679481 20.027576 0 0 -10.63389,-10.53253 10.160739,13.679481 20.027576 0 0 10.63389,-15.60911 10.160739,13.679481 20.027576 0 0 -10.63389,-10.53253 l -3.40201,0.81205 -34.70275,8.28348 z m 21.26778,9.10193 23.26163,-5.5525 a 2.1633818,2.7450728 41.597 0 1 2.43693,1.85524 2.1633818,2.7450728 41.597 0 1 -2.43693,3.01862 l -23.26163,5.55251 z m 0,19.05239 23.26163,-5.5525 a 2.1633818,2.7450728 41.597 0 1 2.43693,1.85524 2.1633818,2.7450728 41.597 0 1 -2.43693,3.01862 l -23.26163,5.5525 z"
       id="path1043"
       inkscape:connector-curvature="0" />
    <path
       style="opacity:1;fill:#044714;fill-opacity:1;stroke:none;stroke-width:2.74828053;stroke-linecap:butt;stroke-linejoin:miter;stroke-miterlimit:4;stroke-dasharray:none;stroke-opacity:1;paint-order:normal"
       d="m 158.50122,193.9892 v 15.50775 21.26777 15.50777 l 21.26778,-5.07658 v -15.50775 l 25.69856,-6.13421 v 15.50776 l 21.26778,-5.07658 v -15.50775 -21.26777 -15.50776 l -21.26778,5.07657 v 15.50776 l -25.69856,6.1342 v -15.50776 z"
       id="path1045"
       inkscape:connector-curvature="0" />
    <path
       style="opacity:1;fill:#044714;fill-opacity:1;stroke:none;stroke-width:8.66949844;stroke-linecap:butt;stroke-linejoin:miter;stroke-miterlimit:4;stroke-dasharray:none;stroke-opacity:1;paint-order:normal"
       d="m 161.38077,50.445558 c -12.49321,-0.752454 -22.76408,6.078035 -26.83523,23.772493 -1.69152,7.35195 -2.86065,21.318948 -3.76682,38.276699 -3.32268,-1.03198 -5.62202,-2.71315 -7.1125,-4.90635 -3.31135,-4.87263 -3.61991,-17.204323 -7.72561,-22.974615 C 111.83491,78.843492 99.761133,75.996656 92.883931,70.622961 86.006729,65.249267 82.474476,59.178943 82.474476,59.178943 c 0,0 0.137049,12.801198 8.791767,25.939161 0,0 -6.074865,-1.651338 -12.682862,-10.105534 -0.130111,2.278281 2.502503,16.106322 12.077133,26.9116 0,0 -7.175854,-0.92735 -11.876813,-8.072669 0.751822,3.657893 1.998051,7.278759 3.923464,10.675619 10.840926,19.12586 27.543305,25.85002 46.011545,25.77698 0.40807,-0.002 0.82084,6e-5 1.23255,-0.0192 -0.45975,31.79974 0.20171,67.80481 -2.63714,92.16733 -2.53393,21.74593 -20.13122,38.48534 -41.983567,37.15076 -7.637768,-0.47945 -15.879941,-3.06471 -22.028006,-7.62176 -7.11464,-5.78317 -8.732459,-16.15205 -3.477689,-23.8694 3.777173,-5.54689 10.347851,-8.50456 17.004598,-7.65431 2.789726,0.35621 5.455708,1.36699 7.780365,2.94984 11.762372,8.00916 27.790329,4.96676 35.799759,-6.79543 8.00944,-11.76244 5.34329,-29.77145 -5.35426,-40.2765 -9.91877,-10.00998 -38.433078,-14.51402 -60.569744,-3.12851 -22.136669,11.38554 -44.5751715,52.04866 -13.314963,89.41027 31.260208,37.36159 82.522457,19.58072 99.186327,-6.70098 15.44722,-24.36281 8.66473,-64.93954 10.74265,-129.04654 11.86173,-3.29646 22.51302,-10.72551 28.26762,-22.14372 9.39455,-18.640615 8.70986,-46.753215 -8.06533,-52.28105 -3.40746,-1.122842 -6.73657,-1.807608 -9.92111,-1.99941 z m 1.33001,20.168451 c 3.40521,0.175557 6.33451,2.994498 6.789,8.24747 1.07918,12.472306 -6.8234,29.325311 -18.84026,33.485071 0.0214,-13.177246 0.61552,-24.012992 1.21885,-28.72239 1.31002,-10.225743 6.166,-13.250727 10.83241,-13.010151 z M 89.256886,180.5635 c 7.116707,0.45086 14.468684,2.17815 19.866644,6.83784 7.81939,6.7499 8.85372,18.28242 4.73299,24.74811 -5.54502,8.14334 -16.641672,10.24962 -24.784939,4.70446 -3.357881,-2.28643 -7.208798,-3.7465 -11.238489,-4.26105 -0.852054,-0.10884 -1.709003,-0.17505 -2.567654,-0.19823 -8.769173,-0.23681 -17.056375,4.00413 -21.99366,11.25517 -1.963878,2.88411 -3.261592,6.02485 -3.930951,9.2408 -1.66921,-4.87625 -2.371489,-10.03123 -2.06751,-15.17629 1.334517,-21.85235 20.131221,-38.48533 41.983565,-37.15077 z"
       id="circle850"
       inkscape:connector-curvature="0"
       sodipodi:nodetypes="scccsscccccsccscccccccssscssssccsscscccccccc" />
  </g>
</svg>
