<?xml version="1.0" encoding="UTF-8" standalone="no"?>
<!-- Created with Inkscape (http://www.inkscape.org/) -->

<svg
   xmlns:dc="http://purl.org/dc/elements/1.1/"
   xmlns:cc="http://creativecommons.org/ns#"
   xmlns:rdf="http://www.w3.org/1999/02/22-rdf-syntax-ns#"
   xmlns:svg="http://www.w3.org/2000/svg"
   xmlns="http://www.w3.org/2000/svg"
   xmlns:sodipodi="http://sodipodi.sourceforge.net/DTD/sodipodi-0.dtd"
   xmlns:inkscape="http://www.inkscape.org/namespaces/inkscape"
   width="1000"
   height="1000"
   viewBox="0 0 264.58333 264.58334"
   version="1.1"
   id="svg8"
   inkscape:version="0.92.3 (2405546, 2018-03-11)"
   sodipodi:docname="ari.svg">
  <defs
     id="defs2" />
  <sodipodi:namedview
     id="base"
     pagecolor="#ffffff"
     bordercolor="#666666"
     borderopacity="1.0"
     inkscape:pageopacity="0.0"
     inkscape:pageshadow="2"
     inkscape:zoom="0.7"
     inkscape:cx="516.89592"
     inkscape:cy="497.66721"
     inkscape:document-units="mm"
     inkscape:current-layer="layer2"
     showgrid="false"
     units="px"
     inkscape:snap-global="false"
     inkscape:window-width="1920"
     inkscape:window-height="1054"
     inkscape:window-x="0"
     inkscape:window-y="0"
     inkscape:window-maximized="1" />
  <metadata
     id="metadata5">
    <rdf:RDF>
      <cc:Work
         rdf:about="">
        <dc:format>image/svg+xml</dc:format>
        <dc:type
           rdf:resource="http://purl.org/dc/dcmitype/StillImage" />
        <dc:title></dc:title>
      </cc:Work>
    </rdf:RDF>
  </metadata>
  <g
     inkscape:label="Layer 1"
     inkscape:groupmode="layer"
     id="layer1"
     transform="translate(0,-32.41665)"
     style="display:inline;opacity:0.51700003" />
  <g
     inkscape:groupmode="layer"
     id="layer2"
     inkscape:label="Layer 2"
     style="opacity:1">
    <rect
       style="opacity:1;fill:#ffffff;fill-opacity:1;stroke:none;stroke-width:6.61458302;stroke-linecap:square;stroke-linejoin:round;stroke-miterlimit:4;stroke-dasharray:none;stroke-opacity:1;paint-order:normal"
       id="rect1045"
       width="281.97021"
       height="283.10416"
       x="-4.5357141"
       y="-6.4255953" />
    <g
       id="g1043"
       transform="matrix(0.91087877,0,0,0.91087877,-420.59569,22.569123)">
      <path
         id="path977"
         transform="scale(0.26458333)"
         d="m 2242.8574,399.28516 c 0,0 -15.714,66.42857 -37.1426,100 -11.5762,18.13616 -42.3143,54.19836 -70.9628,89.7207 25.4524,-18.56006 49.1377,-35.31018 82.3906,-74.00586 38.5635,-44.87555 45.7839,-93.75726 50.7226,-113.06641 z m 319.9004,47.65625 -81.3183,19.19336 c 0,0 0.5062,40.40636 -10.6055,73.23632 -7.2594,21.44801 -20.8802,44.85404 -29.5254,58.64258 -15.1205,8.32577 -30.6368,17.99434 -46.3086,29.84375 -59.7131,45.14895 -51.4277,74.28631 -111.4277,145.71485 -21.6147,25.73174 -47.4016,42.83933 -73.2852,52.86523 l -36.7148,-81.08008 -3.0508,91.17578 c -31.2985,3.88961 -59.4105,-2.16254 -76.2363,-15.10547 -29.5523,-22.73254 -26.0941,-111.93081 -7.2579,-168.30664 -3.2211,5.18281 -5.8778,9.91994 -7.7421,14.02149 -5.1896,11.41706 -11.4519,29.36799 -16.1133,49.87109 l -36.7442,-44.15625 30.0274,102.14649 c 0.5321,34.07295 10.7281,65.89231 40.6875,80.71093 66.4285,32.85714 180.0012,-17.14286 211.4297,-50 31.4286,-32.85713 24.9988,-58.57225 63.5703,-93.57226 38.5714,-35.00001 147.8577,-89.9989 190.7148,-118.57031 42.8572,-28.57146 117.142,-87.85741 141.4278,-137.85743 l -52.1778,-7.33203 -14.25,19.47461 c 0,0 -44.2869,49.28628 -86.4297,75.71485 -12.7033,7.9665 -26.834,14.80989 -41.9961,21.74804 51.6649,-36.07657 105.3477,-91.60937 105.3477,-91.60937 z"
         style="opacity:1;fill:#000000;fill-opacity:1;stroke:none;stroke-width:0.99999994px;stroke-linecap:butt;stroke-linejoin:miter;stroke-opacity:1"
         inkscape:connector-curvature="0" />
      <path
         transform="scale(0.26458333)"
         id="path992"
         d="m 2638.5176,351.48242 -312.4571,1.64453 c 11.0644,3.49308 23.8538,5.43703 37.1543,5.44532 7.3471,-0.0147 14.6473,-0.61792 21.6504,-1.78907 12.2964,12.91528 37.3623,21.07005 64.7774,21.07422 7.061,-0.011 14.0811,-0.56572 20.8379,-1.64648 11.7168,9.15975 29.563,14.50247 48.4472,14.5039 10.9448,-0.0166 21.6861,-1.83109 31.125,-5.25781 11.0885,11.6503 31.3042,18.80999 53.1621,18.82813 9.298,-0.0169 18.4699,-1.33142 26.8321,-3.84571 -8.7087,7.14636 -23.821,11.47627 -40.0625,11.47852 -16.1535,-4.7e-4 -31.1982,-4.28225 -39.9336,-11.36524 -9.0072,5.39874 -22.0557,8.50133 -35.7813,8.50782 -22.7675,-0.01 -42.3168,-8.44275 -46.5937,-20.09961 -8.8345,2.56603 -18.9047,3.92544 -29.168,3.9375 -28.8783,-0.0173 -53.2635,-10.54013 -57.0195,-24.60547 -7.5568,2.22495 -15.8692,3.38563 -24.2969,3.39258 -21.6362,-0.014 -40.4887,-7.49561 -49.4473,-18.46289 l -53.0839,0.27929 -24.5137,63.39844 c 7.8578,5.22521 17.8256,8.31893 28.5547,8.32227 11.2908,-0.0149 22.1708,-3.4842 30.5215,-9.73243 2.1084,8.47658 6.9125,16.03132 13.58,22.13477 l 30.6504,-33.61523 68.6895,9.09179 6.6582,57.87891 c 4.0275,1.10949 8.2317,1.7156 12.5351,1.7207 10.6418,-0.004 20.9739,-3.58248 29.3379,-10.16211 8.3815,14.98659 24.202,24.27961 41.3731,24.30274 13.777,-0.01 26.8703,-6.00389 35.8808,-16.42578 9.0012,10.41111 22.0772,16.40397 35.8399,16.42578 13.0121,-0.0215 25.445,-5.38259 34.3926,-14.83008 8.6478,7.59315 19.7592,11.78675 31.2675,11.80078 14.0915,-0.0167 27.4475,-6.29214 36.4551,-17.12891 25.1355,12.18154 34.5184,7.6084 67.1524,-31.48632 z"
         style="opacity:1;fill:#a71930;fill-opacity:1;stroke:#ffffff;stroke-width:25;stroke-linecap:butt;stroke-linejoin:miter;stroke-miterlimit:4;stroke-dasharray:none;stroke-opacity:1"
         inkscape:connector-curvature="0" />
      <path
         id="path967"
         transform="scale(0.26458333)"
         d="m 2007.4707,95.710938 c -3.5878,0.06411 -6.737,0.455276 -9.3887,1.21289 -42.4264,12.121832 -38.6209,28.126472 -59.5996,39.396482 -12.8923,6.92587 -10.1016,-5.05148 -40.4062,17.17188 -30.3046,22.22335 -37.3761,81.82272 -9.0918,101.01562 2.6724,1.81341 5.3637,3.05588 8.0449,3.82422 -0.1585,9.71884 -0.6337,22.12364 -1.9824,31.02539 -2.5254,16.66753 -22.2239,55.55788 -21.7188,80.30664 0.5052,24.74873 10.1022,85.35854 67.1758,77.27735 0,0 -17.6781,-7.07196 -31.8203,-28.28516 -14.1421,-21.2132 1.5153,-49.49732 10.1016,-56.56836 8.5862,-7.07108 25.7578,-1.00943 45.9609,-12.12109 13.6766,-7.52216 31.4929,-33.29662 41.5937,-49.18555 7.1298,16.04819 25.3869,27.4666 46.795,27.4668 5.6909,-0.0147 11.3371,-0.85355 16.6953,-2.48047 -0.01,0.1536 -0.019,0.30725 -0.027,0.46094 3e-4,17.65257 12.7095,32.78255 30.7852,39.17382 -0.1406,9.85287 -0.5986,22.81762 -1.9961,32.04102 -2.5254,16.66753 -19.0491,55.69907 -21.7188,80.30859 -6.0578,55.84328 23.7389,80.81167 80.8125,72.73047 0,0 -25.2543,-4.0407 -39.3964,-25.2539 -14.1422,-21.21321 0.5253,-38.78864 10.1015,-44.44727 11.1117,-6.56602 32.086,-2.99127 53.0332,-12.62695 18.5082,-8.5138 38.5986,-37.04342 48.0352,-51.70899 7.9585,5.50449 18.2009,8.77392 29.2422,8.77735 11.2908,-0.0149 22.1708,-3.4842 30.5215,-9.73243 5.4716,21.99701 29.0361,37.83423 56.4609,38.00977 -14.0056,35.96525 -52.5097,113.94999 -131.4297,143.44922 -104.0457,38.89088 -244.9615,-44.44768 -291.9336,-45.96289 -46.9721,-1.51525 -94.4501,17.17321 -127.7851,64.65039 0,0 62.6295,-58.08276 129.8046,-38.38477 0,0 -54.5476,39.3948 -62.6289,107.58008 0,0 44.4463,-88.38749 95.459,-86.36719 51.0127,2.02031 136.3725,42.42618 196.4766,41.41602 59.3073,-0.99676 162.7646,-33.29152 228.6875,-187.67578 8.7564,12.68015 23.2666,20.47742 39.0019,20.49609 10.6418,-0.004 20.9739,-3.58248 29.3379,-10.16211 8.3815,14.98659 24.202,24.27961 41.3731,24.30274 13.777,-0.01 26.8703,-6.00389 35.8808,-16.42578 9.0012,10.41111 22.0772,16.40397 35.8399,16.42578 13.0121,-0.0215 25.445,-5.38259 34.3926,-14.83008 8.6478,7.59315 19.7592,11.78675 31.2675,11.80078 14.0915,-0.0167 27.4475,-6.29214 36.4551,-17.12891 5.7095,2.76701 10.5964,4.6585 15.1309,5.49805 l -0.5938,-193.62891 c -77.2344,-49.89894 -162.8207,-89.01054 -211.6074,-95.76562 -65.6599,-9.09137 -141.4209,4.04098 -200.0098,-6.06055 -54.927,-9.47018 -207.5147,-81.97744 -261.332,-81.015622 z m 69.4023,35.558592 28.2852,12.12109 -35.3555,32.32422 z m 221.3204,66.32031 c 2.3277,-7e-4 4.6544,0.11286 6.9746,0.34961 49.4975,5.05076 55.8092,68.94924 -14.1426,73.74024 -30.6011,2.09587 -87.8828,-27.27344 -87.8828,-27.27344 0,0 47.719,-46.80207 95.0508,-46.81641 z m -11.2071,13.48047 -23.2343,7.07227 13.1308,39.39453 z m -339.4121,18.1836 c 0,0 5.0102,60.7115 51.9961,56.08203 -9.1844,15.19888 -28.7048,45.72196 -40.3789,50.99414 -15.6574,7.07108 -28.4557,2.45708 -40.4062,8.08008 -11.0671,5.20732 -20.2044,8.08176 -27.2754,34.3457 0,0 -3.0297,-16.16142 3.0312,-33.33398 6.0609,-17.17259 13.6363,-36.87035 14.6465,-46.4668 0.6454,-6.13169 1.0619,-26.19443 1.2949,-40.39453 20.2725,-4.64674 37.0918,-29.30664 37.0918,-29.30664 z m 354.7442,111.77148 c 13.3241,10.92274 36.2599,17.53153 60.8964,17.54688 7.3471,-0.0147 14.6473,-0.61792 21.6504,-1.78907 12.2964,12.91528 37.3623,21.07005 64.7774,21.07422 7.061,-0.011 14.0811,-0.56572 20.8379,-1.64648 11.7168,9.15975 29.563,14.50247 48.4472,14.5039 10.9448,-0.0166 21.6861,-1.83109 31.125,-5.25781 11.0885,11.6503 31.3042,18.80999 53.1621,18.82813 9.298,-0.0169 18.4699,-1.33142 26.8321,-3.84571 -8.7087,7.14636 -23.821,11.47627 -40.0625,11.47852 -16.1535,-4.7e-4 -31.1982,-4.28225 -39.9336,-11.36524 -9.0072,5.39874 -22.0557,8.50133 -35.7813,8.50782 -22.7675,-0.01 -42.3168,-8.44275 -46.5937,-20.09961 -8.8345,2.56603 -18.9047,3.92544 -29.168,3.9375 -28.8783,-0.0173 -53.2635,-10.54013 -57.0195,-24.60547 -7.5568,2.22495 -15.8692,3.38563 -24.2969,3.39258 -28.9696,-0.0188 -52.9584,-13.4225 -54.873,-30.66016 z m -164.1211,24.64258 c 4.0875,20.39113 24.9096,35.30939 49.2871,35.3125 9.3755,-0.008 18.5596,-2.25212 26.5039,-6.47656 0.63,2.86196 1.6503,5.59678 3.0039,8.17382 -11.0341,14.64873 -32.753,42.14591 -44.1543,47.29493 -15.6574,7.07108 -37.0421,7.50823 -45.457,9.5957 -11.8712,2.94486 -21.7188,11.11144 -31.8204,31.31445 0,0 -3.5355,-20.20241 2.5254,-37.375 6.061,-17.17258 13.6383,-36.87035 14.6485,-46.46679 0.6195,-5.88511 1.026,-24.57624 1.2656,-38.67969 1.9053,0.18701 3.8403,0.29295 5.8047,0.29297 6.2978,-0.004 12.5381,-1.01699 18.3926,-2.98633 z"
         style="opacity:1;fill:#a71930;fill-opacity:1;stroke:none;stroke-width:0.99999994px;stroke-linecap:butt;stroke-linejoin:miter;stroke-opacity:1"
         inkscape:connector-curvature="0" />
      <path
         style="fill:#e3d4ad;fill-opacity:1;stroke:#ffffff;stroke-width:6.61458349;stroke-linecap:butt;stroke-linejoin:miter;stroke-miterlimit:4;stroke-dasharray:none;stroke-opacity:1"
         d="m 702.09341,42.048229 c 4.77237,0.03872 9.60742,3.556117 10.04591,8.671822 0.38129,4.448437 0.94152,33.605526 1.4268,62.913989 4.44338,-0.0415 6.2759,-1.77949 8.53494,-4.17973 4.27632,-4.54358 -0.26747,-24.588812 1.87068,-31.003284 2.13815,-6.414461 11.91668,-7.197136 13.58515,11.179604 1.76483,19.43805 1.53875,30.49552 -2.47029,35.30638 -2.71053,3.25263 -12.61866,7.44913 -21.21301,7.86951 0.3847,24.76416 0.67127,45.66801 0.67127,45.66801 h -23.78718 c 0,0 -0.19801,-28.56912 -0.0357,-58.86101 -4.95202,-0.26263 -12.32141,-0.90669 -18.67326,-2.50113 -10.69078,-2.68363 -9.62163,-11.33081 -8.2853,-26.239753 1.33636,-14.908958 8.82005,-16.101969 11.76002,-10.138398 2.93997,5.963578 -1.06897,17.890832 2.40554,20.872631 2.08317,1.78776 8.28542,1.64393 12.92841,1.24385 0.25993,-24.780799 0.83127,-47.397117 2.03862,-52.665521 1.33217,-5.813111 5.24314,-8.16905 9.19736,-8.13697 z"
         id="path1036"
         inkscape:connector-curvature="0"
         sodipodi:nodetypes="ccccsscccccccsscccc" />
      <path
         sodipodi:nodetypes="ccccsscccccccsscccc"
         inkscape:connector-curvature="0"
         id="path1021"
         d="m 702.09341,42.048229 c 4.77237,0.03872 9.60742,3.556117 10.04591,8.671822 0.38129,4.448437 0.94152,33.605526 1.4268,62.913989 4.44338,-0.0415 6.2759,-1.77949 8.53494,-4.17973 4.27632,-4.54358 -0.26747,-24.588812 1.87068,-31.003284 2.13815,-6.414461 11.91668,-7.197136 13.58515,11.179604 1.76483,19.43805 1.53875,30.49552 -2.47029,35.30638 -2.71053,3.25263 -12.61866,7.44913 -21.21301,7.86951 0.3847,24.76416 0.67127,45.66801 0.67127,45.66801 h -23.78718 c 0,0 -0.19801,-28.56912 -0.0357,-58.86101 -4.95202,-0.26263 -12.32141,-0.90669 -18.67326,-2.50113 -10.69078,-2.68363 -9.62163,-11.33081 -8.2853,-26.239753 1.33636,-14.908958 8.82005,-16.101969 11.76002,-10.138398 2.93997,5.963578 -1.06897,17.890832 2.40554,20.872631 2.08317,1.78776 8.28542,1.64393 12.92841,1.24385 0.25993,-24.780799 0.83127,-47.397117 2.03862,-52.665521 1.33217,-5.813111 5.24314,-8.16905 9.19736,-8.13697 z"
         style="fill:#e3d4ad;fill-opacity:1;stroke:none;stroke-width:0.26458332px;stroke-linecap:butt;stroke-linejoin:miter;stroke-opacity:1" />
    </g>
  </g>
</svg>
