<?xml version="1.0" encoding="UTF-8" standalone="no"?>
<!-- Created with Inkscape (http://www.inkscape.org/) -->

<svg
   xmlns:dc="http://purl.org/dc/elements/1.1/"
   xmlns:cc="http://creativecommons.org/ns#"
   xmlns:rdf="http://www.w3.org/1999/02/22-rdf-syntax-ns#"
   xmlns:svg="http://www.w3.org/2000/svg"
   xmlns="http://www.w3.org/2000/svg"
   xmlns:sodipodi="http://sodipodi.sourceforge.net/DTD/sodipodi-0.dtd"
   xmlns:inkscape="http://www.inkscape.org/namespaces/inkscape"
   width="1000"
   height="1000"
   viewBox="0 0 264.58333 264.58334"
   version="1.1"
   id="svg8"
   inkscape:version="0.92.3 (2405546, 2018-03-11)"
   sodipodi:docname="bos-shamrock.svg">
  <defs
     id="defs2" />
  <sodipodi:namedview
     id="base"
     pagecolor="#ffffff"
     bordercolor="#666666"
     borderopacity="1.0"
     inkscape:pageopacity="0.0"
     inkscape:pageshadow="2"
     inkscape:zoom="0.49497475"
     inkscape:cx="1035.1647"
     inkscape:cy="439.00415"
     inkscape:document-units="mm"
     inkscape:current-layer="layer1"
     showgrid="false"
     units="px"
     inkscape:snap-global="false"
     inkscape:window-width="1920"
     inkscape:window-height="1029"
     inkscape:window-x="1920"
     inkscape:window-y="0"
     inkscape:window-maximized="1" />
  <metadata
     id="metadata5">
    <rdf:RDF>
      <cc:Work
         rdf:about="">
        <dc:format>image/svg+xml</dc:format>
        <dc:type
           rdf:resource="http://purl.org/dc/dcmitype/StillImage" />
        <dc:title />
      </cc:Work>
    </rdf:RDF>
  </metadata>
  <g
     inkscape:label="Layer 1"
     inkscape:groupmode="layer"
     id="layer1"
     transform="translate(0,-32.41665)">
    <rect
       style="opacity:1;fill:#ffffff;fill-opacity:1;stroke:none;stroke-width:5.29166651;stroke-linecap:square;stroke-linejoin:miter;stroke-miterlimit:4;stroke-dasharray:none;stroke-opacity:1;paint-order:normal"
       id="rect1019"
       width="284.90933"
       height="303.08362"
       x="-19.243406"
       y="11.556131" />
    <g
       id="g959"
       transform="matrix(0.8083785,0,0,0.8083785,-335.59004,42.404026)">
      <path
         sodipodi:nodetypes="ccccsssscccccccccccsc"
         id="path918"
         d="m 561.13939,23.232714 c -1.94742,0.01294 -3.35857,0.204618 -4.0163,0.618051 -4.67722,2.939965 -8.55244,33.408296 -8.55244,33.408296 0,0 -2.27185,0.04364 -3.50417,1.525488 -1.79348,2.156602 -10.60829,84.001231 -27.99519,100.065211 -17.38691,16.06399 -31.93878,9.63832 -49.32569,12.47314 -17.38688,2.83482 -49.89269,25.3244 -48.75877,46.30208 1.13393,20.97768 57.64123,13.79613 81.83168,9.26042 24.19049,-4.53572 54.61736,-10.58334 54.61736,-10.58334 0,0 7.74843,-6.61443 5.85854,-30.23794 l 27.02575,-7.55975 c 0,0 2.83475,14.17425 -0.75604,34.58497 l 32.31689,-8.69353 -13.58005,-156.624542 c 0,0 4.1425,-10.82447 1.20253,-14.699878 -2.52651,-3.330428 -34.4633,-9.91777 -46.3641,-9.838676 z M 441.65832,190.72368 c 5.25903,2.18902 19.70887,12.44079 19.70887,12.44079 l -8.28838,22.05932 c -10.77233,0.94494 -25.66772,0.86986 -27.76117,-10.2445 -1.32731,-7.0468 7.74079,-19.62926 16.34068,-24.25561 z"
         style="fill:#0c2340;fill-opacity:1;stroke:none;stroke-width:0.26458332px;stroke-linecap:butt;stroke-linejoin:miter;stroke-opacity:1"
         inkscape:connector-curvature="0" />
      <path
         sodipodi:nodetypes="sccccsscscsscccscscccccccc"
         inkscape:connector-curvature="0"
         style="fill:#bd3039;fill-opacity:1;stroke:#ffffff;stroke-width:5.29166651;stroke-linecap:butt;stroke-linejoin:miter;stroke-miterlimit:4;stroke-dasharray:none;stroke-opacity:1"
         d="m 612.96155,41.387162 c -7.44011,0.05005 -44.95191,14.623248 -46.75322,17.865575 -1.8899,3.401784 9.07129,30.994492 9.07129,30.994492 0,0 -2.51629,1.539095 -2.56731,4.002339 -0.27508,13.292312 40.55391,80.097362 23.73397,101.830992 -5.85864,7.18155 -28.15896,18.89859 -37.98633,26.83609 -9.82737,7.9375 -48.00296,38.74271 -39.6875,53.1058 8.31548,14.3631 47.05765,10.01644 61.04279,3.40186 13.98511,-6.61459 38.55365,-24.56844 52.34979,-30.42708 13.79612,-5.85863 50.45972,-7.55961 57.45229,-29.8602 5.85862,-18.70983 -17.76479,-34.9628 -27.0252,-56.88541 -3.98812,-9.44124 -12.09511,-44.41249 -14.36296,-51.97202 -2.26785,-7.55952 -12.77498,-33.93663 -15.20113,-36.048965 -2.43981,-2.124207 -5.20952,-1.37046 -5.20952,-1.37046 0,0 -9.44946,-29.860339 -13.98518,-31.372244 -0.21262,-0.07087 -0.50589,-0.103231 -0.87178,-0.100769 z m 58.70236,147.417358 c 0,0 12.56747,13.98512 10.29962,26.45833 -2.26785,12.47322 -25.60775,18.048 -25.60775,18.048 0,0 -0.28368,-22.11124 -7.55973,-32.60008 z m -132.71489,59.0181 21.38164,3.20704 c 1.40314,13.96483 -3.14039,27.06088 -3.14039,27.06088 -7.6876,1.26756 -28.65713,2.49502 -31.67145,-7.2161 -1.88036,-6.6873 13.4302,-23.05182 13.4302,-23.05182 z"
         id="path954" />
      <path
         id="path912"
         d="m 612.96155,41.387162 c -7.44011,0.05005 -44.95191,14.623248 -46.75322,17.865575 -1.8899,3.401784 9.07129,30.994492 9.07129,30.994492 0,0 -2.51629,1.539095 -2.56731,4.002339 -0.27508,13.292312 40.55391,80.097362 23.73397,101.830992 -5.85864,7.18155 -28.15896,18.89859 -37.98633,26.83609 -9.82737,7.9375 -48.00296,38.74271 -39.6875,53.1058 8.31548,14.3631 47.05765,10.01644 61.04279,3.40186 13.98511,-6.61459 38.55365,-24.56844 52.34979,-30.42708 13.79612,-5.85863 50.45972,-7.55961 57.45229,-29.8602 5.85862,-18.70983 -17.76479,-34.9628 -27.0252,-56.88541 -3.98812,-9.44124 -12.09511,-44.41249 -14.36296,-51.97202 -2.26785,-7.55952 -12.77498,-33.93663 -15.20113,-36.048965 -2.43981,-2.124207 -5.20952,-1.37046 -5.20952,-1.37046 0,0 -9.44946,-29.860339 -13.98518,-31.372244 -0.21262,-0.07087 -0.50589,-0.103231 -0.87178,-0.100769 z m 58.70236,147.417358 c 0,0 12.56747,13.98512 10.29962,26.45833 -2.26785,12.47322 -25.60775,18.048 -25.60775,18.048 0,0 -0.28368,-22.11124 -7.55973,-32.60008 z m -132.71489,59.0181 21.38164,3.20704 c 1.40314,13.96483 -3.14039,27.06088 -3.14039,27.06088 -7.6876,1.26756 -28.65713,2.49502 -31.67145,-7.2161 -1.88036,-6.6873 13.4302,-23.05182 13.4302,-23.05182 z"
         style="fill:#bd3039;fill-opacity:1;stroke:none;stroke-width:0.26458332px;stroke-linecap:butt;stroke-linejoin:miter;stroke-opacity:1"
         inkscape:connector-curvature="0"
         sodipodi:nodetypes="sccccsscscsscccscscccccccc" />
    </g>
    <path
       inkscape:connector-curvature="0"
       id="path949"
       d="m 223.01068,182.0468 c -0.58517,-0.11135 -1.95135,-0.59999 -2.65776,-0.9506 -2.93462,-1.45657 -5.12901,-4.29512 -6.69434,-8.65947 -1.15004,-3.20645 -1.27099,-4.34332 -1.18248,-11.11451 0.0373,-2.85392 0.0308,-5.46132 -0.0144,-5.79422 -0.18966,-1.39778 -0.48625,-0.53154 -1.27371,3.72009 -1.67791,9.05931 -2.02341,10.23274 -3.59139,12.19808 -1.15234,1.44436 -3.36341,3.05658 -4.96294,3.61876 -1.55343,0.54598 -6.82244,0.0928 -8.47869,-0.72926 -2.22891,-1.10628 -4.42465,-3.6865 -6.93669,-8.15129 -0.40307,-0.71643 -1.28381,-1.81713 -2.94658,-3.68247 -1.43966,-1.61505 -2.46837,-2.97158 -3.10204,-4.09056 -0.4184,-0.73885 -0.42953,-0.79526 -0.41171,-2.08824 0.02,-1.44712 0.28239,-3.28433 0.69608,-4.87255 0.28743,-1.10353 1.27286,-3.28142 1.8038,-3.98663 1.32737,-1.76298 3.92262,-3.62814 6.04916,-4.3474 1.04068,-0.352 2.08213,-0.45918 6.93622,-0.7139 5.97952,-0.31376 7.07966,-0.3925 7.15352,-0.51201 0.086,-0.1391 -1.03703,-0.30921 -5.38168,-0.81521 -7.27251,-0.84702 -9.39202,-1.36182 -12.36272,-3.00278 -3.62078,-2.00005 -5.2712,-4.87007 -4.86587,-8.46152 0.34046,-3.01667 1.54543,-5.16965 4.29717,-7.67803 2.27707,-2.0757 4.08479,-3.95604 5.20453,-5.41361 3.16694,-4.12245 5.57516,-6.4074 8.05721,-7.64476 1.37193,-0.68393 2.39894,-0.9339 3.84615,-0.93608 1.44848,-0.002 2.45893,0.23837 3.91272,0.9315 2.21469,1.0559 3.92605,2.48818 5.07384,4.24641 1.01929,1.5614 1.44489,3.23188 2.14591,8.42265 0.61302,4.53912 0.8239,5.78417 0.95712,5.65095 0.0721,-0.0721 0.35616,-2.88934 0.63557,-6.30375 0.34501,-4.21604 0.59667,-5.20264 1.77695,-6.96599 1.58347,-2.36572 2.89117,-3.68194 5.04702,-5.07987 2.65282,-1.72019 5.41856,-2.36308 7.77576,-1.80744 1.01662,0.23963 2.68986,1.0177 3.67573,1.70926 0.79063,0.55459 2.19195,2.10193 3.54795,3.91765 2.0707,2.77272 2.6725,3.34976 5.57087,5.34171 2.67593,1.83908 3.64578,2.87997 4.64618,4.98653 0.55416,1.16693 0.65836,2.0236 0.51765,4.25645 -0.15171,2.40787 -0.49669,3.97436 -1.1848,5.38023 -1.2654,2.5853 -3.82765,4.91877 -7.20631,6.56287 -2.02851,0.9871 -3.54196,1.48761 -5.75847,1.90435 -2.77114,0.52104 -3.53545,0.68748 -3.5943,0.7827 -0.0306,0.0495 1.49177,0.0892 3.38299,0.0884 3.63987,-0.002 5.01612,0.11564 7.29865,0.62193 4.23333,0.93901 6.79558,3.03041 8.25894,6.74123 0.33223,0.84249 0.39675,1.19597 0.44559,2.44124 0.15635,3.98739 -1.30072,8.57823 -3.10067,9.76938 -1.31602,0.87091 -2.77273,2.79462 -4.53329,5.98664 -1.40478,2.54693 -1.78218,3.08208 -3.19994,4.53739 -1.05305,1.08095 -2.0946,1.8346 -3.3872,2.45096 l -1.00125,0.47743 -1.582,-0.0236 c -1.97853,-0.0296 -3.35337,-0.28992 -4.49286,-0.85087 -2.12351,-1.04537 -5.8017,-4.77018 -7.53561,-7.63113 -0.62482,-1.03095 -0.99744,-2.07037 -1.60082,-4.4655 -0.7213,-2.86319 -0.89545,-3.45478 -1.09889,-3.733 -0.15098,-0.20647 -0.17554,-0.17765 -0.25103,0.29438 -0.0767,0.47968 0.0764,3.76595 0.24563,5.27374 0.73623,6.55823 1.79676,9.33609 4.94041,12.94059 1.40681,1.61303 1.74342,2.21002 1.793,3.17991 0.0671,1.31132 -0.50639,2.22427 -1.30197,2.07288 z"
       style="fill:#006747;fill-opacity:1;stroke-width:5.29166667;stroke:#ffffff;stroke-opacity:1;stroke-miterlimit:4;stroke-dasharray:none" />
    <path
       style="fill:#006747;fill-opacity:1;stroke-width:0.12655973"
       d="m 223.01068,182.0468 c -0.58517,-0.11135 -1.95135,-0.59999 -2.65776,-0.9506 -2.93462,-1.45657 -5.12901,-4.29512 -6.69434,-8.65947 -1.15004,-3.20645 -1.27099,-4.34332 -1.18248,-11.11451 0.0373,-2.85392 0.0308,-5.46132 -0.0144,-5.79422 -0.18966,-1.39778 -0.48625,-0.53154 -1.27371,3.72009 -1.67791,9.05931 -2.02341,10.23274 -3.59139,12.19808 -1.15234,1.44436 -3.36341,3.05658 -4.96294,3.61876 -1.55343,0.54598 -6.82244,0.0928 -8.47869,-0.72926 -2.22891,-1.10628 -4.42465,-3.6865 -6.93669,-8.15129 -0.40307,-0.71643 -1.28381,-1.81713 -2.94658,-3.68247 -1.43966,-1.61505 -2.46837,-2.97158 -3.10204,-4.09056 -0.4184,-0.73885 -0.42953,-0.79526 -0.41171,-2.08824 0.02,-1.44712 0.28239,-3.28433 0.69608,-4.87255 0.28743,-1.10353 1.27286,-3.28142 1.8038,-3.98663 1.32737,-1.76298 3.92262,-3.62814 6.04916,-4.3474 1.04068,-0.352 2.08213,-0.45918 6.93622,-0.7139 5.97952,-0.31376 7.07966,-0.3925 7.15352,-0.51201 0.086,-0.1391 -1.03703,-0.30921 -5.38168,-0.81521 -7.27251,-0.84702 -9.39202,-1.36182 -12.36272,-3.00278 -3.62078,-2.00005 -5.2712,-4.87007 -4.86587,-8.46152 0.34046,-3.01667 1.54543,-5.16965 4.29717,-7.67803 2.27707,-2.0757 4.08479,-3.95604 5.20453,-5.41361 3.16694,-4.12245 5.57516,-6.4074 8.05721,-7.64476 1.37193,-0.68393 2.39894,-0.9339 3.84615,-0.93608 1.44848,-0.002 2.45893,0.23837 3.91272,0.9315 2.21469,1.0559 3.92605,2.48818 5.07384,4.24641 1.01929,1.5614 1.44489,3.23188 2.14591,8.42265 0.61302,4.53912 0.8239,5.78417 0.95712,5.65095 0.0721,-0.0721 0.35616,-2.88934 0.63557,-6.30375 0.34501,-4.21604 0.59667,-5.20264 1.77695,-6.96599 1.58347,-2.36572 2.89117,-3.68194 5.04702,-5.07987 2.65282,-1.72019 5.41856,-2.36308 7.77576,-1.80744 1.01662,0.23963 2.68986,1.0177 3.67573,1.70926 0.79063,0.55459 2.19195,2.10193 3.54795,3.91765 2.0707,2.77272 2.6725,3.34976 5.57087,5.34171 2.67593,1.83908 3.64578,2.87997 4.64618,4.98653 0.55416,1.16693 0.65836,2.0236 0.51765,4.25645 -0.15171,2.40787 -0.49669,3.97436 -1.1848,5.38023 -1.2654,2.5853 -3.82765,4.91877 -7.20631,6.56287 -2.02851,0.9871 -3.54196,1.48761 -5.75847,1.90435 -2.77114,0.52104 -3.53545,0.68748 -3.5943,0.7827 -0.0306,0.0495 1.49177,0.0892 3.38299,0.0884 3.63987,-0.002 5.01612,0.11564 7.29865,0.62193 4.23333,0.93901 6.79558,3.03041 8.25894,6.74123 0.33223,0.84249 0.39675,1.19597 0.44559,2.44124 0.15635,3.98739 -1.30072,8.57823 -3.10067,9.76938 -1.31602,0.87091 -2.77273,2.79462 -4.53329,5.98664 -1.40478,2.54693 -1.78218,3.08208 -3.19994,4.53739 -1.05305,1.08095 -2.0946,1.8346 -3.3872,2.45096 l -1.00125,0.47743 -1.582,-0.0236 c -1.97853,-0.0296 -3.35337,-0.28992 -4.49286,-0.85087 -2.12351,-1.04537 -5.8017,-4.77018 -7.53561,-7.63113 -0.62482,-1.03095 -0.99744,-2.07037 -1.60082,-4.4655 -0.7213,-2.86319 -0.89545,-3.45478 -1.09889,-3.733 -0.15098,-0.20647 -0.17554,-0.17765 -0.25103,0.29438 -0.0767,0.47968 0.0764,3.76595 0.24563,5.27374 0.73623,6.55823 1.79676,9.33609 4.94041,12.94059 1.40681,1.61303 1.74342,2.21002 1.793,3.17991 0.0671,1.31132 -0.50639,2.22427 -1.30197,2.07288 z"
       id="path947"
       inkscape:connector-curvature="0" />
  </g>
</svg>
