<?xml version="1.0" encoding="UTF-8" standalone="no"?>
<!-- Created with Inkscape (http://www.inkscape.org/) -->

<svg
   xmlns:dc="http://purl.org/dc/elements/1.1/"
   xmlns:cc="http://creativecommons.org/ns#"
   xmlns:rdf="http://www.w3.org/1999/02/22-rdf-syntax-ns#"
   xmlns:svg="http://www.w3.org/2000/svg"
   xmlns="http://www.w3.org/2000/svg"
   xmlns:sodipodi="http://sodipodi.sourceforge.net/DTD/sodipodi-0.dtd"
   xmlns:inkscape="http://www.inkscape.org/namespaces/inkscape"
   width="1000"
   height="1000"
   viewBox="0 0 264.58333 264.58334"
   version="1.1"
   id="svg8"
   inkscape:version="0.92.3 (2405546, 2018-03-11)"
   sodipodi:docname="bos-pine.svg">
  <defs
     id="defs2" />
  <sodipodi:namedview
     id="base"
     pagecolor="#ffffff"
     bordercolor="#666666"
     borderopacity="1.0"
     inkscape:pageopacity="0.0"
     inkscape:pageshadow="2"
     inkscape:zoom="0.49497475"
     inkscape:cx="1054.8041"
     inkscape:cy="418.57655"
     inkscape:document-units="mm"
     inkscape:current-layer="layer1"
     showgrid="false"
     units="px"
     inkscape:snap-global="false"
     inkscape:window-width="1920"
     inkscape:window-height="1029"
     inkscape:window-x="1920"
     inkscape:window-y="0"
     inkscape:window-maximized="1" />
  <metadata
     id="metadata5">
    <rdf:RDF>
      <cc:Work
         rdf:about="">
        <dc:format>image/svg+xml</dc:format>
        <dc:type
           rdf:resource="http://purl.org/dc/dcmitype/StillImage" />
        <dc:title />
      </cc:Work>
    </rdf:RDF>
  </metadata>
  <g
     inkscape:label="Layer 1"
     inkscape:groupmode="layer"
     id="layer1"
     transform="translate(0,-32.41665)">
    <rect
       style="opacity:1;fill:#ffffff;fill-opacity:1;stroke:none;stroke-width:5.29166651;stroke-linecap:square;stroke-linejoin:miter;stroke-miterlimit:4;stroke-dasharray:none;stroke-opacity:1;paint-order:normal"
       id="rect1019"
       width="284.90933"
       height="303.08362"
       x="-14.432552"
       y="21.177834" />
    <g
       id="g959"
       transform="matrix(0.8083785,0,0,0.8083785,-335.59004,42.404026)">
      <path
         sodipodi:nodetypes="ccccsssscccccccccccsc"
         id="path918"
         d="m 561.13939,23.232714 c -1.94742,0.01294 -3.35857,0.204618 -4.0163,0.618051 -4.67722,2.939965 -8.55244,33.408296 -8.55244,33.408296 0,0 -2.27185,0.04364 -3.50417,1.525488 -1.79348,2.156602 -10.60829,84.001231 -27.99519,100.065211 -17.38691,16.06399 -31.93878,9.63832 -49.32569,12.47314 -17.38688,2.83482 -49.89269,25.3244 -48.75877,46.30208 1.13393,20.97768 57.64123,13.79613 81.83168,9.26042 24.19049,-4.53572 54.61736,-10.58334 54.61736,-10.58334 0,0 7.74843,-6.61443 5.85854,-30.23794 l 27.02575,-7.55975 c 0,0 2.83475,14.17425 -0.75604,34.58497 l 32.31689,-8.69353 -13.58005,-156.624542 c 0,0 4.1425,-10.82447 1.20253,-14.699878 -2.52651,-3.330428 -34.4633,-9.91777 -46.3641,-9.838676 z M 441.65832,190.72368 c 5.25903,2.18902 19.70887,12.44079 19.70887,12.44079 l -8.28838,22.05932 c -10.77233,0.94494 -25.66772,0.86986 -27.76117,-10.2445 -1.32731,-7.0468 7.74079,-19.62926 16.34068,-24.25561 z"
         style="fill:#0c2340;fill-opacity:1;stroke:none;stroke-width:0.26458332px;stroke-linecap:butt;stroke-linejoin:miter;stroke-opacity:1"
         inkscape:connector-curvature="0" />
      <path
         sodipodi:nodetypes="sccccsscscsscccscscccccccc"
         inkscape:connector-curvature="0"
         style="fill:#bd3039;fill-opacity:1;stroke:#ffffff;stroke-width:5.29166651;stroke-linecap:butt;stroke-linejoin:miter;stroke-miterlimit:4;stroke-dasharray:none;stroke-opacity:1"
         d="m 612.96155,41.387162 c -7.44011,0.05005 -44.95191,14.623248 -46.75322,17.865575 -1.8899,3.401784 9.07129,30.994492 9.07129,30.994492 0,0 -2.51629,1.539095 -2.56731,4.002339 -0.27508,13.292312 40.55391,80.097362 23.73397,101.830992 -5.85864,7.18155 -28.15896,18.89859 -37.98633,26.83609 -9.82737,7.9375 -48.00296,38.74271 -39.6875,53.1058 8.31548,14.3631 47.05765,10.01644 61.04279,3.40186 13.98511,-6.61459 38.55365,-24.56844 52.34979,-30.42708 13.79612,-5.85863 50.45972,-7.55961 57.45229,-29.8602 5.85862,-18.70983 -17.76479,-34.9628 -27.0252,-56.88541 -3.98812,-9.44124 -12.09511,-44.41249 -14.36296,-51.97202 -2.26785,-7.55952 -12.77498,-33.93663 -15.20113,-36.048965 -2.43981,-2.124207 -5.20952,-1.37046 -5.20952,-1.37046 0,0 -9.44946,-29.860339 -13.98518,-31.372244 -0.21262,-0.07087 -0.50589,-0.103231 -0.87178,-0.100769 z m 58.70236,147.417358 c 0,0 12.56747,13.98512 10.29962,26.45833 -2.26785,12.47322 -25.60775,18.048 -25.60775,18.048 0,0 -0.28368,-22.11124 -7.55973,-32.60008 z m -132.71489,59.0181 21.38164,3.20704 c 1.40314,13.96483 -3.14039,27.06088 -3.14039,27.06088 -7.6876,1.26756 -28.65713,2.49502 -31.67145,-7.2161 -1.88036,-6.6873 13.4302,-23.05182 13.4302,-23.05182 z"
         id="path954" />
      <path
         id="path912"
         d="m 612.96155,41.387162 c -7.44011,0.05005 -44.95191,14.623248 -46.75322,17.865575 -1.8899,3.401784 9.07129,30.994492 9.07129,30.994492 0,0 -2.51629,1.539095 -2.56731,4.002339 -0.27508,13.292312 40.55391,80.097362 23.73397,101.830992 -5.85864,7.18155 -28.15896,18.89859 -37.98633,26.83609 -9.82737,7.9375 -48.00296,38.74271 -39.6875,53.1058 8.31548,14.3631 47.05765,10.01644 61.04279,3.40186 13.98511,-6.61459 38.55365,-24.56844 52.34979,-30.42708 13.79612,-5.85863 50.45972,-7.55961 57.45229,-29.8602 5.85862,-18.70983 -17.76479,-34.9628 -27.0252,-56.88541 -3.98812,-9.44124 -12.09511,-44.41249 -14.36296,-51.97202 -2.26785,-7.55952 -12.77498,-33.93663 -15.20113,-36.048965 -2.43981,-2.124207 -5.20952,-1.37046 -5.20952,-1.37046 0,0 -9.44946,-29.860339 -13.98518,-31.372244 -0.21262,-0.07087 -0.50589,-0.103231 -0.87178,-0.100769 z m 58.70236,147.417358 c 0,0 12.56747,13.98512 10.29962,26.45833 -2.26785,12.47322 -25.60775,18.048 -25.60775,18.048 0,0 -0.28368,-22.11124 -7.55973,-32.60008 z m -132.71489,59.0181 21.38164,3.20704 c 1.40314,13.96483 -3.14039,27.06088 -3.14039,27.06088 -7.6876,1.26756 -28.65713,2.49502 -31.67145,-7.2161 -1.88036,-6.6873 13.4302,-23.05182 13.4302,-23.05182 z"
         style="fill:#bd3039;fill-opacity:1;stroke:none;stroke-width:0.26458332px;stroke-linecap:butt;stroke-linejoin:miter;stroke-opacity:1"
         inkscape:connector-curvature="0"
         sodipodi:nodetypes="sccccsscscsscccscscccccccc" />
    </g>
    <path
       inkscape:connector-curvature="0"
       id="path1003"
       d="m 204.07539,96.736181 -2.99041,2.92351 c -3.54582,3.466779 -4.43425,4.203539 -8.11702,6.733089 -3.47977,2.39008 -3.60539,2.50363 -3.01998,2.72827 0.27013,0.10366 1.09928,-0.0658 2.13847,-0.43688 1.33045,-0.47518 1.69704,-0.53499 1.69704,-0.27716 0,0.49822 0.51445,0.40046 2.01513,-0.38273 l 1.36347,-0.71131 -2.79608,2.8334 c -3.30111,3.34559 -5.71755,5.4141 -9.62019,8.23399 -1.57478,1.13787 -2.82519,2.18585 -2.77833,2.3287 0.19946,0.60825 1.79368,0.39614 4.14314,-0.55112 2.20029,-0.8871 2.38707,-0.9258 2.66139,-0.55065 0.256,0.35012 0.41466,0.36797 1.19779,0.13334 0.49638,-0.14872 1.53139,-0.64692 2.30004,-1.10679 l 1.39714,-0.836 -2.21357,2.24679 c -4.3166,4.38078 -8.86725,7.86359 -13.39791,10.25413 -3.21804,1.69794 -4.31064,2.43598 -4.31064,2.91168 0,0.94366 1.46292,0.86911 5.91257,-0.30127 2.69668,-0.70931 2.7752,-0.71673 3.09097,-0.28489 0.62646,0.85673 2.64526,0.40071 5.08157,-1.14774 1.9068,-1.21191 1.83434,-1.17994 1.57097,-0.69129 -0.4652,0.86311 -4.80654,5.26701 -7.00387,7.10445 -3.66292,3.06296 -8.06812,5.84011 -13.31234,8.39281 -2.62716,1.27881 -5.24202,2.55481 -5.81109,2.83568 -1.19796,0.59125 -1.35707,0.8815 -0.79232,1.44627 0.34393,0.34389 0.68162,0.38569 2.1658,0.2685 1.79956,-0.14208 6.60932,-1.35973 8.81513,-2.23176 1.52576,-0.60286 1.61288,-0.60244 1.80581,0.005 0.13708,0.43192 0.27387,0.47336 1.12225,0.34041 1.42766,-0.22372 3.66693,-1.34094 6.60021,-3.29305 1.43264,-0.95343 2.66711,-1.73344 2.74329,-1.73344 0.0762,0 -0.46392,0.81262 -1.20053,1.8058 -6.71528,9.05447 -10.47891,12.73671 -20.28346,19.84748 -0.92911,0.67384 -1.6893,1.30892 -1.6893,1.41124 0,0.90487 4.24982,0.39931 8.85428,-1.05354 3.27892,-1.03461 9.19532,-4.19858 11.76504,-6.29164 0.94058,-0.76613 1.48076,-1.03989 2.05018,-1.03989 1.08008,0 2.53966,-1.00112 4.53409,-3.10919 0.92911,-0.98205 1.6893,-1.65164 1.6893,-1.48815 0,0.51211 -1.6688,3.15145 -3.69808,5.84884 -1.07286,1.42607 -3.62419,4.29212 -5.66953,6.36901 -2.55389,2.59327 -3.69181,3.90712 -3.63256,4.19413 0.28902,1.39907 5.44051,-1.29153 10.82027,-5.65133 1.33662,-1.08322 2.61026,-1.97058 2.82978,-1.97147 1.38285,-0.008 4.29187,-2.69631 6.89144,-6.369 l 0.96344,-1.36118 0.0746,0.87286 c 0.1152,1.35075 -0.6079,9.20906 -1.14227,12.41355 -0.73179,4.38818 -1.73866,7.04833 -3.96113,10.46529 l -0.49241,0.75682 h 9.57331 9.57331 l -0.84964,-1.32796 c -2.16038,-3.37718 -3.2706,-6.73311 -3.91561,-11.83693 -0.36874,-2.91774 -1.0865,-11.3462 -0.97573,-11.45695 0.0351,-0.035 0.63474,0.73939 1.33251,1.72115 0.69778,0.98178 2.10717,2.63434 3.1324,3.67215 1.4943,1.51264 2.11827,1.97402 3.1456,2.32642 0.87252,0.2993 2.0252,1.04791 3.61161,2.34555 2.57755,2.10835 5.42147,3.96109 7.90858,5.153 1.68625,0.80812 2.3311,0.94687 2.57401,0.55385 0.27113,-0.43873 -0.43896,-1.31373 -4.06716,-5.0142 -2.01041,-2.05046 -4.2888,-4.56917 -5.06336,-5.59718 -1.93769,-2.57176 -3.79865,-5.45758 -3.79865,-5.89071 0,-0.19799 0.83675,0.4942 1.85951,1.53776 1.941,1.98052 3.26505,2.84316 4.36433,2.84387 0.43087,2.7e-4 1.27456,0.46835 2.50209,1.38803 2.62515,1.96679 7.74672,4.72783 10.57953,5.70367 4.48352,1.54447 9.13875,2.19363 9.29479,1.2961 0.0376,-0.21605 -1.11857,-1.19379 -3.02727,-2.56035 -6.33579,-4.53623 -9.90385,-7.75435 -13.84526,-12.48727 -2.23069,-2.67867 -6.14319,-7.85681 -6.02543,-7.97458 0.0432,-0.0432 1.11112,0.62701 2.37285,1.48952 3.79264,2.59258 8.00236,4.32057 8.00236,3.28485 0,-0.20104 0.0852,-0.41811 0.18931,-0.4824 0.10404,-0.0643 1.6166,0.34348 3.36132,0.90609 4.8906,1.57706 8.2227,2.1027 9.12914,1.43991 0.87273,-0.63816 0.32947,-1.0892 -3.37177,-2.79745 -6.72468,-3.10364 -11.37226,-5.87429 -15.72572,-9.3758 -2.09986,-1.68891 -7.79572,-7.39608 -7.79572,-7.8112 0,-0.11421 0.59063,0.16973 1.31202,0.63122 1.52351,0.97456 2.91604,1.60272 3.9939,1.80125 0.58539,0.10782 0.87454,0.0279 1.2465,-0.34406 l 0.48421,-0.48421 2.83113,0.70767 c 3.8369,0.95901 5.03807,1.09782 5.62722,0.65032 0.46172,-0.35072 0.46065,-0.35916 -0.11651,-0.92474 -0.32039,-0.31396 -1.89319,-1.27775 -3.49511,-2.14212 -3.40488,-1.83723 -5.72866,-3.35478 -8.15524,-5.32503 -2.28832,-1.85799 -7.45624,-6.65049 -7.45624,-6.91467 0,-0.11352 0.51917,0.0996 1.15367,0.47375 0.63448,0.37411 1.58018,0.80813 2.10161,0.96434 0.81561,0.24437 0.98849,0.2317 1.23512,-0.0887 0.2578,-0.33495 0.53042,-0.27861 2.70871,0.55657 2.41197,0.92481 4.10174,1.13315 4.10174,0.50606 0,-0.15502 -1.25824,-1.19311 -2.79609,-2.30731 -4.58243,-3.32004 -8.3056,-6.55795 -10.87807,-9.45955 l -1.42626,-1.60874 1.4422,0.77092 c 1.31253,0.70124 1.46862,0.73572 1.73346,0.38637 0.26746,-0.35284 0.39427,-0.33919 1.56459,0.16566 1.40461,0.60593 2.55611,0.7308 2.55171,0.2767 -0.002,-0.16019 -1.58641,-1.39222 -3.52198,-2.73784 -3.23313,-2.2477 -7.53361,-5.97419 -9.79494,-8.487459 z"
       style="fill:#006747;fill-opacity:1;stroke-width:5.29166667;stroke:#ffffff;stroke-opacity:1;stroke-miterlimit:4;stroke-dasharray:none" />
    <path
       style="fill:#006747;fill-opacity:1;stroke-width:0.23300713"
       d="m 204.07539,96.736181 -2.99041,2.92351 c -3.54582,3.466779 -4.43425,4.203539 -8.11702,6.733089 -3.47977,2.39008 -3.60539,2.50363 -3.01998,2.72827 0.27013,0.10366 1.09928,-0.0658 2.13847,-0.43688 1.33045,-0.47518 1.69704,-0.53499 1.69704,-0.27716 0,0.49822 0.51445,0.40046 2.01513,-0.38273 l 1.36347,-0.71131 -2.79608,2.8334 c -3.30111,3.34559 -5.71755,5.4141 -9.62019,8.23399 -1.57478,1.13787 -2.82519,2.18585 -2.77833,2.3287 0.19946,0.60825 1.79368,0.39614 4.14314,-0.55112 2.20029,-0.8871 2.38707,-0.9258 2.66139,-0.55065 0.256,0.35012 0.41466,0.36797 1.19779,0.13334 0.49638,-0.14872 1.53139,-0.64692 2.30004,-1.10679 l 1.39714,-0.836 -2.21357,2.24679 c -4.3166,4.38078 -8.86725,7.86359 -13.39791,10.25413 -3.21804,1.69794 -4.31064,2.43598 -4.31064,2.91168 0,0.94366 1.46292,0.86911 5.91257,-0.30127 2.69668,-0.70931 2.7752,-0.71673 3.09097,-0.28489 0.62646,0.85673 2.64526,0.40071 5.08157,-1.14774 1.9068,-1.21191 1.83434,-1.17994 1.57097,-0.69129 -0.4652,0.86311 -4.80654,5.26701 -7.00387,7.10445 -3.66292,3.06296 -8.06812,5.84011 -13.31234,8.39281 -2.62716,1.27881 -5.24202,2.55481 -5.81109,2.83568 -1.19796,0.59125 -1.35707,0.8815 -0.79232,1.44627 0.34393,0.34389 0.68162,0.38569 2.1658,0.2685 1.79956,-0.14208 6.60932,-1.35973 8.81513,-2.23176 1.52576,-0.60286 1.61288,-0.60244 1.80581,0.005 0.13708,0.43192 0.27387,0.47336 1.12225,0.34041 1.42766,-0.22372 3.66693,-1.34094 6.60021,-3.29305 1.43264,-0.95343 2.66711,-1.73344 2.74329,-1.73344 0.0762,0 -0.46392,0.81262 -1.20053,1.8058 -6.71528,9.05447 -10.47891,12.73671 -20.28346,19.84748 -0.92911,0.67384 -1.6893,1.30892 -1.6893,1.41124 0,0.90487 4.24982,0.39931 8.85428,-1.05354 3.27892,-1.03461 9.19532,-4.19858 11.76504,-6.29164 0.94058,-0.76613 1.48076,-1.03989 2.05018,-1.03989 1.08008,0 2.53966,-1.00112 4.53409,-3.10919 0.92911,-0.98205 1.6893,-1.65164 1.6893,-1.48815 0,0.51211 -1.6688,3.15145 -3.69808,5.84884 -1.07286,1.42607 -3.62419,4.29212 -5.66953,6.36901 -2.55389,2.59327 -3.69181,3.90712 -3.63256,4.19413 0.28902,1.39907 5.44051,-1.29153 10.82027,-5.65133 1.33662,-1.08322 2.61026,-1.97058 2.82978,-1.97147 1.38285,-0.008 4.29187,-2.69631 6.89144,-6.369 l 0.96344,-1.36118 0.0746,0.87286 c 0.1152,1.35075 -0.6079,9.20906 -1.14227,12.41355 -0.73179,4.38818 -1.73866,7.04833 -3.96113,10.46529 l -0.49241,0.75682 h 9.57331 9.57331 l -0.84964,-1.32796 c -2.16038,-3.37718 -3.2706,-6.73311 -3.91561,-11.83693 -0.36874,-2.91774 -1.0865,-11.3462 -0.97573,-11.45695 0.0351,-0.035 0.63474,0.73939 1.33251,1.72115 0.69778,0.98178 2.10717,2.63434 3.1324,3.67215 1.4943,1.51264 2.11827,1.97402 3.1456,2.32642 0.87252,0.2993 2.0252,1.04791 3.61161,2.34555 2.57755,2.10835 5.42147,3.96109 7.90858,5.153 1.68625,0.80812 2.3311,0.94687 2.57401,0.55385 0.27113,-0.43873 -0.43896,-1.31373 -4.06716,-5.0142 -2.01041,-2.05046 -4.2888,-4.56917 -5.06336,-5.59718 -1.93769,-2.57176 -3.79865,-5.45758 -3.79865,-5.89071 0,-0.19799 0.83675,0.4942 1.85951,1.53776 1.941,1.98052 3.26505,2.84316 4.36433,2.84387 0.43087,2.7e-4 1.27456,0.46835 2.50209,1.38803 2.62515,1.96679 7.74672,4.72783 10.57953,5.70367 4.48352,1.54447 9.13875,2.19363 9.29479,1.2961 0.0376,-0.21605 -1.11857,-1.19379 -3.02727,-2.56035 -6.33579,-4.53623 -9.90385,-7.75435 -13.84526,-12.48727 -2.23069,-2.67867 -6.14319,-7.85681 -6.02543,-7.97458 0.0432,-0.0432 1.11112,0.62701 2.37285,1.48952 3.79264,2.59258 8.00236,4.32057 8.00236,3.28485 0,-0.20104 0.0852,-0.41811 0.18931,-0.4824 0.10404,-0.0643 1.6166,0.34348 3.36132,0.90609 4.8906,1.57706 8.2227,2.1027 9.12914,1.43991 0.87273,-0.63816 0.32947,-1.0892 -3.37177,-2.79745 -6.72468,-3.10364 -11.37226,-5.87429 -15.72572,-9.3758 -2.09986,-1.68891 -7.79572,-7.39608 -7.79572,-7.8112 0,-0.11421 0.59063,0.16973 1.31202,0.63122 1.52351,0.97456 2.91604,1.60272 3.9939,1.80125 0.58539,0.10782 0.87454,0.0279 1.2465,-0.34406 l 0.48421,-0.48421 2.83113,0.70767 c 3.8369,0.95901 5.03807,1.09782 5.62722,0.65032 0.46172,-0.35072 0.46065,-0.35916 -0.11651,-0.92474 -0.32039,-0.31396 -1.89319,-1.27775 -3.49511,-2.14212 -3.40488,-1.83723 -5.72866,-3.35478 -8.15524,-5.32503 -2.28832,-1.85799 -7.45624,-6.65049 -7.45624,-6.91467 0,-0.11352 0.51917,0.0996 1.15367,0.47375 0.63448,0.37411 1.58018,0.80813 2.10161,0.96434 0.81561,0.24437 0.98849,0.2317 1.23512,-0.0887 0.2578,-0.33495 0.53042,-0.27861 2.70871,0.55657 2.41197,0.92481 4.10174,1.13315 4.10174,0.50606 0,-0.15502 -1.25824,-1.19311 -2.79609,-2.30731 -4.58243,-3.32004 -8.3056,-6.55795 -10.87807,-9.45955 l -1.42626,-1.60874 1.4422,0.77092 c 1.31253,0.70124 1.46862,0.73572 1.73346,0.38637 0.26746,-0.35284 0.39427,-0.33919 1.56459,0.16566 1.40461,0.60593 2.55611,0.7308 2.55171,0.2767 -0.002,-0.16019 -1.58641,-1.39222 -3.52198,-2.73784 -3.23313,-2.2477 -7.53361,-5.97419 -9.79494,-8.487459 z"
       id="path976"
       inkscape:connector-curvature="0" />
  </g>
</svg>
