<?xml version="1.0" encoding="UTF-8" standalone="no"?>
<!-- Created with Inkscape (http://www.inkscape.org/) -->

<svg
   xmlns:dc="http://purl.org/dc/elements/1.1/"
   xmlns:cc="http://creativecommons.org/ns#"
   xmlns:rdf="http://www.w3.org/1999/02/22-rdf-syntax-ns#"
   xmlns:svg="http://www.w3.org/2000/svg"
   xmlns="http://www.w3.org/2000/svg"
   xmlns:sodipodi="http://sodipodi.sourceforge.net/DTD/sodipodi-0.dtd"
   xmlns:inkscape="http://www.inkscape.org/namespaces/inkscape"
   width="1000"
   height="1000"
   viewBox="0 0 264.58333 264.58334"
   version="1.1"
   id="svg8"
   inkscape:version="0.92.3 (2405546, 2018-03-11)"
   sodipodi:docname="cin-c.svg">
  <defs
     id="defs2" />
  <sodipodi:namedview
     id="base"
     pagecolor="#ffffff"
     bordercolor="#666666"
     borderopacity="1.0"
     inkscape:pageopacity="0.0"
     inkscape:pageshadow="2"
     inkscape:zoom="0.49497474"
     inkscape:cx="884.08689"
     inkscape:cy="371.06704"
     inkscape:document-units="mm"
     inkscape:current-layer="layer2"
     showgrid="false"
     units="px"
     inkscape:snap-global="false"
     inkscape:window-width="1920"
     inkscape:window-height="1029"
     inkscape:window-x="1920"
     inkscape:window-y="0"
     inkscape:window-maximized="1" />
  <metadata
     id="metadata5">
    <rdf:RDF>
      <cc:Work
         rdf:about="">
        <dc:format>image/svg+xml</dc:format>
        <dc:type
           rdf:resource="http://purl.org/dc/dcmitype/StillImage" />
        <dc:title />
      </cc:Work>
    </rdf:RDF>
  </metadata>
  <g
     inkscape:label="Layer 1"
     inkscape:groupmode="layer"
     id="layer1"
     transform="translate(0,-32.41665)" />
  <g
     inkscape:groupmode="layer"
     id="layer2"
     inkscape:label="Layer 2">
    <rect
       style="opacity:1;fill:#ffffff;fill-opacity:1;stroke:none;stroke-width:3.96875;stroke-linecap:square;stroke-linejoin:round;stroke-miterlimit:4;stroke-dasharray:none;stroke-opacity:1;paint-order:normal"
       id="rect1027"
       width="298.27277"
       height="295.06555"
       x="-22.985172"
       y="-11.773354" />
    <g
       id="g1012"
       transform="matrix(1.0308781,0,0,1.0308781,4.1725554,-1.4990616)">
      <path
         id="path897"
         d="m 56.977813,86.91616 c -2.130902,-0.03552 -4.261954,3.942129 -4.261954,3.942129 4.798511,4.040848 6.566791,11.870341 6.566791,11.870341 0,0 2.272585,-9.344428 -0.25294,-14.142936 -0.631388,-1.199629 -1.34158,-1.657693 -2.051897,-1.669534 z m 47.992127,4.292738 c -19.394553,0.100038 -24.066855,8.75198 -24.066855,8.75198 0,0 29.823245,-7.143202 26.965955,8.214852 0,0 4.10739,-1.96433 8.75052,-1.78575 0,0 9.46476,-15.001044 -10.71499,-15.17962 -0.31532,-0.0028 -0.62679,-0.0031 -0.93463,-0.0015 z m -54.296202,9.907812 c -8.535507,0.051 -17.330605,9.98057 -20.934344,25.27446 0,0 13.572181,1.42885 15.536573,2.14319 0,0 14.46526,-27.1444 5.804045,-27.41227 -0.135333,-0.004 -0.270791,-0.006 -0.406274,-0.005 z m -0.333995,1.89904 c 3.19384,0.0376 1.34643,6.25703 -1.135817,12.31958 a 8.0185623,7.4818867 0 0 0 -5.138006,-1.74717 8.0185623,7.4818867 0 0 0 -8.018551,7.48189 8.0185623,7.4818867 0 0 0 1.483488,4.3152 c -1.804157,-0.22118 -3.61084,-0.425 -5.415847,-0.63383 2.679459,-9.05387 8.770321,-21.84683 18.224733,-21.73567 z m -12.271254,0.37258 a 77.307322,88.569102 62.847367 0 0 -18.25646,48.76608 c -2.565803,1.06018 -5.883225,1.4084 -9.146044,-0.68314 -4.9247928,-3.15692 -5.0510753,-9.72323 -5.0510753,-9.72323 -2.5255251,2.52553 -5.80889527,15.15316 8.0815303,19.82539 2.300712,0.77388 4.510443,1.18964 6.597567,1.34676 a 77.307322,88.569102 62.847367 0 0 8.32812,25.48882 77.307322,88.569102 62.847367 0 0 115.706603,24.0654 77.307322,88.569102 62.847367 0 0 46.2337,-60.27556 77.092597,87.717109 60.581205 0 1 -44.9226,56.70503 A 77.092597,87.717109 60.581205 0 1 31.36644,184.838 77.092597,87.717109 60.581205 0 1 23.604254,162.96121 c 1.378557,-0.0697 2.68626,-0.243 3.910382,-0.48636 1.631797,8.30905 7.723935,27.90595 28.989523,28.89967 22.96419,1.07309 31.881645,-6.6069 35.283348,-12.81326 5.047675,1.36806 9.648443,2.17018 13.206833,2.07971 14.90066,-0.37883 22.22497,-14.14293 22.22497,-14.14293 -14.52181,8.83937 -30.053784,1.51558 -40.913579,-9.59676 -9.872512,-10.10211 -17.6587,-13.21135 -28.005565,-13.59846 -1.399033,-2.31461 -3.682669,-5.07687 -6.773827,-5.48226 0,0 2.420193,2.31915 3.812726,5.44221 -0.07495,5e-4 -0.148409,-2.5e-4 -0.223663,5e-4 -11.996288,0.12628 -14.648321,6.56631 -14.648321,6.56631 0,0 -8.712918,-5.68219 -4.924617,-10.85953 3.7883,-5.17733 10.354465,-0.25289 15.279233,-9.97618 4.924792,-9.7233 4.925092,-13.00614 4.925092,-13.00614 0,0 -6.566415,13.13273 -9.470762,15.4057 -2.904373,2.27298 -10.228283,1.64152 -13.132631,5.93492 -0.849475,1.25575 -1.144393,2.82471 -0.974183,4.42263 -5.727665,0.0675 -6.741426,6.44779 -9.127967,8.45753 -0.124408,0.10475 -0.260216,0.21096 -0.398474,0.31692 a 77.092597,87.717109 60.581205 0 1 15.425717,-47.13708 z m 49.201674,0.71831 c -14.068236,0.26856 -20.787385,15.54292 -24.22509,28.35617 0,0 25.001336,4.64334 31.073147,7.1435 0,0 18.21558,-29.64483 -0.356971,-34.64513 -2.321563,-0.62504 -4.481341,-0.89291 -6.491086,-0.85454 z m 0.176261,1.91368 c 4.098518,0.0362 8.909879,0.82201 11.312197,4.4407 1.907559,4.30619 1.646149,8.79012 0.419951,13.17803 a 11.971818,10.185997 0 0 0 -10.596331,-5.46957 11.971818,10.185997 0 0 0 -11.971911,10.18616 11.971818,10.185997 0 0 0 1.807257,5.34553 c -0.574509,-0.14504 -1.147943,-0.29437 -1.718852,-0.45266 -3.418053,-0.94758 -8.704743,-1.64766 -11.239443,-2.28871 3.090558,-10.22404 8.931181,-23.98564 21.177533,-24.93752 0.265891,-0.004 0.536382,-0.004 0.809599,-0.002 z m -43.254021,8.95122 a 6.7130117,6.2637153 0 0 1 4.483666,1.61924 c -1.872286,4.4137 -3.919183,8.51066 -4.402611,9.76816 -1.612246,-0.28272 -3.231443,-0.52068 -4.853814,-0.7354 a 6.7130117,6.2637153 0 0 1 -1.94054,-4.38844 6.7130117,6.2637153 0 0 1 6.713299,-6.26356 z m -1.314528,3.00995 a 2.4774651,2.4774653 0 0 0 -2.477698,2.47768 2.4774651,2.4774653 0 0 0 2.477698,2.4772 2.4774651,2.4774653 0 0 0 2.477197,-2.4772 2.4774651,2.4774653 0 0 0 -2.477197,-2.47768 z m 45.615011,1.42537 a 10.645546,9.0575646 0 0 1 10.079199,6.18104 c -1.400408,4.09883 -3.498308,8.07665 -5.298165,11.70382 -4.280504,-1.33693 -8.703767,-2.1382 -13.068152,-3.15937 a 10.645546,9.0575646 0 0 1 -2.35854,-5.66831 10.645546,9.0575646 0 0 1 10.645658,-9.05718 z m -0.873102,4.53592 a 4.1251032,4.1251032 0 0 0 -4.125245,4.12524 4.1251032,4.1251032 0 0 0 4.125245,4.12525 4.1251032,4.1251032 0 0 0 4.125245,-4.12525 4.1251032,4.1251032 0 0 0 -4.125245,-4.12524 z M 38.194471,157.9111 c 3.139762,1.54327 5.491702,1.82862 7.165476,1.64463 -0.023,2.79548 -0.0083,7.66358 0.25539,12.48121 -3.570612,-0.78342 -6.656895,-1.53684 -9.186596,-2.18616 -0.216438,-2.68851 -0.387323,-6.11721 -0.462427,-10.50844 1.43256,-0.80831 2.228157,-1.43124 2.228157,-1.43124 z m 10.480623,0.25295 c 1.692451,1.56424 4.417263,3.43792 7.791463,5.42415 0.003,2.89674 0.0593,6.7942 0.277842,10.63784 -3.261144,-0.56588 -6.367979,-1.17284 -9.237349,-1.78087 -0.289417,-3.12948 -0.516356,-7.39208 -0.58061,-13.24004 1.199472,-0.42697 1.748654,-1.04108 1.748654,-1.04108 z m -14.308475,2.01135 c 0.0025,2.52771 0.0456,5.83046 0.202637,9.19293 -1.064564,-0.28208 -1.949816,-0.52328 -2.68521,-0.72856 -0.982258,-2.58948 -1.625971,-4.95138 -2.031846,-6.73819 1.747754,-0.50635 3.26762,-1.12547 4.514419,-1.72618 z m 23.733335,4.35426 c 2.848645,1.60862 6.076036,3.2684 9.511316,4.88701 0.03663,2.01918 0.108306,4.23491 0.229988,6.44765 -3.139286,-0.37566 -6.22672,-0.825 -9.204147,-1.31648 -0.237214,-2.51047 -0.433601,-5.77601 -0.537157,-10.01818 z m 11.240418,5.68979 c 2.623406,1.20116 5.339668,2.36623 8.079581,3.45871 0.0342,1.01125 0.07643,2.03625 0.130382,3.06756 -2.615305,-0.15703 -5.235336,-0.38523 -7.832015,-0.66898 -0.147309,-1.63204 -0.277892,-3.56159 -0.377948,-5.85729 z m 9.886338,4.16773 c 2.43292,0.93737 4.865989,1.80737 7.249931,2.58414 -0.128208,0.005 -0.24974,0.007 -0.377447,0.0117 -0.0038,1.3e-4 -0.0075,-1.4e-4 -0.01125,0 -2.200431,0.02 -4.435289,-0.034 -6.680072,-0.13869 -0.06453,-0.75492 -0.124833,-1.57811 -0.181161,-2.45717 z m -29.288866,21.78597 c 0,0 5.303665,6.31365 12.627726,6.81876 7.324035,0.50511 15.40569,-4.79814 15.40569,-4.79814 -18.18383,5.30362 -28.033416,-2.02062 -28.033416,-2.02062 z"
         style="fill:#000000;fill-opacity:1;stroke:none;stroke-width:0.25001484px;stroke-linecap:butt;stroke-linejoin:miter;stroke-opacity:1"
         inkscape:connector-curvature="0" />
      <path
         style="opacity:1;fill:#c6011f;fill-opacity:1;stroke:#ffffff;stroke-width:4.00023794;stroke-linecap:square;stroke-linejoin:round;stroke-miterlimit:4;stroke-dasharray:none;stroke-opacity:1;paint-order:normal"
         d="M 108.50627,33.236702 C 97.554649,33.223002 86.431688,34.397273 79.486475,36.307194 69.38435,39.08528 69.13186,48.42932 69.13186,52.722723 c 0,4.293405 1.76818,18.184185 1.76818,18.184185 0,0 -36.070844,15.303573 -34.642209,22.089693 1.42866,6.786107 36.609051,-2.5e-4 48.395477,-3.571989 9.508715,-2.881434 27.315942,-11.789804 34.996702,-16.632336 14.63085,0.605363 32.60366,4.392383 39.57265,5.973497 a 79.240035,90.723275 62.650112 0 1 14.89346,12.844513 63.753789,60.182145 0 0 0 -12.85231,4.612092 l 1.07281,-7.512166 -3.92893,1.964474 -0.87263,7.479932 a 63.753789,60.182145 0 0 0 -13.09305,9.758882 l -0.73199,-6.94279 -3.3293,2.86492 0.95515,7.26215 a 63.753789,60.182145 0 0 0 -8.54935,12.42945 l -1.98302,-5.2176 -2.21008,3.2165 2.38734,5.82505 a 63.753789,60.182145 0 0 0 -4.20778,15.07365 l -3.33417,-3.95775 -0.90925,3.34883 3.92846,4.42653 a 63.753789,60.182145 0 0 0 -0.19484,3.54318 63.753789,60.182145 0 0 0 1.15584,11.16424 l -3.99876,-2.20863 0.30567,3.02216 4.45486,2.31312 a 63.753789,60.182145 0 0 0 5.77377,14.27624 l -4.56082,-1.01959 0.96541,2.37758 5.09355,1.00201 a 63.753789,60.182145 0 0 0 14.44421,15.78512 63.753789,60.182145 0 0 1 -12.62915,-16.81838 l 2.29896,-3.95824 -1.22077,-3.13056 -2.05433,5.14435 a 63.753789,60.182145 0 0 1 -4.42116,-13.98033 l 3.64327,-3.46163 -0.34572,-3.96263 -3.70725,4.73074 a 63.753789,60.182145 0 0 1 -0.55471,-7.34711 63.753789,60.182145 0 0 1 0.46193,-6.84758 l 4.33376,-1.80088 1.25105,-4.36696 -5.08088,3.04607 a 63.753789,60.182145 0 0 1 4.15162,-13.56721 l 5.3436,-0.3047 2.95182,-4.17017 -6.70792,1.38143 a 63.753789,60.182145 0 0 1 8.04638,-11.7634 l 6.22547,1.2701 4.41091,-3.69016 -7.87839,-0.43411 a 63.753789,60.182145 0 0 1 12.07444,-9.47469 l 5.95395,2.86248 5.17903,-2.50015 -7.48532,-2.33168 a 63.753789,60.182145 0 0 1 13.49838,-5.232252 79.240035,90.723275 62.650112 0 1 4.94462,7.345662 79.240035,90.723275 62.650112 0 1 7.52487,50.53523 77.092597,87.717109 60.581205 0 0 -5.92662,-55.004252 77.092597,87.717109 60.581205 0 0 -22.37926,-23.64496 c 4.48544,-7.638026 9.97087,-17.125448 6.08091,-24.571773 -4.77191,-9.134663 -29.43127,-14.554177 -44.95482,-16.416013 -4.49884,-0.539577 -9.44129,-0.791195 -14.41931,-0.79741 z m -6.51258,15.298759 c 6.24894,0.0022 12.17099,0.167113 17.65972,0.572789 8.80967,0.651127 34.33567,4.177374 46.54722,7.506794 -0.0846,1.257872 -0.33245,2.820655 -0.87848,4.702915 -12.38741,-3.242066 -36.70401,-6.596583 -45.7991,-7.404248 -9.08154,-0.806463 -38.775825,0.103246 -48.130806,0.415552 -0.09728,-1.765385 -0.123757,-3.45793 -0.04003,-4.945119 10.721787,-0.472105 21.071577,-0.85227 30.641476,-0.848683 z m -1.40926,9.54842 c 6.02891,0.0022 11.74215,0.154549 17.03761,0.530792 8.77422,0.623409 34.73339,4.08877 46.00713,7.261174 -0.55795,1.253429 -1.22832,2.599367 -2.03234,4.040768 -11.97816,-2.999959 -35.3475,-6.097905 -44.10077,-6.845132 -8.25062,-0.704325 -34.500176,0.01433 -45.169185,0.345235 -0.199412,-1.431345 -0.397749,-2.974739 -0.565934,-4.576934 10.079649,-0.423108 19.810953,-0.75915 28.823489,-0.755903 z"
         id="path1016"
         inkscape:connector-curvature="0" />
      <path
         id="path949"
         d="M 108.50627,33.236702 C 97.554649,33.223002 86.431688,34.397273 79.486475,36.307194 69.38435,39.08528 69.13186,48.42932 69.13186,52.722723 c 0,4.293405 1.76818,18.184185 1.76818,18.184185 0,0 -36.070844,15.303573 -34.642209,22.089693 1.42866,6.786107 36.609051,-2.5e-4 48.395477,-3.571989 9.508715,-2.881434 27.315942,-11.789804 34.996702,-16.632336 14.63085,0.605363 32.60366,4.392383 39.57265,5.973497 a 79.240035,90.723275 62.650112 0 1 14.89346,12.844513 63.753789,60.182145 0 0 0 -12.85231,4.612092 l 1.07281,-7.512166 -3.92893,1.964474 -0.87263,7.479932 a 63.753789,60.182145 0 0 0 -13.09305,9.758882 l -0.73199,-6.94279 -3.3293,2.86492 0.95515,7.26215 a 63.753789,60.182145 0 0 0 -8.54935,12.42945 l -1.98302,-5.2176 -2.21008,3.2165 2.38734,5.82505 a 63.753789,60.182145 0 0 0 -4.20778,15.07365 l -3.33417,-3.95775 -0.90925,3.34883 3.92846,4.42653 a 63.753789,60.182145 0 0 0 -0.19484,3.54318 63.753789,60.182145 0 0 0 1.15584,11.16424 l -3.99876,-2.20863 0.30567,3.02216 4.45486,2.31312 a 63.753789,60.182145 0 0 0 5.77377,14.27624 l -4.56082,-1.01959 0.96541,2.37758 5.09355,1.00201 a 63.753789,60.182145 0 0 0 14.44421,15.78512 63.753789,60.182145 0 0 1 -12.62915,-16.81838 l 2.29896,-3.95824 -1.22077,-3.13056 -2.05433,5.14435 a 63.753789,60.182145 0 0 1 -4.42116,-13.98033 l 3.64327,-3.46163 -0.34572,-3.96263 -3.70725,4.73074 a 63.753789,60.182145 0 0 1 -0.55471,-7.34711 63.753789,60.182145 0 0 1 0.46193,-6.84758 l 4.33376,-1.80088 1.25105,-4.36696 -5.08088,3.04607 a 63.753789,60.182145 0 0 1 4.15162,-13.56721 l 5.3436,-0.3047 2.95182,-4.17017 -6.70792,1.38143 a 63.753789,60.182145 0 0 1 8.04638,-11.7634 l 6.22547,1.2701 4.41091,-3.69016 -7.87839,-0.43411 a 63.753789,60.182145 0 0 1 12.07444,-9.47469 l 5.95395,2.86248 5.17903,-2.50015 -7.48532,-2.33168 a 63.753789,60.182145 0 0 1 13.49838,-5.232252 79.240035,90.723275 62.650112 0 1 4.94462,7.345662 79.240035,90.723275 62.650112 0 1 7.52487,50.53523 77.092597,87.717109 60.581205 0 0 -5.92662,-55.004252 77.092597,87.717109 60.581205 0 0 -22.37926,-23.64496 c 4.48544,-7.638026 9.97087,-17.125448 6.08091,-24.571773 -4.77191,-9.134663 -29.43127,-14.554177 -44.95482,-16.416013 -4.49884,-0.539577 -9.44129,-0.791195 -14.41931,-0.79741 z m -6.51258,15.298759 c 6.24894,0.0022 12.17099,0.167113 17.65972,0.572789 8.80967,0.651127 34.33567,4.177374 46.54722,7.506794 -0.0846,1.257872 -0.33245,2.820655 -0.87848,4.702915 -12.38741,-3.242066 -36.70401,-6.596583 -45.7991,-7.404248 -9.08154,-0.806463 -38.775825,0.103246 -48.130806,0.415552 -0.09728,-1.765385 -0.123757,-3.45793 -0.04003,-4.945119 10.721787,-0.472105 21.071577,-0.85227 30.641476,-0.848683 z m -1.40926,9.54842 c 6.02891,0.0022 11.74215,0.154549 17.03761,0.530792 8.77422,0.623409 34.73339,4.08877 46.00713,7.261174 -0.55795,1.253429 -1.22832,2.599367 -2.03234,4.040768 -11.97816,-2.999959 -35.3475,-6.097905 -44.10077,-6.845132 -8.25062,-0.704325 -34.500176,0.01433 -45.169185,0.345235 -0.199412,-1.431345 -0.397749,-2.974739 -0.565934,-4.576934 10.079649,-0.423108 19.810953,-0.75915 28.823489,-0.755903 z"
         style="opacity:1;fill:#c6011f;fill-opacity:1;stroke:none;stroke-width:0.48546907;stroke-linecap:square;stroke-linejoin:round;stroke-miterlimit:4;stroke-dasharray:none;stroke-opacity:1;paint-order:normal"
         inkscape:connector-curvature="0" />
      <path
         inkscape:connector-curvature="0"
         id="path1003"
         d="m 175.59608,138.96665 28.86511,-11.75986 10.69078,17.10525 -14.43256,35.81412 -25.3906,-9.35443 -5.34539,-21.91611 z"
         style="fill:#ffffff;fill-opacity:1;stroke:none;stroke-width:0.26458332px;stroke-linecap:butt;stroke-linejoin:miter;stroke-opacity:1" />
      <g
         id="g1001">
        <path
           sodipodi:nodetypes="ccsccsssccssc"
           inkscape:connector-curvature="0"
           id="path997"
           d="m 152.61089,154.0744 c 0,0 3.39206,-2.37445 6.33186,-5.54037 2.93979,-3.16593 17.18647,-24.64901 42.06161,-25.10128 24.87516,-0.45228 37.99115,15.15122 40.59173,20.80467 l -14.19013,0.0565 c 0,0 -5.81083,-10.03955 -24.59248,-10.0066 -18.05639,0.0316 -27.02348,11.83742 -27.02348,19.39131 0,9.21107 8.80494,20.91774 26.96694,20.91774 14.84566,0 24.30981,-9.0455 24.30981,-9.0455 l 14.07707,0.0566 c 0,0 -10.28927,19.73052 -38.16074,19.73052 -26.62772,0 -36.94333,-18.7376 -43.47499,-25.21436 -4.79758,-4.75727 -6.8972,-6.04918 -6.8972,-6.04918 z"
           style="fill:#790113;fill-opacity:1;stroke:#ffffff;stroke-width:5.29166651;stroke-linecap:butt;stroke-linejoin:miter;stroke-miterlimit:4;stroke-dasharray:none;stroke-opacity:1" />
        <path
           style="fill:#790113;fill-opacity:1;stroke:none;stroke-width:0.11193246px;stroke-linecap:butt;stroke-linejoin:miter;stroke-opacity:1"
           d="m 152.61089,154.0744 c 0,0 3.39206,-2.37445 6.33186,-5.54037 2.93979,-3.16593 17.18647,-24.64901 42.06161,-25.10128 24.87516,-0.45228 37.99115,15.15122 40.59173,20.80467 l -14.19013,0.0565 c 0,0 -5.81083,-10.03955 -24.59248,-10.0066 -18.05639,0.0316 -27.02348,11.83742 -27.02348,19.39131 0,9.21107 8.80494,20.91774 26.96694,20.91774 14.84566,0 24.30981,-9.0455 24.30981,-9.0455 l 14.07707,0.0566 c 0,0 -10.28927,19.73052 -38.16074,19.73052 -26.62772,0 -36.94333,-18.7376 -43.47499,-25.21436 -4.79758,-4.75727 -6.8972,-6.04918 -6.8972,-6.04918 z"
           id="path995"
           inkscape:connector-curvature="0"
           sodipodi:nodetypes="ccsccsssccssc" />
      </g>
    </g>
  </g>
</svg>
