<?xml version="1.0" encoding="UTF-8" standalone="no"?>
<!-- Created with Inkscape (http://www.inkscape.org/) -->

<svg
   xmlns:dc="http://purl.org/dc/elements/1.1/"
   xmlns:cc="http://creativecommons.org/ns#"
   xmlns:rdf="http://www.w3.org/1999/02/22-rdf-syntax-ns#"
   xmlns:svg="http://www.w3.org/2000/svg"
   xmlns="http://www.w3.org/2000/svg"
   xmlns:sodipodi="http://sodipodi.sourceforge.net/DTD/sodipodi-0.dtd"
   xmlns:inkscape="http://www.inkscape.org/namespaces/inkscape"
   width="1000"
   height="1000"
   viewBox="0 0 264.58333 264.58334"
   version="1.1"
   id="svg8"
   inkscape:version="0.92.3 (2405546, 2018-03-11)"
   sodipodi:docname="cin.svg">
  <defs
     id="defs2" />
  <sodipodi:namedview
     id="base"
     pagecolor="#ffffff"
     bordercolor="#666666"
     borderopacity="1.0"
     inkscape:pageopacity="0.0"
     inkscape:pageshadow="2"
     inkscape:zoom="0.24748737"
     inkscape:cx="687.75047"
     inkscape:cy="616.54181"
     inkscape:document-units="mm"
     inkscape:current-layer="layer2"
     showgrid="false"
     units="px"
     inkscape:snap-global="false"
     inkscape:window-width="1920"
     inkscape:window-height="1029"
     inkscape:window-x="1920"
     inkscape:window-y="0"
     inkscape:window-maximized="1" />
  <metadata
     id="metadata5">
    <rdf:RDF>
      <cc:Work
         rdf:about="">
        <dc:format>image/svg+xml</dc:format>
        <dc:type
           rdf:resource="http://purl.org/dc/dcmitype/StillImage" />
        <dc:title />
      </cc:Work>
    </rdf:RDF>
  </metadata>
  <g
     inkscape:label="Layer 1"
     inkscape:groupmode="layer"
     id="layer1"
     transform="translate(0,-32.41665)" />
  <g
     inkscape:groupmode="layer"
     id="layer2"
     inkscape:label="Layer 2">
    <rect
       style="opacity:1;fill:#ffffff;fill-opacity:1;stroke:none;stroke-width:3.96875;stroke-linecap:square;stroke-linejoin:round;stroke-miterlimit:4;stroke-dasharray:none;stroke-opacity:1;paint-order:normal"
       id="rect1027"
       width="298.27277"
       height="295.06555"
       x="-10.690781"
       y="-10.169741" />
    <g
       id="g1025"
       transform="matrix(0.94493807,0,0,0.94493807,-581.63858,-6.1262998)">
      <path
         id="path897"
         transform="scale(0.26458333)"
         d="m 2558.5898,389.25195 c -8.5231,-0.14206 -17.0468,15.76758 -17.0468,15.76758 19.1929,16.16243 26.2656,47.47852 26.2656,47.47852 0,0 9.0898,-37.37547 -1.0117,-56.56836 -2.5254,-4.79823 -5.366,-6.63038 -8.2071,-6.67774 z m 191.9571,17.16993 c -77.5736,0.40013 -96.2617,35.00585 -96.2617,35.00585 0,0 119.2859,-28.57112 107.8574,32.85743 0,0 16.4286,-7.85684 35,-7.14258 0,0 37.8568,-60.00059 -42.8574,-60.71485 -1.2612,-0.0112 -2.507,-0.0122 -3.7383,-0.006 z m -217.1719,39.6289 c -34.14,0.20416 -69.3183,39.9199 -83.7324,101.0918 0,0 54.2855,5.71509 62.1426,8.57226 0,0 57.8576,-108.57115 23.2148,-109.64257 -0.5413,-0.0168 -1.0831,-0.0247 -1.625,-0.0215 z m -1.3359,7.5957 c 12.7746,0.15021 5.3854,25.02664 -4.543,49.2754 a 32.072343,29.925768 0 0 0 -20.5508,-6.98829 32.072343,29.925768 0 0 0 -32.0723,29.92579 32.072343,29.925768 0 0 0 5.9336,17.25976 c -7.2162,-0.88465 -14.4425,-1.6999 -21.6621,-2.53516 10.7172,-36.21331 35.0792,-87.38212 72.8946,-86.9375 z m -49.0821,1.49024 a 309.21091,354.25535 62.847367 0 0 -73.0215,195.05273 c -10.2626,4.24044 -23.5315,5.63326 -36.582,-2.73242 -19.698,-12.62691 -20.2031,-38.89062 -20.2031,-38.89062 -10.1015,10.10154 -23.2342,60.60904 32.3242,79.29687 9.2023,3.09532 18.0407,4.75827 26.3887,5.38672 a 309.21091,354.25535 62.847367 0 0 33.3105,101.94922 309.21091,354.25535 62.847367 0 0 462.7989,96.25586 309.21091,354.25535 62.847367 0 0 184.9238,-241.08789 308.35206,350.84758 60.581205 0 1 -179.6797,226.80664 308.35206,350.84758 60.581205 0 1 -457.0664,-96.25781 308.35206,350.84758 60.581205 0 1 -31.0469,-87.50196 c 5.5139,-0.27884 10.7444,-0.97193 15.6406,-1.94531 6.5268,33.2342 30.8939,111.61715 115.9512,115.5918 91.8513,4.29212 127.519,-26.42605 141.125,-51.25 20.1895,5.47192 38.5915,8.6802 52.8242,8.31836 59.5991,-1.51525 88.8946,-56.56836 88.8946,-56.56836 -58.0838,35.35536 -120.208,6.06195 -163.6446,-38.38477 -39.4877,-40.40604 -70.6306,-52.84227 -112.0156,-54.39062 -5.5958,-9.25787 -14.7298,-20.30624 -27.0937,-21.92774 0,0 9.6802,9.27605 15.25,21.76758 -0.2998,0.002 -0.5936,-10e-4 -0.8946,0.002 -47.9823,0.50506 -58.5898,26.26368 -58.5898,26.26367 0,0 -34.8496,-22.7274 -19.6973,-43.43554 15.1523,-20.70811 41.4154,-1.0115 61.1133,-39.90235 19.698,-38.89088 19.6992,-52.02148 19.6992,-52.02148 0,0 -26.2641,52.52779 -37.8808,61.61914 -11.6168,9.09139 -40.9107,6.5657 -52.5274,23.73828 -3.3977,5.02269 -4.5773,11.29815 -3.8965,17.68945 -22.9093,0.26985 -26.9641,25.78964 -36.5097,33.82813 -0.4976,0.41897 -1.0408,0.84377 -1.5938,1.26758 a 308.35206,350.84758 60.581205 0 1 61.6992,-188.53711 z m 196.795,2.87305 c -56.2696,1.0742 -83.1446,62.16797 -96.8946,113.41796 0,0 99.9994,18.57224 124.2852,28.57227 0,0 72.858,-118.57225 -1.4278,-138.57227 -9.2857,-2.5 -17.9243,-3.57142 -25.9628,-3.41796 z m 0.705,7.65429 c 16.3931,0.14469 35.6374,3.28784 45.2461,17.76172 7.6298,17.22373 6.5842,35.1584 1.6797,52.70899 A 47.884426,40.741568 0 0 0 2685,514.25781 47.884426,40.741568 0 0 0 2637.1152,555 a 47.884426,40.741568 0 0 0 7.2286,21.38086 c -2.2979,-0.58012 -4.5915,-1.17743 -6.875,-1.81055 -13.6714,-3.79007 -34.8169,-6.59023 -44.9551,-9.15429 12.3615,-40.8937 35.7226,-95.93683 84.7051,-99.74414 1.0635,-0.0145 2.1454,-0.0175 3.2382,-0.008 z m -173.0058,35.80274 a 26.850451,25.053372 0 0 1 17.9336,6.47656 c -7.4887,17.65375 -15.6758,34.04061 -17.6094,39.07031 -6.4486,-1.13079 -12.925,-2.0826 -19.4141,-2.9414 a 26.850451,25.053372 0 0 1 -7.7617,-17.55274 26.850451,25.053372 0 0 1 26.8516,-25.05273 z m -5.2578,12.03906 a 9.9092714,9.9092723 0 0 0 -9.9102,9.91016 9.9092714,9.9092723 0 0 0 9.9102,9.9082 9.9092714,9.9092723 0 0 0 9.9082,-9.9082 9.9092714,9.9092723 0 0 0 -9.9082,-9.91016 z m 182.4492,5.70117 a 42.579652,36.228105 0 0 1 40.3144,24.72266 c -5.6013,16.39435 -13.9924,32.3047 -21.1914,46.8125 -17.121,-5.34737 -34.813,-8.55227 -52.2695,-12.63672 a 42.579652,36.228105 0 0 1 -9.4336,-22.67188 42.579652,36.228105 0 0 1 42.5801,-36.22656 z m -3.4922,18.14258 a 16.499432,16.499432 0 0 0 -16.5,16.5 16.499432,16.499432 0 0 0 16.5,16.5 16.499432,16.499432 0 0 0 16.5,-16.5 16.499432,16.499432 0 0 0 -16.5,-16.5 z m -197.6895,135.86523 c 12.5583,6.17271 21.9655,7.31403 28.6602,6.57813 -0.092,11.18125 -0.033,30.65249 1.0215,49.92187 -14.2816,-3.13349 -26.626,-6.14699 -36.7442,-8.74414 -0.8657,-10.75341 -1.5492,-24.46737 -1.8496,-42.03125 5.7299,-3.23304 8.9121,-5.72461 8.9121,-5.72461 z m 41.92,1.01172 c 6.7694,6.25658 17.668,13.75086 31.164,21.69532 0.012,11.58628 0.2372,27.17516 1.1113,42.54882 -13.0438,-2.26339 -25.4704,-4.69109 -36.9472,-7.12304 -1.1576,-12.51719 -2.0653,-29.56656 -2.3223,-52.95704 4.7976,-1.70777 6.9942,-4.16406 6.9942,-4.16406 z m -57.2305,8.04492 c 0.01,10.11025 0.1824,23.32045 0.8105,36.76954 -4.258,-1.12827 -7.7988,-2.09301 -10.7402,-2.91407 -3.9288,-10.35729 -6.5035,-19.80434 -8.1269,-26.95117 6.9906,-2.02526 13.0697,-4.50161 18.0566,-6.9043 z m 94.9277,17.41602 c 11.3939,6.43407 24.3027,13.0728 38.043,19.54688 0.1465,8.07622 0.4332,16.93862 0.9199,25.78906 -12.5564,-1.50257 -24.9054,-3.29979 -36.8144,-5.26563 -0.9488,-10.04128 -1.7343,-23.10264 -2.1485,-40.07031 z m 44.959,22.75781 c 10.493,4.80434 21.3574,9.46434 32.3164,13.83399 0.1368,4.04478 0.3057,8.14453 0.5215,12.26953 -10.4606,-0.62807 -20.9401,-1.54085 -31.3262,-2.67578 -0.5892,-6.52774 -1.1115,-14.2455 -1.5117,-23.42774 z m 39.543,16.66992 c 9.7311,3.74926 19.4628,7.22905 28.998,10.33594 -0.5128,0.0183 -0.9989,0.0292 -1.5097,0.0469 -0.015,5.2e-4 -0.03,-5.3e-4 -0.045,0 -8.8012,0.08 -17.7401,-0.13591 -26.7187,-0.55469 -0.2581,-3.01951 -0.4993,-6.3121 -0.7246,-9.82813 z m -117.1485,87.13868 c 0,0 21.2134,25.25313 50.5079,27.27343 29.2944,2.02031 61.6191,-19.1914 61.6191,-19.1914 -72.731,21.2132 -112.127,-8.08203 -112.127,-8.08203 z"
         style="fill:#000000;fill-opacity:1;stroke:none;stroke-width:0.99999994px;stroke-linecap:butt;stroke-linejoin:miter;stroke-opacity:1"
         inkscape:connector-curvature="0" />
      <path
         style="opacity:1;fill:#c6011f;fill-opacity:1;stroke:#ffffff;stroke-width:16;stroke-linecap:square;stroke-linejoin:round;stroke-miterlimit:4;stroke-dasharray:none;stroke-opacity:1;paint-order:normal"
         d="m 2764.6914,174.54688 c -43.8039,-0.0548 -88.2931,4.64201 -116.0723,12.28124 -40.4061,11.11168 -41.416,48.48562 -41.416,65.65821 0,17.1726 7.0723,72.73242 7.0723,72.73242 0,0 -144.2748,61.21065 -138.5606,88.35352 5.7143,27.14282 146.4275,-10e-4 193.5704,-14.28711 38.0326,-11.52505 109.2573,-47.15641 139.9785,-66.52539 58.5199,2.42131 130.4069,17.56849 158.2812,23.89257 a 316.9413,362.87153 62.650112 0 1 59.5703,51.375 255,240.71427 0 0 0 -51.4062,18.44727 l 4.291,-30.04688 -15.7148,7.85743 -3.4903,29.91796 a 255,240.71427 0 0 0 -52.3691,39.03321 l -2.9278,-27.76953 -13.3164,11.45898 3.8204,29.04688 a 255,240.71427 0 0 0 -34.1954,49.71484 l -7.9316,-20.86914 -8.8398,12.86523 9.5488,23.29883 a 255,240.71427 0 0 0 -16.8301,60.29102 l -13.3359,-15.83008 -3.6368,13.39453 15.7129,17.70508 a 255,240.71427 0 0 0 -0.7793,14.17187 255,240.71427 0 0 0 4.6231,44.6543 l -15.9941,-8.83398 1.2226,12.08789 17.8184,9.25195 a 255,240.71427 0 0 0 23.0937,57.10156 l -18.2422,-4.07812 3.8614,9.50976 20.373,4.00782 a 255,240.71427 0 0 0 57.7734,63.13671 255,240.71427 0 0 1 -50.5136,-67.26953 l 9.1953,-15.83203 -4.8828,-12.52148 -8.2168,20.57617 a 255,240.71427 0 0 1 -17.6836,-55.91797 l 14.5722,-13.8457 -1.3828,-15.84961 -14.8281,18.92187 a 255,240.71427 0 0 1 -2.2187,-29.38672 255,240.71427 0 0 1 1.8476,-27.38867 l 17.334,-7.20312 5.0039,-17.4668 -20.3223,12.18359 a 255,240.71427 0 0 1 16.6055,-54.26562 l 21.3731,-1.21875 11.8066,-16.67969 -26.8301,5.52539 a 255,240.71427 0 0 1 32.1836,-47.05078 l 24.9004,5.08008 17.6426,-14.75977 -31.5117,-1.73632 a 255,240.71427 0 0 1 48.2949,-37.89649 L 2996.4277,465 l 20.7149,-10 -29.9395,-9.32617 a 255,240.71427 0 0 1 53.9903,-20.92774 316.9413,362.87153 62.650112 0 1 19.7773,29.38086 316.9413,362.87153 62.650112 0 1 30.0977,202.12891 308.35206,350.84758 60.581205 0 0 -23.7051,-220.00391 308.35206,350.84758 60.581205 0 0 -89.5117,-94.57422 c 17.9407,-30.55029 39.8811,-68.49772 24.3222,-98.28125 -19.0865,-36.53648 -117.7181,-58.21325 -179.8086,-65.66015 -17.9943,-2.15818 -37.7629,-3.16459 -57.6738,-3.18945 z m -26.0488,61.1914 c 24.9943,0.009 48.6811,0.66841 70.6347,2.29102 35.2366,2.60435 137.3345,16.7085 186.1778,30.02539 -0.3385,5.03119 -1.3297,11.28195 -3.5137,18.81054 -49.5467,-12.96749 -146.8073,-26.38476 -183.1855,-29.61523 -36.324,-3.22566 -155.0941,0.41296 -192.5118,1.66211 -0.3891,-7.06112 -0.495,-13.8309 -0.1601,-19.7793 42.8846,-1.88831 84.2813,-3.40888 122.5586,-3.39453 z m -5.6367,38.19141 c 24.1142,0.009 46.9658,0.61816 68.1464,2.12304 35.0948,2.49349 138.9253,16.35411 184.0176,29.04297 -2.2317,5.01342 -4.913,10.39685 -8.1289,16.16211 -47.9098,-11.99912 -141.3816,-24.39017 -176.3926,-27.3789 -33.0005,-2.81713 -137.9925,0.0573 -180.666,1.38086 -0.7976,-5.72504 -1.5909,-11.89825 -2.2636,-18.30665 40.3162,-1.69233 79.2391,-3.03642 115.2871,-3.02343 z"
         transform="scale(0.26458333)"
         id="path1016"
         inkscape:connector-curvature="0" />
      <path
         id="path949"
         transform="scale(0.26458333)"
         d="m 2764.6914,174.54688 c -43.8039,-0.0548 -88.2931,4.64201 -116.0723,12.28124 -40.4061,11.11168 -41.416,48.48562 -41.416,65.65821 0,17.1726 7.0723,72.73242 7.0723,72.73242 0,0 -144.2748,61.21065 -138.5606,88.35352 5.7143,27.14282 146.4275,-10e-4 193.5704,-14.28711 38.0326,-11.52505 109.2573,-47.15641 139.9785,-66.52539 58.5199,2.42131 130.4069,17.56849 158.2812,23.89257 a 316.9413,362.87153 62.650112 0 1 59.5703,51.375 255,240.71427 0 0 0 -51.4062,18.44727 l 4.291,-30.04688 -15.7148,7.85743 -3.4903,29.91796 a 255,240.71427 0 0 0 -52.3691,39.03321 l -2.9278,-27.76953 -13.3164,11.45898 3.8204,29.04688 a 255,240.71427 0 0 0 -34.1954,49.71484 l -7.9316,-20.86914 -8.8398,12.86523 9.5488,23.29883 a 255,240.71427 0 0 0 -16.8301,60.29102 l -13.3359,-15.83008 -3.6368,13.39453 15.7129,17.70508 a 255,240.71427 0 0 0 -0.7793,14.17187 255,240.71427 0 0 0 4.6231,44.6543 l -15.9941,-8.83398 1.2226,12.08789 17.8184,9.25195 a 255,240.71427 0 0 0 23.0937,57.10156 l -18.2422,-4.07812 3.8614,9.50976 20.373,4.00782 a 255,240.71427 0 0 0 57.7734,63.13671 255,240.71427 0 0 1 -50.5136,-67.26953 l 9.1953,-15.83203 -4.8828,-12.52148 -8.2168,20.57617 a 255,240.71427 0 0 1 -17.6836,-55.91797 l 14.5722,-13.8457 -1.3828,-15.84961 -14.8281,18.92187 a 255,240.71427 0 0 1 -2.2187,-29.38672 255,240.71427 0 0 1 1.8476,-27.38867 l 17.334,-7.20312 5.0039,-17.4668 -20.3223,12.18359 a 255,240.71427 0 0 1 16.6055,-54.26562 l 21.3731,-1.21875 11.8066,-16.67969 -26.8301,5.52539 a 255,240.71427 0 0 1 32.1836,-47.05078 l 24.9004,5.08008 17.6426,-14.75977 -31.5117,-1.73632 a 255,240.71427 0 0 1 48.2949,-37.89649 L 2996.4277,465 l 20.7149,-10 -29.9395,-9.32617 a 255,240.71427 0 0 1 53.9903,-20.92774 316.9413,362.87153 62.650112 0 1 19.7773,29.38086 316.9413,362.87153 62.650112 0 1 30.0977,202.12891 308.35206,350.84758 60.581205 0 0 -23.7051,-220.00391 308.35206,350.84758 60.581205 0 0 -89.5117,-94.57422 c 17.9407,-30.55029 39.8811,-68.49772 24.3222,-98.28125 -19.0865,-36.53648 -117.7181,-58.21325 -179.8086,-65.66015 -17.9943,-2.15818 -37.7629,-3.16459 -57.6738,-3.18945 z m -26.0488,61.1914 c 24.9943,0.009 48.6811,0.66841 70.6347,2.29102 35.2366,2.60435 137.3345,16.7085 186.1778,30.02539 -0.3385,5.03119 -1.3297,11.28195 -3.5137,18.81054 -49.5467,-12.96749 -146.8073,-26.38476 -183.1855,-29.61523 -36.324,-3.22566 -155.0941,0.41296 -192.5118,1.66211 -0.3891,-7.06112 -0.495,-13.8309 -0.1601,-19.7793 42.8846,-1.88831 84.2813,-3.40888 122.5586,-3.39453 z m -5.6367,38.19141 c 24.1142,0.009 46.9658,0.61816 68.1464,2.12304 35.0948,2.49349 138.9253,16.35411 184.0176,29.04297 -2.2317,5.01342 -4.913,10.39685 -8.1289,16.16211 -47.9098,-11.99912 -141.3816,-24.39017 -176.3926,-27.3789 -33.0005,-2.81713 -137.9925,0.0573 -180.666,1.38086 -0.7976,-5.72504 -1.5909,-11.89825 -2.2636,-18.30665 40.3162,-1.69233 79.2391,-3.03642 115.2871,-3.02343 z"
         style="opacity:1;fill:#c6011f;fill-opacity:1;stroke:none;stroke-width:1.9417609;stroke-linecap:square;stroke-linejoin:round;stroke-miterlimit:4;stroke-dasharray:none;stroke-opacity:1;paint-order:normal"
         inkscape:connector-curvature="0" />
      <path
         style="fill:#650110;fill-opacity:1;stroke:#ffffff;stroke-width:3.96875;stroke-linecap:butt;stroke-linejoin:miter;stroke-miterlimit:4;stroke-dasharray:none;stroke-opacity:1"
         d="m 774.14156,141.6637 0.006,70.59817 112.86434,-13.25345 -28.22146,-22.02176 28.17608,-22.03169 z m 2.4227,1.20966 74.09475,34.12012 -73.28665,33.695 67.38508,-33.7319 z m 22.01434,21.8726 a 12.304258,12.304258 0 0 1 12.30425,12.30426 12.304258,12.304258 0 0 1 -12.30425,12.30426 12.304258,12.304258 0 0 1 -12.30426,-12.30426 12.304258,12.304258 0 0 1 12.30426,-12.30426 z"
         id="path1018"
         inkscape:connector-curvature="0" />
      <path
         inkscape:connector-curvature="0"
         id="path1008"
         d="m 774.14156,141.6637 0.006,70.59817 112.86434,-13.25345 -28.22146,-22.02176 28.17608,-22.03169 z m 2.4227,1.20966 74.09475,34.12012 -73.28665,33.695 67.38508,-33.7319 z m 22.01434,21.8726 a 12.304258,12.304258 0 0 1 12.30425,12.30426 12.304258,12.304258 0 0 1 -12.30425,12.30426 12.304258,12.304258 0 0 1 -12.30426,-12.30426 12.304258,12.304258 0 0 1 12.30426,-12.30426 z"
         style="fill:#790113;fill-opacity:1;stroke:none;stroke-width:0.15876462px;stroke-linecap:butt;stroke-linejoin:miter;stroke-opacity:1" />
    </g>
  </g>
</svg>
