<?xml version="1.0" encoding="UTF-8" standalone="no"?>
<!-- Created with Inkscape (http://www.inkscape.org/) -->

<svg
   xmlns:dc="http://purl.org/dc/elements/1.1/"
   xmlns:cc="http://creativecommons.org/ns#"
   xmlns:rdf="http://www.w3.org/1999/02/22-rdf-syntax-ns#"
   xmlns:svg="http://www.w3.org/2000/svg"
   xmlns="http://www.w3.org/2000/svg"
   xmlns:sodipodi="http://sodipodi.sourceforge.net/DTD/sodipodi-0.dtd"
   xmlns:inkscape="http://www.inkscape.org/namespaces/inkscape"
   width="1000"
   height="1000"
   viewBox="0 0 264.58333 264.58334"
   version="1.1"
   id="svg8"
   inkscape:version="0.92.3 (2405546, 2018-03-11)"
   sodipodi:docname="cle.svg">
  <defs
     id="defs2" />
  <sodipodi:namedview
     id="base"
     pagecolor="#ffffff"
     bordercolor="#666666"
     borderopacity="1.0"
     inkscape:pageopacity="0.0"
     inkscape:pageshadow="2"
     inkscape:zoom="0.5"
     inkscape:cx="381.42623"
     inkscape:cy="379.2989"
     inkscape:document-units="mm"
     inkscape:current-layer="layer1"
     showgrid="false"
     units="px"
     inkscape:snap-global="false"
     inkscape:snap-grids="false"
     inkscape:window-width="1920"
     inkscape:window-height="1054"
     inkscape:window-x="0"
     inkscape:window-y="0"
     inkscape:window-maximized="1">
    <inkscape:grid
       type="xygrid"
       id="grid815" />
  </sodipodi:namedview>
  <metadata
     id="metadata5">
    <rdf:RDF>
      <cc:Work
         rdf:about="">
        <dc:format>image/svg+xml</dc:format>
        <dc:type
           rdf:resource="http://purl.org/dc/dcmitype/StillImage" />
        <dc:title></dc:title>
      </cc:Work>
    </rdf:RDF>
  </metadata>
  <g
     inkscape:groupmode="layer"
     id="layer2"
     inkscape:label="Layer 2"
     style="display:inline;opacity:1" />
  <g
     inkscape:label="Layer 1"
     inkscape:groupmode="layer"
     id="layer1"
     transform="translate(0,-32.41665)">
    <rect
       style="opacity:1;fill:#ffffff;fill-opacity:1;stroke:none;stroke-width:2.64583325;stroke-linecap:square;stroke-linejoin:round;stroke-miterlimit:4;stroke-dasharray:none;stroke-opacity:1;paint-order:normal"
       id="rect4727"
       width="356.12915"
       height="356.12915"
       x="-42.333332"
       y="2.2541528" />
    <g
       id="g4706"
       transform="matrix(0.32409906,0,0,0.32409906,-114.8528,239.37275)">
      <path
         id="path4520"
         transform="matrix(0.26458333,0,0,0.26458333,0,32.41665)"
         d="m 2360,-680 -200,400 -150,-300 -450,900 h 760 l 440,-880 440,880 h 760 l -290.9199,-581.83984 c -63.939,-10.18661 -127.535,-42.45735 -165.4102,-95.85743 -15.3123,-31.15021 -48.617,-40.34482 -81.0859,-47.46875 L 3360,-280 3160,-680 2960,-280 2861.0527,-477.89453 2780,-640 l -20,-40 -20,40 -83.2266,166.45117 L 2560,-280 Z"
         style="opacity:1;fill:#0c2340;fill-opacity:1;stroke:none;stroke-width:1.08465219px;stroke-linecap:butt;stroke-linejoin:miter;stroke-opacity:1"
         inkscape:connector-curvature="0" />
      <path
         id="path4561"
         transform="matrix(0.26458333,0,0,0.26458333,0,32.41665)"
         d="m 2732.791,-2370.0703 v 235.6523 l -102.1738,-204.3476 -48,24 L 2730,-2020 l -670,1340 -30,60 30,60 100,200 200,-400 200,400 96.7734,-193.54883 L 2740,-720 l 20,-40 20,40 81.0527,162.10547 L 2960,-360 l 200,-400 200,400 27.6445,-55.28711 c -0.09,-39.82166 -0.1779,-79.64319 -0.2675,-119.46484 L 3360,-480 3160,-880 2960,-480 2861.0527,-677.89453 2780,-840 l -20,-40 -20,40 -83.2266,166.45117 L 2560,-480 2360,-880 2160,-480 2090,-620 2166.4512,-772.90234 2360,-1160 l 400,-800 400,800 181.0527,362.10547 45.9395,91.87891 c -0.09,-40.18039 -0.1794,-80.36064 -0.2695,-120.54102 l -580.1055,-1160.20896 -16.6113,-33.2246 147.3925,-294.7871 -48,-24 -101.9824,203.9648 v -235.2578 z"
         style="opacity:1;fill:#000000;fill-opacity:1;stroke:none;stroke-width:1.08465219px;stroke-linecap:butt;stroke-linejoin:miter;stroke-opacity:1"
         inkscape:connector-curvature="0" />
      <path
         sodipodi:nodetypes="ccsscccsscssccssccc"
         inkscape:connector-curvature="0"
         id="path4680"
         d="m 905.92258,-250.6372 0.3742,165.760562 c 0,0 23.9473,4.49014 27.6891,14.9671 3.7418,10.47697 29.56,23.94735 40.037,23.57318 10.477,-0.37418 14.9671,-0.37418 18.3347,-1.12254 3.3676,-0.74835 10.10282,-8.98025 13.84462,-7.85772 3.7417,1.12253 4.4901,19.45722 12.722,19.8314 8.2319,0.37417 15.3412,-2.99342 14.5929,-7.10937 -0.7483,-4.11595 1.1225,-8.98026 6.7352,-8.2319 5.6126,0.74835 -0.3742,-11.97368 1.8709,-16.83798 2.245,-4.86431 7.8577,-5.61266 10.8511,-10.47697 2.9934,-4.86431 1.1225,-12.34786 6.7352,-12.34786 5.6127,0 8.6061,14.21875 12.722,13.09622 4.116,-1.12254 7.1094,-20.205569 12.7221,-29.560022 5.6126,-9.35443 19.8314,-11.97367 24.6957,-20.95392 4.8643,-8.98025 6.7352,-32.55343 5.9868,-35.54685 -0.7484,-2.99341 -5.2385,-8.23189 -4.1159,-11.22531 1.1225,-2.99342 5.9868,-1.49673 9.3544,-5.61267 3.3676,-4.11596 1.1225,-87.5575 1.1225,-87.5575 0,0 -22.8248,5.23848 -35.1726,11.22532 -12.3479,5.98684 -20.2056,18.33469 -36.6694,21.32811 -16.4638,2.99342 -34.0501,-1.49671 -49.7656,-5.23849 -15.71542,-3.74177 -8.23192,-10.10278 -41.15952,-10.10278 -32.9276,0 -53.5074,-1e-5 -53.5074,-1e-5 z"
         style="opacity:1;fill:#e31937;fill-opacity:1;stroke:none;stroke-width:0.26458332px;stroke-linecap:butt;stroke-linejoin:miter;stroke-opacity:1" />
    </g>
  </g>
</svg>
