<?xml version="1.0" encoding="UTF-8" standalone="no"?>
<!-- Created with Inkscape (http://www.inkscape.org/) -->

<svg
   xmlns:dc="http://purl.org/dc/elements/1.1/"
   xmlns:cc="http://creativecommons.org/ns#"
   xmlns:rdf="http://www.w3.org/1999/02/22-rdf-syntax-ns#"
   xmlns:svg="http://www.w3.org/2000/svg"
   xmlns="http://www.w3.org/2000/svg"
   xmlns:sodipodi="http://sodipodi.sourceforge.net/DTD/sodipodi-0.dtd"
   xmlns:inkscape="http://www.inkscape.org/namespaces/inkscape"
   width="1000"
   height="1000"
   viewBox="0 0 264.58333 264.58334"
   version="1.1"
   id="svg8"
   inkscape:version="0.92.3 (2405546, 2018-03-11)"
   sodipodi:docname="cle.svg">
  <defs
     id="defs2" />
  <sodipodi:namedview
     id="base"
     pagecolor="#ffffff"
     bordercolor="#666666"
     borderopacity="1.0"
     inkscape:pageopacity="0.0"
     inkscape:pageshadow="2"
     inkscape:zoom="0.5"
     inkscape:cx="444.30611"
     inkscape:cy="442.56922"
     inkscape:document-units="mm"
     inkscape:current-layer="layer1"
     showgrid="false"
     units="px"
     inkscape:snap-global="false"
     inkscape:snap-grids="false"
     inkscape:window-width="1920"
     inkscape:window-height="1029"
     inkscape:window-x="1920"
     inkscape:window-y="0"
     inkscape:window-maximized="1">
    <inkscape:grid
       type="xygrid"
       id="grid815" />
  </sodipodi:namedview>
  <metadata
     id="metadata5">
    <rdf:RDF>
      <cc:Work
         rdf:about="">
        <dc:format>image/svg+xml</dc:format>
        <dc:type
           rdf:resource="http://purl.org/dc/dcmitype/StillImage" />
        <dc:title />
      </cc:Work>
    </rdf:RDF>
  </metadata>
  <g
     inkscape:groupmode="layer"
     id="layer2"
     inkscape:label="Layer 2"
     style="display:inline;opacity:1" />
  <g
     inkscape:label="Layer 1"
     inkscape:groupmode="layer"
     id="layer1"
     transform="translate(0,-32.41665)">
    <rect
       style="opacity:1;fill:#ffffff;fill-opacity:1;stroke:none;stroke-width:2.64583325;stroke-linecap:square;stroke-linejoin:round;stroke-miterlimit:4;stroke-dasharray:none;stroke-opacity:1;paint-order:normal"
       id="rect4727"
       width="356.12915"
       height="356.12915"
       x="-60.039257"
       y="-15.532342" />
    <g
       id="g1119">
      <g
         transform="matrix(0.75088826,0.08022736,-0.08022736,0.75088826,-64.776376,-224.65546)"
         id="g1104">
        <path
           inkscape:connector-curvature="0"
           style="fill:#0c2340;fill-opacity:1;stroke:none;stroke-width:0.99999994px;stroke-linecap:butt;stroke-linejoin:miter;stroke-opacity:1"
           d="m 1391.4199,1054.5156 c -61.8419,-0.112 -222.2478,41.9594 -317.1074,195.0293 -20.1483,32.5124 -37.2185,66.4664 -51.6777,100.416 l -13.4746,-6.1543 c 0,0 -34.31153,75.5823 -51.90043,157.8965 -17.58887,82.3142 -10.1398,146.5436 -26.26368,180.9531 -16.12391,34.4097 -112.85863,82.9497 -199.06054,193.8516 l 9.75586,10.0547 c -9.96344,14.1816 -20.04661,29.9687 -30.20703,47.7285 -76.88813,134.3953 -90.26224,323.1608 -80.26758,396.6309 h -0.0156 l 0.0644,0.3594 c 2.7035,19.6189 7.08079,30.9428 12.36719,30.6191 4.50182,-0.2756 8.06769,-7.7452 11.63086,-20.9843 l 1043.77935,-189.9825 -2.5703,-13.9082 -1037.64069,188.8672 c 15.26791,-70.5388 35.8156,-233.9554 129.14844,-391.6308 l 14.70312,15.1523 c 0,0 37.85067,-59.5667 96.89649,-112.5156 59.04589,-52.9489 102.08154,-67.0186 126.01374,-111.0215 23.9322,-44.0028 5.59,-96.7715 23.6601,-177.7559 18.0701,-80.9843 52.6934,-161.9414 52.6934,-161.9414 l -12.1387,-5.5449 c 27.1712,-65.2818 61.6688,-124.7969 105.1504,-171.7402 49.7815,-53.7448 151.0444,-97.9355 197.5215,-125.502 l 320.9101,1009.4336 13.418,-4.4726 -321.9844,-1012.8164 c 8.4293,-5.9301 12.9143,-10.8173 11.8399,-14.545 -0.3682,-1.2767 -1.5674,-2.4011 -3.5215,-3.3379 v 0 c -4.1221,-1.9759 -11.6031,-3.1242 -21.7227,-3.1426 z m -98.3164,29.6387 22.6445,29.8613 c -13.5414,7.1465 -26.993,14.452 -40.125,22.3086 l -24.8535,-33.7402 c 13.7635,-6.9365 27.9002,-13.143 42.334,-18.4297 z m -280.0762,269.7285 c 26.3833,12.0502 52.7673,24.0983 79.1504,36.1484 -11.0178,27.0331 -20.9285,54.5159 -29.8769,82.3028 -21.7106,62.2886 -32.1486,127.9069 -30.7422,193.8652 1.5392,40.1694 -20.103,78.0998 -52.75782,100.0625 -67.59405,45.6631 -131.01347,102.3611 -177.19336,171.1856 -19.88209,-20.4904 -39.76435,-40.9784 -59.64648,-61.4688 47.42574,-61.4287 109.99176,-110.5847 170.06054,-160.0527 29.57284,-20.193 36.20336,-56.9031 37.86914,-90.1387 3.48409,-93.8536 25.73233,-186.2876 63.13668,-271.9043 z m -364.10933,797.6094 33.19922,19.6445 c -4.63389,18.4669 -8.857,37.0487 -12.89649,55.6738 l -27.55078,-16.7207 c 1.7212,-19.5894 4.11988,-39.1542 7.24805,-58.5976 z"
           transform="matrix(0.26458333,0,0,0.26458333,0,32.41665)"
           id="path1062" />
        <path
           inkscape:connector-curvature="0"
           id="path1099"
           d="m 184.37829,434.61205 c 0,0 12.45134,16.85388 15.67829,18.74799 3.22697,1.89411 5.03728,-0.0807 7.13479,1.15048 2.09752,1.23117 2.33944,6.36277 2.33944,6.36277 l 3.61897,-5.90217 182.52709,107.13695 4.78301,18.37726 60.17503,38.08175 -6.97535,-22.42523 8.49615,4.98694 3.03077,-5.16347 -8.46407,-4.9681 22.93106,-4.8317 -62.58582,-33.97451 -18.33059,4.77085 -182.45757,-107.09613 3.42335,-5.5832 c 0,0 -4.70371,1.36107 -6.31718,0.41401 -1.61348,-0.94705 -2.30106,-5.68951 -4.72127,-7.11009 -2.42021,-1.42057 -24.2861,-2.9744 -24.2861,-2.9744 z m 215.17096,129.76897 33.24565,19.51401 1.85727,15.43278 -32.25522,-20.31325 z m 3.05664,-5.14829 14.12198,-4.63341 33.46063,18.25962 -14.34052,5.88573 z"
           style="opacity:1;fill:#000000;fill-opacity:1;stroke:#ffffff;stroke-width:5.29166651;stroke-linecap:square;stroke-linejoin:miter;stroke-miterlimit:4;stroke-dasharray:none;stroke-opacity:1;paint-order:normal" />
        <path
           style="opacity:1;fill:#000000;fill-opacity:1;stroke:none;stroke-width:5.29166651;stroke-linecap:square;stroke-linejoin:miter;stroke-miterlimit:4;stroke-dasharray:none;stroke-opacity:1;paint-order:normal"
           d="m 184.37829,434.61205 c 0,0 12.45134,16.85388 15.67829,18.74799 3.22697,1.89411 5.03728,-0.0807 7.13479,1.15048 2.09752,1.23117 2.33944,6.36277 2.33944,6.36277 l 3.61897,-5.90217 182.52709,107.13695 4.78301,18.37726 60.17503,38.08175 -6.97535,-22.42523 8.49615,4.98694 3.03077,-5.16347 -8.46407,-4.9681 22.93106,-4.8317 -62.58582,-33.97451 -18.33059,4.77085 -182.45757,-107.09613 3.42335,-5.5832 c 0,0 -4.70371,1.36107 -6.31718,0.41401 -1.61348,-0.94705 -2.30106,-5.68951 -4.72127,-7.11009 -2.42021,-1.42057 -24.2861,-2.9744 -24.2861,-2.9744 z m 215.17096,129.76897 33.24565,19.51401 1.85727,15.43278 -32.25522,-20.31325 z m 3.05664,-5.14829 14.12198,-4.63341 33.46063,18.25962 -14.34052,5.88573 z"
           id="rect1047"
           inkscape:connector-curvature="0" />
      </g>
      <g
         transform="translate(-100.6537,20.579754)"
         id="g1110">
        <path
           sodipodi:nodetypes="ccsscccsscssccssccc"
           inkscape:connector-curvature="0"
           id="path1106"
           d="m 279.03539,93.782968 0.12127,53.722842 c 0,0 7.7613,1.45525 8.97402,4.85082 1.21271,3.39558 9.58036,7.76132 12.97595,7.64005 3.39559,-0.12127 4.85082,-0.12127 5.94226,-0.36381 1.09143,-0.24254 3.27431,-2.91049 4.48703,-2.54668 1.21268,0.36381 1.45523,6.30606 4.12319,6.42733 2.66795,0.12127 4.97206,-0.97016 4.72954,-2.30414 -0.24252,-1.33397 0.3638,-2.91049 2.18287,-2.66795 1.81904,0.24254 -0.12128,-3.88066 0.60636,-5.45717 0.7276,-1.57652 2.54667,-1.81906 3.51683,-3.39558 0.97016,-1.57651 0.3638,-4.00193 2.18287,-4.00193 1.81907,0 2.78923,4.60829 4.12319,4.24448 1.33399,-0.36382 2.30415,-6.54861 4.12322,-9.58038 1.81904,-3.03176 6.42734,-3.88065 8.00385,-6.79114 1.57652,-2.9105 2.18288,-10.55054 1.94032,-11.52071 -0.24255,-0.97016 -1.69779,-2.66794 -1.33396,-3.63811 0.3638,-0.97016 1.94032,-0.48509 3.03175,-1.81906 1.09144,-1.33398 0.36381,-28.377302 0.36381,-28.377302 0,0 -7.3975,1.69778 -11.39941,3.63811 -4.00194,1.94033 -6.54862,5.94226 -11.88452,6.91242 -5.3359,0.97017 -11.0356,-0.48508 -16.12898,-1.69779 -5.09336,-1.2127 -2.66796,-3.2743 -13.33977,-3.2743 -10.6718,0 -17.34169,0 -17.34169,0 z"
           style="opacity:1;fill:#e31937;fill-opacity:1;stroke:#ffffff;stroke-width:5.29166651;stroke-linecap:butt;stroke-linejoin:miter;stroke-miterlimit:4;stroke-dasharray:none;stroke-opacity:1" />
        <path
           style="opacity:1;fill:#e31937;fill-opacity:1;stroke:none;stroke-width:0.08575121px;stroke-linecap:butt;stroke-linejoin:miter;stroke-opacity:1"
           d="m 279.03539,93.782968 0.12127,53.722842 c 0,0 7.7613,1.45525 8.97402,4.85082 1.21271,3.39558 9.58036,7.76132 12.97595,7.64005 3.39559,-0.12127 4.85082,-0.12127 5.94226,-0.36381 1.09143,-0.24254 3.27431,-2.91049 4.48703,-2.54668 1.21268,0.36381 1.45523,6.30606 4.12319,6.42733 2.66795,0.12127 4.97206,-0.97016 4.72954,-2.30414 -0.24252,-1.33397 0.3638,-2.91049 2.18287,-2.66795 1.81904,0.24254 -0.12128,-3.88066 0.60636,-5.45717 0.7276,-1.57652 2.54667,-1.81906 3.51683,-3.39558 0.97016,-1.57651 0.3638,-4.00193 2.18287,-4.00193 1.81907,0 2.78923,4.60829 4.12319,4.24448 1.33399,-0.36382 2.30415,-6.54861 4.12322,-9.58038 1.81904,-3.03176 6.42734,-3.88065 8.00385,-6.79114 1.57652,-2.9105 2.18288,-10.55054 1.94032,-11.52071 -0.24255,-0.97016 -1.69779,-2.66794 -1.33396,-3.63811 0.3638,-0.97016 1.94032,-0.48509 3.03175,-1.81906 1.09144,-1.33398 0.36381,-28.377302 0.36381,-28.377302 0,0 -7.3975,1.69778 -11.39941,3.63811 -4.00194,1.94033 -6.54862,5.94226 -11.88452,6.91242 -5.3359,0.97017 -11.0356,-0.48508 -16.12898,-1.69779 -5.09336,-1.2127 -2.66796,-3.2743 -13.33977,-3.2743 -10.6718,0 -17.34169,0 -17.34169,0 z"
           id="path4680"
           inkscape:connector-curvature="0"
           sodipodi:nodetypes="ccsscccsscssccssccc" />
      </g>
    </g>
  </g>
</svg>
