<?xml version="1.0" encoding="UTF-8" standalone="no"?>
<!-- Created with Inkscape (http://www.inkscape.org/) -->

<svg
   xmlns:dc="http://purl.org/dc/elements/1.1/"
   xmlns:cc="http://creativecommons.org/ns#"
   xmlns:rdf="http://www.w3.org/1999/02/22-rdf-syntax-ns#"
   xmlns:svg="http://www.w3.org/2000/svg"
   xmlns="http://www.w3.org/2000/svg"
   xmlns:sodipodi="http://sodipodi.sourceforge.net/DTD/sodipodi-0.dtd"
   xmlns:inkscape="http://www.inkscape.org/namespaces/inkscape"
   width="1000"
   height="1000"
   viewBox="0 0 264.58333 264.58334"
   version="1.1"
   id="svg8"
   inkscape:version="0.92.3 (2405546, 2018-03-11)"
   sodipodi:docname="col.svg">
  <defs
     id="defs2" />
  <sodipodi:namedview
     id="base"
     pagecolor="#ffffff"
     bordercolor="#666666"
     borderopacity="1.0"
     inkscape:pageopacity="0.0"
     inkscape:pageshadow="2"
     inkscape:zoom="0.49497475"
     inkscape:cx="837.46444"
     inkscape:cy="469.47722"
     inkscape:document-units="mm"
     inkscape:current-layer="layer1"
     showgrid="false"
     units="px"
     inkscape:window-width="1920"
     inkscape:window-height="1029"
     inkscape:window-x="1920"
     inkscape:window-y="0"
     inkscape:window-maximized="1"
     inkscape:snap-global="false"
     inkscape:snap-object-midpoints="true" />
  <metadata
     id="metadata5">
    <rdf:RDF>
      <cc:Work
         rdf:about="">
        <dc:format>image/svg+xml</dc:format>
        <dc:type
           rdf:resource="http://purl.org/dc/dcmitype/StillImage" />
        <dc:title></dc:title>
      </cc:Work>
    </rdf:RDF>
  </metadata>
  <g
     inkscape:label="Layer 1"
     inkscape:groupmode="layer"
     id="layer1"
     transform="translate(0,-32.41665)">
    <rect
       style="opacity:1;fill:#ffffff;fill-opacity:1;stroke:none;stroke-width:5.29166651;stroke-linecap:square;stroke-linejoin:miter;stroke-miterlimit:4;stroke-dasharray:none;stroke-opacity:1;paint-order:normal"
       id="rect1028"
       width="282.77115"
       height="288.11655"
       x="-8.0180855"
       y="24.919605" />
    <g
       id="g1026"
       transform="translate(-272.14286,1.5119048)">
      <g
         transform="translate(-101.56242,-3.7417733)"
         id="g977">
        <path
           inkscape:connector-curvature="0"
           style="opacity:1;fill:#24135f;fill-opacity:1;stroke:none;stroke-width:0.99999994px;stroke-linecap:butt;stroke-linejoin:miter;stroke-opacity:1"
           d="m 1899.0859,188.84766 -126.2675,152.5332 -58.5899,-25.25391 -117.1777,169.70508 -24.2442,-11.11133 -23.2324,32.32422 -15.1523,-10.10156 -67.6797,95.96484 H 2313.25 l -80.8125,-100.0039 -45.457,10.10156 -95.9649,-188.90039 -68.6894,38.38672 z M 1897.8574,220 1999.2852,347.85742 1953.9277,323.21484 1935.3574,340 l -11.7851,-44.28516 -39.2871,43.92774 -20,-23.57031 -94.6426,86.07031 -14.2852,-36.78516 -55,62.5 -9.6426,-14.64258 -54.2871,43.92774 83.2149,-116.78516 58.9297,21.78516 z m 187.8574,116.07227 48.9278,93.57031 -55.3574,-68.92774 -16.4278,28.21289 -18.5722,-26.78515 z m -509.8769,158.59961 22.7285,8.58593 -36.6172,14.39453 z M 2230,510.71484 l 27.1426,35.35743 -60,-30.71485 z"
           transform="matrix(0.26458333,0,0,0.26458333,0,32.41665)"
           id="path898" />
        <path
           id="path965"
           d="m 521.03951,149.96971 -4.9444,9.35447 1.91151,0.0222 -5.72937,9.89862 2.34302,0.0248 -5.87407,9.89707 3.11661,0.032 -6.13553,10.09189 h -17.66819 l -4.44624,-7.31325 2.64377,-0.0269 -4.98316,-8.39691 1.98747,-0.0212 -4.86066,-8.39794 1.6216,-0.0186 -4.1946,-7.93647 -5.55521,8.04964 1.93788,-0.0222 -6.43218,8.51162 2.5585,-0.0274 -6.59752,8.51318 3.00085,-0.0315 -4.84468,6.10246 -2.55796,-4.20749 2.27168,-0.0233 -4.28191,-7.21455 1.70791,-0.0181 -4.17597,-7.21506 1.39319,-0.0165 -3.60391,-6.81819 -4.77282,6.91586 1.66449,-0.0191 -5.52627,7.31273 2.19832,-0.0232 -5.66788,7.31376 2.57762,-0.0264 -3.49231,4.39921 -2.03502,-3.34656 1.67071,-0.0171 -3.14865,-5.30459 1.25574,-0.0134 -3.07062,-5.30562 1.02476,-0.0114 -2.65049,-5.01416 -3.50935,5.08548 1.22422,-0.0139 -4.06331,5.37693 1.61642,-0.0171 -4.16822,5.37797 1.896,-0.0196 -2.71094,3.41477 -2.01226,-3.31039 1.2945,-0.0129 -2.43965,-4.11086 0.97306,-0.0103 -2.37972,-4.1119 0.79375,-0.009 -2.05361,-3.88607 -2.71973,3.94136 0.94879,-0.0114 -3.14968,4.16719 1.25315,-0.0129 -3.2303,4.16771 1.46918,-0.015 -2.38125,2.9993 -1.35961,-2.23656 1.06918,-0.0109 -2.01486,-3.39462 0.80357,-0.009 -1.96527,-3.39565 0.65579,-0.007 -1.69603,-3.20911 -2.24637,3.25458 0.78394,-0.009 -2.60088,3.44113 1.03455,-0.0109 -2.66753,3.44217 1.21335,-0.0129 -2.25206,2.83652 h -8.0088 l 108.5851,64.62034 115.38675,-64.62034 h -20.19361 l -2.10735,-2.65462 1.32239,0.0134 -2.9073,-3.75119 1.12758,0.0119 -2.83446,-3.75068 0.85368,0.01 -2.4479,-3.54655 -1.84846,3.49694 0.71467,0.008 -2.14199,3.70055 0.87593,0.009 -2.19625,3.70054 1.1653,0.0119 -1.18856,1.95492 -2.12079,-2.67167 1.85621,0.0196 -4.08191,-5.26737 1.58337,0.017 -3.97962,-5.26635 1.1989,0.014 -3.43752,-4.98058 -2.59519,4.9103 1.00356,0.0119 -3.00757,5.19555 1.22989,0.0134 -3.08353,5.19503 1.63608,0.0165 -1.68103,2.76469 -4.58267,-5.77277 2.59776,0.0269 -5.71127,-7.36906 2.21486,0.0233 -5.56813,-7.36803 1.6774,0.0191 -4.80901,-6.96805 -3.6313,6.86987 1.40406,0.0165 -4.20801,7.26984 1.72082,0.0181 -4.31395,7.26881 2.28875,0.0238 -3.15174,5.18366 -6.58101,-8.28942 3.53674,0.0367 -7.77626,-10.03401 3.01582,0.032 -7.58145,-10.03246 2.2841,0.0264 z"
           style="opacity:1;fill:#ffffff;fill-opacity:1;stroke:#ffffff;stroke-width:4.23333311;stroke-linecap:butt;stroke-linejoin:miter;stroke-miterlimit:4;stroke-dasharray:none;stroke-opacity:1"
           inkscape:connector-curvature="0" />
        <path
           style="opacity:1;fill:#8f8aa4;fill-opacity:1;stroke:none;stroke-width:0.26458332px;stroke-linecap:butt;stroke-linejoin:miter;stroke-opacity:1"
           d="m 521.03951,149.96971 -4.9444,9.35447 1.91151,0.0222 -5.72937,9.89862 2.34302,0.0248 -5.87407,9.89707 3.11661,0.032 -6.13553,10.09189 h -17.66819 l -4.44624,-7.31325 2.64377,-0.0269 -4.98316,-8.39691 1.98747,-0.0212 -4.86066,-8.39794 1.6216,-0.0186 -4.1946,-7.93647 -5.55521,8.04964 1.93788,-0.0222 -6.43218,8.51162 2.5585,-0.0274 -6.59752,8.51318 3.00085,-0.0315 -4.84468,6.10246 -2.55796,-4.20749 2.27168,-0.0233 -4.28191,-7.21455 1.70791,-0.0181 -4.17597,-7.21506 1.39319,-0.0165 -3.60391,-6.81819 -4.77282,6.91586 1.66449,-0.0191 -5.52627,7.31273 2.19832,-0.0232 -5.66788,7.31376 2.57762,-0.0264 -3.49231,4.39921 -2.03502,-3.34656 1.67071,-0.0171 -3.14865,-5.30459 1.25574,-0.0134 -3.07062,-5.30562 1.02476,-0.0114 -2.65049,-5.01416 -3.50935,5.08548 1.22422,-0.0139 -4.06331,5.37693 1.61642,-0.0171 -4.16822,5.37797 1.896,-0.0196 -2.71094,3.41477 -2.01226,-3.31039 1.2945,-0.0129 -2.43965,-4.11086 0.97306,-0.0103 -2.37972,-4.1119 0.79375,-0.009 -2.05361,-3.88607 -2.71973,3.94136 0.94879,-0.0114 -3.14968,4.16719 1.25315,-0.0129 -3.2303,4.16771 1.46918,-0.015 -2.38125,2.9993 -1.35961,-2.23656 1.06918,-0.0109 -2.01486,-3.39462 0.80357,-0.009 -1.96527,-3.39565 0.65579,-0.007 -1.69603,-3.20911 -2.24637,3.25458 0.78394,-0.009 -2.60088,3.44113 1.03455,-0.0109 -2.66753,3.44217 1.21335,-0.0129 -2.25206,2.83652 h -8.0088 l 108.5851,64.62034 115.38675,-64.62034 h -20.19361 l -2.10735,-2.65462 1.32239,0.0134 -2.9073,-3.75119 1.12758,0.0119 -2.83446,-3.75068 0.85368,0.01 -2.4479,-3.54655 -1.84846,3.49694 0.71467,0.008 -2.14199,3.70055 0.87593,0.009 -2.19625,3.70054 1.1653,0.0119 -1.18856,1.95492 -2.12079,-2.67167 1.85621,0.0196 -4.08191,-5.26737 1.58337,0.017 -3.97962,-5.26635 1.1989,0.014 -3.43752,-4.98058 -2.59519,4.9103 1.00356,0.0119 -3.00757,5.19555 1.22989,0.0134 -3.08353,5.19503 1.63608,0.0165 -1.68103,2.76469 -4.58267,-5.77277 2.59776,0.0269 -5.71127,-7.36906 2.21486,0.0233 -5.56813,-7.36803 1.6774,0.0191 -4.80901,-6.96805 -3.6313,6.86987 1.40406,0.0165 -4.20801,7.26984 1.72082,0.0181 -4.31395,7.26881 2.28875,0.0238 -3.15174,5.18366 -6.58101,-8.28942 3.53674,0.0367 -7.77626,-10.03401 3.01582,0.032 -7.58145,-10.03246 2.2841,0.0264 z"
           id="path929"
           inkscape:connector-curvature="0" />
        <path
           style="opacity:1;fill:#ffffff;fill-opacity:1;stroke:none;stroke-width:0.26458332px;stroke-linecap:butt;stroke-linejoin:miter;stroke-opacity:1"
           d="m 494.98316,188.4891 c 0,0 -12.42804,16.03617 -10.02261,22.98518 2.40544,6.94901 9.08717,2.00452 10.28989,9.62171 1.20271,7.61718 -15.63529,23.92062 -15.63529,23.92062 l 17.04549,9.62689 19.0359,-9.89416 c 0,0 4.81086,-18.17433 0.93546,-26.19241 -3.87541,-8.01809 -16.97162,-6.1472 -20.57977,-10.42352 -3.60812,-4.27631 4.40995,-19.51068 4.40995,-19.51068 z"
           id="path967"
           inkscape:connector-curvature="0"
           sodipodi:nodetypes="ccccccsccc" />
        <path
           style="fill:#ffffff;fill-opacity:1;stroke:none;stroke-width:0.26458332px;stroke-linecap:butt;stroke-linejoin:miter;stroke-opacity:1"
           d="m 536.91107,180.78785 2.78963,3.57473 1.26953,-3.64155 z"
           id="path970"
           inkscape:connector-curvature="0" />
      </g>
      <g
         id="g1013">
        <path
           d="m 528.66643,189.75529 a 29.767866,29.767866 0 0 1 -33.14178,19.13442 29.767866,29.767866 0 0 1 -24.59873,-29.31563 29.767866,29.767866 0 0 1 24.59873,-29.31562 29.767866,29.767866 0 0 1 33.14178,19.13441 l -27.97264,10.18121 z"
           sodipodi:end="5.9341195"
           sodipodi:start="0.34906585"
           sodipodi:ry="29.767866"
           sodipodi:rx="29.767866"
           sodipodi:cy="179.57408"
           sodipodi:cx="500.69379"
           sodipodi:type="arc"
           id="path983"
           style="opacity:1;fill:#27251f;fill-opacity:1;stroke:#ffffff;stroke-width:5.29166651;stroke-linecap:square;stroke-linejoin:miter;stroke-miterlimit:4;stroke-dasharray:none;stroke-opacity:1;paint-order:normal" />
        <path
           style="opacity:1;fill:#27251f;fill-opacity:1;stroke:#ffffff;stroke-width:0;stroke-linecap:square;stroke-linejoin:miter;stroke-miterlimit:4;stroke-dasharray:none;stroke-opacity:1;paint-order:normal"
           id="path979"
           sodipodi:type="arc"
           sodipodi:cx="500.69379"
           sodipodi:cy="179.57408"
           sodipodi:rx="29.767866"
           sodipodi:ry="29.767866"
           sodipodi:start="0.34906585"
           sodipodi:end="5.9341195"
           d="m 528.66643,189.75529 a 29.767866,29.767866 0 0 1 -33.14178,19.13442 29.767866,29.767866 0 0 1 -24.59873,-29.31563 29.767866,29.767866 0 0 1 24.59873,-29.31562 29.767866,29.767866 0 0 1 33.14178,19.13441 l -27.97264,10.18121 z" />
        <ellipse
           ry="13.894733"
           rx="13.972794"
           cy="179.57408"
           cx="500.69379"
           id="ellipse985"
           style="opacity:1;fill:#27251f;fill-opacity:1;stroke:#ffffff;stroke-width:4.37137651;stroke-linecap:square;stroke-linejoin:miter;stroke-miterlimit:4;stroke-dasharray:none;stroke-opacity:1;paint-order:normal" />
        <ellipse
           style="opacity:1;fill:#27251f;fill-opacity:1;stroke:#ffffff;stroke-width:0;stroke-linecap:square;stroke-linejoin:miter;stroke-miterlimit:4;stroke-dasharray:none;stroke-opacity:1;paint-order:normal"
           id="path981"
           cx="500.69379"
           cy="179.57408"
           rx="13.972794"
           ry="13.894733" />
      </g>
    </g>
  </g>
</svg>
