<?xml version="1.0" encoding="UTF-8" standalone="no"?>
<!-- Created with Inkscape (http://www.inkscape.org/) -->

<svg
   xmlns:dc="http://purl.org/dc/elements/1.1/"
   xmlns:cc="http://creativecommons.org/ns#"
   xmlns:rdf="http://www.w3.org/1999/02/22-rdf-syntax-ns#"
   xmlns:svg="http://www.w3.org/2000/svg"
   xmlns="http://www.w3.org/2000/svg"
   xmlns:sodipodi="http://sodipodi.sourceforge.net/DTD/sodipodi-0.dtd"
   xmlns:inkscape="http://www.inkscape.org/namespaces/inkscape"
   width="1000"
   height="1000"
   viewBox="0 0 264.58333 264.58334"
   version="1.1"
   id="svg8"
   inkscape:version="0.92.3 (2405546, 2018-03-11)"
   sodipodi:docname="cws.svg">
  <defs
     id="defs2" />
  <sodipodi:namedview
     id="base"
     pagecolor="#ffffff"
     bordercolor="#666666"
     borderopacity="1.0"
     inkscape:pageopacity="0.0"
     inkscape:pageshadow="2"
     inkscape:zoom="0.49497475"
     inkscape:cx="585.42828"
     inkscape:cy="433.96865"
     inkscape:document-units="mm"
     inkscape:current-layer="layer1"
     showgrid="false"
     units="px"
     inkscape:window-width="1920"
     inkscape:window-height="1029"
     inkscape:window-x="1920"
     inkscape:window-y="0"
     inkscape:window-maximized="1"
     inkscape:snap-global="false" />
  <metadata
     id="metadata5">
    <rdf:RDF>
      <cc:Work
         rdf:about="">
        <dc:format>image/svg+xml</dc:format>
        <dc:type
           rdf:resource="http://purl.org/dc/dcmitype/StillImage" />
        <dc:title></dc:title>
      </cc:Work>
    </rdf:RDF>
  </metadata>
  <g
     inkscape:label="Layer 1"
     inkscape:groupmode="layer"
     id="layer1"
     transform="translate(0,-32.41665)">
    <rect
       style="opacity:1;fill:#ffffff;fill-opacity:1;stroke:none;stroke-width:5.29166651;stroke-linecap:square;stroke-linejoin:miter;stroke-miterlimit:4;stroke-dasharray:none;stroke-opacity:1;paint-order:normal"
       id="rect1025"
       width="279.02939"
       height="277.42575"
       x="-7.4835467"
       y="27.05776" />
    <g
       id="g1023"
       transform="matrix(1.0173082,0,0,1.0173082,-234.05509,-5.274116)">
      <g
         transform="translate(-114.14881,-2.2678571)"
         id="g960">
        <path
           inkscape:connector-curvature="0"
           style="fill:#c4ced4;fill-opacity:1;stroke:none;stroke-width:0.99999994px;stroke-linecap:butt;stroke-linejoin:miter;stroke-opacity:1"
           d="m 2055,41.427734 c 0,0.13646 0,0.271916 0,0.408204 0.077,-0.18898 0.081,-0.328779 0,-0.408204 z m 0,0.408204 c -2.4762,6.071474 -84.7335,67.178052 -183.5703,86.736332 -61.5498,12.17975 -98.0928,18.78443 -122.9863,26.27148 -11.3725,-15.43293 -24.0287,-29.92946 -37.7109,-43.3125 l -4.2598,11.10937 c -11.9614,47.28874 -65.1687,58.7547 -104.6074,72.68946 -44.342,14.99757 -73.1941,54.56693 -101.7383,89.20898 82.4927,111.99001 170.9419,219.83392 242.6289,339.26563 6.8522,31.22335 -13.4617,60.31301 -22.0469,89.27148 -19.96,47.2272 -47.3349,91.2296 -80.3672,130.37891 6.3934,-1.65101 14.5606,-3.43269 23.7637,-4.73633 59.6888,-75.51482 100.4855,-182.10327 95.582,-213.48437 -5.0506,-32.32491 -240.416,-340.42188 -240.416,-340.42188 0,0 34.345,-44.44811 61.6192,-62.63086 27.2742,-18.18275 66.67,-22.22156 96.9746,-40.4043 30.3046,-18.18275 38.3867,-42.42773 38.3867,-42.42773 0,0 7.237,7.37167 17.2715,20.65234 -11.4671,4.60392 -20.1884,9.93363 -28.5215,17.14063 -75.829,65.58182 -41.4292,145.71373 -15.7148,164.28515 25.7142,18.57143 63.5728,19.28741 39.2871,62.14454 -24.2857,42.85715 18.5703,9.28515 18.5703,9.28515 0,0 11.4291,46.42771 20.7148,-3.57226 0,0 37.1435,25.00137 15.7149,-10.71289 -10.402,-17.33659 1.2642,-37.02113 19.1914,-53.75977 22.0495,75.23225 66.8859,153.24629 123.5566,204.71094 3.4858,-3.47717 7.359,-6.89272 11.7051,-10.21875 -26.0727,-26.00535 -52.739,-51.47386 -69.8613,-84.78125 -23.8477,-37.29593 -40.414,-78.34379 -52.3008,-120.68946 16.6008,-12.55359 35.0421,-22.23083 46.2793,-25.97656 27.8571,-9.28573 98.2151,-20.35684 116.0722,-29.64258 17.8572,-9.28573 42.8564,-31.42912 46.4278,-65.71484 0,0 -37.1432,23.21401 -82.8574,32.14258 -46.0824,9.00046 -84.6429,18.21373 -97.5,21.78515 -12.8572,3.57143 -25,17.14454 -25,17.14454 0,0 5.0502,-14.41739 17.9296,-19.72071 12.8795,-5.30328 82.9804,-19.917 99.9004,-23.70508 16.9201,-3.78806 102.8876,-25.28831 113.4942,-87.16015 0,0 -53.4331,27.06507 -81.4649,36.91406 -28.0317,9.84899 -117.1807,25.8391 -146.2226,35.43555 -29.0419,9.59645 -47.7307,19.19322 -61.1153,33.58789 0,0 10.6068,-21.21351 37.8809,-31.0625 27.2741,-9.84899 98.5404,-26.62509 126.9258,-31.4375 24.7716,-4.19974 143.5941,-38.0771 134.3496,-108.591799 0,0 -46.6769,36.453679 -78.1055,49.667969 -31.4285,13.21429 -202.144,49.28572 -228.9297,60 -26.7857,10.71428 -42.1412,31.78543 -47.8554,44.64258 0,0 8.2126,-32.85742 37.8554,-45.35742 C 1773.5726,184.28515 1938.9314,146.78571 1971.0743,135 2003.1212,123.24947 2055.3961,87.356236 2055,41.835938 Z M 1946.4375,547.77344 c 1.4991,1.52182 2.9987,3.04104 4.4844,4.57422 -1.4853,-1.53298 -2.9858,-3.05264 -4.4844,-4.57422 z m 14.166,14.81445 c 0.6561,0.71413 1.3061,1.43192 1.957,2.15039 -0.6505,-0.71821 -1.3013,-1.43652 -1.957,-2.15039 z m 3.5508,3.91992 c 0.6074,0.67871 1.2122,1.35993 1.8145,2.04297 -0.6023,-0.68315 -1.2071,-1.36415 -1.8145,-2.04297 z m 3.5469,4.02539 c 0.5379,0.61943 1.078,1.23799 1.6113,1.86133 -0.5334,-0.62362 -1.0733,-1.24162 -1.6113,-1.86133 z m 8.0879,9.69532 c 0.437,0.54806 0.866,1.10268 1.2988,1.65429 -0.4327,-0.55163 -0.8619,-1.10621 -1.2988,-1.65429 z m 3.2363,4.15039 c 0.4321,0.56498 0.8617,1.13223 1.2891,1.70117 -0.4274,-0.56901 -0.857,-1.13611 -1.2891,-1.70117 z m 3.3418,4.48047 c 0.3512,0.48193 0.7051,0.96231 1.0527,1.44726 -0.3477,-0.48513 -0.7014,-0.96514 -1.0527,-1.44726 z m -348.461,262.07031 c -0.3881,0.44319 -0.7742,0.8882 -1.164,1.33008 0.3898,-0.44191 0.7759,-0.88687 1.164,-1.33008 z m -4.0449,4.5664 c -0.4569,0.50951 -0.9161,1.01769 -1.375,1.52539 0.459,-0.50782 0.918,-1.01576 1.375,-1.52539 z m -10.4355,11.29688 c -0.7615,0.8009 -1.5227,1.60239 -2.2891,2.39844 0.7664,-0.79624 1.5277,-1.59735 2.2891,-2.39844 z m -4.625,4.80859 c -0.7888,0.80903 -1.5811,1.61409 -2.375,2.41797 0.7936,-0.80381 1.5865,-1.60901 2.375,-2.41797 z m -4.7227,4.79102 c -1.3884,1.38825 -2.7859,2.76818 -4.1894,4.14062 1.404,-1.37331 2.8005,-2.75148 4.1894,-4.14062 z m -6.3105,6.19726 c -0.9378,0.90682 -1.878,1.81122 -2.8223,2.71094 0.9441,-0.89977 1.8847,-1.80407 2.8223,-2.71094 z m -4.8379,4.62305 c -1.2991,1.22483 -2.6029,2.44296 -3.9141,3.6543 1.3109,-1.21133 2.6153,-2.42947 3.9141,-3.6543 z m -4.8281,4.50391 c -1.6425,1.5102 -3.298,3.00725 -4.959,4.49609 1.661,-1.48913 3.3165,-2.98555 4.959,-4.49609 z m -6.4786,5.84961 c -1.2009,1.06815 -2.4067,2.13061 -3.6171,3.1875 1.2105,-1.05711 2.4161,-2.11911 3.6171,-3.1875 z m -5.3574,4.70312 c -1.6831,1.45677 -3.3713,2.90697 -5.0722,4.3418 1.7007,-1.43463 3.3894,-2.88518 5.0722,-4.3418 z"
           transform="matrix(0.26458333,0,0,0.26458333,0,32.41665)"
           id="path941" />
        <path
           inkscape:connector-curvature="0"
           transform="matrix(0.26458333,0,0,0.26458333,0,32.41665)"
           id="path955"
           d="m 1938.0254,539.30469 c -78.4208,60.01518 -10.8828,147.83789 -10.8828,147.83789 -69.2857,37.14285 -99.9989,99.28571 -113.5703,145 -13.5714,45.71429 -35.7149,50 -35.7149,50 -33.2149,-58.12627 -106.2994,-46.74926 -137.5176,-38.6875 -19.2439,22.80753 -40.4031,43.97142 -63.1464,63.15625 -15.4862,29.49751 17.574,60.16163 46.705,57.92578 59.8352,3.45577 124.1207,-5.5856 174.2852,-40.3418 32.6123,-23.95619 48.4287,-62.48456 60.6426,-99.46289 25.452,-53.35109 69.7025,-97.15411 124.0078,-120.59765 35.0587,-26.05694 28.0504,-78.61199 3.5957,-109.53321 -13.8549,-20.33817 -30.9985,-37.9358 -48.4043,-55.29687 z"
           style="fill:#27251f;fill-opacity:1;stroke:#ffffff;stroke-width:20;stroke-linecap:butt;stroke-linejoin:miter;stroke-miterlimit:4;stroke-dasharray:none;stroke-opacity:1" />
        <path
           inkscape:connector-curvature="0"
           style="fill:#27251f;fill-opacity:1;stroke:none;stroke-width:0.99999994px;stroke-linecap:butt;stroke-linejoin:miter;stroke-opacity:1"
           d="m 1938.0254,539.30469 c -78.4208,60.01518 -10.8828,147.83789 -10.8828,147.83789 -69.2857,37.14285 -99.9989,99.28571 -113.5703,145 -13.5714,45.71429 -35.7149,50 -35.7149,50 -33.2149,-58.12627 -106.2994,-46.74926 -137.5176,-38.6875 -19.2439,22.80753 -40.4031,43.97142 -63.1464,63.15625 -15.4862,29.49751 17.574,60.16163 46.705,57.92578 59.8352,3.45577 124.1207,-5.5856 174.2852,-40.3418 32.6123,-23.95619 48.4287,-62.48456 60.6426,-99.46289 25.452,-53.35109 69.7025,-97.15411 124.0078,-120.59765 35.0587,-26.05694 28.0504,-78.61199 3.5957,-109.53321 -13.8549,-20.33817 -30.9985,-37.9358 -48.4043,-55.29687 z"
           id="path935"
           transform="matrix(0.26458333,0,0,0.26458333,0,32.41665)" />
      </g>
      <g
         transform="translate(-6.9372062,1.5348329)"
         id="g1014">
        <path
           inkscape:connector-curvature="0"
           id="path1010"
           d="m 411.77526,143.22978 6.83366,-25.02603 6.64901,25.11838 24.74898,-6.64898 -18.00767,18.19235 18.19237,18.37705 -24.74902,-6.74133 -6.83367,24.74899 -6.83366,-24.74899 -24.74898,6.83368 18.09998,-18.37705 -18.19235,-18.37705 z"
           style="fill:#cc092f;fill-opacity:1;stroke:#ffffff;stroke-width:5.29166651;stroke-linecap:butt;stroke-linejoin:miter;stroke-miterlimit:4;stroke-dasharray:none;stroke-opacity:1" />
        <path
           style="fill:#cc092f;fill-opacity:1;stroke:none;stroke-width:0.36567536px;stroke-linecap:butt;stroke-linejoin:miter;stroke-opacity:1"
           d="m 411.77526,143.22978 6.83366,-25.02603 6.64901,25.11838 24.74898,-6.64898 -18.00767,18.19235 18.19237,18.37705 -24.74902,-6.74133 -6.83367,24.74899 -6.83366,-24.74899 -24.74898,6.83368 18.09998,-18.37705 -18.19235,-18.37705 z"
           id="path1008"
           inkscape:connector-curvature="0" />
      </g>
    </g>
  </g>
</svg>
