<?xml version="1.0" encoding="UTF-8" standalone="no"?>
<!-- Created with Inkscape (http://www.inkscape.org/) -->

<svg
   xmlns:dc="http://purl.org/dc/elements/1.1/"
   xmlns:cc="http://creativecommons.org/ns#"
   xmlns:rdf="http://www.w3.org/1999/02/22-rdf-syntax-ns#"
   xmlns:svg="http://www.w3.org/2000/svg"
   xmlns="http://www.w3.org/2000/svg"
   xmlns:sodipodi="http://sodipodi.sourceforge.net/DTD/sodipodi-0.dtd"
   xmlns:inkscape="http://www.inkscape.org/namespaces/inkscape"
   width="1000"
   height="1000"
   viewBox="0 0 264.58333 264.58334"
   version="1.1"
   id="svg8"
   inkscape:version="0.92.3 (2405546, 2018-03-11)"
   sodipodi:docname="det.svg">
  <defs
     id="defs2" />
  <sodipodi:namedview
     id="base"
     pagecolor="#ffffff"
     bordercolor="#666666"
     borderopacity="1.0"
     inkscape:pageopacity="0.0"
     inkscape:pageshadow="2"
     inkscape:zoom="0.49497475"
     inkscape:cx="720.03589"
     inkscape:cy="539.97914"
     inkscape:document-units="mm"
     inkscape:current-layer="layer2"
     showgrid="false"
     units="px"
     showborder="true"
     inkscape:snap-global="false"
     inkscape:window-width="1920"
     inkscape:window-height="1054"
     inkscape:window-x="0"
     inkscape:window-y="0"
     inkscape:window-maximized="1"
     inkscape:snap-smooth-nodes="true" />
  <metadata
     id="metadata5">
    <rdf:RDF>
      <cc:Work
         rdf:about="">
        <dc:format>image/svg+xml</dc:format>
        <dc:type
           rdf:resource="http://purl.org/dc/dcmitype/StillImage" />
        <dc:title />
      </cc:Work>
    </rdf:RDF>
  </metadata>
  <g
     inkscape:label="Layer 1"
     inkscape:groupmode="layer"
     id="layer1"
     style="display:inline"
     transform="translate(0,-32.416658)" />
  <g
     inkscape:groupmode="layer"
     id="layer2"
     inkscape:label="Layer 2"
     style="display:inline;opacity:1"
     transform="translate(0,-32.416658)">
    <rect
       style="opacity:1;fill:#ffffff;fill-opacity:1;stroke:none;stroke-width:6.61458302;stroke-linecap:square;stroke-linejoin:round;stroke-miterlimit:4;stroke-dasharray:none;stroke-opacity:1;paint-order:normal"
       id="rect1036"
       width="279.5639"
       height="279.5639"
       x="-4.2763124"
       y="27.057768" />
    <g
       id="g1034"
       transform="matrix(0.96124596,0,0,0.96124596,-541.97163,29.060262)">
      <path
         inkscape:connector-curvature="0"
         id="path997"
         d="m 656.7493,74.754368 c 0,0 -4.11769,-5.89596 -4.02937,-15.310868 0.0883,-9.414913 4.42818,-11.840052 10.72582,-12.676276 6.29765,-0.836223 9.44775,-0.176937 11.07461,1.909632 1.62687,2.086572 -1.48785,3.316836 -0.42431,5.602978 1.06351,2.28614 7.16413,3.041384 10.61998,9.932645 3.45582,6.89126 1.2682,7.159057 1.2682,7.159057 l -13.86095,-3.331817 z"
         style="display:inline;fill:#fa4616;fill-opacity:1;stroke:none;stroke-width:0.26458332px;stroke-linecap:butt;stroke-linejoin:miter;stroke-opacity:1" />
      <path
         inkscape:connector-curvature="0"
         id="path977"
         d="m 706.46901,97.337637 c 0,0 21.62165,34.185923 25.61848,78.039603 l 8.18968,1.28308 -6.81049,-12.4237 9.01303,-3.19308 -7.73787,-11.46063 11.26957,-1.8369 -12.51243,-12.05224 10.60242,-5.15048 -18.77453,-9.32623 7.52268,-2.03154 -16.28877,-9.82611 2.81182,-5.30785 z m -17.41247,21.004993 c 0,0 20.91663,26.82732 22.41755,62.56203 l 10.67796,2.93767 -8.06864,-10.96317 10.84214,1.61145 -9.06351,-11.62527 8.54843,-3.78953 -12.27474,-7.44422 9.1091,-6.14349 -14.76003,-6.94428 6.02729,-5.17846 -12.57025,-5.05741 1.7835,-5.70384 z m -15.65933,17.72078 c 0,0 20.6133,22.75022 14.58121,51.89683 l 6.30277,3.47338 -1.80362,-11.53413 8.41959,-0.57395 -8.56611,-11.29397 10.93818,-1.33899 -13.73717,-10.8573 5.42834,-6.86837 -10.5441,-1.84427 -0.17451,-7.29279 z"
         style="fill:#0c2340;fill-opacity:1;stroke:none;stroke-width:0.26458332px;stroke-linecap:butt;stroke-linejoin:miter;stroke-opacity:1" />
      <path
         inkscape:connector-curvature="0"
         style="display:inline;opacity:1;fill:#fa4616;fill-opacity:1;stroke:#ffffff;stroke-width:6.61458302;stroke-linecap:butt;stroke-linejoin:miter;stroke-miterlimit:4;stroke-dasharray:none;stroke-opacity:1"
         d="m 749.26284,57.380586 c -8.24566,-0.947398 -23.13076,15.99863 -23.13076,15.99863 l 3.96835,-8.126464 c 0,0 -5.26907,1.232565 -9.28059,1.005257 -4.01151,-0.227307 -12.93402,-4.293788 -18.40309,-3.624298 -5.46907,0.669489 -5.36538,4.183166 -10.27112,4.653085 -4.90576,0.469919 -11.11038,-3.799328 -25.92614,-1.593841 -14.81575,2.205488 -17.71792,14.773156 -23.31579,18.658417 -5.59788,3.885264 -13.35549,3.463332 -18.9862,7.613842 -5.63072,4.150502 -10.61706,20.499606 -15.55053,25.544366 -4.93351,5.04475 -14.2828,4.42602 -22.68456,20.08312 -8.40176,15.65708 1.30072,6.89379 1.30072,6.89379 l 26.51182,-7.49032 c 0,0 0.57985,-8.5802 5.0216,-14.45964 1.53352,-2.02989 2.36525,-4.15335 2.99996,-6.36503 4.73729,0.18175 12.52541,0.19036 17.34579,-1.34971 7.29042,-2.32917 7.0504,-9.09157 12.12032,-10.88772 5.06995,-1.79613 25.89039,-0.29607 25.89039,-0.29607 0,0 -5.51215,-3.775404 -14.97437,-4.998358 -1.3518,-0.174403 -2.78431,-0.297132 -4.29274,-0.349181 -12.06736,-0.416673 -14.14877,5.519909 -17.29633,7.015419 -2.25056,1.06931 -11.05991,1.17742 -15.93753,1.15383 1.28508,-2.97188 3.30794,-6.06315 6.97745,-9.265569 2.6142,-2.281433 8.85077,-4.249255 14.19396,-6.50647 4.92362,0.153747 12.95598,0.537247 19.28221,1.494604 9.78119,1.4802 16.2179,6.046986 21.02512,6.372799 4.80726,0.325819 17.62467,-9.667359 17.62467,-9.667359 0,0 -10.73608,4.056904 -16.63713,3.864988 -5.90107,-0.19192 -9.71784,-4.165575 -20.22912,-6.274779 -4.82031,-0.967246 -8.77604,-1.486232 -11.66112,-1.768026 2.53411,-2.230553 5.24342,-4.776936 8.258,-6.79352 9.56566,1.715754 16.6414,9.123592 22.36676,9.832379 6.36585,0.788079 22.26747,-8.015764 22.26747,-8.015764 0,0 -19.52178,3.238351 -23.70004,2.18247 -3.06028,-0.773357 -7.80406,-5.358898 -10.12909,-7.762305 7.90175,-0.559539 16.88606,1.932895 20.63007,1.252707 4.40808,-0.800836 5.26457,-5.542504 20.25218,-2.60983 14.9876,2.932673 10.56683,21.237163 15.24527,24.778753 4.67845,3.541592 10.87797,3.500842 10.87797,3.500842 l -4.58546,-8.646992 9.97067,-6.575249 -10.90779,-1.081156 9.33654,-10.155521 -10.80689,0.27841 c 0,0 11.98657,-11.981937 15.86674,-10.693651 3.88015,1.288285 7.23996,11.130024 6.21948,17.197813 -1.0205,6.067791 -5.66359,4.415895 -8.07597,10.849992 -2.41241,6.434093 1.13673,8.220174 0.14652,11.867914 -0.9902,3.64776 -8.01026,10.31919 -8.01026,10.31919 0,0 10.03905,-4.95145 11.36019,-9.09685 1.32113,-4.14541 -1.43008,-3.67768 0.15628,-7.790251 1.5864,-4.112564 9.34164,-5.845743 11.22097,-14.500309 1.87934,-8.654562 -5.10048,-24.061574 -13.25737,-25.61 -0.12745,-0.02424 -0.25658,-0.04334 -0.38749,-0.05838 z m -81.82718,53.567794 c -3.84347,-0.49345 -8.0549,-0.27722 -11.76957,0.83668 -6.99232,2.09677 -6.19165,6.505 -10.13492,7.90199 -3.9433,1.397 -14.25223,2.00554 -14.25223,2.00554 0,0 18.44855,10.51561 27.09259,7.39366 5.29869,-1.91372 6.58828,-7.53271 8.83902,-10.48579 2.25076,-2.95308 8.94491,-4.81727 8.94491,-4.81727 -2.22381,-1.41145 -5.32852,-2.39944 -8.7198,-2.83481 z m -12.89137,5.54509 2.46569,10.53927 -6.04252,-7.75003 z"
         id="path1022" />
      <path
         inkscape:connector-curvature="0"
         id="path983"
         d="m 749.26284,57.380586 c -8.24566,-0.947398 -23.13076,15.99863 -23.13076,15.99863 l 3.96835,-8.126464 c 0,0 -5.26907,1.232565 -9.28059,1.005257 -4.01151,-0.227307 -12.93402,-4.293788 -18.40309,-3.624298 -5.46907,0.669489 -5.36538,4.183166 -10.27112,4.653085 -4.90576,0.469919 -11.11038,-3.799328 -25.92614,-1.593841 -14.81575,2.205488 -17.71792,14.773156 -23.31579,18.658417 -5.59788,3.885264 -13.35549,3.463332 -18.9862,7.613842 -5.63072,4.150502 -10.61706,20.499606 -15.55053,25.544366 -4.93351,5.04475 -14.2828,4.42602 -22.68456,20.08312 -8.40176,15.65708 1.30072,6.89379 1.30072,6.89379 l 26.51182,-7.49032 c 0,0 0.57985,-8.5802 5.0216,-14.45964 1.53352,-2.02989 2.36525,-4.15335 2.99996,-6.36503 4.73729,0.18175 12.52541,0.19036 17.34579,-1.34971 7.29042,-2.32917 7.0504,-9.09157 12.12032,-10.88772 5.06995,-1.79613 25.89039,-0.29607 25.89039,-0.29607 0,0 -5.51215,-3.775404 -14.97437,-4.998358 -1.3518,-0.174403 -2.78431,-0.297132 -4.29274,-0.349181 -12.06736,-0.416673 -14.14877,5.519909 -17.29633,7.015419 -2.25056,1.06931 -11.05991,1.17742 -15.93753,1.15383 1.28508,-2.97188 3.30794,-6.06315 6.97745,-9.265569 2.6142,-2.281433 8.85077,-4.249255 14.19396,-6.50647 4.92362,0.153747 12.95598,0.537247 19.28221,1.494604 9.78119,1.4802 16.2179,6.046986 21.02512,6.372799 4.80726,0.325819 17.62467,-9.667359 17.62467,-9.667359 0,0 -10.73608,4.056904 -16.63713,3.864988 -5.90107,-0.19192 -9.71784,-4.165575 -20.22912,-6.274779 -4.82031,-0.967246 -8.77604,-1.486232 -11.66112,-1.768026 2.53411,-2.230553 5.24342,-4.776936 8.258,-6.79352 9.56566,1.715754 16.6414,9.123592 22.36676,9.832379 6.36585,0.788079 22.26747,-8.015764 22.26747,-8.015764 0,0 -19.52178,3.238351 -23.70004,2.18247 -3.06028,-0.773357 -7.80406,-5.358898 -10.12909,-7.762305 7.90175,-0.559539 16.88606,1.932895 20.63007,1.252707 4.40808,-0.800836 5.26457,-5.542504 20.25218,-2.60983 14.9876,2.932673 10.56683,21.237163 15.24527,24.778753 4.67845,3.541592 10.87797,3.500842 10.87797,3.500842 l -4.58546,-8.646992 9.97067,-6.575249 -10.90779,-1.081156 9.33654,-10.155521 -10.80689,0.27841 c 0,0 11.98657,-11.981937 15.86674,-10.693651 3.88015,1.288285 7.23996,11.130024 6.21948,17.197813 -1.0205,6.067791 -5.66359,4.415895 -8.07597,10.849992 -2.41241,6.434093 1.13673,8.220174 0.14652,11.867914 -0.9902,3.64776 -8.01026,10.31919 -8.01026,10.31919 0,0 10.03905,-4.95145 11.36019,-9.09685 1.32113,-4.14541 -1.43008,-3.67768 0.15628,-7.790251 1.5864,-4.112564 9.34164,-5.845743 11.22097,-14.500309 1.87934,-8.654562 -5.10048,-24.061574 -13.25737,-25.61 -0.12745,-0.02424 -0.25658,-0.04334 -0.38749,-0.05838 z m -81.82718,53.567794 c -3.84347,-0.49345 -8.0549,-0.27722 -11.76957,0.83668 -6.99232,2.09677 -6.19165,6.505 -10.13492,7.90199 -3.9433,1.397 -14.25223,2.00554 -14.25223,2.00554 0,0 18.44855,10.51561 27.09259,7.39366 5.29869,-1.91372 6.58828,-7.53271 8.83902,-10.48579 2.25076,-2.95308 8.94491,-4.81727 8.94491,-4.81727 -2.22381,-1.41145 -5.32852,-2.39944 -8.7198,-2.83481 z m -12.89137,5.54509 2.46569,10.53927 -6.04252,-7.75003 z"
         style="display:inline;opacity:1;fill:#fa4616;fill-opacity:1;stroke:none;stroke-width:0.26458332px;stroke-linecap:butt;stroke-linejoin:miter;stroke-opacity:1" />
      <path
         style="display:inline;fill:#0c2340;fill-opacity:1;stroke:#ffffff;stroke-width:6.61458302;stroke-linecap:butt;stroke-linejoin:miter;stroke-miterlimit:4;stroke-dasharray:none;stroke-opacity:1"
         d="m 618.93115,136.59233 c 0,0 -13.16109,-0.28316 -24.76109,2.05112 -11.59999,2.33427 -16.77105,2.7714 -15.7378,7.47757 1.03324,4.70617 6.65153,18.05955 13.35344,22.65958 0.0381,0.0262 0.0779,0.0515 0.11642,0.0774 1.62822,5.44571 6.25317,18.9035 12.67097,20.62659 2.08192,0.55897 -3.18509,-12.33165 -4.24809,-17.33648 3.71481,0.71552 8.18549,0.86326 13.47548,0.23108 1.53352,8.27735 10.22877,20.3372 13.45227,20.99045 3.31063,0.6709 -3.49031,-9.43968 -2.98302,-23.02952 2.02434,-0.52952 4.13194,-1.14729 6.33484,-1.87086 19.65076,-6.45449 36.63189,-0.0435 34.06296,14.18122 -2.56893,14.2247 -16.78354,20.27495 -25.8624,23.99857 -0.65189,0.26738 -1.32103,0.49023 -2.00012,0.68186 -6.21299,-3.87601 -12.77497,-10.14362 -14.45276,-9.18225 -1.30865,0.74987 2.84562,5.86355 6.71421,10.17741 -4.27137,0.0907 -8.37443,-0.30084 -11.33779,0.14604 -4.43679,-4.50209 -8.59004,-9.84588 -9.53024,-9.11283 -0.96278,0.75066 2.62771,7.20038 5.30377,11.69875 -2.40885,5.02226 0.20071,18.56758 4.51555,22.10337 4.64562,3.80683 31.4986,4.43785 36.39925,-0.34165 4.90066,-4.77952 15.31543,-27.99759 20.45358,-28.16943 5.13817,-0.17183 9.12474,6.78536 18.27951,11.15043 9.15477,4.36505 30.44244,8.61652 30.44244,8.61652 l -8.56605,-11.29449 c 0,0 27.04985,-0.96006 38.61447,-5.18389 l -15.05851,-6.71202 c 0,0 16.83908,-1.14699 21.27747,-4.36787 -18.63027,0.38671 -43.30289,-6.97657 -43.30289,-6.97657 l 7.37368,12.2237 c -16.27846,-1.20728 -24.43771,-4.91028 -24.43771,-4.91028 l 2.89512,9.24535 c -13.13344,-4.8576 -26.27466,-16.17935 -26.27466,-16.17935 0.0781,-18.0341 -8.07171,-41.39568 -26.2448,-46.87719 -18.17309,-5.48151 -35.63072,5.01487 -35.63072,5.01487 13.78764,-2.60209 24.26568,-0.22801 24.26568,-0.22801 -16.04348,1.24557 -22.63114,8.77889 -22.63114,8.77889 25.91809,-4.87069 30.8012,3.54391 30.8012,3.54391 0,0 -6.86343,-1.11919 -12.43103,0.34604 -5.56758,1.46522 -25.74624,10.00858 -33.34238,6.10578 -7.59614,-3.90279 -11.77711,-7.11313 -8.73573,-14.27728 3.04138,-7.16416 26.76662,-16.07652 26.76662,-16.07652 z"
         id="path1020"
         inkscape:connector-curvature="0" />
      <path
         inkscape:connector-curvature="0"
         id="path1005"
         d="m 618.93115,136.59233 c 0,0 -13.16109,-0.28316 -24.76109,2.05112 -11.59999,2.33427 -16.77105,2.7714 -15.7378,7.47757 1.03324,4.70617 6.65153,18.05955 13.35344,22.65958 0.0381,0.0262 0.0779,0.0515 0.11642,0.0774 1.62822,5.44571 6.25317,18.9035 12.67097,20.62659 2.08192,0.55897 -3.18509,-12.33165 -4.24809,-17.33648 3.71481,0.71552 8.18549,0.86326 13.47548,0.23108 1.53352,8.27735 10.22877,20.3372 13.45227,20.99045 3.31063,0.6709 -3.49031,-9.43968 -2.98302,-23.02952 2.02434,-0.52952 4.13194,-1.14729 6.33484,-1.87086 19.65076,-6.45449 36.63189,-0.0435 34.06296,14.18122 -2.56893,14.2247 -16.78354,20.27495 -25.8624,23.99857 -0.65189,0.26738 -1.32103,0.49023 -2.00012,0.68186 -6.21299,-3.87601 -12.77497,-10.14362 -14.45276,-9.18225 -1.30865,0.74987 2.84562,5.86355 6.71421,10.17741 -4.27137,0.0907 -8.37443,-0.30084 -11.33779,0.14604 -4.43679,-4.50209 -8.59004,-9.84588 -9.53024,-9.11283 -0.96278,0.75066 2.62771,7.20038 5.30377,11.69875 -2.40885,5.02226 0.20071,18.56758 4.51555,22.10337 4.64562,3.80683 31.4986,4.43785 36.39925,-0.34165 4.90066,-4.77952 15.31543,-27.99759 20.45358,-28.16943 5.13817,-0.17183 9.12474,6.78536 18.27951,11.15043 9.15477,4.36505 30.44244,8.61652 30.44244,8.61652 l -8.56605,-11.29449 c 0,0 27.04985,-0.96006 38.61447,-5.18389 l -15.05851,-6.71202 c 0,0 16.83908,-1.14699 21.27747,-4.36787 -18.63027,0.38671 -43.30289,-6.97657 -43.30289,-6.97657 l 7.37368,12.2237 c -16.27846,-1.20728 -24.43771,-4.91028 -24.43771,-4.91028 l 2.89512,9.24535 c -13.13344,-4.8576 -26.27466,-16.17935 -26.27466,-16.17935 0.0781,-18.0341 -8.07171,-41.39568 -26.2448,-46.87719 -18.17309,-5.48151 -35.63072,5.01487 -35.63072,5.01487 13.78764,-2.60209 24.26568,-0.22801 24.26568,-0.22801 -16.04348,1.24557 -22.63114,8.77889 -22.63114,8.77889 25.91809,-4.87069 30.8012,3.54391 30.8012,3.54391 0,0 -6.86343,-1.11919 -12.43103,0.34604 -5.56758,1.46522 -25.74624,10.00858 -33.34238,6.10578 -7.59614,-3.90279 -11.77711,-7.11313 -8.73573,-14.27728 3.04138,-7.16416 26.76662,-16.07652 26.76662,-16.07652 z"
         style="display:inline;fill:#0c2340;fill-opacity:1;stroke:none;stroke-width:0.26458332px;stroke-linecap:butt;stroke-linejoin:miter;stroke-opacity:1" />
      <path
         style="opacity:1;fill:#aaaaaa;fill-opacity:1;stroke:#ffffff;stroke-width:6.61458349;stroke-linecap:square;stroke-linejoin:round;stroke-miterlimit:4;stroke-dasharray:none;stroke-opacity:1;paint-order:normal"
         d="m 790.80924,98.071422 -2.02878,0.10533 0.0111,0.013 a 34.785183,57.654035 0 0 0 -32.76677,57.535198 34.785183,57.654035 0 0 0 6.83203,34.20524 57.654035,34.785183 86.317672 0 1 -8.61745,-32.9153 57.654035,34.785183 86.317672 0 1 24.64577,-58.324878 l -1.56885,0.0814 a 41.619551,57.040695 0 0 0 -41.61993,57.040678 41.619551,57.040695 0 0 0 41.61993,57.0407 l 13.4935,0.52614 a 34.785183,57.654035 0 0 0 34.78506,-57.65405 34.785183,57.654035 0 0 0 -34.78506,-57.654028 z m 4.38064,22.255638 a 21.817407,35.135665 0 0 1 21.81767,35.13581 21.817407,35.135665 0 0 1 -21.81767,35.13483 21.817407,35.135665 0 0 1 -21.81771,-35.13483 21.817407,35.135665 0 0 1 21.81771,-35.13581 z m -0.70058,4.20522 a 19.364045,31.105138 0 0 0 -2.27319,0.23767 c -2.28281,8.38638 -7.19047,19.73999 -7.19047,19.73999 0,0 -4.11596,0.29882 -8.28486,-1.21997 a 19.364045,31.105138 0 0 0 -1.34842,7.52492 c 3.38226,4.29028 6.65475,9.55375 6.65475,9.55375 0,0 -0.37104,11.13519 -0.22904,18.73948 a 19.364045,31.105138 0 0 0 5.10226,5.11659 c -0.11256,-8.82381 3.88891,-14.39243 3.88891,-14.39241 0,0 9.08305,6.31608 14.39149,11.69564 a 19.364045,31.105138 0 0 0 3.36282,-4.59624 c -5.52167,-6.12435 -9.34289,-17.08824 -9.34289,-17.08824 0,0 6.10877,-8.03202 14.13849,-10.99797 a 19.364045,31.105138 0 0 0 -1.41451,-6.60395 c -6.4157,2.41578 -16.31678,1.91764 -16.31678,1.91764 0,0 -0.46944,-12.31757 1.26401,-19.35761 a 19.364045,31.105138 0 0 0 -2.40257,-0.26929 z"
         id="path1024"
         inkscape:connector-curvature="0" />
      <path
         inkscape:connector-curvature="0"
         id="path953"
         d="m 790.80924,98.071422 -2.02878,0.10533 0.0111,0.013 a 34.785183,57.654035 0 0 0 -32.76677,57.535198 34.785183,57.654035 0 0 0 6.83203,34.20524 57.654035,34.785183 86.317672 0 1 -8.61745,-32.9153 57.654035,34.785183 86.317672 0 1 24.64577,-58.324878 l -1.56885,0.0814 a 41.619551,57.040695 0 0 0 -41.61993,57.040678 41.619551,57.040695 0 0 0 41.61993,57.0407 l 13.4935,0.52614 a 34.785183,57.654035 0 0 0 34.78506,-57.65405 34.785183,57.654035 0 0 0 -34.78506,-57.654028 z m 4.38064,22.255638 a 21.817407,35.135665 0 0 1 21.81767,35.13581 21.817407,35.135665 0 0 1 -21.81767,35.13483 21.817407,35.135665 0 0 1 -21.81771,-35.13483 21.817407,35.135665 0 0 1 21.81771,-35.13581 z m -0.70058,4.20522 a 19.364045,31.105138 0 0 0 -2.27319,0.23767 c -2.28281,8.38638 -7.19047,19.73999 -7.19047,19.73999 0,0 -4.11596,0.29882 -8.28486,-1.21997 a 19.364045,31.105138 0 0 0 -1.34842,7.52492 c 3.38226,4.29028 6.65475,9.55375 6.65475,9.55375 0,0 -0.37104,11.13519 -0.22904,18.73948 a 19.364045,31.105138 0 0 0 5.10226,5.11659 c -0.11256,-8.82381 3.88891,-14.39243 3.88891,-14.39241 0,0 9.08305,6.31608 14.39149,11.69564 a 19.364045,31.105138 0 0 0 3.36282,-4.59624 c -5.52167,-6.12435 -9.34289,-17.08824 -9.34289,-17.08824 0,0 6.10877,-8.03202 14.13849,-10.99797 a 19.364045,31.105138 0 0 0 -1.41451,-6.60395 c -6.4157,2.41578 -16.31678,1.91764 -16.31678,1.91764 0,0 -0.46944,-12.31757 1.26401,-19.35761 a 19.364045,31.105138 0 0 0 -2.40257,-0.26929 z"
         style="opacity:1;fill:#aaaaaa;fill-opacity:1;stroke:none;stroke-width:4.59177113;stroke-linecap:square;stroke-linejoin:round;stroke-miterlimit:4;stroke-dasharray:none;stroke-opacity:1;paint-order:normal" />
    </g>
  </g>
</svg>
