<?xml version="1.0" encoding="UTF-8" standalone="no"?>
<!-- Created with Inkscape (http://www.inkscape.org/) -->

<svg
   xmlns:dc="http://purl.org/dc/elements/1.1/"
   xmlns:cc="http://creativecommons.org/ns#"
   xmlns:rdf="http://www.w3.org/1999/02/22-rdf-syntax-ns#"
   xmlns:svg="http://www.w3.org/2000/svg"
   xmlns="http://www.w3.org/2000/svg"
   xmlns:sodipodi="http://sodipodi.sourceforge.net/DTD/sodipodi-0.dtd"
   xmlns:inkscape="http://www.inkscape.org/namespaces/inkscape"
   width="1000"
   height="1000"
   viewBox="0 0 264.58333 264.58334"
   version="1.1"
   id="svg8"
   inkscape:version="0.92.3 (2405546, 2018-03-11)"
   sodipodi:docname="hou.svg">
  <defs
     id="defs2" />
  <sodipodi:namedview
     id="base"
     pagecolor="#ffffff"
     bordercolor="#666666"
     borderopacity="1.0"
     inkscape:pageopacity="0.0"
     inkscape:pageshadow="2"
     inkscape:zoom="0.49497475"
     inkscape:cx="371.56544"
     inkscape:cy="335.10802"
     inkscape:document-units="mm"
     inkscape:current-layer="layer1"
     showgrid="false"
     units="px"
     inkscape:window-width="1920"
     inkscape:window-height="1029"
     inkscape:window-x="1920"
     inkscape:window-y="0"
     inkscape:window-maximized="1"
     inkscape:snap-global="false" />
  <metadata
     id="metadata5">
    <rdf:RDF>
      <cc:Work
         rdf:about="">
        <dc:format>image/svg+xml</dc:format>
        <dc:type
           rdf:resource="http://purl.org/dc/dcmitype/StillImage" />
        <dc:title />
      </cc:Work>
    </rdf:RDF>
  </metadata>
  <g
     inkscape:label="Layer 1"
     inkscape:groupmode="layer"
     id="layer1"
     transform="translate(0,-32.41663)">
    <rect
       style="opacity:1;fill:#ffffff;fill-opacity:1;stroke:none;stroke-width:5.29166651;stroke-linecap:square;stroke-linejoin:round;stroke-miterlimit:4;stroke-dasharray:none;stroke-opacity:1;paint-order:normal"
       id="rect969"
       width="292.55356"
       height="300.86905"
       x="-17.386904"
       y="5.9582977" />
    <g
       id="g967"
       transform="matrix(0.67371498,0,0,0.67371498,-515.37898,-146.19024)">
      <path
         id="path915"
         transform="matrix(0.26458333,0,0,0.26458333,0,32.41663)"
         d="m 3332.998,1301.291 c -80.8686,46.8085 -152.106,152.9471 -158.9863,195.9492 -8.0812,50.5077 22.2231,53.9462 26.2637,72.1289 4.0406,18.1829 -60.7214,127.6365 -48.5996,153.9004 12.1219,26.264 42.6614,3.2243 54.7832,9.2852 12.1218,6.0609 -2.2542,32.1313 1.2812,38.6973 1.3304,2.4706 5.4544,5.2254 15.4844,5.5234 l 10.8613,41.8965 c -6.5651,3.1396 -11.6274,6.5158 -14.0859,10.6133 -8.5714,14.2857 10.7065,38.3621 14.9922,51.9336 4.2857,13.5706 -2.553,50.2686 9.5898,66.6972 12.1429,16.4286 113.9903,-11.4883 113.9903,-11.4883 0,0 3.9282,15.7826 4.4316,36.6094 -0.2063,0.046 -0.4147,0.092 -0.6211,0.1387 l 24.7598,8.2519 292.8574,-98.5703 2.7754,-21.4512 c -6.7894,3.2892 -14.1098,6.7256 -21.9356,10.2852 -9.877,-62.8437 -19.1844,-146.2721 -6.1074,-180.748 17.36,-45.767 59.376,-170.4325 39.377,-268.0664 l -129.8242,-58.5918 -182.8575,-52.8575 z m 3.3692,121.0488 c 83.7341,-0.4839 142.159,30.6959 162.918,97.6602 22.1428,71.4286 -3.5715,252.8566 -10,269.2852 -6.4286,16.4285 -89.6426,124.6425 -89.6426,124.6425 -61.0714,23.5715 -140.3563,34.2858 -148.9278,25 -8.5714,-9.2857 -2.1425,-46.4272 -4.6425,-58.2129 -2.5,-11.7857 -24.2866,-35.7156 -18.5723,-46.7871 5.7143,-11.0714 54.2851,-16.0711 86.7852,-44.6425 32.4999,-28.5715 32.8574,-57.1426 32.8574,-57.1426 -93.5715,35.3571 -126.4292,40.7151 -130.7149,33.5722 -4.2857,-7.1428 10.358,-31.7857 -1.4277,-42.5 -11.7857,-10.7143 -45.2126,14.9334 -53.2148,-2.5 -10,-21.7856 52.0142,-136.5936 49.2363,-153.5136 -2.7779,-16.9201 -20.4849,-14.702 -26.1992,-44.5235 -5.7143,-29.8215 21.7851,-76.0703 21.7851,-76.0703 0,0 19.8206,-18.75 112.6778,-23.75 5.8035,-0.3125 11.4997,-0.4853 17.082,-0.5176 z m 29.9668,103.1914 -142.9375,6.3145 -2.7774,4.5449 22.4766,23.2344 z m -46.6152,46.9278 c -8.0053,-0.089 -16.8361,0.5499 -24.6016,2.8222 -20.7081,6.0609 -42.4258,26.2637 -42.4258,26.2637 19.698,27.2742 42.9309,17.1742 62.6289,8.5879 19.6979,-8.5863 28.7891,-35.3555 28.7891,-35.3555 0,0 -11.049,-2.1704 -24.3906,-2.3183 z m -78.7422,108.5254 c -9.0234,-0.1367 -25.9766,10.8008 -25.9766,10.8008 0,0 16.4289,-6.7849 22.8574,-3.9278 6.4286,2.8572 5.3574,18.9278 5.3574,18.9278 0,0 8.2133,-20.7143 1.0704,-25 -0.8929,-0.5358 -2.0196,-0.7813 -3.3086,-0.8008 z m 95.0527,64.5078 c 0,0 -15.9068,29.6735 -41.6211,46.8164 -16.7676,11.1784 -39.6169,17.431 -55.8945,24.3867 l -10.8946,-39.9512 c 17.7828,-0.6279 50.223,-7.8033 108.4102,-31.2519 z"
         style="opacity:1;fill:#eb6e1f;fill-opacity:1;stroke:none;stroke-width:0.99999994px;stroke-linecap:butt;stroke-linejoin:miter;stroke-opacity:1"
         inkscape:connector-curvature="0" />
      <path
         style="opacity:1;fill:#002d62;fill-opacity:1;stroke:#ffffff;stroke-width:20;stroke-linecap:square;stroke-linejoin:round;stroke-miterlimit:4;stroke-dasharray:none;stroke-opacity:1;paint-order:normal"
         d="m 3417.5156,1106.0312 c -94.9669,0.023 -165.5075,22.362 -171.0879,26.8262 -6.9037,5.523 -30.6867,75.4176 -32.3027,80.1817 a 407.50775,510.36486 0 0 0 -87.3008,58.3574 c -47.181,3.4305 -57.2705,15.2467 -45.3965,26.4609 1.9002,1.7946 6.9041,2.8434 14.4825,3.4883 a 407.50775,510.36486 0 0 0 -143.418,387.2266 407.50775,510.36486 0 0 0 107.4746,344.4394 l 17.207,-2.2637 c -128.4186,-171.9593 -142.8477,-415.8909 -48.3418,-607.0625 21.4234,-44.2763 50.8941,-86.0118 86.4395,-121.4785 56.1002,1.1443 173.3724,-2.637 301.1562,30.6504 109.5846,28.5466 294.2328,107.0492 313.5723,130.7149 16.0737,19.6693 21.5259,83.0253 21.4531,151.832 l 36.8711,7.6602 c -1.6492,-84.0056 -11.5299,-164.0188 -33.3242,-184.4922 -47.1429,-44.2857 -295.0003,-131.4285 -357.8574,-145 -56.9644,-12.2991 -174.9389,-22.8383 -239.6211,-23.1114 -2.3247,-0.01 -4.4844,0.012 -6.666,0.029 26.9378,-21.3803 56.4446,-39.2464 87.8945,-52.373 l 122.9473,16.9687 c 57.9371,-42.3636 126.5534,-68.8178 199.3789,-69.8789 1.8761,-0.027 3.7509,-0.039 5.6269,-0.035 58.1579,0.1337 116.1675,15.3541 167.0567,43.4707 147.5628,81.8861 226.7907,253.7346 226.666,417.416 0.2284,22.3707 -1.0612,44.9088 -3.8067,67.3633 l 14.1094,6.2207 a 407.57387,478.10609 0 0 0 4.9375,-71.6797 407.57387,478.10609 0 0 0 -317.2793,-465.6152 c -18.6911,-13.1423 -63.2084,-36.422 -156.2441,-50.2051 -29.5313,-4.375 -58.0362,-6.1178 -84.627,-6.1114 z"
         id="path950"
         transform="matrix(0.26458333,0,0,0.26458333,0,32.41663)"
         inkscape:connector-curvature="0" />
      <path
         transform="matrix(0.26458333,0,0,0.26458333,0,32.41663)"
         id="ellipse879"
         d="m 3417.5156,1106.0312 c -94.9669,0.023 -165.5075,22.362 -171.0879,26.8262 -6.9037,5.523 -30.6867,75.4176 -32.3027,80.1817 a 407.50775,510.36486 0 0 0 -87.3008,58.3574 c -47.181,3.4305 -57.2705,15.2467 -45.3965,26.4609 1.9002,1.7946 6.9041,2.8434 14.4825,3.4883 a 407.50775,510.36486 0 0 0 -143.418,387.2266 407.50775,510.36486 0 0 0 107.4746,344.4394 l 17.207,-2.2637 c -128.4186,-171.9593 -142.8477,-415.8909 -48.3418,-607.0625 21.4234,-44.2763 50.8941,-86.0118 86.4395,-121.4785 56.1002,1.1443 173.3724,-2.637 301.1562,30.6504 109.5846,28.5466 294.2328,107.0492 313.5723,130.7149 16.0737,19.6693 21.5259,83.0253 21.4531,151.832 l 36.8711,7.6602 c -1.6492,-84.0056 -11.5299,-164.0188 -33.3242,-184.4922 -47.1429,-44.2857 -295.0003,-131.4285 -357.8574,-145 -56.9644,-12.2991 -174.9389,-22.8383 -239.6211,-23.1114 -2.3247,-0.01 -4.4844,0.012 -6.666,0.029 26.9378,-21.3803 56.4446,-39.2464 87.8945,-52.373 l 122.9473,16.9687 c 57.9371,-42.3636 126.5534,-68.8178 199.3789,-69.8789 1.8761,-0.027 3.7509,-0.039 5.6269,-0.035 58.1579,0.1337 116.1675,15.3541 167.0567,43.4707 147.5628,81.8861 226.7907,253.7346 226.666,417.416 0.2284,22.3707 -1.0612,44.9088 -3.8067,67.3633 l 14.1094,6.2207 a 407.57387,478.10609 0 0 0 4.9375,-71.6797 407.57387,478.10609 0 0 0 -317.2793,-465.6152 c -18.6911,-13.1423 -63.2084,-36.422 -156.2441,-50.2051 -29.5313,-4.375 -58.0362,-6.1178 -84.627,-6.1114 z"
         style="opacity:1;fill:#002d62;fill-opacity:1;stroke:none;stroke-width:4.12733364;stroke-linecap:square;stroke-linejoin:round;stroke-miterlimit:4;stroke-dasharray:none;stroke-opacity:1;paint-order:normal"
         inkscape:connector-curvature="0" />
      <path
         style="opacity:1;fill:#eb6e1f;fill-opacity:1;stroke:#ffffff;stroke-width:20;stroke-linecap:butt;stroke-linejoin:miter;stroke-miterlimit:4;stroke-dasharray:none;stroke-opacity:1"
         d="m 3751.4453,1617.3711 c -0.2504,97.1249 -11.395,204.3665 -19.3027,214.7715 -5.3306,7.0138 -32.424,21.8647 -71.3028,39.5488 -5.3603,-34.1056 -10.5441,-74.2627 -12.082,-109.3789 l -97.3301,24.8301 -172.8554,155.7148 -18.168,2.9278 c 1.0997,6.608 2.3317,16.1663 2.5996,27.2519 -121.3297,27.361 -258.4164,44.7019 -289.4316,44.1055 -37.1429,-0.7144 -45.0018,9.9994 -32.1446,19.2851 4.1646,3.0078 12.1159,5.1075 26.0567,5.8555 a 407.50774,510.36485 0 0 0 66.5957,69.5703 c -4.1658,6.7584 -9.8767,20.3116 -3.6172,37.6992 9.0914,25.2538 62.6298,52.5293 182.8379,42.4278 120.2082,-10.1015 325.2684,-81.8229 430.3242,-126.2696 105.0559,-44.4467 208.0926,-101.0157 211.123,-141.4218 2.3338,-31.1165 -25.8192,-43.6262 -38.9179,-47.75 a 407.57386,478.10608 0 0 0 53.9199,-167.4512 l -15.1797,-0.7109 c -14.0314,92.5373 -53.008,182.6708 -114.541,252.6269 -37.498,23.0143 -146.0274,83.3761 -314.5977,125.9199 -170.4222,43.0114 -299.69,43.6423 -343.9668,42.2285 -30.1841,-19.0349 -57.5975,-42.4161 -80.7148,-69.1406 -4.9776,-5.7313 -9.7949,-11.5725 -14.4902,-17.4941 32.1972,-0.6142 84.4091,-5.6851 168.0254,-17.5176 151.4285,-21.4286 484.9996,-140.7143 512.1425,-180 14.4349,-20.8925 23.6175,-121.9843 21.961,-218.7266 z"
         transform="matrix(0.26458333,0,0,0.26458333,0,32.41663)"
         id="path952"
         inkscape:connector-curvature="0" />
      <path
         id="path935"
         transform="matrix(0.26458333,0,0,0.26458333,0,32.41663)"
         d="m 3751.4453,1617.3711 c -0.2504,97.1249 -11.395,204.3665 -19.3027,214.7715 -5.3306,7.0138 -32.424,21.8647 -71.3028,39.5488 -5.3603,-34.1056 -10.5441,-74.2627 -12.082,-109.3789 l -97.3301,24.8301 -172.8554,155.7148 -18.168,2.9278 c 1.0997,6.608 2.3317,16.1663 2.5996,27.2519 -121.3297,27.361 -258.4164,44.7019 -289.4316,44.1055 -37.1429,-0.7144 -45.0018,9.9994 -32.1446,19.2851 4.1646,3.0078 12.1159,5.1075 26.0567,5.8555 a 407.50774,510.36485 0 0 0 66.5957,69.5703 c -4.1658,6.7584 -9.8767,20.3116 -3.6172,37.6992 9.0914,25.2538 62.6298,52.5293 182.8379,42.4278 120.2082,-10.1015 325.2684,-81.8229 430.3242,-126.2696 105.0559,-44.4467 208.0926,-101.0157 211.123,-141.4218 2.3338,-31.1165 -25.8192,-43.6262 -38.9179,-47.75 a 407.57386,478.10608 0 0 0 53.9199,-167.4512 l -15.1797,-0.7109 c -14.0314,92.5373 -53.008,182.6708 -114.541,252.6269 -37.498,23.0143 -146.0274,83.3761 -314.5977,125.9199 -170.4222,43.0114 -299.69,43.6423 -343.9668,42.2285 -30.1841,-19.0349 -57.5975,-42.4161 -80.7148,-69.1406 -4.9776,-5.7313 -9.7949,-11.5725 -14.4902,-17.4941 32.1972,-0.6142 84.4091,-5.6851 168.0254,-17.5176 151.4285,-21.4286 484.9996,-140.7143 512.1425,-180 14.4349,-20.8925 23.6175,-121.9843 21.961,-218.7266 z"
         style="opacity:1;fill:#eb6e1f;fill-opacity:1;stroke:none;stroke-width:0.99999994px;stroke-linecap:butt;stroke-linejoin:miter;stroke-opacity:1"
         inkscape:connector-curvature="0" />
      <path
         style="fill:#f4911e;fill-opacity:1;stroke:#ffffff;stroke-width:5.29166651;stroke-linecap:butt;stroke-linejoin:miter;stroke-miterlimit:4;stroke-dasharray:none;stroke-opacity:1"
         d="m 1014.0206,538.07707 47.8412,-133.10023 49.4449,120.80584 -123.21126,-66.8174 145.39456,-8.81988 z"
         id="path948"
         inkscape:connector-curvature="0" />
      <path
         inkscape:connector-curvature="0"
         id="path946"
         d="m 1014.0206,538.07707 47.8412,-133.10023 49.4449,120.80584 -123.21126,-66.8174 145.39456,-8.81988 z"
         style="fill:#f4911e;fill-opacity:1;stroke:none;stroke-width:0.26458332px;stroke-linecap:butt;stroke-linejoin:miter;stroke-opacity:1" />
      <path
         id="path954"
         transform="matrix(0.26458333,0,0,0.26458333,0,32.41663)"
         d="m 3665.6113,1660.3203 -162.9804,41.0703 c -4.5318,44.8373 -10.6415,80.9835 -13.3457,87.8946 -6.4286,16.4285 -89.6426,124.6425 -89.6426,124.6425 -61.0714,23.5715 -140.3563,34.2858 -148.9278,25 -8.5714,-9.2857 -2.1425,-46.4272 -4.6425,-58.2129 -2.5,-11.7857 -24.2866,-35.7156 -18.5723,-46.7871 5.7143,-11.0714 54.2851,-16.0711 86.7852,-44.6425 21.49,-18.8925 28.8946,-37.7313 31.4668,-48.3633 l -133.8926,33.7402 c 2.4606,1.1172 6.0897,1.9566 11.3652,2.1133 l 10.8613,41.8965 c -6.5651,3.1396 -11.6274,6.5158 -14.0859,10.6133 -8.5714,14.2857 10.7065,38.3621 14.9922,51.9336 4.2857,13.5705 -2.553,50.2686 9.5898,66.6972 12.1429,16.4286 113.9903,-11.4883 113.9903,-11.4883 0,0 3.9282,15.7826 4.4316,36.6094 -0.2063,0.046 -0.4147,0.092 -0.6211,0.1387 l 24.7598,8.2519 292.8574,-98.5703 2.7754,-21.4512 c -6.7894,3.2892 -14.1098,6.7256 -21.9356,10.2852 -9.877,-62.8437 -19.1844,-146.2721 -6.1074,-180.748 3.0273,-7.9811 6.8116,-18.4051 10.8789,-30.6231 z m -329.582,85.1719 c 0,0 -15.9068,29.6735 -41.6211,46.8164 -16.7676,11.1784 -39.6169,17.431 -55.8945,24.3867 l -10.8946,-39.9512 c 17.7828,-0.6279 50.223,-7.8033 108.4102,-31.2519 z"
         style="opacity:1;fill:#eb6e1f;fill-opacity:1;stroke:none;stroke-width:0.99999994px;stroke-linecap:butt;stroke-linejoin:miter;stroke-opacity:1"
         inkscape:connector-curvature="0" />
    </g>
  </g>
</svg>
