<?xml version="1.0" encoding="UTF-8" standalone="no"?>
<!-- Created with Inkscape (http://www.inkscape.org/) -->

<svg
   xmlns:dc="http://purl.org/dc/elements/1.1/"
   xmlns:cc="http://creativecommons.org/ns#"
   xmlns:rdf="http://www.w3.org/1999/02/22-rdf-syntax-ns#"
   xmlns:svg="http://www.w3.org/2000/svg"
   xmlns="http://www.w3.org/2000/svg"
   xmlns:sodipodi="http://sodipodi.sourceforge.net/DTD/sodipodi-0.dtd"
   xmlns:inkscape="http://www.inkscape.org/namespaces/inkscape"
   width="1000"
   height="1000"
   viewBox="0 0 264.58333 264.58334"
   version="1.1"
   id="svg8"
   inkscape:version="0.92.3 (2405546, 2018-03-11)"
   sodipodi:docname="mia.svg">
  <defs
     id="defs2" />
  <sodipodi:namedview
     id="base"
     pagecolor="#ffffff"
     bordercolor="#666666"
     borderopacity="1.0"
     inkscape:pageopacity="0.0"
     inkscape:pageshadow="2"
     inkscape:zoom="0.55154329"
     inkscape:cx="502.94499"
     inkscape:cy="442.11467"
     inkscape:document-units="mm"
     inkscape:current-layer="layer1"
     showgrid="false"
     units="px"
     inkscape:snap-smooth-nodes="false"
     inkscape:snap-global="false"
     inkscape:window-width="1920"
     inkscape:window-height="1029"
     inkscape:window-x="1920"
     inkscape:window-y="0"
     inkscape:window-maximized="1" />
  <metadata
     id="metadata5">
    <rdf:RDF>
      <cc:Work
         rdf:about="">
        <dc:format>image/svg+xml</dc:format>
        <dc:type
           rdf:resource="http://purl.org/dc/dcmitype/StillImage" />
        <dc:title></dc:title>
      </cc:Work>
    </rdf:RDF>
  </metadata>
  <g
     inkscape:label="Layer 1"
     inkscape:groupmode="layer"
     id="layer1"
     transform="translate(0,-32.41665)">
    <rect
       style="opacity:1;fill:#ffffff;fill-opacity:1;stroke:none;stroke-width:7.9375;stroke-linecap:square;stroke-linejoin:round;stroke-miterlimit:4;stroke-dasharray:none;stroke-opacity:1;paint-order:normal"
       id="rect986"
       width="283.991"
       height="284.95044"
       x="-5.2768598"
       y="23.082983" />
    <g
       id="g984"
       transform="matrix(0.87040371,0,0,0.87040371,-105.49881,-183.61919)">
      <path
         inkscape:connector-curvature="0"
         id="path896"
         d="m 387.41591,285.88396 c -46.83469,15.19246 -90.24618,95.22003 -90.24618,95.22003 -50.64879,4.9137 -69.16994,47.625 -69.16994,47.625 l 58.69771,-4.1274 -1.32085,-15.18718 20.6375,0.26458 3.61529,13.3103 15.13239,-1.06402 97.51756,-1.88981 c -11.19185,-1.05948 -23.49542,-6.26569 -26.97353,-9.66917 -2.49058,-2.43716 -3.80791,-8.07299 -1.35083,-10.36629 0.26699,-0.24597 0.56428,-0.45817 0.88831,-0.63408 -0.35615,0.19068 -0.73035,0.3307 -1.11723,0.41807 -3.28326,0.71854 -6.75851,-2.41641 -7.76232,-7.00216 -1.00375,-4.58581 0.84413,-8.88591 4.1274,-9.60458 0.17536,-0.0369 0.35295,-0.0629 0.53226,-0.078 -3.28742,-0.28538 -5.72193,-4.18031 -5.48907,-8.78189 0.23312,-4.51552 2.9564,-8.10922 6.19704,-8.1778 -0.0517,-0.007 -0.10319,-0.0146 -0.15451,-0.0232 -3.2942,-0.66687 -5.20965,-4.93736 -4.27829,-9.53844 0.89479,-4.41393 4.09906,-7.5613 7.30549,-7.17579 -2.86965,-1.13179 -4.38579,-5.11921 -3.54036,-9.31106 0.87548,-4.31404 3.96401,-7.43463 7.11792,-7.19181 -2.8248,-0.86955 -4.77758,-4.41614 -4.66381,-8.47028 0.12608,-4.34266 2.57644,-7.91654 5.68132,-8.28632 -2.71582,-0.54124 -5.1068,-3.37601 -5.90558,-7.00164 -0.87818,-3.99683 0.40749,-7.87352 3.05925,-9.22476 -2.83012,0.60888 -6.23642,-1.37286 -8.22328,-4.7842 -1.89508,-3.26291 -2.02282,-7.02901 -0.31366,-9.24802 z"
         style="opacity:1;fill:#000000;fill-opacity:1;stroke:none;stroke-width:0.26458332px;stroke-linecap:butt;stroke-linejoin:miter;stroke-opacity:1" />
      <path
         style="opacity:1;fill:#00a3e0;fill-opacity:1;stroke:#ffffff;stroke-width:7.9375;stroke-linecap:butt;stroke-linejoin:miter;stroke-miterlimit:4;stroke-dasharray:none;stroke-opacity:1"
         d="m 292.40793,400.0094 c -11.99306,-0.0744 -17.84697,2.23242 -26.37978,7.59024 -11.37708,7.14375 -20.6375,8.59896 -32.27917,8.86354 -11.64166,0.26458 -109.5375,1.5875 -109.5375,1.5875 0,0 26.59253,5.14077 45.48849,7.76001 18.89596,2.61924 69.51041,3.87138 82.04536,5.55517 12.53496,1.6838 28.57032,4.94107 28.57032,4.94107 -17.4625,0.79375 -48.94792,16.66875 -48.94792,16.66875 0,0 20.6375,1.05833 29.63334,3.43958 8.99583,2.38125 17.19791,7.67292 27.51666,9.525 10.31875,1.85209 21.43125,4.23334 37.30625,-6.61458 15.875,-10.84792 23.01875,-37.83542 20.6375,-44.97917 -2.38125,-7.14375 -16.93333,-11.37708 -39.6875,-13.49375 -5.68854,-0.52916 -10.36836,-0.81855 -14.36605,-0.84336 z m 2.90732,4.22817 c 4.14218,-1.9e-4 7.50022,3.35761 7.50033,7.4998 1.8e-4,4.14238 -3.35794,7.5005 -7.50033,7.50032 -4.14219,-1.2e-4 -7.49999,-3.35814 -7.4998,-7.50032 0.003,-1.81174 0.66003,-3.56146 1.85208,-4.9258 -0.19185,0.36054 -0.29244,0.76259 -0.293,1.17099 -5e-5,1.38079 1.11932,2.50016 2.5001,2.5001 1.38078,6e-5 2.50016,-1.11931 2.5001,-2.5001 -2.3e-4,-1.38059 -1.1195,-2.49965 -2.5001,-2.49959 -0.33065,5.3e-4 -0.65786,0.0668 -0.96274,0.19482 1.27903,-0.93274 2.82036,-1.43688 4.40336,-1.44022 z"
         id="path935"
         inkscape:connector-curvature="0"
         sodipodi:nodetypes="ssscssccssssssccccccccccc" />
      <path
         sodipodi:nodetypes="ssscssccssssssccccccccccc"
         inkscape:connector-curvature="0"
         id="path927"
         d="m 292.40793,400.0094 c -11.99306,-0.0744 -17.84697,2.23242 -26.37978,7.59024 -11.37708,7.14375 -20.6375,8.59896 -32.27917,8.86354 -11.64166,0.26458 -109.5375,1.5875 -109.5375,1.5875 0,0 26.59253,5.14077 45.48849,7.76001 18.89596,2.61924 69.51041,3.87138 82.04536,5.55517 12.53496,1.6838 28.57032,4.94107 28.57032,4.94107 -17.4625,0.79375 -48.94792,16.66875 -48.94792,16.66875 0,0 20.6375,1.05833 29.63334,3.43958 8.99583,2.38125 17.19791,7.67292 27.51666,9.525 10.31875,1.85209 21.43125,4.23334 37.30625,-6.61458 15.875,-10.84792 23.01875,-37.83542 20.6375,-44.97917 -2.38125,-7.14375 -16.93333,-11.37708 -39.6875,-13.49375 -5.68854,-0.52916 -10.36836,-0.81855 -14.36605,-0.84336 z m 2.90732,4.22817 c 4.14218,-1.9e-4 7.50022,3.35761 7.50033,7.4998 1.8e-4,4.14238 -3.35794,7.5005 -7.50033,7.50032 -4.14219,-1.2e-4 -7.49999,-3.35814 -7.4998,-7.50032 0.003,-1.81174 0.66003,-3.56146 1.85208,-4.9258 -0.19185,0.36054 -0.29244,0.76259 -0.293,1.17099 -5e-5,1.38079 1.11932,2.50016 2.5001,2.5001 1.38078,6e-5 2.50016,-1.11931 2.5001,-2.5001 -2.3e-4,-1.38059 -1.1195,-2.49965 -2.5001,-2.49959 -0.33065,5.3e-4 -0.65786,0.0668 -0.96274,0.19482 1.27903,-0.93274 2.82036,-1.43688 4.40336,-1.44022 z"
         style="opacity:1;fill:#00a3e0;fill-opacity:1;stroke:none;stroke-width:0.26458332px;stroke-linecap:butt;stroke-linejoin:miter;stroke-opacity:1" />
      <g
         transform="matrix(0.8563941,0,0,0.8563941,52.236909,109.78993)"
         id="g975">
        <path
           inkscape:connector-curvature="0"
           id="path968"
           d="m 378.47581,351.67891 c -4.11805,1.15214 -7.52109,5.95424 -12.2587,4.26277 -12.02314,-1.34959 -22.54905,7.62348 -28.65578,17.14953 -5.60069,9.23663 -5.75452,21.10674 -1.13632,30.78094 2.02874,-4.39081 3.05948,-10.23711 6.17501,-14.12795 a 32.671198,32.671198 0 0 0 -0.30105,3.99903 32.671198,32.671198 0 0 0 32.67117,32.67117 32.671198,32.671198 0 0 0 32.67115,-32.67117 32.671198,32.671198 0 0 0 -25.52899,-31.79998 c 1.35963,-2.36457 3.79144,-4.73903 3.30878,-7.52497 -1.36801,-2.23511 -4.58697,-2.60187 -6.94527,-2.73937 z m 0.46563,2.55631 3.61659,1.28313 -3.05643,5.90881 -2.1934,4.24037 3.1499,1.04997 -3.03296,1.39971 0.69986,3.49964 -3.26647,-2.68284 -2.56627,1.8664 0.69985,-3.73316 -1.74981,-1.16655 2.56625,-0.93302 1.71214,-3.86824 1.43776,-3.24799 -6.45262,3.56362 h -6.9e-4 l -1.36275,0.75282 c 2.33313,4.54961 -2.33323,14.23184 -7.2328,17.49821 -0.15312,0.10208 -0.31096,0.20039 -0.47309,0.29539 -0.16042,0.094 -0.32509,0.1848 -0.4937,0.27225 -0.0503,0.0261 -0.10331,0.0499 -0.15427,0.0754 -0.12102,0.0606 -0.24167,0.12124 -0.36646,0.17879 -0.0547,0.0252 -0.11165,0.0486 -0.16705,0.0732 -0.12364,0.055 -0.24698,0.11047 -0.37392,0.16279 -0.0651,0.0269 -0.13272,0.0517 -0.19869,0.0778 -0.12063,0.0479 -0.24069,0.0962 -0.36397,0.14182 -0.0679,0.0251 -0.13789,0.0483 -0.20652,0.0729 -0.12411,0.0442 -0.2478,0.0889 -0.37426,0.13115 -0.0619,0.0207 -0.12528,0.0399 -0.18768,0.06 -0.13895,0.0449 -0.27799,0.0899 -0.41942,0.13258 -0.0474,0.0143 -0.0959,0.0279 -0.14359,0.042 -0.1519,0.0449 -0.30413,0.0896 -0.45851,0.13222 -0.0633,0.0175 -0.12786,0.0337 -0.19159,0.0508 -0.15003,0.0402 -0.3001,0.0804 -0.45212,0.11871 -0.003,6.9e-4 -0.007,0.002 -0.0107,0.003 -0.0247,0.006 -0.0499,0.012 -0.0746,0.0182 -0.1808,0.0451 -0.36244,0.0896 -0.54561,0.13223 -0.0344,0.008 -0.0693,0.0155 -0.10378,0.0234 -0.39487,0.0908 -0.79425,0.17647 -1.19675,0.25806 -0.0574,0.0116 -0.11556,0.0223 -0.17311,0.0338 -3.80159,0.75862 -7.82431,1.18408 -10.41113,2.34412 -0.29294,0.13136 -0.56714,0.27219 -0.82071,0.42404 -10e-4,6.8e-4 -0.002,10e-4 -0.003,0.002 a 32.671198,32.671198 0 0 0 0,3.4e-4 c -0.061,0.0366 -0.12486,0.0716 -0.18341,0.10949 -3.96632,2.56645 -6.76612,10.49893 -6.76612,10.49893 0,0 -4.54975,-14.69873 8.74911,-27.88092 13.29885,-13.1822 23.33132,-8.28242 23.33132,-8.28242 4.31629,-1.04991 10.26575,-5.13289 10.26575,-5.13289 z m 6.95698,44.76423 a 2.4073513,2.4073513 0 0 1 2.40738,2.40738 2.4073513,2.4073513 0 0 1 -2.40738,2.4074 2.4073513,2.4073513 0 0 1 -2.40738,-2.4074 2.4073513,2.4073513 0 0 1 2.40738,-2.40738 z m -17.96491,3.96634 a 2.4073513,2.4073513 0 0 1 2.40738,2.40738 2.4073513,2.4073513 0 0 1 -2.40738,2.40738 2.4073513,2.4073513 0 0 1 -2.40738,-2.40738 2.4073513,2.4073513 0 0 1 2.40738,-2.40738 z m 27.18073,0.23316 a 2.4073513,2.4073513 0 0 1 2.40738,2.40738 2.4073513,2.4073513 0 0 1 -2.40738,2.40738 2.4073513,2.4073513 0 0 1 -2.40704,-2.40738 2.4073513,2.4073513 0 0 1 2.40704,-2.40738 z m -14.93197,4.43303 a 2.4073513,2.4073513 0 0 1 2.40738,2.40738 2.4073513,2.4073513 0 0 1 -2.40738,2.40738 2.4073513,2.4073513 0 0 1 -2.40737,-2.40738 2.4073513,2.4073513 0 0 1 2.40737,-2.40738 z m 9.33274,4.89971 a 2.4073513,2.4073513 0 0 1 2.40738,2.40738 2.4073513,2.4073513 0 0 1 -2.40738,2.40738 2.4073513,2.4073513 0 0 1 -2.40738,-2.40738 2.4073513,2.4073513 0 0 1 2.40738,-2.40738 z m -25.89793,0.23318 a 2.4073513,2.4073513 0 0 1 2.40738,2.40738 2.4073513,2.4073513 0 0 1 -2.40738,2.40738 2.4073513,2.4073513 0 0 1 -2.40738,-2.40738 2.4073513,2.4073513 0 0 1 2.40738,-2.40738 z m 11.89901,3.96632 a 2.4073513,2.4073513 0 0 1 2.40738,2.40738 2.4073513,2.4073513 0 0 1 -2.40738,2.40738 2.4073513,2.4073513 0 0 1 -2.4074,-2.40738 2.4073513,2.4073513 0 0 1 2.4074,-2.40738 z"
           style="opacity:1;fill:#ff6600;fill-opacity:1;stroke:#ffffff;stroke-width:7.9375;stroke-linecap:square;stroke-linejoin:round;stroke-miterlimit:4;stroke-dasharray:none;stroke-opacity:1;paint-order:normal" />
        <path
           style="opacity:1;fill:#ff6600;fill-opacity:1;stroke:none;stroke-width:5.5033021;stroke-linecap:square;stroke-linejoin:round;stroke-miterlimit:4;stroke-dasharray:none;stroke-opacity:1;paint-order:normal"
           d="m 378.47581,351.67891 c -4.11805,1.15214 -7.52109,5.95424 -12.2587,4.26277 -12.02314,-1.34959 -22.54905,7.62348 -28.65578,17.14953 -5.60069,9.23663 -5.75452,21.10674 -1.13632,30.78094 2.02874,-4.39081 3.05948,-10.23711 6.17501,-14.12795 a 32.671198,32.671198 0 0 0 -0.30105,3.99903 32.671198,32.671198 0 0 0 32.67117,32.67117 32.671198,32.671198 0 0 0 32.67115,-32.67117 32.671198,32.671198 0 0 0 -25.52899,-31.79998 c 1.35963,-2.36457 3.79144,-4.73903 3.30878,-7.52497 -1.36801,-2.23511 -4.58697,-2.60187 -6.94527,-2.73937 z m 0.46563,2.55631 3.61659,1.28313 -3.05643,5.90881 -2.1934,4.24037 3.1499,1.04997 -3.03296,1.39971 0.69986,3.49964 -3.26647,-2.68284 -2.56627,1.8664 0.69985,-3.73316 -1.74981,-1.16655 2.56625,-0.93302 1.71214,-3.86824 1.43776,-3.24799 -6.45262,3.56362 h -6.9e-4 l -1.36275,0.75282 c 2.33313,4.54961 -2.33323,14.23184 -7.2328,17.49821 -0.15312,0.10208 -0.31096,0.20039 -0.47309,0.29539 -0.16042,0.094 -0.32509,0.1848 -0.4937,0.27225 -0.0503,0.0261 -0.10331,0.0499 -0.15427,0.0754 -0.12102,0.0606 -0.24167,0.12124 -0.36646,0.17879 -0.0547,0.0252 -0.11165,0.0486 -0.16705,0.0732 -0.12364,0.055 -0.24698,0.11047 -0.37392,0.16279 -0.0651,0.0269 -0.13272,0.0517 -0.19869,0.0778 -0.12063,0.0479 -0.24069,0.0962 -0.36397,0.14182 -0.0679,0.0251 -0.13789,0.0483 -0.20652,0.0729 -0.12411,0.0442 -0.2478,0.0889 -0.37426,0.13115 -0.0619,0.0207 -0.12528,0.0399 -0.18768,0.06 -0.13895,0.0449 -0.27799,0.0899 -0.41942,0.13258 -0.0474,0.0143 -0.0959,0.0279 -0.14359,0.042 -0.1519,0.0449 -0.30413,0.0896 -0.45851,0.13222 -0.0633,0.0175 -0.12786,0.0337 -0.19159,0.0508 -0.15003,0.0402 -0.3001,0.0804 -0.45212,0.11871 -0.003,6.9e-4 -0.007,0.002 -0.0107,0.003 -0.0247,0.006 -0.0499,0.012 -0.0746,0.0182 -0.1808,0.0451 -0.36244,0.0896 -0.54561,0.13223 -0.0344,0.008 -0.0693,0.0155 -0.10378,0.0234 -0.39487,0.0908 -0.79425,0.17647 -1.19675,0.25806 -0.0574,0.0116 -0.11556,0.0223 -0.17311,0.0338 -3.80159,0.75862 -7.82431,1.18408 -10.41113,2.34412 -0.29294,0.13136 -0.56714,0.27219 -0.82071,0.42404 -10e-4,6.8e-4 -0.002,10e-4 -0.003,0.002 a 32.671198,32.671198 0 0 0 0,3.4e-4 c -0.061,0.0366 -0.12486,0.0716 -0.18341,0.10949 -3.96632,2.56645 -6.76612,10.49893 -6.76612,10.49893 0,0 -4.54975,-14.69873 8.74911,-27.88092 13.29885,-13.1822 23.33132,-8.28242 23.33132,-8.28242 4.31629,-1.04991 10.26575,-5.13289 10.26575,-5.13289 z m 6.95698,44.76423 a 2.4073513,2.4073513 0 0 1 2.40738,2.40738 2.4073513,2.4073513 0 0 1 -2.40738,2.4074 2.4073513,2.4073513 0 0 1 -2.40738,-2.4074 2.4073513,2.4073513 0 0 1 2.40738,-2.40738 z m -17.96491,3.96634 a 2.4073513,2.4073513 0 0 1 2.40738,2.40738 2.4073513,2.4073513 0 0 1 -2.40738,2.40738 2.4073513,2.4073513 0 0 1 -2.40738,-2.40738 2.4073513,2.4073513 0 0 1 2.40738,-2.40738 z m 27.18073,0.23316 a 2.4073513,2.4073513 0 0 1 2.40738,2.40738 2.4073513,2.4073513 0 0 1 -2.40738,2.40738 2.4073513,2.4073513 0 0 1 -2.40704,-2.40738 2.4073513,2.4073513 0 0 1 2.40704,-2.40738 z m -14.93197,4.43303 a 2.4073513,2.4073513 0 0 1 2.40738,2.40738 2.4073513,2.4073513 0 0 1 -2.40738,2.40738 2.4073513,2.4073513 0 0 1 -2.40737,-2.40738 2.4073513,2.4073513 0 0 1 2.40737,-2.40738 z m 9.33274,4.89971 a 2.4073513,2.4073513 0 0 1 2.40738,2.40738 2.4073513,2.4073513 0 0 1 -2.40738,2.40738 2.4073513,2.4073513 0 0 1 -2.40738,-2.40738 2.4073513,2.4073513 0 0 1 2.40738,-2.40738 z m -25.89793,0.23318 a 2.4073513,2.4073513 0 0 1 2.40738,2.40738 2.4073513,2.4073513 0 0 1 -2.40738,2.40738 2.4073513,2.4073513 0 0 1 -2.40738,-2.40738 2.4073513,2.4073513 0 0 1 2.40738,-2.40738 z m 11.89901,3.96632 a 2.4073513,2.4073513 0 0 1 2.40738,2.40738 2.4073513,2.4073513 0 0 1 -2.40738,2.40738 2.4073513,2.4073513 0 0 1 -2.4074,-2.40738 2.4073513,2.4073513 0 0 1 2.4074,-2.40738 z"
           id="path937"
           inkscape:connector-curvature="0" />
        <path
           style="fill:#ffffff;fill-opacity:1;stroke:none;stroke-width:0.26458332px;stroke-linecap:butt;stroke-linejoin:miter;stroke-opacity:1"
           d="m 338.19875,382.98882 7.43558,-13.67187 14.27149,-8.75479 6.95587,0.47971 1.55906,7.07578 -6.83593,9.47436 z"
           id="path970"
           inkscape:connector-curvature="0" />
      </g>
    </g>
  </g>
</svg>
