<?xml version="1.0" encoding="UTF-8" standalone="no"?>
<!-- Created with Inkscape (http://www.inkscape.org/) -->

<svg
   xmlns:dc="http://purl.org/dc/elements/1.1/"
   xmlns:cc="http://creativecommons.org/ns#"
   xmlns:rdf="http://www.w3.org/1999/02/22-rdf-syntax-ns#"
   xmlns:svg="http://www.w3.org/2000/svg"
   xmlns="http://www.w3.org/2000/svg"
   xmlns:sodipodi="http://sodipodi.sourceforge.net/DTD/sodipodi-0.dtd"
   xmlns:inkscape="http://www.inkscape.org/namespaces/inkscape"
   width="1000"
   height="1000"
   viewBox="0 0 264.58333 264.58334"
   version="1.1"
   id="svg8"
   inkscape:version="0.92.3 (2405546, 2018-03-11)"
   sodipodi:docname="min.svg">
  <defs
     id="defs2" />
  <sodipodi:namedview
     id="base"
     pagecolor="#ffffff"
     bordercolor="#666666"
     borderopacity="1.0"
     inkscape:pageopacity="0.0"
     inkscape:pageshadow="2"
     inkscape:zoom="0.64"
     inkscape:cx="630.25537"
     inkscape:cy="488.1894"
     inkscape:document-units="mm"
     inkscape:current-layer="layer1"
     showgrid="false"
     units="px"
     inkscape:snap-global="false"
     inkscape:window-width="1920"
     inkscape:window-height="1029"
     inkscape:window-x="1920"
     inkscape:window-y="0"
     inkscape:window-maximized="1"
     inkscape:snap-object-midpoints="true" />
  <metadata
     id="metadata5">
    <rdf:RDF>
      <cc:Work
         rdf:about="">
        <dc:format>image/svg+xml</dc:format>
        <dc:type
           rdf:resource="http://purl.org/dc/dcmitype/StillImage" />
        <dc:title></dc:title>
      </cc:Work>
    </rdf:RDF>
  </metadata>
  <g
     inkscape:label="Layer 1"
     inkscape:groupmode="layer"
     id="layer1"
     transform="translate(0,-32.41665)">
    <rect
       style="opacity:1;fill:#ffffff;fill-opacity:1;stroke:none;stroke-width:5.29166651;stroke-linecap:square;stroke-linejoin:miter;stroke-miterlimit:4;stroke-dasharray:none;stroke-opacity:1;paint-order:normal"
       id="rect1253"
       width="277.39908"
       height="282.77344"
       x="-4.1341147"
       y="26.215477" />
    <g
       id="g1251"
       transform="matrix(1.0929282,0,0,1.0929282,-262.91091,-55.903722)">
      <g
         id="g1193">
        <path
           style="fill:#d31145;fill-opacity:1;stroke:none;stroke-width:0.99999994px;stroke-linecap:butt;stroke-linejoin:miter;stroke-opacity:1"
           d="m 1425.0234,216.26367 c -11.891,0.0483 -42.4398,6.23484 -51.7207,15.51563 -10.6066,10.60659 57.0735,201.02084 69.1953,233.3457 0.7908,2.10883 1.6709,4.27137 2.6114,6.46875 -4.3573,-0.27931 -8.8542,-0.44659 -13.5098,-0.47656 -17.931,-0.11566 -38.1121,1.74067 -60.6875,6.31836 -0.1338,-7.75922 -0.4636,-15.81385 -0.7891,-22.26172 6.8019,-2.90446 13.7208,-7.97355 16.8165,-16.81836 7.071,-20.20305 -4.2926,-37.88104 -17.9297,-36.11328 -0.1353,0.0189 -0.2725,0.0448 -0.4082,0.0645 l -2.1172,-30.11523 -36.1133,4.03906 1.5156,57.58008 c 34.0927,-39.64849 53.0328,-30.05247 53.2852,-6.56641 0.2524,23.48602 -32.3242,31.82031 -32.3242,31.82031 0,0 6.0373,-0.14175 13.1406,-2.38672 1.1406,15.60068 2.1482,39.27065 -1.5957,46.99219 -5.7143,11.78574 -67.5002,54.64173 -95.3574,56.07031 -27.8571,1.42855 -54.9996,-33.57001 -59.2852,-48.21289 -0.6451,-2.20361 -1.3164,-7.55352 -1.9883,-14.60546 3.9508,0.0264 7.1508,-0.49056 9.1309,-1.10938 5.7143,-1.78568 29.2859,-13.57059 30.3574,-36.42773 -6.4285,16.78571 -22.8583,31.06975 -36.4297,32.85546 -13.5715,1.78572 -33.5712,-5.35576 -37.1426,-20.71289 -3.5714,-15.35716 21.0709,-18.92967 34.2852,-23.92968 13.2143,-4.99998 25,-20.71289 25,-20.71289 0,0 -13.5701,10.71373 -20.7129,14.28515 -1.7388,0.86937 -4.6461,1.9117 -8.0781,3.05274 -2.3041,-42.26465 -4.0664,-88.41016 -4.0664,-88.41016 25.7133,-1.78575 47.3222,40.71484 47.3222,40.71484 L 1291,377.95508 c 0,0 -21.2515,-26.24976 -43.0371,-33.39258 -6.1273,-2.00893 -15.1357,-2.75978 -25.1231,-2.69141 -25.5234,0.17462 -57.4385,5.70511 -63.9843,9.29883 -9.1072,5.00001 -14.6426,37.32031 -14.6426,37.32031 l 53.8027,-1.375 c 0.7951,16.82725 1.8159,37.88385 2.8867,58.16797 -10.4281,3.36579 -23.6838,7.34599 -26.8671,10.5293 -4.6429,4.64285 -9.2868,20.71371 6.0703,31.78516 8.4153,6.06682 16.9291,8.47586 23.8535,9.13086 0.5826,7.89169 1.1038,13.39344 1.5039,14.79882 0.2404,0.84522 0.6173,1.8752 1.0937,3.02735 -9.0324,6.32394 -81.9762,58.05533 -90.0214,85.54297 -7.3233,25.02111 35.8238,101.20957 48.5761,122.92382 -0.9357,20.58736 13.7364,41.10743 13.7364,41.10743 0,0 41.0304,-8.76205 90.2421,-19.40625 l 14.8145,46.17578 -9.877,-47.2461 c 69.8788,-15.12565 154.1663,-33.60881 164.9356,-37.10156 18.6878,-6.06092 40.9101,-9.0918 40.9101,-9.0918 l -2.6542,-10.71875 c 8.131,3.52347 23.3975,9.78711 29.3164,9.78711 3.1056,0 11.9826,-1.58456 22.0898,-3.90039 0.084,0.31181 0.7676,2.82813 0.7676,2.82813 0,0 -8.0472,2.60482 -4.3145,8.69726 5.6235,9.1784 38.422,-0.49029 38.0078,-11.61718 -0.2437,-6.5469 -8.9668,-5.68164 -8.9668,-5.68164 0,0 -0.3009,-1.03106 -0.3066,-1.05079 7.3166,-2.39338 12.9732,-4.8024 14.5078,-6.77539 5,-6.42859 -10.7143,-53.21512 -15,-58.57226 -3.0899,-3.86226 -9.4736,-5.66378 -12.8223,-6.37891 2.7285,-1.19573 4.7554,-2.43277 5.6797,-3.62109 1.3279,-1.70725 1.4244,-6.22208 0.7891,-11.95899 17.4105,-2.27909 46.225,-13.06826 51.8516,-17.96093 5.8083,-5.05078 10.3544,-12.12317 -1.0098,-37.37696 -11.3642,-25.25382 -25.2528,-30.05114 -38.3848,-26.51562 -1.7652,0.47524 -3.6474,1.48884 -5.582,2.87304 -3.9868,-5.05147 -18.5071,-21.48017 -47.2227,-33.84765 -1.1843,-9.69593 -2.1032,-17.80554 -2.5019,-22.05859 -1.5154,-16.16247 -68.6898,-244.96213 -75.2559,-246.98243 -0.8208,-0.25254 -2.1392,-0.37016 -3.8379,-0.36328 z m -144.6875,55.05469 v 0.002 c -1.2944,-0.004 -2.507,0.003 -3.623,0.0254 -17.8571,0.35717 -42.1428,7.1437 -60,18.57227 -17.8571,11.42857 -21.6074,49.64258 -21.6074,49.64258 0,0 27.1433,-4.99972 53.2148,1.60742 26.0713,6.60714 45.8926,35 45.8926,35 L 1366,367.77539 c 0,0 -0.1802,-49.10744 -14.6445,-71.60742 -13.5602,-21.09377 -51.6032,-24.76718 -71.0196,-24.84961 z m -63.7109,132.70898 a 7.9464271,9.7321409 0 0 0 -7.9473,9.73243 7.9464271,9.7321409 0 0 0 7.9473,9.73046 7.9464271,9.7321409 0 0 0 7.9453,-9.73046 7.9464271,9.7321409 0 0 0 -7.9453,-9.73243 z m 47.1426,3.21289 a 7.9464271,9.7321409 0 0 0 -7.9473,9.73243 7.9464271,9.7321409 0 0 0 7.9473,9.73242 7.9464271,9.7321409 0 0 0 7.9453,-9.73242 7.9464271,9.7321409 0 0 0 -7.9453,-9.73243 z m 21.5234,63.39454 c 0,0 -1.0451,11.09685 2.8711,15.65039 -6.051,6.18886 -25.2634,23.01474 -50.5996,16.34179 0,0 -3.7738,19.9212 17.5527,25.88477 21.766,6.08647 39.9389,-20.24063 37.4239,-40.52734 3.0211,0.34543 6.8582,-1.65436 13.1074,-7.70508 -20,11.7857 -20.3555,-9.64453 -20.3555,-9.64453 z m 145.7832,4.64257 c 5.532,0.034 10.8411,0.26605 15.9531,0.65039 12.8411,28.1136 35.1646,61.13147 42.2422,76.75782 -4.1947,1.83258 -10.3181,6.39445 -9.1718,17.31445 l -33.3067,-9.92188 13.1133,87.65821 c -38.9456,6.50914 -94.9522,10.85232 -143.1387,13.88086 l 0.2168,-117.07617 c 26.1294,-15.61883 50.3005,-35.59677 52.4102,-40.8711 1.296,-3.23954 1.6406,-12.15491 1.5683,-22.1914 22.3435,-4.49262 42.334,-6.31562 60.1133,-6.20118 z m -140.9687,12.32032 c 1.0823,11.98783 -2.9655,21.51491 -7.9024,26.81445 -26.5069,27.45339 -43.45,-0.10961 -42.4551,-8.95703 0,0 22.1432,8.57115 50.3575,-17.85742 z m 217.0781,2.69336 c 24.527,10.78401 38.4944,24.50184 44.248,31.11132 -10.3141,8.75641 -21.3747,26.21656 -24.1015,30.65039 -3.2392,-0.4419 -7.2471,-0.68272 -11.3731,-0.79882 -3.0036,-17.04371 -6.3617,-41.62819 -8.7734,-60.96289 z m -298.0742,29.63281 c 5.5528,10.52984 16.5603,26.05915 30.8105,35.70508 l 54.1856,93.82617 0.414,13.5039 c -15.9504,0.93071 -30.6584,1.73539 -42.5234,2.40625 l -23.9023,-44.67773 15.4316,45.16602 c -12.2083,0.71894 -20.657,1.30574 -23.2617,1.80664 -13.132,2.5254 -17.1724,7.07078 -43.9414,31.31445 -3.5546,3.21929 -6.1114,6.73398 -7.8887,10.40625 -19.1143,-27.25051 -56.6576,-85.10344 -48.3281,-108.21094 10.5249,-29.19806 81.9043,-76.58639 89.0039,-81.24609 z m 177.4277,24.16406 c -14.3469,-0.21279 -30.1786,4.2584 -32.4336,24.30273 -4.2446,37.73058 59.4242,8.48845 62.2539,39.14454 2.8299,30.65608 -43.3879,29.24103 -53.7636,17.92187 l -4.7168,7.07617 c 0,0 49.0483,20.75048 63.1972,-13.20703 14.149,-33.95754 -24.0515,-33.01367 -29.7109,-33.01367 -5.6597,0 -32.5438,1.41506 -31.1289,-17.92188 1.415,-19.33688 28.2976,-19.80916 45.748,-15.56445 l 4.7168,-4.71484 c 0,0 -11.5031,-3.8356 -24.1621,-4.02344 z m 136.8047,9.92188 c 2.9853,0 5.6195,0.5916 8.3027,1.77539 4.2932,1.89403 14.7739,48.10993 11.6172,52.52929 -3.1568,4.4194 -35.1034,16.66697 -44.8262,7.82813 -2.6107,-2.37336 -4.9348,-7.20619 -6.9101,-13.06446 26.9064,1.6568 46.998,-6.80664 46.998,-6.80664 l -0.6308,-2.27343 c -18.6122,7.88288 -41.3425,7.22123 -47.0723,6.90625 -1.7947,-5.78612 -3.2592,-12.33957 -4.3398,-18.47461 26.8361,1.61884 46.8574,-6.81446 46.8574,-6.81446 l -0.6309,-2.27343 c -18.2233,7.71817 -40.2869,7.24454 -46.5859,6.92578 -1.5984,-9.73954 -2.1795,-17.99139 -1.4492,-19.55664 1.7678,-3.78811 5.4297,-4.04102 5.4297,-4.04102 l 1.3886,4.54492 c 13.6371,2.14659 20.3296,-5.43001 26.0118,-6.5664 2.1307,-0.42614 4.0486,-0.63867 5.8398,-0.63867 z m -232.043,3.83398 1.5157,49.49219 -25.1915,-43 c 6.7852,-0.36926 14.9519,-2.79793 23.6758,-6.49219 z m 79.3711,0.0684 v 2.83594 h 11.3399 v 21.84375 h 3.5 v -21.84375 h 11.5078 v -2.83594 z m 80.1621,6.96484 29.8282,9.39453 c 2.4972,16.64297 9.6614,40.86899 16.2324,45.46875 0.7009,0.49062 1.6981,0.85478 2.9179,1.11133 -5.0658,1.84082 -13.3591,5.16795 -17.205,8.53321 -5.7143,4.99997 -6.7857,17.85546 -10,20.35546 -1.1927,0.92769 -2.6807,1.50805 -4.0801,1.875 l -1.2793,-5.16796 c -1.0273,0.19048 -2.1276,0.3715 -3.1836,0.55859 z m -66.6797,33.87696 c -1.0278,-0.0189 -2.0815,-0.0109 -3.1445,0.0117 h -3.5019 v 26.51368 h 3.5019 v -10.30078 c 5.8189,0.31105 16.0154,-1.63883 16.1758,-8.54297 0.1459,-6.27391 -5.8363,-7.56777 -13.0313,-7.68164 z m -1.3496,1.58789 c 4.7959,-0.0151 12.255,0.72951 12.2149,5.54297 -0.045,5.41859 -9.5145,6.73053 -14.0098,7.05859 v -12.55859 c 0.5328,-0.0227 1.1347,-0.0407 1.7949,-0.043 z M 1536,616.52734 c 0,0 8.5714,0.89261 12.5,4.64258 1.4853,1.41789 4.6819,8.71212 7.9277,17.5586 -19.4938,12.20069 -45.7343,14.57226 -45.7343,14.57226 l 0.7441,2.04883 c 24.0153,-2.32857 41.5171,-11.85864 45.791,-14.37891 2.0898,5.84788 4.1221,12.13591 5.6953,17.82618 -19.4823,12.14039 -45.623,14.5039 -45.623,14.5039 l 0.7441,2.04883 c 23.6475,-2.29293 40.912,-11.53592 45.5196,-14.22656 1.845,7.06537 2.7945,12.78517 1.8984,14.68945 -2.8572,6.07143 -51.0702,18.21429 -58.5703,17.5 -4.8345,-0.46046 -20.0922,-6.1922 -30.5957,-10.30273 l -6.8047,-27.49219 c 2.9656,-0.57884 5.7743,-1.33492 6.3281,-2.20508 1.25,-1.9643 4.464,-16.25054 7.1426,-19.46484 2.6785,-3.2143 20.1797,-10.35743 20.1797,-10.35743 0,0 1.4318,-0.0114 3.6972,-0.14257 l 3.4454,10.5 c 0,0 18.0346,-3.74999 24.8203,-7.5 l -2.209,-8.39844 c 1.0559,-0.44194 2.099,-0.90646 3.1035,-1.42188 z"
           transform="matrix(0.26458333,0,0,0.26458333,0,32.41665)"
           id="path912"
           inkscape:connector-curvature="0" />
        <path
           inkscape:connector-curvature="0"
           id="path1163"
           d="m 371.28769,209.84809 c 0,0 -0.26723,3.07346 -2.47222,4.07572 -2.20498,1.00226 -9.55521,-1.20276 -13.89835,1.13585 -4.34313,2.33861 -2.26912,14.10456 -2.26912,14.10456 16.58372,-6.70907 27.26137,1.60611 27.26137,1.60611 3.30727,-1.41741 16.67857,-0.66146 16.67857,-0.66146 0.37732,-3.59279 -0.7783,-14.7821 -3.65144,-16.98708 -2.87316,-2.20497 -15.56856,1.06929 -16.90491,0.13384 -1.33636,-0.93544 -1.93786,-3.34088 -1.93786,-3.34088 z m -102.31623,7.62072 c -1.82287,0.005 -2.98794,1.73375 -2.98794,1.73375 2.33863,2.7061 2.33836,8.81962 2.33836,8.81962 -3.67495,-6.21402 -6.98251,-7.78403 -6.98251,-7.78403 -3.86593,-0.46259 -3.06091,2.62583 -3.04271,2.6939 a 6.4793179,6.4793179 0 0 0 -2.71407,-0.60358 6.4793179,6.4793179 0 0 0 -6.47917,6.4797 6.4793179,6.4793179 0 0 0 6.47917,6.47919 6.4793179,6.4793179 0 0 0 6.47973,-6.47919 6.4793179,6.4793179 0 0 0 -0.55708,-2.61844 c 2.47753,3.2452 2.78206,6.15488 2.8086,7.14271 -1.50728,0.23172 -3.54171,0.89471 -4.8369,2.72955 0,0 -0.56695,8.03222 5.95313,8.22121 l 0.38034,-0.3204 c 0.61605,0.50012 1.93047,1.47237 3.17965,1.76631 1.52988,0.35995 4.86048,0.15746 7.0249,0.98236 -0.21865,0.43183 -0.43929,0.87905 -0.66302,1.35134 0,0 5.00819,2.92939 10.58333,8.69353 5.57517,5.76413 5.48058,7.37024 8.5044,9.5436 2.87888,2.0692 25.46744,-0.71363 27.64999,-0.98805 0.17574,1.25651 0.43077,2.42902 0.79272,3.44526 l 22.48958,2.07895 c 0,0 4.6677,14.31528 13.01988,19.72748 7.08771,4.59284 16.08045,6.37938 18.66138,6.81973 0.70554,2.1778 1.6396,4.10571 2.72026,5.34076 3.74179,4.27631 7.54999,4.20936 8.6191,4.7439 1.0691,0.53454 1.53685,1.4702 1.53685,1.4702 0,0 5.81674,-0.3922 10.31203,-2.50993 l 7.86257,1.35599 0.0119,1.22732 c 0,0 28.15929,5.0079 31.1831,0.28318 2.99181,-4.67468 0.80349,-19.42749 -1.34823,-31.18001 0.91551,-0.52358 1.79861,-1.09263 2.6262,-1.71669 0,0 -2.27164,-28.99875 -11.22516,-33.0078 -8.7757,-3.92941 -21.27359,-3.36348 -32.71377,0.0579 0.10149,-4.23032 0.0212,-8.43649 -0.33383,-12.29951 l -10.86704,-0.18914 c 0,0 3.21283,10.20514 2.74039,16.91421 0,0 4.91369,-8.22075 7.9375,-3.02358 3.02382,5.19718 0.85061,11.05573 -1.79522,11.15022 -2.64584,0.0945 -5.48082,-1.79524 -5.48082,-1.79524 0,0 3.02382,3.118 5.29167,2.92902 0.17748,-0.0148 0.35692,-0.049 0.53641,-0.0925 -0.95977,9.33186 -2.53756,16.6164 -3.65455,17.47956 -2.07886,1.60639 -24.37927,8.6933 -26.83611,8.40982 -2.45687,-0.28349 -10.7723,-4.81898 -11.24479,-6.99234 -0.43794,-2.01456 1.48958,-11.00224 1.78387,-12.35377 0.33692,0.002 0.68501,-0.004 1.05058,-0.0248 6.70907,-0.37798 7.55976,-4.44159 7.55976,-4.44159 0,0 -2.92915,4.72463 -9.73275,3.21272 -6.80355,-1.5119 -6.80363,-5.48051 -2.7404,-9.73274 4.06326,-4.25224 10.48877,-2.36213 10.48877,-2.36213 -1.82454,-1.34858 -3.45474,-1.49596 -6.38926,-1.00614 l -0.88006,-12.06696 1.04542,-0.154 c 0,0 -0.20058,-3.37421 -5.64618,-3.04012 -5.44563,0.33409 -4.34287,4.51032 -4.34287,4.51032 l 8.11112,-1.19373 0.47593,7.40162 -30.9278,3.18636 c 0,0 -0.13163,0.80446 -0.29509,2.03606 -1.82198,0.24558 -10.49245,1.49005 -18.98179,4.01164 l -20.50521,-16.34732 c 0,0 -0.4114,0.18417 -1.12551,0.79943 l -0.92964,-0.93017 c 2.60583,-2.83975 4.47672,-8.61912 4.47672,-8.61912 -1.30294,-2.90656 -5.54593,-1.6707 -5.54593,-1.6707 -0.16706,3.87541 -3.84212,7.04919 -3.84212,7.04919 -2.27179,-2.50565 -2.53886,-4.27623 -2.53886,-4.27623 0.36748,-7.21628 -2.50582,-11.76 -2.50582,-11.76 -0.73501,-0.50949 -1.41549,-0.6992 -2.02311,-0.69764 z m -0.16899,0.59893 c 0.50483,0.002 1.08551,0.17854 1.72445,0.66715 0,0 2.73942,3.94175 2.27169,11.35848 0,0 0.73517,2.87357 3.27422,4.94491 0,0 3.80873,-3.0068 4.41007,-7.34993 0,0 3.74137,-0.80212 4.40955,1.46967 0,0 -2.00443,5.27849 -4.94441,8.28529 l 1.43661,1.38751 c -1.2089,1.16748 -2.99857,3.33621 -5.05653,7.27242 -2.49634,-1.03133 -6.46575,-0.69108 -7.73906,-1.17615 -0.97332,-0.37078 -1.79179,-1.05603 -2.20813,-1.4454 l 5.66372,-4.77386 c 0,0 -3.96859,-0.85059 -5.764,-5.48081 0,0 -0.071,-0.006 -0.19947,-0.01 -0.11242,-0.004 -0.26876,-0.005 -0.46043,-0.001 -0.14594,0.003 -0.31996,0.013 -0.50281,0.0264 0.01,-0.92497 -0.21328,-6.13425 -6.28386,-10.56577 0,0 -0.73498,-2.2719 2.67272,-1.73736 0,0 5.87981,5.41265 7.41659,9.62215 0,0 0.53451,-7.5504 -2.20504,-11.35899 0,0 0.79401,-1.13913 2.08412,-1.13482 z m -13.21988,4.90875 a 5.8313859,5.8313859 0 0 1 3.16831,0.94257 6.4793179,6.4793179 0 0 0 -1.80457,4.46433 6.4793179,6.4793179 0 0 0 2.31254,4.9475 5.8313859,5.8313859 0 0 1 -3.67628,1.30845 5.8313859,5.8313859 0 0 1 -3.75481,-1.36942 6.4793179,6.4793179 0 0 0 2.24227,-4.88653 6.4793179,6.4793179 0 0 0 -1.74667,-4.40438 5.8313859,5.8313859 0 0 1 3.25921,-1.00252 z m 3.69332,1.32343 a 5.8313859,5.8313859 0 0 1 2.13839,4.50825 5.8313859,5.8313859 0 0 1 -1.67174,4.07882 5.8313859,5.8313859 0 0 1 -2.14818,-4.5036 5.8313859,5.8313859 0 0 1 1.68153,-4.08347 z m -7.46826,0.0724 a 5.8313859,5.8313859 0 0 1 1.61436,4.01112 5.8313859,5.8313859 0 0 1 -2.06653,4.43746 5.8313859,5.8313859 0 0 1 -1.60404,-4.01268 5.8313859,5.8313859 0 0 1 2.05621,-4.4359 z m 113.86643,3.30419 c -0.21598,0.004 -0.43196,0.0109 -0.64752,0.0227 -6.89806,0.37798 -15.49662,3.30752 -19.04018,5.9061 0,0 5.43327,-1.41745 7.74837,-0.0946 2.31511,1.32292 4.48821,6.42574 6.33087,7.7959 1.84261,1.37017 11.81185,1.41719 15.30813,-1.27589 3.49626,-2.69308 3.7796,-8.78809 3.7796,-8.78809 0,0 -6.78389,-3.67981 -13.47927,-3.56619 z m -99.95824,6.32571 c 1.43656,3.94222 4.64415,5.04517 4.64415,5.04517 l -2.72901,2.11873 c -3.93878,-1.65742 -4.7334,-5.47279 -4.88498,-6.62078 0.78245,-0.29305 1.75887,-0.51358 2.96984,-0.54312 z m -3.48662,0.75809 c 0.76234,4.84606 3.66421,6.43353 4.79766,6.87452 l -2.04589,1.58853 c -4.54358,-0.56794 -4.84415,-6.84867 -4.84415,-6.84867 0,0 0.59968,-0.91928 2.09238,-1.61438 z m 155.16521,7.25279 c 4.57306,0.036 8.89309,0.73402 11.69024,2.71353 8.68625,6.1472 10.15598,31.13712 10.15598,31.13712 0,0 -10.95089,5.92306 -19.95022,5.88388 l -7.30033,-18.56579 10.96161,34.96272 -14.93036,0.94516 0.008,0.85369 -2.20297,-0.23616 c 1.69124,-6.42464 0.95197,-16.88822 -4.47156,-20.7703 -0.31319,-0.18794 -1.03582,-0.27426 -2.04484,-0.27699 -2.36045,-0.006 -6.28824,0.44853 -10.20662,1.1436 l -1.77818,-2.27738 c 2.55757,-0.96532 4.4205,-1.80798 4.87569,-2.33061 0.98335,-1.12907 2.58884,-8.9273 3.58788,-18.61385 1.68161,-0.99111 3.09192,-3.26716 2.87734,-6.62905 -0.18182,-2.84866 -0.71612,-4.25433 -1.39888,-5.22242 1.74356,-0.4422 11.39659,-2.78583 20.12694,-2.71715 z m -59.73744,0.709 c -0.9964,4e-5 -1.80414,0.95745 -1.80401,2.13837 1.3e-4,1.18073 0.80777,2.13782 1.80401,2.13786 0.99623,-2e-5 1.8039,-0.95712 1.80403,-2.13786 1.1e-4,-1.18093 -0.80761,-2.13835 -1.80403,-2.13837 z m 8.55244,2.00453 c -0.99642,2e-5 -1.80411,0.95743 -1.804,2.13837 1.3e-4,1.18074 0.80777,2.13784 1.804,2.13786 0.99624,-4e-5 1.80391,-0.95713 1.80404,-2.13786 1e-4,-1.18092 -0.80762,-2.13833 -1.80404,-2.13837 z m -12.44936,0.65784 0.2584,4.01681 c -3.9007,0.59878 -7.24747,6.3361 -7.03991,9.05578 0.25377,1.69158 1.72162,4.7435 6.83731,5.09478 -0.57586,2.51133 -2.49549,11.32383 -1.63814,13.78158 1.00224,2.87315 10.35651,6.88213 12.36102,6.94894 1.17734,0.0392 9.88028,-2.38788 17.23771,-4.81728 l 1.08519,1.68258 c -2.57596,0.67436 -4.65945,1.41563 -5.56038,2.13269 -2.14416,1.70658 -2.02406,7.68256 -0.63511,12.80542 -2.84911,-0.5467 -12.79107,-2.63878 -17.40564,-6.05699 -5.41221,-4.00906 -8.88703,-9.75536 -13.02969,-19.84479 l -22.65082,-2.27169 c 0,0 -2.13816,-7.08246 0,-19.04277 z m 18.44797,11.56105 1.3131,3.83181 c -0.19653,0.80918 -0.78444,2.30244 -2.58847,4.19974 -2.74032,2.88208 -7.65429,4.06355 -9.96942,3.68557 -2.31508,-0.37797 -3.11814,-2.31511 -3.11814,-2.31511 0,0 -0.85032,8.55164 4.15787,9.49658 5.00819,0.94494 9.54368,-0.51987 11.62254,-3.1657 2.01832,-2.56876 1.45333,-5.34605 0.94311,-11.60032 l 3.28559,-3.06958 -3.73261,1.91357 z m 1.68518,5.45445 c 1.53681,8.31877 -1.10217,10.05608 -3.37396,11.45925 -2.27179,1.40316 -7.58407,1.77043 -9.68881,0.43408 -2.10476,-1.33635 -2.27171,-5.77949 -2.27171,-5.77949 0,0 1.53662,1.53642 4.64365,1.16892 3.10703,-0.36749 9.62176,-3.03986 10.69083,-7.28276 z m 24.85893,17.3824 c 0.92472,0.002 1.58673,0.082 1.87381,0.25425 5.8175,4.16411 5.75648,16.59559 3.1233,21.67826 -2.63319,5.08267 -13.59451,5.81722 -13.59451,5.81722 0,0 -0.42889,-0.8573 -1.40869,-1.3472 -0.97981,-0.4899 -4.47051,-0.42838 -7.89977,-4.34754 -3.42929,-3.91917 -5.26616,-15.43186 -2.26552,-17.82011 0.36396,-0.28966 0.94247,-0.584 1.67174,-0.87539 0.12629,5.57399 1.73583,9.85314 1.73583,9.85314 l 0.75602,-0.2837 c -1.56356,-3.51801 -1.76583,-8.27781 -1.79007,-9.83454 1.05106,-0.37068 2.33527,-0.73211 3.73618,-1.07074 0.0911,5.67234 1.73892,10.05468 1.73892,10.05468 l 0.75602,-0.28318 c -1.59472,-3.5881 -1.77424,-8.48065 -1.79212,-9.93428 4.65963,-1.07154 10.37301,-1.86893 13.35886,-1.86087 z m -1.17459,1.95854 c -0.7634,0.003 -1.58377,0.0779 -2.38694,0.185 l 0.72811,2.6324 3.55999,-0.47698 c -0.33165,-1.35025 -0.66249,-2.27117 -0.66249,-2.27117 -0.3842,-0.0501 -0.802,-0.0711 -1.23867,-0.0693 z m -4.35322,0.51418 c -1.53233,0.30178 -2.69337,0.62425 -2.69337,0.62425 0,0 -0.11743,1.00257 -0.11473,2.41639 l 3.3233,-0.44545 z m 6.62387,3.57704 -3.43648,0.50798 0.67542,2.44068 3.04425,-0.40824 c -0.0363,-0.8695 -0.14304,-1.73563 -0.28319,-2.54042 z m -5.74537,0.84905 -3.60238,0.53226 c 0.0677,0.78213 0.18531,1.59966 0.37621,2.39986 l 3.70933,-0.49713 z m 5.98567,3.49797 -2.51148,0.37156 0.95552,3.45353 c 0.32377,-0.34771 0.62272,-0.77778 0.88521,-1.30276 0.37394,-0.74795 0.57986,-1.61344 0.67075,-2.52233 z m -5.14078,0.75965 -3.4649,0.51211 c 0.0785,0.17589 0.16079,0.34885 0.25064,0.51573 0.98433,1.82802 2.52375,3.00713 4.04368,3.15123 z m 10.64329,9.58598 2.44687,0.31574 0.0589,6.15363 -6.88795,-1.05937 c 1.5358,-0.85707 2.83226,-1.95081 3.55431,-3.3445 0.31101,-0.60033 0.58719,-1.29887 0.82785,-2.0655 z m -8.74106,2.21278 c -0.81227,6e-5 -1.75954,0.0844 -2.71767,0.24185 -2.62586,0.43151 -4.67069,1.29257 -4.56769,1.92339 0.1039,0.63073 2.3168,0.79221 4.94287,0.3607 2.62583,-0.43152 4.67069,-1.29257 4.56766,-1.92339 -0.0619,-0.37708 -0.89456,-0.60255 -2.22517,-0.60255 z"
           style="opacity:1;fill:#002b5c;fill-opacity:1;stroke:#ffffff;stroke-width:5.29166651;stroke-linecap:square;stroke-linejoin:miter;stroke-miterlimit:4;stroke-dasharray:none;stroke-opacity:1;paint-order:normal" />
        <path
           style="opacity:1;fill:#002b5c;fill-opacity:1;stroke:none;stroke-width:1.00157475;stroke-linecap:square;stroke-linejoin:miter;stroke-miterlimit:4;stroke-dasharray:none;stroke-opacity:1;paint-order:normal"
           d="m 1403.293,670.60742 c 0,0 -1.0119,11.61623 -9.3457,15.4043 -8.3338,3.78807 -36.1124,-4.54587 -52.5274,4.29297 -16.415,8.83884 -8.5761,53.30859 -8.5761,53.30859 62.6786,-25.35711 103.0351,6.07031 103.0351,6.07031 12.4999,-5.35714 63.0371,-2.5 63.0371,-2.5 1.4261,-13.57905 -2.9417,-55.86934 -13.8008,-64.20312 -10.8592,-8.33375 -58.8418,4.04142 -63.8925,0.50586 -5.0509,-3.53552 -7.3243,-12.62695 -7.3243,-12.62695 z m -386.7071,28.80274 c -6.8895,0.0189 -11.2929,6.55273 -11.2929,6.55273 8.8389,10.22778 8.8379,33.33399 8.8379,33.33399 -13.8896,-23.48606 -26.39067,-29.41993 -26.39067,-29.41993 -14.61138,-1.74837 -11.56878,9.92437 -11.5,10.18164 a 24.488761,24.488761 0 0 0 -10.25976,-2.28125 24.488761,24.488761 0 0 0 -24.48633,24.49024 24.488761,24.488761 0 0 0 24.48633,24.48828 24.488761,24.488761 0 0 0 24.49219,-24.48828 24.488761,24.488761 0 0 0 -2.10547,-9.89649 c 9.36389,12.26533 10.51297,23.26257 10.61328,26.9961 -5.69681,0.87579 -13.38409,3.38158 -18.2793,10.3164 0,0 -2.14282,30.35798 22.50003,31.07227 l 1.4375,-1.21094 c 2.3283,1.89022 7.2962,5.56483 12.0175,6.67578 5.7823,1.36044 18.3703,0.59516 26.5508,3.71289 -0.8264,1.63212 -1.6602,3.32239 -2.5058,5.10743 0,0 18.9286,11.07169 40,32.85742 21.0715,21.78569 20.7139,27.85604 32.1426,36.07031 10.8808,7.8206 96.2548,-2.6972 104.5039,-3.73437 0.6642,4.74901 1.6281,9.18057 2.9961,13.02148 l 85,7.85742 c 0,0 17.6416,54.10499 49.2089,74.56055 26.7882,17.35876 60.7766,24.11107 70.5313,25.77537 2.6666,8.2311 6.1969,15.5177 10.2812,20.1856 14.1422,16.1624 28.5355,15.9093 32.5762,17.9297 4.0407,2.0203 5.8086,5.5566 5.8086,5.5566 0,0 21.9826,-1.4823 38.9727,-9.4863 l 29.7168,5.125 0.047,4.6386 c 0,0 106.4289,18.9276 117.8575,1.0704 11.3076,-17.6681 3.0367,-73.42678 -5.0958,-117.84575 3.4602,-1.97889 6.7979,-4.12963 9.9258,-6.48828 0,0 -8.5857,-109.6016 -42.4258,-124.75391 -33.168,-14.85131 -80.4041,-12.71245 -123.6425,0.21875 0.3836,-15.98861 0.08,-31.88594 -1.2617,-46.48633 l -41.0723,-0.71484 c 0,0 12.1411,38.57062 10.3555,63.92773 0,0 18.5714,-31.07058 30,-11.42773 11.4286,19.64288 3.2167,41.78545 -6.7832,42.14258 -10.0001,0.35716 -20.7168,-6.78516 -20.7168,-6.78516 0,0 11.4286,11.78457 20,11.07031 0.6707,-0.0559 1.3509,-0.1852 2.0292,-0.34961 -3.6274,35.27002 -9.5908,62.80212 -13.8124,66.06446 -7.8572,6.07139 -92.144,32.85657 -101.4297,31.78515 -9.2858,-1.07146 -40.7142,-18.21346 -42.5,-26.42773 -1.6552,-7.61409 5.6299,-41.58326 6.7421,-46.69141 1.2734,0.008 2.5891,-0.0151 3.9708,-0.0937 25.3571,-1.42858 28.5742,-16.78711 28.5742,-16.78711 0,0 -11.0727,17.85689 -36.7871,12.14258 -25.7142,-5.71427 -25.7145,-20.71374 -10.3575,-36.78516 15.3572,-16.07145 39.6426,-8.92773 39.6426,-8.92773 -6.8959,-5.097 -13.0554,-5.65402 -24.1465,-3.80274 l -3.3261,-45.60742 3.9511,-0.58203 c 0,0 -0.76,-12.75293 -21.3418,-11.49023 -20.5819,1.2627 -16.4121,17.04687 -16.4121,17.04687 l 30.6563,-4.51172 1.7969,27.97461 -116.8907,12.04297 c 0,0 -0.4974,3.04045 -1.1152,7.69531 -6.8862,0.92818 -39.6585,5.63169 -71.7441,15.16211 l -77.5,-61.78515 c 0,0 -1.555,0.69609 -4.254,3.02148 l -3.5117,-3.51562 c 9.8488,-10.73292 16.9199,-32.57618 16.9199,-32.57618 -4.9244,-10.98542 -20.9628,-6.31445 -20.9628,-6.31445 -0.6314,14.64722 -14.5196,26.64258 -14.5196,26.64258 -8.5863,-9.47017 -9.5957,-16.16211 -9.5957,-16.16211 1.3889,-27.27413 -9.4726,-44.44726 -9.4726,-44.44726 -2.778,-1.92564 -5.348,-2.64262 -7.6446,-2.63672 z m -0.6386,2.26367 c 1.908,0.008 4.1027,0.67477 6.5175,2.52148 0,0 10.3538,14.89795 8.586,42.92969 0,0 2.7786,10.86077 12.375,18.68945 0,0 14.3952,-11.36431 16.668,-27.77929 0,0 14.1406,-3.03161 16.666,5.55468 0,0 -7.5758,19.95017 -18.6875,31.31446 l 5.4297,5.24414 c -4.5691,4.41252 -11.3333,12.60931 -19.1114,27.48633 -9.435,-3.89794 -24.4375,-2.61198 -29.25,-4.44532 -3.6787,-1.40137 -6.7721,-3.99125 -8.3457,-5.46289 l 21.4063,-18.04297 c 0,0 -14.9994,-3.2148 -21.7852,-20.71484 0,0 -0.2683,-0.0239 -0.7539,-0.0391 -0.4249,-0.0151 -1.0158,-0.019 -1.7402,-0.004 -0.5516,0.0113 -1.2093,0.0509 -1.9004,0.10156 0.038,-3.49595 -0.8061,-23.18454 -23.75002,-39.93359 0,0 -2.77793,-8.58671 10.10157,-6.56641 0,0 22.22295,20.45727 28.03125,36.36719 0,0 2.0202,-28.53697 -8.334,-42.93164 0,0 3.001,-4.30535 7.877,-4.28906 z m -49.96683,18.55273 a 22.039884,22.039884 0 0 1 11.97656,3.5625 24.488761,24.488761 0 0 0 -6.82226,16.87305 24.488761,24.488761 0 0 0 8.74218,18.69922 22.039884,22.039884 0 0 1 -13.89648,4.94531 22.039884,22.039884 0 0 1 -14.19141,-5.17578 24.488761,24.488761 0 0 0 8.47656,-18.46875 24.488761,24.488761 0 0 0 -6.60156,-16.64649 22.039884,22.039884 0 0 1 12.31641,-3.78906 z m 13.96094,5.00196 a 22.039884,22.039884 0 0 1 8.08203,17.03906 22.039884,22.039884 0 0 1 -6.31836,15.41601 22.039884,22.039884 0 0 1 -8.11914,-17.02148 22.039884,22.039884 0 0 1 6.35547,-15.43359 z m -28.22657,0.27343 a 22.039884,22.039884 0 0 1 6.10157,15.16016 22.039884,22.039884 0 0 1 -7.81055,16.77148 22.039884,22.039884 0 0 1 -6.0625,-15.16601 22.039884,22.039884 0 0 1 7.77148,-16.76563 z m 430.36136,12.48828 c -0.8163,0.0151 -1.6326,0.0413 -2.4473,0.0859 -26.0714,1.42859 -58.5699,12.50086 -71.9629,22.32227 0,0 20.5352,-5.35717 29.2852,-0.35742 8.75,5.00001 16.9633,24.28628 23.9277,29.46484 6.9642,5.17859 44.6431,5.3563 57.8574,-4.82227 13.2142,-10.17857 14.2852,-33.21484 14.2852,-33.21484 0,0 -25.64,-13.90795 -50.9453,-13.47852 z m -377.795,23.90821 c 5.4296,14.89973 17.5528,19.06836 17.5528,19.06836 l -10.3145,8.00781 c -14.8867,-6.26427 -17.88996,-20.68458 -18.46286,-25.02344 2.95729,-1.10759 6.64772,-1.94109 11.22456,-2.05273 z m -13.17768,2.86523 c 2.88128,18.31582 13.84888,24.31569 18.13278,25.98242 l -7.7324,6.00391 c -17.17258,-2.14654 -18.30859,-25.88477 -18.30859,-25.88477 0,0 2.2665,-3.47441 7.90821,-6.10156 z m 586.44918,27.41211 v 0 c 17.284,0.13606 33.6117,2.77425 44.1836,10.25586 32.8299,23.23351 38.3847,117.68359 38.3847,117.68359 0,0 -41.3891,22.38637 -75.4023,22.23829 l -27.5918,-70.16993 41.4297,132.14261 -56.4297,3.5722 0.029,3.2266 -8.3262,-0.8926 c 6.3921,-24.28208 3.598,-63.8295 -16.9004,-78.50193 -1.1837,-0.71033 -3.9149,-1.03656 -7.7285,-1.04688 -8.9214,-0.0227 -23.7665,1.69523 -38.5761,4.32227 l -6.7208,-8.60742 c 9.6665,-3.64846 16.7074,-6.8333 18.4278,-8.8086 3.7166,-4.26735 9.7846,-33.74098 13.5605,-70.35156 6.3557,-3.74593 11.686,-12.34833 10.875,-25.05469 -0.6872,-10.76659 -2.7066,-16.07935 -5.2871,-19.73828 6.5899,-1.6713 43.0737,-10.52911 76.0703,-10.26953 z m -225.7773,2.67969 c -3.7659,1.5e-4 -6.8189,3.61871 -6.8184,8.08203 5e-4,4.4626 3.0531,8.07993 6.8184,8.08008 3.7653,-8e-5 6.8179,-3.61744 6.8184,-8.08008 4e-4,-4.46336 -3.0524,-8.08196 -6.8184,-8.08203 z m 32.3242,7.57617 c -3.766,8e-5 -6.8188,3.61864 -6.8184,8.08203 5e-4,4.46264 3.0531,8.08 6.8184,8.08008 3.7653,-1.5e-4 6.8179,-3.61748 6.8184,-8.08008 3e-4,-4.46332 -3.0524,-8.08188 -6.8184,-8.08203 z m -47.0527,2.48633 0.9765,15.18164 c -14.7428,2.2631 -27.3938,23.94746 -26.6093,34.22656 0.9591,6.39338 6.5069,17.92819 25.8418,19.25586 -2.1765,9.49164 -9.4299,42.79876 -6.1895,52.08789 3.788,10.85915 39.1427,26.01116 46.7188,26.26367 4.4497,0.14816 37.3427,-9.02504 65.1503,-18.20703 l 4.1016,6.35938 c -9.7359,2.54876 -17.6105,5.3504 -21.0156,8.06054 -8.1039,6.45007 -7.65,29.03645 -2.4004,48.39844 -10.7683,-2.06627 -48.3443,-9.97336 -65.7852,-22.89258 -20.4556,-15.15235 -33.5888,-36.87062 -49.2461,-75.0039 l -85.6093,-8.58594 c 0,0 -8.0813,-26.76833 0,-71.97266 z m 305.8652,43.41797 -13.2715,3.13672 -5.4082,1.27734 -13.9219,30.01953 -24.5449,-20.4082 -5.4082,1.27929 -13.2695,3.13672 1.4512,6.14454 13.2714,-3.13672 10.9786,46.44922 -11.5508,2.72851 1.4531,6.14649 29.4902,-6.97071 -1.4511,-6.14453 -12.5332,2.96094 -10.7071,-45.29883 24.4473,19.99609 14.4805,-27.65625 10.2461,43.34766 -12.5332,2.96289 1.4511,6.14453 29.4922,-6.9707 -1.4512,-6.14453 -11.5527,2.73047 -10.9765,-46.44922 13.2695,-3.13672 z m -236.1406,0.27734 4.9629,14.48242 c -0.7428,3.05832 -2.9648,8.70215 -9.7832,15.87305 -10.3571,10.8929 -28.9296,15.35827 -37.6797,13.92969 -8.7499,-1.42855 -11.7852,-8.75 -11.7852,-8.75 0,0 -3.2137,32.32115 15.7149,35.89258 18.9286,3.57142 36.0706,-1.96486 43.9277,-11.96485 7.6283,-9.7087 5.4928,-20.20556 3.5645,-43.84375 l 12.4179,-11.60156 -14.1074,7.23242 z m 6.3691,20.61524 c 5.8084,31.44102 -4.1656,38.00722 -12.7519,43.31054 -8.5863,5.30328 -28.6642,6.6914 -36.6192,1.64063 -7.955,-5.05077 -8.5859,-21.84375 -8.5859,-21.84375 0,0 5.8077,5.80694 17.5508,4.41797 11.7431,-1.38894 36.3656,-11.48924 40.4062,-27.52539 z m 93.9551,65.69726 c 3.495,0.008 5.997,0.30992 7.082,0.96094 21.9874,15.73837 21.7569,62.7235 11.8047,81.93358 -9.9522,19.2101 -51.3808,21.9863 -51.3808,21.9863 0,0 -1.6211,-3.2402 -5.3243,-5.0918 -3.7032,-1.8515 -16.8964,-1.619 -29.8574,-16.4316 -12.9611,-14.8126 -19.9035,-58.3251 -8.5625,-67.35156 1.3756,-1.09478 3.5621,-2.20728 6.3184,-3.30859 0.4773,21.06705 6.5605,37.24023 6.5605,37.24023 l 2.8575,-1.07226 c -5.9096,-13.29642 -6.6741,-31.28622 -6.7657,-37.16993 3.9725,-1.40099 8.8244,-2.76701 14.1192,-4.04687 0.3443,21.43876 6.5742,38.00195 6.5742,38.00195 l 2.8555,-1.07031 c -6.0273,-13.56132 -6.704,-32.05284 -6.7715,-37.54688 17.6112,-4.04991 39.2051,-7.06366 50.4902,-7.0332 z m -4.4395,7.40234 c -2.8852,0.0113 -5.9858,0.29444 -9.0214,0.69922 l 2.7519,9.94922 13.4551,-1.80273 c -1.2535,-5.10331 -2.5039,-8.58399 -2.5039,-8.58399 -1.4521,-0.18935 -3.0312,-0.26852 -4.6817,-0.26172 z m -16.4531,1.94336 c -5.7915,1.14059 -10.1797,2.35938 -10.1797,2.35938 0,0 -0.4438,3.78924 -0.4336,9.13281 l 12.5606,-1.68359 z m 25.0352,13.51954 -12.9883,1.91992 2.5527,9.22461 11.5059,-1.54297 c -0.1372,-3.2863 -0.5406,-6.55984 -1.0703,-9.60156 z M 1489.5234,961 l -13.6152,2.01172 c 0.2559,2.95608 0.7004,6.04593 1.4219,9.07031 l 14.0195,-1.87891 z m 22.6231,13.2207 -9.4922,1.4043 3.6113,13.05273 c 1.2237,-1.31418 2.3536,-2.93965 3.3457,-4.92382 1.4133,-2.8269 2.1917,-6.09803 2.5352,-9.53321 z m -19.4297,2.8711 -13.0957,1.93554 c 0.2967,0.66478 0.6077,1.31849 0.9473,1.94922 3.7203,6.90905 9.5385,11.36553 15.2832,11.91016 z m 40.2246,36.2305 v 0 l 9.248,1.1933 0.2207,23.2578 -26.0332,-4.0039 c 5.8046,-3.2393 10.7065,-7.3731 13.4356,-12.6406 1.1754,-2.269 2.2173,-4.9091 3.1269,-7.8066 z m -33.0352,8.3632 c -3.0699,3e-4 -6.6502,0.319 -10.2714,0.9141 -9.9245,1.6309 -17.653,4.8853 -17.2637,7.2695 0.3927,2.3839 8.7563,2.9942 18.6816,1.3633 9.9244,-1.6309 17.6531,-4.8853 17.2637,-7.2695 -0.2339,-1.4252 -3.3811,-2.2774 -8.4102,-2.2774 z"
           transform="matrix(0.26458333,0,0,0.26458333,0,32.41665)"
           id="path1038"
           inkscape:connector-curvature="0" />
      </g>
      <path
         style="fill:#b9975b;fill-opacity:1;stroke:#ffffff;stroke-width:5.29166651;stroke-linecap:butt;stroke-linejoin:miter;stroke-miterlimit:4;stroke-dasharray:none;stroke-opacity:1"
         d="m 422.167,251.12825 c 0,0 0.94065,-17.24529 0.15678,-18.65626 -0.78387,-1.41099 -4.23293,-0.62711 -0.94065,-5.33037 3.29228,-4.70326 -5.33036,-34.02026 -5.33036,-34.02026 l 15.67753,0.31356 0.31355,-4.70326 c 0,0 2.03808,-0.94066 2.97873,6.271 0.94064,7.21168 8.15232,0.78389 13.48268,2.66519 5.33035,1.8813 6.11422,5.80069 9.4065,5.80069 3.2923,0 8.15235,-2.50841 14.73691,0.6271 0,0 -6.74133,2.82195 -9.09297,4.54649 -2.35163,1.72453 -9.40652,7.83877 -10.66073,10.03362 -1.25419,2.19486 1.41099,6.11424 -1.8813,7.21166 -3.29228,1.09744 -3.44905,10.97429 -2.35163,12.38526 1.09742,1.41098 0.62711,0.94066 6.58457,4.23294 5.95746,3.29228 5.0168,8.62264 5.0168,8.62264 z"
         id="path1243"
         inkscape:connector-curvature="0" />
      <path
         inkscape:connector-curvature="0"
         id="path1241"
         d="m 422.167,251.12825 c 0,0 0.94065,-17.24529 0.15678,-18.65626 -0.78387,-1.41099 -4.23293,-0.62711 -0.94065,-5.33037 3.29228,-4.70326 -5.33036,-34.02026 -5.33036,-34.02026 l 15.67753,0.31356 0.31355,-4.70326 c 0,0 2.03808,-0.94066 2.97873,6.271 0.94064,7.21168 8.15232,0.78389 13.48268,2.66519 5.33035,1.8813 6.11422,5.80069 9.4065,5.80069 3.2923,0 8.15235,-2.50841 14.73691,0.6271 0,0 -6.74133,2.82195 -9.09297,4.54649 -2.35163,1.72453 -9.40652,7.83877 -10.66073,10.03362 -1.25419,2.19486 1.41099,6.11424 -1.8813,7.21166 -3.29228,1.09744 -3.44905,10.97429 -2.35163,12.38526 1.09742,1.41098 0.62711,0.94066 6.58457,4.23294 5.95746,3.29228 5.0168,8.62264 5.0168,8.62264 z"
         style="fill:#b9975b;fill-opacity:1;stroke:none;stroke-width:0.21948551px;stroke-linecap:butt;stroke-linejoin:miter;stroke-opacity:1" />
    </g>
  </g>
</svg>
