<?xml version="1.0" encoding="UTF-8" standalone="no"?>
<!-- Created with Inkscape (http://www.inkscape.org/) -->

<svg
   xmlns:dc="http://purl.org/dc/elements/1.1/"
   xmlns:cc="http://creativecommons.org/ns#"
   xmlns:rdf="http://www.w3.org/1999/02/22-rdf-syntax-ns#"
   xmlns:svg="http://www.w3.org/2000/svg"
   xmlns="http://www.w3.org/2000/svg"
   xmlns:sodipodi="http://sodipodi.sourceforge.net/DTD/sodipodi-0.dtd"
   xmlns:inkscape="http://www.inkscape.org/namespaces/inkscape"
   width="1000"
   height="1000"
   viewBox="0 0 264.58333 264.58334"
   version="1.1"
   id="svg8"
   inkscape:version="0.92.3 (2405546, 2018-03-11)"
   sodipodi:docname="nym.svg">
  <defs
     id="defs2" />
  <sodipodi:namedview
     id="base"
     pagecolor="#ffffff"
     bordercolor="#666666"
     borderopacity="1.0"
     inkscape:pageopacity="0.0"
     inkscape:pageshadow="2"
     inkscape:zoom="0.49497475"
     inkscape:cx="911.85185"
     inkscape:cy="382.98331"
     inkscape:document-units="mm"
     inkscape:current-layer="layer1"
     showgrid="false"
     inkscape:window-width="1920"
     inkscape:window-height="1029"
     inkscape:window-x="1920"
     inkscape:window-y="0"
     inkscape:window-maximized="1"
     units="px"
     inkscape:snap-global="false" />
  <metadata
     id="metadata5">
    <rdf:RDF>
      <cc:Work
         rdf:about="">
        <dc:format>image/svg+xml</dc:format>
        <dc:type
           rdf:resource="http://purl.org/dc/dcmitype/StillImage" />
        <dc:title />
      </cc:Work>
    </rdf:RDF>
  </metadata>
  <g
     inkscape:label="Layer 1"
     inkscape:groupmode="layer"
     id="layer1"
     transform="translate(0,-32.41665)">
    <rect
       style="opacity:1;fill:#ffffff;fill-opacity:1;stroke:none;stroke-width:5.29166651;stroke-linecap:square;stroke-linejoin:miter;stroke-miterlimit:4;stroke-dasharray:none;stroke-opacity:1;paint-order:normal"
       id="rect885"
       width="298.80734"
       height="303.61819"
       x="-6.9490075"
       y="22.78145" />
    <g
       id="g1069"
       style="fill:#002d72;fill-opacity:1;stroke:none;opacity:0.321" />
    <g
       id="g1193"
       transform="matrix(0.78873446,0,0,0.78873446,-237.54158,24.680978)">
      <g
         id="g1122">
        <path
           style="opacity:1;fill:#002d72;fill-opacity:1;stroke:none;stroke-width:6.50361872;stroke-linecap:square;stroke-linejoin:miter;stroke-miterlimit:4;stroke-dasharray:none;stroke-opacity:1;paint-order:normal"
           d="m 1644.9883,166.01562 v 39.64844 l -6.5703,5.6836 v 76.88281 l -22.336,15.0918 v 87.41015 l -14.455,9.82031 v 50.8086 h -7.8497 v 64.22461 l -12.0781,21.25195 V 569.0918 H 1539.873 V 412.37695 h -11.8242 v -74.89257 h -8.4922 l -19.9316,-57.90626 a 8.0478183,19.708941 0 0 0 4.7715,-17.9746 8.0478183,19.708941 0 0 0 -8.0469,-19.70704 8.0478183,19.708941 0 0 0 -8.0488,19.70704 8.0478183,19.708941 0 0 0 5.9551,19.00781 l -20.293,56.87305 h -10.2969 v 74.89257 h -10.5117 v 114.77344 h -27.5938 v -83.23828 h -14.4531 v -26.2793 l -17.6328,-16.33398 -6.3457,-25.38281 -5.3594,25.10546 -19.2773,16.61133 v 26.2793 h -15.7676 v 131.10547 l -36.3203,17.56445 v 17.5 h -16.2363 v -59.74219 l -29.2871,-149.15039 -32.4668,149.15039 v 71.23047 h -18.3965 l -17.0879,35.90039 v 86.01758 127.45117 h 957.8613 34.0801 V 721.57812 657.4707 l -23.2266,-48.3125 h -20.0507 v -82.46875 h -27.5918 v 81.53907 h -33.1875 v -87.53907 l -18.3965,-8.37304 v -34.98633 l -13.1387,-5.67774 v -31.11328 h -28.9063 v 30.75196 l -17.082,6.03906 v 34.74609 l -19.707,8.61328 v 33.22657 h -27.2539 V 294.125 h -63.1778 v 277.10352 h -19.5996 v -39.28321 h -30.2207 v -57.8125 h -27.5918 v -18.39453 h -61.7558 v 18.39453 h -18.3946 v 46.24414 h -26.2793 V 400.55273 l -18.3945,-10.59765 v -86.63281 l -28.9062,-16.80665 v -75.16796 l -7.8828,-5.36914 v -39.9629 z"
           transform="matrix(0.26458333,0,0,0.26458333,0,32.41665)"
           id="rect1036"
           inkscape:connector-curvature="0" />
        <path
           style="opacity:1;fill:#ffffff;fill-opacity:1;stroke:#ffffff;stroke-width:20;stroke-linecap:square;stroke-linejoin:miter;stroke-miterlimit:4;stroke-dasharray:none;stroke-opacity:1;paint-order:normal"
           d="m 1317.8086,635.0332 c 0,0 -59.1893,79.11903 -144.8281,146.79688 v 17.36133 97.23828 15.05273 H 2233.1387 V 896.42969 799.19141 781.83008 C 2147.4999,714.15223 2088.3086,635.0332 2088.3086,635.0332 h -17.791 c 0,0 -180.6503,241.55078 -367.459,241.55078 -186.8087,0 -367.459,-241.55078 -367.459,-241.55078 z"
           transform="matrix(0.26458333,0,0,0.26458333,0,32.41665)"
           id="path1105"
           inkscape:connector-curvature="0" />
        <path
           style="opacity:1;fill:#ff5910;fill-opacity:1;stroke:none;stroke-width:5.06938219;stroke-linecap:square;stroke-linejoin:miter;stroke-miterlimit:4;stroke-dasharray:none;stroke-opacity:1;paint-order:normal"
           d="m 348.67024,200.43588 c 0,0 -15.66079,20.93376 -38.31939,38.84019 v 4.59314 25.72763 3.98273 h 280.5002 v -3.98273 -25.72763 -4.59314 c -22.65859,-17.90643 -38.31938,-38.84019 -38.31938,-38.84019 h -4.707 c 0,0 -47.79726,63.91037 -97.22373,63.91037 -49.42648,0 -97.22371,-63.91037 -97.22371,-63.91037 z m 0,3.57582 v 65.58514 h -14.45221 v -48.01955 c 9.1274,-9.96154 14.45221,-17.56559 14.45221,-17.56559 z m 4.70699,0 c 0,0 5.32481,7.60405 14.45221,17.56559 v 48.01955 h -14.45221 z m 194.44744,0 v 65.58514 h -14.4522 v -48.01955 c 9.12739,-9.96154 14.4522,-17.56559 14.4522,-17.56559 z m 4.707,0 c 0,0 5.32482,7.60405 14.4522,17.56559 v 48.01955 h -14.4522 z m -223.02114,22.54587 v 43.03927 h -14.45268 v -29.5554 c 5.35157,-4.50784 10.20333,-9.12282 14.45268,-13.48387 z m 43.02638,0 c 4.24936,4.36105 9.10114,8.97603 14.45271,13.48387 v 29.5554 h -14.45271 z m 156.12808,0 v 43.03927 h -14.45271 v -29.5554 c 5.35157,-4.50784 10.20333,-9.12282 14.45271,-13.48387 z m 43.02638,0 c 4.24937,4.36105 9.10104,8.97603 14.45269,13.48387 v 29.5554 h -14.45269 z m -179.99475,17.31164 c 4.53281,3.55623 9.36849,6.97073 14.45268,10.05659 v 15.67104 h -14.45268 z m 117.80866,0 v 25.72763 H 495.0526 V 253.9258 c 5.08419,-3.08586 9.91987,-6.50036 14.45268,-10.05659 z m -98.64848,12.77842 c 12.22261,6.69941 25.70588,11.2744 39.74414,11.2744 14.03826,0 27.52155,-4.57499 39.74416,-11.2744 v 12.94921 h -79.4883 z"
           id="rect1058"
           inkscape:connector-curvature="0" />
        <path
           style="opacity:1;fill:#002d72;fill-opacity:1;stroke:none;stroke-width:60.60303116;stroke-linecap:square;stroke-linejoin:miter;stroke-miterlimit:4;stroke-dasharray:none;stroke-opacity:1;paint-order:normal"
           d="m 1302.1816,612.30664 v 12.75391 h 48.4864 v -12.75391 z m 753.8809,0 v 12.75391 h 48.4883 v -12.75391 z"
           transform="matrix(0.26458333,0,0,0.26458333,0,32.41665)"
           id="rect1107"
           inkscape:connector-curvature="0" />
      </g>
      <g
         transform="matrix(0.73980746,0,0,0.73980746,54.268301,59.150879)"
         id="g1182">
        <path
           inkscape:connector-curvature="0"
           style="fill:#e81828;fill-opacity:1;stroke:none;stroke-width:0.99999994px;stroke-linecap:butt;stroke-linejoin:miter;stroke-opacity:1"
           d="m 2917.3203,472.70117 c -68.1015,17.49394 -99.4686,56.22606 -113.5078,83.24414 3.5538,-47.21227 -7.7109,-73.14258 -7.7109,-73.14258 l -27.2735,10.10157 c 0,0 34.3457,42.42646 4.041,117.17773 l 5.0508,35.35352 8.1719,-17.36328 15.0605,13.32421 23.2344,-52.52929 53.5371,-67.67969 -39.3945,70.71094 12.1211,20.20312 c 81.8223,-74.75127 66.6699,-139.40039 66.6699,-139.40039 z"
           transform="matrix(0.26458333,0,0,0.26458333,0,32.41665)"
           id="path1170" />
        <path
           sodipodi:nodetypes="csssccssssc"
           inkscape:connector-curvature="0"
           id="path1177"
           d="m 738.0648,191.56215 c 0,0 11.09168,-9.2208 20.71339,-7.08264 9.6217,2.13816 19.51066,10.28988 17.23887,25.65787 -2.27179,15.368 -7.08263,16.57071 -10.4235,24.72243 -3.34087,8.15173 -6.30098,23.51057 -9.22081,26.05879 -7.34991,6.41446 -14.29893,-1.60362 -19.77795,-1.73726 -5.47901,-0.13363 -10.15623,5.47903 -18.97612,4.40995 -6.23661,-0.75596 -7.6172,-14.29892 -9.88899,-22.18337 -2.27179,-7.88445 -9.62171,-15.368 -9.62171,-32.33961 0,-16.97162 11.62625,-24.32153 19.77795,-24.32153 8.15174,0 16.30344,3.74177 20.17887,6.81537 z"
           style="fill:#e81828;fill-opacity:1;stroke:#ffffff;stroke-width:5.29166651;stroke-linecap:butt;stroke-linejoin:miter;stroke-miterlimit:4;stroke-dasharray:none;stroke-opacity:1" />
        <path
           style="fill:#e81828;fill-opacity:1;stroke:none;stroke-width:0.26458332px;stroke-linecap:butt;stroke-linejoin:miter;stroke-opacity:1"
           d="m 738.0648,191.56215 c 0,0 11.09168,-9.2208 20.71339,-7.08264 9.6217,2.13816 19.51066,10.28988 17.23887,25.65787 -2.27179,15.368 -7.08263,16.57071 -10.4235,24.72243 -3.34087,8.15173 -6.30098,23.51057 -9.22081,26.05879 -7.34991,6.41446 -14.29893,-1.60362 -19.77795,-1.73726 -5.47901,-0.13363 -10.15623,5.47903 -18.97612,4.40995 -6.23661,-0.75596 -7.6172,-14.29892 -9.88899,-22.18337 -2.27179,-7.88445 -9.62171,-15.368 -9.62171,-32.33961 0,-16.97162 11.62625,-24.32153 19.77795,-24.32153 8.15174,0 16.30344,3.74177 20.17887,6.81537 z"
           id="path1175"
           inkscape:connector-curvature="0"
           sodipodi:nodetypes="csssccssssc" />
      </g>
    </g>
  </g>
</svg>
