<?xml version="1.0" encoding="UTF-8" standalone="no"?>
<!-- Created with Inkscape (http://www.inkscape.org/) -->

<svg
   xmlns:dc="http://purl.org/dc/elements/1.1/"
   xmlns:cc="http://creativecommons.org/ns#"
   xmlns:rdf="http://www.w3.org/1999/02/22-rdf-syntax-ns#"
   xmlns:svg="http://www.w3.org/2000/svg"
   xmlns="http://www.w3.org/2000/svg"
   xmlns:sodipodi="http://sodipodi.sourceforge.net/DTD/sodipodi-0.dtd"
   xmlns:inkscape="http://www.inkscape.org/namespaces/inkscape"
   width="1000"
   height="1000"
   viewBox="0 0 264.58333 264.58334"
   version="1.1"
   id="svg8"
   inkscape:version="0.92.3 (2405546, 2018-03-11)"
   sodipodi:docname="nyy-esb.svg">
  <defs
     id="defs2" />
  <sodipodi:namedview
     id="base"
     pagecolor="#ffffff"
     bordercolor="#666666"
     borderopacity="1.0"
     inkscape:pageopacity="0.0"
     inkscape:pageshadow="2"
     inkscape:zoom="0.49497475"
     inkscape:cx="774.46156"
     inkscape:cy="349.41593"
     inkscape:document-units="mm"
     inkscape:current-layer="layer1"
     showgrid="false"
     units="px"
     inkscape:window-width="1920"
     inkscape:window-height="1029"
     inkscape:window-x="1920"
     inkscape:window-y="0"
     inkscape:window-maximized="1"
     inkscape:snap-global="false"
     inkscape:snap-object-midpoints="true" />
  <metadata
     id="metadata5">
    <rdf:RDF>
      <cc:Work
         rdf:about="">
        <dc:format>image/svg+xml</dc:format>
        <dc:type
           rdf:resource="http://purl.org/dc/dcmitype/StillImage" />
        <dc:title />
      </cc:Work>
    </rdf:RDF>
  </metadata>
  <g
     inkscape:label="Layer 1"
     inkscape:groupmode="layer"
     id="layer1"
     transform="translate(0,-32.41665)">
    <rect
       style="opacity:1;fill:#ffffff;fill-opacity:1;stroke:none;stroke-width:5.29166651;stroke-linecap:square;stroke-linejoin:round;stroke-miterlimit:4;stroke-dasharray:none;stroke-opacity:1;paint-order:normal"
       id="rect994"
       width="312.70532"
       height="283.84024"
       x="-24.687037"
       y="23.240007" />
    <path
       sodipodi:nodetypes="cccsccccccsccccccccsccsscccccscscsccssccccccccccccccsccsccs"
       inkscape:connector-curvature="0"
       style="fill:#0c2340;fill-opacity:1;stroke:none;stroke-width:0.26458332px;stroke-linecap:butt;stroke-linejoin:miter;stroke-opacity:1"
       d="m 133.65776,128.55698 c 0,0 -10.20501,14.36296 -1.51154,32.88379 8.69344,18.52083 34.77352,3.78005 36.66342,0.37827 0,0 -0.75581,9.07105 -9.0713,12.09487 -8.31545,3.02381 -14.36288,1.51182 -18.89857,-0.75603 0,0 -4.15798,15.49746 5.66941,17.76532 9.82739,2.26785 18.52091,-2.64606 21.92268,-4.91391 0,0 -3.77991,11.71719 -20.03287,9.82731 0,0 -2.64578,9.82768 6.04769,16.25327 4.33427,3.2036 11.11088,2.17897 16.81758,0.34623 -2.22089,11.87909 -12.01913,14.22504 -21.32584,18.28106 -17.30061,7.53989 -33.33848,17.20083 -46.26745,25.99841 -1.66772,-2.03789 -1.30691,-4.21577 -1.30691,-4.21577 -6.548095,5.47904 -6.681763,-3.07371 -6.681763,-3.07371 -7.216272,6.1472 -7.34994,-3.07371 -7.34994,-3.07371 -7.349913,8.95353 -8.552444,-2.40554 -8.552444,-2.40554 -7.082631,9.08716 -7.34994,-2.53886 -7.34994,-2.53886 -1.730004,1.92224 -3.209607,2.85611 -4.286038,3.31297 -0.08866,-0.51774 -0.176292,-1.02338 -0.257334,-1.44229 -1.603613,-8.28536 -7.216431,-19.77784 -7.750968,-27.26138 -0.534538,-7.48355 3.741552,-15.23443 1.870683,-17.37258 -1.870895,-2.13817 -18.922947,-1.87631 -19.510428,-7.75095 -0.267255,-2.67269 11.492759,-9.35439 17.105418,-16.3034 5.61266,-6.94901 9.621626,-17.10511 9.621626,-19.24327 0,-2.13815 -6.41469,-5.61259 -6.147408,-8.28528 0.267255,-2.67269 16.03621,-16.83825 16.03621,-16.83825 l -6.875012,-0.0605 c 0,0 -13.040202,11.24494 -13.229167,16.72559 -0.188992,5.48066 6.142011,6.80386 6.519995,8.97723 0.377983,2.17336 -5.007822,12.18959 -8.126122,15.68587 -3.118299,3.49628 -18.331761,13.98505 -19.087702,19.08772 -0.755968,5.10268 6.992328,7.84293 10.29962,8.50439 3.307292,0.66146 8.788082,0.85052 9.449541,2.07894 0.661484,1.22842 -2.645966,8.31569 -2.173499,13.51287 0.472466,5.19717 7.08697,23.52872 7.842937,27.40298 0.755941,3.87426 5.575353,47.71957 5.575353,47.71957 0,0 32.636352,-27.4381 50.176142,-38.08118 38.93153,-23.6235 43.65638,-19.27656 48.94804,-24.56823 4.75745,-4.75745 7.52094,-12.70929 8.03207,-16.74109 3.1034,-1.34198 5.1971,-2.53577 5.1971,-2.53577 l 1.88981,-25.32455 c 0,0 9.07151,-3.40155 11.33936,-16.25275 0,0 -4.91398,1.88966 -10.96161,0.37775 0,0 12.09569,-4.15751 9.82784,-16.25275 0,0 -17.38691,7.55922 -23.8125,-21.54494 z m -21.53822,14.36192 -39.422391,4.54391 4.410075,8.01811 z m -14.833206,15.5019 -16.43724,4.14238 c 0,0 -0.668152,2.67292 3.340894,5.47925 4.009046,2.80633 10.690727,0.53453 12.962519,-2.67271 2.271792,-3.20723 0.133827,-6.94892 0.133827,-6.94892 z m -5.0183,52.55958 c -12.15419,0.10791 -17.967377,4.76973 -17.967377,4.76973 0,0 24.18797,-2.80664 42.362273,0.13333 -9.92237,-3.76683 -18.028412,-4.95959 -24.394896,-4.90306 z"
       id="path928" />
    <path
       inkscape:connector-curvature="0"
       id="path945"
       d="m 103.87353,40.372187 c -9.921687,0.04792 -20.350768,0.641822 -31.069939,2.006079 l 7.9375,80.887054 -48.002745,1.13378 6.047687,9.07128 165.553737,-3.40134 5.29166,-8.69353 -40.82179,1.13378 18.89908,-69.925445 c 0,0 -36.03069,-12.442519 -83.83519,-12.211658 z m 2.6629,5.850289 c 5.58213,0.0093 10.90467,0.165587 15.95459,0.428915 l -3.49695,46.913932 -16.6021,-1.322401 -1.53736,-45.977554 c 1.92111,-0.03057 3.81691,-0.046 5.68182,-0.04289 z m -21.143937,0.653707 2.272744,44.193685 -3.900038,-0.310576 -4.157874,-43.467114 c 1.950191,-0.15747 3.878289,-0.29551 5.785168,-0.415995 z m 55.894787,1.339453 c 6.76878,0.780547 12.77152,1.714358 17.91724,2.660303 l -9.27592,45.153316 -13.1568,-1.047999 z m 33.03466,5.982064 c 4.04082,1.056722 6.20533,1.788005 6.20533,1.788005 l -11.33938,41.577305 -4.50824,-0.359151 z"
       style="fill:#003087;fill-opacity:1;stroke:#ffffff;stroke-width:5.29166651;stroke-linecap:butt;stroke-linejoin:miter;stroke-miterlimit:4;stroke-dasharray:none;stroke-opacity:1" />
    <path
       inkscape:connector-curvature="0"
       style="fill:#003087;fill-opacity:1;stroke:none;stroke-width:0.26458332px;stroke-linecap:butt;stroke-linejoin:miter;stroke-opacity:1"
       d="m 103.87353,40.372187 c -9.921687,0.04792 -20.350768,0.641822 -31.069939,2.006079 l 7.9375,80.887054 -48.002745,1.13378 6.047687,9.07128 165.553737,-3.40134 5.29166,-8.69353 -40.82179,1.13378 18.89908,-69.925445 c 0,0 -36.03069,-12.442519 -83.83519,-12.211658 z m 2.6629,5.850289 c 5.58213,0.0093 10.90467,0.165587 15.95459,0.428915 l -3.49695,46.913932 -16.6021,-1.322401 -1.53736,-45.977554 c 1.92111,-0.03057 3.81691,-0.046 5.68182,-0.04289 z m -21.143937,0.653707 2.272744,44.193685 -3.900038,-0.310576 -4.157874,-43.467114 c 1.950191,-0.15747 3.878289,-0.29551 5.785168,-0.415995 z m 55.894787,1.339453 c 6.76878,0.780547 12.77152,1.714358 17.91724,2.660303 l -9.27592,45.153316 -13.1568,-1.047999 z m 33.03466,5.982064 c 4.04082,1.056722 6.20533,1.788005 6.20533,1.788005 l -11.33938,41.577305 -4.50824,-0.359151 z"
       id="path915" />
    <g
       id="g1048"
       transform="matrix(0.68828308,0,0,0.68828308,-416.99482,114.01627)">
      <path
         style="opacity:1;fill:#e4002c;fill-opacity:1;stroke:#ffffff;stroke-width:5.29166651;stroke-linecap:butt;stroke-linejoin:miter;stroke-miterlimit:4;stroke-dasharray:none;stroke-opacity:1"
         d="m 846.97712,146.52724 -0.53454,-9.08717 8.01809,-11.75985 3.74177,-14.9671 3.20725,-28.330567 2.40541,-1.603618 2.93997,-54.255713 1.87089,53.721175 2.93995,3.207234 2.13817,32.339609 4.54359,10.15624 6.41445,6.1472 v 14.9671 z"
         id="path1032"
         inkscape:connector-curvature="0" />
      <path
         inkscape:connector-curvature="0"
         id="path1012"
         d="m 846.97712,146.52724 -0.53454,-9.08717 8.01809,-11.75985 3.74177,-14.9671 3.20725,-28.330567 2.40541,-1.603618 2.93997,-54.255713 1.87089,53.721175 2.93995,3.207234 2.13817,32.339609 4.54359,10.15624 6.41445,6.1472 v 14.9671 z"
         style="opacity:1;fill:#e4002c;fill-opacity:1;stroke:none;stroke-width:0.26458332px;stroke-linecap:butt;stroke-linejoin:miter;stroke-opacity:1" />
      <path
         style="opacity:1;fill:#e4002c;fill-opacity:1;stroke:#ffffff;stroke-width:20;stroke-linecap:butt;stroke-linejoin:miter;stroke-miterlimit:4;stroke-dasharray:none;stroke-opacity:1"
         d="m 3316.3301,374.71484 -141.4199,27.27539 -4.0411,157.58399 -8.5156,74.74414 -0.5762,0.006 -1.0898,31.39062 h 214.1367 l -0.6933,-25.33789 1.7988,0.008 -7.0703,-201.01954 -5.0508,-32.32421 z"
         transform="matrix(0.26458333,0,0,0.26458333,0,32.41665)"
         id="path1034"
         inkscape:connector-curvature="0" />
      <path
         id="path1014"
         transform="matrix(0.26458333,0,0,0.26458333,0,32.41665)"
         d="m 3316.3301,374.71484 -141.4199,27.27539 -4.0411,157.58399 -8.5156,74.74414 -0.5762,0.006 -1.0898,31.39062 h 214.1367 l -0.6933,-25.33789 1.7988,0.008 -7.0703,-201.01954 -5.0508,-32.32421 z"
         style="opacity:1;fill:#e4002c;fill-opacity:1;stroke:none;stroke-width:0.99999994px;stroke-linecap:butt;stroke-linejoin:miter;stroke-opacity:1"
         inkscape:connector-curvature="0" />
      <path
         style="opacity:1;fill:#e4002c;fill-opacity:1;stroke:#ffffff;stroke-width:20;stroke-linecap:butt;stroke-linejoin:miter;stroke-miterlimit:4;stroke-dasharray:none;stroke-opacity:1"
         d="m 3194.1016,481.79102 -54.5469,10.10156 -6.0606,124.25 -9.0918,4.04101 -0.7988,45.53125 h 70.4981 z"
         transform="matrix(0.26458333,0,0,0.26458333,0,32.41665)"
         id="path1036"
         inkscape:connector-curvature="0" />
      <path
         id="path1016"
         transform="matrix(0.26458333,0,0,0.26458333,0,32.41665)"
         d="m 3194.1016,481.79102 -54.5469,10.10156 -6.0606,124.25 -9.0918,4.04101 -0.7988,45.53125 h 70.4981 z"
         style="opacity:1;fill:#e4002c;fill-opacity:1;stroke:none;stroke-width:0.99999994px;stroke-linecap:butt;stroke-linejoin:miter;stroke-opacity:1"
         inkscape:connector-curvature="0" />
      <path
         style="opacity:1;fill:#e4002c;fill-opacity:1;stroke:#ffffff;stroke-width:20;stroke-linecap:butt;stroke-linejoin:miter;stroke-miterlimit:4;stroke-dasharray:none;stroke-opacity:1"
         d="m 3327.4434,456.53711 -59.5996,12.12305 -3.0313,129.29882 -7.0703,2.02149 -1.5664,65.73437 h 149.5703 l -0.5215,-34.41992 -10.1016,-5.05078 V 505.02539 Z"
         transform="matrix(0.26458333,0,0,0.26458333,0,32.41665)"
         id="path1038"
         inkscape:connector-curvature="0" />
      <path
         id="path1018"
         transform="matrix(0.26458333,0,0,0.26458333,0,32.41665)"
         d="m 3327.4434,456.53711 -59.5996,12.12305 -3.0313,129.29882 -7.0703,2.02149 -1.5664,65.73437 h 149.5703 l -0.5215,-34.41992 -10.1016,-5.05078 V 505.02539 Z"
         style="opacity:1;fill:#e4002c;fill-opacity:1;stroke:none;stroke-width:0.99999994px;stroke-linecap:butt;stroke-linejoin:miter;stroke-opacity:1"
         inkscape:connector-curvature="0" />
    </g>
  </g>
</svg>
