<?xml version="1.0" encoding="UTF-8" standalone="no"?>
<!-- Created with Inkscape (http://www.inkscape.org/) -->

<svg
   xmlns:dc="http://purl.org/dc/elements/1.1/"
   xmlns:cc="http://creativecommons.org/ns#"
   xmlns:rdf="http://www.w3.org/1999/02/22-rdf-syntax-ns#"
   xmlns:svg="http://www.w3.org/2000/svg"
   xmlns="http://www.w3.org/2000/svg"
   xmlns:sodipodi="http://sodipodi.sourceforge.net/DTD/sodipodi-0.dtd"
   xmlns:inkscape="http://www.inkscape.org/namespaces/inkscape"
   width="1000"
   height="1000"
   viewBox="0 0 264.58333 264.58334"
   version="1.1"
   id="svg8"
   inkscape:version="0.92.3 (2405546, 2018-03-11)"
   sodipodi:docname="nyy.svg">
  <defs
     id="defs2" />
  <sodipodi:namedview
     id="base"
     pagecolor="#ffffff"
     bordercolor="#666666"
     borderopacity="1.0"
     inkscape:pageopacity="0.0"
     inkscape:pageshadow="2"
     inkscape:zoom="0.7"
     inkscape:cx="485.40292"
     inkscape:cy="423.55413"
     inkscape:document-units="mm"
     inkscape:current-layer="layer1"
     showgrid="false"
     units="px"
     inkscape:window-width="1920"
     inkscape:window-height="1029"
     inkscape:window-x="1920"
     inkscape:window-y="0"
     inkscape:window-maximized="1"
     inkscape:snap-global="false"
     inkscape:snap-object-midpoints="true" />
  <metadata
     id="metadata5">
    <rdf:RDF>
      <cc:Work
         rdf:about="">
        <dc:format>image/svg+xml</dc:format>
        <dc:type
           rdf:resource="http://purl.org/dc/dcmitype/StillImage" />
        <dc:title />
      </cc:Work>
    </rdf:RDF>
  </metadata>
  <g
     inkscape:label="Layer 1"
     inkscape:groupmode="layer"
     id="layer1"
     transform="translate(0,-32.41665)">
    <rect
       style="opacity:1;fill:#ffffff;fill-opacity:1;stroke:none;stroke-width:5.29166651;stroke-linecap:square;stroke-linejoin:round;stroke-miterlimit:4;stroke-dasharray:none;stroke-opacity:1;paint-order:normal"
       id="rect994"
       width="312.70532"
       height="283.84024"
       x="-4.27632"
       y="30.799534" />
    <g
       id="g950"
       transform="translate(-533.46998,13.363476)">
      <path
         id="path928"
         transform="matrix(0.26458333,0,0,0.26458333,0,32.41665)"
         d="m 2521.4277,312.85742 c 0,0 -38.5701,54.28517 -5.7129,124.28516 32.8571,70.00002 131.4275,14.28681 138.5704,1.42969 0,0 -2.8566,34.28431 -34.2852,45.71289 -31.4285,11.42857 -54.2849,5.71398 -71.4277,-2.85743 0,0 -15.7152,58.5731 21.4277,67.14454 37.1429,8.5714 70.0003,-10.00087 82.8574,-18.57227 0,0 -14.2863,44.28543 -75.7148,37.14258 0,0 -9.9998,37.14399 22.8574,61.42969 16.3815,12.10808 41.9939,8.23548 63.5625,1.30859 -8.3939,44.89733 -45.4266,53.76393 -80.6016,69.09375 -65.3881,28.49724 -126.0037,65.01103 -174.8691,98.26172 -6.3032,-7.70225 -4.9395,-15.9336 -4.9395,-15.9336 -24.7487,20.70815 -25.2539,-11.61718 -25.2539,-11.61718 -27.2741,23.23351 -27.7793,-11.61719 -27.7793,-11.61719 -27.7792,33.84011 -32.3242,-9.0918 -32.3242,-9.0918 -26.769,34.34517 -27.7793,-9.5957 -27.7793,-9.5957 -6.5386,7.26516 -12.1308,10.79478 -16.1992,12.52148 -0.3351,-1.95681 -0.6663,-3.86788 -0.9726,-5.45117 -6.0609,-31.31474 -27.2747,-74.75091 -29.295,-103.03515 -2.0203,-28.28429 14.1413,-57.57893 7.0703,-65.66016 -7.0711,-8.08124 -71.5198,-7.09156 -73.7402,-29.29492 -1.0101,-10.10151 43.4372,-35.35517 64.6504,-61.61914 21.2132,-26.26398 36.3652,-64.64924 36.3652,-72.73047 0,-8.0812 -24.2445,-21.21293 -23.2343,-31.31445 1.0101,-10.10151 60.6093,-63.64063 60.6093,-63.64063 l -25.9843,-0.22852 c 0,0 -49.2858,42.50058 -50,63.21485 -0.7143,20.7143 23.2139,25.71537 24.6425,33.92969 1.4286,8.21427 -18.9272,46.07087 -30.7129,59.28515 -11.7857,13.21429 -69.2854,52.8569 -72.1425,72.14258 -2.8572,19.28572 26.4277,29.64257 38.9277,32.14258 12.5,2.5 33.2148,3.21457 35.7148,7.85742 2.5001,4.64285 -10.0005,31.42938 -8.2148,51.07227 1.7857,19.64284 26.7854,88.92744 29.6426,103.57031 2.8571,14.64287 21.0722,180.35742 21.0722,180.35742 0,0 123.35,-103.70304 189.6421,-143.92885 147.1428,-89.2857 165.0005,-72.85629 185.0005,-92.85631 17.9809,-17.98091 28.4256,-48.03511 30.3574,-63.27343 11.7294,-5.07205 19.6426,-9.58399 19.6426,-9.58399 L 2710,517.14258 c 0,0 34.286,-12.85627 42.8574,-61.42774 0,0 -18.5725,7.14204 -41.4297,1.42774 0,0 45.716,-15.71344 37.1446,-61.42774 0,0 -65.7143,28.57031 -90,-81.42968 z m -81.4043,54.28125 -148.998,17.17383 16.668,30.30469 z m -56.0625,58.58985 -62.125,15.65625 c 0,0 -2.5253,10.10238 12.627,20.70898 15.1523,10.6066 40.4059,2.02029 48.9922,-10.10156 8.5863,-12.12182 0.5058,-26.26367 0.5058,-26.26367 z m -18.9668,198.65039 c -45.9371,0.40785 -67.9082,18.02734 -67.9082,18.02734 0,0 91.4191,-10.60779 160.1094,0.50391 -37.5019,-14.23684 -68.1389,-18.74489 -92.2012,-18.53125 z"
         style="fill:#0c2340;fill-opacity:1;stroke:none;stroke-width:0.99999994px;stroke-linecap:butt;stroke-linejoin:miter;stroke-opacity:1"
         inkscape:connector-curvature="0"
         sodipodi:nodetypes="cccsccccccsccccccccsccsscccccscscsccssccccccccccccccsccsccs" />
      <path
         style="fill:#003087;fill-opacity:1;stroke:#ffffff;stroke-width:20;stroke-linecap:butt;stroke-linejoin:miter;stroke-miterlimit:4;stroke-dasharray:none;stroke-opacity:1"
         d="m 2408.8574,-20.439453 c -37.4993,0.181094 -76.9163,2.425781 -117.4297,7.582031 l 30,305.714842 -181.4277,4.28516 22.8574,34.28515 625.7149,-12.85546 20,-32.85743 L 2654.2852,290 2725.7148,25.714844 c 0,0 -136.179,-47.026844 -316.8574,-46.154297 z m 10.0645,22.111328 c 21.0978,0.035117 41.2145,0.625838 60.3008,1.6210938 l -13.2168,177.3125012 -62.7481,-4.99805 -5.8105,-173.7734356 c 7.2609,-0.1155284 14.4261,-0.1738415 21.4746,-0.1621094 z M 2339.0078,4.1425781 2347.5977,171.17383 2332.8574,170 2317.1426,5.7148438 c 7.3708,-0.5951625 14.6581,-1.1168899 21.8652,-1.5722657 z m 211.2559,5.0625 c 25.5828,2.9500979 48.2703,6.4794639 67.7187,10.0546879 l -35.0586,170.658204 -49.7265,-3.96094 z m 124.8554,22.6093749 c 15.2724,3.99391 23.4532,6.757813 23.4532,6.757813 l -42.8575,157.142574 -17.039,-1.35742 z"
         transform="matrix(0.26458333,0,0,0.26458333,0,32.41665)"
         id="path945"
         inkscape:connector-curvature="0" />
      <path
         id="path915"
         transform="matrix(0.26458333,0,0,0.26458333,0,32.41665)"
         d="m 2408.8574,-20.439453 c -37.4993,0.181094 -76.9163,2.425781 -117.4297,7.582031 l 30,305.714842 -181.4277,4.28516 22.8574,34.28515 625.7149,-12.85546 20,-32.85743 L 2654.2852,290 2725.7148,25.714844 c 0,0 -136.179,-47.026844 -316.8574,-46.154297 z m 10.0645,22.111328 c 21.0978,0.035117 41.2145,0.625838 60.3008,1.6210938 l -13.2168,177.3125012 -62.7481,-4.99805 -5.8105,-173.7734356 c 7.2609,-0.1155284 14.4261,-0.1738415 21.4746,-0.1621094 z M 2339.0078,4.1425781 2347.5977,171.17383 2332.8574,170 2317.1426,5.7148438 c 7.3708,-0.5951625 14.6581,-1.1168899 21.8652,-1.5722657 z m 211.2559,5.0625 c 25.5828,2.9500979 48.2703,6.4794639 67.7187,10.0546879 l -35.0586,170.658204 -49.7265,-3.96094 z m 124.8554,22.6093749 c 15.2724,3.99391 23.4532,6.757813 23.4532,6.757813 l -42.8575,157.142574 -17.039,-1.35742 z"
         style="fill:#003087;fill-opacity:1;stroke:none;stroke-width:0.99999994px;stroke-linecap:butt;stroke-linejoin:miter;stroke-opacity:1"
         inkscape:connector-curvature="0" />
    </g>
    <circle
       style="opacity:1;fill:#ffffff;fill-opacity:1;stroke:#fdfdfd;stroke-width:5.29166651;stroke-linecap:square;stroke-linejoin:round;stroke-miterlimit:4;stroke-dasharray:none;stroke-opacity:1;paint-order:normal"
       id="path984"
       cx="199.49452"
       cy="214.46262"
       r="40.348957" />
    <path
       style="opacity:1;fill:#e4002c;fill-opacity:1;stroke:none;stroke-width:4.84920788;stroke-linecap:square;stroke-linejoin:round;stroke-miterlimit:4;stroke-dasharray:none;stroke-opacity:1;paint-order:normal"
       d="m 196.32553,174.23853 a 40.348976,40.348999 0 0 0 -27.89425,14.47291 40.348976,40.348999 0 0 0 -1.85043,49.09073 40.348976,40.348999 0 0 0 46.93925,14.49345 40.348976,40.348999 0 0 0 26.14807,-41.5889 l -40.17367,3.75588 16.83414,-36.66958 a 40.348976,40.348999 0 0 0 -20.00311,-3.55449 z m 0.6653,8.44703 a 31.875737,31.875754 0 0 1 13.66734,1.95989 l -14.40838,32.04879 35.07908,-2.95425 a 31.875737,31.875754 0 0 1 -20.75414,30.61085 31.875737,31.875754 0 0 1 -37.08219,-11.44972 31.875737,31.875754 0 0 1 1.46188,-38.78198 31.875737,31.875754 0 0 1 22.03641,-11.43358 z m 0.51792,2.29918 a 5.7031442,5.7031474 0 0 0 -5.1475,6.20926 5.7031442,5.7031474 0 0 0 6.20926,5.1475 5.7031442,5.7031474 0 0 0 5.1475,-6.20927 5.7031442,5.7031474 0 0 0 -6.20926,-5.14749 z m -13.07908,4.92585 a 5.7031442,5.7031474 0 0 0 -5.14751,6.20926 5.7031442,5.7031474 0 0 0 6.20927,5.14752 5.7031442,5.7031474 0 0 0 5.1475,-6.20927 5.7031442,5.7031474 0 0 0 -6.20926,-5.14751 z m 6.22015,13.30533 a 5.7031442,5.7031474 0 0 0 -5.1475,6.20927 5.7031442,5.7031474 0 0 0 6.20926,5.1475 5.7031442,5.7031474 0 0 0 5.14751,-6.20926 5.7031442,5.7031474 0 0 0 -6.20927,-5.14751 z m -14.28046,2.82618 a 5.7031442,5.7031474 0 0 0 -5.14751,6.20925 5.7031442,5.7031474 0 0 0 6.20927,5.14752 5.7031442,5.7031474 0 0 0 5.1475,-6.20927 5.7031442,5.7031474 0 0 0 -6.20926,-5.1475 z m 17.59608,11.40048 a 5.7031442,5.7031474 0 0 0 -5.14749,6.20925 5.7031442,5.7031474 0 0 0 6.20925,5.14751 5.7031442,5.7031474 0 0 0 5.1475,-6.20926 5.7031442,5.7031474 0 0 0 -6.20926,-5.1475 z m 27.62859,-1.79634 a 5.7031442,5.7031474 0 0 0 -5.14751,6.20927 5.7031442,5.7031474 0 0 0 6.20926,5.14751 5.7031442,5.7031474 0 0 0 5.14751,-6.20927 5.7031442,5.7031474 0 0 0 -6.20926,-5.14751 z m -12.76887,3.1892 a 5.7031442,5.7031474 0 0 0 -5.14749,6.20926 5.7031442,5.7031474 0 0 0 6.20925,5.14751 5.7031442,5.7031474 0 0 0 5.14751,-6.20927 5.7031442,5.7031474 0 0 0 -6.20927,-5.1475 z m -28.80203,3.03508 a 5.7031442,5.7031474 0 0 0 -5.1475,6.20925 5.7031442,5.7031474 0 0 0 6.20926,5.14751 5.7031442,5.7031474 0 0 0 5.14751,-6.20927 5.7031442,5.7031474 0 0 0 -6.20927,-5.14749 z m 10.07472,8.62657 a 5.7031442,5.7031474 0 0 0 -5.1475,6.20927 5.7031442,5.7031474 0 0 0 6.20926,5.1475 5.7031442,5.7031474 0 0 0 5.1475,-6.20926 5.7031442,5.7031474 0 0 0 -6.20926,-5.14751 z m 14.90014,1.5381 a 5.7031442,5.7031474 0 0 0 -5.14749,6.20926 5.7031442,5.7031474 0 0 0 6.20926,5.1475 5.7031442,5.7031474 0 0 0 5.14749,-6.20926 5.7031442,5.7031474 0 0 0 -6.20926,-5.1475 z"
       id="path952"
       inkscape:connector-curvature="0" />
  </g>
</svg>
