<?xml version="1.0" encoding="UTF-8" standalone="no"?>
<!-- Created with Inkscape (http://www.inkscape.org/) -->

<svg
   xmlns:dc="http://purl.org/dc/elements/1.1/"
   xmlns:cc="http://creativecommons.org/ns#"
   xmlns:rdf="http://www.w3.org/1999/02/22-rdf-syntax-ns#"
   xmlns:svg="http://www.w3.org/2000/svg"
   xmlns="http://www.w3.org/2000/svg"
   xmlns:sodipodi="http://sodipodi.sourceforge.net/DTD/sodipodi-0.dtd"
   xmlns:inkscape="http://www.inkscape.org/namespaces/inkscape"
   width="1000"
   height="1000"
   viewBox="0 0 264.58333 264.58334"
   version="1.1"
   id="svg8"
   inkscape:version="0.92.3 (2405546, 2018-03-11)"
   sodipodi:docname="oak.svg">
  <defs
     id="defs2">
    <inkscape:perspective
       id="perspective10"
       inkscape:persp3d-origin="372.04724 : 350.78739 : 1"
       inkscape:vp_z="744.09448 : 526.18109 : 1"
       inkscape:vp_y="0 : 1000 : 0"
       inkscape:vp_x="0 : 526.18109 : 1"
       sodipodi:type="inkscape:persp3d" />
    <inkscape:perspective
       sodipodi:type="inkscape:persp3d"
       inkscape:vp_x="0 : 526.18109 : 1"
       inkscape:vp_y="0 : 1000 : 0"
       inkscape:vp_z="744.09448 : 526.18109 : 1"
       inkscape:persp3d-origin="372.04724 : 350.78739 : 1"
       id="perspective2470" />
  </defs>
  <sodipodi:namedview
     id="base"
     pagecolor="#ffffff"
     bordercolor="#666666"
     borderopacity="1.0"
     inkscape:pageopacity="0.0"
     inkscape:pageshadow="2"
     inkscape:zoom="0.98994949"
     inkscape:cx="228.63713"
     inkscape:cy="541.61934"
     inkscape:document-units="mm"
     inkscape:current-layer="layer2"
     showgrid="false"
     units="px"
     inkscape:snap-global="false"
     inkscape:window-width="1920"
     inkscape:window-height="1054"
     inkscape:window-x="0"
     inkscape:window-y="0"
     inkscape:window-maximized="1" />
  <metadata
     id="metadata5">
    <rdf:RDF>
      <cc:Work
         rdf:about="">
        <dc:format>image/svg+xml</dc:format>
        <dc:type
           rdf:resource="http://purl.org/dc/dcmitype/StillImage" />
        <dc:title />
      </cc:Work>
    </rdf:RDF>
  </metadata>
  <g
     inkscape:label="Layer 1"
     inkscape:groupmode="layer"
     id="layer1"
     transform="translate(0,-32.41665)"
     style="display:inline">
    <g
       id="layer1-6"
       inkscape:label="Layer 1"
       transform="matrix(0.26458333,0,0,0.26458333,768.93983,139.04799)" />
  </g>
  <g
     inkscape:groupmode="layer"
     id="layer2"
     inkscape:label="Layer 2">
    <rect
       style="opacity:1;fill:#ffffff;fill-opacity:1;stroke:none;stroke-width:6.61458302;stroke-linecap:square;stroke-linejoin:round;stroke-miterlimit:4;stroke-dasharray:none;stroke-opacity:1;paint-order:normal"
       id="rect1031"
       width="272.14285"
       height="274.7887"
       x="-2.2678571"
       y="-3.0238097" />
    <g
       id="g1029"
       transform="translate(-698.17509,-16.575319)">
      <path
         sodipodi:nodetypes="sccsccccccscscccsscccsscccsccsc"
         inkscape:connector-curvature="0"
         transform="scale(0.26458333)"
         id="path994"
         d="m 3348.3691,323.81445 c -9.5779,0.0462 -19.6003,0.8357 -30.0175,2.41407 -18.9342,2.86881 -35.9107,10.62793 -50.5176,20.26562 -14.3606,-6.80045 -45.8375,-17.76362 -94.9453,-14.20508 -69.7005,5.05074 -166.6739,37.37547 -186.877,56.56836 -20.203,19.1929 -53.5391,107.0774 -43.4375,114.14844 0.8369,0.58584 3.2282,0.79054 6.8574,0.68555 -14.6489,56.58163 -27.9099,104.91365 -58.375,88.20703 -31.3147,-17.17259 -26.4256,-90.03896 -51.5175,-165.66602 -12.0904,-36.44031 -61.6192,-60.60742 -61.6192,-60.60742 0,0 40.4051,30.3045 53.5371,76.77148 13.132,46.46703 6.0618,115.15718 28.2852,153.54297 22.2233,38.38579 67.6805,44.44713 80.8125,9.0918 10.0903,-27.16616 20.119,-79.66067 24.2519,-102.66797 60.1504,-7.06316 220.2051,-39.76367 220.2051,-39.76367 0,0 -212.1325,22.223 -218.1933,16.16211 -6.061,-6.06093 4.0402,-47.47704 26.2636,-71.7207 22.2234,-24.24367 182.8368,-53.53828 211.1211,-50.50782 19.6842,2.10903 30.5448,9.10129 35.3399,13.16407 -19.3954,19.21098 -20.1876,59.06203 -20.1876,59.06203 69.1955,-101.01527 157.5849,-82.32877 180.8184,-69.1968 23.2335,13.13201 51.5168,52.52867 43.4356,94.95508 -8.0812,42.4264 -62.6281,40.40685 -69.6992,89.9043 -7.0711,49.49748 45.4571,34.34483 50.5078,6.06054 5.0508,-28.28424 54.5477,-51.51806 57.5781,-80.8125 3.0305,-29.29444 -4.0407,-46.46617 -25.2539,-88.89258 -17.8987,-35.79728 -56.6523,-57.2126 -108.3731,-56.96289 z m -246.1914,165.04883 -75.7617,16.16211 c 11.1117,23.23351 22.2247,29.29491 47.4785,24.24414 25.2539,-5.05077 28.2832,-40.40625 28.2832,-40.40625 z"
         style="display:inline;fill:#a2aaad;fill-opacity:1;stroke:none;stroke-width:0.99999994px;stroke-linecap:butt;stroke-linejoin:miter;stroke-opacity:1" />
      <path
         sodipodi:nodetypes="scccsccccccsccccssccccccccccsscsscccssccs"
         inkscape:connector-curvature="0"
         id="path1008"
         transform="scale(0.26458333)"
         d="m 2749.6348,358.55273 c -9.6393,-0.69586 -38.7393,56.79024 -20.2032,74.75196 2.9646,2.87267 7.4541,2.37088 12.2793,1.92578 7.413,-0.68382 18.7908,1.53655 24.7168,8.69726 8.5714,10.35716 11.9961,41.90397 11.9961,65.64258 0,23.73857 -15.6565,77.27711 -12.1211,118.69336 0.8648,10.13 3.3413,22.50186 7.1133,35.60352 -20.726,2.87419 -85.0496,12.06824 -85.9043,15.91406 -0.9693,4.36214 29.7117,14.29917 95.5684,11.9707 13.0307,32.06646 32.352,62.37519 53.9336,70.35743 0,0 114.1471,-35.85995 178.7968,-82.83204 0,0 -111.622,53.53709 -147.4824,51.01172 -35.8604,-2.52536 -77.2761,-61.11389 -82.832,-115.66211 -5.5558,-54.54826 7.0703,-65.66073 4.5449,-112.63281 -1.8884,-35.12465 -8.2956,-56.9731 -16.8984,-69.5625 2.2839,0.25505 4.2799,-0.24728 5.7871,-2.1582 15.9927,-20.2763 -13.6566,-70.59177 -29.2949,-71.72071 z m 658.8847,225.90821 c -10.4961,0.24255 -20.0267,5.22862 -20.4687,18.04492 -1.0101,29.29444 -36.365,32.32313 -44.9512,55.55664 -8.5863,23.23347 -14.6476,80.81217 -37.8808,91.92383 -45.0193,15.04027 -100.1164,-104.96401 -100.1164,-104.96401 0,0 -1.2371,19.16935 -0.5165,23.8351 -39.7287,42.45671 -89.8998,54.83244 -102.4082,51.33008 -12.6269,-3.53552 -26.7964,-59.77517 -36.3929,-61.79548 -9.5964,-2.0203 -24.2164,9.26814 -24.2164,9.26814 0,0 18.1831,-6.56637 24.2441,6.06054 3.3223,6.92152 8.876,27.16689 11.6875,45.89063 -13.8963,11.08976 -53.4579,35.66011 -149.5723,57.14453 -128.7945,28.78934 -218.6992,18.68786 -218.6992,15.15234 0,-3.53556 14.6485,-7.57617 14.6485,-7.57617 0,0 -38.386,2.52501 -37.8809,8.58594 0.5051,6.06092 32.028,23.27023 161.3276,9.12807 120.8061,-13.21315 185.3422,-30.00062 241.5904,-56.80776 2.6835,3.58514 5.7294,6.31622 9.2246,7.7793 21.3448,8.9351 62.702,-8.49945 117.8183,-59.44531 11.659,24.4277 27.8653,55.62895 39.7637,67.52734 20.7081,20.70811 51.0134,45.96123 82.3281,14.64648 31.3147,-31.3147 14.6478,-48.99192 24.2442,-75.25586 9.5965,-26.26397 73.2359,-84.3485 74.2461,-100.00585 0.5682,-8.80728 -14.5246,-16.3353 -28.0196,-16.02344 z"
         style="fill:#003831;fill-opacity:1;stroke:none;stroke-width:0.99999994px;stroke-linecap:butt;stroke-linejoin:miter;stroke-opacity:1" />
      <path
         id="path1066"
         d="m 904.13095,115.0415 c -3.59201,0.0858 -6.1178,3.06825 -9.59451,3.2095 -2.2903,0.51535 -3.65598,3.66083 -5.17871,4.22832 -3.98102,-2.69221 -7.71712,1.86993 -9.43014,4.50298 -4.89336,-2.49211 -10.41323,3.09722 -9.76059,8.05558 -1.20488,2.19982 -0.60552,5.22585 -3.57398,5.59548 -3.10586,1.35029 -4.30242,5.30541 -3.81765,7.94223 -3.14002,1.8357 -2.25424,5.90409 -2.58521,8.88259 1.40952,2.42644 -2.8283,3.10844 -3.20164,5.53489 -0.23382,3.01957 -2.77402,5.33418 -2.09609,8.57785 0.28334,4.80566 5.96749,5.64605 9.52868,3.79629 4.24985,-1.86859 8.18802,-5.05803 13.10741,-4.27933 3.52927,-0.72669 5.86046,-4.37657 9.74796,-3.65941 3.29722,-0.45642 6.41269,-3.98361 9.45806,-3.14367 -0.52901,3.83196 1.96312,10.28664 -3.43708,11.27685 -6.57304,1.40527 -13.38377,1.66192 -20.07355,2.21204 -4.27563,-0.33045 -11.52171,2.64994 -8.83724,7.88817 3.76513,4.5173 10.61227,1.39287 15.55923,2.30402 20.0337,-0.30551 40.28168,0.7955 60.18752,-0.57372 4.97207,-2.54549 0.61724,-9.99702 -4.13111,-8.74438 -3.90338,-0.60288 -7.64218,-2.31118 -11.61472,-2.39732 -3.47182,-1.02028 -7.69216,0.4111 -10.69354,-1.74513 -0.34481,-3.54886 -1.06185,-8.09929 -0.13819,-11.09244 4.26963,-0.081 7.65201,3.4613 11.94429,3.4144 2.82018,3.90162 8.58779,7.20198 12.84019,3.57527 2.41414,2.10422 5.76734,5.9004 9.20605,3.17506 3.19984,-2.80106 3.97402,-7.70294 3.46325,-11.69711 -1.91726,-2.56307 -0.0491,-5.42299 -0.80739,-8.39345 1.41958,-4.58982 -2.64851,-7.68505 -6.31874,-9.329 -1.25486,-1.36795 -3.33086,-1.23326 -2.28876,-3.45538 0.13439,-3.51475 -3.55141,-5.59155 -6.11472,-6.52319 1.16589,-4.24279 -3.19981,-8.10579 -7.0241,-8.67682 -2.54867,1.13108 -1.37238,-2.40776 -3.53081,-3.08133 -2.61085,-2.30679 -7.13329,-4.83706 -10.21094,-1.89291 -1.04319,-4.7778 -6.7862,-4.88099 -10.58323,-5.48693 z m 11.82702,20.50471 c 0.0691,0.005 0.13821,0.0149 0.2062,0.0305 2.54291,1.17827 -1.42689,3.51004 -1.47789,0.54364 0.29327,-0.38917 0.78808,-0.60884 1.27169,-0.57415 z m 12.30962,12.58602 c 0.26999,0.002 0.58688,0.0295 0.95605,0.0889 1.48757,5.784 -5.00576,-0.11254 -0.95605,-0.0889 z m -15.56533,4.80945 c 1.71014,1.27105 -1.22943,1.40977 0,0 z"
         style="display:inline;fill:#ffffff;fill-opacity:1;fill-rule:evenodd;stroke:none;stroke-width:0.27764162px;stroke-linecap:butt;stroke-linejoin:miter;stroke-opacity:1"
         inkscape:connector-curvature="0" />
      <path
         inkscape:connector-curvature="0"
         style="display:inline;fill:#efb21e;fill-opacity:1;fill-rule:evenodd;stroke:none;stroke-width:0.27764162px;stroke-linecap:butt;stroke-linejoin:miter;stroke-opacity:1"
         d="m 904.39027,118.40489 c -0.27995,8.5e-4 -0.55986,0.0424 -0.85894,0.15618 l -3.27965,1.24939 c -0.73146,0.27813 -1.21346,1.02561 -0.97175,2.22113 l 0.31235,1.51836 c 0.19098,0.94455 -1.15465,0.678 -1.34483,0.23425 l -0.82425,-1.91746 c -0.23887,-0.55735 -0.47803,-1.30239 -2.17774,-0.13015 -2.79662,1.92873 -3.24732,3.74274 -4.23404,5.73505 -0.94259,1.90318 -1.76283,1.54658 -2.25584,1.27541 -1.12332,-0.61789 -0.4717,-1.98983 -0.97175,-2.9673 -0.8463,-1.65426 -1.93541,-0.50786 -2.89788,0.52057 -2.1557,2.30347 -2.78917,4.41912 -3.92169,7.18398 -0.57654,1.40756 -1.81664,1.46219 -2.30789,0.66808 -0.67118,-1.08493 -0.39504,-2.54501 -0.32103,-3.82625 0.0525,-0.90746 -0.55973,-0.74838 -0.92837,-0.75483 -1.52213,-0.0267 -4.02674,1.74479 -3.77419,7.00177 -1.18669,0.95126 -1.4748,1.92121 -1.24938,4.14727 0.0833,0.82215 0.0697,2.00591 -1.01513,2.2732 l -3.3317,0.82424 c -1.84231,0.4539 -2.56511,3.48143 -1.3535,3.80889 l 1.78731,0.48587 c 1.84716,0.49923 0.8226,3.45428 -0.7288,3.38376 l -2.12569,-0.0955 c -2.03409,-0.0924 -2.23083,1.24985 -1.58777,2.99333 0.23501,0.63719 0.7329,0.93846 -0.0521,1.54439 -0.7375,0.56926 -0.47458,1.67769 -0.0434,1.97819 1.0236,0.71333 1.3813,1.38405 0.23426,2.65494 -0.83164,0.92147 -2.35349,1.82763 -3.71345,2.94995 -0.55235,0.45581 -0.97986,2.2427 0.67675,2.16907 l 2.16907,-0.0954 c 1.14447,-0.051 1.10873,1.39165 -0.24293,1.59645 l -3.1842,0.4772 c -1.23117,0.18654 -1.39689,0.83434 -1.3969,1.44894 v 2.707 c 0,0.86616 0.72512,1.14433 1.36219,1.04116 l 2.37731,-0.39043 c 3.75528,-0.60814 5.71439,-3.73151 9.59598,-4.33816 2.37837,-0.42344 5.13067,0.0273 7.19266,-1.1713 1.16502,-0.93821 2.10921,-2.31477 4.07785,-2.48142 2.03919,-0.29789 4.49321,-0.12425 6.05606,-1.32748 2.30073,-1.98144 5.23169,-2.38693 8.53748,-2.37729 2.45157,0.008 2.71848,1.76442 2.55084,3.77418 -0.27029,3.24061 -0.0837,5.97003 -0.26896,9.56996 -0.11332,2.20227 -2.87488,3.60451 -4.66786,4.46829 -0.79438,0.38271 -2.4372,0.45072 -3.33169,0.58999 -4.38873,1.13317 -8.96324,1.02802 -13.41356,1.62247 -3.23466,0.54566 -8.23305,-0.0901 -10.99288,1.83938 -1.10921,0.7755 -0.38607,1.97821 1.63983,1.97821 h 68.1958 c 1.6854,0 1.86035,-0.77689 1.47497,-1.52704 -0.4891,-0.82928 -1.61361,-0.9642 -2.54215,-1.08455 -1.99741,-0.0417 -4.1601,-0.13201 -5.83048,-1.29276 -1.75904,-0.86996 -3.80792,-0.4232 -5.68297,-0.8069 -2.46656,-0.76129 -6.32254,-0.88021 -7.55706,-0.8763 -1.23453,0.004 -2.94994,-0.4772 -2.94994,-0.4772 -2.56069,-0.41238 -3.60712,-1.41549 -3.82626,-2.86318 -0.11853,-0.78308 -0.23343,-2.70141 -0.61601,-3.21023 0.0382,-2.93691 0.0461,-5.87297 -0.13883,-8.81512 -0.095,-1.51096 -0.4452,-2.26757 1.39689,-3.20156 0.58512,-0.29666 5.23383,-0.92644 8.93659,1.07587 2.33509,1.2627 4.29781,2.36619 6.03003,1.64849 0.64951,-0.2691 1.31946,0.63256 1.89144,1.34483 2.42473,3.01949 6.38434,5.33828 7.42692,3.58332 1.00954,-1.69938 5.59187,-1.42775 7.14927,1.39687 0.62181,1.12779 3.1205,2.90917 3.92168,0.0434 l 1.2494,-4.49432 c 0.62295,-2.22829 -0.1996,-3.98141 -1.69189,-3.76551 -2.59977,0.24505 -0.87763,-1.93904 0.48587,-2.70702 0.45044,-0.42736 0.60443,-1.22534 0.43381,-2.07362 -0.24848,-1.23548 -0.35343,-2.4576 -0.0955,-3.67008 0.68433,-3.21602 -0.71941,-3.27258 -1.73525,-3.96508 -0.89495,-0.61006 -2.34457,-1.08921 -2.94994,-1.83069 -1.0146,-1.24274 -2.10401,-1.88649 -3.91302,-1.54439 -0.7943,0.15021 -1.59065,-0.56835 -1.206,-1.40556 l 0.82424,-1.78731 c 0.26306,-0.74054 0.54337,-1.50308 0.24294,-2.22113 -0.63427,-1.51592 -2.11882,-2.78853 -7.67852,-2.80245 -1.01191,-0.002 -1.26364,-1.51458 -0.63338,-2.03026 l 2.1257,-1.73526 c 0.57025,-0.46657 0.87047,-1.24231 -0.28632,-2.22113 l -2.51613,-2.12569 c -0.70146,-0.59354 -1.54128,-0.51583 -2.03025,0.19087 l -1.34483,1.96085 c -0.43979,0.63563 -1.30015,0.63942 -2.03025,0.16484 l -1.93482,-1.24938 c -0.90576,-0.58875 -0.35904,-1.32964 0,-1.74394 l 1.25807,-1.44894 c 0.55012,-0.63477 0.58811,-1.4813 -0.295,-2.03026 l -3.56596,-2.22113 c -0.69124,-0.4297 -1.8158,-0.52763 -2.42068,0.58131 l -1.15395,2.12571 c -0.36414,0.66756 -1.2352,0.79423 -1.93481,0.5813 l -2.22115,-0.67674 c -0.7525,-0.22904 -0.7725,-0.98902 -0.67675,-1.5444 l 0.48587,-2.80245 c 0.14536,-0.84304 -0.75413,-1.19753 -1.3535,-1.35349 l -4.06051,-1.05851 c -0.52912,-0.13767 -0.99102,-0.25369 -1.45761,-0.25161 z m -6.09944,12.45917 c 0.51422,0.0105 1.03661,0.24681 1.47497,0.79822 1.23112,2.33604 -2.47276,2.61488 -3.46185,4.09521 -0.86998,2.82692 -4.3113,-0.93126 -1.47496,-1.3188 0.44513,-0.31753 0.70905,-0.81414 0.92836,-1.30144 0.27841,-1.22204 1.40223,-2.29629 2.53348,-2.27319 z m 19.14861,1.67453 c 0.23039,-0.0151 0.44064,0.11312 0.59866,0.48587 0.49804,1.31736 -0.5045,2.6353 -0.26029,3.97375 0.0192,0.80022 0.40733,2.42845 -1.04115,2.10833 -1.15736,0.0639 -2.01397,-0.63902 -2.83715,-1.28408 -0.39603,-0.24148 -1.12558,-0.52412 -0.99778,-0.9544 0.40559,-1.36545 2.1683,-2.05197 3.10611,-3.21023 0.32946,-0.35885 0.92472,-1.08596 1.4316,-1.11924 z m -14.24649,5.6396 c 0.56664,-0.0413 1.15265,0.37321 1.07587,0.99778 0.0461,0.59717 -0.0719,1.3391 -0.69411,1.59642 -0.48445,0.22085 -1.03157,0.062 -1.54439,0.12148 -0.3903,0.015 -0.78047,0.0538 -1.15394,0.17352 -0.54463,-0.29731 0.15415,-0.78949 0.37307,-1.03248 0.47295,-0.67026 0.81957,-1.58566 1.70056,-1.80466 0.0779,-0.0251 0.16199,-0.0462 0.24294,-0.0521 z m -27.1655,4.21668 c 0.0566,8.4e-4 0.11145,0.003 0.16485,0.008 0.33098,0.033 0.66805,0.0783 0.98909,0.16486 0.33069,0.1075 0.41207,0.48978 0.39044,0.79822 -0.0108,0.35198 -0.0772,0.71008 0,1.0585 0.0456,0.29644 -0.1625,0.60404 -0.4772,0.60735 -0.38825,0.0517 -0.78683,-0.0656 -1.1713,0.0261 -0.66911,0.50002 -0.73387,1.47692 -1.43159,1.95216 -0.58884,0.38461 -1.39991,0.24441 -1.94349,-0.15618 -0.44278,-0.30945 -0.69379,-0.8968 -0.52058,-1.42291 0.0382,-0.28295 0.23811,-0.57643 0.53793,-0.61601 1.09426,-0.13571 2.04429,-0.92594 2.46407,-1.95216 0.1513,-0.36991 0.60223,-0.4768 0.99778,-0.46853 z m 42.24492,1.59643 c 0.52458,0.0272 1.06682,0.22723 1.58775,0.2603 1.00936,0.064 0.32633,1.41643 0.22558,2.05628 -0.25064,0.60503 -0.57233,2.16842 -1.63114,1.56173 -0.51301,-0.54199 -0.65224,-1.28012 -0.98909,-1.91747 -0.15166,-0.54135 -0.55241,-1.24758 -0.10411,-1.7526 0.2905,-0.18124 0.59627,-0.22447 0.91102,-0.20824 z m 12.12946,1.90012 c 0.43326,-0.0557 0.84715,0.43803 0.6941,0.85895 -0.0814,0.70835 -0.59199,1.26428 -1.11056,1.70923 -0.22361,0.35152 0.025,0.83763 0.39044,0.97174 0.3659,0.24182 0.62619,0.78037 0.35571,1.17998 -0.3095,0.49667 -0.9545,0.58916 -1.49231,0.56397 -1.08124,0.0474 -2.23128,-0.0322 -3.16685,-0.63337 -0.33621,-0.20796 -0.6847,-0.43749 -0.90234,-0.7722 -0.10168,-0.37075 0.24762,-0.66659 0.55529,-0.78953 0.43083,-0.24947 0.81202,-0.58069 1.22335,-0.85896 1.07234,-0.81097 2.18849,-1.56312 3.36641,-2.21246 0.0289,-0.008 0.0578,-0.0137 0.0867,-0.0173 z m -17.35261,4.91077 c 0.85429,-0.0169 1.63909,0.5297 2.1257,1.20602 0.57476,0.55107 0.83114,1.38782 0.71145,2.16907 0.0466,0.60299 -0.40237,1.11499 -0.91968,1.36219 -0.37716,0.17653 -0.79198,0.34208 -1.21468,0.30366 -1.03785,-0.0634 -2.11902,0.22439 -3.00201,0.72014 -0.23235,0.13046 -0.55636,-0.16451 -0.74615,-0.38175 -0.39212,-0.46186 -0.32695,-1.1235 -0.20824,-1.67453 0.16561,-0.52003 0.25186,-1.06161 0.35573,-1.59644 0.10335,-0.55104 0.33164,-1.08802 0.72882,-1.49233 0.50996,-0.53856 1.29462,-0.61871 1.99554,-0.60734 0.0575,-0.006 0.11657,-0.008 0.17352,-0.008 z m -15.00132,1.26676 c 1.04434,-0.008 2.08741,0.51559 2.73303,1.33614 0.55134,0.61723 0.6639,1.47957 0.70278,2.2732 0.0923,0.46022 0.0149,1.02436 -0.39911,1.31012 -0.4991,0.19756 -1.05976,0.18618 -1.58776,0.13013 -0.51541,-0.0649 -0.7413,-0.60193 -1.11056,-0.89365 -0.6343,-0.44979 -1.45114,-0.33501 -2.17776,-0.26029 -0.38454,0.045 -0.87272,0.0854 -1.1366,-0.26029 -0.26057,-0.52705 -0.0573,-1.119 0.0521,-1.65717 0.26816,-0.87529 1.06866,-1.47119 1.89144,-1.78731 0.33224,-0.12941 0.68436,-0.18828 1.03248,-0.19088 z m -15.66941,1.58776 c 0.16069,-0.005 0.32143,0.0211 0.47721,0.078 0.29464,0.16538 0.40578,0.52213 0.39043,0.8416 -0.0111,0.36658 -0.10473,0.72431 -0.16484,1.08455 -0.0851,0.38096 -0.42594,0.63733 -0.78956,0.72881 -0.28979,0.0817 -0.59391,0.10304 -0.89366,0.10409 -0.36752,0.18097 -0.80722,0.2825 -1.206,0.14749 -0.20418,-0.0726 -0.37899,-0.25985 -0.39911,-0.47719 0.004,-0.024 0.0136,-0.0541 0.0173,-0.078 0.31503,-0.67643 0.96343,-1.10599 1.33615,-1.74395 0.2762,-0.39469 0.74997,-0.66931 1.23203,-0.68543 z m 43.98018,0.65073 c 0.0925,-0.005 0.18042,0.004 0.26896,0.0348 1.36442,0.52004 2.86959,0.4349 4.26007,0.85029 0.34827,0.17611 0.44519,0.64539 0.31235,0.9891 -0.0602,0.55 -0.65783,0.96478 -1.19734,0.82425 -0.44953,-0.0345 -0.97246,-0.0127 -1.28408,0.36439 -0.36427,0.35899 -0.69801,0.84973 -1.24939,0.91103 -0.65903,0.0298 -1.18628,-0.71279 -0.96306,-1.32747 0.0554,-0.48279 -0.31519,-0.92577 -0.74617,-1.09322 -0.53572,-0.38643 -0.31621,-1.36817 0.32969,-1.501 0.0874,-0.0282 0.17651,-0.0467 0.26897,-0.0521 z"
         id="path2506" />
    </g>
  </g>
</svg>
