<?xml version="1.0" encoding="UTF-8" standalone="no"?>
<!-- Created with Inkscape (http://www.inkscape.org/) -->

<svg
   xmlns:dc="http://purl.org/dc/elements/1.1/"
   xmlns:cc="http://creativecommons.org/ns#"
   xmlns:rdf="http://www.w3.org/1999/02/22-rdf-syntax-ns#"
   xmlns:svg="http://www.w3.org/2000/svg"
   xmlns="http://www.w3.org/2000/svg"
   xmlns:sodipodi="http://sodipodi.sourceforge.net/DTD/sodipodi-0.dtd"
   xmlns:inkscape="http://www.inkscape.org/namespaces/inkscape"
   width="1000"
   height="1000"
   viewBox="0 0 264.58333 264.58334"
   version="1.1"
   id="svg8"
   inkscape:version="0.92.3 (2405546, 2018-03-11)"
   sodipodi:docname="phi.svg.2019_11_13_00_26_21.0.svg">
  <defs
     id="defs2" />
  <sodipodi:namedview
     id="base"
     pagecolor="#ffffff"
     bordercolor="#666666"
     borderopacity="1.0"
     inkscape:pageopacity="0.0"
     inkscape:pageshadow="2"
     inkscape:zoom="0.7"
     inkscape:cx="633.00484"
     inkscape:cy="537.54151"
     inkscape:document-units="mm"
     inkscape:current-layer="layer2"
     showgrid="false"
     units="px"
     inkscape:snap-global="false"
     inkscape:window-width="1920"
     inkscape:window-height="1054"
     inkscape:window-x="0"
     inkscape:window-y="0"
     inkscape:window-maximized="1" />
  <metadata
     id="metadata5">
    <rdf:RDF>
      <cc:Work
         rdf:about="">
        <dc:format>image/svg+xml</dc:format>
        <dc:type
           rdf:resource="http://purl.org/dc/dcmitype/StillImage" />
        <dc:title />
      </cc:Work>
    </rdf:RDF>
  </metadata>
  <g
     inkscape:label="Layer 1"
     inkscape:groupmode="layer"
     id="layer1"
     transform="translate(0,-32.41665)"
     style="display:inline;opacity:1" />
  <g
     inkscape:groupmode="layer"
     id="layer2"
     inkscape:label="Layer 2"
     style="display:inline">
    <rect
       style="opacity:1;fill:#ffffff;fill-opacity:1;stroke:none;stroke-width:6.61458302;stroke-linecap:square;stroke-linejoin:round;stroke-miterlimit:4;stroke-dasharray:none;stroke-opacity:1;paint-order:normal"
       id="rect901"
       width="272.6149"
       height="275.82214"
       x="-2.1381562"
       y="-4.2898116" />
    <g
       id="g899"
       transform="translate(-618.46169,6.4144689)">
      <path
         sodipodi:nodetypes="csccccsscccccccccccccccccscscccccccc"
         inkscape:connector-curvature="0"
         id="path1595"
         transform="scale(0.26458333)"
         d="m 2877.1426,269.28516 c 0,0 -7.4247,34.8943 -16.7852,49.64257 -2.301,3.62543 -4.2851,7.50112 -9.2851,8.92969 -5,1.42858 -17.1446,-1.78515 -17.1446,-1.78515 0,0 -0.7131,9.99944 -11.0703,16.78515 -10.3571,6.78572 -25.3574,2.5 -25.3574,2.5 -2.8571,8.21429 -19.2862,15.71401 -28.2148,12.14258 -8.9286,-3.57143 -14.999,-19.64258 -33.5704,-22.14258 -11.011,-1.48226 -17.854,4.30975 -21.621,9.27735 -3.184,-1.16709 -6.4623,-1.77741 -9.8086,-1.77735 -12.5006,0.008 -24.6368,8.69262 -34.4571,24.6582 2.6569,-1.45395 5.3806,-2.20387 8.1153,-2.23437 19.3298,0 34.9997,35.17695 35,78.57031 -0.011,12.5171 -1.3546,24.84699 -3.918,35.96289 1.5756,-9.0475 2.3901,-18.67246 2.4023,-28.38672 -0.01,-41.55097 -14.4227,-75.90738 -32.8984,-78.40234 L 2541.668,337.80664 c 8.5128,20.47613 19.5729,49.93502 19.5742,76.05274 -0.025,9.30677 -0.6379,18.57403 -1.8262,27.60156 -4.8801,-80.53271 -41.5209,-141.41829 -85.1308,-141.46094 -47.3388,-6.3e-4 -85.7147,71.31386 -85.7149,159.28516 -4e-4,87.97206 38.3757,159.28774 85.7149,159.28711 21.5816,-0.0717 42.3395,-15.27766 58.1445,-42.53125 l 132.1367,-37.75391 c 6.5379,13.79273 14.6286,23.9042 23.4883,29.51367 2.1801,86.67803 11.9232,121.66007 37.6601,175.77149 43.0748,90.56417 146.4278,145 146.4278,145 0,0 -1.4289,17.14201 122.1426,-98.57227 C 3117.8566,674.28572 3128.5715,605.00028 3130,537.85742 c 1.4286,-67.14289 -31.4277,-208.57226 -31.4277,-208.57226 z m -431.4278,86.42968 c 11.8344,0.002 21.4278,46.05233 21.4278,102.85743 -2e-4,56.80431 -9.5936,102.85341 -21.4278,102.85546 -11.8349,0.003 -21.4294,-46.04778 -21.4296,-102.85546 0,-56.80847 9.5945,-102.86016 21.4296,-102.85743 z"
         style="display:inline;opacity:1;fill:#21b726;fill-opacity:1;stroke:none;stroke-width:24.99999809;stroke-linecap:square;stroke-linejoin:round;stroke-miterlimit:4;stroke-dasharray:none;stroke-opacity:1;paint-order:normal" />
      <path
         inkscape:connector-curvature="0"
         style="fill:#e81828;fill-opacity:1;stroke:#ffffff;stroke-width:6.61458302;stroke-linecap:butt;stroke-linejoin:miter;stroke-miterlimit:4;stroke-dasharray:none;stroke-opacity:1"
         d="m 723.92924,18.428332 c -7.88445,1.202713 -19.77814,10.690304 -19.77814,10.690304 -0.66817,-3.34087 -0.13332,-8.151441 -0.13332,-8.151441 0,0 -9.8892,7.483511 -11.49284,18.307928 -2.58228,17.4303 3.7419,18.842259 3.7419,18.842259 0,0 -6.01385,-17.372105 3.47419,-28.062885 0,0 -0.66773,5.211688 0.93586,9.621633 2e-5,0 9.48803,-10.958311 16.97159,-14.833719 0,0 -1.06897,5.345322 -0.26718,9.621634 0,0 11.75954,-8.953462 23.1185,-10.28981 0,0 -4.27643,5.612599 -4.41008,11.626162 0,0 8.15198,-4.677232 14.83374,-4.677232 0,0 -3.74169,7.082681 -4.27625,10.69082 0,0 6.14693,-3.60784 10.82416,-2.806031 0,0 -6.28092,24.588539 1.6035,42.495597 0,0 58.26511,8.552764 68.555,9.087299 10.28988,0.534541 26.99393,-1.870842 33.8093,-16.303397 6.81538,-14.43255 5.99395,-23.515375 -11.22516,-23.119 -8.76334,0.201726 -6.54804,9.75529 -11.62616,15.635221 -5.07812,5.879928 -12.29447,10.022951 -22.04982,9.221142 0,0 7.08277,-17.773303 5.07826,-23.252327 -1.68828,-4.614629 -9.53728,-8.559323 -17.16175,-10.888741 a 5.2916663,5.2916663 0 0 0 0.216,-1.485697 5.2916663,5.2916663 0 0 0 -5.29166,-5.291666 5.2916663,5.2916663 0 0 0 -5.23896,4.591968 c -7.78293,-0.968489 -16.5463,-0.820817 -20.63232,0.645953 -5.21176,1.870888 -13.36352,17.505908 -13.36352,17.505908 -1.20274,-11.893492 5.21208,-23.786661 5.21208,-23.786661 -4.67722,-0.267269 -11.62669,1.603521 -11.62669,1.603521 0.53454,-3.34087 4.27675,-8.820134 4.27675,-8.820134 -9.75535,-0.267269 -16.43724,2.405538 -16.43724,2.405538 0.66818,-2.53906 5.3454,-9.087301 5.3454,-9.087301 -16.83797,0.133635 -26.19271,7.349939 -26.19271,7.349939 0.53453,-3.207234 3.20757,-9.086784 3.20757,-9.086784 z m -8.9018,29.030268 c -0.58214,0.0063 -1.22129,0.120505 -1.92286,0.36897 -6.41451,2.271789 -4.40957,10.022644 -4.40957,10.022644 0,0 -4.54369,-2.672384 -6.41459,-0.133324 -1.87087,2.539061 1.46968,7.884274 1.46968,7.884274 0,0 -4.81078,-1.603613 -5.61258,1.336352 -0.80182,2.939965 2.67272,8.151648 6.01358,8.953458 0,0 -2.67261,3.474733 -1.6035,6.147429 0.93607,2.340203 4.7412,3.04097 8.27495,2.282032 a 6.8821902,14.833457 0 0 1 -2.12754,-10.661367 2.9399648,3.6749561 0 0 0 2.53886,1.830898 2.9399648,3.6749561 0 0 0 2.93989,-3.674713 2.9399648,3.6749561 0 0 0 -2.93989,-3.675227 2.9399648,3.6749561 0 0 0 -2.25878,1.324467 6.8821902,14.833457 0 0 1 6.60167,-10.678935 6.8821902,14.833457 0 0 1 6.88227,14.833719 6.8821902,14.833457 0 0 1 -2.39416,11.222056 c 0.80279,-0.0975 1.69179,-0.118092 2.66133,0.0031 1.83581,0.229465 3.71885,1.050689 5.27254,1.912543 a 7.1921986,15.50163 0 0 1 -2.16421,-9.702249 2.9399648,3.6749561 0 0 0 2.37093,1.50895 2.9399648,3.6749561 0 0 0 2.93986,-3.674711 2.9399648,3.6749561 0 0 0 -2.93986,-3.675226 2.9399648,3.6749561 0 0 0 -2.2624,1.33015 7.1921986,15.50163 0 0 1 7.04919,-12.421981 7.1921986,15.50163 0 0 1 7.19233,15.501898 7.1921986,15.50163 0 0 1 -2.1389,11.021549 c 1.89614,0.724213 4.58208,1.424099 6.32984,0.470771 2.93995,-1.603619 0.26718,-5.745901 0.26718,-5.745901 0,0 5.34501,1.469663 5.7459,-2.539381 0.4009,-4.009043 -4.00907,-7.349939 -4.00907,-7.349939 0,0 5.613,-1.603436 3.20757,-6.547919 -2.40541,-4.944488 -8.15197,-3.207041 -8.15197,-3.207041 0,0 3.47461,-8.151651 -2.27169,-9.621634 -5.7463,-1.469982 -8.68629,3.474207 -8.68629,3.474207 0,0 1.20258,-6.013484 -3.07372,-6.280753 -4.27633,-0.267269 -6.68176,5.211566 -6.68176,5.211566 0,0 -0.95398,-7.102078 -5.69423,-7.050733 z"
         id="path890" />
      <path
         inkscape:connector-curvature="0"
         id="path1621"
         d="m 723.92924,18.428332 c -7.88445,1.202713 -19.77814,10.690304 -19.77814,10.690304 -0.66817,-3.34087 -0.13332,-8.151441 -0.13332,-8.151441 0,0 -9.8892,7.483511 -11.49284,18.307928 -2.58228,17.4303 3.7419,18.842259 3.7419,18.842259 0,0 -6.01385,-17.372105 3.47419,-28.062885 0,0 -0.66773,5.211688 0.93586,9.621633 2e-5,0 9.48803,-10.958311 16.97159,-14.833719 0,0 -1.06897,5.345322 -0.26718,9.621634 0,0 11.75954,-8.953462 23.1185,-10.28981 0,0 -4.27643,5.612599 -4.41008,11.626162 0,0 8.15198,-4.677232 14.83374,-4.677232 0,0 -3.74169,7.082681 -4.27625,10.69082 0,0 6.14693,-3.60784 10.82416,-2.806031 0,0 -6.28092,24.588539 1.6035,42.495597 0,0 58.26511,8.552764 68.555,9.087299 10.28988,0.534541 26.99393,-1.870842 33.8093,-16.303397 6.81538,-14.43255 5.99395,-23.515375 -11.22516,-23.119 -8.76334,0.201726 -6.54804,9.75529 -11.62616,15.635221 -5.07812,5.879928 -12.29447,10.022951 -22.04982,9.221142 0,0 7.08277,-17.773303 5.07826,-23.252327 -1.68828,-4.614629 -9.53728,-8.559323 -17.16175,-10.888741 a 5.2916663,5.2916663 0 0 0 0.216,-1.485697 5.2916663,5.2916663 0 0 0 -5.29166,-5.291666 5.2916663,5.2916663 0 0 0 -5.23896,4.591968 c -7.78293,-0.968489 -16.5463,-0.820817 -20.63232,0.645953 -5.21176,1.870888 -13.36352,17.505908 -13.36352,17.505908 -1.20274,-11.893492 5.21208,-23.786661 5.21208,-23.786661 -4.67722,-0.267269 -11.62669,1.603521 -11.62669,1.603521 0.53454,-3.34087 4.27675,-8.820134 4.27675,-8.820134 -9.75535,-0.267269 -16.43724,2.405538 -16.43724,2.405538 0.66818,-2.53906 5.3454,-9.087301 5.3454,-9.087301 -16.83797,0.133635 -26.19271,7.349939 -26.19271,7.349939 0.53453,-3.207234 3.20757,-9.086784 3.20757,-9.086784 z m -8.9018,29.030268 c -0.58214,0.0063 -1.22129,0.120505 -1.92286,0.36897 -6.41451,2.271789 -4.40957,10.022644 -4.40957,10.022644 0,0 -4.54369,-2.672384 -6.41459,-0.133324 -1.87087,2.539061 1.46968,7.884274 1.46968,7.884274 0,0 -4.81078,-1.603613 -5.61258,1.336352 -0.80182,2.939965 2.67272,8.151648 6.01358,8.953458 0,0 -2.67261,3.474733 -1.6035,6.147429 0.93607,2.340203 4.7412,3.04097 8.27495,2.282032 a 6.8821902,14.833457 0 0 1 -2.12754,-10.661367 2.9399648,3.6749561 0 0 0 2.53886,1.830898 2.9399648,3.6749561 0 0 0 2.93989,-3.674713 2.9399648,3.6749561 0 0 0 -2.93989,-3.675227 2.9399648,3.6749561 0 0 0 -2.25878,1.324467 6.8821902,14.833457 0 0 1 6.60167,-10.678935 6.8821902,14.833457 0 0 1 6.88227,14.833719 6.8821902,14.833457 0 0 1 -2.39416,11.222056 c 0.80279,-0.0975 1.69179,-0.118092 2.66133,0.0031 1.83581,0.229465 3.71885,1.050689 5.27254,1.912543 a 7.1921986,15.50163 0 0 1 -2.16421,-9.702249 2.9399648,3.6749561 0 0 0 2.37093,1.50895 2.9399648,3.6749561 0 0 0 2.93986,-3.674711 2.9399648,3.6749561 0 0 0 -2.93986,-3.675226 2.9399648,3.6749561 0 0 0 -2.2624,1.33015 7.1921986,15.50163 0 0 1 7.04919,-12.421981 7.1921986,15.50163 0 0 1 7.19233,15.501898 7.1921986,15.50163 0 0 1 -2.1389,11.021549 c 1.89614,0.724213 4.58208,1.424099 6.32984,0.470771 2.93995,-1.603619 0.26718,-5.745901 0.26718,-5.745901 0,0 5.34501,1.469663 5.7459,-2.539381 0.4009,-4.009043 -4.00907,-7.349939 -4.00907,-7.349939 0,0 5.613,-1.603436 3.20757,-6.547919 -2.40541,-4.944488 -8.15197,-3.207041 -8.15197,-3.207041 0,0 3.47461,-8.151651 -2.27169,-9.621634 -5.7463,-1.469982 -8.68629,3.474207 -8.68629,3.474207 0,0 1.20258,-6.013484 -3.07372,-6.280753 -4.27633,-0.267269 -6.68176,5.211566 -6.68176,5.211566 0,0 -0.95398,-7.102078 -5.69423,-7.050733 z"
         style="fill:#e81828;fill-opacity:1;stroke:none;stroke-width:0.26458332px;stroke-linecap:butt;stroke-linejoin:miter;stroke-opacity:1" />
      <path
         style="display:inline;opacity:1;fill:#284898;fill-opacity:1;stroke:#ffffff;stroke-width:6.61458349;stroke-linecap:butt;stroke-linejoin:miter;stroke-miterlimit:4;stroke-dasharray:none;stroke-opacity:1"
         d="m 822.96571,87.662336 -3.85539,0.0562 -9.81156,0.11083 -4.06781,2.45635 H 782.8953 l -3.53049,3.5305 v 14.966954 h -1.99549 l 0.0763,11.12962 13.20145,-0.0768 2.91683,-8.82686 11.66652,-0.0769 c 0.61407,2.68637 3.14686,2.30272 3.14686,2.30272 v 4.22142 c -2.99343,0 -5.60282,-0.15338 -10.43829,4.98911 -4.83548,5.14252 -3.22379,16.3484 -3.37731,24.48433 -0.15351,8.1359 -6.52424,15.12057 -10.36193,19.41879 -3.8377,4.29822 -3.18505,10.17006 -3.18505,10.17006 h 31.04668 l 0.0366,-0.0336 -0.22289,-1.27309 -1.68236,-2.06222 -1.41122,-6.51282 -1.8998,-2.71368 -0.27113,-7.00138 h 1.68236 l -0.10828,5.37317 1.9539,2.93071 1.46491,6.34993 2.04991,3.06817 c 0,1.86897 0.0488,2.5589 0.0488,3.16035 0,0 -2.86842,1.20894 -2.86842,4.35583 0,3.14692 2.91643,4.68189 2.91643,4.68189 v 3.22367 l 4.8661,-0.0106 c -0.0504,-1.09091 -0.0146,-2.12178 -0.0504,-3.21318 0,0 2.85932,-1.55428 2.85932,-4.70117 0,-3.14693 -2.91683,-4.4997 -2.91683,-4.4997 0,-0.49849 0.039,-0.82257 0.039,-1.19922 l 32.62067,-0.0768 c 0,0 0.65225,-5.87187 -3.18544,-10.17009 -3.83769,-4.2982 -10.20802,-11.28245 -10.36145,-19.41836 -0.15361,-8.13592 1.45816,-19.34224 -3.37731,-24.48474 -4.83548,-5.14251 -7.44535,-4.98912 -10.43878,-4.98912 v -4.2214 c 0,0 2.53279,0.38407 3.14686,-2.30231 l 11.66692,0.0764 2.91643,8.82687 13.20185,0.0769 0.0764,-11.12918 h -1.99594 V 93.662506 l -3.5305,-3.53044 h -22.33565 z"
         id="path892"
         inkscape:connector-curvature="0"
         sodipodi:nodetypes="cccccccccccccccccccccccccccccccsccccscccscccccccccccccc" />
      <path
         sodipodi:nodetypes="cccccccccccccccccccccccccccccccsccccscccscccccccccccccc"
         inkscape:connector-curvature="0"
         id="path1059"
         d="m 822.96571,87.662336 -3.85539,0.0562 -9.81156,0.11083 -4.06781,2.45635 H 782.8953 l -3.53049,3.5305 v 14.966954 h -1.99549 l 0.0763,11.12962 13.20145,-0.0768 2.91683,-8.82686 11.66652,-0.0769 c 0.61407,2.68637 3.14686,2.30272 3.14686,2.30272 v 4.22142 c -2.99343,0 -5.60282,-0.15338 -10.43829,4.98911 -4.83548,5.14252 -3.22379,16.3484 -3.37731,24.48433 -0.15351,8.1359 -6.52424,15.12057 -10.36193,19.41879 -3.8377,4.29822 -3.18505,10.17006 -3.18505,10.17006 h 31.04668 l 0.0366,-0.0336 -0.22289,-1.27309 -1.68236,-2.06222 -1.41122,-6.51282 -1.8998,-2.71368 -0.27113,-7.00138 h 1.68236 l -0.10828,5.37317 1.9539,2.93071 1.46491,6.34993 2.04991,3.06817 c 0,1.86897 0.0488,2.5589 0.0488,3.16035 0,0 -2.86842,1.20894 -2.86842,4.35583 0,3.14692 2.91643,4.68189 2.91643,4.68189 v 3.22367 l 4.8661,-0.0106 c -0.0504,-1.09091 -0.0146,-2.12178 -0.0504,-3.21318 0,0 2.85932,-1.55428 2.85932,-4.70117 0,-3.14693 -2.91683,-4.4997 -2.91683,-4.4997 0,-0.49849 0.039,-0.82257 0.039,-1.19922 l 32.62067,-0.0768 c 0,0 0.65225,-5.87187 -3.18544,-10.17009 -3.83769,-4.2982 -10.20802,-11.28245 -10.36145,-19.41836 -0.15361,-8.13592 1.45816,-19.34224 -3.37731,-24.48474 -4.83548,-5.14251 -7.44535,-4.98912 -10.43878,-4.98912 v -4.2214 c 0,0 2.53279,0.38407 3.14686,-2.30231 l 11.66692,0.0764 2.91643,8.82687 13.20185,0.0769 0.0764,-11.12918 h -1.99594 V 93.662506 l -3.5305,-3.53044 h -22.33565 z"
         style="display:inline;opacity:1;fill:#284898;fill-opacity:1;stroke:none;stroke-width:0.21491089px;stroke-linecap:butt;stroke-linejoin:miter;stroke-opacity:1" />
    </g>
  </g>
</svg>
