<?xml version="1.0" encoding="UTF-8" standalone="no"?>
<!-- Created with Inkscape (http://www.inkscape.org/) -->

<svg
   xmlns:dc="http://purl.org/dc/elements/1.1/"
   xmlns:cc="http://creativecommons.org/ns#"
   xmlns:rdf="http://www.w3.org/1999/02/22-rdf-syntax-ns#"
   xmlns:svg="http://www.w3.org/2000/svg"
   xmlns="http://www.w3.org/2000/svg"
   xmlns:sodipodi="http://sodipodi.sourceforge.net/DTD/sodipodi-0.dtd"
   xmlns:inkscape="http://www.inkscape.org/namespaces/inkscape"
   width="1000"
   height="1000"
   viewBox="0 0 264.58333 264.58334"
   version="1.1"
   id="svg8"
   inkscape:version="0.92.3 (2405546, 2018-03-11)"
   sodipodi:docname="sdp.svg">
  <defs
     id="defs2" />
  <sodipodi:namedview
     id="base"
     pagecolor="#ffffff"
     bordercolor="#666666"
     borderopacity="1.0"
     inkscape:pageopacity="0.0"
     inkscape:pageshadow="2"
     inkscape:zoom="0.49497475"
     inkscape:cx="522.85022"
     inkscape:cy="261.12083"
     inkscape:document-units="mm"
     inkscape:current-layer="layer1"
     showgrid="false"
     units="px"
     inkscape:snap-global="false"
     inkscape:window-width="1920"
     inkscape:window-height="1029"
     inkscape:window-x="1920"
     inkscape:window-y="0"
     inkscape:window-maximized="1" />
  <metadata
     id="metadata5">
    <rdf:RDF>
      <cc:Work
         rdf:about="">
        <dc:format>image/svg+xml</dc:format>
        <dc:type
           rdf:resource="http://purl.org/dc/dcmitype/StillImage" />
        <dc:title />
      </cc:Work>
    </rdf:RDF>
  </metadata>
  <g
     inkscape:label="Layer 1"
     inkscape:groupmode="layer"
     id="layer1"
     transform="translate(0,-32.41665)">
    <rect
       style="opacity:1;fill:#ffffff;fill-opacity:1;stroke:none;stroke-width:5.29166651;stroke-linecap:square;stroke-linejoin:round;stroke-miterlimit:4;stroke-dasharray:none;stroke-opacity:1;paint-order:normal"
       id="rect903"
       width="275.82214"
       height="276.35669"
       x="-3.2072339"
       y="29.730455" />
    <g
       id="g901"
       transform="matrix(0.92482695,0,0,0.92482695,-579.67294,-37.37974)">
      <path
         id="path912"
         transform="matrix(0.26458333,0,0,0.26458333,0,32.41665)"
         d="m 2857.2402,201.91797 c -49.4975,-1.01014 -140.1033,31.79586 -186.5703,80.2832 -26.2576,27.39916 -34.8638,75.26899 -35.9316,118.11133 l -16.8926,17.26758 8.9922,8.76367 7.8691,-8.04297 c 0.3932,18.21517 1.9967,34.70894 3.92,47.22266 a 47.85707,73.674705 0 0 0 -19.7071,-6.63672 47.85707,73.674705 0 0 0 -47.8574,73.67578 47.85707,73.674705 0 0 0 47.8574,73.67383 47.85707,73.674705 0 0 0 39.8672,-33.00391 54.28571,83.57142 0 0 0 52.2754,61.36719 54.28571,83.57142 0 0 0 54.2852,-83.57031 54.28571,83.57142 0 0 0 -54.2852,-83.57227 54.28571,83.57142 0 0 0 -46.8457,41.55078 47.85707,73.674705 0 0 0 -12.0547,-29.43164 c -1.9092,-12.23036 -5.783,-41.48287 -5.1484,-73.85547 l 33.1191,-33.85351 35,65.71289 76.4277,-67.85547 35.7149,53.57031 71.4277,-68.57031 47.1426,55 70.2461,-65.32813 c 18.4461,35.72879 32.5436,75.92454 40.1484,116.1211 5.1785,27.37186 9.7471,54.29273 13.7071,79.39648 l 10.2988,2.2168 c -6.3715,-57.48053 -17.6196,-123.4182 -37.4981,-177.04688 l 24.42,20.89063 11.3925,-11.96484 -50.789,-43.44727 c -0.9344,-1.82676 -1.8823,-3.63049 -2.8457,-5.4043 -63.6396,-117.1777 -118.188,-122.23007 -167.6856,-123.24023 z m 0.836,16.38672 c 10.1173,0.0136 19.9985,0.91261 29.4687,2.80664 45.4912,9.09827 89.5191,53.16744 122.0371,111.19922 l -61.7363,57.41211 -47.1426,-54.99805 -71.4277,68.57031 -35.7149,-53.57031 -76.4277,67.85547 -35,-65.71289 -34.2051,34.96289 c 2.1822,-27.66051 8.387,-55.64206 22.4356,-75.81446 34.4714,-49.49744 116.8919,-92.80745 187.7129,-92.71093 z m -239.0664,253.92578 v 0.002 c 2.785,0.0265 5.5441,0.75586 8.0703,1.9082 34.0057,25.09418 34.9121,80.88654 7.3867,111.39844 -3.8299,4.24891 -8.0456,6.3582 -12.3281,6.86133 a 48.313236,48.313236 0 0 0 3.3593,-17.47656 48.313236,48.313236 0 0 0 -40.9707,-47.71485 c 0.8722,-23.84458 9.6705,-47.42773 33.2872,-54.94336 0.3982,-0.0265 0.7975,-0.0401 1.1953,-0.0351 z m 92.1543,10.36328 v 0.002 c 3.159,0.0302 6.2908,0.85699 9.1562,2.16407 38.5738,28.46505 39.6019,91.75271 8.3789,126.36328 -4.3442,4.81961 -9.1266,7.21242 -13.9844,7.7832 a 54.80315,54.80315 0 0 0 3.8106,-19.82422 54.80315,54.80315 0 0 0 -46.4746,-54.125 c 0.9894,-27.04762 10.9688,-53.799 37.7578,-62.32422 0.4518,-0.0302 0.9041,-0.0417 1.3555,-0.0391 z"
         style="opacity:1;fill:#2f241d;fill-opacity:1;stroke:none;stroke-width:15;stroke-linecap:square;stroke-linejoin:round;stroke-miterlimit:4;stroke-dasharray:none;stroke-opacity:1;paint-order:normal"
         inkscape:connector-curvature="0" />
      <path
         inkscape:connector-curvature="0"
         id="path1012"
         d="m 702.81641,188.1101 c 0,0 -5.49778,7.40289 -13.65496,14.91268 -8.15718,7.50979 -20.07122,12.64781 -25.76672,21.10477 -6.44099,9.56389 -6.1128,21.40667 1.64577,27.10408 -1.97509,5.69425 -16.04054,49.03212 3.09181,77.04734 20.50844,30.0302 62.22145,23.14919 98.8801,5.67638 21.07245,-10.04388 31.67085,-18.63497 41.43597,-29.48939 8.21197,-9.12805 12.8871,-22.26941 14.04649,-42.1069 2.3013,-39.37548 -2.91256,-59.8545 -2.91256,-59.8545 l -3.88437,0.51822 c 1.81269,10.87624 6.74548,60.7467 -3.01369,88.30445 -8.22384,23.22229 -88.55816,72.67865 -129.7379,47.64859 -15.05784,-9.15254 -20.59906,-24.47006 -21.78222,-39.68255 1.8778,0.14756 5.64894,0.0729 11.29417,-1.75091 8.41613,-2.71908 16.83226,-11.13546 22.27038,-13.07764 5.43812,-1.94219 25.63729,0.25905 34.1829,-2.84846 8.49713,-3.08986 28.76806,-11.68848 30.52532,-45.00791 3.06771,1.16843 5.79005,4.69301 5.79005,4.69301 0,0 -0.96149,-7.41614 -6.59216,-7.87392 -5.63067,-0.45778 -7.18695,3.47933 -7.18695,3.47933 0,0 2.20279,-0.75263 5.04549,-0.73352 0.17273,25.77766 -15.22649,36.9281 -26.28695,41.42945 -11.13521,4.53177 -28.4854,1.81262 -35.21835,3.49585 -6.73292,1.68322 -13.07757,9.32253 -21.10526,12.94795 -5.64641,2.54999 -10.51293,2.2813 -12.90991,1.89764 -0.79147,-21.03633 6.07455,-40.9839 6.82698,-43.10028 2.05359,0.93861 4.46551,1.54015 7.24804,1.71138 16.8323,1.03583 23.17715,-12.55942 23.17715,-12.55942 1.68323,1.68324 8.76882,4.00669 13.336,3.49585 5.49803,-0.61494 12.68888,-6.21505 11.91202,-12.94796 -0.77689,-6.73291 -8.83024,-9.7365 -8.83024,-9.7365 0,0 11.3528,9.70467 3.11279,17.02912 -8.23998,7.32444 -21.24095,-2.19755 -21.24095,-2.19755 -0.18309,4.02845 -10.25442,17.21273 -25.26952,13.18428 -15.01513,-4.02844 -8.97232,-20.50836 -4.94387,-26.18481 4.02845,-5.67644 19.65396,-14.11891 27.64984,-23.07199 3.57785,-4.00617 8.86531,-13.45616 8.86531,-13.45616 z m 3.68108,109.02568 c -6.57336,0.0641 -14.29189,2.52651 -17.30748,12.74066 0,0 6.31768,-11.90227 28.01635,-10.98673 0,0 -4.90882,-1.81051 -10.70887,-1.75393 z"
         style="opacity:1;fill:#ffc425;fill-opacity:1;stroke:none;stroke-width:0.25635546px;stroke-linecap:butt;stroke-linejoin:miter;stroke-opacity:1" />
      <path
         style="opacity:1;fill:#002d62;fill-opacity:1;stroke:#ffffff;stroke-width:5.29166651;stroke-linecap:square;stroke-linejoin:round;stroke-miterlimit:4;stroke-dasharray:none;stroke-opacity:1;paint-order:normal"
         d="m 868.79604,171.08105 c -1.58546,-0.0239 -3.13888,0.16924 -4.46654,0.50357 -7.09949,1.78773 -5.79705,13.27231 -11.29782,17.87189 -2.61799,1.67668 -5.93431,3.21504 -9.01725,3.2135 -8.36951,-0.43379 -11.77302,-13.35809 -6.61952,-15.91939 5.29494,-2.63164 11.51955,2.46631 11.51955,2.46631 -0.15581,-8.03341 -9.62554,-8.95489 -15.26239,-7.61792 -7.53547,1.78731 -6.15268,13.26889 -11.99123,17.86735 -2.95147,1.81542 -6.37587,3.20365 -9.87052,3.20365 -7.95913,-0.32802 -11.21445,-13.35485 -6.33832,-15.92772 4.9886,-2.63227 10.85296,2.46668 10.85296,2.46668 -0.14678,-8.03535 -9.06806,-8.95711 -14.3787,-7.61982 -7.09949,1.78774 -5.79712,13.27233 -11.29788,17.8719 -2.09337,1.75046 -7.67061,3.20745 -7.67061,3.20745 v 0.002 h -0.007 v 43.11349 l 50.61614,28.78403 49.71939,-28.78403 v -43.11352 h -8.99298 c -8.0362,0 -11.33639,-13.34845 -6.43952,-15.93227 4.9886,-2.63227 10.85305,2.46668 10.85305,2.46668 -0.11006,-6.02652 -5.15607,-8.05168 -9.9126,-8.12338 z"
         id="path895"
         inkscape:connector-curvature="0"
         sodipodi:nodetypes="sccccccccccsccccccccsccs" />
      <path
         sodipodi:nodetypes="sccccccccccsccccccccsccs"
         inkscape:connector-curvature="0"
         id="rect875"
         d="m 868.79604,171.08105 c -1.58546,-0.0239 -3.13888,0.16924 -4.46654,0.50357 -7.09949,1.78773 -5.79705,13.27231 -11.29782,17.87189 -2.61799,1.67668 -5.93431,3.21504 -9.01725,3.2135 -8.36951,-0.43379 -11.77302,-13.35809 -6.61952,-15.91939 5.29494,-2.63164 11.51955,2.46631 11.51955,2.46631 -0.15581,-8.03341 -9.62554,-8.95489 -15.26239,-7.61792 -7.53547,1.78731 -6.15268,13.26889 -11.99123,17.86735 -2.95147,1.81542 -6.37587,3.20365 -9.87052,3.20365 -7.95913,-0.32802 -11.21445,-13.35485 -6.33832,-15.92772 4.9886,-2.63227 10.85296,2.46668 10.85296,2.46668 -0.14678,-8.03535 -9.06806,-8.95711 -14.3787,-7.61982 -7.09949,1.78774 -5.79712,13.27233 -11.29788,17.8719 -2.09337,1.75046 -7.67061,3.20745 -7.67061,3.20745 v 0.002 h -0.007 v 43.11349 l 50.61614,28.78403 49.71939,-28.78403 v -43.11352 h -8.99298 c -8.0362,0 -11.33639,-13.34845 -6.43952,-15.93227 4.9886,-2.63227 10.85305,2.46668 10.85305,2.46668 -0.11006,-6.02652 -5.15607,-8.05168 -9.9126,-8.12338 z"
         style="opacity:1;fill:#002d62;fill-opacity:1;stroke:none;stroke-width:2.91000342;stroke-linecap:square;stroke-linejoin:round;stroke-miterlimit:4;stroke-dasharray:none;stroke-opacity:1;paint-order:normal" />
    </g>
  </g>
</svg>
