<?xml version="1.0" encoding="UTF-8" standalone="no"?>
<!-- Created with Inkscape (http://www.inkscape.org/) -->

<svg
   xmlns:dc="http://purl.org/dc/elements/1.1/"
   xmlns:cc="http://creativecommons.org/ns#"
   xmlns:rdf="http://www.w3.org/1999/02/22-rdf-syntax-ns#"
   xmlns:svg="http://www.w3.org/2000/svg"
   xmlns="http://www.w3.org/2000/svg"
   xmlns:sodipodi="http://sodipodi.sourceforge.net/DTD/sodipodi-0.dtd"
   xmlns:inkscape="http://www.inkscape.org/namespaces/inkscape"
   width="1000"
   height="1000"
   viewBox="0 0 264.58333 264.58334"
   version="1.1"
   id="svg8"
   inkscape:version="0.92.3 (2405546, 2018-03-11)"
   sodipodi:docname="sfg.svg">
  <defs
     id="defs2" />
  <sodipodi:namedview
     id="base"
     pagecolor="#ffffff"
     bordercolor="#666666"
     borderopacity="1.0"
     inkscape:pageopacity="0.0"
     inkscape:pageshadow="2"
     inkscape:zoom="0.49497475"
     inkscape:cx="707.41229"
     inkscape:cy="411.12696"
     inkscape:document-units="mm"
     inkscape:current-layer="layer1"
     showgrid="false"
     units="px"
     inkscape:window-width="1920"
     inkscape:window-height="1029"
     inkscape:window-x="1920"
     inkscape:window-y="0"
     inkscape:window-maximized="1"
     inkscape:snap-global="false" />
  <metadata
     id="metadata5">
    <rdf:RDF>
      <cc:Work
         rdf:about="">
        <dc:format>image/svg+xml</dc:format>
        <dc:type
           rdf:resource="http://purl.org/dc/dcmitype/StillImage" />
        <dc:title></dc:title>
      </cc:Work>
    </rdf:RDF>
  </metadata>
  <g
     inkscape:label="Layer 1"
     inkscape:groupmode="layer"
     id="layer1"
     transform="translate(0,-32.41665)">
    <rect
       style="opacity:1;fill:#ffffff;fill-opacity:1;stroke:#ffffff;stroke-width:5.29166651;stroke-linecap:square;stroke-linejoin:round;stroke-miterlimit:4;stroke-dasharray:none;stroke-opacity:1;paint-order:normal"
       id="rect1034"
       width="288.65109"
       height="282.2366"
       x="-7.4835467"
       y="24.919605" />
    <g
       id="g1032"
       transform="matrix(0.70103585,0,0,0.70103585,-361.49625,42.993936)">
      <path
         id="path920"
         transform="matrix(0.26458333,0,0,0.26458333,0,32.41665)"
         d="m 2320,315.71484 c 0,0 -79.9991,22.85579 -131.4277,95.71289 -51.4285,72.85716 -34.2875,154.28658 -67.1446,208.57227 -17.4437,28.82001 -37.4136,45.11326 -59.3554,62.58008 -3.4845,0.18654 -9.7433,0.49043 -14.0547,0.41992 -36.4428,-0.59601 -75.6606,27.34809 -71.3399,66.85742 1.0051,18.18975 9.547,34.69265 19.6133,49.53711 -0.9048,50.25954 15.2708,111.72947 73.709,139.17774 94.2857,44.28574 220,-54.28711 220,-54.28711 0,0 -28.5712,71.4291 -187.1426,85.71484 0,0 47.1429,82.858 140,58.5723 92.8572,-24.2858 205.714,-32.85861 277.1426,-44.28714 71.4286,-11.42858 225.7148,-55.71294 315.7148,-225.71289 90,-170.00002 67.1415,-268.57283 35.7129,-324.28711 C 2839.9992,378.57088 2320,315.71484 2320,315.71484 Z m -24.6875,48.97266 c 18.8839,-0.13393 42.7237,2.99051 67.9023,9.59766 50.3571,13.21428 87.5,44.28711 87.5,44.28711 1.7858,35.00001 -37.8571,52.49916 -45,48.92773 -7.1428,-3.57143 -43.5711,-45.35769 -67.1425,-55.71484 C 2315.0009,401.42804 2275,395 2265,395 c -10,0 -18.5717,-7.5003 -7.8574,-20.35742 5.3571,-6.42858 19.286,-9.82115 38.1699,-9.95508 z m -6.1973,81.62109 a 63.134527,119.198 16.811026 0 1 12.6993,1.33203 63.134527,119.198 16.811026 0 1 25.9609,132.36329 63.134527,119.198 16.811026 0 1 -94.9102,95.84375 63.134527,119.198 16.811026 0 1 -33.1191,-100.0293 34.345178,64.843701 16.811026 0 0 19.0488,39.20117 34.345178,64.843701 16.811026 0 0 51.6309,-52.14062 34.345178,64.843701 16.811026 0 0 -14.1231,-72.00586 34.345178,64.843701 16.811026 0 0 -37.6582,22.21875 63.134527,119.198 16.811026 0 1 70.4707,-66.78321 z m -233.3808,243.6543 c 0.8831,10e-4 1.7702,0.0138 2.6601,0.0371 l 6.9629,41.78516 c 0,0 -57.858,13.57168 -68.5722,54.10742 0,0 -26.7372,-36.23592 -6.0704,-65.89258 13.6249,-19.55166 37.6416,-30.0775 65.0196,-30.03711 z m 261.5547,10.02149 c 0,-10e-6 -185.5508,73.55922 -242.9356,118.55273 -2.5445,-3.75627 -5.5986,-7.53528 -8.2324,-10.26172 23.6431,-16.09564 138.2514,-89.77269 251.168,-108.29101 z m 73.2363,43.4375 c 0,0 -236.1052,73.31907 -300.1641,103.49218 -2.1218,-3.98762 -4.3507,-7.52429 -6.6347,-10.67187 20.5226,-8.31523 154.6317,-64.05703 306.7988,-92.82031 z m -53.5371,75.76171 c 0,0 -140.3767,30.41996 -230.6172,60.17579 -1.3748,-4.48017 -3.4641,-9.04883 -5.8828,-13.01368 35.3494,-10.03164 133.9877,-38.31788 236.5,-47.16211 z"
         style="fill:#9b9b9b;fill-opacity:1;stroke:none;stroke-width:0.99999994px;stroke-linecap:butt;stroke-linejoin:miter;stroke-opacity:1"
         inkscape:connector-curvature="0" />
      <path
         style="opacity:1;fill:#27251f;fill-opacity:1;stroke:#ffffff;stroke-width:5.29166651;stroke-linecap:butt;stroke-linejoin:miter;stroke-miterlimit:4;stroke-dasharray:none;stroke-opacity:1"
         d="m 711.08366,62.182922 c -5.83049,7.8e-5 -10.55698,3.589893 -10.55696,8.018116 10e-4,0.47556 0.0581,0.950098 0.17,1.418 -14.43789,-1.816537 -29.98134,-2.050084 -45.07167,0.185518 -43.29765,6.414468 -52.91923,45.970324 -52.91923,45.970324 0,0 155.01641,37.95201 168.37988,41.15924 13.36347,3.20724 44.3666,5.34558 70.559,-3.20704 26.1924,-8.55263 46.75353,-25.07421 37.66636,-43.78308 -9.08714,-18.708862 -36.34869,-16.570854 -44.36678,-11.76 -8.0181,4.81085 -14.43295,19.14078 -21.9165,25.55525 -7.48355,6.41447 -44.08044,7.53701 -44.08044,7.53701 0,0 4.81123,-27.26144 -9.08677,-40.624914 -6.85459,-6.590927 -21.77381,-13.309988 -40.32676,-17.659905 1.3634,-1.382734 2.10236,-3.062921 2.10685,-4.790403 2e-5,-4.428229 -4.72648,-8.018046 -10.55698,-8.018116 z"
         id="path952"
         inkscape:connector-curvature="0"
         sodipodi:nodetypes="cccscsscssccccc" />
      <path
         sodipodi:nodetypes="cccscsscssccccc"
         inkscape:connector-curvature="0"
         id="path915"
         d="m 711.08366,62.182922 c -5.83049,7.8e-5 -10.55698,3.589893 -10.55696,8.018116 10e-4,0.47556 0.0581,0.950098 0.17,1.418 -14.43789,-1.816537 -29.98134,-2.050084 -45.07167,0.185518 -43.29765,6.414468 -52.91923,45.970324 -52.91923,45.970324 0,0 155.01641,37.95201 168.37988,41.15924 13.36347,3.20724 44.3666,5.34558 70.559,-3.20704 26.1924,-8.55263 46.75353,-25.07421 37.66636,-43.78308 -9.08714,-18.708862 -36.34869,-16.570854 -44.36678,-11.76 -8.0181,4.81085 -14.43295,19.14078 -21.9165,25.55525 -7.48355,6.41447 -44.08044,7.53701 -44.08044,7.53701 0,0 4.81123,-27.26144 -9.08677,-40.624914 -6.85459,-6.590927 -21.77381,-13.309988 -40.32676,-17.659905 1.3634,-1.382734 2.10236,-3.062921 2.10685,-4.790403 2e-5,-4.428229 -4.72648,-8.018046 -10.55698,-8.018116 z"
         style="opacity:1;fill:#27251f;fill-opacity:1;stroke:none;stroke-width:0.26458332px;stroke-linecap:butt;stroke-linejoin:miter;stroke-opacity:1" />
      <g
         transform="translate(10.205357,-1.5119048)"
         id="g1024">
        <path
           inkscape:connector-curvature="0"
           style="opacity:1;fill:#ffffff;fill-opacity:1;stroke:#ffffff;stroke-width:20;stroke-linecap:square;stroke-linejoin:round;stroke-miterlimit:4;stroke-dasharray:none;stroke-opacity:1;paint-order:normal"
           d="M 2856.8613,462.59961 C 2832.3669,679.3648 2536.0605,892.71484 2536.0605,892.71484 V 921 h 275.8536 l -12.4082,126.4766 h 50.5195 L 2856.3398,921 h 117.7852 l 6.3145,126.4766 h 50.5175 L 3018.5488,921 h 275.8535 v -28.28516 c 0,0 -296.3064,-213.35004 -320.8007,-430.11523 h -22.3575 l 0.8477,16.96289 h -73.7188 l 0.8477,-16.96289 z"
           transform="matrix(0.26458333,0,0,0.26458333,0,32.41665)"
           id="path1017" />
        <path
           inkscape:connector-curvature="0"
           style="opacity:1;fill:#fd5a1e;fill-opacity:1;stroke:none;stroke-width:19.74814606;stroke-linecap:square;stroke-linejoin:round;stroke-miterlimit:4;stroke-dasharray:none;stroke-opacity:1;paint-order:normal"
           d="M 2856.8613,462.59961 C 2832.3669,679.3648 2536.0605,892.71484 2536.0605,892.71484 V 921 h 275.8536 l -12.4082,126.4766 h 50.5195 L 2856.3398,921 h 117.7852 l 6.3145,126.4766 h 50.5175 L 3018.5488,921 h 275.8535 v -28.28516 c 0,0 -296.3064,-213.35004 -320.8007,-430.11523 h -22.3575 l 0.8477,16.96289 h -73.7188 l 0.8477,-16.96289 z m 20.7051,33.125 h 75.332 l 3.6817,73.74219 h -82.6953 z m -29.4355,56.11914 -33.4414,340.87109 H 2775.416 L 2803.0059,641.5 c 18.2005,-28.90666 33.8026,-58.99925 45.125,-89.65625 z m 134.2011,0 c 11.3224,30.657 26.9246,60.74959 45.125,89.65625 l 27.5899,251.21484 h -39.2735 z m -109.4043,36.81641 h 84.6094 l 4.0332,80.81054 h -92.6758 z m -90.5507,83.63476 -24.2071,220.41992 h -43.9375 l 13.5528,-151.76757 c 18.9547,-21.57763 37.508,-44.58776 54.5918,-68.65235 z m 265.7089,0 c 17.0839,24.06459 35.6371,47.07472 54.5918,68.65235 l 13.5528,151.76757 h -43.9375 z m -180.3515,20.41016 h 94.9961 l 3.6308,72.73047 h -102.2578 z m -158.8301,69.14648 -11.6855,130.86328 h -44.5176 l 5.3398,-79.42968 c 16.4709,-15.67994 33.681,-32.91962 50.8633,-51.4336 z m 412.6543,0 c 17.1825,18.51398 34.3925,35.75366 50.8633,51.4336 l 5.3398,79.42968 h -44.5176 z m -258.8164,30.85938 h 104.9805 l 4.9921,100.0039 H 2857.75 Z m -222.834,37.50781 -4.2012,62.49609 h -69.3574 c 17.1565,-13.45508 43.3976,-34.87659 73.5586,-62.49609 z m 550.6465,0 c 30.1611,27.6195 56.4022,49.04101 73.5586,62.49609 h -69.3574 z"
           transform="matrix(0.26458333,0,0,0.26458333,0,32.41665)"
           id="rect954" />
      </g>
    </g>
  </g>
</svg>
