<?xml version="1.0" encoding="UTF-8" standalone="no"?>
<!-- Created with Inkscape (http://www.inkscape.org/) -->

<svg
   xmlns:dc="http://purl.org/dc/elements/1.1/"
   xmlns:cc="http://creativecommons.org/ns#"
   xmlns:rdf="http://www.w3.org/1999/02/22-rdf-syntax-ns#"
   xmlns:svg="http://www.w3.org/2000/svg"
   xmlns="http://www.w3.org/2000/svg"
   xmlns:sodipodi="http://sodipodi.sourceforge.net/DTD/sodipodi-0.dtd"
   xmlns:inkscape="http://www.inkscape.org/namespaces/inkscape"
   width="1000"
   height="1000"
   viewBox="0 0 264.58333 264.58334"
   version="1.1"
   id="svg8"
   sodipodi:docname="stl.svg"
   inkscape:version="0.92.3 (2405546, 2018-03-11)">
  <defs
     id="defs2" />
  <sodipodi:namedview
     id="base"
     pagecolor="#ffffff"
     bordercolor="#666666"
     borderopacity="1.0"
     inkscape:pageopacity="0.0"
     inkscape:pageshadow="2"
     inkscape:zoom="0.35355339"
     inkscape:cx="915.63091"
     inkscape:cy="540.30684"
     inkscape:document-units="mm"
     inkscape:current-layer="layer1"
     showgrid="false"
     units="px"
     inkscape:snap-object-midpoints="true"
     inkscape:snap-global="true"
     inkscape:window-width="1920"
     inkscape:window-height="1029"
     inkscape:window-x="1920"
     inkscape:window-y="0"
     inkscape:window-maximized="1" />
  <metadata
     id="metadata5">
    <rdf:RDF>
      <cc:Work
         rdf:about="">
        <dc:format>image/svg+xml</dc:format>
        <dc:type
           rdf:resource="http://purl.org/dc/dcmitype/StillImage" />
        <dc:title />
      </cc:Work>
    </rdf:RDF>
  </metadata>
  <g
     inkscape:label="Layer 1"
     inkscape:groupmode="layer"
     id="layer1"
     transform="translate(0,-32.41665)">
    <rect
       style="opacity:1;fill:#ffffff;fill-opacity:1;stroke:none;stroke-width:3.96875;stroke-linecap:square;stroke-linejoin:round;stroke-miterlimit:4;stroke-dasharray:none;stroke-opacity:1;paint-order:normal"
       id="rect995"
       width="287.36816"
       height="284.37476"
       x="-8.9802551"
       y="24.598883" />
    <g
       id="g993"
       transform="translate(-285.87149,-2.245064)">
      <path
         inkscape:connector-curvature="0"
         id="path896"
         d="m 352.2024,140.54796 c -27.79598,12.82894 -45.16829,45.97032 -45.16829,45.97032 0,0 10.95772,0.8017 23.78665,-1.06919 12.82893,-1.87089 23.25259,-6.68186 32.07248,-7.75094 8.81988,-1.06907 15.23473,2.93987 15.23473,2.93987 0,0 -6.94907,-1.33614 -14.69988,-0.53434 -7.75083,0.80181 -20.04565,6.4145 -29.93461,8.01812 -9.88896,1.60361 -20.31246,1.87069 -20.31246,1.87069 0,0 23.25251,11.49275 40.35774,17.10541 7.14936,2.34588 13.36133,4.12786 18.60404,4.94337 -2.27793,9.72816 -9.12259,46.09617 5.98464,81.11753 0,0 26.72707,-56.127 117.06418,-52.91977 0,0 1.33662,-35.27953 -7.48326,-71.62818 0,0 2.67279,30.46885 -1.60354,61.73938 0,0 -72.43021,1.87116 -107.44252,46.50517 0,0 -9.68883,-34.54164 -0.79685,-64.32786 4.47254,-0.009 7.96102,-1.14526 10.41847,-3.82612 5.87994,-6.41447 5.07802,-32.07229 -2.40554,-43.29762 -7.48352,-11.22531 -25.123,-7.75094 -25.123,-7.75094 2.67271,-15.23436 -8.55298,-17.1049 -8.55298,-17.1049 z"
         style="fill:#fedb00;fill-opacity:1;stroke:none;stroke-width:0.26458332px;stroke-linecap:butt;stroke-linejoin:miter;stroke-opacity:1" />
      <path
         inkscape:connector-curvature="0"
         id="path901"
         d="m 477.81903,40.054353 c 0,0 -20.57969,21.114498 -37.95221,27.796237 -17.37251,6.681737 -20.84699,1.603584 -48.64301,18.976101 -27.79604,17.372519 -35.01233,45.168299 -35.01233,45.168299 10.42349,6.949 26.45981,5.88005 34.74516,3.74189 8.28535,-2.13816 12.56186,-8.28538 22.45082,-8.01811 9.88899,0.26727 14.16526,6.14702 18.9761,8.55245 4.81087,2.40542 9.0868,2.6727 9.0868,2.6727 -22.98518,37.68501 -17.10492,74.03372 -17.10492,74.03372 -59.6011,11.22533 -43.83246,55.59196 -43.83246,55.59196 0,0 8.52734,-9.55372 23.78355,-19.11563 17.98932,-11.27485 45.12594,-22.87379 75.64089,-23.37997 0,0 9.08727,-40.09043 -0.26718,-86.32806 30.46873,-44.366743 18.17407,-67.886294 18.17407,-67.886294 -4.00902,8.552625 -13.63067,16.837731 -13.63067,16.837731 10.15624,-18.174326 4.27622,-34.745165 4.27622,-34.745165 -2.67271,7.216277 -13.6307,18.441768 -13.6307,18.441768 5.61266,-14.699823 2.93987,-32.339627 2.93987,-32.339627 z m -65.90242,94.655207 a 15.213541,15.213541 0 0 0 -15.21354,15.21354 15.213541,15.213541 0 0 0 15.21354,15.21354 15.213541,15.213541 0 0 0 15.21354,-15.21354 15.213541,15.213541 0 0 0 -15.21354,-15.21354 z m 0,2.24895 a 12.964582,12.964582 0 0 1 12.36202,9.10488 7.990062,7.8430056 21.604988 0 0 -9.16739,4.70307 7.990062,7.8430056 21.604988 0 0 -0.24651,4.93303 7.990062,7.8430056 21.604988 0 1 -3.20857,-9.55394 7.990062,7.8430056 21.604988 0 1 5.65803,-4.7439 11.1125,11.1125 0 0 0 -2.23964,-0.24132 11.1125,11.1125 0 0 0 -11.1125,11.1125 11.1125,11.1125 0 0 0 7.80364,10.6071 12.964582,12.964582 0 0 1 -12.81366,-12.95683 12.964582,12.964582 0 0 1 12.96458,-12.96459 z"
         style="fill:#c41e3a;fill-opacity:1;stroke:none;stroke-width:0.26458332px;stroke-linecap:butt;stroke-linejoin:miter;stroke-opacity:1" />
      <path
         style="opacity:1;fill:#0c2340;fill-opacity:1;stroke:#fdfdfd;stroke-width:3.96875;stroke-linecap:butt;stroke-linejoin:miter;stroke-miterlimit:4;stroke-dasharray:none;stroke-opacity:1"
         d="m 438.34544,238.97731 7.07693,0.12877 c 0,0 5.59381,-83.89492 36.02845,-83.89492 27.19208,0 36.02845,83.89492 36.02845,83.89492 l 7.07726,-0.12877 c 0,0 -8.74344,-86.08232 -42.97695,-86.08232 -33.43028,0 -40.06619,59.15014 -43.23414,86.08232 z"
         id="path987"
         inkscape:connector-curvature="0"
         sodipodi:nodetypes="ccscccc" />
      <path
         sodipodi:nodetypes="ccscccc"
         inkscape:connector-curvature="0"
         id="path979"
         d="m 438.34544,238.97731 7.07693,0.12877 c 0,0 5.59381,-83.89492 36.02845,-83.89492 27.19208,0 36.02845,83.89492 36.02845,83.89492 l 7.07726,-0.12877 c 0,0 -8.74344,-86.08232 -42.97695,-86.08232 -33.43028,0 -40.06619,59.15014 -43.23414,86.08232 z"
         style="opacity:1;fill:#0c2340;fill-opacity:1;stroke:none;stroke-width:0.18014225px;stroke-linecap:butt;stroke-linejoin:miter;stroke-opacity:1" />
    </g>
  </g>
</svg>
