<?xml version="1.0" encoding="UTF-8" standalone="no"?>
<!-- Created with Inkscape (http://www.inkscape.org/) -->

<svg
   xmlns:dc="http://purl.org/dc/elements/1.1/"
   xmlns:cc="http://creativecommons.org/ns#"
   xmlns:rdf="http://www.w3.org/1999/02/22-rdf-syntax-ns#"
   xmlns:svg="http://www.w3.org/2000/svg"
   xmlns="http://www.w3.org/2000/svg"
   xmlns:sodipodi="http://sodipodi.sourceforge.net/DTD/sodipodi-0.dtd"
   xmlns:inkscape="http://www.inkscape.org/namespaces/inkscape"
   width="1000"
   height="1000"
   viewBox="0 0 264.58333 264.58334"
   version="1.1"
   id="svg8"
   inkscape:version="0.92.3 (2405546, 2018-03-11)"
   sodipodi:docname="tbr-sunbeam.svg">
  <defs
     id="defs2" />
  <sodipodi:namedview
     id="base"
     pagecolor="#ffffff"
     bordercolor="#666666"
     borderopacity="1.0"
     inkscape:pageopacity="0.0"
     inkscape:pageshadow="2"
     inkscape:zoom="0.9899495"
     inkscape:cx="495.61328"
     inkscape:cy="370.53913"
     inkscape:document-units="mm"
     inkscape:current-layer="layer1"
     showgrid="false"
     units="px"
     inkscape:window-width="1920"
     inkscape:window-height="1029"
     inkscape:window-x="1920"
     inkscape:window-y="0"
     inkscape:window-maximized="1"
     inkscape:snap-object-midpoints="true"
     inkscape:snap-global="false" />
  <metadata
     id="metadata5">
    <rdf:RDF>
      <cc:Work
         rdf:about="">
        <dc:format>image/svg+xml</dc:format>
        <dc:type
           rdf:resource="http://purl.org/dc/dcmitype/StillImage" />
        <dc:title />
      </cc:Work>
    </rdf:RDF>
  </metadata>
  <g
     inkscape:label="Layer 1"
     inkscape:groupmode="layer"
     id="layer1"
     transform="translate(0,-32.41665)">
    <rect
       style="opacity:1;fill:#ffffff;fill-opacity:1;stroke:none;stroke-width:5.5562501;stroke-linecap:square;stroke-linejoin:miter;stroke-miterlimit:4;stroke-dasharray:none;stroke-opacity:1;paint-order:normal"
       id="rect916"
       width="278.49484"
       height="275.82214"
       x="-8.0180855"
       y="30.264997" />
    <g
       id="g896"
       transform="translate(-388.33857,4.4977258)">
      <path
         id="path931"
         d="m 402.52737,49.750992 c -0.17719,0.0041 -0.36187,0.01228 -0.55399,0.02481 -12.29439,0.801809 -6.14719,56.661098 0,75.637238 6.1472,18.97613 30.46863,53.18634 31.27045,60.13535 0.80179,6.949 -27.7957,38.75445 -26.45937,43.5653 1.33633,4.81085 13.36302,6.41447 16.03571,2.6727 2.67274,-3.74178 -2.13781,-10.95842 7.21661,-13.89838 6.22216,-1.95552 22.04453,7.29058 31.53503,16.79071 l 88.0055,-107.01207 -4.88188,-11.87524 c 0,0 1.60329,-14.70011 -8.55298,-19.510954 -10.15624,-4.810852 -49.97899,22.183454 -95.41483,-4.276225 -44.72588,-26.046249 -27.0369,-42.509903 -38.20025,-42.253234 z m 33.9235,142.612998 7.21661,10.42366 -2.00453,3.20703 z m -3.24734,9.96942 a 3.9687499,3.9687499 0 0 1 3.96875,3.96875 3.9687499,3.9687499 0 0 1 -3.96875,3.96875 3.9687499,3.9687499 0 0 1 -3.96875,-3.96875 3.9687499,3.9687499 0 0 1 3.96875,-3.96875 z"
         style="fill:#8fbce6;fill-opacity:1;stroke:none;stroke-width:0.26458332px;stroke-linecap:butt;stroke-linejoin:miter;stroke-opacity:1"
         inkscape:connector-curvature="0" />
      <path
         inkscape:connector-curvature="0"
         style="fill:#092c5c;fill-opacity:1;stroke:#ffffff;stroke-width:5.29166651;stroke-linecap:butt;stroke-linejoin:miter;stroke-miterlimit:4;stroke-dasharray:none;stroke-opacity:1"
         d="m 590.91689,81.139773 c -0.93549,0.0047 -1.90905,0.06088 -2.92386,0.173633 -21.64881,2.405425 -43.2976,34.478004 -43.2976,34.478004 l -92.18869,111.24643 c 9.21527,6.65422 17.27554,15.32477 16.55146,20.78478 -0.92634,6.98503 -7.60506,4.75915 -11.76002,8.81962 -1.62195,1.58507 0.2672,10.69103 4.27622,12.82919 4.00905,2.13816 12.29461,-2.13813 25.12354,-20.31246 12.82893,-18.17432 23.25251,-14.43277 45.70315,-4.81107 22.45063,9.62171 74.83517,10.42375 88.46592,8.82013 13.63072,-1.60362 39.82341,-11.22569 14.16553,-16.57108 -25.65787,-5.34539 -70.02497,-45.16837 -73.23222,-63.87724 -3.20723,-18.70887 16.96197,-39.07954 6.41461,-52.65208 -2.64442,-3.40289 -13.09638,-3.20756 -13.09638,-3.20756 6.94899,-10.15625 23.78734,-28.597631 36.88356,-28.8649 13.09621,-0.267269 20.04533,22.18345 36.08152,22.71799 16.03613,0.53454 17.37206,-11.225152 17.37206,-11.225152 0,0 -7.75078,9.621412 -20.31246,6.146912 -11.97284,-3.31163 -15.2047,-24.590304 -34.22634,-24.495147 z m -109.78967,147.607007 12.12691,3.69642 -14.57068,-0.80977 z m -0.48318,7.39645 c 2.19188,0 3.96875,1.77687 3.96875,3.96875 0,2.19188 -1.77687,3.96875 -3.96875,3.96875 -2.19188,0 -3.96875,-1.77687 -3.96875,-3.96875 0,-2.19188 1.77687,-3.96875 3.96875,-3.96875 z"
         id="path891"
         sodipodi:nodetypes="cccccccsssscscsscscccccsssss" />
      <path
         sodipodi:nodetypes="cccccccsssscscsscscccccsssss"
         id="path945"
         d="m 590.91689,81.139773 c -0.93549,0.0047 -1.90905,0.06088 -2.92386,0.173633 -21.64881,2.405425 -43.2976,34.478004 -43.2976,34.478004 l -92.18869,111.24643 c 9.21527,6.65422 17.27554,15.32477 16.55146,20.78478 -0.92634,6.98503 -7.60506,4.75915 -11.76002,8.81962 -1.62195,1.58507 0.2672,10.69103 4.27622,12.82919 4.00905,2.13816 12.29461,-2.13813 25.12354,-20.31246 12.82893,-18.17432 23.25251,-14.43277 45.70315,-4.81107 22.45063,9.62171 74.83517,10.42375 88.46592,8.82013 13.63072,-1.60362 39.82341,-11.22569 14.16553,-16.57108 -25.65787,-5.34539 -70.02497,-45.16837 -73.23222,-63.87724 -3.20723,-18.70887 16.96197,-39.07954 6.41461,-52.65208 -2.64442,-3.40289 -13.09638,-3.20756 -13.09638,-3.20756 6.94899,-10.15625 23.78734,-28.597631 36.88356,-28.8649 13.09621,-0.267269 20.04533,22.18345 36.08152,22.71799 16.03613,0.53454 17.37206,-11.225152 17.37206,-11.225152 0,0 -7.75078,9.621412 -20.31246,6.146912 -11.97284,-3.31163 -15.2047,-24.590304 -34.22634,-24.495147 z m -109.78967,147.607007 12.12691,3.69642 -14.57068,-0.80977 z m -0.48318,7.39645 c 2.19188,0 3.96875,1.77687 3.96875,3.96875 0,2.19188 -1.77687,3.96875 -3.96875,3.96875 -2.19188,0 -3.96875,-1.77687 -3.96875,-3.96875 0,-2.19188 1.77687,-3.96875 3.96875,-3.96875 z"
         style="fill:#092c5c;fill-opacity:1;stroke:none;stroke-width:0.26458332px;stroke-linecap:butt;stroke-linejoin:miter;stroke-opacity:1"
         inkscape:connector-curvature="0" />
    </g>
    <g
       id="g889"
       transform="translate(1.8708867,-0.26726953)">
      <path
         inkscape:connector-curvature="0"
         id="path881"
         d="m 205.25,129.84961 c -7.19524,7.17289 -14.07733,14.65612 -21.125,21.97461 -3.94218,-7.10521 -7.41212,-14.54163 -12.6582,-20.82227 0.40949,7.88836 2.44591,15.5295 3.95508,23.2461 -12.51117,-7.40583 -24.27793,-16.25635 -37.14435,-22.94807 -6.86206,-3.83144 -0.40214,4.31925 2.11616,6.64762 9.54916,10.06496 19.32565,19.91435 28.77037,30.07779 -7.36611,3.48672 -15.39951,6.01985 -22.41211,10.03906 -1.72794,5.11329 5.62573,2.74519 8.40094,2.73591 6.03161,-0.56552 12.08381,-0.93153 18.10297,-1.61872 -3.08317,3.51038 -0.76181,13.25104 -0.61483,15.3333 2.05809,15.53166 2.85812,31.40075 5.56209,46.7624 3.70546,3.52454 4.18273,-3.25443 4.49598,-6.0709 2.53301,-16.20304 4.99926,-32.41677 7.51574,-48.62246 8.36857,6.4007 16.30741,13.42137 24.89063,19.51368 7.3166,1.18971 0.7797,-4.31908 -0.81836,-7.34961 -4.94957,-6.98335 -9.97616,-13.91321 -14.82031,-20.97071 18.92981,-1.99957 38.01733,-3.1952 56.89062,-5.62304 3.94754,-3.56702 -3.38256,-4.58506 -6.08837,-4.72567 -17.08261,-2.80349 -34.21099,-5.33802 -51.26319,-8.32121 3.72829,-11.18976 8.32284,-22.18353 11.26953,-33.6543 -1.67513,1.4655 -3.35026,2.93099 -5.02539,4.39649 z m -22.35742,27.84766 c -0.79136,4.61976 4.32713,2.88208 6.39844,0.72461 -0.7915,2.69646 -4.10861,7.56913 0.88086,7.42968 3.30813,1.10307 15.25394,2.65226 11.9499,3.33895 -4.85089,0.60523 -9.77087,0.79532 -14.56319,1.80168 -0.97855,2.0565 3.3734,6.54869 -0.2207,3.66211 -3.89429,-3.80938 -3.70741,3.24283 -4.41406,5.7207 -0.78293,4.49591 -1.5358,8.99679 -2.27539,13.5 -0.81154,-5.86306 -1.30057,-11.77848 -2.41406,-17.5957 -3.70825,1.76812 -3.63779,0.5758 -3.04102,-2.87305 0.71013,-5.98499 3.20962,-12.02222 7.73633,-16.11133 z"
         style="fill:#ffffff;fill-opacity:1;stroke-width:0.24214864"
         sodipodi:nodetypes="cccccccccccccccccccccccccccccccccc" />
      <path
         inkscape:connector-curvature="0"
         id="path1016"
         d="m 206.56632,131.35463 c -0.0518,-0.0518 -4.82996,4.8773 -10.61765,10.9539 l -10.52306,11.04852 -0.34098,2.62486 c -0.18766,1.44379 -0.27945,2.68735 -0.20384,2.76295 0.0756,0.0756 1.95527,-1.07779 4.17705,-2.56291 2.22177,-1.48512 4.08389,-2.65614 4.13782,-2.60215 0.054,0.054 -0.77102,2.31654 -1.83316,5.02789 -1.06211,2.71137 -1.88833,4.97222 -1.83643,5.02412 0.0519,0.0519 6.12444,1.42986 13.49458,3.06185 11.5912,2.56671 13.2529,2.98819 12.31033,3.12287 -0.59934,0.0857 -6.5925,0.7142 -13.31818,1.39661 -6.72568,0.68241 -12.2959,1.31175 -12.37845,1.39851 -0.0825,0.0867 1.30959,2.48823 3.09355,5.33719 1.78396,2.84898 3.21339,5.20752 3.17677,5.2412 -0.0366,0.0336 -2.29308,-1.56157 -5.01462,-3.5452 -2.72158,-1.98365 -5.02135,-3.6067 -5.1102,-3.6067 -0.0889,0 -1.34417,7.16458 -2.78945,15.92128 l -2.62768,15.92127 -1.79436,-14.52892 c -0.98706,-7.9909 -1.8486,-14.58336 -1.9145,-14.64999 -0.0659,-0.0666 -0.86501,0.68284 -1.77589,1.66524 -1.35948,1.4662 -1.6364,1.90001 -1.5456,2.42149 0.0608,0.34941 1.47271,13.00291 3.13753,28.11903 1.66482,15.11613 3.09136,27.89961 3.17016,28.40802 0.0789,0.50841 0.18461,0.88328 0.23505,0.83286 0.0504,-0.0504 2.06255,-12.94124 4.47172,-28.64637 2.40916,-15.70514 4.40054,-28.56863 4.42488,-28.58538 0.0244,-0.0168 5.21992,4.09724 11.54605,9.14207 13.01503,10.37898 15.25537,12.14107 15.25537,11.9996 0,-0.0549 -4.46874,-6.35436 -9.93047,-13.99922 -5.46174,-7.64488 -9.79317,-13.92644 -9.62542,-13.95902 0.16778,-0.0326 13.10868,-1.25749 28.75753,-2.72181 29.81618,-2.79002 31.06004,-2.91553 30.57078,-3.08644 -0.16691,-0.0583 -13.51535,-2.20632 -29.66321,-4.77298 -23.33215,-3.70861 -29.34366,-4.7356 -29.28107,-5.00378 0.0434,-0.1856 2.36926,-6.80162 5.16883,-14.70201 2.7996,-7.90039 5.04803,-14.40665 4.99622,-14.45845 z m -67.40244,2.35953 c -0.0429,0.0429 7.49266,7.91459 16.74561,17.49288 11.25038,11.64595 16.71964,17.47092 16.51057,17.58368 -0.17197,0.0927 -5.59751,2.42684 -12.05682,5.1868 -6.45932,2.75994 -11.85318,5.12451 -11.98636,5.25443 -0.1578,0.15398 0.13737,0.18679 0.84752,0.0946 0.59932,-0.0778 5.66625,-0.52249 11.25991,-0.98799 5.59361,-0.46548 10.67227,-0.90921 11.28591,-0.98609 l 1.11568,-0.13951 0.16033,-2.28103 c 0.3348,-4.76283 1.32717,-8.3398 3.45439,-12.4541 1.52318,-2.9459 3.27289,-5.2127 5.25964,-6.81327 0.77178,-0.62174 1.40863,-1.20255 1.41412,-1.29114 0.0183,-0.27492 -8.8434,-16.35612 -8.95288,-16.24666 -0.0568,0.0568 0.84212,4.58776 1.99772,10.06903 1.15563,5.48128 2.04718,10.02007 1.98119,10.08606 -0.066,0.066 -8.85869,-5.45197 -19.53931,-12.26256 -10.68064,-6.81056 -19.45439,-12.34796 -19.49722,-12.30512 z"
         style="fill:#f5d130;fill-opacity:1;stroke-width:0.24214864" />
    </g>
  </g>
</svg>
