<?xml version="1.0" encoding="UTF-8" standalone="no"?>
<!-- Created with Inkscape (http://www.inkscape.org/) -->

<svg
   xmlns:dc="http://purl.org/dc/elements/1.1/"
   xmlns:cc="http://creativecommons.org/ns#"
   xmlns:rdf="http://www.w3.org/1999/02/22-rdf-syntax-ns#"
   xmlns:svg="http://www.w3.org/2000/svg"
   xmlns="http://www.w3.org/2000/svg"
   xmlns:sodipodi="http://sodipodi.sourceforge.net/DTD/sodipodi-0.dtd"
   xmlns:inkscape="http://www.inkscape.org/namespaces/inkscape"
   width="1000"
   height="1000"
   viewBox="0 0 264.58333 264.58334"
   version="1.1"
   id="svg8"
   inkscape:version="0.92.3 (2405546, 2018-03-11)"
   sodipodi:docname="tbr.svg">
  <defs
     id="defs2" />
  <sodipodi:namedview
     id="base"
     pagecolor="#ffffff"
     bordercolor="#666666"
     borderopacity="1.0"
     inkscape:pageopacity="0.0"
     inkscape:pageshadow="2"
     inkscape:zoom="0.49497475"
     inkscape:cx="480.06467"
     inkscape:cy="420.75575"
     inkscape:document-units="mm"
     inkscape:current-layer="layer1"
     showgrid="false"
     units="px"
     inkscape:window-width="1920"
     inkscape:window-height="1029"
     inkscape:window-x="1920"
     inkscape:window-y="0"
     inkscape:window-maximized="1"
     inkscape:snap-object-midpoints="true" />
  <metadata
     id="metadata5">
    <rdf:RDF>
      <cc:Work
         rdf:about="">
        <dc:format>image/svg+xml</dc:format>
        <dc:type
           rdf:resource="http://purl.org/dc/dcmitype/StillImage" />
        <dc:title />
      </cc:Work>
    </rdf:RDF>
  </metadata>
  <g
     inkscape:label="Layer 1"
     inkscape:groupmode="layer"
     id="layer1"
     transform="translate(0,-32.41665)">
    <rect
       style="opacity:1;fill:#ffffff;fill-opacity:1;stroke:none;stroke-width:5.5562501;stroke-linecap:square;stroke-linejoin:miter;stroke-miterlimit:4;stroke-dasharray:none;stroke-opacity:1;paint-order:normal"
       id="rect916"
       width="278.49484"
       height="275.82214"
       x="-3.7417734"
       y="28.126841" />
    <g
       id="g914"
       transform="translate(-308.96357,3.7417734)">
      <g
         transform="translate(-79.375,0.75595238)"
         id="g896">
        <path
           inkscape:connector-curvature="0"
           style="fill:#8fbce6;fill-opacity:1;stroke:none;stroke-width:0.26458332px;stroke-linecap:butt;stroke-linejoin:miter;stroke-opacity:1"
           d="m 402.52737,49.750992 c -0.17719,0.0041 -0.36187,0.01228 -0.55399,0.02481 -12.29439,0.801809 -6.14719,56.661098 0,75.637238 6.1472,18.97613 30.46863,53.18634 31.27045,60.13535 0.80179,6.949 -27.7957,38.75445 -26.45937,43.5653 1.33633,4.81085 13.36302,6.41447 16.03571,2.6727 2.67274,-3.74178 -2.13781,-10.95842 7.21661,-13.89838 6.22216,-1.95552 22.04453,7.29058 31.53503,16.79071 l 88.0055,-107.01207 -4.88188,-11.87524 c 0,0 1.60329,-14.70011 -8.55298,-19.510954 -10.15624,-4.810852 -49.97899,22.183454 -95.41483,-4.276225 -44.72588,-26.046249 -27.0369,-42.509903 -38.20025,-42.253234 z m 33.9235,142.612998 7.21661,10.42366 -2.00453,3.20703 z m -3.24734,9.96942 a 3.9687499,3.9687499 0 0 1 3.96875,3.96875 3.9687499,3.9687499 0 0 1 -3.96875,3.96875 3.9687499,3.9687499 0 0 1 -3.96875,-3.96875 3.9687499,3.9687499 0 0 1 3.96875,-3.96875 z"
           id="path931" />
        <path
           sodipodi:nodetypes="cccccccsssscscsscscccccsssss"
           id="path891"
           d="m 590.91689,81.139773 c -0.93549,0.0047 -1.90905,0.06088 -2.92386,0.173633 -21.64881,2.405425 -43.2976,34.478004 -43.2976,34.478004 l -92.18869,111.24643 c 9.21527,6.65422 17.27554,15.32477 16.55146,20.78478 -0.92634,6.98503 -7.60506,4.75915 -11.76002,8.81962 -1.62195,1.58507 0.2672,10.69103 4.27622,12.82919 4.00905,2.13816 12.29461,-2.13813 25.12354,-20.31246 12.82893,-18.17432 23.25251,-14.43277 45.70315,-4.81107 22.45063,9.62171 74.83517,10.42375 88.46592,8.82013 13.63072,-1.60362 39.82341,-11.22569 14.16553,-16.57108 -25.65787,-5.34539 -70.02497,-45.16837 -73.23222,-63.87724 -3.20723,-18.70887 16.96197,-39.07954 6.41461,-52.65208 -2.64442,-3.40289 -13.09638,-3.20756 -13.09638,-3.20756 6.94899,-10.15625 23.78734,-28.597631 36.88356,-28.8649 13.09621,-0.267269 20.04533,22.18345 36.08152,22.71799 16.03613,0.53454 17.37206,-11.225152 17.37206,-11.225152 0,0 -7.75078,9.621412 -20.31246,6.146912 -11.97284,-3.31163 -15.2047,-24.590304 -34.22634,-24.495147 z m -109.78967,147.607007 12.12691,3.69642 -14.57068,-0.80977 z m -0.48318,7.39645 c 2.19188,0 3.96875,1.77687 3.96875,3.96875 0,2.19188 -1.77687,3.96875 -3.96875,3.96875 -2.19188,0 -3.96875,-1.77687 -3.96875,-3.96875 0,-2.19188 1.77687,-3.96875 3.96875,-3.96875 z"
           style="fill:#092c5c;fill-opacity:1;stroke:#ffffff;stroke-width:5.29166651;stroke-linecap:butt;stroke-linejoin:miter;stroke-miterlimit:4;stroke-dasharray:none;stroke-opacity:1"
           inkscape:connector-curvature="0" />
        <path
           inkscape:connector-curvature="0"
           style="fill:#092c5c;fill-opacity:1;stroke:none;stroke-width:0.26458332px;stroke-linecap:butt;stroke-linejoin:miter;stroke-opacity:1"
           d="m 590.91689,81.139773 c -0.93549,0.0047 -1.90905,0.06088 -2.92386,0.173633 -21.64881,2.405425 -43.2976,34.478004 -43.2976,34.478004 l -92.18869,111.24643 c 9.21527,6.65422 17.27554,15.32477 16.55146,20.78478 -0.92634,6.98503 -7.60506,4.75915 -11.76002,8.81962 -1.62195,1.58507 0.2672,10.69103 4.27622,12.82919 4.00905,2.13816 12.29461,-2.13813 25.12354,-20.31246 12.82893,-18.17432 23.25251,-14.43277 45.70315,-4.81107 22.45063,9.62171 74.83517,10.42375 88.46592,8.82013 13.63072,-1.60362 39.82341,-11.22569 14.16553,-16.57108 -25.65787,-5.34539 -70.02497,-45.16837 -73.23222,-63.87724 -3.20723,-18.70887 16.96197,-39.07954 6.41461,-52.65208 -2.64442,-3.40289 -13.09638,-3.20756 -13.09638,-3.20756 6.94899,-10.15625 23.78734,-28.597631 36.88356,-28.8649 13.09621,-0.267269 20.04533,22.18345 36.08152,22.71799 16.03613,0.53454 17.37206,-11.225152 17.37206,-11.225152 0,0 -7.75078,9.621412 -20.31246,6.146912 -11.97284,-3.31163 -15.2047,-24.590304 -34.22634,-24.495147 z m -109.78967,147.607007 12.12691,3.69642 -14.57068,-0.80977 z m -0.48318,7.39645 c 2.19188,0 3.96875,1.77687 3.96875,3.96875 0,2.19188 -1.77687,3.96875 -3.96875,3.96875 -2.19188,0 -3.96875,-1.77687 -3.96875,-3.96875 0,-2.19188 1.77687,-3.96875 3.96875,-3.96875 z"
           id="path945"
           sodipodi:nodetypes="cccccccsssscscsscscccccsssss" />
      </g>
      <path
         style="opacity:1;fill:#f5d130;fill-opacity:1;stroke:#ffffff;stroke-width:5.5562501;stroke-linecap:square;stroke-linejoin:miter;stroke-miterlimit:4;stroke-dasharray:none;stroke-opacity:1;paint-order:normal"
         d="m 518.18697,143.24994 -11.93496,11.93495 h 23.86991 z m 11.93495,11.93495 16.8788,16.87879 v -16.87879 z m 16.8788,16.87879 v 23.86991 l 11.93496,-11.93495 z m 0,23.86991 -16.8788,16.87881 h 16.8788 z m -16.8788,16.87881 h -23.86991 l 11.93496,11.93495 z m -23.86991,0 -16.87879,-16.87881 v 16.87881 z m -16.87879,-16.87881 v -23.86991 l -11.93497,11.93496 z m 0,-23.86991 16.87879,-16.87879 h -16.87879 z m 28.81375,-13.47714 a 25.412107,25.412107 0 0 0 -25.4121,25.4121 25.412107,25.412107 0 0 0 25.4121,25.41211 25.412107,25.412107 0 0 0 25.41211,-25.41211 25.412107,25.412107 0 0 0 -25.41211,-25.4121 z"
         id="path906"
         inkscape:connector-curvature="0" />
      <path
         inkscape:connector-curvature="0"
         id="rect898"
         d="m 518.18697,143.24994 -11.93496,11.93495 h 23.86991 z m 11.93495,11.93495 16.8788,16.87879 v -16.87879 z m 16.8788,16.87879 v 23.86991 l 11.93496,-11.93495 z m 0,23.86991 -16.8788,16.87881 h 16.8788 z m -16.8788,16.87881 h -23.86991 l 11.93496,11.93495 z m -23.86991,0 -16.87879,-16.87881 v 16.87881 z m -16.87879,-16.87881 v -23.86991 l -11.93497,11.93496 z m 0,-23.86991 16.87879,-16.87879 h -16.87879 z m 28.81375,-13.47714 a 25.412107,25.412107 0 0 0 -25.4121,25.4121 25.412107,25.412107 0 0 0 25.4121,25.41211 25.412107,25.412107 0 0 0 25.41211,-25.41211 25.412107,25.412107 0 0 0 -25.41211,-25.4121 z"
         style="opacity:1;fill:#f5d130;fill-opacity:1;stroke:none;stroke-width:5.5562501;stroke-linecap:square;stroke-linejoin:miter;stroke-miterlimit:4;stroke-dasharray:none;stroke-opacity:1;paint-order:normal" />
    </g>
  </g>
</svg>
