<?xml version="1.0" encoding="UTF-8" standalone="no"?>
<!-- Created with Inkscape (http://www.inkscape.org/) -->

<svg
   xmlns:dc="http://purl.org/dc/elements/1.1/"
   xmlns:cc="http://creativecommons.org/ns#"
   xmlns:rdf="http://www.w3.org/1999/02/22-rdf-syntax-ns#"
   xmlns:svg="http://www.w3.org/2000/svg"
   xmlns="http://www.w3.org/2000/svg"
   xmlns:sodipodi="http://sodipodi.sourceforge.net/DTD/sodipodi-0.dtd"
   xmlns:inkscape="http://www.inkscape.org/namespaces/inkscape"
   width="500"
   height="500"
   viewBox="0 0 132.29166 132.29167"
   version="1.1"
   id="svg8"
   inkscape:version="0.92.3 (2405546, 2018-03-11)"
   sodipodi:docname="alligator-logo.svg">
  <defs
     id="defs2">
    <clipPath
       clipPathUnits="userSpaceOnUse"
       id="clipPath876">
      <rect
         style="opacity:1;fill:#ff781e;fill-opacity:1;stroke:none;stroke-width:3.96875;stroke-linecap:round;stroke-linejoin:round;stroke-miterlimit:4;stroke-dasharray:none;stroke-opacity:1;paint-order:normal"
         id="rect878"
         width="228.51544"
         height="210.07385"
         x="151.54181"
         y="145.19089"
         transform="rotate(-90)" />
    </clipPath>
    <clipPath
       clipPathUnits="userSpaceOnUse"
       id="clipPath919">
      <rect
         style="opacity:0.19200003;fill:#00ff00;fill-opacity:1;stroke:none;stroke-width:5.54963541;stroke-linecap:round;stroke-linejoin:round;stroke-miterlimit:4;stroke-dasharray:none;stroke-opacity:1;paint-order:normal"
         id="rect921"
         width="65.748306"
         height="143.79102"
         x="159.82718"
         y="140.38005"
         transform="rotate(-91.639753)" />
    </clipPath>
    <clipPath
       clipPathUnits="userSpaceOnUse"
       id="clipPath919-7">
      <rect
         style="opacity:0.19200003;fill:#00ff00;fill-opacity:1;stroke:none;stroke-width:5.54963541;stroke-linecap:round;stroke-linejoin:round;stroke-miterlimit:4;stroke-dasharray:none;stroke-opacity:1;paint-order:normal"
         id="rect921-5"
         width="65.748306"
         height="143.79102"
         x="159.82718"
         y="140.38005"
         transform="rotate(-91.639753)" />
    </clipPath>
    <clipPath
       id="clipPath919-75"
       clipPathUnits="userSpaceOnUse">
      <rect
         transform="rotate(-91.639753)"
         y="140.38005"
         x="159.82718"
         height="143.79102"
         width="65.748306"
         id="rect921-3"
         style="opacity:0.19200003;fill:#00ff00;fill-opacity:1;stroke:none;stroke-width:5.54963541;stroke-linecap:round;stroke-linejoin:round;stroke-miterlimit:4;stroke-dasharray:none;stroke-opacity:1;paint-order:normal" />
    </clipPath>
    <clipPath
       clipPathUnits="userSpaceOnUse"
       id="clipPath919-753">
      <rect
         style="opacity:0.19200003;fill:#00ff00;fill-opacity:1;stroke:none;stroke-width:5.54963541;stroke-linecap:round;stroke-linejoin:round;stroke-miterlimit:4;stroke-dasharray:none;stroke-opacity:1;paint-order:normal"
         id="rect921-56"
         width="65.748306"
         height="143.79102"
         x="159.82718"
         y="140.38005"
         transform="rotate(-91.639753)" />
    </clipPath>
    <clipPath
       clipPathUnits="userSpaceOnUse"
       id="clipPath919-7-2">
      <rect
         style="opacity:0.19200003;fill:#00ff00;fill-opacity:1;stroke:none;stroke-width:5.54963541;stroke-linecap:round;stroke-linejoin:round;stroke-miterlimit:4;stroke-dasharray:none;stroke-opacity:1;paint-order:normal"
         id="rect921-5-9"
         width="65.748306"
         height="143.79102"
         x="159.82718"
         y="140.38005"
         transform="rotate(-91.639753)" />
    </clipPath>
    <clipPath
       id="clipPath919-75-1"
       clipPathUnits="userSpaceOnUse">
      <rect
         transform="rotate(-91.639753)"
         y="140.38005"
         x="159.82718"
         height="143.79102"
         width="65.748306"
         id="rect921-35"
         style="opacity:0.19200003;fill:#00ff00;fill-opacity:1;stroke:none;stroke-width:5.54963541;stroke-linecap:round;stroke-linejoin:round;stroke-miterlimit:4;stroke-dasharray:none;stroke-opacity:1;paint-order:normal" />
    </clipPath>
    <clipPath
       id="clipPath919-9"
       clipPathUnits="userSpaceOnUse">
      <rect
         transform="rotate(-91.639753)"
         y="140.38005"
         x="159.82718"
         height="143.79102"
         width="65.748306"
         id="rect921-3-2"
         style="opacity:0.19200003;fill:#00ff00;fill-opacity:1;stroke:none;stroke-width:5.54963541;stroke-linecap:round;stroke-linejoin:round;stroke-miterlimit:4;stroke-dasharray:none;stroke-opacity:1;paint-order:normal" />
    </clipPath>
    <clipPath
       clipPathUnits="userSpaceOnUse"
       id="clipPath919-7-6">
      <rect
         style="opacity:0.19200003;fill:#00ff00;fill-opacity:1;stroke:none;stroke-width:5.54963541;stroke-linecap:round;stroke-linejoin:round;stroke-miterlimit:4;stroke-dasharray:none;stroke-opacity:1;paint-order:normal"
         id="rect921-5-2"
         width="65.748306"
         height="143.79102"
         x="159.82718"
         y="140.38005"
         transform="rotate(-91.639753)" />
    </clipPath>
    <clipPath
       clipPathUnits="userSpaceOnUse"
       id="clipPath919-0">
      <rect
         style="opacity:0.19200003;fill:#00ff00;fill-opacity:1;stroke:none;stroke-width:5.54963541;stroke-linecap:round;stroke-linejoin:round;stroke-miterlimit:4;stroke-dasharray:none;stroke-opacity:1;paint-order:normal"
         id="rect921-6"
         width="65.748306"
         height="143.79102"
         x="159.82718"
         y="140.38005"
         transform="rotate(-91.639753)" />
    </clipPath>
    <clipPath
       clipPathUnits="userSpaceOnUse"
       id="clipPath919-9-2">
      <rect
         style="opacity:0.19200003;fill:#00ff00;fill-opacity:1;stroke:none;stroke-width:5.54963541;stroke-linecap:round;stroke-linejoin:round;stroke-miterlimit:4;stroke-dasharray:none;stroke-opacity:1;paint-order:normal"
         id="rect921-3-6"
         width="65.748306"
         height="143.79102"
         x="159.82718"
         y="140.38005"
         transform="rotate(-91.639753)" />
    </clipPath>
    <clipPath
       id="clipPath919-7-1"
       clipPathUnits="userSpaceOnUse">
      <rect
         transform="rotate(-91.639753)"
         y="140.38005"
         x="159.82718"
         height="143.79102"
         width="65.748306"
         id="rect921-5-8"
         style="opacity:0.19200003;fill:#00ff00;fill-opacity:1;stroke:none;stroke-width:5.54963541;stroke-linecap:round;stroke-linejoin:round;stroke-miterlimit:4;stroke-dasharray:none;stroke-opacity:1;paint-order:normal" />
    </clipPath>
    <clipPath
       clipPathUnits="userSpaceOnUse"
       id="clipPath876-7">
      <rect
         style="opacity:1;fill:#ff781e;fill-opacity:1;stroke:none;stroke-width:3.96875;stroke-linecap:round;stroke-linejoin:round;stroke-miterlimit:4;stroke-dasharray:none;stroke-opacity:1;paint-order:normal"
         id="rect878-9"
         width="228.51544"
         height="210.07385"
         x="151.54181"
         y="145.19089"
         transform="rotate(-90)" />
    </clipPath>
    <clipPath
       clipPathUnits="userSpaceOnUse"
       id="clipPath919-753-2">
      <rect
         style="opacity:0.19200003;fill:#00ff00;fill-opacity:1;stroke:none;stroke-width:5.54963541;stroke-linecap:round;stroke-linejoin:round;stroke-miterlimit:4;stroke-dasharray:none;stroke-opacity:1;paint-order:normal"
         id="rect921-56-0"
         width="65.748306"
         height="143.79102"
         x="159.82718"
         y="140.38005"
         transform="rotate(-91.639753)" />
    </clipPath>
    <clipPath
       clipPathUnits="userSpaceOnUse"
       id="clipPath919-7-2-2">
      <rect
         style="opacity:0.19200003;fill:#00ff00;fill-opacity:1;stroke:none;stroke-width:5.54963541;stroke-linecap:round;stroke-linejoin:round;stroke-miterlimit:4;stroke-dasharray:none;stroke-opacity:1;paint-order:normal"
         id="rect921-5-9-3"
         width="65.748306"
         height="143.79102"
         x="159.82718"
         y="140.38005"
         transform="rotate(-91.639753)" />
    </clipPath>
    <clipPath
       id="clipPath919-75-7"
       clipPathUnits="userSpaceOnUse">
      <rect
         transform="rotate(-91.639753)"
         y="140.38005"
         x="159.82718"
         height="143.79102"
         width="65.748306"
         id="rect921-3-1"
         style="opacity:0.19200003;fill:#00ff00;fill-opacity:1;stroke:none;stroke-width:5.54963541;stroke-linecap:round;stroke-linejoin:round;stroke-miterlimit:4;stroke-dasharray:none;stroke-opacity:1;paint-order:normal" />
    </clipPath>
  </defs>
  <sodipodi:namedview
     id="base"
     pagecolor="#ffffff"
     bordercolor="#666666"
     borderopacity="1.0"
     inkscape:pageopacity="0.0"
     inkscape:pageshadow="2"
     inkscape:zoom="0.98994949"
     inkscape:cx="463.67116"
     inkscape:cy="275.01628"
     inkscape:document-units="mm"
     inkscape:current-layer="layer1"
     showgrid="false"
     borderlayer="true"
     units="px"
     inkscape:window-width="1920"
     inkscape:window-height="1029"
     inkscape:window-x="1920"
     inkscape:window-y="0"
     inkscape:window-maximized="1"
     inkscape:snap-global="false" />
  <metadata
     id="metadata5">
    <rdf:RDF>
      <cc:Work
         rdf:about="">
        <dc:format>image/svg+xml</dc:format>
        <dc:type
           rdf:resource="http://purl.org/dc/dcmitype/StillImage" />
        <dc:title />
      </cc:Work>
    </rdf:RDF>
  </metadata>
  <g
     inkscape:label="Layer 1"
     inkscape:groupmode="layer"
     id="layer1"
     transform="translate(0,-164.70832)"
     style="display:inline">
    <rect
       style="opacity:1;fill:#000000;fill-opacity:1;stroke:none;stroke-width:7.9375;stroke-linecap:round;stroke-linejoin:round;stroke-miterlimit:4;stroke-dasharray:none;stroke-opacity:1;paint-order:normal"
       id="rect2514"
       width="141.74107"
       height="145.14285"
       x="-4.5357141"
       y="158.28273" />
    <path
       style="color:#000000;font-style:normal;font-variant:normal;font-weight:normal;font-stretch:normal;font-size:medium;line-height:normal;font-family:sans-serif;font-variant-ligatures:normal;font-variant-position:normal;font-variant-caps:normal;font-variant-numeric:normal;font-variant-alternates:normal;font-feature-settings:normal;text-indent:0;text-align:start;text-decoration:none;text-decoration-line:none;text-decoration-style:solid;text-decoration-color:#000000;letter-spacing:normal;word-spacing:normal;text-transform:none;writing-mode:lr-tb;direction:ltr;text-orientation:mixed;dominant-baseline:auto;baseline-shift:baseline;text-anchor:start;white-space:normal;shape-padding:0;clip-rule:nonzero;display:inline;overflow:visible;visibility:visible;opacity:1;isolation:auto;mix-blend-mode:normal;color-interpolation:sRGB;color-interpolation-filters:linearRGB;solid-color:#000000;solid-opacity:1;vector-effect:none;fill:#ffffff;fill-opacity:1;fill-rule:nonzero;stroke:none;stroke-width:4.57560396;stroke-linecap:butt;stroke-linejoin:miter;stroke-miterlimit:4;stroke-dasharray:none;stroke-dashoffset:0;stroke-opacity:1;color-rendering:auto;image-rendering:auto;shape-rendering:auto;text-rendering:auto;enable-background:accumulate"
       d="m 98.11429,170.93824 a 2.2880307,2.2880307 0 0 0 -1.351237,0.48407 l -2.279167,1.7802 c -0.538126,-0.024 -1.077681,-0.0336 -1.61934,-0.0283 l -1.320241,-1.38787 a 2.2880307,2.2880307 0 0 0 -3.001556,-0.27465 l -0.794169,0.57612 -3.286337,2.38491 c -0.302889,0.0924 -0.604208,0.18214 -0.91631,0.28955 -8.606788,2.96207 -13.530412,5.96768 -15.919884,8.56794 -0.59739,0.65006 -1.071301,1.26775 -1.353616,2.14839 -0.28233,0.88063 -0.09565,2.47964 0.893966,3.27769 0.989612,0.79804 1.938928,0.76513 2.761743,0.68038 0.822816,-0.0847 1.643451,-0.32204 2.568119,-0.68872 2.224903,-0.88229 6.126704,-1.75831 10.447034,-1.88565 l -0.416151,0.4388 c 0,0 -2.292957,2.41499 -4.873796,4.79514 -1.290412,1.19008 -2.655558,2.36844 -3.769504,3.18744 -0.556973,0.4095 -1.055013,0.72816 -1.388178,0.90082 -0.01539,0.008 -0.01676,0.004 -0.03157,0.011 -0.268634,-0.20179 -0.665858,-0.55651 -1.11233,-1.02772 -0.92299,-0.97415 -2.034695,-2.37483 -3.069162,-3.78203 -2.068951,-2.81437 -3.848464,-5.64741 -3.848464,-5.64741 l -2.835029,-4.51573 -1.319345,5.16543 c 0,0 -0.810324,3.16431 -1.843054,6.3838 -0.516372,1.60974 -1.092882,3.23434 -1.610108,4.4067 -0.195196,0.44244 -0.355098,0.72344 -0.506703,0.99079 -0.381102,-0.0887 -0.848317,-0.21292 -1.446867,-0.41556 -1.395498,-0.47247 -3.186786,-1.20056 -4.923533,-1.95566 -3.473494,-1.51019 -6.737104,-3.11981 -6.737104,-3.11981 l -4.630709,-2.28423 1.418559,4.96495 c 0,0 0.956591,3.35044 1.774236,6.88158 0.408815,1.76558 0.781468,3.57913 0.97619,4.96852 0.08414,0.60046 0.115473,1.06136 0.128392,1.42749 -0.312164,0.12837 -0.69232,0.27326 -1.221656,0.42897 -1.269456,0.37341 -2.982409,0.75406 -4.667955,1.08104 -3.371091,0.65396 -6.639384,1.10547 -6.639384,1.10547 l -4.625051,0.63719 3.337262,3.26519 c 0,0 2.422447,2.36991 4.800815,4.95273 1.189185,1.29142 2.366335,2.63975 3.182668,3.70755 0.283002,0.37018 0.441592,0.62649 0.616029,0.89635 -0.176588,0.15624 -0.29232,0.2773 -0.547227,0.47157 -0.910331,0.69378 -2.222721,1.53911 -3.537445,2.32622 -2.629447,1.57422 -5.267008,2.93393 -5.267008,2.93393 l -4.330138,2.22942 4.262511,1.81683 c -0.182155,-0.0254 -0.372394,-0.0497 -0.547822,-0.076 -1.817842,-0.27135 -3.370375,-0.6479 -3.71022,-0.78732 -0.940378,-0.3858 -0.751985,-0.63727 -1.936594,-1.76948 -1.184615,-1.13221 -3.189859,-2.10258 -6.903325,-2.54547 -0.873628,-0.1042 -1.691453,-0.1512 -2.461175,-0.14239 -3.7217027,0.0426 -6.5011214,1.69159 -7.7821014,4.00335 -1.2809719,2.31176 -1.282107,4.82253 -1.1713073,6.92775 0.043119,0.8193 0.4184699,1.53432 0.8942698,2.11145 0.06933,1.55364 0.2687175,3.79797 0.8489883,6.47615 a 2.2880307,2.2880307 0 0 0 4.4352973,0.14567 c 0,0 0.2314413,-0.68633 0.3652143,-1.09594 a 2.2880307,2.2880307 0 0 0 2.911884,-0.0897 c 0.01084,0.0199 0.01848,0.039 0.02949,0.059 a 2.2880307,2.2880307 0 0 0 3.610735,0.524 c 0.155216,0.99281 0.359803,2.07875 0.639273,3.22824 a 2.2880307,2.2880307 0 0 0 0.111709,0.33304 c -0.657716,0.83674 -0.990885,1.68577 -1.201096,2.43973 -1.182156,0.4844 -2.232188,1.07198 -3.149897,1.64674 a 2.2880307,2.2880307 0 0 0 -2.572287,0.27286 2.2880307,2.2880307 0 0 0 -3.9300749,0.77571 c 0,0 -0.2443255,0.76555 -0.4298566,1.75488 -0.1855317,0.98933 -0.3821896,2.22454 -0.093837,3.63427 0.7371878,3.60404 5.1106535,7.20297 15.7712405,6.79608 0.303591,-0.0116 0.62759,0.006 0.936275,10e-4 -0.727582,0.42741 -1.570757,0.97372 -2.673577,1.88088 -3.113267,2.56091 -3.222286,6.19643 -3.222286,6.19643 a 2.2880307,2.2880307 0 0 0 1.775133,2.22584 2.2880307,2.2880307 0 0 0 2.807024,2.27053 2.2880307,2.2880307 0 0 0 2.272021,1.20526 c 0,0 0.226736,-0.0215 0.606206,-0.10039 a 2.2880307,2.2880307 0 0 0 2.421852,1.60415 c 0,0 3.515833,-0.2545 5.665879,-3.25327 h -2.9e-4 c 1.712024,-2.3878 2.720151,-4.81329 4.167186,-6.09336 1.125888,-0.99596 3.224168,-2.51833 5.673337,-4.01914 3.1365,0.39623 6.047408,0.67576 8.601006,0.50552 3.304059,-0.22027 7.235189,-0.9531 10.510483,-3.12279 7.88221,2.78196 14.134864,3.6347 19.305113,3.25565 -0.479248,0.97816 -0.882634,1.74369 -1.056324,1.93599 -0.265827,0.29432 -2.158998,1.58948 -3.911302,3.37242 -1.752304,1.78294 -3.50444,4.43875 -3.581539,7.96322 a 2.2880307,2.2880307 0 0 0 2.306272,2.33725 2.2880307,2.2880307 0 0 0 2.738804,2.02328 2.2880307,2.2880307 0 0 0 2.625314,0.99436 c 0,0 0.272065,-0.0767 0.638678,-0.20882 a 2.2880307,2.2880307 0 0 0 2.738209,1.1162 c 0,0 4.049318,-0.98394 5.841047,-4.69239 0.614978,-1.27286 0.925664,-2.05255 1.145385,-2.50525 0.219716,-0.45271 0.319067,-0.62278 0.826946,-1.19991 a 2.2880307,2.2880307 0 0 0 3.06e-4,0 c -0.02611,0.0297 0.652298,-0.57636 1.500475,-1.23773 0.848166,-0.66139 1.936534,-1.49809 3.096573,-2.46714 2.32006,-1.93811 4.94784,-4.37342 6.66709,-7.33437 2.13904,-3.68389 3.24741,-8.23624 3.12041,-12.04343 1.46142,-1.29089 2.95258,-2.70417 4.44543,-4.23362 -0.12053,1.09691 -0.0958,2.29601 0.21686,3.57796 a 2.2880307,2.2880307 0 0 0 3.48205,1.36553 2.2880307,2.2880307 0 0 0 3.83028,0.4665 c 0.0794,0.15312 0.1393,0.30398 0.22788,0.45756 a 2.2880307,2.2880307 0 0 0 3.7734,0.27436 2.2880307,2.2880307 0 0 0 3.42902,-1.18442 c 0,0 1.3002,-3.74212 2.36406,-5.55953 1.3933,-2.38024 2.39296,-4.81674 1.78108,-7.49374 -0.41695,-1.82413 -1.45685,-3.09568 -2.51271,-4.55982 -1.05585,-1.46414 -2.18879,-2.94051 -2.77128,-3.90386 -0.0603,-0.0998 -0.15011,-0.33773 -0.21955,-0.47931 1.06789,-1.76498 1.87106,-3.3403 2.26904,-4.82613 1.84091,-6.8727 -0.66838,-11.77963 -1.24995,-16.0444 -0.56462,-4.14056 1.00995,-8.12962 -1.43226,-21.56164 -1.29255,-7.10905 -6.31547,-13.57575 -13.09439,-17.83711 l -0.96904,-2.43377 a 2.2880307,2.2880307 0 0 0 -2.88029,-1.3134 l -2.15675,0.75396 c -0.75413,-0.28255 -1.52029,-0.53726 -2.29881,-0.76409 l -1.68159,-2.48113 a 2.2880307,2.2880307 0 0 0 -1.950889,-1.0033 z m -8.504796,5.45289 0.629142,0.66162 a 2.2880307,2.2880307 0 0 0 1.761137,0.70868 c 1.029114,-0.0465 2.048815,-0.0314 3.054278,0.045 a 2.2880307,2.2880307 0 0 0 1.581496,-0.47841 l 1.01551,-0.79329 0.766182,1.1305 a 2.2880307,2.2880307 0 0 0 1.314892,0.92972 c 1.173639,0.30684 2.321119,0.68964 3.432589,1.14151 a 2.2880307,2.2880307 0 0 0 1.61636,0.0402 l 0.8615,-0.30117 0.42271,1.06169 a 2.2880307,2.2880307 0 0 0 0.95562,1.11976 c 6.15995,3.66569 10.58841,9.48619 11.62341,15.17874 2.35133,12.93218 0.65739,15.91503 1.40009,21.36145 0.72575,5.32221 2.79173,8.91326 1.36434,14.24217 -0.21952,0.81957 -1.07588,2.59354 -2.36613,4.62446 a 2.2880307,2.2880307 0 0 0 -0.19572,2.07034 c 0.2834,0.71447 0.57892,1.43859 1.0164,2.16209 0.83376,1.37893 1.9888,2.84404 2.97563,4.21248 0.98684,1.36843 1.74439,2.82058 1.76321,2.90294 0.25716,1.12508 -0.0483,2.06537 -1.24041,4.11 a 2.2880307,2.2880307 0 0 0 -3.14692,0.48199 c -0.0454,0.06 -0.0784,0.12457 -0.12214,0.18529 a 2.2880307,2.2880307 0 0 0 -2.61935,-0.57374 2.2880307,2.2880307 0 0 0 -1.40396,-1.14033 c 0.30299,-0.81271 0.51097,-1.73069 0.40305,-2.86392 -0.0596,-0.62579 -0.2243,-1.23768 -0.46441,-1.79271 a 2.2880307,2.2880307 0 0 0 -3.84906,-0.56628 c -3.3604,3.98565 -7.15293,7.93514 -10.47592,10.76398 a 2.2880307,2.2880307 0 0 0 -0.7912,1.99259 c 0.28288,2.56677 -0.68322,7.40491 -2.456705,10.45925 -1.222203,2.1049 -3.496689,4.32698 -5.643243,6.12017 -1.0733,0.89659 -2.109464,1.69373 -2.977131,2.37031 -0.867673,0.67658 -1.496273,1.11251 -2.12157,1.8231 -0.690506,0.78466 -1.163181,1.51338 -1.508517,2.22494 -0.09401,0.19369 -0.225088,0.48804 -0.31279,0.68396 a 2.2880307,2.2880307 0 0 0 -2.163878,-0.66876 2.2880307,2.2880307 0 0 0 -2.501102,-1.49065 2.2880307,2.2880307 0 0 0 -0.926438,-1.38787 c 0.971965,-0.78667 1.982365,-1.4837 2.874944,-2.4719 1.748522,-1.93587 2.594843,-4.66721 3.600011,-6.92626 a 2.2880307,2.2880307 0 0 0 -2.594919,-3.16152 c -5.194241,1.17434 -11.951111,0.94246 -22.223555,-2.85856 a 2.2880307,2.2880307 0 0 0 -2.226733,0.36224 c -2.251503,1.80897 -5.872819,2.67328 -9.013879,2.88269 -2.142175,0.14281 -5.149186,-0.13641 -8.521772,-0.57732 a 2.2880307,2.2880307 0 0 0 -1.465627,0.30177 c -2.941625,1.74872 -5.42383,3.52065 -7.014432,4.92771 -1.762049,1.55874 -2.807575,3.39801 -3.694144,4.9578 a 2.2880307,2.2880307 0 0 0 -1.696191,-0.79031 2.2880307,2.2880307 0 0 0 -2.033994,-1.76351 2.2880307,2.2880307 0 0 0 -0.538884,-1.25114 c 0.644627,-0.34405 1.253212,-0.63458 2.093873,-1.20259 1.233598,-0.83353 2.090181,-1.93849 3.017641,-3.05874 a 2.2880307,2.2880307 0 0 0 -1.566321,-3.73853 c -2.503648,-0.21529 -5.02081,-0.3289 -7.480044,-0.23504 -5.637321,0.21517 -8.470941,-0.996 -9.867926,-1.97919 a 2.2880307,2.2880307 0 0 0 0.930313,-1.14717 2.2880307,2.2880307 0 0 0 0.966656,-0.41467 c 1.054329,-0.78518 3.330487,-2.28617 5.174663,-2.86184 a 2.2880307,2.2880307 0 0 0 0.952952,-0.58416 2.2880307,2.2880307 0 0 0 2.248481,-0.74324 2.2880307,2.2880307 0 0 0 2.320868,-0.30712 2.2880307,2.2880307 0 0 0 1.251138,-0.1001 c 0.839852,-0.31428 1.666221,-0.67742 2.54518,-1.10755 2.314157,-1.13247 3.972707,-3.27629 5.369791,-5.0144 a 2.2880307,2.2880307 0 0 0 0.451292,-1.92378 c -0.209578,-0.95456 -0.367955,-1.95192 -0.466788,-2.67536 a 2.2880307,2.2880307 0 0 0 -1.926466,-1.95267 c -1.421991,-0.21389 -2.935571,-0.18573 -4.335797,-0.21627 -1.400226,-0.0306 -2.70923,-0.1726 -3.084064,-0.30236 -0.352153,-0.1219 -0.675191,-0.26111 -1.013725,-0.4236 a 2.2880307,2.2880307 0 0 0 -2.389976,0.2544 2.2880307,2.2880307 0 0 0 -3.530007,-1.61517 c -0.433835,0.28725 -0.829482,0.59491 -1.205267,0.9047 a 2.2880307,2.2880307 0 0 0 -3.834451,-1.29344 c -0.112979,0.10742 -0.195663,0.22842 -0.302359,0.34019 a 2.2880307,2.2880307 0 0 0 -3.0807875,-1.07896 2.2880307,2.2880307 0 0 0 -0.6777018,-0.87371 c -0.04652,-1.63472 0.1249948,-3.1579 0.6109738,-4.03494 0.5294679,-0.95551 1.2001385,-1.61573 3.8323655,-1.64585 v 3e-4 c 0.544865,-0.006 1.165829,0.0269 1.866584,0.11052 3.217416,0.38373 3.83137,0.87695 4.284267,1.30983 0.452908,0.43286 1.297127,1.84795 3.361098,2.69472 1.277203,0.52398 2.814027,0.78735 4.771622,1.07956 1.957596,0.29221 4.227187,0.53936 6.44994,0.72178 a 2.2880307,2.2880307 0 0 0 1.744144,-0.60382 c 0.231266,-0.21485 0.494272,-0.45111 0.765574,-0.68962 0.903682,0.54064 1.733117,1.08584 2.361683,1.57763 0.489574,0.38306 0.854128,0.73934 1.017599,0.94461 0.03047,0.0383 0.04844,0.0666 0.06136,0.0894 0.139281,0.87547 0.81339,1.61952 1.275281,1.88744 0.516053,0.29935 0.888553,0.36328 1.247264,0.42241 0.717394,0.11826 1.409485,0.11326 2.25861,0.0766 1.698251,-0.0734 3.934989,-0.33851 6.612281,-0.7331 5.354586,-0.78919 12.409023,-2.10546 19.463292,-3.51274 14.10854,-2.81455 28.196872,-5.99296 28.196872,-5.99296 l 1.629151,-0.36701 1.49214,-16.89905 a 2.2880307,2.2880307 0 0 0 0.0405,-0.048 c 3.38447,-4.29032 5.8604,-8.88131 6.65966,-13.47002 0.79928,-4.58873 -0.28924,-9.31216 -3.89582,-12.79144 -5.148274,-4.96659 -11.929195,-6.85315 -18.137087,-7.21492 -3.783975,-0.22051 -7.35923,0.10691 -10.390431,0.71434 2.284813,-1.24849 5.307289,-2.63394 9.163426,-3.96105 0.361759,-0.12451 0.733226,-0.24012 1.115606,-0.35211 a 2.2880307,2.2880307 0 0 0 0.700633,-0.34376 z m -20.205335,8.48036 c 0.01264,-5.8e-4 0.03151,8e-5 0.0563,0.005 0.0035,5.8e-4 0.01199,0.005 0.01579,0.006 -0.0035,4.1e-4 -0.01358,0.003 -0.01698,0.003 -0.07572,0.008 -0.09304,-0.0111 -0.0551,-0.0137 z m 16.904704,2.05276 c 5.377313,0.36331 10.879843,2.02797 14.913317,5.9191 1.05727,1.01994 1.78419,2.1027 2.22882,3.27262 l -3.3477,1.50167 c 0,0 -2.702822,1.20917 -5.646231,2.24402 -1.471698,0.51742 -3.00498,0.98574 -4.188336,1.22701 -0.602245,0.12278 -1.128363,0.0945 -1.421841,0.0846 -0.148005,-0.30163 -0.330112,-0.75097 -0.507891,-1.33188 -0.382932,-1.25128 -0.738322,-2.94969 -1.019978,-4.61849 -0.563334,-3.3376 -0.853457,-6.55152 -0.853457,-6.55152 z m -22.963504,5.33523 c 0.568183,0.83025 0.570852,0.91152 1.250832,1.83649 1.097291,1.49263 2.278392,2.99897 3.434098,4.21874 0.577853,0.60988 1.143672,1.14991 1.762019,1.60414 0.618332,0.45423 1.262699,0.92578 2.419473,0.97172 1.078027,0.0428 1.722425,-0.29853 2.389075,-0.64404 0.666681,-0.34551 1.316935,-0.77772 1.994094,-1.27557 1.354287,-0.99571 2.799293,-2.2566 4.160048,-3.51154 0.940118,-0.86703 0.985752,-0.9684 1.75874,-1.73044 0.131808,1.00784 0.09758,1.09289 0.293723,2.25503 0.300236,1.77886 0.670158,3.612 1.155218,5.19701 0.242522,0.79249 0.508731,1.52159 0.861203,2.20111 0.352473,0.67953 0.738109,1.37699 1.69232,1.93093 1.796288,1.04275 3.126709,0.57285 4.666747,0.25886 1.54006,-0.31398 3.207788,-0.83689 4.791878,-1.39383 0.946295,-0.3327 0.972472,-0.38966 1.79242,-0.71255 -0.451444,2.43942 -0.764983,5.59018 -0.442676,8.73565 l -0.05927,0.66966 -0.170106,0.0596 a 2.2880307,2.2880307 0 0 0 -1.473071,1.64079 l -0.374741,1.6098 c -1.067916,1.12811 -2.206447,2.22008 -3.39566,3.27174 l -3.923519,-0.34735 a 2.2880307,2.2880307 0 0 0 -2.266358,1.29315 l -2.583905,5.41178 c -0.766948,0.45632 -1.542756,0.89692 -2.324437,1.32502 l -5.666779,-0.9604 a 2.2880307,2.2880307 0 0 0 -2.278864,0.97619 l -3.584223,5.31258 c -0.345184,0.13448 -0.686219,0.26533 -1.024448,0.39352 l -4.45615,-1.31161 a 2.2880307,2.2880307 0 0 0 -2.316399,0.63123 l -3.468643,3.70665 c -0.556241,-0.81355 -1.244809,-1.55531 -2.395939,-2.07332 -1.498998,-0.67455 -2.980564,-0.71802 -4.621177,-0.74979 -1.640613,-0.0318 -3.196959,0.0458 -4.521688,0.39143 -0.474521,0.12379 -0.899213,0.30527 -1.26157,0.49479 -0.323541,-0.42587 -0.693357,-0.84952 -1.400379,-1.22552 -2.03047,-1.0798 -4.139518,-1.04028 -6.018887,-0.73996 -0.982626,0.15702 -1.638721,0.50287 -2.229417,0.91512 -0.348402,-0.16285 -0.648683,-0.28948 -1.204665,-0.55735 0.742316,-0.41627 0.803568,-0.41321 1.623501,-0.9041 1.394811,-0.83505 2.804144,-1.7314 3.961054,-2.6131 0.578448,-0.44085 1.093204,-0.87103 1.55023,-1.36136 0.456996,-0.49032 1.005535,-0.96555 1.12691,-2.20677 0.126638,-1.2951 -0.304415,-1.78568 -0.642842,-2.3879 -0.338427,-0.60222 -0.756377,-1.19572 -1.24191,-1.83084 -0.97108,-1.27023 -2.212045,-2.6797 -3.452857,-4.02718 -0.943856,-1.025 -1.081292,-1.11969 -1.889222,-1.94881 1.090031,-0.17919 1.230182,-0.16943 2.521952,-0.42002 1.763468,-0.3421 3.567125,-0.73621 5.086774,-1.18322 0.759825,-0.22351 1.445159,-0.45521 2.073618,-0.74205 0.628475,-0.28684 1.254051,-0.46516 1.907402,-1.49392 0.67025,-1.05537 0.549637,-1.67896 0.546037,-2.38254 -0.0035,-0.70357 -0.0793,-1.44845 -0.19364,-2.26426 -0.228658,-1.63163 -0.622754,-3.5271 -1.04827,-5.36472 -0.284222,-1.22745 -0.340532,-1.31898 -0.61246,-2.3733 1.086371,0.50498 1.203811,0.59438 2.50406,1.15969 1.800973,0.78302 3.666325,1.54731 5.281605,2.09418 0.807654,0.27343 1.54692,0.49324 2.249382,0.6348 0.702446,0.14157 1.274412,0.38523 2.453423,-0.0575 1.191701,-0.44749 1.503635,-1.09593 1.885652,-1.68517 0.382017,-0.58925 0.700418,-1.23517 1.017889,-1.95476 0.634942,-1.43919 1.237915,-3.1626 1.7811,-4.85592 0.312162,-0.97316 0.295187,-1.0325 0.551696,-1.91067 z m 40.595081,5.91194 c 0.11634,1.05434 0.0569,2.17797 -0.15342,3.38553 -0.29464,1.69154 -0.93834,3.51505 -1.87076,5.38706 0.38599,-3.54695 1.3003,-6.53543 1.3003,-6.53543 z m -7.429413,23.23847 -0.671436,7.5986 c -1.316604,0.29592 -10.659725,2.40277 -21.942646,4.70966 l 1.879399,-2.78559 5.016783,0.85049 a 2.2880307,2.2880307 0 0 0 1.462333,-0.23891 c 1.2652,-0.67757 2.525199,-1.3927 3.767141,-2.1475 a 2.2880307,2.2880307 0 0 0 0.876089,-0.96933 l 2.207975,-4.62417 3.336072,0.29551 a 2.2880307,2.2880307 0 0 0 1.687558,-0.53948 c 0.815204,-0.69641 1.609408,-1.41426 2.380732,-2.14928 z m -46.167125,16.22343 c 0.170182,-0.002 0.340455,-0.002 0.508502,0.002 0.526698,0.0102 1.065978,0.063 1.533239,0.12452 -0.775198,0.12405 -1.527138,0.24124 -2.238934,0.34615 -1.385966,0.20427 -2.641801,0.36757 -3.726921,0.48616 0.274383,-0.18279 0.479859,-0.34447 0.61008,-0.44028 0.262213,-0.19293 0.221612,-0.18833 0.544543,-0.27257 0.391184,-0.10205 1.578202,-0.23225 2.769491,-0.24576 z m -10.951662,3.03253 c 1.99e-4,0.0553 0.0036,0.10995 0.0083,0.16444 -0.0046,-0.0463 -0.0081,-0.0988 -0.0083,-0.16444 z m -15.903198,7.04393 3.05e-4,3e-4 c 1.281856,0.3249 2.553401,0.34916 3.821636,0.37683 0.751635,0.0164 1.492593,0.0284 2.150183,0.0512 0.0023,0.0116 0.0033,0.0215 0.0057,0.0331 -1.214502,1.37886 -2.690791,2.78442 -3.159439,3.01376 -0.21452,0.10499 -0.389018,0.16444 -0.591016,0.25768 6.1e-5,1e-4 -0.0015,-0.003 -0.0015,-0.003 h -0.0024 a 2.2880307,2.2880307 0 0 0 -2.076593,-1.33217 c 0,0 -0.05265,0.0902 -0.0557,0.0953 a 2.2880307,2.2880307 0 0 0 -0.875511,-0.66697 c 0.238587,-0.57578 0.505604,-1.20395 0.78435,-1.82608 z"
       id="path2327"
       inkscape:connector-curvature="0" />
    <path
       style="color:#000000;font-style:normal;font-variant:normal;font-weight:normal;font-stretch:normal;font-size:medium;line-height:normal;font-family:sans-serif;font-variant-ligatures:normal;font-variant-position:normal;font-variant-caps:normal;font-variant-numeric:normal;font-variant-alternates:normal;font-feature-settings:normal;text-indent:0;text-align:start;text-decoration:none;text-decoration-line:none;text-decoration-style:solid;text-decoration-color:#000000;letter-spacing:normal;word-spacing:normal;text-transform:none;writing-mode:lr-tb;direction:ltr;text-orientation:mixed;dominant-baseline:auto;baseline-shift:baseline;text-anchor:start;white-space:normal;shape-padding:0;clip-rule:nonzero;display:inline;overflow:visible;visibility:visible;opacity:1;isolation:auto;mix-blend-mode:normal;color-interpolation:sRGB;color-interpolation-filters:linearRGB;solid-color:#000000;solid-opacity:1;vector-effect:none;fill:#000000;fill-opacity:1;fill-rule:nonzero;stroke:none;stroke-width:2.11705613;stroke-linecap:butt;stroke-linejoin:miter;stroke-miterlimit:4;stroke-dasharray:none;stroke-dashoffset:0;stroke-opacity:1;color-rendering:auto;image-rendering:auto;shape-rendering:auto;text-rendering:auto;enable-background:accumulate"
       d="m 62.081622,184.3021 -0.611358,2.39026 c 0,0 -0.816207,3.19144 -1.863341,6.45583 -0.523571,1.63221 -1.10621,3.28315 -1.655058,4.5272 -0.274421,0.62202 -0.544068,1.14334 -0.7656,1.48504 -0.221531,0.3417 -0.457214,0.44994 -0.254452,0.3738 0.196899,-0.0739 -0.145002,0.003 -0.614731,-0.0912 -0.469735,-0.0947 -1.110175,-0.27844 -1.837447,-0.52466 -1.454549,-0.49246 -3.266333,-1.23023 -5.020333,-1.99283 -3.507999,-1.52519 -6.791349,-3.14459 -6.791349,-3.14459 l -2.142564,-1.05722 0.657521,2.29794 c 0,0 0.96243,3.37123 1.789036,6.9411 0.4133,1.78492 0.791437,3.62102 0.995283,5.07549 0.101917,0.72724 0.159804,1.36125 0.162127,1.81605 0.0023,0.45481 -0.137565,0.74843 -0.02479,0.57083 0.104978,-0.1653 -0.08126,0.0661 -0.471747,0.24432 -0.390484,0.17822 -0.960822,0.37873 -1.629157,0.57532 -1.336676,0.3932 -3.072909,0.77796 -4.779392,1.109 -3.41296,0.66209 -6.706905,1.11576 -6.706905,1.11576 l -2.139186,0.29498 1.543588,1.51094 c 0,0 2.438585,2.38598 4.844693,4.99894 1.203054,1.30648 2.398164,2.67092 3.256066,3.79311 0.428951,0.5611 0.773181,1.06458 0.9829,1.43776 0.209714,0.37318 0.205304,0.67261 0.229677,0.42333 0.02196,-0.22435 1.61e-4,-0.0123 -0.244319,0.24995 -0.244474,0.2623 -0.6421,0.60964 -1.130386,0.98177 -0.976576,0.74427 -2.315016,1.60378 -3.651254,2.40377 -2.672475,1.59998 -5.336702,2.97122 -5.336702,2.97122 l -2.002953,1.03131 2.072756,0.88382 c 0,0 3.04238,1.29867 6.065156,2.94644 1.511387,0.82389 3.016272,1.73904 4.090345,2.57941 0.537036,0.42018 0.964511,0.82445 1.221586,1.14728 0.257082,0.32283 0.302881,0.54058 0.302864,0.53705 0.0017,0.51534 0.392888,0.96986 0.689047,1.14164 0.296153,0.17179 0.554041,0.22683 0.8309,0.27247 0.553725,0.0913 1.198627,0.0968 2.005207,0.0619 1.613161,-0.0697 3.830739,-0.32901 6.487356,-0.72056 5.313246,-0.78309 12.357083,-2.09737 19.401282,-3.50264 14.088404,-2.81053 28.166311,-5.98633 28.166311,-5.98633 l 0.754348,-0.17002 1.713603,-19.40015 -0.0146,-0.11146 c -0.695549,-5.61005 1.39047,-12.21475 1.39047,-12.21475 l 0.73408,-2.26641 -2.17409,0.97502 c 0,0 -2.738237,1.22609 -5.742018,2.28217 -1.501893,0.52804 -3.070119,1.01146 -4.349305,1.27225 -1.279181,0.2608 -2.30765,0.1311 -2.318199,0.12498 0.0207,0.012 -0.195769,-0.18011 -0.401944,-0.57758 -0.206175,-0.39748 -0.426438,-0.96883 -0.631621,-1.63929 -0.410366,-1.34094 -0.769427,-3.07652 -1.056081,-4.77489 -0.573306,-3.39675 -0.865805,-6.64611 -0.865805,-6.64611 l -0.209414,-2.33509 -1.612273,1.70122 c 0,0 -2.313892,2.43756 -4.93251,4.85257 -1.309305,1.2075 -2.69566,2.40873 -3.874174,3.2752 -0.589263,0.43324 -1.128715,0.78181 -1.551474,1.00092 -0.42276,0.2191 -0.748042,0.27011 -0.71719,0.27133 0.06728,0.003 -0.208797,-0.0594 -0.570822,-0.32537 -0.36203,-0.26595 -0.821159,-0.68801 -1.313912,-1.20809 -0.985511,-1.04013 -2.115771,-2.46879 -3.167119,-3.89894 -2.102703,-2.86029 -3.900075,-5.72288 -3.900075,-5.72288 z m 0.807261,5.10702 c 0.693647,1.07009 1.235376,1.97067 2.69762,3.95975 1.080414,1.46968 2.242822,2.9467 3.336003,4.10048 0.546594,0.57689 1.07345,1.07296 1.597637,1.45802 0.524181,0.38507 1.033507,0.70713 1.74062,0.73521 0.670681,0.0266 1.19733,-0.20758 1.774395,-0.50665 0.577071,-0.29908 1.185835,-0.70131 1.830697,-1.17543 1.289718,-0.94823 2.714718,-2.18631 4.056565,-3.42382 1.861249,-1.71653 2.622912,-2.54351 3.49025,-3.43508 0.127886,1.21804 0.202935,2.26465 0.606856,4.65779 0.295249,1.7493 0.66151,3.54638 1.119128,5.04173 0.228812,0.74767 0.478128,1.41915 0.776864,1.99507 0.298736,0.57591 0.622121,1.08721 1.218209,1.43325 1.140301,0.66195 2.359029,0.41266 3.803248,0.11822 1.444219,-0.29445 3.075757,-0.8025 4.629646,-1.34881 2.082723,-0.73226 2.901905,-1.12226 3.95749,-1.57399 -0.587366,2.16343 -1.504614,6.15855 -0.97389,10.85016 l -1.566111,17.7271 c -0.723352,0.16289 -13.685192,3.08669 -27.362428,5.8152 -7.026854,1.40181 -14.054526,2.71089 -19.296575,3.48349 -2.621021,0.3863 -4.802311,0.63803 -6.268937,0.70143 -0.685439,0.0296 -1.177679,0.005 -1.46703,-0.0338 -0.132838,-0.4327 -0.33387,-0.83202 -0.613606,-1.18331 -0.418304,-0.52529 -0.954095,-1.01217 -1.572866,-1.4963 -1.237538,-0.96827 -2.81384,-1.916 -4.38195,-2.77081 -2.19531,-1.1967 -3.261255,-1.62708 -4.37407,-2.12455 1.003549,-0.53333 1.812112,-0.93295 3.650124,-2.03335 1.373292,-0.82217 2.75537,-1.70541 3.846032,-2.53662 0.545331,-0.41561 1.018289,-0.81503 1.397221,-1.22159 0.378938,-0.40656 0.732904,-0.78446 0.801634,-1.4873 0.07116,-0.72777 -0.198617,-1.14823 -0.489761,-1.66631 -0.291144,-0.51808 -0.682527,-1.07865 -1.147276,-1.68658 -0.929503,-1.21585 -2.152975,-2.60931 -3.379917,-3.94172 -1.743849,-1.89378 -2.630833,-2.74459 -3.498125,-3.60847 1.193721,-0.17646 2.347724,-0.32351 4.800778,-0.79938 1.742534,-0.33804 3.521731,-0.72905 4.97417,-1.15629 0.726217,-0.21362 1.368456,-0.43423 1.909504,-0.68116 0.541043,-0.24694 1.005555,-0.44456 1.380337,-1.03469 0.382592,-0.60244 0.357782,-1.10479 0.354652,-1.71698 -0.0029,-0.61219 -0.07149,-1.31538 -0.181266,-2.09865 -0.219549,-1.56655 -0.609162,-3.44075 -1.030187,-5.25902 -0.580483,-2.50692 -0.909247,-3.60853 -1.253113,-4.85707 1.195871,0.57704 2.328154,1.14903 4.833434,2.23826 1.783711,0.77551 3.629591,1.53011 5.185833,2.05699 0.778121,0.26344 1.481688,0.47127 2.098656,0.5956 0.616961,0.12433 1.103073,0.24955 1.776648,-0.003 0.679444,-0.25514 0.963826,-0.70526 1.286888,-1.20358 0.323062,-0.49831 0.623821,-1.09852 0.92548,-1.78227 0.603316,-1.36751 1.199018,-3.06462 1.734988,-4.73548 0.714688,-2.228 0.941246,-3.17899 1.265501,-4.38533 z"
       id="path1432"
       inkscape:connector-curvature="0" />
    <path
       sodipodi:nodetypes="cccscscccsccccc"
       inkscape:connector-curvature="0"
       id="path1266"
       d="m 101.0393,199.70464 c 0,0 -2.17241,6.71311 -1.433736,12.67101 l -1.635798,18.51893 c 0,0 -56.278902,12.69395 -56.289544,9.76267 -0.01061,-2.93129 -12.323296,-8.1804 -12.323296,-8.1804 0,0 10.744527,-5.53167 10.93169,-7.44564 0.187146,-1.91394 -9.626402,-11.51256 -9.626402,-11.51256 0,0 13.256448,-1.82666 14.335657,-3.52597 1.079214,-1.69934 -2.797693,-15.26246 -2.797693,-15.26246 0,0 13.197489,6.51042 15.104197,5.79444 1.90672,-0.71598 5.19151,-13.57026 5.19151,-13.57026 0,0 7.247394,11.54847 9.806723,11.65011 2.559323,0.10162 11.884286,-9.72926 11.884286,-9.72926 0,0 1.176773,13.12263 3.478439,14.45877 2.301694,1.33614 13.373967,-3.62938 13.373967,-3.62938 z"
       style="opacity:1;fill:#e2610c;fill-opacity:1;stroke:none;stroke-width:0.21334758px;stroke-linecap:butt;stroke-linejoin:miter;stroke-opacity:1" />
    <ellipse
       transform="rotate(83.882968)"
       ry="24.230188"
       rx="20.725195"
       cy="-46.531891"
       cx="232.85718"
       id="ellipse1268"
       style="opacity:1;fill:#f1d400;fill-opacity:1;stroke:none;stroke-width:3.41356111;stroke-linecap:round;stroke-linejoin:round;stroke-miterlimit:4;stroke-dasharray:none;stroke-opacity:1;paint-order:normal" />
    <path
       style="color:#000000;font-style:normal;font-variant:normal;font-weight:normal;font-stretch:normal;font-size:medium;line-height:normal;font-family:sans-serif;font-variant-ligatures:normal;font-variant-position:normal;font-variant-caps:normal;font-variant-numeric:normal;font-variant-alternates:normal;font-feature-settings:normal;text-indent:0;text-align:start;text-decoration:none;text-decoration-line:none;text-decoration-style:solid;text-decoration-color:#000000;letter-spacing:normal;word-spacing:normal;text-transform:none;writing-mode:lr-tb;direction:ltr;text-orientation:mixed;dominant-baseline:auto;baseline-shift:baseline;text-anchor:start;white-space:normal;shape-padding:0;clip-rule:nonzero;display:inline;overflow:visible;visibility:visible;opacity:1;isolation:auto;mix-blend-mode:normal;color-interpolation:sRGB;color-interpolation-filters:linearRGB;solid-color:#000000;solid-opacity:1;vector-effect:none;fill:#000000;fill-opacity:1;fill-rule:nonzero;stroke:none;stroke-width:2.28780198;stroke-linecap:butt;stroke-linejoin:round;stroke-miterlimit:4;stroke-dasharray:none;stroke-dashoffset:0;stroke-opacity:1;color-rendering:auto;image-rendering:auto;shape-rendering:auto;text-rendering:auto;enable-background:accumulate"
       d="m 98.143774,172.08173 a 1.1440154,1.1440154 0 0 0 -0.676659,0.24206 l -2.627817,2.05362 c -0.809791,-0.0478 -1.625134,-0.0575 -2.444304,-0.036 l -1.679821,-1.76651 a 1.1440154,1.1440154 0 0 0 -1.50081,-0.13736 l -0.793748,0.57645 -3.435079,2.49272 c -0.353014,0.10548 -0.707666,0.21397 -1.067345,0.33776 -7.855477,2.70351 -12.586182,5.52196 -14.922498,7.72809 -0.584081,0.55153 -1.023143,1.06391 -1.329672,1.58862 -0.306529,0.52472 -0.540305,1.10637 -0.360284,1.80592 0.180015,0.69955 0.886177,1.18424 1.478288,1.3004 0.59211,0.11618 1.178894,0.0476 1.854337,-0.11596 a 1.1440154,1.1440154 0 0 0 0.02023,-0.006 c 0.0092,-0.002 0.01591,-0.003 0.01914,-0.005 0.08944,-0.0221 0.180107,-0.0459 0.272461,-0.072 l 0.0023,-0.001 c 0.03349,-0.009 0.0602,-0.0171 0.07881,-0.0225 0.07863,-0.0229 0.157769,-0.0466 0.237562,-0.072 0.03234,-0.0103 0.07067,-0.0225 0.114835,-0.0372 0.08119,-0.0269 0.1615,-0.0551 0.240941,-0.0833 0.02052,-0.007 0.05217,-0.0183 0.09458,-0.0338 0.113872,-0.0416 0.232749,-0.0863 0.355776,-0.1351 3.31838,-1.31591 9.701439,-2.51185 16.119321,-1.73162 0.177686,0.0216 0.35611,0.0439 0.534799,0.0687 0.178551,0.0247 0.356946,0.0511 0.534794,0.0788 2.138834,0.33331 4.267431,0.89222 6.284703,1.73274 0.672342,0.28015 1.332664,0.5918 1.977053,0.93673 1.449863,0.77612 2.819343,1.72142 4.074583,2.86313 0.13934,0.12675 0.27765,0.25547 0.41433,0.38731 0.1149,0.11084 0.22841,0.22714 0.3434,0.3479 a 1.1440154,1.1440154 0 0 0 0.001,0 c 0.0272,0.0285 0.0477,0.0502 0.0608,0.0642 0.10509,0.11213 0.20622,0.22525 0.30511,0.34002 0.0165,0.0191 0.0363,0.0423 0.0597,0.0698 0.10329,0.12196 0.20114,0.24041 0.29048,0.35578 4.7e-4,5.7e-4 5.7e-4,0.002 0.001,0.002 a 1.1440154,1.1440154 0 0 0 0.002,0.002 c 0.089,0.11511 0.17687,0.23708 0.26684,0.36478 0.021,0.0298 0.0382,0.0533 0.0495,0.0698 a 1.1440154,1.1440154 0 0 0 0,0.001 c 0.0823,0.11902 0.16116,0.23831 0.23644,0.35803 0.0109,0.0175 0.0254,0.0405 0.0428,0.0687 a 1.1440154,1.1440154 0 0 0 0.001,10e-4 c 0.0762,0.12346 0.1473,0.24536 0.21392,0.36478 l -0.0124,-0.0248 c 0.0394,0.0748 0.0488,0.0874 0.0259,0.0462 0.0659,0.11892 0.13009,0.24386 0.19478,0.3738 0.0188,0.0377 0.0334,0.0662 0.0428,0.0856 a 1.1440154,1.1440154 0 0 0 0,0.001 c 0.0585,0.1205 0.11439,0.2417 0.16776,0.36479 0.01,0.0226 0.0227,0.0537 0.0394,0.0935 0.0514,0.122 0.0991,0.24179 0.14299,0.35916 l -0.005,-0.0147 c 0.0211,0.0587 0.0285,0.0761 0.0203,0.054 0.044,0.11946 0.0863,0.24731 0.12947,0.38167 0.0135,0.042 0.0251,0.0757 0.0326,0.1002 0.0396,0.12802 0.0767,0.25565 0.11033,0.38281 a 1.1440154,1.1440154 0 0 0 0,0.001 c 0.004,0.016 0.0119,0.045 0.0225,0.0867 0.033,0.12945 0.0632,0.25665 0.0901,0.3828 0.006,0.027 0.0126,0.0575 0.009,0.0405 0.0262,0.12532 0.0498,0.25845 0.0732,0.39744 0.007,0.0436 0.0138,0.0827 0.0191,0.11709 0.02,0.12763 0.0378,0.25502 0.0529,0.38168 a 1.1440154,1.1440154 0 0 0 0,0.001 c 0.004,0.0325 0.009,0.0755 0.0146,0.12835 0.0121,0.11337 0.0218,0.22666 0.0304,0.34002 a 1.1440154,1.1440154 0 0 0 0,0.003 c 0.003,0.0442 0.007,0.0779 0.009,0.10133 l -10e-4,-0.003 c 0.008,0.12391 0.0147,0.25176 0.0191,0.38506 a 1.1440154,1.1440154 0 0 0 0,0.001 c 0.001,0.0421 0.002,0.0888 0.003,0.13961 0.003,0.12947 0.004,0.25606 0.002,0.38055 a 1.1440154,1.1440154 0 0 0 0,0.0146 c 0,0.0252 -0.002,0.0732 -0.003,0.14524 -0.003,0.10719 -0.006,0.21137 -0.0112,0.31412 -0.003,0.0583 -0.005,0.11274 -0.008,0.16326 -0.007,0.1176 -0.0165,0.23652 -0.027,0.35803 a 1.1440154,1.1440154 0 0 0 -10e-4,0.007 c -0.004,0.0513 -0.008,0.10037 -0.0124,0.14862 a 1.1440154,1.1440154 0 0 0 -0.001,0.002 c -0.002,0.0259 -0.009,0.0758 -0.0169,0.14749 -0.0175,0.16014 -0.037,0.31797 -0.0597,0.47625 -0.006,0.0425 -0.0135,0.0905 -0.0214,0.14299 -0.0247,0.16159 -0.0519,0.32447 -0.0822,0.4875 a 1.1440154,1.1440154 0 0 0 0,0.002 c -0.009,0.0463 -0.0156,0.0838 -0.0214,0.11371 -0.0374,0.1936 -0.0778,0.38474 -0.12159,0.57533 a 1.1440154,1.1440154 0 0 0 -0.008,0.0315 c -0.0993,0.42801 -0.21702,0.86039 -0.35239,1.29703 -0.002,0.006 -0.008,0.0231 -0.018,0.0563 -0.0603,0.19266 -0.12421,0.38569 -0.1914,0.57983 a 1.1440154,1.1440154 0 0 0 0,0.001 c -0.0108,0.0312 -0.0226,0.0666 -0.036,0.10471 -0.0675,0.19165 -0.13819,0.3826 -0.21167,0.5742 a 1.1440154,1.1440154 0 0 0 0,0.001 c -0.0113,0.0295 -0.0198,0.0502 -0.0248,0.0631 -0.25663,0.6632 -0.55056,1.33257 -0.88045,2.0052 a 1.1440154,1.1440154 0 0 0 0,0.001 c -10e-4,0.003 -0.009,0.0162 -0.0214,0.0417 -0.10556,0.21431 -0.21412,0.42851 -0.32651,0.64289 a 1.1440154,1.1440154 0 0 0 -0.002,0.003 c -3.2e-4,5.7e-4 -0.003,0.008 -0.0102,0.0214 a 1.1440154,1.1440154 0 0 0 -0.003,0.005 c -0.11824,0.225 -0.23894,0.44975 -0.36366,0.67328 l 0.0248,-0.027 c -0.0316,0.0538 -0.0553,0.095 -0.0766,0.13961 0.0117,-0.0284 0.0249,-0.0632 0.0248,-0.063 l 0.0248,-0.0462 c -0.51176,0.91681 -1.0853,1.83571 -1.7136,2.75054 -0.4508,0.65637 -0.940106,1.30883 -1.444515,1.95792 l -1.656176,0.57983 a 1.1440154,1.1440154 0 0 0 -0.736333,0.81965 l -0.444723,1.90725 c -1.264677,1.35221 -2.631593,2.65413 -4.062202,3.89669 l -4.401089,-0.38955 a 1.1440154,1.1440154 0 0 0 -1.133769,0.64625 l -2.738157,5.73527 c -0.985437,0.59266 -1.984316,1.1604 -2.99148,1.70572 l -6.068527,-1.02906 a 1.1440154,1.1440154 0 0 0 -1.139402,0.48751 l -3.786358,5.61142 c -0.584167,0.22967 -1.158171,0.45008 -1.722606,0.66202 l -4.827802,-1.42087 a 1.1440154,1.1440154 0 0 0 -1.15741,0.31525 l -4.136508,4.4191 c -0.203194,0.0565 -0.359085,0.098 -0.537047,0.14637 -0.666693,-1.12338 -1.35484,-2.15705 -2.496093,-2.6706 -1.134669,-0.51061 -2.607099,-0.6193 -4.173665,-0.64964 -1.56656,-0.0303 -3.105502,0.0663 -4.210812,0.35466 -0.776576,0.20258 -1.333984,0.55017 -1.712478,0.82865 -0.06165,0.0454 -0.108224,0.0633 -0.162128,0.10358 -0.102038,-0.16011 -0.178608,-0.32089 -0.289351,-0.47512 -0.353366,-0.49214 -0.706687,-0.95633 -1.32404,-1.28464 -1.574279,-0.83719 -3.664415,-0.88201 -5.301803,-0.62036 -1.033634,0.16516 -1.799269,0.75422 -2.664976,1.40848 -0.714798,0.54022 -1.367978,1.13145 -1.961293,1.67082 -2.005893,-0.17288 -4.050379,-0.38893 -5.766794,-0.64514 -1.852781,-0.27656 -3.401304,-0.62461 -3.975504,-0.86017 -1.221264,-0.50104 -1.290623,-1.04333 -2.292304,-2.0007 -1.001687,-0.95738 -2.659223,-1.80904 -6.248675,-2.23714 -0.830406,-0.099 -1.599055,-0.14214 -2.312573,-0.13399 -3.4493277,0.0395 -5.7016259,1.441 -6.7947211,3.4137 -1.093101,1.97269 -1.1358393,4.28406 -1.0290627,6.31284 0.03649,0.69312 0.4267893,1.23516 0.8894513,1.67532 0.043061,1.48359 0.1983982,3.8165 0.8297768,6.73055 a 1.1440154,1.1440154 0 0 0 2.2168693,0.0732 c 0,0 0.5516088,-1.64744 1.1956924,-3.31123 0.242583,0.46851 0.374148,0.86054 0.73408,1.37696 a 1.1440154,1.1440154 0 0 0 1.957914,-0.1351 c 0,0 0.324659,-0.57687 0.756596,-1.25312 0.210147,0.62969 0.353689,1.21155 0.764482,1.95905 a 1.1440154,1.1440154 0 0 0 1.920762,0.13173 c 0,0 0.66015,-0.74939 1.521072,-1.58863 0.135836,1.41724 0.39656,3.34784 0.9176,5.49095 a 1.1440154,1.1440154 0 0 0 2.181965,0.13173 c 0,0 1.145604,-2.80849 2.163956,-4.98543 0.09898,0.0374 0.178298,0.0814 0.281471,0.11709 1.223368,0.42348 2.667795,0.45895 4.132006,0.49089 1.173383,0.0256 2.207767,0.0669 3.125458,0.14299 0.166694,1.0795 0.344841,2.29009 0.705932,3.50376 a 1.1440154,1.1440154 0 0 0 2.033355,0.32988 c 0,0 0.24614,-0.3275 0.604597,-0.72957 0.06215,0.81245 0.103813,1.60355 0.319753,2.73365 a 1.1440154,1.1440154 0 0 0 2.138062,0.31412 c 0,0 0.463233,-0.73287 1.054957,-1.54021 0.11683,0.5213 0.189947,0.60114 0.261203,1.20357 a 1.1440154,1.1440154 0 0 0 1.975929,0.64176 c 0,0 1.173741,-1.34656 2.167334,-3.10858 0.920407,-0.13172 1.963927,-0.36836 3.004992,-0.61135 -0.294095,2.1028 -0.892092,4.70308 -2.417279,7.85193 -0.213882,0.081 -0.422443,0.16828 -0.649635,0.23644 -0.824462,0.24733 -1.388932,0.30247 -2.024346,0.40982 -0.05176,-1.15927 -0.197032,-2.03223 -0.197032,-2.03223 a 1.1440154,1.1440154 0 0 0 -2.124544,-0.17 c -0.07321,-0.63238 -0.174516,-1.18444 -0.174516,-1.18444 a 1.1440154,1.1440154 0 0 0 -2.09978,-0.30961 c -0.600376,1.02921 -1.107131,1.69971 -1.555976,2.23601 -0.195579,-0.64527 -0.39969,-1.06284 -0.39969,-1.06284 a 1.1440154,1.1440154 0 0 0 -2.08289,0.0372 c -0.596647,1.3749 -1.29558,2.34035 -1.837447,2.98361 -0.977989,0.2952 -1.823641,0.63884 -2.488206,0.91759 -0.779188,0.32683 -1.442848,0.56503 -2.472446,0.64851 -2.208984,0.1791 -2.971817,0.22542 -4.420233,0.15763 0.124618,-0.59271 0.257226,-1.24678 0.238687,-2.02547 a 1.1440154,1.1440154 0 0 0 -2.064876,-0.65077 c 0,0 -0.610476,0.69484 -1.312787,1.40173 -0.0509,-0.37456 -0.127224,-0.6721 -0.127224,-1.14728 A 1.1440154,1.1440154 0 0 0 14.50487,257.3736 c 0,0 -0.440953,0.51183 -0.946872,1.16304 -0.0064,0.008 -0.01159,0.0188 -0.01798,0.027 -0.118715,-0.38569 -0.223462,-0.55483 -0.276963,-0.86693 a 1.1440154,1.1440154 0 0 0 -2.045737,-0.48864 c 0,0 -0.313937,0.44391 -0.68567,1.0831 -0.196046,-0.34287 -0.41232,-0.6403 -0.5483053,-1.03919 a 1.1440154,1.1440154 0 0 0 -2.1729608,0.0214 c 0,0 -0.2229609,0.70067 -0.3951881,1.61903 -0.1722214,0.91835 -0.3287921,2.06559 -0.097951,3.19414 0.5419186,2.6494 4.2312192,6.27878 14.6072592,5.88276 1.495125,-0.0571 3.088456,0.0646 4.661167,0.14861 -0.02162,0.0214 -0.05084,0.0593 -0.07206,0.0799 -0.259116,0.2527 -0.496275,0.45178 -0.612482,0.5303 a 1.1440154,1.1440154 0 0 0 0,0.001 c -1.258134,0.85009 -2.452449,1.09867 -4.943768,3.14798 -2.750666,2.26264 -2.804582,5.31306 -2.804582,5.31306 a 1.1440154,1.1440154 0 0 0 2.051364,0.6958 c 0,0 0.111959,-0.10518 0.121597,-0.1171 -0.161246,0.52384 -0.362826,1.01897 -0.39969,1.62353 a 1.1440154,1.1440154 0 0 0 1.951158,0.87932 c 0,0 0.587862,-0.56681 1.385969,-1.18556 -0.170452,0.23903 -0.289824,0.54637 -0.471747,0.73295 a 1.1440154,1.1440154 0 0 0 0.944618,1.93541 c 0,0 0.945575,-0.13022 2.147066,-0.626 -0.06633,0.10352 -0.0766,0.21291 -0.149739,0.31187 a 1.1440154,1.1440154 0 0 0 1.039191,1.81718 c 0,0 2.854099,-0.24454 4.681441,-2.55238 0.0583,-0.0736 0.115164,-0.15006 0.172256,-0.22969 0.09862,-0.13754 0.195515,-0.27718 0.29048,-0.41883 0.0941,-0.14034 0.187094,-0.28234 0.278093,-0.42558 1.08751,-1.71182 1.964982,-3.51454 3.151359,-4.82442 0.19777,-0.21836 0.403628,-0.42401 0.619239,-0.61474 0.116622,-0.10316 0.242837,-0.21144 0.377174,-0.32426 0.401529,-0.33721 0.875414,-0.71041 1.407355,-1.10674 0.177692,-0.13239 0.361235,-0.26776 0.550559,-0.40419 0.189781,-0.13677 0.385135,-0.27481 0.586588,-0.41545 0.201471,-0.14067 0.408458,-0.28325 0.620363,-0.42672 0.211628,-0.14328 0.429533,-0.28851 0.651889,-0.43459 0.622374,-0.40885 1.297955,-0.82502 1.986063,-1.2396 3.263865,0.41901 6.26952,0.72105 8.776288,0.55393 3.331345,-0.22208 7.259141,-1.05125 10.344646,-3.25943 0.147549,0.0531 0.297116,0.10736 0.441351,0.15874 a 1.1440154,1.1440154 0 0 0 0.01124,0.005 l 0.0079,0.002 a 1.1440154,1.1440154 0 0 0 0.0023,10e-4 c 0.03949,0.0141 0.08582,0.0313 0.140735,0.0507 0.281356,0.0996 0.558555,0.19558 0.833155,0.28935 0.0162,0.006 0.03632,0.0116 0.05854,0.0191 7.622619,2.59619 13.568903,3.29656 18.478055,2.84849 0.04087,-0.003 0.06543,-0.006 0.07994,-0.008 l 0.0067,-0.001 c 0.49918,-0.047 0.940669,-0.15536 1.418618,-0.22518 -0.808361,1.79395 -1.61497,3.5156 -2.139186,4.09598 -0.51422,0.56931 -2.307961,1.7423 -3.943983,3.40694 -1.636017,1.66462 -3.184373,4.013 -3.253812,7.18653 a 1.1440154,1.1440154 0 0 0 2.033355,0.74421 c 0,0 0.369956,-0.40263 0.504397,-0.56069 -0.102303,0.61049 -0.236888,1.17927 -0.24094,1.90725 a 1.1440154,1.1440154 0 0 0 2.065999,0.68229 c 0,0 0.541435,-0.64271 0.961508,-1.14503 -0.17206,0.32113 -0.235418,0.58249 -0.439096,0.90522 a 1.1440154,1.1440154 0 0 0 1.304902,1.70346 c 0,0 0.95685,-0.28937 2.088521,-0.92323 -0.02871,0.0489 -0.0298,0.0993 -0.05967,0.1475 a 1.1440154,1.1440154 0 0 0 1.266619,1.70797 c 0.0012,-2.3e-4 0.658138,-0.21511 1.416365,-0.59785 0.758233,-0.38274 1.721931,-0.96021 2.571527,-1.81042 0.06829,-0.0683 0.135357,-0.13782 0.201534,-0.20942 0.198796,-0.21512 0.388639,-0.44798 0.564072,-0.69805 0.175397,-0.25005 0.336222,-0.51752 0.475119,-0.80501 0.300125,-0.62119 0.52342,-1.11815 0.703683,-1.52557 0.180234,-0.4074 0.318012,-0.72303 0.443599,-0.98178 0.06287,-0.12953 0.122663,-0.24586 0.184644,-0.35578 0.186304,-0.33044 0.397153,-0.62876 0.811762,-1.09999 v -10e-4 c 0.01568,-0.0178 0.04341,-0.0457 0.07881,-0.0811 a 1.1440154,1.1440154 0 0 0 0,-10e-4 c 0.03591,-0.0358 0.0778,-0.0761 0.124975,-0.11934 0.195188,-0.17905 0.493699,-0.42562 0.857925,-0.71494 0.181808,-0.14441 0.380835,-0.30065 0.594469,-0.46724 0.426622,-0.33266 0.908952,-0.70606 1.426498,-1.11463 0.258667,-0.20421 0.527312,-0.41779 0.801629,-0.63951 0.822404,-0.66467 1.701992,-1.40344 2.576035,-2.20561 0.14552,-0.13355 0.290446,-0.26909 0.435713,-0.40644 0.435067,-0.41135 0.867384,-0.83873 1.286893,-1.28013 0.139409,-0.1467 0.277205,-0.29534 0.414326,-0.44586 a 1.1440154,1.1440154 0 0 0 0.126099,-0.16775 c 0.902975,-1.00678 1.747358,-2.07115 2.410528,-3.21328 0.29552,-0.50895 0.56951,-1.04129 0.8219,-1.58976 0.0839,-0.18237 0.16597,-0.36749 0.24544,-0.55393 a 1.1440154,1.1440154 0 0 0 0.0495,-0.14524 c 0.91843,-2.19629 1.52286,-4.59427 1.75525,-6.80711 0.0198,-0.18795 0.0374,-0.37479 0.0518,-0.5607 0.0145,-0.1864 0.026,-0.37054 0.0349,-0.55168 0.0296,-0.60374 -0.008,-1.15696 -0.0428,-1.71247 0.15674,-0.13577 0.31321,-0.26833 0.47175,-0.4087 0.0627,-0.0556 0.12136,-0.1081 0.17564,-0.1565 0.24822,-0.22138 0.4977,-0.44727 0.74871,-0.67778 0.0428,-0.0393 0.09,-0.0829 0.14412,-0.13286 0.26596,-0.24555 0.53223,-0.49495 0.79712,-0.74646 0.0854,-0.0811 0.17216,-0.16355 0.26121,-0.24882 a 1.1440154,1.1440154 0 0 0 0,-0.001 c 0.10041,-0.0962 0.19603,-0.18885 0.28485,-0.27472 0.28792,-0.27831 0.57658,-0.56058 0.86693,-0.84891 0.0931,-0.0924 0.18424,-0.18412 0.27472,-0.27472 0.28751,-0.28787 0.57508,-0.5799 0.86243,-0.87481 0.0844,-0.0866 0.17027,-0.17407 0.25782,-0.26459 0.31011,-0.32057 0.61892,-0.64431 0.92774,-0.97164 a 1.1440154,1.1440154 0 0 0 0,-0.001 c 0.0524,-0.0556 0.10948,-0.11449 0.17113,-0.18015 0.62366,-0.66404 1.22598,-1.36048 1.83858,-2.0446 -0.16322,0.41563 -0.30707,0.78818 -0.49878,1.28238 -0.64534,1.66365 -1.23467,3.81747 -0.61698,6.35 a 1.1440154,1.1440154 0 0 0 2.18422,0.12835 c 0,0 0.25861,-0.64186 0.68792,-1.45577 0.0845,0.7185 0.21349,1.48536 0.46836,2.31708 a 1.1440154,1.1440154 0 0 0 2.16734,0.0597 c 0,0 0.32792,-0.77649 0.83315,-1.7654 0.22117,0.85026 0.53199,1.75498 1.07973,2.70439 a 1.1440154,1.1440154 0 0 0 2.10879,-0.33101 c 0,0 0.21222,-0.81545 0.45035,-1.62241 0.12392,0.47271 0.23179,0.94991 0.45824,1.40286 a 1.1440154,1.1440154 0 0 0 2.10315,-0.13286 c 0,0 0.0372,-0.10548 0.0597,-0.17226 v -0.001 c 0.0482,-0.14261 0.16347,-0.4806 0.39857,-1.1135 0.23601,-0.63536 0.5483,-1.44081 0.89845,-2.24952 0.0697,-0.16109 0.14106,-0.32297 0.21393,-0.48414 0.29041,-0.64236 0.60099,-1.26479 0.89733,-1.77102 0.16866,-0.28812 0.32737,-0.57067 0.47737,-0.84892 0.15004,-0.27829 0.29108,-0.55256 0.41996,-0.82415 0.12911,-0.27204 0.24683,-0.54193 0.3524,-0.81176 0.10559,-0.26991 0.19811,-0.53969 0.27697,-0.81176 0.0787,-0.27169 0.14355,-0.5453 0.1914,-0.8219 0.11948,-0.69084 0.13241,-1.39985 0.018,-2.11442 -0.0223,-0.1394 -0.0499,-0.27772 -0.0811,-0.41545 -1.6e-4,-5.8e-4 1.6e-4,-0.002 0,-0.002 a 1.1440154,1.1440154 0 0 0 -0.002,-0.0112 c -0.0202,-0.0886 -0.0427,-0.17137 -0.0664,-0.25107 a 1.1440154,1.1440154 0 0 0 -0.009,-0.0259 c -0.003,-0.01 -0.002,-0.0109 -0.002,-0.0101 l -0.001,-0.002 c -0.0208,-0.0676 -0.0428,-0.13417 -0.0664,-0.2004 a 1.1440154,1.1440154 0 0 0 -0.001,-0.001 c -0.0133,-0.0372 -0.0224,-0.0618 -0.027,-0.0743 -0.0182,-0.0486 -0.0379,-0.10129 -0.0608,-0.15762 l -0.001,-0.002 c -0.0138,-0.0341 -0.0262,-0.0624 -0.036,-0.0856 a 1.1440154,1.1440154 0 0 0 -10e-4,-0.001 c -0.0199,-0.0469 -0.0377,-0.0884 -0.054,-0.12497 a 1.1440154,1.1440154 0 0 0 -0.001,-0.001 c -0.0546,-0.12177 -0.11368,-0.24667 -0.17901,-0.37492 -0.0185,-0.0364 -0.0306,-0.0594 -0.036,-0.0698 a 1.1440154,1.1440154 0 0 0 -0.001,-0.002 c -0.0481,-0.0925 -0.094,-0.1742 -0.13399,-0.24656 -0.0544,-0.0984 -0.11209,-0.19957 -0.17339,-0.304 a 1.1440154,1.1440154 0 0 0 0,-0.001 c -0.0319,-0.0543 -0.0661,-0.11254 -0.10357,-0.17451 -0.0675,-0.11168 -0.13707,-0.22319 -0.20829,-0.33551 -0.0322,-0.0508 -0.0669,-0.10476 -0.10471,-0.16326 h 0.001 c -0.0801,-0.12391 -0.16223,-0.24638 -0.24319,-0.36704 -0.0221,-0.033 -0.051,-0.0764 -0.0878,-0.1306 v -0.001 c -0.1111,-0.16371 -0.22548,-0.32984 -0.34339,-0.49765 -0.0497,-0.0707 -0.0959,-0.13321 -0.13398,-0.18689 -0.13297,-0.18728 -0.26767,-0.37425 -0.40307,-0.5607 -0.2019,-0.27802 -0.40581,-0.5563 -0.61136,-0.83541 a 1.1440154,1.1440154 0 0 0 -0.0214,-0.0293 1.1440154,1.1440154 0 0 0 -0.001,-0.002 c 0,0 -0.001,-0.001 -0.001,-0.001 -0.1147,-0.15562 -0.22724,-0.31011 -0.34452,-0.46949 -0.19305,-0.26243 -0.38342,-0.52191 -0.56407,-0.77236 a 1.1440154,1.1440154 0 0 0 -0.009,-0.0112 c 0.007,0.009 10e-4,0.001 -0.008,-0.0112 l -10e-4,-0.002 c -0.0977,-0.13564 -0.1932,-0.26926 -0.28598,-0.40082 l -0.0112,-0.0157 c 5.8e-4,0.001 -0.0116,-0.0166 -0.006,-0.008 a 1.1440154,1.1440154 0 0 0 -0.007,-0.009 c -0.0987,-0.14022 -0.19389,-0.27678 -0.28371,-0.4087 -0.19341,-0.284 -0.36931,-0.55396 -0.51567,-0.796 -0.17278,-0.28575 -0.35126,-0.72716 -0.52916,-1.14503 0.0334,-0.0535 0.065,-0.10425 0.0991,-0.15987 0.0487,-0.0794 0.0941,-0.15464 0.13735,-0.22631 0.04,-0.0661 0.0747,-0.12646 0.10809,-0.18239 0.077,-0.12886 0.15267,-0.2563 0.2263,-0.3828 0.0387,-0.0665 0.0878,-0.14694 0.13962,-0.23756 0.0254,-0.0445 0.038,-0.069 0.0417,-0.0754 0.12027,-0.21143 0.2375,-0.42144 0.34903,-0.62824 a 1.1440154,1.1440154 0 0 0 0,-0.001 c 0.0155,-0.0287 0.024,-0.0453 0.0281,-0.0529 a 1.1440154,1.1440154 0 0 0 0.001,-0.001 c 0.11017,-0.20537 0.21674,-0.4087 0.3175,-0.6091 l 0.001,-0.003 c 0.0175,-0.0347 0.0302,-0.0604 0.0372,-0.0743 a 1.1440154,1.1440154 0 0 0 0,-0.001 c 0.20494,-0.41158 0.38551,-0.8059 0.54042,-1.18331 v 0.002 c 0.0126,-0.0305 0.0293,-0.0709 0.0495,-0.12159 0.0199,-0.0499 0.0371,-0.0939 0.0518,-0.13173 a 1.1440154,1.1440154 0 0 0 0,-0.001 c 0.0272,-0.0703 0.0533,-0.13818 0.0777,-0.20492 0.0147,-0.04 0.0302,-0.0851 0.0473,-0.13397 l 10e-4,-0.001 c 0.0261,-0.0743 0.0492,-0.14509 0.0709,-0.21167 l 10e-4,-0.002 c 0.008,-0.0254 0.0197,-0.0605 0.0338,-0.10583 0.032,-0.10254 0.0641,-0.20796 0.0934,-0.3175 0.4344,-1.62176 0.6104,-3.13595 0.61586,-4.55759 a 1.1440154,1.1440154 0 0 0 0,-0.005 v -0.001 -0.003 c 0.002,-0.52955 -0.0195,-1.04693 -0.0597,-1.5526 -0.0135,-0.16969 -0.03,-0.33689 -0.0473,-0.50327 -0.24324,-2.33482 -0.84334,-4.41349 -1.30266,-6.41755 -0.13125,-0.57267 -0.2525,-1.13894 -0.3524,-1.7046 -0.0499,-0.28263 -0.0942,-0.56567 -0.13286,-0.84892 -0.43782,-3.21068 0.25778,-6.0318 -0.20265,-12.32396 -0.02,-0.27371 -0.0417,-0.55436 -0.0664,-0.84103 -0.0247,-0.28668 -0.0525,-0.57976 -0.0822,-0.88045 -0.0293,-0.29649 -0.0611,-0.60025 -0.0957,-0.91084 a 1.1440154,1.1440154 0 0 0 0,-10e-4 c -2.1e-4,-0.002 2.1e-4,-0.003 0,-0.006 -3.3e-4,-0.003 -5.8e-4,-0.003 -10e-4,-0.006 -0.006,-0.0525 -0.0112,-0.0892 -0.0124,-0.1002 a 1.1440154,1.1440154 0 0 0 0,-0.002 c -0.21053,-1.8663 -0.51806,-3.98871 -0.96376,-6.44007 a 1.1440154,1.1440154 0 0 0 0,-0.001 c -0.0221,-0.12173 -0.0448,-0.22135 -0.0608,-0.30174 a 1.1440154,1.1440154 0 0 0 0,-0.001 c -0.0179,-0.0898 -0.0374,-0.19633 -0.0642,-0.31975 l 0.001,0.001 c -0.0404,-0.18695 -0.0845,-0.3705 -0.12948,-0.55281 -3.7e-4,-0.002 -5.8e-4,-0.003 -0.001,-0.005 a 1.1440154,1.1440154 0 0 0 -0.0112,-0.0495 c -1.58062,-6.34393 -6.32643,-12.16481 -12.62119,-16.02812 l -1.11351,-2.79558 a 1.1440154,1.1440154 0 0 0 -1.44,-0.65639 l -2.5659,0.89621 c -0.9686,-0.37703 -1.95974,-0.70579 -2.97009,-0.98628 l -1.921889,-2.83836 a 1.1440154,1.1440154 0 0 0 -0.975021,-0.50215 z m -8.395736,2.79558 1.319538,1.38709 a 1.1440154,1.1440154 0 0 0 0.880442,0.35465 c 1.074337,-0.0485 2.140696,-0.0326 3.193019,0.0473 a 1.1440154,1.1440154 0 0 0 0.79037,-0.23981 l 1.979307,-1.54584 1.450145,2.14143 a 1.1440154,1.1440154 0 0 0 0.657511,0.46612 c 1.22258,0.31964 2.41763,0.71739 3.57469,1.18781 a 1.1440154,1.1440154 0 0 0 0.80839,0.0203 l 1.896,-0.66315 0.82752,2.08064 a 1.1440154,1.1440154 0 0 0 0.47738,0.55957 c 6.02369,3.58458 10.50019,9.14072 11.92877,14.86958 2.8e-4,0.001 5.8e-4,0.002 0.001,0.003 a 1.1440154,1.1440154 0 0 0 0,0.002 c 0.0448,0.18008 0.0859,0.35791 0.12385,0.53367 a 1.1440154,1.1440154 0 0 0 0.001,0.001 c 0.0167,0.0767 0.0332,0.17079 0.0552,0.28147 0.0216,0.10884 0.0417,0.19766 0.054,0.26571 0.43727,2.40497 0.73689,4.47644 0.94125,6.28808 0.005,0.0448 0.009,0.0679 0.0101,0.0799 a 1.1440154,1.1440154 0 0 0 0,0.007 c 7e-5,5.8e-4 0.001,0.005 0.001,0.006 a 1.1440154,1.1440154 0 0 0 0,0.007 c 0.0341,0.30559 0.0658,0.60413 0.0946,0.89508 0.0288,0.29098 0.0549,0.57398 0.0788,0.85117 0.0239,0.27719 0.0449,0.54807 0.0642,0.81176 0.44404,6.06821 -0.2834,8.78699 0.21842,12.46695 0.0431,0.31594 0.0917,0.62752 0.14636,0.93674 0.10915,0.61803 0.23838,1.2226 0.37492,1.8183 0.47792,2.08522 1.04063,4.05995 1.25762,6.14284 0.0155,0.14916 0.0297,0.29838 0.0417,0.44811 0.0356,0.44805 0.0545,0.90297 0.0529,1.36682 a 1.1440154,1.1440154 0 0 0 0,0.005 v 0.005 c -0.005,1.23941 -0.15592,2.54393 -0.53817,3.971 -0.0179,0.067 -0.0404,0.14382 -0.0664,0.22743 a 1.1440154,1.1440154 0 0 0 -0.001,0 c -0.005,0.0142 -0.0129,0.0415 -0.0248,0.0777 a 1.1440154,1.1440154 0 0 0 0,0.001 c -0.0187,0.0573 -0.0376,0.11218 -0.0563,0.1655 a 1.1440154,1.1440154 0 0 0 0,0.001 c -0.0102,0.0289 -0.0227,0.0641 -0.0372,0.10358 -0.0203,0.0556 -0.0416,0.11121 -0.063,0.16663 -0.0163,0.0422 -0.0302,0.0778 -0.0428,0.10921 -0.009,0.0215 -0.0229,0.0552 -0.0405,0.0979 a 1.1440154,1.1440154 0 0 0 0,0.002 c -0.12975,0.31612 -0.28849,0.66104 -0.47287,1.03131 -0.0161,0.0324 -0.0271,0.0543 -0.0326,0.0653 a 1.1440154,1.1440154 0 0 0 -10e-4,0.003 c -0.0899,0.17882 -0.18723,0.36596 -0.29048,0.55844 -0.0145,0.0271 -0.0233,0.0438 -0.027,0.0507 -0.10111,0.18745 -0.20957,0.38243 -0.32313,0.58208 -0.0245,0.0431 -0.0365,0.0658 -0.0394,0.0709 -0.0344,0.06 -0.0804,0.13666 -0.1306,0.22293 -0.0692,0.11886 -0.14007,0.23849 -0.2128,0.36028 -0.0374,0.0626 -0.0712,0.1198 -0.10358,0.17339 -0.045,0.0745 -0.0875,0.1454 -0.12948,0.21391 -0.0583,0.0951 -0.12475,0.19981 -0.19252,0.3085 -0.0472,0.0756 -0.0886,0.14356 -0.12948,0.20829 a 1.1440154,1.1440154 0 0 0 0,0.001 c -0.0289,0.0458 -0.0591,0.0926 -0.0889,0.13961 a 1.1440154,1.1440154 0 0 0 -0.0968,1.03469 c 0.27719,0.69876 0.55651,1.37216 0.93111,1.9917 0.17738,0.29335 0.37514,0.59403 0.58321,0.89957 0.0991,0.14546 0.20096,0.29048 0.30399,0.43685 -0.002,-0.003 0.005,0.008 0.001,0.002 a 1.1440154,1.1440154 0 0 0 0.0112,0.0157 c 0.10197,0.14471 0.20681,0.29173 0.313,0.43909 a 1.1440154,1.1440154 0 0 0 10e-4,0.002 c -0.003,-0.005 0.005,0.007 0.0248,0.0326 0.18564,0.25724 0.37623,0.51806 0.56744,0.77798 a 1.1440154,1.1440154 0 0 0 0,0.001 c 0.11368,0.15449 0.22708,0.30748 0.34565,0.46837 l -0.001,-0.003 -0.006,-0.0146 c 0.0297,0.0361 0.0509,0.0609 0.0878,0.10583 -0.0389,-0.0419 -0.0788,-0.0845 -0.0788,-0.0844 0.2095,0.28428 0.41664,0.56823 0.62374,0.85342 0.13264,0.18264 0.26224,0.3627 0.38843,0.54043 0.0483,0.068 0.093,0.12865 0.12835,0.17901 h -10e-4 c 0.11032,0.15701 0.21815,0.31257 0.32313,0.46725 0.0205,0.0302 0.0468,0.0705 0.0811,0.12159 0.0775,0.11548 0.15134,0.22717 0.22068,0.33439 0.0295,0.0455 0.0604,0.0931 0.0934,0.14524 0.0637,0.10049 0.12457,0.19932 0.1824,0.29498 0.0284,0.047 0.0578,0.0967 0.0889,0.14975 0.0492,0.0838 0.0965,0.16691 0.14298,0.25107 0.0422,0.0765 0.0798,0.14469 0.10696,0.19703 0.0152,0.0292 0.0256,0.048 0.0281,0.0529 a 1.1440154,1.1440154 0 0 0 0,0.001 c 0.0474,0.0931 0.0909,0.1838 0.1306,0.27246 0.0154,0.0344 0.0285,0.0637 0.0383,0.0867 0.01,0.0225 0.0169,0.0407 0.0214,0.0518 a 1.1440154,1.1440154 0 0 0 0.001,0.002 c 0.0122,0.0298 0.025,0.0624 0.0383,0.0979 0.01,0.0263 0.0153,0.0416 0.0157,0.0428 0.0136,0.038 0.0248,0.0729 0.0349,0.10584 a 1.1440154,1.1440154 0 0 0 0.001,0.002 c 0.004,0.0133 0.006,0.0174 0.008,0.0248 0.0111,0.0379 0.0201,0.0727 0.0259,0.0979 l -0.0214,-0.12384 c 0,2e-5 -2.5e-4,-0.0451 0,-0.0777 0.0115,0.0755 0.045,0.28821 0.045,0.28823 l -0.0236,-0.0867 c 0.0219,0.096 0.0406,0.18917 0.0552,0.28035 0.074,0.46205 0.067,0.89764 -0.0135,1.36345 -0.0322,0.18566 -0.0767,0.37644 -0.13398,0.5742 -0.0573,0.19776 -0.1283,0.40275 -0.21167,0.61586 -0.0834,0.21318 -0.17902,0.43418 -0.28823,0.66427 -0.10942,0.23059 -0.23168,0.47047 -0.36591,0.71945 -0.13426,0.24903 -0.28093,0.50778 -0.43909,0.77799 -0.35734,0.61042 -0.69438,1.29446 -1.00655,1.98494 -0.0518,0.11448 -0.10262,0.22959 -0.15312,0.34451 0.0124,-0.38865 0.0169,-0.98402 0.0169,-0.98402 a 1.1440154,1.1440154 0 0 0 -2.05024,-0.80388 c -0.66491,0.87864 -1.12021,1.90933 -1.49968,2.90478 -0.16094,-1.03222 -0.10245,-1.7485 -0.10245,-1.7485 a 1.1440154,1.1440154 0 0 0 -2.0221,-0.86242 c -0.50996,0.62511 -0.78976,1.22651 -1.16754,1.86108 0.0134,-1.12451 0.20266,-1.82619 0.20266,-1.82619 a 1.1440154,1.1440154 0 0 0 -1.9095,-1.14502 c -0.28189,0.2895 -0.4914,0.59875 -0.73633,0.90184 0.0584,-0.16476 0.0809,-0.34363 0.14411,-0.50666 0.58022,-1.49575 1.45898,-2.85261 1.29702,-4.55308 -0.0481,-0.50558 -0.17922,-0.99177 -0.37604,-1.44676 a 1.1440154,1.1440154 0 0 0 -1.92414,-0.28373 c -0.2606,0.30908 -0.52477,0.61901 -0.7915,0.92886 -0.0208,0.0242 -0.0367,0.0428 -0.0484,0.0563 a 1.1440154,1.1440154 0 0 0 -10e-4,10e-4 c -1.07328,1.24515 -2.17977,2.47676 -3.2966,3.66588 -0.0512,0.0546 -0.10717,0.11254 -0.16775,0.17677 -0.30266,0.32081 -0.60551,0.63808 -0.90859,0.95137 -0.0825,0.0853 -0.1665,0.17099 -0.2522,0.25896 -0.28116,0.28857 -0.5606,0.57377 -0.84104,0.85455 -0.091,0.0911 -0.18092,0.1804 -0.26908,0.26796 -0.28194,0.27999 -0.56384,0.55521 -0.84554,0.82753 -0.098,0.0947 -0.18985,0.18558 -0.27585,0.26796 -0.0833,0.0798 -0.16794,0.15993 -0.25445,0.24206 -0.2603,0.24716 -0.51868,0.48984 -0.77348,0.72507 -0.0412,0.038 -0.0872,0.0802 -0.13961,0.12835 a 1.1440154,1.1440154 0 0 0 -0.001,0 c -0.24265,0.22284 -0.48377,0.44107 -0.72394,0.65527 -0.0609,0.0543 -0.11678,0.10586 -0.16889,0.15199 -0.26047,0.23063 -0.52022,0.4553 -0.77798,0.67554 -0.0417,0.0356 -0.0654,0.0572 -0.0709,0.0619 a 1.1440154,1.1440154 0 0 0 -0.39631,0.99641 c 0.0653,0.5922 0.0828,1.26464 0.0473,1.98832 -0.008,0.16053 -0.0177,0.32206 -0.0304,0.48525 a 1.1440154,1.1440154 0 0 0 0,0.002 c -0.0127,0.16334 -0.0285,0.32954 -0.0462,0.49764 -0.21204,2.01901 -0.78078,4.29269 -1.63366,6.29371 -0.0709,0.16634 -0.14457,0.33129 -0.21955,0.49426 -0.224517,0.4879 -0.465768,0.95648 -0.721691,1.39723 -0.589061,1.01449 -1.370779,2.02563 -2.249525,2.99035 -0.125224,0.13746 -0.252251,0.27364 -0.381676,0.40982 a 1.1440154,1.1440154 0 0 0 0,0.001 1.1440154,1.1440154 0 0 0 -0.0067,0.007 c -0.38525,0.40509 -0.78622,0.80054 -1.193438,1.18556 -0.13628,0.12886 -0.273026,0.25735 -0.410949,0.38393 -0.826387,0.75844 -1.670339,1.46753 -2.467944,2.11216 -0.26571,0.21476 -0.526533,0.42233 -0.780236,0.62262 -0.50706,0.40029 -0.984036,0.77051 -1.415241,1.10674 -0.215317,0.16791 -0.419946,0.3276 -0.611358,0.47964 -0.382016,0.30345 -0.709753,0.57124 -0.98177,0.82076 -0.06964,0.0639 -0.13428,0.12648 -0.194779,0.1869 -0.06046,0.0604 -0.120029,0.12216 -0.179017,0.18915 -0.483616,0.54957 -0.818577,1.01126 -1.087608,1.48842 -0.08983,0.15933 -0.171547,0.31922 -0.249944,0.48076 -0.15698,0.32341 -0.301019,0.65633 -0.477379,1.05495 -0.176338,0.39856 -0.38559,0.86497 -0.671027,1.45577 -0.08069,0.16702 -0.177444,0.32958 -0.288227,0.48751 -0.110668,0.15768 -0.235759,0.31017 -0.371542,0.45711 -0.04554,0.0492 -0.0921,0.0977 -0.139612,0.14524 a 1.1440154,1.1440154 0 0 0 0,10e-4 c -0.09514,0.0952 -0.214706,0.13168 -0.317499,0.22067 0.301566,-1.12835 0.395188,-1.95904 0.395188,-1.95904 a 1.1440154,1.1440154 0 0 0 -2.156076,-0.63838 c -0.310819,0.60671 -0.780168,1.10872 -1.290266,1.54697 0.489277,-1.27072 0.770108,-2.22363 0.770108,-2.22363 a 1.1440154,1.1440154 0 0 0 -1.488422,-1.34543 c -0.878487,0.30563 -1.628834,0.86603 -2.320452,1.47942 0.02536,-0.0502 0.04565,-0.13634 0.07093,-0.18352 0.44915,-0.83805 0.79938,-1.12589 0.79938,-1.12589 a 1.1440154,1.1440154 0 0 0 -1.233969,-1.89825 c -0.0968,0.0448 -0.178424,0.12762 -0.273591,0.17789 -0.340056,0.17964 -0.660264,0.40369 -0.977274,0.63613 0.34389,-0.47854 0.642724,-0.99698 1.051579,-1.41299 1.403458,-1.428 2.999418,-2.35856 4.010408,-3.47786 1.40415,-1.55461 2.382427,-4.32984 3.403558,-6.62472 a 1.1440154,1.1440154 0 0 0 -1.297022,-1.58075 c -1.040724,0.23529 -2.137243,0.41491 -3.304476,0.52467 a 1.1440154,1.1440154 0 0 0 -0.0067,0 c -0.03741,0.003 -0.05872,0.006 -0.0653,0.007 a 1.1440154,1.1440154 0 0 0 -0.0012,0 c -4.528894,0.41352 -10.134656,-0.21483 -17.533438,-2.73478 a 1.1440154,1.1440154 0 0 0 -0.0012,-0.001 c -0.01516,-0.005 -0.03355,-0.0106 -0.05517,-0.018 -0.268852,-0.0918 -0.538264,-0.18548 -0.809508,-0.28147 a 1.1440154,1.1440154 0 0 0 -0.0012,0 c -0.03943,-0.0139 -0.08974,-0.0324 -0.147492,-0.0529 a 1.1440154,1.1440154 0 0 0 -0.009,-0.003 l -0.02254,-0.008 c -0.228252,-0.0813 -0.453548,-0.16282 -0.678913,-0.24544 a 1.1440154,1.1440154 0 0 0 -0.0012,0 c -0.07235,-0.0265 -0.151878,-0.0566 -0.236438,-0.0878 a 1.1440154,1.1440154 0 0 0 -1.113502,0.18126 c -2.552826,2.05091 -6.380516,2.91404 -9.653351,3.13223 -2.300934,0.15339 -5.353696,-0.14074 -8.747016,-0.58434 a 1.1440154,1.1440154 0 0 0 -0.731825,0.15087 c -0.834636,0.49615 -1.636726,0.99715 -2.388007,1.49067 -0.230219,0.15124 -0.456321,0.30154 -0.677783,0.45148 -0.221047,0.14966 -0.437027,0.29787 -0.647387,0.44473 -0.210492,0.14695 -0.415352,0.29316 -0.614731,0.43684 -0.199695,0.1439 -0.39294,0.28521 -0.579832,0.42446 -0.562175,0.41886 -1.06931,0.81823 -1.512067,1.19006 -0.147106,0.12355 -0.28734,0.24423 -0.421083,0.36254 -0.285108,0.25222 -0.550986,0.51838 -0.79938,0.79262 a 1.1440154,1.1440154 0 0 0 -0.14186,0.19591 c -1.393491,1.60412 -2.29902,3.44827 -3.244808,4.93701 -0.08152,0.12833 -0.163592,0.25454 -0.246566,0.3783 -0.08202,0.12232 -0.165702,0.24278 -0.249951,0.36028 -0.0343,0.0478 -0.06968,0.0948 -0.106955,0.14186 a 1.1440154,1.1440154 0 0 0 0,0.001 c -0.189342,0.23913 -0.421619,0.40161 -0.645133,0.57983 0.295542,-0.94526 0.388432,-1.63591 0.388432,-1.63591 a 1.1440154,1.1440154 0 0 0 -2.007461,-0.8917 c -0.245166,0.2902 -0.525484,0.48071 -0.797126,0.69917 0.300684,-0.68858 0.556186,-1.35782 0.556192,-1.35782 a 1.1440154,1.1440154 0 0 0 -1.345438,-1.48842 c -0.662173,0.15766 -1.274408,0.44174 -1.857716,0.74759 0.310311,-0.31528 0.727324,-0.75885 0.727324,-0.75885 a 1.1440154,1.1440154 0 0 0 -0.964886,-2.02547 c -0.500328,0.12667 -0.894985,0.335 -1.328542,0.51678 0.01072,-0.009 0.01395,-0.0181 0.02479,-0.027 2.28481,-1.87945 3.178251,-1.94387 4.770382,-3.01963 0.328723,-0.2221 0.620835,-0.48886 0.928852,-0.78925 0.604591,-0.58959 1.249637,-1.3311 1.846457,-2.05136 a 1.1440154,1.1440154 0 0 0 -0.78249,-1.86897 c -2.471806,-0.2125 -4.9442,-0.32328 -7.337407,-0.23193 -9.806941,0.3743 -12.1264079,-3.31422 -12.2777963,-4.05433 -0.029111,-0.14244 0.0328,-0.39792 0.025883,-0.58208 0.084295,0.0957 0.2927291,0.36253 0.2927291,0.36253 a 1.1440154,1.1440154 0 0 0 1.9275182,-0.44922 c 0.0077,-0.0251 0.02554,-0.048 0.03378,-0.0732 0.119897,0.30381 0.282601,0.72057 0.282601,0.72057 a 1.1440154,1.1440154 0 0 0 2.091894,0.0383 c 0.05436,-0.11709 0.277078,-0.40079 0.405322,-0.6001 0.107059,0.37711 0.229682,0.77461 0.229682,0.77461 a 1.1440154,1.1440154 0 0 0 1.615645,0.57645 c 0.270294,-0.14937 0.505061,-0.35135 0.754342,-0.53592 a 1.1440154,1.1440154 0 0 0 1.031317,0.90634 c 3.031797,0.23322 3.311573,0.12778 6.137206,-0.10133 1.322006,-0.10719 2.315196,-0.4593 3.171622,-0.81852 0.856432,-0.35922 1.578717,-0.70924 2.596297,-0.96826 a 1.1440154,1.1440154 0 0 0 0.577578,-0.35465 c 0.243805,-0.27796 0.538575,-0.69087 0.826405,-1.09211 a 1.1440154,1.1440154 0 0 0 1.628033,0.78249 c 0,0 0.571179,-0.30811 1.250859,-0.97615 0.152529,-0.14992 0.351446,-0.40726 0.524659,-0.60122 -0.02565,0.21553 0.0128,0.36696 -0.03153,0.58996 a 1.1440154,1.1440154 0 0 0 1.813801,1.13377 c 0,0 0.355736,-0.32265 0.630497,-0.56857 a 1.1440154,1.1440154 0 0 0 1.236223,1.05495 c 1.051602,-0.0886 2.256126,-0.3098 3.704167,-0.74421 0.456782,-0.13704 0.885035,-0.29595 1.289141,-0.46724 a 1.1440154,1.1440154 0 0 0 0.57533,-0.5393 c 2.186398,-4.35207 2.899996,-8.11788 3.091685,-10.63963 a 1.1440154,1.1440154 0 0 0 -1.374711,-1.20695 c -2.008095,0.42175 -3.781319,0.90751 -4.994432,1.02906 a 1.1440154,1.1440154 0 0 0 -0.907465,0.62374 c -0.221463,0.43945 -0.465355,0.74657 -0.711558,1.12476 -0.07882,-0.27611 -0.242065,-1.1135 -0.242065,-1.1135 a 1.1440154,1.1440154 0 0 0 -1.78876,-0.5571 c -0.458557,0.35408 -0.871708,0.76677 -1.238477,1.18668 -0.06022,-1.01488 -0.05177,-1.69333 -0.05177,-1.69333 a 1.1440154,1.1440154 0 0 0 -1.776649,-1.04032 c -0.517419,0.34713 -0.841265,0.71614 -1.235099,1.08874 -0.138614,-0.72841 -0.338142,-1.51321 -0.413202,-2.06263 a 1.1440154,1.1440154 0 0 0 -0.963756,-0.97615 c -1.268971,-0.19086 -2.769003,-0.17277 -4.19055,-0.20378 -1.421553,-0.031 -2.775154,-0.13825 -3.43283,-0.36591 -0.402866,-0.13945 -0.76933,-0.29742 -1.134894,-0.47287 a 1.1440154,1.1440154 0 0 0 -1.50869,0.50101 c -0.411132,0.78643 -0.769497,1.66008 -1.148406,2.52537 -0.254124,-1.98822 -0.361407,-3.51502 -0.361407,-3.51502 a 1.1440154,1.1440154 0 0 0 -1.775525,-0.94912 c -0.996383,0.65972 -1.791233,1.43242 -2.430786,2.09752 -0.35615,-1.04416 -0.522417,-1.85658 -0.522417,-1.85658 a 1.1440154,1.1440154 0 0 0 -1.929766,-0.75547 c -0.567162,0.53926 -0.996701,1.19024 -1.400605,1.79578 -0.405362,-0.87565 -0.640631,-1.5571 -0.640631,-1.5571 A 1.1440154,1.1440154 0 0 0 8.9891476,241.7713 c -0.3235752,0.55697 -0.5405698,1.24093 -0.8196427,1.9005 -0.092313,-0.99624 -0.1419922,-1.88298 -0.1519936,-2.47357 A 1.1440154,1.1440154 0 0 0 7.4669515,240.2401 c -0.3225721,-0.1957 -0.3080224,-0.2287 -0.3129972,-0.32313 -0.098735,-1.87592 0.028016,-3.7888 0.7453378,-5.08338 0.7173451,-1.29458 1.9153262,-2.20278 4.8199219,-2.23601 0.601075,-0.007 1.271358,0.0306 2.015336,0.11934 3.341427,0.39852 4.303436,1.01132 4.939265,1.61903 0.635829,0.6077 1.221916,1.73192 3.004992,2.46344 1.042869,0.42784 2.583142,0.71955 4.505801,1.00654 1.922659,0.287 4.172968,0.53198 6.374769,0.71269 a 1.1440154,1.1440154 0 0 0 0.872561,-0.30174 c 0.621487,-0.57735 1.436535,-1.29932 2.197731,-1.8746 0.761196,-0.57528 1.578095,-0.96286 1.647171,-0.97389 1.153508,-0.18433 3.204093,0.0284 3.866301,0.38055 -0.0078,-0.004 0.280854,0.23747 0.540425,0.59897 0.259566,0.3615 0.532955,0.82674 0.764476,1.25987 a 1.1440154,1.1440154 0 0 0 1.46703,0.5089 c 0.689739,-0.30197 1.132277,-0.66689 1.433255,-0.88833 0.300972,-0.22145 0.460327,-0.33454 0.934484,-0.45824 0.666473,-0.17386 2.169732,-0.30781 3.588201,-0.28034 1.418469,0.0275 2.873693,0.2654 3.279707,0.4481 0.254458,0.1145 1.157237,1.1446 1.928648,2.48258 a 1.1440154,1.1440154 0 0 0 1.281255,0.5348 c 0.446821,-0.1169 1.006581,-0.2679 1.686578,-0.45936 a 1.1440154,1.1440154 0 0 0 0.524665,-0.31975 l 3.875305,-4.14101 4.522685,1.33079 a 1.1440154,1.1440154 0 0 0 0.721692,-0.0248 c 0.795115,-0.29572 1.610981,-0.60856 2.444303,-0.93899 a 1.1440154,1.1440154 0 0 0 0.526914,-0.42445 l 3.57469,-5.2973 5.744278,0.97276 a 1.1440154,1.1440154 0 0 0 0.730695,-0.11934 c 1.248479,-0.66863 2.490657,-1.37366 3.713177,-2.11667 a 1.1440154,1.1440154 0 0 0 0.437967,-0.48413 l 2.550135,-5.3412 4.126379,0.36591 a 1.1440154,1.1440154 0 0 0 0.844413,-0.27022 c 1.695166,-1.44812 3.301617,-2.98748 4.78277,-4.58798 a 1.1440154,1.1440154 0 0 0 0.273585,-0.51791 l 0.378298,-1.62128 1.393849,-0.48751 a 1.1440154,1.1440154 0 0 0 0.52016,-0.37154 c 0.60741,-0.76998 1.18297,-1.54825 1.7226,-2.33396 0.6457,-0.94016 1.23467,-1.8909 1.77102,-2.84512 a 1.1440154,1.1440154 0 0 0 0.054,-0.0867 1.1440154,1.1440154 0 0 0 0.002,-0.003 c 0.008,-0.0139 0.0148,-0.0277 0.0225,-0.0417 0.12563,-0.22598 0.24887,-0.45189 0.36704,-0.67666 l 0.002,-0.006 c 0.003,-0.007 0.009,-0.016 0.0169,-0.0304 l 0.001,-0.003 c 0.12122,-0.2313 0.23858,-0.4624 0.3524,-0.69355 a 1.1440154,1.1440154 0 0 0 0.001,-0.002 c 0.001,-0.003 0.009,-0.0163 0.0214,-0.0417 h -0.001 c 0.35749,-0.72892 0.67931,-1.45931 0.96151,-2.18873 a 1.1440154,1.1440154 0 0 0 0,-0.001 c 0.012,-0.031 0.0204,-0.0531 0.0259,-0.0676 0.0814,-0.2122 0.15885,-0.42302 0.23305,-0.63387 0.0127,-0.0362 0.0269,-0.0764 0.0417,-0.11934 0.0742,-0.21431 0.14572,-0.42875 0.21279,-0.64289 a 1.1440154,1.1440154 0 0 0 0,-0.001 c 0.001,-0.005 0.007,-0.024 0.018,-0.0585 a 1.1440154,1.1440154 0 0 0 0.001,-0.002 c 0.15094,-0.48682 0.2838,-0.97321 0.39631,-1.45803 l -0.0259,0.0383 c 0.0183,-0.0614 0.0298,-0.10015 0.0372,-0.12498 l -0.0101,0.0833 c 0.0538,-0.23188 0.10159,-0.45993 0.14524,-0.68566 a 1.1440154,1.1440154 0 0 0 0,-0.001 c 0.01,-0.0519 0.0182,-0.0956 0.0248,-0.13173 v -0.003 c 0.0346,-0.18692 0.0673,-0.37332 0.0957,-0.55956 a 1.1440154,1.1440154 0 0 0 0,-0.003 c 0.007,-0.0475 0.0155,-0.0992 0.0236,-0.1565 a 1.1440154,1.1440154 0 0 0 0,-0.001 c 0.0266,-0.18622 0.0488,-0.36964 0.0687,-0.55168 a 1.1440154,1.1440154 0 0 0 0,-10e-4 c 0.004,-0.0345 0.0125,-0.0911 0.0202,-0.17 v -0.002 c 0.006,-0.0643 0.0119,-0.12704 0.0169,-0.18802 l -0.001,0.006 c 0.0121,-0.13857 0.0231,-0.27785 0.0315,-0.41883 a 1.1440154,1.1440154 0 0 0 0,-0.001 c 0.004,-0.0669 0.007,-0.12928 0.0101,-0.18802 a 1.1440154,1.1440154 0 0 0 0,-0.001 c 0.006,-0.12678 0.0105,-0.25062 0.0135,-0.37155 a 1.1440154,1.1440154 0 0 0 0,-0.006 c 5.8e-4,-0.0381 0.003,-0.10064 0.003,-0.17902 v -0.0101 c 0.002,-0.15278 5.8e-4,-0.30215 -0.002,-0.4481 a 1.1440154,1.1440154 0 0 0 0,-0.002 c -10e-4,-0.0505 -0.002,-0.1055 -0.005,-0.16438 v -0.001 c -0.005,-0.15041 -0.0119,-0.30412 -0.0225,-0.46161 a 1.1440154,1.1440154 0 0 0 0,-0.005 c -0.003,-0.0488 -0.008,-0.0868 -0.0101,-0.11597 v -0.003 c -0.0104,-0.13629 -0.0228,-0.27204 -0.0371,-0.40644 -0.005,-0.0431 -0.009,-0.0962 -0.0169,-0.15875 v -0.002 c -0.0186,-0.15556 -0.0404,-0.30961 -0.0642,-0.46161 -0.008,-0.0528 -0.0163,-0.10075 -0.0236,-0.14412 -0.0264,-0.1568 -0.0561,-0.31892 -0.0912,-0.48638 a 1.1440154,1.1440154 0 0 0 0,-0.001 c -0.0111,-0.0526 -0.0131,-0.0627 -0.007,-0.0304 a 1.1440154,1.1440154 0 0 0 -0.003,-0.0157 c -0.0342,-0.16026 -0.0711,-0.3179 -0.11034,-0.47174 -0.006,-0.0234 -0.0154,-0.0601 -0.0281,-0.10809 v -0.002 c -0.0422,-0.15904 -0.0883,-0.31574 -0.13623,-0.47061 -0.0156,-0.0507 -0.029,-0.0913 -0.0394,-0.12385 a 1.1440154,1.1440154 0 0 0 0,-0.001 c -0.0493,-0.1536 -0.10223,-0.31326 -0.16326,-0.4785 a 1.1440154,1.1440154 0 0 0 -0.002,-0.006 c -0.0179,-0.0478 -0.022,-0.0567 -0.0101,-0.0236 a 1.1440154,1.1440154 0 0 0 -0.005,-0.0135 c -0.0572,-0.15307 -0.11688,-0.30202 -0.17789,-0.44697 a 1.1440154,1.1440154 0 0 0 -0.001,-0.001 c -0.0124,-0.0294 -0.0272,-0.0674 -0.0473,-0.11371 -0.0659,-0.15188 -0.13521,-0.30312 -0.20829,-0.45373 -0.0221,-0.0456 -0.0406,-0.081 -0.054,-0.10809 -0.0753,-0.1513 -0.15552,-0.30692 -0.24319,-0.46499 a 1.1440154,1.1440154 0 0 0 -0.001,-0.001 1.1440154,1.1440154 0 0 0 -0.0135,-0.0236 c -0.086,-0.15422 -0.17463,-0.30456 -0.26458,-0.45036 l -10e-4,-0.001 c -0.0146,-0.0237 -0.0316,-0.0528 -0.0529,-0.0867 -0.0936,-0.14885 -0.19135,-0.29522 -0.2916,-0.44022 v -0.001 c -0.0247,-0.0357 -0.0459,-0.0639 -0.0619,-0.0867 v -0.001 c -0.0902,-0.12808 -0.18815,-0.26103 -0.29048,-0.39519 a 1.1440154,1.1440154 0 0 0 -0.0191,-0.0259 c -1.9e-4,-2.5e-4 2e-4,-0.001 0,-0.001 a 1.1440154,1.1440154 0 0 0 -0.001,-0.001 c 0,0 -0.002,-0.003 -0.002,-0.003 -0.005,-0.007 -0.01,-0.0125 -0.0146,-0.0191 a 1.1440154,1.1440154 0 0 0 -0.002,-0.003 c -0.11737,-0.15166 -0.23743,-0.29598 -0.35578,-0.43572 h 0.001 c -0.0202,-0.0239 -0.0444,-0.0523 -0.0721,-0.0844 -0.11921,-0.13837 -0.24304,-0.27617 -0.37041,-0.41208 -0.0314,-0.0335 -0.0564,-0.0589 -0.0743,-0.0777 h 0.001 c -0.12981,-0.1363 -0.26642,-0.27492 -0.41208,-0.41545 -0.15263,-0.14722 -0.30677,-0.29271 -0.46274,-0.43459 -1.40348,-1.27655 -2.9323,-2.32941 -4.535067,-3.18738 -0.71225,-0.38126 -1.438974,-0.72407 -2.176339,-1.03132 -2.212206,-0.92174 -4.518183,-1.52377 -6.812741,-1.88135 -0.191441,-0.0298 -0.382466,-0.057 -0.573077,-0.0833 -0.190471,-0.0264 -0.380874,-0.0522 -0.571951,-0.0754 -6.865124,-0.83461 -13.449423,0.37385 -17.239579,1.87685 -0.09967,0.0395 -0.197914,0.0768 -0.296107,0.11259 -0.01585,0.006 -0.03966,0.0139 -0.07656,0.027 a 1.1440154,1.1440154 0 0 0 -0.0012,0 c -0.06815,0.0242 -0.132613,0.0473 -0.193654,0.0676 -0.02513,0.008 -0.05442,0.0179 -0.09007,0.0293 a 1.1440154,1.1440154 0 0 0 -0.0012,0 c -0.06338,0.0202 -0.12358,0.0391 -0.18239,0.0563 -0.02744,0.008 -0.04756,0.0138 -0.05855,0.0169 a 1.1440154,1.1440154 0 0 0 -0.0023,0 c -0.06965,0.0197 -0.137277,0.0382 -0.201534,0.054 a 1.1440154,1.1440154 0 0 0 -0.0012,0 c -0.01101,0.003 -0.01833,0.005 -0.02704,0.007 -0.07647,0.0185 -0.07123,0.002 -0.139611,0.0146 0.167892,-0.21814 0.29421,-0.41289 0.605732,-0.70705 1.902281,-1.79629 6.442294,-4.59409 14.096099,-7.22819 0.383561,-0.13202 0.772293,-0.25274 1.166421,-0.36817 a 1.1440154,1.1440154 0 0 0 0.350149,-0.17226 z m 33.244062,68.90652 c 0,0 -0.002,-0.003 -0.002,-0.003 1.9e-4,2.4e-4 -1.8e-4,0.001 0,0.001 a 1.1440154,1.1440154 0 0 0 0.002,0.002 z m -18.21348,-52.10379 c 0.002,0.002 0.008,0.008 0.008,0.008 -1e-4,-1.1e-4 0.0915,0.10683 0.10808,0.1261 l 0.027,0.0417 c 0.008,0.0146 0.0208,0.0387 0.0394,0.0732 -0.0579,-0.0788 -0.17927,-0.24464 -0.1824,-0.24882 z m 0.2173,0.29498 0.0101,0.0158 c -1e-5,-1e-5 -0.006,-0.008 -0.007,-0.009 a 1.1440154,1.1440154 0 0 0 -0.003,-0.007 z m 0.0507,0.11372 c 2.4e-4,4.5e-4 0.005,0.008 0.005,0.008 0,0 0.001,0.007 0.001,0.007 a 1.1440154,1.1440154 0 0 0 -0.006,-0.0146 z m 0.0202,9.97986 a 1.1440154,1.1440154 0 0 0 -0.0202,0.018 c 9e-5,-1.3e-4 0.003,-0.005 0.003,-0.005 -3e-5,2e-5 0.0144,-0.0114 0.0169,-0.0135 z m -0.35803,0.7003 a 1.1440154,1.1440154 0 0 0 -0.003,0.0428 c 0.001,-0.0159 0.002,-0.0383 0.002,-0.0383 0,0 10e-4,-0.005 10e-4,-0.005 z m -0.33552,6.8544 c 0.003,-0.0114 -0.004,0.0192 -0.0281,0.0799 -0.002,0.006 -0.01,0.0167 -0.0135,0.0248 0.0191,-0.0467 0.0394,-0.0977 0.0417,-0.10471 z m 20.29524,32.62594 c 0.009,0.007 0.0282,0.0225 0.0281,0.0225 -2e-5,-2e-5 0.0307,0.0374 0.0518,0.0631 -0.0399,-0.043 -0.0694,-0.0743 -0.0799,-0.0856 z m 0.31975,0.47175 c 3.9e-4,5.7e-4 0.005,0.0101 0.005,0.0101 0,0 10e-4,0.005 10e-4,0.006 a 1.1440154,1.1440154 0 0 0 -0.006,-0.0158 z m -1.83182,1.23961 c 0.0341,0.028 0.0936,0.0772 0.0991,0.0811 0.007,0.005 -0.0868,-0.0677 -0.0867,-0.0676 0,1e-5 -0.0108,-0.0118 -0.0124,-0.0135 z m 4.80979,3.89443 c 0.002,0.0112 0.007,0.0473 0.007,0.0473 0,-2e-5 -0.007,0.13752 -0.008,0.14186 -5.8e-4,0.006 4.9e-4,-0.10656 10e-4,-0.18915 z"
       id="path1157"
       inkscape:connector-curvature="0" />
    <path
       sodipodi:nodetypes="ccccccccccsccc"
       inkscape:connector-curvature="0"
       id="path926"
       d="m 31.012224,264.59189 c 0,0 -3.042858,4.12133 -4.467991,5.08426 -1.425133,0.96293 -2.468964,1.11974 -4.857029,3.08411 -2.388065,1.96437 -2.388065,4.42948 -2.388065,4.42948 0,0 1.656239,-2.15696 4.699092,-2.92731 0,0 -2.734715,2.04141 -2.927303,5.19982 0,0 2.580653,-2.58065 5.00723,-3.15841 0,0 -0.962926,2.77324 -2.465096,4.31392 0,0 2.773234,-0.30813 4.660573,-2.54213 0,0 -0.308137,2.27251 -1.61772,4.0443 0,0 2.580652,-0.26962 4.044304,-2.31103 1.463651,-2.04141 2.507482,-4.70183 4.510378,-6.47362 2.002889,-1.77179 6.047193,-4.54502 10.438147,-6.7405 z"
       style="opacity:1;fill:#1f9d1f;fill-opacity:1;stroke:none;stroke-width:0.15252012px;stroke-linecap:butt;stroke-linejoin:miter;stroke-opacity:1" />
    <path
       inkscape:connector-curvature="0"
       style="opacity:1;fill:#000000;fill-opacity:1;stroke:#000000;stroke-width:0.15252012px;stroke-linecap:butt;stroke-linejoin:miter;stroke-opacity:1"
       d="m 31.012334,264.59194 c 0,0 -2.164372,2.92923 -3.697423,4.42428 4.780591,0.30217 8.550065,1.08284 8.550065,1.08284 -4.248772,3.26828 -5.147343,7.95261 -6.018884,9.45058 -0.871546,1.49797 -3.190114,2.5702 -3.190114,2.5702 0,0 2.580514,-0.26962 4.044166,-2.31103 1.463651,-2.04141 2.507471,-4.70168 4.510366,-6.47347 2.00289,-1.77179 6.047141,-4.5452 10.438096,-6.74067 z"
       id="path922" />
    <path
       inkscape:connector-curvature="0"
       style="opacity:1;fill:#000000;fill-opacity:1;stroke:none;stroke-width:0.15252012px;stroke-linecap:butt;stroke-linejoin:miter;stroke-opacity:1"
       d="m 40.331849,244.19774 -6.645645,2.2878 c 0,0 -3.81292,5.50154 -6.37308,6.75438 -0.827436,0.40492 -1.581005,0.73512 -2.341417,1.01968 -0.899494,-0.9154 -1.335448,-1.8639 -1.335448,-1.8639 -0.394918,1.08943 -0.531139,2.31491 -0.531139,2.31491 -0.885157,-1.0622 -1.307145,-3.07751 -1.307145,-3.07751 -0.994106,1.47073 -1.334548,3.69057 -1.334548,3.69057 -0.571952,-0.95325 -0.844523,-2.41054 -0.844523,-2.41054 -0.765819,0.8114 -1.135937,2.20088 -1.300296,3.03998 -3.253299,1.01553 -6.584281,3.76892 -6.584281,3.76892 v 1.85198 l 4.90239,1.52521 39.001664,-3.70398 4.902384,-8.66088 -4.357842,-6.20984 z"
       id="path917" />
    <path
       style="opacity:1;fill:#000000;fill-opacity:1;stroke:none;stroke-width:0.15252012px;stroke-linecap:butt;stroke-linejoin:miter;stroke-opacity:1"
       d="m 32.552907,238.43874 c 0,0 3.88586,-3.933 5.546474,-4.19836 1.395445,-0.22299 3.465296,-0.094 4.583536,0.50072 1.111703,0.5912 2.465102,3.73616 2.465102,3.73616 l -6.201262,3.62062 z"
       id="path915"
       inkscape:connector-curvature="0"
       sodipodi:nodetypes="cssccc" />
    <path
       inkscape:connector-curvature="0"
       style="color:#000000;font-style:normal;font-variant:normal;font-weight:normal;font-stretch:normal;font-size:medium;line-height:normal;font-family:sans-serif;font-variant-ligatures:normal;font-variant-position:normal;font-variant-caps:normal;font-variant-numeric:normal;font-variant-alternates:normal;font-feature-settings:normal;text-indent:0;text-align:start;text-decoration:none;text-decoration-line:none;text-decoration-style:solid;text-decoration-color:#000000;letter-spacing:normal;word-spacing:normal;text-transform:none;writing-mode:lr-tb;direction:ltr;text-orientation:mixed;dominant-baseline:auto;baseline-shift:baseline;text-anchor:start;white-space:normal;shape-padding:0;clip-rule:nonzero;display:inline;overflow:visible;visibility:visible;opacity:1;isolation:auto;mix-blend-mode:normal;color-interpolation:sRGB;color-interpolation-filters:linearRGB;solid-color:#000000;solid-opacity:1;vector-effect:none;fill:#1f9d1f;fill-opacity:1;fill-rule:nonzero;stroke:none;stroke-width:2.24204636;stroke-linecap:butt;stroke-linejoin:miter;stroke-miterlimit:4;stroke-dasharray:none;stroke-dashoffset:0;stroke-opacity:1;color-rendering:auto;image-rendering:auto;shape-rendering:auto;text-rendering:auto;enable-background:accumulate"
       d="m 98.171535,173.22524 -4.828212,3.7719 -3.456729,-3.63398 -0.794169,0.57642 -5.503252,3.99383 0.84126,2.01344 c 1.784074,-0.2951 5.053006,-0.54361 8.73385,-0.32113 2.516567,0.15211 5.224316,0.52237 7.794017,1.2282 2.4432,0.6711 4.75604,1.64568 6.67127,2.99709 2.03533,1.43614 3.61588,3.28154 4.53003,5.70758 l -1.68041,6.01949 1.69649,3.83177 -5.17645,5.2956 -0.58029,7.38829 -8.568536,2.99649 -1.640478,7.04541 -8.48334,-0.75128 -4.087353,8.56079 -8.934646,-1.51447 -4.911924,7.28015 -6.695399,-1.97055 -7.938193,8.48245 3.45643,-0.71286 c 0,0 3.636878,-0.78632 8.909017,-2.43764 l -0.06016,0.0894 3.161799,-1.08314 3.332521,-1.14121 -0.07895,-0.0232 c 2.534335,-0.94642 5.252903,-2.0723 8.034121,-3.35574 l -0.04439,0.0932 2.917544,-1.45669 3.072453,-1.53444 -0.107843,-0.0182 c 2.559226,-1.39172 5.101019,-2.94477 7.561365,-4.65455 l -0.03038,0.13018 2.477853,-1.88803 2.300619,-1.75309 -0.123634,-0.011 c 2.196764,-1.83397 4.276154,-3.80787 6.135654,-5.96794 l -0.0247,0.31635 2.33577,-3.24224 0.005,-0.006 v -3e-4 l 2.08136,-2.88865 -0.25678,0.0897 c 0.93144,-1.55573 1.76711,-3.17432 2.45969,-4.87498 0.41278,-1.0136 0.76339,-1.98791 1.07211,-2.93601 l 0.10664,0.24099 0.7495,-3.29735 0.87937,-3.8702 -0.32382,0.33126 c 0.23399,-2.68233 -0.0299,-5.04342 -0.7182,-7.09666 -0.0179,-0.1568 -0.1176,-0.99984 -0.38636,-2.1463 -0.29485,-1.25778 -0.75046,-2.79238 -1.6259,-4.02272 l -0.2398,-0.33721 -3.08167,-0.77065 -2.14781,-5.39391 -5.25776,1.83769 z"
       id="path948" />
    <path
       style="opacity:1;fill:#1f9d1f;fill-opacity:1;stroke:none;stroke-width:0.15252012px;stroke-linecap:butt;stroke-linejoin:miter;stroke-opacity:1"
       d="m 55.965081,239.13189 c 0,0 18.084522,-4.24877 31.702389,-13.50893 13.61787,-9.26014 24.40323,-25.49264 15.14307,-34.42596 -9.260137,-8.93333 -24.838986,-7.0813 -31.157683,-4.57561 -6.31868,2.50569 -4.139822,-3.92194 12.637394,-9.69592 16.777209,-5.77398 34.208079,6.31869 36.604829,19.50078 2.39675,13.18211 0.7626,16.66828 1.41626,21.46177 0.65365,4.79348 2.94145,9.04226 1.30731,15.14307 -1.63415,6.1008 -16.34144,23.85851 -24.838996,28.97882 -8.497549,5.12032 -16.559334,11.87478 -38.347913,3.59512 z"
       id="path950"
       inkscape:connector-curvature="0"
       sodipodi:nodetypes="cscssscssc" />
    <path
       inkscape:connector-curvature="0"
       style="opacity:1;fill:#000000;fill-opacity:1;stroke:none;stroke-width:0.15252012px;stroke-linecap:butt;stroke-linejoin:miter;stroke-opacity:1"
       d="m 63.020112,254.38471 -3.527922,5.65249 0.939551,5.56787 c 1.227674,0.46652 2.409601,0.88277 3.552646,1.25681 1.189051,-1.50226 2.200123,-3.43896 2.347978,-5.77492 0.385175,-6.08571 -3.312253,-6.70225 -3.312253,-6.70225 z"
       id="path952" />
    <path
       inkscape:connector-curvature="0"
       style="opacity:1;fill:#000000;fill-opacity:1;stroke:none;stroke-width:0.15252012px;stroke-linecap:butt;stroke-linejoin:miter;stroke-opacity:1"
       d="m 90.064142,261.68304 c 0,0 -5.759831,1.46063 -9.316535,7.71835 4.162275,-0.32266 7.509247,-1.49213 10.492299,-2.97742 l 0.513874,-3.4883 z"
       id="path958" />
    <path
       inkscape:connector-curvature="0"
       style="opacity:1;fill:#000000;fill-opacity:1;stroke:#000000;stroke-width:0.15252012px;stroke-linecap:butt;stroke-linejoin:miter;stroke-opacity:1"
       d="m 108.93255,238.20775 c 0,0 -3.0814,15.63787 -17.871962,24.34275 -14.790594,8.70487 -30.043493,2.15703 -30.043493,2.15703 l -0.720596,0.0962 0.135242,0.80133 c 21.788585,8.27967 29.850248,1.52508 38.347786,-3.59524 4.985253,-3.00394 12.105403,-10.35653 17.471603,-17.15405 z"
       id="path968" />
    <path
       inkscape:connector-curvature="0"
       style="opacity:1;fill:#000000;fill-opacity:1;stroke:none;stroke-width:0.15252012px;stroke-linecap:butt;stroke-linejoin:miter;stroke-opacity:1"
       d="m 111.14499,221.57561 c -2.69791,-0.0285 -5.96807,0.66656 -9.06869,3.22794 -7.087171,5.85461 2.1571,18.1032 6.23992,21.0305 1.4425,1.03426 3.16189,2.00778 4.78501,2.83831 1.78999,-2.07893 3.48599,-4.19025 4.97537,-6.19703 l -0.36224,-4.96107 -9.55216,-10.09135 8.97427,-4.57799 c 0,0 -2.52275,-1.23271 -5.99148,-1.26931 z"
       id="path973" />
    <path
       inkscape:connector-curvature="0"
       style="opacity:1;fill:#000000;fill-opacity:1;stroke:none;stroke-width:0.15252012px;stroke-linecap:butt;stroke-linejoin:miter;stroke-opacity:1"
       d="m 116.00151,230.31871 c -0.3519,0.002 -0.5535,0.0432 -0.5535,0.0432 l 0.80312,14.49389 c 2.96577,-3.75685 5.39583,-7.34322 6.63135,-9.93228 -2.68344,-4.15921 -5.67091,-4.61237 -6.88097,-4.6048 z"
       id="path978" />
    <path
       inkscape:connector-curvature="0"
       style="opacity:1;fill:#000000;fill-opacity:1;stroke:#000000;stroke-width:0.15252012px;stroke-linecap:butt;stroke-linejoin:miter;stroke-opacity:1"
       d="m 120.32062,194.12616 c 2.13863,10.4473 0.61773,14.52725 0.55198,20.50889 -0.077,7.01012 1.69495,6.31697 1.46384,11.24717 -0.2311,4.93019 -4.16005,7.16397 -4.16005,7.16397 l -1.92526,11.80959 c 3.78067,-4.7891 6.69199,-9.30313 7.36744,-11.82478 1.63414,-6.1008 -0.6535,-10.3495 -1.30716,-15.14298 -0.65365,-4.79349 0.98028,-8.27974 -1.41647,-21.46185 -0.1403,-0.77167 -0.33412,-1.53918 -0.57432,-2.30001 z"
       id="path983" />
    <path
       inkscape:connector-curvature="0"
       style="opacity:1;fill:#000000;fill-opacity:1;stroke:#000000;stroke-width:0.15252012px;stroke-linecap:butt;stroke-linejoin:miter;stroke-opacity:1"
       d="m 84.820652,182.43483 c -5.458236,0.0344 -10.974566,2.27219 -15.416733,4.74213 0.544911,-0.006 1.300509,-0.17942 2.249076,-0.55557 6.318697,-2.50569 21.897454,-4.35772 31.157595,4.57561 5.56687,5.37039 3.88765,13.37856 -1.29464,20.92415 3.68447,-4.35771 7.56335,-10.63261 6.18393,-16.66759 -2.46509,-10.78481 -10.630778,-13.09576 -22.879228,-13.01873 z"
       id="path988" />
    <g
       id="g889"
       style="opacity:1;fill:#000000;fill-opacity:1;stroke:none"
       transform="matrix(0.57645404,0,0,0.57645404,-88.275386,86.336408)">
      <path
         inkscape:connector-curvature="0"
         id="path829"
         transform="matrix(0.26458333,0,0,0.26458333,0,164.70832)"
         d="m 994.74805,352.26562 -33.14063,35.41211 c 0,0 32.38984,-6.68015 77.85158,-22.25195 z"
         style="fill:#000000;fill-opacity:1;stroke:none;stroke-width:0.99999994px;stroke-linecap:butt;stroke-linejoin:miter;stroke-opacity:1" />
      <path
         inkscape:connector-curvature="0"
         id="path834"
         transform="matrix(0.26458333,0,0,0.26458333,0,164.70832)"
         d="m 1072.0234,317.16211 -32.5644,48.26367 c 27.3214,-9.35829 59.3562,-21.92655 91.9433,-38.19922 z"
         style="fill:#000000;fill-opacity:1;stroke:none;stroke-width:0.99999994px;stroke-linecap:butt;stroke-linejoin:miter;stroke-opacity:1" />
      <path
         inkscape:connector-curvature="0"
         id="path839"
         transform="matrix(0.26458333,0,0,0.26458333,0,164.70832)"
         d="m 1158.3926,270.69531 -26.9903,56.53125 c 28.4877,-14.22555 57.3739,-31.28878 83.8887,-51.49218 z"
         style="fill:#000000;fill-opacity:1;stroke:none;stroke-width:0.99999994px;stroke-linecap:butt;stroke-linejoin:miter;stroke-opacity:1" />
      <path
         inkscape:connector-curvature="0"
         id="path844"
         transform="matrix(0.26458333,0,0,0.26458333,0,164.70832)"
         d="m 1283.4688,207.36328 -56.8907,19.89649 -11.2871,48.47461 c 25.8543,-19.70011 49.4522,-42.37961 68.1778,-68.3711 z"
         style="fill:#000000;fill-opacity:1;stroke:none;stroke-width:0.99999994px;stroke-linecap:butt;stroke-linejoin:miter;stroke-opacity:1" />
      <path
         inkscape:connector-curvature="0"
         id="path849"
         transform="matrix(0.26458333,0,0,0.26458333,0,164.70832)"
         d="m 1322.9961,120.42578 -35.5566,36.375 -3.9707,50.56055 c 10.8983,-15.12742 20.1522,-31.36975 27.246,-48.78906 5.5885,-13.72266 9.6139,-26.40892 12.2813,-38.14649 z"
         style="fill:#000000;fill-opacity:1;stroke:none;stroke-width:0.99999994px;stroke-linecap:butt;stroke-linejoin:miter;stroke-opacity:1" />
      <path
         inkscape:connector-curvature="0"
         id="path854"
         transform="matrix(0.26458333,0,0,0.26458333,0,164.70832)"
         d="m 1321.8945,53.871094 -10.9687,39.289062 12.0703,27.265624 c 6.115,-26.908405 5.0359,-48.802354 -1.1016,-66.554686 z"
         style="fill:#000000;fill-opacity:1;stroke:none;stroke-width:0.99999994px;stroke-linecap:butt;stroke-linejoin:miter;stroke-opacity:1" />
      <path
         inkscape:connector-curvature="0"
         id="path859"
         transform="matrix(0.26458333,0,0,0.26458333,0,164.70832)"
         d="m 1288.6914,10.830078 c 14.9215,10.52871 26.8056,24.536527 33.2031,43.041016 0,0 -1.206,-26.388083 -10.5499,-39.520089 z"
         style="fill:#000000;fill-opacity:1;stroke:none;stroke-width:0.99999994px;stroke-linecap:butt;stroke-linejoin:miter;stroke-opacity:1"
         sodipodi:nodetypes="cccc" />
      <path
         inkscape:connector-curvature="0"
         id="path864"
         transform="matrix(0.26458333,0,0,0.26458333,0,164.70832)"
         d="m 1275.8223,-21.492188 -33.1621,11.5898442 c 16.6228,4.5659334 32.5641,11.2299365 46.0312,20.7324218 z"
         style="fill:#000000;fill-opacity:1;stroke:none;stroke-width:0.99999994px;stroke-linecap:butt;stroke-linejoin:miter;stroke-opacity:1" />
      <path
         inkscape:connector-curvature="0"
         id="path869"
         transform="matrix(0.26458333,0,0,0.26458333,0,164.70832)"
         d="m 1220.7695,-42.199219 -30.7148,23.996094 c 16.8966,1.021264 35.1217,3.498371 52.6055,8.3007812 z"
         style="fill:#000000;fill-opacity:1;stroke:none;stroke-width:0.99999994px;stroke-linecap:butt;stroke-linejoin:miter;stroke-opacity:1" />
      <path
         inkscape:connector-curvature="0"
         id="path874"
         transform="matrix(0.26458333,0,0,0.26458333,0,164.70832)"
         d="m 1167.2305,-42.199219 -36.0821,26.185547 c 12.4433,-2.058164 34.1931,-3.68317 58.9063,-2.189453 z"
         style="fill:#000000;fill-opacity:1;stroke:none;stroke-width:0.99999994px;stroke-linecap:butt;stroke-linejoin:miter;stroke-opacity:1" />
    </g>
    <path
       inkscape:connector-curvature="0"
       style="opacity:1;fill:#1f9d1f;fill-opacity:1;stroke:none;stroke-width:0.15252012px;stroke-linecap:butt;stroke-linejoin:miter;stroke-opacity:1"
       d="m 12.709624,231.45605 c -6.35393,0.0727 -6.9006102,4.61855 -6.6950986,8.52325 0.027612,0.52432 0.345613,0.92696 0.8617988,1.24012 0.023231,1.37131 0.1664511,3.90754 0.8329012,6.98346 0,0 1.0978394,-3.8326 2.2726124,-5.85475 0,0 0.3658582,1.67555 1.6947002,3.58215 0,0 1.07847,-2.1184 2.253243,-3.2354 0,0 0.115695,1.77182 1.290468,3.90952 0,0 1.455944,-1.96019 3.435873,-3.27114 0,0 0.01147,3.38653 1.032187,7.5849 0,0 1.380504,-3.66989 2.634845,-6.06923 0.392617,0.18844 0.801749,0.36579 1.255315,0.5228 1.881044,0.65113 5.596095,0.28361 7.827975,0.61931 0.153175,1.12126 0.432219,2.84251 0.857631,4.27235 0,0 1.039842,-1.48277 2.561266,-2.50347 0,0 -0.153856,1.92586 0.423895,4.94946 0,0 1.184319,-2.27243 2.705743,-3.4472 0,0 0.548969,1.71394 0.760816,3.50499 0,0 1.353491,-1.46508 2.303591,-3.35038 3.815514,-0.38229 10.490893,-3.48176 16.299993,-0.0393 0,0 -3.081274,0.23118 -5.700445,1.77185 -2.619165,1.5407 -4.23692,6.23976 -9.629318,7.85748 -1.383617,0.41508 -2.505397,0.61859 -3.47192,0.70004 0.179831,-1.90853 -0.174268,-3.08973 -0.174268,-3.08973 -0.762596,1.675 -2.287802,2.83265 -2.287802,2.83265 0.449416,-2.26056 -0.02709,-4.24882 -0.02709,-4.24882 -1.906501,3.2683 -3.35008,3.98995 -3.35008,3.98995 0.05448,-1.47073 -0.626467,-2.90056 -0.626467,-2.90056 -0.702669,1.6192 -1.559314,2.77554 -2.176391,3.47906 -2.263135,0.57608 -3.226995,1.56481 -5.578605,1.75548 -2.850265,0.2311 -2.95258,0.33238 -5.95692,0.10128 0,0 0.577693,-1.46366 0.53918,-3.08138 0,0 -1.502147,2.04136 -2.965798,2.85022 0,0 -0.539186,-1.34827 -0.539186,-3.27412 0,0 -1.694729,1.96447 -2.195454,3.04295 0,0 -0.808829,-1.92572 -1.039935,-3.27382 0,0 -1.001428,1.34802 -1.42511,2.73464 0,0 -1.2325219,-1.30947 -1.8102845,-3.00423 0,0 -0.8089841,2.54215 -0.4623277,4.23691 0.3466507,1.69475 3.3511352,5.35369 13.4426262,4.96852 10.09149,-0.38518 22.031733,2.88882 28.964821,2.42661 6.933087,-0.4622 16.484671,-3.55264 13.341642,-16.01252 -1.525205,-6.04634 -3.081545,-7.37422 -5.123131,-10.79914 -1.389024,-2.3302 -2.903248,-5.85076 -4.443937,-6.54407 -1.540682,-0.69331 -5.854513,-0.69337 -7.626302,-0.23116 -1.771789,0.4622 -1.38651,1.46365 -4.544925,1.92586 -3.158398,0.46221 -16.331462,-0.61646 -19.335796,-1.84901 -3.00434,-1.23255 -1.311762,-3.33313 -8.242642,-4.15975 -0.787194,-0.0939 -1.506579,-0.13412 -2.163875,-0.1266 z"
       id="path899" />
    <path
       inkscape:connector-curvature="0"
       style="opacity:1;fill:#000000;fill-opacity:1;stroke:none;stroke-width:2.28780198;stroke-linecap:round;stroke-linejoin:round;stroke-miterlimit:4;stroke-dasharray:none;stroke-opacity:1;paint-order:normal"
       d="m 54.777315,239.09354 a 1.5021688,1.9643746 0 0 1 -1.502171,1.96438 1.5021688,1.9643746 0 0 1 -1.50217,-1.96438 1.5021688,1.9643746 0 0 1 1.50217,-1.96437 1.5021688,1.9643746 0 0 1 1.502171,1.96437 z"
       id="path913" />
    <path
       style="opacity:1;fill:#1f9d1f;fill-opacity:1;stroke:none;stroke-width:0.15252012px;stroke-linecap:butt;stroke-linejoin:miter;stroke-opacity:1"
       d="m 90.064216,261.68308 c 0,0 -2.723566,2.39675 -4.085358,4.52114 -1.361786,2.12439 -2.995936,7.2447 -4.521135,8.93332 -1.525205,1.68861 -6.779768,4.20682 -6.903291,9.85198 0,0 2.484212,-3.07319 4.421397,-3.97052 0,0 -2.101377,1.84256 -2.124775,6.04233 0,0 2.59526,-3.53861 4.704015,-4.27226 0,0 -0.645669,2.71127 -2.291624,5.31929 0,0 3.524106,-1.08665 4.94273,-3.85577 0,0 -0.269994,2.62355 -1.604542,4.77518 0,0 3.322756,-1.08943 4.493897,-3.51342 1.171136,-2.42397 1.116661,-2.85975 2.315034,-4.22154 1.198373,-1.36178 8.061779,-5.61056 11.003236,-10.6764 2.94146,-5.06585 3.813,-13.01869 1.5252,-14.87072 -2.287799,-1.85202 -6.427627,-1.74309 -8.824373,-2.34227 -2.396746,-0.59919 -6.209748,-3.15935 -13.018684,-0.70813 z"
       id="path933"
       inkscape:connector-curvature="0"
       sodipodi:nodetypes="ccsccccc" />
    <path
       inkscape:connector-curvature="0"
       style="opacity:1;fill:#000000;fill-opacity:1;stroke:#000000;stroke-width:0.15252012px;stroke-linecap:butt;stroke-linejoin:miter;stroke-opacity:1"
       d="m 85.649691,251.65276 c -1.590857,0 -3.426085,0.27661 -5.553881,1.04261 6.522266,-1.11179 9.616637,1.30418 12.389882,2.07452 2.773229,0.77034 6.085706,0.23126 7.973048,2.50377 1.88733,2.27251 0.19247,9.05149 -1.617838,12.36396 -1.810308,3.31248 -9.457576,10.18438 -10.383586,11.05592 -0.92601,0.87155 -1.171233,3.24119 -2.396826,5.12045 -1.225605,1.87927 -3.458823,3.21364 -3.458823,3.21364 0,0 3.322854,-1.08934 4.493996,-3.51332 1.171124,-2.42398 1.116533,-2.85962 2.314901,-4.22141 1.198367,-1.36179 8.061744,-5.61057 11.003196,-10.67641 2.94146,-5.06585 3.81301,-13.01868 1.52521,-14.87071 -2.287804,-1.85203 -6.427689,-1.74314 -8.824424,-2.34232 -1.647765,-0.41194 -3.964972,-1.7507 -7.464855,-1.7507 z"
       id="path935" />
    <path
       style="opacity:1;fill:#1f9d1f;fill-opacity:1;stroke:none;stroke-width:0.15252012px;stroke-linecap:butt;stroke-linejoin:miter;stroke-opacity:1"
       d="m 117.13654,222.84492 c 0,0 -6.20975,-1.30731 -11.92925,1.74309 -5.719508,3.0504 -2.6691,11.33007 1.9065,15.90567 4.5756,4.5756 6.86341,6.04633 7.08129,8.33414 0.21789,2.2878 -2.88699,5.22926 -1.79755,9.69592 0,0 1.03496,-2.77805 3.0504,-4.84796 0,0 -0.7626,2.39674 0.27236,5.77397 0,0 0.98048,-2.6691 2.6691,-4.73901 0,0 -0.32683,2.6691 1.30731,5.50162 0,0 0.81708,-3.81301 2.34228,-5.82845 0,0 -0.32683,3.26828 0.70813,5.3382 0,0 1.25284,-3.75853 2.56016,-5.99186 1.30731,-2.23333 1.96097,-3.92195 1.5252,-5.82845 -0.43577,-1.9065 -3.59512,-5.44714 -5.01138,-7.78942 -1.41625,-2.34227 -1.85203,-6.80893 -6.37316,-9.75039 z"
       id="path824"
       inkscape:connector-curvature="0"
       sodipodi:nodetypes="ccsscccccccccscc" />
    <path
       inkscape:connector-curvature="0"
       style="opacity:1;fill:#000000;fill-opacity:1;stroke:#000000;stroke-width:0.15252012px;stroke-linecap:butt;stroke-linejoin:miter;stroke-opacity:1"
       d="m 122.37041,240.95967 c 0.91658,2.03552 3.05144,6.90933 3.11235,8.34094 0.077,1.8103 -0.79688,3.3125 -1.68278,5.39242 -0.8859,2.07993 -1.05274,5.029 -1.05274,5.029 0,0 1.25276,-3.75845 2.56007,-5.99178 1.30732,-2.23333 1.96098,-3.92203 1.5252,-5.82854 -0.38597,-1.68861 -2.90649,-4.65761 -4.4621,-6.94204 z"
       id="path826" />
  </g>
</svg>
