<?xml version="1.0" encoding="UTF-8" standalone="no"?>
<!-- Created with Inkscape (http://www.inkscape.org/) -->

<svg
   xmlns:dc="http://purl.org/dc/elements/1.1/"
   xmlns:cc="http://creativecommons.org/ns#"
   xmlns:rdf="http://www.w3.org/1999/02/22-rdf-syntax-ns#"
   xmlns:svg="http://www.w3.org/2000/svg"
   xmlns="http://www.w3.org/2000/svg"
   xmlns:sodipodi="http://sodipodi.sourceforge.net/DTD/sodipodi-0.dtd"
   xmlns:inkscape="http://www.inkscape.org/namespaces/inkscape"
   width="500"
   height="500"
   viewBox="0 0 132.29166 132.29167"
   version="1.1"
   id="svg8"
   inkscape:version="0.92.3 (2405546, 2018-03-11)"
   sodipodi:docname="mask-logo.svg">
  <defs
     id="defs2">
    <clipPath
       clipPathUnits="userSpaceOnUse"
       id="clipPath919">
      <rect
         style="opacity:0.19200003;fill:#00ff00;fill-opacity:1;stroke:none;stroke-width:5.54963541;stroke-linecap:round;stroke-linejoin:round;stroke-miterlimit:4;stroke-dasharray:none;stroke-opacity:1;paint-order:normal"
         id="rect921"
         width="65.748306"
         height="143.79102"
         x="159.82718"
         y="140.38005"
         transform="rotate(-91.639753)" />
    </clipPath>
    <clipPath
       clipPathUnits="userSpaceOnUse"
       id="clipPath919-753">
      <rect
         style="opacity:0.19200003;fill:#00ff00;fill-opacity:1;stroke:none;stroke-width:5.54963541;stroke-linecap:round;stroke-linejoin:round;stroke-miterlimit:4;stroke-dasharray:none;stroke-opacity:1;paint-order:normal"
         id="rect921-56"
         width="65.748306"
         height="143.79102"
         x="159.82718"
         y="140.38005"
         transform="rotate(-91.639753)" />
    </clipPath>
    <clipPath
       clipPathUnits="userSpaceOnUse"
       id="clipPath919-7">
      <rect
         style="opacity:0.19200003;fill:#00ff00;fill-opacity:1;stroke:none;stroke-width:5.54963541;stroke-linecap:round;stroke-linejoin:round;stroke-miterlimit:4;stroke-dasharray:none;stroke-opacity:1;paint-order:normal"
         id="rect921-5"
         width="65.748306"
         height="143.79102"
         x="159.82718"
         y="140.38005"
         transform="rotate(-91.639753)" />
    </clipPath>
    <clipPath
       id="clipPath919-75"
       clipPathUnits="userSpaceOnUse">
      <rect
         transform="rotate(-91.639753)"
         y="140.38005"
         x="159.82718"
         height="143.79102"
         width="65.748306"
         id="rect921-35"
         style="opacity:0.19200003;fill:#00ff00;fill-opacity:1;stroke:none;stroke-width:5.54963541;stroke-linecap:round;stroke-linejoin:round;stroke-miterlimit:4;stroke-dasharray:none;stroke-opacity:1;paint-order:normal" />
    </clipPath>
    <clipPath
       id="clipPath919-9"
       clipPathUnits="userSpaceOnUse">
      <rect
         transform="rotate(-91.639753)"
         y="140.38005"
         x="159.82718"
         height="143.79102"
         width="65.748306"
         id="rect921-3"
         style="opacity:0.19200003;fill:#00ff00;fill-opacity:1;stroke:none;stroke-width:5.54963541;stroke-linecap:round;stroke-linejoin:round;stroke-miterlimit:4;stroke-dasharray:none;stroke-opacity:1;paint-order:normal" />
    </clipPath>
    <clipPath
       clipPathUnits="userSpaceOnUse"
       id="clipPath919-7-6">
      <rect
         style="opacity:0.19200003;fill:#00ff00;fill-opacity:1;stroke:none;stroke-width:5.54963541;stroke-linecap:round;stroke-linejoin:round;stroke-miterlimit:4;stroke-dasharray:none;stroke-opacity:1;paint-order:normal"
         id="rect921-5-2"
         width="65.748306"
         height="143.79102"
         x="159.82718"
         y="140.38005"
         transform="rotate(-91.639753)" />
    </clipPath>
  </defs>
  <sodipodi:namedview
     id="base"
     pagecolor="#ffffff"
     bordercolor="#666666"
     borderopacity="1.0"
     inkscape:pageopacity="0.0"
     inkscape:pageshadow="2"
     inkscape:zoom="1.4142136"
     inkscape:cx="415.45946"
     inkscape:cy="228.59799"
     inkscape:document-units="mm"
     inkscape:current-layer="layer1"
     showgrid="false"
     borderlayer="true"
     units="px"
     inkscape:window-width="1920"
     inkscape:window-height="1029"
     inkscape:window-x="1920"
     inkscape:window-y="0"
     inkscape:window-maximized="1"
     inkscape:snap-global="false" />
  <metadata
     id="metadata5">
    <rdf:RDF>
      <cc:Work
         rdf:about="">
        <dc:format>image/svg+xml</dc:format>
        <dc:type
           rdf:resource="http://purl.org/dc/dcmitype/StillImage" />
        <dc:title />
      </cc:Work>
    </rdf:RDF>
  </metadata>
  <g
     inkscape:label="Layer 1"
     inkscape:groupmode="layer"
     id="layer1"
     transform="translate(0,-164.70832)">
    <rect
       style="opacity:1;fill:#e2610c;fill-opacity:1;stroke:none;stroke-width:4.23333311;stroke-linecap:round;stroke-linejoin:round;stroke-miterlimit:4;stroke-dasharray:none;stroke-opacity:1;paint-order:normal"
       id="rect1456"
       width="140.85104"
       height="141.38557"
       x="-4.0090427"
       y="161.22707" />
    <path
       style="color:#000000;font-style:normal;font-variant:normal;font-weight:normal;font-stretch:normal;font-size:medium;line-height:normal;font-family:sans-serif;font-variant-ligatures:normal;font-variant-position:normal;font-variant-caps:normal;font-variant-numeric:normal;font-variant-alternates:normal;font-feature-settings:normal;text-indent:0;text-align:start;text-decoration:none;text-decoration-line:none;text-decoration-style:solid;text-decoration-color:#000000;letter-spacing:normal;word-spacing:normal;text-transform:none;writing-mode:lr-tb;direction:ltr;text-orientation:mixed;dominant-baseline:auto;baseline-shift:baseline;text-anchor:start;white-space:normal;shape-padding:0;clip-rule:nonzero;display:inline;overflow:visible;visibility:visible;opacity:1;isolation:auto;mix-blend-mode:normal;color-interpolation:sRGB;color-interpolation-filters:linearRGB;solid-color:#000000;solid-opacity:1;vector-effect:none;fill:#1d1d1d;fill-opacity:1;fill-rule:nonzero;stroke:#ffffff;stroke-width:3.86368656;stroke-linecap:butt;stroke-linejoin:miter;stroke-miterlimit:4;stroke-dasharray:none;stroke-dashoffset:0;stroke-opacity:1;color-rendering:auto;image-rendering:auto;shape-rendering:auto;text-rendering:auto;enable-background:accumulate"
       d="m 60.047416,169.09709 a 1.8735073,1.8735073 0 0 0 -1.872479,1.87298 v 1.30651 c -9.390556,0.80383 -16.386674,3.46656 -21.527976,7.85666 -2.305089,1.9683 -4.210259,4.25894 -5.793016,6.83038 l -1.321097,-0.50007 a 1.8735072,1.8735072 0 0 0 -0.547356,-0.11772 1.8735072,1.8735072 0 0 0 -1.867952,1.20489 l -4.131328,10.90887 a 1.8735072,1.8735072 0 0 0 1.090184,2.4143 l 1.340216,0.50762 c -0.08207,0.37456 -0.165786,0.74754 -0.24299,1.12741 -1.48771,7.32003 -2.268203,14.17556 -2.560195,20.24662 h -1.090686 a 1.8735073,1.8735073 0 0 0 -1.87248,1.87248 v 11.6635 a 1.8735073,1.8735073 0 0 0 1.87248,1.87299 h 1.450391 c 0.211285,1.91392 0.479252,3.59868 0.783805,5.02329 0.954016,4.46255 4.554857,12.15719 8.6289,19.81699 4.074044,7.65981 8.431407,14.91187 11.484407,18.16033 5.48078,5.83172 10.209428,8.74999 14.007875,10.17236 3.798446,1.42238 6.753914,1.31406 8.00105,1.31406 1.31267,0 4.26552,0.10964 8.050856,-1.31406 3.785334,-1.42369 8.479808,-4.34332 13.95807,-10.17236 3.053005,-3.24846 7.41087,-10.50052 11.484908,-18.16033 4.074047,-7.6598 7.674387,-15.35445 8.628397,-19.81699 0.30455,-1.42461 0.57252,-3.10937 0.7838,-5.02329 h 1.4504 a 1.8735073,1.8735073 0 0 0 1.87298,-1.87299 v -11.6635 a 1.8735073,1.8735073 0 0 0 -1.87298,-1.87248 h -1.09019 c -0.29199,-6.07106 -1.07298,-12.92659 -2.5607,-20.24662 -0.0772,-0.37986 -0.16042,-0.75286 -0.24248,-1.12741 l 1.34021,-0.50762 a 1.8735072,1.8735072 0 0 0 1.08968,-2.4143 l -4.13082,-10.90887 a 1.8735072,1.8735072 0 0 0 -1.86846,-1.20489 1.8735072,1.8735072 0 0 0 -0.54685,0.11772 l -1.32059,0.50007 c -1.582941,-2.57237 -3.487986,-4.86371 -5.79352,-6.83239 -5.141601,-4.39038 -12.137086,-7.05199 -21.527976,-7.85516 v -1.306 a 1.8735073,1.8735073 0 0 0 -1.872984,-1.87298 z"
       id="path866"
       inkscape:connector-curvature="0" />
    <path
       style="color:#000000;font-style:normal;font-variant:normal;font-weight:normal;font-stretch:normal;font-size:medium;line-height:normal;font-family:sans-serif;font-variant-ligatures:normal;font-variant-position:normal;font-variant-caps:normal;font-variant-numeric:normal;font-variant-alternates:normal;font-feature-settings:normal;text-indent:0;text-align:start;text-decoration:none;text-decoration-line:none;text-decoration-style:solid;text-decoration-color:#000000;letter-spacing:normal;word-spacing:normal;text-transform:none;writing-mode:lr-tb;direction:ltr;text-orientation:mixed;dominant-baseline:auto;baseline-shift:baseline;text-anchor:start;white-space:normal;shape-padding:0;clip-rule:nonzero;display:inline;overflow:visible;visibility:visible;opacity:1;isolation:auto;mix-blend-mode:normal;color-interpolation:sRGB;color-interpolation-filters:linearRGB;solid-color:#000000;solid-opacity:1;vector-effect:none;fill:#000000;fill-opacity:1;fill-rule:nonzero;stroke:none;stroke-width:3.74663997;stroke-linecap:round;stroke-linejoin:round;stroke-miterlimit:4;stroke-dasharray:none;stroke-dashoffset:0;stroke-opacity:1;paint-order:normal;color-rendering:auto;image-rendering:auto;shape-rendering:auto;text-rendering:auto;enable-background:accumulate"
       d="m 60.047416,169.09709 a 1.8735073,1.8735073 0 0 0 -1.872479,1.87298 v 1.30651 c -9.390556,0.80383 -16.386674,3.46656 -21.527976,7.85666 -2.305089,1.9683 -4.210259,4.25894 -5.793016,6.83038 l -1.321097,-0.50007 a 1.8735072,1.8735072 0 0 0 -0.547356,-0.11772 1.8735072,1.8735072 0 0 0 -1.867952,1.20489 l -4.131328,10.90887 a 1.8735072,1.8735072 0 0 0 1.090184,2.4143 l 1.340216,0.50762 c -0.08207,0.37456 -0.165786,0.74754 -0.24299,1.12741 -1.48771,7.32003 -2.268203,14.17556 -2.560195,20.24662 h -1.090686 a 1.8735073,1.8735073 0 0 0 -1.87248,1.87248 v 11.6635 a 1.8735073,1.8735073 0 0 0 1.87248,1.87299 h 1.450391 c 0.211285,1.91392 0.479252,3.59868 0.783805,5.02329 0.954016,4.46255 4.554857,12.15719 8.6289,19.81699 4.074044,7.65981 8.431407,14.91187 11.484407,18.16033 5.48078,5.83172 10.209428,8.74999 14.007875,10.17236 3.798446,1.42238 6.753914,1.31406 8.00105,1.31406 1.31267,0 4.26552,0.10964 8.050856,-1.31406 3.785334,-1.42369 8.479808,-4.34332 13.95807,-10.17236 3.053005,-3.24846 7.41087,-10.50052 11.484908,-18.16033 4.074047,-7.6598 7.674387,-15.35445 8.628397,-19.81699 0.30455,-1.42461 0.57252,-3.10937 0.7838,-5.02329 h 1.4504 a 1.8735073,1.8735073 0 0 0 1.87298,-1.87299 v -11.6635 a 1.8735073,1.8735073 0 0 0 -1.87298,-1.87248 h -1.09019 c -0.29199,-6.07106 -1.07298,-12.92659 -2.5607,-20.24662 -0.0772,-0.37986 -0.16042,-0.75286 -0.24248,-1.12741 l 1.34021,-0.50762 a 1.8735072,1.8735072 0 0 0 1.08968,-2.4143 l -4.13082,-10.90887 a 1.8735072,1.8735072 0 0 0 -1.86846,-1.20489 1.8735072,1.8735072 0 0 0 -0.54685,0.11772 l -1.32059,0.50007 c -1.582941,-2.57237 -3.487986,-4.86371 -5.79352,-6.83239 -5.141601,-4.39038 -12.137086,-7.05199 -21.527976,-7.85516 v -1.306 a 1.8735073,1.8735073 0 0 0 -1.872984,-1.87298 z"
       id="rect1400"
       inkscape:connector-curvature="0" />
    <path
       inkscape:connector-curvature="0"
       style="opacity:1;fill:#ffffff;stroke:none;stroke-width:0.22588001px;stroke-linecap:butt;stroke-linejoin:miter;stroke-opacity:1"
       d="m 64.67937,173.94653 c -24.946717,-0.0389 -33.926152,10.79985 -37.614401,28.94724 -3.587179,17.65012 -2.961781,32.67716 -1.419623,39.89089 1.655306,7.74295 14.319145,31.40566 19.632485,37.05918 10.644581,11.32615 17.894058,10.87766 20.601525,10.87766 2.829352,0 9.956947,0.44849 20.601527,-10.87766 5.313347,-5.65352 17.977177,-29.31624 19.632487,-37.05918 1.54215,-7.21374 2.16756,-22.24077 -1.41963,-39.89089 -3.68825,-18.14739 -12.667679,-28.98628 -37.614395,-28.94724 -0.395982,6.3e-4 -0.795924,0.004 -1.199989,0.0103 -0.404069,-0.006 -0.804009,-0.01 -1.199986,-0.0103 z"
       id="path895" />
    <path
       style="opacity:1;fill:#e2610c;fill-opacity:1;stroke:none;stroke-width:45.52085876;stroke-linecap:round;stroke-linejoin:round;stroke-miterlimit:4;stroke-dasharray:none;stroke-opacity:1;paint-order:normal"
       d="m 67.079529,173.94631 c -0.395984,6.4e-4 -0.796295,0.004 -1.20036,0.0106 -0.06184,-9e-4 -0.121981,-7.1e-4 -0.183625,-0.002 v 116.76684 c 0.05924,-2.7e-4 0.128181,-5e-4 0.183625,-5e-4 2.829352,0 9.95722,0.44847 20.6018,-10.87769 5.313347,-5.65351 17.977041,-29.31625 19.632351,-37.05919 1.54216,-7.21374 2.1675,-22.24093 -1.4197,-39.89105 -3.68825,-18.14739 -12.667378,-28.9865 -37.614091,-28.94747 z"
       id="rect854"
       inkscape:connector-curvature="0" />
    <path
       style="opacity:1;fill:#e2610c;fill-opacity:1;stroke:none;stroke-width:0.24242814px;stroke-linecap:butt;stroke-linejoin:miter;stroke-opacity:1"
       d="m 39.027436,226.84464 c 0,0 -3.100777,0.0777 -5.37989,1.05012 -1.179416,0.50325 -2.507221,1.55064 -6.306029,0.77359 0,0 2.629722,3.34428 2.53608,4.71832 -0.08255,1.21106 -4.357167,4.32942 -4.357167,4.32942 0,0 5.010583,0.036 5.900872,1.29332 0.890326,1.25734 -2.440909,6.92516 -2.440909,6.92516 0,0 6.83001,-2.79801 8.207287,-2.10756 1.377231,0.69043 1.494628,7.25432 1.494628,7.25432 0,0 4.120418,-5.25108 5.923703,-5.13358 1.803265,0.11776 4.395799,4.98914 4.395799,4.98914 0,0 0.584103,-5.26378 2.10044,-5.97458 1.516365,-0.71078 5.741869,0.41627 5.741869,0.41627 0,0 -1.5432,-3.08126 -1.610681,-4.92556 -0.0644,-1.76277 0.06456,-2.76828 -0.09506,-3.62977 -0.202167,-1.09092 -0.573768,-1.63775 -2.262776,-3.83571 -1.689037,-2.19793 -13.848136,-6.14287 -13.848136,-6.14287 z"
       id="path1020"
       inkscape:connector-curvature="0"
       sodipodi:nodetypes="cscccccccccccccscc" />
    <ellipse
       style="opacity:1;fill:#f1d400;fill-opacity:1;stroke:none;stroke-width:4.82667828;stroke-linecap:round;stroke-linejoin:round;stroke-miterlimit:4;stroke-dasharray:none;stroke-opacity:1;paint-order:normal"
       id="path1016"
       cx="122.82763"
       cy="206.17369"
       rx="10.576569"
       ry="7.089787"
       transform="rotate(20.561538)" />
    <g
       id="g961"
       style="fill:#000000;fill-opacity:1"
       transform="matrix(0.97352731,0,0,0.97352731,1.5618698,6.4288093)">
      <circle
         r="2.2535636"
         cy="256.84256"
         cx="60.824577"
         id="path911"
         style="opacity:1;fill:#000000;fill-opacity:1;stroke:none;stroke-width:5.19927025;stroke-linecap:round;stroke-linejoin:round;stroke-miterlimit:4;stroke-dasharray:none;stroke-opacity:1;paint-order:normal" />
      <circle
         style="opacity:1;fill:#000000;fill-opacity:1;stroke:none;stroke-width:5.19927025;stroke-linecap:round;stroke-linejoin:round;stroke-miterlimit:4;stroke-dasharray:none;stroke-opacity:1;paint-order:normal"
         id="circle913"
         cx="60.824577"
         cy="281.88217"
         r="2.2535636" />
      <circle
         r="2.2535636"
         cy="269.36237"
         cx="60.824577"
         id="circle915"
         style="opacity:1;fill:#000000;fill-opacity:1;stroke:none;stroke-width:5.19927025;stroke-linecap:round;stroke-linejoin:round;stroke-miterlimit:4;stroke-dasharray:none;stroke-opacity:1;paint-order:normal" />
      <circle
         style="opacity:1;fill:#000000;fill-opacity:1;stroke:none;stroke-width:5.19927025;stroke-linecap:round;stroke-linejoin:round;stroke-miterlimit:4;stroke-dasharray:none;stroke-opacity:1;paint-order:normal"
         id="circle942"
         cx="53.062302"
         cy="263.10248"
         r="2.2535636" />
      <circle
         r="2.2535636"
         cy="275.62228"
         cx="53.062302"
         id="circle944"
         style="opacity:1;fill:#000000;fill-opacity:1;stroke:none;stroke-width:5.19927025;stroke-linecap:round;stroke-linejoin:round;stroke-miterlimit:4;stroke-dasharray:none;stroke-opacity:1;paint-order:normal" />
      <circle
         style="opacity:1;fill:#000000;fill-opacity:1;stroke:none;stroke-width:5.19927025;stroke-linecap:round;stroke-linejoin:round;stroke-miterlimit:4;stroke-dasharray:none;stroke-opacity:1;paint-order:normal"
         id="circle946"
         cx="45.300728"
         cy="269.3624"
         r="2.2535636" />
      <circle
         style="opacity:1;fill:#000000;fill-opacity:1;stroke:none;stroke-width:5.19927025;stroke-linecap:round;stroke-linejoin:round;stroke-miterlimit:4;stroke-dasharray:none;stroke-opacity:1;paint-order:normal"
         id="circle974"
         cx="60.824577"
         cy="197.17445"
         r="2.2535636" />
      <circle
         r="2.2535636"
         cy="187.79045"
         cx="54.096424"
         id="circle976"
         style="opacity:1;fill:#000000;fill-opacity:1;stroke:none;stroke-width:5.19927025;stroke-linecap:round;stroke-linejoin:round;stroke-miterlimit:4;stroke-dasharray:none;stroke-opacity:1;paint-order:normal" />
      <circle
         style="opacity:1;fill:#000000;fill-opacity:1;stroke:none;stroke-width:5.19927025;stroke-linecap:round;stroke-linejoin:round;stroke-miterlimit:4;stroke-dasharray:none;stroke-opacity:1;paint-order:normal"
         id="circle978"
         cx="56.2211"
         cy="177.69821"
         r="2.2535636" />
      <circle
         r="2.2535636"
         cy="186.19693"
         cx="42.587738"
         id="circle980"
         style="opacity:1;fill:#000000;fill-opacity:1;stroke:none;stroke-width:5.19927025;stroke-linecap:round;stroke-linejoin:round;stroke-miterlimit:4;stroke-dasharray:none;stroke-opacity:1;paint-order:normal" />
      <circle
         transform="rotate(-45.960513)"
         r="2.2535636"
         cy="181.84756"
         cx="-111.923"
         id="circle998"
         style="opacity:1;fill:#000000;fill-opacity:1;stroke:none;stroke-width:5.19927025;stroke-linecap:round;stroke-linejoin:round;stroke-miterlimit:4;stroke-dasharray:none;stroke-opacity:1;paint-order:normal" />
      <circle
         transform="rotate(-45.960513)"
         style="opacity:1;fill:#000000;fill-opacity:1;stroke:none;stroke-width:5.19927025;stroke-linecap:round;stroke-linejoin:round;stroke-miterlimit:4;stroke-dasharray:none;stroke-opacity:1;paint-order:normal"
         id="circle1000"
         cx="-118.65115"
         cy="172.46356"
         r="2.2535636" />
      <circle
         transform="rotate(-45.960513)"
         r="2.2535636"
         cy="162.37132"
         cx="-116.52648"
         id="circle1002"
         style="opacity:1;fill:#000000;fill-opacity:1;stroke:none;stroke-width:5.19927025;stroke-linecap:round;stroke-linejoin:round;stroke-miterlimit:4;stroke-dasharray:none;stroke-opacity:1;paint-order:normal" />
      <circle
         transform="scale(-1,1)"
         style="opacity:1;fill:#000000;fill-opacity:1;stroke:none;stroke-width:5.19927025;stroke-linecap:round;stroke-linejoin:round;stroke-miterlimit:4;stroke-dasharray:none;stroke-opacity:1;paint-order:normal"
         id="circle1258"
         cx="-71.308319"
         cy="256.84256"
         r="2.2535636" />
      <circle
         transform="scale(-1,1)"
         r="2.2535636"
         cy="281.88217"
         cx="-71.308319"
         id="circle1260"
         style="opacity:1;fill:#000000;fill-opacity:1;stroke:none;stroke-width:5.19927025;stroke-linecap:round;stroke-linejoin:round;stroke-miterlimit:4;stroke-dasharray:none;stroke-opacity:1;paint-order:normal" />
      <circle
         transform="scale(-1,1)"
         style="opacity:1;fill:#000000;fill-opacity:1;stroke:none;stroke-width:5.19927025;stroke-linecap:round;stroke-linejoin:round;stroke-miterlimit:4;stroke-dasharray:none;stroke-opacity:1;paint-order:normal"
         id="circle1262"
         cx="-71.308319"
         cy="269.36237"
         r="2.2535636" />
      <circle
         transform="scale(-1,1)"
         r="2.2535636"
         cy="263.10248"
         cx="-79.070595"
         id="circle1264"
         style="opacity:1;fill:#000000;fill-opacity:1;stroke:none;stroke-width:5.19927025;stroke-linecap:round;stroke-linejoin:round;stroke-miterlimit:4;stroke-dasharray:none;stroke-opacity:1;paint-order:normal" />
      <circle
         transform="scale(-1,1)"
         style="opacity:1;fill:#000000;fill-opacity:1;stroke:none;stroke-width:5.19927025;stroke-linecap:round;stroke-linejoin:round;stroke-miterlimit:4;stroke-dasharray:none;stroke-opacity:1;paint-order:normal"
         id="circle1266"
         cx="-79.070595"
         cy="275.62228"
         r="2.2535636" />
      <circle
         transform="scale(-1,1)"
         r="2.2535636"
         cy="269.3624"
         cx="-86.832169"
         id="circle1268"
         style="opacity:1;fill:#000000;fill-opacity:1;stroke:none;stroke-width:5.19927025;stroke-linecap:round;stroke-linejoin:round;stroke-miterlimit:4;stroke-dasharray:none;stroke-opacity:1;paint-order:normal" />
      <circle
         transform="scale(-1,1)"
         r="2.2535636"
         cy="197.17445"
         cx="-71.308319"
         id="circle1270"
         style="opacity:1;fill:#000000;fill-opacity:1;stroke:none;stroke-width:5.19927025;stroke-linecap:round;stroke-linejoin:round;stroke-miterlimit:4;stroke-dasharray:none;stroke-opacity:1;paint-order:normal" />
      <circle
         transform="scale(-1,1)"
         style="opacity:1;fill:#000000;fill-opacity:1;stroke:none;stroke-width:5.19927025;stroke-linecap:round;stroke-linejoin:round;stroke-miterlimit:4;stroke-dasharray:none;stroke-opacity:1;paint-order:normal"
         id="circle1272"
         cx="-78.036476"
         cy="187.79045"
         r="2.2535636" />
      <circle
         transform="scale(-1,1)"
         r="2.2535636"
         cy="177.69821"
         cx="-75.911804"
         id="circle1274"
         style="opacity:1;fill:#000000;fill-opacity:1;stroke:none;stroke-width:5.19927025;stroke-linecap:round;stroke-linejoin:round;stroke-miterlimit:4;stroke-dasharray:none;stroke-opacity:1;paint-order:normal" />
      <circle
         transform="scale(-1,1)"
         style="opacity:1;fill:#000000;fill-opacity:1;stroke:none;stroke-width:5.19927025;stroke-linecap:round;stroke-linejoin:round;stroke-miterlimit:4;stroke-dasharray:none;stroke-opacity:1;paint-order:normal"
         id="circle1276"
         cx="-89.545166"
         cy="186.19693"
         r="2.2535636" />
      <circle
         style="opacity:1;fill:#000000;fill-opacity:1;stroke:none;stroke-width:5.19927025;stroke-linecap:round;stroke-linejoin:round;stroke-miterlimit:4;stroke-dasharray:none;stroke-opacity:1;paint-order:normal"
         id="circle1278"
         cx="-203.7757"
         cy="86.862411"
         r="2.2535636"
         transform="matrix(-0.69515396,-0.71886089,-0.71886089,0.69515396,0,0)" />
      <circle
         r="2.2535636"
         cy="77.478416"
         cx="-210.50386"
         id="circle1280"
         style="opacity:1;fill:#000000;fill-opacity:1;stroke:none;stroke-width:5.19927025;stroke-linecap:round;stroke-linejoin:round;stroke-miterlimit:4;stroke-dasharray:none;stroke-opacity:1;paint-order:normal"
         transform="matrix(-0.69515396,-0.71886089,-0.71886089,0.69515396,0,0)" />
      <circle
         style="opacity:1;fill:#000000;fill-opacity:1;stroke:none;stroke-width:5.19927025;stroke-linecap:round;stroke-linejoin:round;stroke-miterlimit:4;stroke-dasharray:none;stroke-opacity:1;paint-order:normal"
         id="circle1282"
         cx="-208.37918"
         cy="67.386154"
         r="2.2535636"
         transform="matrix(-0.69515396,-0.71886089,-0.71886089,0.69515396,0,0)" />
      <g
         style="fill:#000000;fill-opacity:1"
         transform="translate(0.73498998,3.8390491)"
         id="g1519">
        <path
           style="fill:#000000;fill-opacity:1;stroke:none;stroke-width:0.2723071px;stroke-linecap:butt;stroke-linejoin:miter;stroke-opacity:1"
           d="m 27.31762,220.26168 c 0,0 7.352003,-2.98009 12.501486,-1.14078 7.554599,2.69836 11.423663,8.85745 14.317638,8.33823 3.475469,-0.62355 1.998154,-6.34667 1.998154,-6.34667 0,0 5.594198,7.09756 -1.292313,9.42771 -5.853823,1.98071 -10.000682,-5.87932 -14.945066,-8.08681 -4.70241,-2.09947 -12.579899,-2.19168 -12.579899,-2.19168 z"
           id="path1186"
           inkscape:connector-curvature="0"
           sodipodi:nodetypes="cccccsc" />
        <path
           style="fill:#000000;fill-opacity:1;stroke:none;stroke-width:0.2723071px;stroke-linecap:butt;stroke-linejoin:miter;stroke-opacity:1"
           d="m 33.879112,220.13567 c 0,0 -2.316465,4.53463 -1.009361,8.64165 1.067685,3.35472 13.409057,8.71793 16.47251,7.64814 3.063452,-1.06977 5.20301,-3.45247 5.689272,-6.61317 l -3.257959,-1.3129 -5.105751,-3.06345 -3.209341,-2.62583 -3.8901,-1.79917 z"
           id="path1188"
           inkscape:connector-curvature="0"
           sodipodi:nodetypes="csscccccc" />
        <path
           sodipodi:nodetypes="cccccsc"
           inkscape:connector-curvature="0"
           id="path1501"
           d="m 103.34529,220.26168 c 0,0 -7.352008,-2.98009 -12.501488,-1.14078 -7.5546,2.69836 -11.423666,8.85745 -14.317639,8.33823 -3.475469,-0.62355 -1.998154,-6.34667 -1.998154,-6.34667 0,0 -5.594198,7.09756 1.292314,9.42771 5.853822,1.98071 10.000681,-5.87932 14.945065,-8.08681 4.702405,-2.09947 12.579902,-2.19168 12.579902,-2.19168 z"
           style="fill:#000000;fill-opacity:1;stroke:none;stroke-width:0.2723071px;stroke-linecap:butt;stroke-linejoin:miter;stroke-opacity:1" />
        <path
           sodipodi:nodetypes="csscccccc"
           inkscape:connector-curvature="0"
           id="path1503"
           d="m 96.783792,220.13567 c 0,0 2.316466,4.53463 1.009365,8.64165 -1.067685,3.35472 -13.409059,8.71793 -16.472512,7.64814 -3.063453,-1.06977 -5.203009,-3.45247 -5.689271,-6.61317 l 3.25796,-1.3129 5.105751,-3.06345 3.209339,-2.62583 3.8901,-1.79917 z"
           style="fill:#000000;fill-opacity:1;stroke:none;stroke-width:0.2723071px;stroke-linecap:butt;stroke-linejoin:miter;stroke-opacity:1" />
      </g>
    </g>
  </g>
</svg>
