<?xml version="1.0" encoding="UTF-8" standalone="no"?>
<!-- Created with Inkscape (http://www.inkscape.org/) -->

<svg
   xmlns:dc="http://purl.org/dc/elements/1.1/"
   xmlns:cc="http://creativecommons.org/ns#"
   xmlns:rdf="http://www.w3.org/1999/02/22-rdf-syntax-ns#"
   xmlns:svg="http://www.w3.org/2000/svg"
   xmlns="http://www.w3.org/2000/svg"
   xmlns:sodipodi="http://sodipodi.sourceforge.net/DTD/sodipodi-0.dtd"
   xmlns:inkscape="http://www.inkscape.org/namespaces/inkscape"
   width="500"
   height="500"
   viewBox="0 0 132.29166 132.29167"
   version="1.1"
   id="svg8"
   inkscape:version="0.92.3 (2405546, 2018-03-11)"
   sodipodi:docname="fl-logo.svg">
  <defs
     id="defs2">
    <clipPath
       clipPathUnits="userSpaceOnUse"
       id="clipPath919">
      <rect
         style="opacity:0.19200003;fill:#00ff00;fill-opacity:1;stroke:none;stroke-width:5.54963541;stroke-linecap:round;stroke-linejoin:round;stroke-miterlimit:4;stroke-dasharray:none;stroke-opacity:1;paint-order:normal"
         id="rect921"
         width="65.748306"
         height="143.79102"
         x="159.82718"
         y="140.38005"
         transform="rotate(-91.639753)" />
    </clipPath>
    <clipPath
       clipPathUnits="userSpaceOnUse"
       id="clipPath919-753">
      <rect
         style="opacity:0.19200003;fill:#00ff00;fill-opacity:1;stroke:none;stroke-width:5.54963541;stroke-linecap:round;stroke-linejoin:round;stroke-miterlimit:4;stroke-dasharray:none;stroke-opacity:1;paint-order:normal"
         id="rect921-56"
         width="65.748306"
         height="143.79102"
         x="159.82718"
         y="140.38005"
         transform="rotate(-91.639753)" />
    </clipPath>
    <clipPath
       clipPathUnits="userSpaceOnUse"
       id="clipPath919-7">
      <rect
         style="opacity:0.19200003;fill:#00ff00;fill-opacity:1;stroke:none;stroke-width:5.54963541;stroke-linecap:round;stroke-linejoin:round;stroke-miterlimit:4;stroke-dasharray:none;stroke-opacity:1;paint-order:normal"
         id="rect921-5"
         width="65.748306"
         height="143.79102"
         x="159.82718"
         y="140.38005"
         transform="rotate(-91.639753)" />
    </clipPath>
    <clipPath
       id="clipPath919-75"
       clipPathUnits="userSpaceOnUse">
      <rect
         transform="rotate(-91.639753)"
         y="140.38005"
         x="159.82718"
         height="143.79102"
         width="65.748306"
         id="rect921-35"
         style="opacity:0.19200003;fill:#00ff00;fill-opacity:1;stroke:none;stroke-width:5.54963541;stroke-linecap:round;stroke-linejoin:round;stroke-miterlimit:4;stroke-dasharray:none;stroke-opacity:1;paint-order:normal" />
    </clipPath>
    <clipPath
       id="clipPath919-9"
       clipPathUnits="userSpaceOnUse">
      <rect
         transform="rotate(-91.639753)"
         y="140.38005"
         x="159.82718"
         height="143.79102"
         width="65.748306"
         id="rect921-3"
         style="opacity:0.19200003;fill:#00ff00;fill-opacity:1;stroke:none;stroke-width:5.54963541;stroke-linecap:round;stroke-linejoin:round;stroke-miterlimit:4;stroke-dasharray:none;stroke-opacity:1;paint-order:normal" />
    </clipPath>
    <clipPath
       clipPathUnits="userSpaceOnUse"
       id="clipPath919-7-6">
      <rect
         style="opacity:0.19200003;fill:#00ff00;fill-opacity:1;stroke:none;stroke-width:5.54963541;stroke-linecap:round;stroke-linejoin:round;stroke-miterlimit:4;stroke-dasharray:none;stroke-opacity:1;paint-order:normal"
         id="rect921-5-2"
         width="65.748306"
         height="143.79102"
         x="159.82718"
         y="140.38005"
         transform="rotate(-91.639753)" />
    </clipPath>
  </defs>
  <sodipodi:namedview
     id="base"
     pagecolor="#ffffff"
     bordercolor="#666666"
     borderopacity="1.0"
     inkscape:pageopacity="0.0"
     inkscape:pageshadow="2"
     inkscape:zoom="0.9899495"
     inkscape:cx="521.2314"
     inkscape:cy="237.55274"
     inkscape:document-units="mm"
     inkscape:current-layer="layer1"
     showgrid="false"
     borderlayer="true"
     units="px"
     inkscape:window-width="1920"
     inkscape:window-height="1029"
     inkscape:window-x="1920"
     inkscape:window-y="0"
     inkscape:window-maximized="1"
     inkscape:snap-global="false" />
  <metadata
     id="metadata5">
    <rdf:RDF>
      <cc:Work
         rdf:about="">
        <dc:format>image/svg+xml</dc:format>
        <dc:type
           rdf:resource="http://purl.org/dc/dcmitype/StillImage" />
        <dc:title />
      </cc:Work>
    </rdf:RDF>
  </metadata>
  <g
     inkscape:label="Layer 1"
     inkscape:groupmode="layer"
     id="layer1"
     transform="translate(0,-164.70832)">
    <rect
       y="159.39697"
       x="-2.8260615"
       height="142.11905"
       width="139.85118"
       id="rect1260"
       style="opacity:1;fill:#e2610c;fill-opacity:1;stroke:none;stroke-width:5.29166651;stroke-linecap:round;stroke-linejoin:round;stroke-miterlimit:4;stroke-dasharray:none;stroke-opacity:1;paint-order:normal" />
    <path
       style="color:#000000;font-style:normal;font-variant:normal;font-weight:normal;font-stretch:normal;font-size:medium;line-height:normal;font-family:sans-serif;font-variant-ligatures:normal;font-variant-position:normal;font-variant-caps:normal;font-variant-numeric:normal;font-variant-alternates:normal;font-feature-settings:normal;text-indent:0;text-align:start;text-decoration:none;text-decoration-line:none;text-decoration-style:solid;text-decoration-color:#000000;letter-spacing:normal;word-spacing:normal;text-transform:none;writing-mode:lr-tb;direction:ltr;text-orientation:mixed;dominant-baseline:auto;baseline-shift:baseline;text-anchor:start;white-space:normal;shape-padding:0;clip-rule:nonzero;display:inline;overflow:visible;visibility:visible;opacity:1;isolation:auto;mix-blend-mode:normal;color-interpolation:sRGB;color-interpolation-filters:linearRGB;solid-color:#000000;solid-opacity:1;vector-effect:none;fill:#ffffff;fill-opacity:1;fill-rule:nonzero;stroke:none;stroke-width:5.29166651;stroke-linecap:butt;stroke-linejoin:miter;stroke-miterlimit:4;stroke-dasharray:none;stroke-dashoffset:0;stroke-opacity:1;color-rendering:auto;image-rendering:auto;shape-rendering:auto;text-rendering:auto;enable-background:accumulate"
       d="m 91.573921,171.512 c -0.81931,2e-5 -1.79135,0.32501 -2.4474,0.89866 -0.65604,0.57365 -0.97709,1.24439 -1.16427,1.80247 -0.37437,1.11615 -0.35825,2.00095 -0.38654,2.80707 -0.0111,0.31719 -0.0345,0.46051 -0.0486,0.73225 -0.73495,-0.49129 -1.67793,-1.01444 -3.03134,-1.22266 -0.80458,-0.12378 -1.49824,-0.11406 -2.67581,-0.12713 -1.17757,-0.0131 -2.67254,-0.009 -4.38681,0.008 -3.42854,0.0341 -7.72834,0.11556 -11.98428,0.19689 -4.25595,0.0813 -8.4677,0.16373 -11.69334,0.1974 -1.61284,0.0168 -2.98265,0.0203 -3.96669,0.008 -0.41267,-0.005 -0.71089,-0.0155 -0.96531,-0.0258 -0.0479,-0.0706 -0.10219,-0.1372 -0.25373,-0.41186 -0.39641,-0.7185 -0.94675,-2.02922 -2.40399,-3.0701 -1.17744,-0.84103 -1.42646,-0.58034 -1.90066,-0.63303 -0.47419,-0.0527 -0.97967,-0.0746 -1.57045,-0.0858 -1.18155,-0.0225 -2.68305,0.009 -4.43332,0.076 -3.50054,0.13424 -7.9694,0.4138 -12.3889,0.72657 -8.80639,0.62322 -17.3463796,1.37367 -17.4097896,1.37925 -0.42323,-0.0918 -0.61556,-0.20362 -1.39474,-0.1664 -1.30635,0.0624 -3.4359,0.78877 -4.38681,2.76985 -0.59677,1.24324 -0.36102,2.8561 0.13279,3.77497 0.49385,0.91887 1.07016,1.46754 1.57046,1.973 1.00061,1.01091 1.64292,1.80407 1.72237,2.11305 0.20231,0.78685 0.1079,1.47732 0.002,2.72077 -0.10587,1.24346 -0.12614,3.08965 0.8046,4.95111 0.71153,1.42307 2.35766,1.92474 3.3481196,1.94355 0.99045,0.0188 1.82136,-0.17893 2.73007,-0.42994 1.81738,-0.50203 3.88527,-1.32017 6.11538,-2.13476 1.64966,-0.60256 3.38931,-1.16507 5.05293,-1.60403 l 5.16971,5.93607 c 9.8e-4,0.001 2.72204,3.1316 5.28494,6.62492 1.27913,1.74351 2.5184,3.59934 3.25406,4.95887 0.0425,0.0786 0.0505,0.15123 0.0879,0.23047 -0.14449,0.10478 -0.17243,0.1473 -0.33383,0.2558 -1.40925,0.94736 -3.53167,2.11465 -5.63893,3.16415 -4.22186,2.10264 -8.42377,3.80649 -8.42377,3.80649 l -10.85928,4.39456 10.47481,5.24206 c 0,0 4.19158,2.10147 8.42583,4.58783 2.11433,1.24153 4.24584,2.59456 5.71076,3.6897 0.25046,0.18724 0.32874,0.28135 0.53899,0.4532 -0.0887,0.16987 -0.095,0.22356 -0.19895,0.40618 -0.86591,1.52119 -2.28472,3.57968 -3.74241,5.52938 -2.91942,3.90472 -6.00583,7.46104 -6.00583,7.46104 l -8.08787,9.30641 12.3181,-0.55087 c 0,0 4.60189,-0.20012 9.33431,-0.12661 2.32347,0.036 4.67163,0.15072 6.34173,0.34727 -0.0147,1.58453 -0.16653,3.73732 -0.38654,5.8477 -0.44946,4.31109 -1.11931,8.41602 -1.11931,8.41602 l -1.7694,10.79521 9.56221,-5.31647 c 0,0 3.84122,-2.13264 7.95713,-4.14445 2.05682,-1.00534 4.19485,-1.98134 5.78725,-2.59002 0.20586,-0.0787 0.28191,-0.0881 0.47077,-0.15452 0.0761,0.10258 0.10516,0.12241 0.18345,0.23255 0.93156,1.31018 2.11088,3.23265 3.20135,5.1387 2.18464,3.81852 4.07211,7.60729 4.07211,7.60729 l 3.97236,7.98453 5.10357,-7.31429 c 0,0 2.3775,-3.40297 5.03949,-6.82025 1.32929,-1.70645 2.74245,-3.42112 3.83955,-4.59765 0.009,-0.01 0.0124,-0.0118 0.0217,-0.0217 1.06836,0.71478 2.40293,1.70414 3.72845,2.79311 2.935269,2.41143 5.618789,4.9413 5.618789,4.9413 v -0.002 l 7.18768,6.79286 1.66243,-9.74617 v -0.002 c 3e-4,-0.002 0.62035,-3.56773 1.62884,-7.3825 1.12813,0.53801 2.4196,0.94551 3.85144,1.24386 2.26121,0.47117 4.93713,0.77825 7.244,-1.06247 l 0.19948,-0.15813 0.16381,-0.19327 c 2.47251,-2.89976 3.58983,-7.24379 4.32222,-12.13673 0.73238,-4.89294 0.86825,-10.26402 0.30075,-14.84199 -0.64531,-5.20559 -4.52374,-10.77551 -7.48791,-16.88631 -2.9652,-6.11291 -4.94347,-12.52288 -6.41046,-15.59026 -1.30859,-2.7361 -2.65048,-4.45085 -4.01733,-6.39599 -1.36685,-1.94514 -2.86426,-4.23161 -4.85965,-8.53746 -1.95682,-4.22259 -2.96249,-7.91836 -3.70882,-10.95696 -0.74632,-3.03861 -0.96826,-5.35668 -2.51562,-7.48429 -2.357269,-3.24122 -6.053339,-4.34185 -9.080059,-4.34186 z"
       id="path1262"
       inkscape:connector-curvature="0" />
    <path
       style="color:#000000;font-style:normal;font-variant:normal;font-weight:normal;font-stretch:normal;font-size:medium;line-height:normal;font-family:sans-serif;font-variant-ligatures:normal;font-variant-position:normal;font-variant-caps:normal;font-variant-numeric:normal;font-variant-alternates:normal;font-feature-settings:normal;text-indent:0;text-align:start;text-decoration:none;text-decoration-line:none;text-decoration-style:solid;text-decoration-color:#000000;letter-spacing:normal;word-spacing:normal;text-transform:none;writing-mode:lr-tb;direction:ltr;text-orientation:mixed;dominant-baseline:auto;baseline-shift:baseline;text-anchor:start;white-space:normal;shape-padding:0;clip-rule:nonzero;display:inline;overflow:visible;visibility:visible;opacity:1;isolation:auto;mix-blend-mode:normal;color-interpolation:sRGB;color-interpolation-filters:linearRGB;solid-color:#000000;solid-opacity:1;vector-effect:none;fill:#000000;fill-opacity:1;fill-rule:nonzero;stroke:none;stroke-width:5.29166651;stroke-linecap:butt;stroke-linejoin:miter;stroke-miterlimit:4;stroke-dasharray:none;stroke-dashoffset:0;stroke-opacity:1;color-rendering:auto;image-rendering:auto;shape-rendering:auto;text-rendering:auto;enable-background:accumulate"
       d="m 78.402344,181.43359 -28.054688,5.88672 -0.257812,0.11328 c -7.005894,3.11374 -16.722656,3.06055 -16.722656,3.06055 l -5.953126,-0.10742 3.910157,4.49023 c 0,0 2.778847,3.19361 5.423828,6.79883 1.322491,1.80261 2.606332,3.71155 3.447265,5.26563 0.840934,1.55408 0.864406,2.96837 1.021485,2.30078 0.09571,-0.40678 0.07185,-0.13903 -0.306641,0.23047 -0.378492,0.3695 -1.018591,0.87581 -1.810547,1.4082 -1.583911,1.06477 -3.766557,2.25765 -5.935547,3.33789 -4.337978,2.16048 -8.611328,3.89063 -8.611328,3.89063 l -5.43164,2.19726 5.238281,2.62305 c 0,0 4.252079,2.12933 8.582031,4.67187 2.164976,1.27127 4.34748,2.64781 5.955078,3.84961 0.8038,0.6009 1.463278,1.164 1.871094,1.58203 0.293944,0.30131 0.268074,0.28502 0.273438,0.25586 -0.01149,0.0914 -0.01301,0.17195 -0.07422,0.34571 -0.1764,0.50074 -0.534095,1.25415 -1.017578,2.10351 -0.966967,1.69872 -2.4233,3.80296 -3.919922,5.80469 -2.993245,4.00346 -6.126953,7.61133 -6.126953,7.61133 l -4.044922,4.65429 6.160156,-0.27539 c 0,0 4.656287,-0.20595 9.490234,-0.13086 2.416974,0.0375 4.881784,0.14897 6.730469,0.37305 0.906762,0.10991 1.655885,0.25231 2.119141,0.38281 0.0025,0.0153 0.0056,0.0154 0.0078,0.0312 0.06598,0.48189 0.104563,1.23218 0.09961,2.10743 -0.0099,1.75048 -0.180394,4.0188 -0.410156,6.22265 -0.459526,4.40771 -1.140626,8.56641 -1.140626,8.56641 l -0.882812,5.39844 4.78125,-2.65821 c 0,0 3.883086,-2.15849 8.078125,-4.20898 2.09752,-1.02525 4.276172,-2.02244 6.005859,-2.6836 0.864844,-0.33057 1.623222,-0.57517 2.134766,-0.69726 0.09717,-0.0232 0.127217,-0.0133 0.207031,-0.0215 0.03964,0.0339 0.05174,0.0302 0.09375,0.0742 0.334115,0.35031 0.808264,0.93999 1.320313,1.66016 1.024096,1.44034 2.223438,3.40606 3.339844,5.35742 2.23281,3.90273 4.144531,7.74219 4.144531,7.74219 l 1.986328,3.99414 2.552734,-3.6582 c 0,0 2.405224,-3.44518 5.121094,-6.93165 1.357935,-1.74323 2.7972,-3.49581 3.992187,-4.77734 0.597494,-0.64077 1.138498,-1.1651 1.519532,-1.48047 0.02839,-0.0235 0.03678,-0.0207 0.06445,-0.041 0.340822,0.15218 0.82803,0.4098 1.414062,0.78515 1.262658,0.80874 2.852695,2.02497 4.365235,3.26758 3.025076,2.48522 5.757816,5.06445 5.757816,5.06445 l 3.59375,3.39454 0.83007,-4.875 c 0,0 0.71485,-4.17448 1.89649,-8.43946 0.59082,-2.13249 1.30814,-4.28253 2.03125,-5.82226 0.72311,-1.53973 1.71048,-2.1513 1.14258,-1.97657 1.1369,-0.34981 1.87764,-1.53653 2.04297,-2.24023 0.16533,-0.7037 0.11126,-1.18028 0.0488,-1.65234 -0.12486,-0.94413 -0.40666,-1.86531 -0.80078,-2.98633 -0.78823,-2.24205 -2.06899,-5.16792 -3.70898,-8.64063 -3.27999,-6.94542 -7.98748,-16.00125 -12.818361,-25.01953 -9.661754,-18.03655 -19.810547,-35.90039 -19.810547,-35.90039 z m -2.716797,5.97852 c 0.886589,1.56255 9.651418,16.98677 18.818359,34.09961 4.810003,8.97931 9.494094,17.99653 12.697264,24.7793 1.60159,3.39138 2.83531,6.24249 3.50195,8.13867 0.18506,0.52638 0.21099,0.72103 0.30274,1.06836 -1.21018,0.98176 -1.86955,2.36397 -2.53516,3.78125 -0.94439,2.01091 -1.70399,4.36512 -2.33984,6.66015 -0.63543,2.2935 -0.66147,2.8117 -1.00586,4.47852 -1.0475,-0.93523 -1.22487,-1.1582 -2.61328,-2.29883 -1.60206,-1.31615 -3.292722,-2.62506 -4.869142,-3.63476 -0.78821,-0.50486 -1.542992,-0.93739 -2.328125,-1.26758 -0.785133,-0.3302 -1.584846,-0.69397 -2.90625,-0.42969 -1.265573,0.25312 -1.807607,0.7816 -2.472656,1.33203 -0.66505,0.55043 -1.324911,1.20443 -2.017578,1.94727 -1.385334,1.48566 -2.883261,3.32256 -4.294922,5.13476 -1.473452,1.89153 -1.781484,2.3823 -2.759766,3.73438 -0.790446,-1.51817 -1.040358,-2.09374 -2.277343,-4.25586 -1.164439,-2.03532 -2.417056,-4.10346 -3.621094,-5.79688 -0.602019,-0.84671 -1.1851,-1.59853 -1.802735,-2.24609 -0.617634,-0.64756 -1.147739,-1.28247 -2.451171,-1.64453 -1.281511,-0.35598 -2.031954,-0.11148 -2.908204,0.0976 -0.876249,0.20914 -1.800147,0.52136 -2.796875,0.90235 -1.993455,0.76197 -4.260834,1.80716 -6.4375,2.87109 -1.960192,0.95812 -2.271778,1.17072 -3.75,1.95313 0.211957,-1.52909 0.295444,-1.80471 0.498047,-3.74805 0.239821,-2.30033 0.427801,-4.68132 0.439453,-6.74024 0.0058,-1.02945 -0.02784,-1.97471 -0.148437,-2.85546 -0.120597,-0.88076 -0.187547,-1.69504 -0.984375,-2.73438 -0.936983,-1.22215 -1.851145,-1.39466 -2.759766,-1.65625 -0.908621,-0.26159 -1.896521,-0.42626 -2.988281,-0.55859 -2.183519,-0.26467 -4.764739,-0.37299 -7.283203,-0.41211 -2.107825,-0.0327 -2.420561,0.024 -4.105469,0.0566 1.128952,-1.3797 1.410395,-1.62156 2.78125,-3.45508 1.570059,-2.09995 3.120704,-4.31863 4.28125,-6.35742 0.580273,-1.0194 1.066655,-1.9878 1.410156,-2.96289 0.343502,-0.9751 0.666125,-1.9618 0.306641,-3.33985 -0.336489,-1.28986 -0.999766,-1.98584 -1.710937,-2.71484 -0.711172,-0.72899 -1.548272,-1.41886 -2.490235,-2.12305 -1.883926,-1.40837 -4.184925,-2.85043 -6.445312,-4.17773 -2.105426,-1.2363 -2.526733,-1.39434 -4.140625,-2.25391 1.606113,-0.70726 1.988207,-0.8038 4.044922,-1.82812 2.284548,-1.13779 4.608464,-2.39169 6.527343,-3.68164 0.95944,-0.64498 1.818614,-1.29318 2.556641,-2.01367 0.738027,-0.7205 1.447202,-1.47827 1.759766,-2.80665 0.590768,-2.51079 -0.47629,-4.1069 -1.517579,-6.03124 -1.041288,-1.92435 -2.43,-3.96327 -3.833984,-5.87696 -1.193225,-1.62641 -1.4268,-1.80845 -2.421875,-3.03515 3.67695,-0.30004 8.319545,-1.036 13.134766,-3.07227 z"
       id="path1264"
       inkscape:connector-curvature="0" />
    <path
       sodipodi:nodetypes="cccscscccsccccc"
       inkscape:connector-curvature="0"
       id="path1266"
       d="m 33.320261,193.13914 c 0,0 10.0386,0.18171 17.84509,-3.28785 l 25.89087,-5.43105 c 0,0 40.556859,71.37699 36.570179,72.60367 -3.98669,1.22667 -6.90004,18.32342 -6.90004,18.32342 0,0 -11.116719,-10.50338 -13.800069,-9.96671 -2.68333,0.53667 -12.42005,14.49006 -12.42005,14.49006 0,0 -7.74337,-15.56341 -10.50338,-16.33007 -2.76002,-0.76667 -18.47675,7.97337 -18.47675,7.97337 0,0 2.76001,-16.86675 0.99666,-19.16676 -1.76334,-2.30001 -20.62342,-1.45667 -20.62342,-1.45667 0,0 12.72672,-14.6434 11.80673,-18.17009 -0.92001,-3.52668 -18.16146,-12.15761 -18.16146,-12.15761 0,0 17.38045,-7.02892 18.24785,-10.71532 0.86738,-3.6864 -10.47221,-16.70839 -10.47221,-16.70839 z"
       style="opacity:1;fill:#e2610c;fill-opacity:1;stroke:none;stroke-width:0.30358589px;stroke-linecap:butt;stroke-linejoin:miter;stroke-opacity:1" />
    <ellipse
       transform="rotate(-23.01193)"
       ry="34.478683"
       rx="29.491203"
       cy="238.96921"
       cx="-11.544993"
       id="ellipse1268"
       style="opacity:1;fill:#f1d400;fill-opacity:1;stroke:none;stroke-width:4.85737419;stroke-linecap:round;stroke-linejoin:round;stroke-miterlimit:4;stroke-dasharray:none;stroke-opacity:1;paint-order:normal" />
    <path
       style="opacity:1;fill:#000000;fill-opacity:1;stroke:none;stroke-width:0.30358589;stroke-linecap:butt;stroke-linejoin:miter;stroke-miterlimit:4;stroke-dasharray:none;stroke-opacity:1"
       d="m 8.6305514,177.41028 c 0,0 34.4786796,-3.03587 35.9965996,-1.95163 1.51793,1.08423 1.73478,3.46955 3.25272,3.90325 1.51792,0.4337 33.39445,-0.65053 36.21346,-0.21685 2.819,0.4337 3.14428,2.81902 5.09589,1.73478 1.95163,-1.08423 0,-6.72225 2.38533,-6.72225 2.38531,0 5.20431,0.86738 6.9391,3.2527 1.734779,2.38532 1.843189,9.10758 5.963319,17.99831 4.12008,8.89072 6.50538,9.97496 8.89073,14.96245 1.19801,2.50496 3.34098,9.26039 6.41759,15.60298 3.04906,6.2858 6.7628,12.17677 7.24377,16.05669 1.05777,8.53287 -0.50268,20.82205 -4.01168,24.93741 -2.34408,1.87041 -7.91494,0 -9.64968,-1.30108 -2.22162,-1.66621 -2.75551,-6.14067 -5.14082,-7.87546 -2.38533,-1.73477 -3.55167,-0.95176 -5.82859,-3.77077 -1.09849,-1.36006 -1.29019,-4.17046 -3.241779,-6.55578 -1.95164,-2.38532 -4.48805,-1.68441 -6.6565,-4.28657 -2.16848,-2.60217 -1.25074,-3.53307 -2.76867,-6.56893 -1.51794,-3.03586 -5.42117,-6.07172 -6.72225,-10.62551 -1.30107,-4.55379 3.08764,-13.72392 0,-19.8415 -1.79166,-3.54983 -4.98748,-1.51794 -7.04753,-3.14429 -2.83269,-2.23633 -6.61384,-11.4929 -13.55294,-12.14343 -6.93911,-0.65055 -9.75813,7.15595 -15.1793,7.3728 -5.42118,0.21684 -7.8065,-8.89074 -15.39614,-10.84236 -7.58964,-1.95162 -21.25101,6.93911 -22.5520896,4.33694 -1.30108,-2.60215 0.0781,-4.46525 -0.61184,-7.1486 -0.69001,-2.68335 -4.52336,-4.14002 -3.60335,-6.0567 0.92,-1.91667 3.56465,-1.1066 3.56465,-1.1066 z"
       id="path1270"
       inkscape:connector-curvature="0"
       sodipodi:nodetypes="cccccssccssccccccccccccscccc" />
  </g>
</svg>
