<?xml version="1.0" encoding="UTF-8" standalone="no"?>
<!-- Created with Inkscape (http://www.inkscape.org/) -->

<svg
   xmlns:dc="http://purl.org/dc/elements/1.1/"
   xmlns:cc="http://creativecommons.org/ns#"
   xmlns:rdf="http://www.w3.org/1999/02/22-rdf-syntax-ns#"
   xmlns:svg="http://www.w3.org/2000/svg"
   xmlns="http://www.w3.org/2000/svg"
   xmlns:sodipodi="http://sodipodi.sourceforge.net/DTD/sodipodi-0.dtd"
   xmlns:inkscape="http://www.inkscape.org/namespaces/inkscape"
   width="1000"
   height="1000"
   viewBox="0 0 264.58332 264.58334"
   version="1.1"
   id="svg8"
   inkscape:version="0.92.3 (2405546, 2018-03-11)"
   sodipodi:docname="jc-monogram.svg">
  <defs
     id="defs2" />
  <sodipodi:namedview
     id="base"
     pagecolor="#ffffff"
     bordercolor="#666666"
     borderopacity="1.0"
     inkscape:pageopacity="0.0"
     inkscape:pageshadow="2"
     inkscape:zoom="0.49497475"
     inkscape:cx="507.68536"
     inkscape:cy="450.27555"
     inkscape:document-units="mm"
     inkscape:current-layer="layer1"
     showgrid="false"
     borderlayer="true"
     units="px"
     inkscape:window-width="1920"
     inkscape:window-height="1029"
     inkscape:window-x="1920"
     inkscape:window-y="0"
     inkscape:window-maximized="1"
     inkscape:snap-smooth-nodes="true"
     inkscape:snap-global="true" />
  <metadata
     id="metadata5">
    <rdf:RDF>
      <cc:Work
         rdf:about="">
        <dc:format>image/svg+xml</dc:format>
        <dc:type
           rdf:resource="http://purl.org/dc/dcmitype/StillImage" />
        <dc:title></dc:title>
      </cc:Work>
    </rdf:RDF>
  </metadata>
  <g
     inkscape:label="Layer 1"
     inkscape:groupmode="layer"
     id="layer1"
     transform="translate(0,-32.416653)">
    <rect
       style="opacity:1;fill:#7d2000;fill-opacity:1;stroke:none;stroke-width:2.64583325;stroke-linecap:butt;stroke-linejoin:miter;stroke-miterlimit:4;stroke-dasharray:none;stroke-opacity:1;paint-order:normal"
       id="rect926"
       width="141.65285"
       height="142.18739"
       x="132.46283"
       y="165.06056" />
    <g
       id="g934"
       transform="matrix(1.0737252,0,0,1.0737252,133.23573,-14.940735)"
       style="fill:#87c120;fill-opacity:1;stroke:none;stroke-opacity:1">
      <path
         inkscape:connector-curvature="0"
         id="path928"
         d="M 101.10824,189.26995 A 22.098914,22.098914 0 0 0 74.042642,204.89628 22.098914,22.098914 0 0 0 101.10824,189.26995 Z"
         style="opacity:1;fill:#87c120;fill-opacity:1;stroke:none;stroke-width:3.17499995;stroke-linecap:butt;stroke-linejoin:miter;stroke-miterlimit:4;stroke-dasharray:none;stroke-opacity:1;paint-order:normal" />
      <path
         style="opacity:1;fill:#87c120;fill-opacity:1;stroke:none;stroke-width:3.17499995;stroke-linecap:butt;stroke-linejoin:miter;stroke-miterlimit:4;stroke-dasharray:none;stroke-opacity:1;paint-order:normal"
         d="M 33.221214,189.26995 A 22.098914,22.098914 0 0 0 60.286812,204.89628 22.098914,22.098914 0 0 0 33.221214,189.26995 Z"
         id="path930"
         inkscape:connector-curvature="0" />
      <path
         inkscape:connector-curvature="0"
         id="path932"
         d="m 67.164727,172.04119 a 22.098914,22.098914 0 0 0 0,31.25267 22.098914,22.098914 0 0 0 0,-31.25267 z"
         style="opacity:1;fill:#87c120;fill-opacity:1;stroke:none;stroke-width:3.17499995;stroke-linecap:butt;stroke-linejoin:miter;stroke-miterlimit:4;stroke-dasharray:none;stroke-opacity:1;paint-order:normal" />
    </g>
    <path
       style="opacity:1;fill:#ecc569;fill-opacity:1;stroke:none;stroke-width:0.345671px;stroke-linecap:butt;stroke-linejoin:miter;stroke-opacity:1"
       d="m 199.89845,216.73741 c 0.8708,5.07373 4.06464,24.58044 4.24212,39.12113 0.23985,19.64466 -3.93742,30.39408 -17.90742,29.39975 -11.70197,-0.8329 -22.77144,-13.82435 -24.30889,-15.36658 l -9.08783,8.26875 c 0,0 6.34025,1.69433 12.31525,6.06637 5.34442,3.91065 11.75258,9.56324 24.33285,9.28751 18.01413,-0.39483 23.80295,-12.83963 23.48961,-38.50485 -0.14851,-12.16737 -1.99853,-27.23633 -3.61993,-38.27208 z"
       id="path938"
       inkscape:connector-curvature="0"
       sodipodi:nodetypes="ccsccssccc" />
    <path
       style="opacity:1;fill:#ecc569;fill-opacity:1;stroke:none;stroke-width:0.26458332px;stroke-linecap:butt;stroke-linejoin:miter;stroke-opacity:1"
       d="m 181.22932,210.1497 -2.76367,11.33047 c 7.20412,-2.03483 16.81122,-3.17191 26.80768,-3.17294 10.00483,0.005 19.61433,1.14737 26.81127,3.18792 l -2.76726,-11.34545 z"
       id="path940"
       inkscape:connector-curvature="0"
       sodipodi:nodetypes="cccccc" />
    <path
       style="fill:#ecc569;fill-opacity:1;stroke:none;stroke-width:0.21328601px;stroke-linecap:butt;stroke-linejoin:miter;stroke-opacity:1"
       d="m 174.6151,229.24271 v 30.85678 c 0,7.95959 -1.59665,12.97551 -1.59665,12.97551 h 13.09118 c -3.08654,-9.04994 -2.55443,-10.90352 -2.55443,-19.84442 v -14.17465 l 43.43987,34.01907 h 8.9401 v -30.85721 c 0,-7.95958 1.59663,-12.97508 1.59663,-12.97508 h -13.09116 c 3.0865,9.04994 2.55443,10.90352 2.55443,19.84443 v 14.17464 L 183.5552,229.24271 Z"
       id="path916"
       inkscape:connector-curvature="0" />
    <rect
       y="22.873173"
       x="132.46283"
       height="142.18739"
       width="141.65285"
       id="rect942"
       style="opacity:1;fill:#ecc569;fill-opacity:1;stroke:none;stroke-width:2.64583325;stroke-linecap:butt;stroke-linejoin:miter;stroke-miterlimit:4;stroke-dasharray:none;stroke-opacity:1;paint-order:normal" />
    <g
       style="fill:#87c120;fill-opacity:1;stroke:#7d2000;stroke-opacity:1"
       transform="matrix(1.0737252,0,0,1.0737252,133.23573,-145.9028)"
       id="g950">
      <path
         style="opacity:1;fill:#87c120;fill-opacity:1;stroke:#7d2000;stroke-width:3.17499995;stroke-linecap:butt;stroke-linejoin:miter;stroke-miterlimit:4;stroke-dasharray:none;stroke-opacity:1;paint-order:normal"
         d="M 101.10824,189.26995 A 22.098914,22.098914 0 0 0 74.042642,204.89628 22.098914,22.098914 0 0 0 101.10824,189.26995 Z"
         id="path944"
         inkscape:connector-curvature="0" />
      <path
         inkscape:connector-curvature="0"
         id="path946"
         d="M 33.221214,189.26995 A 22.098914,22.098914 0 0 0 60.286812,204.89628 22.098914,22.098914 0 0 0 33.221214,189.26995 Z"
         style="opacity:1;fill:#87c120;fill-opacity:1;stroke:#7d2000;stroke-width:3.17499995;stroke-linecap:butt;stroke-linejoin:miter;stroke-miterlimit:4;stroke-dasharray:none;stroke-opacity:1;paint-order:normal" />
      <path
         style="opacity:1;fill:#87c120;fill-opacity:1;stroke:#7d2000;stroke-width:3.17499995;stroke-linecap:butt;stroke-linejoin:miter;stroke-miterlimit:4;stroke-dasharray:none;stroke-opacity:1;paint-order:normal"
         d="m 67.164727,172.04119 a 22.098914,22.098914 0 0 0 0,31.25267 22.098914,22.098914 0 0 0 0,-31.25267 z"
         id="path948"
         inkscape:connector-curvature="0" />
    </g>
    <path
       sodipodi:nodetypes="cscccscccscccsccc"
       inkscape:connector-curvature="0"
       id="path952"
       d="m 210.44199,95.552534 c -2.99037,-0.0259 -6.0834,0.0756 -9.25007,0.33797 -13.32854,1.10431 -24.43384,7.683146 -29.6659,16.744186 -1.76818,3.06222 -2.62445,6.48301 -2.71203,9.972 0.0876,3.489 0.94385,6.90979 2.71203,9.97201 5.23206,9.06104 16.33736,15.63988 29.6659,16.7442 3.16667,0.26237 6.2597,0.36387 9.25007,0.33797 13.20438,-0.11425 24.77322,-4.15106 34.16846,-6.83421 l -4.02042,-11.67216 c -9.18483,5.30062 -23.18984,10.89843 -38.71236,9.61233 -10.92174,-0.9049 -18.00426,-6.33842 -21.47347,-12.34654 -1.14046,-1.97508 -1.54043,-3.91248 -1.61134,-5.8136 0.0709,-1.90111 0.47088,-3.83852 1.61134,-5.8136 3.46924,-6.00811 10.55173,-11.44162 21.47347,-12.34653 15.52252,-1.28609 29.52753,4.31172 38.71236,9.61233 l 4.02042,-11.67215 c -9.39524,-2.683156 -20.96408,-6.719966 -34.16846,-6.834206 z"
       style="color:#000000;font-style:normal;font-variant:normal;font-weight:normal;font-stretch:normal;font-size:medium;line-height:normal;font-family:sans-serif;font-variant-ligatures:normal;font-variant-position:normal;font-variant-caps:normal;font-variant-numeric:normal;font-variant-alternates:normal;font-feature-settings:normal;text-indent:0;text-align:start;text-decoration:none;text-decoration-line:none;text-decoration-style:solid;text-decoration-color:#000000;letter-spacing:normal;word-spacing:normal;text-transform:none;writing-mode:lr-tb;direction:ltr;text-orientation:mixed;dominant-baseline:auto;baseline-shift:baseline;text-anchor:start;white-space:normal;shape-padding:0;clip-rule:nonzero;display:inline;overflow:visible;visibility:visible;opacity:1;isolation:auto;mix-blend-mode:normal;color-interpolation:sRGB;color-interpolation-filters:linearRGB;solid-color:#000000;solid-opacity:1;vector-effect:none;fill:#7d2000;fill-opacity:1;fill-rule:nonzero;stroke:none;stroke-width:8.31879711;stroke-linecap:butt;stroke-linejoin:miter;stroke-miterlimit:4;stroke-dasharray:none;stroke-dashoffset:0;stroke-opacity:1;color-rendering:auto;image-rendering:auto;shape-rendering:auto;text-rendering:auto;enable-background:accumulate" />
    <path
       sodipodi:nodetypes="ccsccssccc"
       inkscape:connector-curvature="0"
       id="path954"
       d="m 199.89845,85.775354 c 0.8708,5.07373 4.06464,24.580436 4.24212,39.121126 0.23985,19.64467 -3.93742,30.39409 -17.90742,29.39976 -11.70197,-0.8329 -22.77144,-13.82435 -24.30889,-15.36658 l -9.08783,8.26875 c 0,0 6.34025,1.69433 12.31525,6.06637 5.34442,3.91065 11.75258,9.56324 24.33285,9.28751 18.01413,-0.39483 23.80295,-12.83963 23.48961,-38.50486 -0.14851,-12.16737 -1.99853,-27.236326 -3.61993,-38.272076 z"
       style="opacity:1;fill:#7d2000;fill-opacity:1;stroke:none;stroke-width:0.345671px;stroke-linecap:butt;stroke-linejoin:miter;stroke-opacity:1" />
    <path
       sodipodi:nodetypes="cccccc"
       inkscape:connector-curvature="0"
       id="path956"
       d="m 181.22932,79.187644 -2.76367,11.33047 c 7.20412,-2.03483 16.81122,-3.17191 26.80768,-3.17294 10.00483,0.005 19.61433,1.14737 26.81127,3.18792 l -2.76726,-11.34545 z"
       style="opacity:1;fill:#7d2000;fill-opacity:1;stroke:none;stroke-width:0.26458332px;stroke-linecap:butt;stroke-linejoin:miter;stroke-opacity:1" />
    <rect
       style="opacity:1;fill:#7d2000;fill-opacity:1;stroke:none;stroke-width:2.64583325;stroke-linecap:butt;stroke-linejoin:miter;stroke-miterlimit:4;stroke-dasharray:none;stroke-opacity:1;paint-order:normal"
       id="rect958"
       width="141.65285"
       height="142.18739"
       x="-9.1900206"
       y="22.873169" />
    <g
       id="g966"
       transform="matrix(1.0737252,0,0,1.0737252,-5.2098739,-146.97188)"
       style="fill:#87c120;fill-opacity:1;stroke:none;stroke-opacity:1">
      <path
         inkscape:connector-curvature="0"
         id="path960"
         d="M 101.10824,189.26995 A 22.098914,22.098914 0 0 0 74.042642,204.89628 22.098914,22.098914 0 0 0 101.10824,189.26995 Z"
         style="opacity:1;fill:#87c120;fill-opacity:1;stroke:none;stroke-width:3.17499995;stroke-linecap:butt;stroke-linejoin:miter;stroke-miterlimit:4;stroke-dasharray:none;stroke-opacity:1;paint-order:normal" />
      <path
         style="opacity:1;fill:#87c120;fill-opacity:1;stroke:none;stroke-width:3.17499995;stroke-linecap:butt;stroke-linejoin:miter;stroke-miterlimit:4;stroke-dasharray:none;stroke-opacity:1;paint-order:normal"
         d="M 33.221214,189.26995 A 22.098914,22.098914 0 0 0 60.286812,204.89628 22.098914,22.098914 0 0 0 33.221214,189.26995 Z"
         id="path962"
         inkscape:connector-curvature="0" />
      <path
         inkscape:connector-curvature="0"
         id="path964"
         d="m 67.164727,172.04119 a 22.098914,22.098914 0 0 0 0,31.25267 22.098914,22.098914 0 0 0 0,-31.25267 z"
         style="opacity:1;fill:#87c120;fill-opacity:1;stroke:none;stroke-width:3.17499995;stroke-linecap:butt;stroke-linejoin:miter;stroke-miterlimit:4;stroke-dasharray:none;stroke-opacity:1;paint-order:normal" />
    </g>
    <path
       style="color:#000000;font-style:normal;font-variant:normal;font-weight:normal;font-stretch:normal;font-size:medium;line-height:normal;font-family:sans-serif;font-variant-ligatures:normal;font-variant-position:normal;font-variant-caps:normal;font-variant-numeric:normal;font-variant-alternates:normal;font-feature-settings:normal;text-indent:0;text-align:start;text-decoration:none;text-decoration-line:none;text-decoration-style:solid;text-decoration-color:#000000;letter-spacing:normal;word-spacing:normal;text-transform:none;writing-mode:lr-tb;direction:ltr;text-orientation:mixed;dominant-baseline:auto;baseline-shift:baseline;text-anchor:start;white-space:normal;shape-padding:0;clip-rule:nonzero;display:inline;overflow:visible;visibility:visible;opacity:1;isolation:auto;mix-blend-mode:normal;color-interpolation:sRGB;color-interpolation-filters:linearRGB;solid-color:#000000;solid-opacity:1;vector-effect:none;fill:#ecc569;fill-opacity:1;fill-rule:nonzero;stroke:none;stroke-width:8.31879711;stroke-linecap:butt;stroke-linejoin:miter;stroke-miterlimit:4;stroke-dasharray:none;stroke-dashoffset:0;stroke-opacity:1;color-rendering:auto;image-rendering:auto;shape-rendering:auto;text-rendering:auto;enable-background:accumulate"
       d="m 71.996386,94.483452 c -2.99037,-0.0259 -6.0834,0.0756 -9.25007,0.33797 -13.32854,1.10431 -24.43384,7.683148 -29.6659,16.744198 -1.76818,3.06222 -2.62445,6.48301 -2.71203,9.972 0.0876,3.489 0.94385,6.90978 2.71203,9.972 5.23206,9.06104 16.33736,15.63988 29.6659,16.7442 3.16667,0.26237 6.2597,0.36387 9.25007,0.33797 13.20438,-0.11425 24.77321,-4.15106 34.168464,-6.83421 l -4.02042,-11.67216 c -9.184834,5.30062 -23.189844,10.89843 -38.712364,9.61233 -10.92174,-0.9049 -18.00426,-6.33842 -21.47347,-12.34653 -1.14046,-1.97508 -1.54043,-3.91248 -1.61134,-5.8136 0.0709,-1.90111 0.47088,-3.83852 1.61134,-5.8136 3.46924,-6.00811 10.55173,-11.44162 21.47347,-12.34653 15.52252,-1.2861 29.52753,4.31172 38.712364,9.61233 l 4.02042,-11.67216 C 96.769596,98.634502 85.200766,94.597692 71.996386,94.483452 Z"
       id="path968"
       inkscape:connector-curvature="0"
       sodipodi:nodetypes="cscccscccscccsccc" />
    <path
       style="opacity:1;fill:#ecc569;fill-opacity:1;stroke:none;stroke-width:0.345671px;stroke-linecap:butt;stroke-linejoin:miter;stroke-opacity:1"
       d="m 61.452846,84.706272 c 0.8708,5.07373 4.06464,24.580448 4.24212,39.121138 0.23985,19.64466 -3.93742,30.39408 -17.90742,29.39975 -11.70197,-0.8329 -22.77144,-13.82435 -24.30889,-15.36658 l -9.08783,8.26875 c 0,0 6.34025,1.69433 12.31525,6.06637 5.34442,3.91065 11.75258,9.56324 24.33285,9.28751 18.01413,-0.39483 23.80295,-12.83963 23.48961,-38.50485 -0.14851,-12.16737 -1.99853,-27.236338 -3.61993,-38.272088 z"
       id="path970"
       inkscape:connector-curvature="0"
       sodipodi:nodetypes="ccsccssccc" />
    <path
       style="opacity:1;fill:#ecc569;fill-opacity:1;stroke:none;stroke-width:0.26458332px;stroke-linecap:butt;stroke-linejoin:miter;stroke-opacity:1"
       d="m 42.783716,78.118562 -2.76367,11.33047 c 7.20412,-2.03483 16.81122,-3.17191 26.80768,-3.17294 10.00483,0.005 19.61433,1.14737 26.81127,3.18792 l -2.76726,-11.34545 z"
       id="path972"
       inkscape:connector-curvature="0"
       sodipodi:nodetypes="cccccc" />
    <rect
       y="165.06056"
       x="-9.1900206"
       height="142.18739"
       width="141.65285"
       id="rect974"
       style="opacity:1;fill:#ecc569;fill-opacity:1;stroke:none;stroke-width:2.64583325;stroke-linecap:butt;stroke-linejoin:miter;stroke-miterlimit:4;stroke-dasharray:none;stroke-opacity:1;paint-order:normal" />
    <g
       style="fill:#87c120;fill-opacity:1;stroke:#7d2000;stroke-opacity:1"
       transform="matrix(1.0737252,0,0,1.0737252,1.7391218,-14.940735)"
       id="g982">
      <path
         style="opacity:1;fill:#87c120;fill-opacity:1;stroke:#7d2000;stroke-width:3.17499995;stroke-linecap:butt;stroke-linejoin:miter;stroke-miterlimit:4;stroke-dasharray:none;stroke-opacity:1;paint-order:normal"
         d="M 101.10824,189.26995 A 22.098914,22.098914 0 0 0 74.042642,204.89628 22.098914,22.098914 0 0 0 101.10824,189.26995 Z"
         id="path976"
         inkscape:connector-curvature="0" />
      <path
         inkscape:connector-curvature="0"
         id="path978"
         d="M 33.221214,189.26995 A 22.098914,22.098914 0 0 0 60.286812,204.89628 22.098914,22.098914 0 0 0 33.221214,189.26995 Z"
         style="opacity:1;fill:#87c120;fill-opacity:1;stroke:#7d2000;stroke-width:3.17499995;stroke-linecap:butt;stroke-linejoin:miter;stroke-miterlimit:4;stroke-dasharray:none;stroke-opacity:1;paint-order:normal" />
      <path
         style="opacity:1;fill:#87c120;fill-opacity:1;stroke:#7d2000;stroke-width:3.17499995;stroke-linecap:butt;stroke-linejoin:miter;stroke-miterlimit:4;stroke-dasharray:none;stroke-opacity:1;paint-order:normal"
         d="m 67.164727,172.04119 a 22.098914,22.098914 0 0 0 0,31.25267 22.098914,22.098914 0 0 0 0,-31.25267 z"
         id="path980"
         inkscape:connector-curvature="0" />
    </g>
    <path
       sodipodi:nodetypes="ccsccssccc"
       inkscape:connector-curvature="0"
       id="path984"
       d="m 68.401842,216.73741 c 0.8708,5.07373 4.06464,24.58044 4.24212,39.12113 0.23985,19.64466 -3.93742,30.39408 -17.90742,29.39975 -11.70197,-0.8329 -22.77144,-13.82435 -24.30889,-15.36658 l -9.08783,8.26875 c 0,0 6.34025,1.69433 12.31525,6.06637 5.34442,3.91065 11.75258,9.56324 24.33285,9.28751 18.01413,-0.39483 23.80295,-12.83963 23.48961,-38.50485 -0.14851,-12.16737 -1.99853,-27.23633 -3.61993,-38.27208 z"
       style="opacity:1;fill:#7d2000;fill-opacity:1;stroke:none;stroke-width:0.345671px;stroke-linecap:butt;stroke-linejoin:miter;stroke-opacity:1" />
    <path
       sodipodi:nodetypes="cccccc"
       inkscape:connector-curvature="0"
       id="path986"
       d="m 49.732712,210.1497 -2.76367,11.33047 c 7.20412,-2.03483 16.81122,-3.17191 26.80768,-3.17294 10.00483,0.005 19.61433,1.14737 26.811268,3.18792 L 97.820732,210.1497 Z"
       style="opacity:1;fill:#7d2000;fill-opacity:1;stroke:none;stroke-width:0.26458332px;stroke-linecap:butt;stroke-linejoin:miter;stroke-opacity:1" />
    <path
       inkscape:connector-curvature="0"
       id="path988"
       d="m 43.118492,229.24271 v 30.85678 c 0,7.95959 -1.59665,12.97551 -1.59665,12.97551 h 13.09118 c -3.08654,-9.04994 -2.55443,-10.90352 -2.55443,-19.84442 v -14.17465 l 43.43987,34.01907 h 8.940098 v -30.85721 c 0,-7.95958 1.59663,-12.97508 1.59663,-12.97508 H 92.944032 c 3.0865,9.04994 2.55443,10.90352 2.55443,19.84443 v 14.17464 l -43.43987,-34.01907 z"
       style="fill:#7d2000;fill-opacity:1;stroke:none;stroke-width:0.21328601px;stroke-linecap:butt;stroke-linejoin:miter;stroke-opacity:1" />
  </g>
</svg>
