<?xml version="1.0" encoding="UTF-8" standalone="no"?>
<!-- Created with Inkscape (http://www.inkscape.org/) -->

<svg
   xmlns:dc="http://purl.org/dc/elements/1.1/"
   xmlns:cc="http://creativecommons.org/ns#"
   xmlns:rdf="http://www.w3.org/1999/02/22-rdf-syntax-ns#"
   xmlns:svg="http://www.w3.org/2000/svg"
   xmlns="http://www.w3.org/2000/svg"
   xmlns:sodipodi="http://sodipodi.sourceforge.net/DTD/sodipodi-0.dtd"
   xmlns:inkscape="http://www.inkscape.org/namespaces/inkscape"
   width="1000"
   height="1400"
   viewBox="0 0 264.58332 370.41668"
   version="1.1"
   id="svg8"
   inkscape:version="0.92.5 (2060ec1f9f, 2020-04-08)"
   sodipodi:docname="green-thumb.svg">
  <defs
     id="defs2" />
  <sodipodi:namedview
     id="base"
     pagecolor="#ffffff"
     bordercolor="#666666"
     borderopacity="1.0"
     inkscape:pageopacity="0.0"
     inkscape:pageshadow="2"
     inkscape:zoom="0.35"
     inkscape:cx="670.29612"
     inkscape:cy="514.07572"
     inkscape:document-units="mm"
     inkscape:current-layer="layer1"
     showgrid="false"
     units="px"
     borderlayer="true"
     inkscape:showpageshadow="false"
     inkscape:window-width="1920"
     inkscape:window-height="1043"
     inkscape:window-x="1920"
     inkscape:window-y="0"
     inkscape:window-maximized="1"
     inkscape:snap-global="false" />
  <metadata
     id="metadata5">
    <rdf:RDF>
      <cc:Work
         rdf:about="">
        <dc:format>image/svg+xml</dc:format>
        <dc:type
           rdf:resource="http://purl.org/dc/dcmitype/StillImage" />
        <dc:title></dc:title>
      </cc:Work>
    </rdf:RDF>
  </metadata>
  <g
     inkscape:label="Layer 1"
     inkscape:groupmode="layer"
     id="layer1"
     transform="translate(0,73.416683)">
    <rect
       style="opacity:1;fill:#ffffff;fill-opacity:1;stroke:none;stroke-width:13.22916603;stroke-miterlimit:4;stroke-dasharray:none;stroke-opacity:1"
       id="rect1059"
       width="278.94644"
       height="387.04764"
       x="-5.2916665"
       y="-79.464302" />
    <g
       id="g1057"
       transform="matrix(1.1943845,0,0,1.1943845,-439.43121,-67.016191)">
      <path
         inkscape:connector-curvature="0"
         id="path917"
         d="m 498.52344,171.03125 -59.25782,28.19727 11.88868,74.30273 2.92968,1.54102 c 0,0 7.42098,3.90617 16.60743,8.10156 9.18644,4.19538 19.78481,8.74888 28.29882,10.14844 7.77621,1.27828 16.80597,1.21832 25.49219,-0.51368 8.68622,-1.73199 17.17249,-5.06477 23.15235,-11.54297 5.48373,-5.94072 6.83856,-13.35864 7.54492,-19.44335 0.70636,-6.08471 1.20637,-11.54338 1.61133,-12.48829 2.08609,-4.86753 7.55078,-10.85156 7.55078,-10.85156 l 4.82226,-4.9707 z m -2.21289,15.70313 54.0664,47.82226 c -1.95589,2.57753 -4.14326,5.82649 -5.74609,9.56641 -2.42986,5.66967 -1.99164,11.00396 -2.5918,16.17383 -0.60016,5.16986 -1.79459,9.46953 -4.125,11.99414 -3.09155,3.34919 -9.06504,6.15861 -16.01758,7.54492 -6.95254,1.3863 -14.74177,1.42122 -20.76171,0.43164 -5.28213,-0.86829 -16.1326,-5.10331 -24.94727,-9.12891 -7.20695,-3.29136 -11.05855,-5.33171 -13.03711,-6.35547 l -9.25781,-57.86523 z"
         style="color:#000000;font-style:normal;font-variant:normal;font-weight:normal;font-stretch:normal;font-size:medium;line-height:normal;font-family:sans-serif;font-variant-ligatures:normal;font-variant-position:normal;font-variant-caps:normal;font-variant-numeric:normal;font-variant-alternates:normal;font-feature-settings:normal;text-indent:0;text-align:start;text-decoration:none;text-decoration-line:none;text-decoration-style:solid;text-decoration-color:#000000;letter-spacing:normal;word-spacing:normal;text-transform:none;writing-mode:lr-tb;direction:ltr;text-orientation:mixed;dominant-baseline:auto;baseline-shift:baseline;text-anchor:start;white-space:normal;shape-padding:0;clip-rule:nonzero;display:inline;overflow:visible;visibility:visible;opacity:1;isolation:auto;mix-blend-mode:normal;color-interpolation:sRGB;color-interpolation-filters:linearRGB;solid-color:#000000;solid-opacity:1;vector-effect:none;fill:#7d2000;fill-opacity:1;fill-rule:nonzero;stroke:none;stroke-width:13.22916698;stroke-linecap:butt;stroke-linejoin:miter;stroke-miterlimit:4;stroke-dasharray:none;stroke-dashoffset:0;stroke-opacity:1;color-rendering:auto;image-rendering:auto;shape-rendering:auto;text-rendering:auto;enable-background:accumulate" />
      <path
         sodipodi:nodetypes="cssccccc"
         inkscape:connector-curvature="0"
         id="path903"
         d="m 457.16219,269.21873 c 0,0 29.10416,15.30804 42.9003,17.57589 13.79615,2.26786 33.63989,-0.18898 42.7113,-10.01636 7.81414,-8.46533 5.1027,-23.43453 7.93752,-30.04911 2.83483,-6.61458 8.88244,-12.85119 8.88244,-12.85119 l -62.17709,-54.99554 -50.83781,24.19048 z"
         style="opacity:1;fill:#ecc569;fill-opacity:1;stroke:none;stroke-width:0.26458332px;stroke-linecap:butt;stroke-linejoin:miter;stroke-opacity:1" />
      <path
         sodipodi:nodetypes="cccsccccccccccccccccccccccccccccccccccsscccccccsccsccscccccccsssccsccsc"
         inkscape:connector-curvature="0"
         id="path1028"
         transform="matrix(0.26458333,0,0,0.26458333,0,32.41665)"
         d="m 1890.209,-112.93359 c -1.4981,-0.0175 -3.0126,-0.0161 -4.5469,0.002 -57.8074,0.67324 -99.046,47.821001 -126.0859,98.759765 -27.0403,50.939346 -42.0625,108.829806 -42.0625,152.511715 0,45.99513 21.5774,91.18567 40.9765,131.12305 8.3271,17.1428 16.0818,32.78319 22.334,46.62109 -12.2302,-2.88582 -24.5248,-5.65955 -35.7519,-7.79101 l -19.3125,-3.66797 -8.1192,17.9043 c -5.8949,13.00059 -9.8066,24.20703 -9.8066,24.20703 l -0.7129,2.03125 -0.1973,1.1875 -111.3652,20.88086 -117.1777,124.23828 286.5859,86.32031 38.1699,25.93555 -2.539,-15.43164 72.6953,-14.16211 c -0.414,-0.16736 -0.8434,-0.34977 -1.2442,-0.50391 -3.3632,-1.29347 -6.2512,-2.13504 -8.5468,-2.6875 -1.1479,-0.27628 -2.133,-0.47951 -3.0469,-0.63867 -0.457,-0.0797 -0.868,-0.14669 -1.4531,-0.22266 -0.2926,-0.0382 -0.5658,-0.077 -1.3008,-0.13671 -0.3674,-0.0302 -0.706,-0.087 -2.0957,-0.084 -0.6949,10e-4 -4.3601,0.39235 -4.3614,0.39258 -10e-5,4e-5 -1.6841,3.37165 -2.1308,4.26562 l -62.3848,-42.39062 -216.4687,-65.19922 50.5058,-53.55078 129.7324,-24.32617 5.1661,-30.99805 c 6.4227,1.42598 12.5421,2.83085 19.0918,4.40234 1.1672,20.12376 -6.1563,36.20508 -6.1563,36.20508 l -33.0371,67.79102 66.9902,-34.63281 c 31.5447,-16.30795 39.6225,-50.4695 40.7051,-79.99415 0.6799,-18.5416 -5.6397,-34.3178 -13.1816,-51.92968 -7.542,-17.61185 -17.176,-36.45625 -26.6114,-55.88086 -18.8706,-38.84925 -35.9511,-80.52118 -35.9511,-109.27735 0,-31.06935 13.2624,-85.811341 36.2246,-129.0683556 22.9622,-43.2570144 53.4432,-71.8690694 82.5078,-72.2070314 v 0 c 1.1806,-0.01398 2.3057,-0.01436 3.375,-0.002 8.411,0.09834 13.2844,1.14732 15.8438,1.859375 -0.1489,0.981592 -0.178,1.696738 -0.9609,4.537109 -4.4387,16.100501 -22.9664,46.083675 -24.3399,81.792969 -1.2162,31.620544 5.8766,81.173214 21.1602,134.271484 15.2835,53.09826 38.2876,108.4903 74.625,146.58594 32.1944,33.75212 49.9888,46.75076 60.7949,54.54101 10.806,7.79025 12.419,7.93695 25.543,27.1543 23.3385,34.17445 75.4472,159.20525 75.4472,238.43945 0,42.19688 -5.0566,74.61437 -14.3301,95.58984 -9.2732,20.97548 -20.2775,31.01059 -40.4082,36.40235 -11.9797,3.20867 -33.8111,5.70734 -55.0664,3.70117 -21.2552,-2.00617 -41.7238,-8.52854 -54.5957,-19.18945 -14.7831,-12.24405 -27.8867,-31.22116 -34.0742,-67.83594 -3.6415,-21.54897 -10.1575,-39.02781 -18.041,-52.9375 l 4.3828,58.56445 c 0,0 -38.4985,82.27041 46.0508,118.88477 16.9378,6.51178 35.803,10.73788 51.5781,12.29297 27.7168,2.61607 53.4212,-0.0189 72.7031,-5.1836 33.6576,-9.01481 59.2868,-33.00923 73.2012,-64.48242 13.9144,-31.47318 18.5996,-69.92348 18.5996,-115.80664 0,-98.55265 -50.9283,-217.98058 -84.1582,-266.63867 -15.1602,-22.19891 -26.6799,-31.64715 -37.5918,-39.51367 -10.9118,-7.86649 -23.4203,-16.58643 -53.8554,-48.49414 -26.2921,-27.56432 -48.7455,-77.22922 -62.7559,-125.9043 -14.0104,-48.675078 -20.0483,-97.612146 -19.2441,-118.519529 0.6153,-15.997893 14.9093,-42.61525 22.5761,-70.425781 3.8335,-13.905264 6.407,-33.24552 -6.5039,-49.355469 -12.9109,-16.109951 -32.5693,-20.052301 -55.9941,-20.326171 z"
         style="color:#000000;font-style:normal;font-variant:normal;font-weight:normal;font-stretch:normal;font-size:medium;line-height:normal;font-family:sans-serif;font-variant-ligatures:normal;font-variant-position:normal;font-variant-caps:normal;font-variant-numeric:normal;font-variant-alternates:normal;font-feature-settings:normal;text-indent:0;text-align:start;text-decoration:none;text-decoration-line:none;text-decoration-style:solid;text-decoration-color:#000000;letter-spacing:normal;word-spacing:normal;text-transform:none;writing-mode:lr-tb;direction:ltr;text-orientation:mixed;dominant-baseline:auto;baseline-shift:baseline;text-anchor:start;white-space:normal;shape-padding:0;clip-rule:nonzero;display:inline;overflow:visible;visibility:visible;opacity:1;isolation:auto;mix-blend-mode:normal;color-interpolation:sRGB;color-interpolation-filters:linearRGB;solid-color:#000000;solid-opacity:1;vector-effect:none;fill:#7d2000;fill-opacity:1;fill-rule:nonzero;stroke:none;stroke-width:49.99999619;stroke-linecap:butt;stroke-linejoin:miter;stroke-miterlimit:4;stroke-dasharray:none;stroke-dashoffset:0;stroke-opacity:1;color-rendering:auto;image-rendering:auto;shape-rendering:auto;text-rendering:auto;enable-background:accumulate" />
      <path
         inkscape:connector-curvature="0"
         id="path1007"
         d="m 460.22852,225.44336 c -3.62422,-0.0253 -6.99969,0.9607 -11.25586,2 -5.6749,1.38573 -12.11983,3.35598 -18.26172,5.375 -12.28378,4.03804 -23.35938,8.29492 -23.35938,8.29492 l -1.58594,0.60938 -1.09765,1.29882 c 0,0 -9.77319,10.18389 -6.12305,23.16211 1.3918,4.9486 4.10556,10.51657 9.68555,13.6836 5.57999,3.16702 12.59211,3.8613 22.54492,3.15039 18.96788,-1.35485 27.04379,-3.09601 33.64258,-6.23828 5.00306,-2.38242 9.91397,-6.89693 14.73828,-12.70118 2.41215,-2.90212 4.60656,-6.04158 6.09766,-9.55468 1.49109,-3.51311 2.47499,-7.86254 0.56445,-12.27149 -2.04889,-4.72819 -4.87994,-8.66934 -8.71094,-11.36523 -3.831,-2.69589 -8.19122,-4.02793 -13.13086,-5.04492 -1.30497,-0.26867 -2.53997,-0.39002 -3.74804,-0.39844 z m 1.08203,13.35547 c 4.1475,0.8539 6.60239,1.79355 8.18359,2.90625 1.5812,1.1127 2.75992,2.51675 4.18555,5.80664 -0.17329,-0.3999 0.11036,0.1618 -0.60352,1.84375 -0.71388,1.68194 -2.22959,4.02281 -4.09375,6.26562 -3.72832,4.48564 -9.64235,8.92456 -10.25195,9.21485 -4.62653,2.2031 -10.44856,3.66848 -28.89844,4.98633 -8.75606,0.62543 -13.23553,-0.41652 -15.07226,-1.45899 -1.83674,-1.04247 -2.46489,-2.15769 -3.47852,-5.76172 -0.98719,-3.50998 1.85993,-8.28376 2.8457,-9.85937 1.69228,-0.645 9.8737,-3.79167 20.71485,-7.35547 5.95205,-1.95662 12.16816,-3.84659 17.26758,-5.0918 5.09941,-1.2452 9.87749,-1.35685 9.20117,-1.49609 z"
         style="color:#000000;font-style:normal;font-variant:normal;font-weight:normal;font-stretch:normal;font-size:medium;line-height:normal;font-family:sans-serif;font-variant-ligatures:normal;font-variant-position:normal;font-variant-caps:normal;font-variant-numeric:normal;font-variant-alternates:normal;font-feature-settings:normal;text-indent:0;text-align:start;text-decoration:none;text-decoration-line:none;text-decoration-style:solid;text-decoration-color:#000000;letter-spacing:normal;word-spacing:normal;text-transform:none;writing-mode:lr-tb;direction:ltr;text-orientation:mixed;dominant-baseline:auto;baseline-shift:baseline;text-anchor:start;white-space:normal;shape-padding:0;clip-rule:nonzero;display:inline;overflow:visible;visibility:visible;opacity:1;isolation:auto;mix-blend-mode:normal;color-interpolation:sRGB;color-interpolation-filters:linearRGB;solid-color:#000000;solid-opacity:1;vector-effect:none;fill:#7d2000;fill-opacity:1;fill-rule:nonzero;stroke:none;stroke-width:13.22916698;stroke-linecap:butt;stroke-linejoin:miter;stroke-miterlimit:4;stroke-dasharray:none;stroke-dashoffset:0;stroke-opacity:1;color-rendering:auto;image-rendering:auto;shape-rendering:auto;text-rendering:auto;enable-background:accumulate" />
      <path
         inkscape:connector-curvature="0"
         id="path899"
         d="m 409.72419,247.28785 c 0,0 -7.2163,8.55262 -4.81086,17.10525 2.40543,8.55262 6.68173,13.36348 25.3906,12.02713 18.70888,-1.33635 25.65787,-2.93997 31.27053,-5.61266 5.61266,-2.6727 21.64884,-17.90706 18.17433,-25.92515 -3.47451,-8.01808 -8.01809,-10.69078 -17.10523,-12.56167 -9.08717,-1.87088 -52.91937,14.9671 -52.91937,14.9671 z"
         style="opacity:1;fill:#ecc569;fill-opacity:1;stroke:none;stroke-width:0.26458332px;stroke-linecap:butt;stroke-linejoin:miter;stroke-opacity:1" />
      <path
         inkscape:connector-curvature="0"
         id="path911"
         d="m 465.9707,196.26953 c -3.39584,-0.099 -7.00654,0.33957 -11.00586,0.7832 -7.99863,0.88727 -17.10647,2.67923 -25.80078,4.66602 -17.38862,3.97357 -33.12695,8.77344 -33.12695,8.77344 l -1.79297,0.54492 -1.24023,1.40625 c 0,0 -9.75901,10.14592 -9.40235,24.05664 0.15221,5.93585 1.22269,10.33945 3.4668,13.73438 2.24411,3.39492 5.46736,5.07548 7.13672,5.91015 2.54383,1.27193 4.18812,1.45838 7.09375,2.04492 2.90563,0.58654 6.48295,1.16031 10.40234,1.61524 7.83879,0.90986 16.9002,1.41432 24.72656,0.16211 14.76283,-2.36206 27.84244,-9.16924 33.03907,-11.9043 3.69449,-1.94447 8.87003,-5.70447 13.96875,-10.22461 2.54936,-2.26007 4.96276,-4.63292 6.93164,-7.17187 1.96887,-2.53896 4.17832,-5.0837 3.71679,-9.92969 -0.33021,-3.46727 -1.49738,-7.77993 -4.49218,-11.52344 -2.99481,-3.74351 -7.34186,-6.93558 -13.90039,-10.5 -3.14311,-1.70821 -6.32486,-2.34441 -9.72071,-2.44336 z M 465.62695,210 c 2.36298,0.14222 3.8156,0.37371 3.7461,0.33594 5.73585,3.11731 8.60717,5.53874 9.88867,7.14062 1.02465,1.28082 1.29373,2.18294 1.48242,3.52735 -0.0876,0.23171 -0.27642,0.8382 -0.83203,1.55468 -1.14648,1.47845 -3.09069,3.46485 -5.25195,5.38086 -4.32253,3.83203 -9.97185,7.68779 -11.35547,8.41602 -4.95962,2.61032 -17.00271,8.63457 -28.9668,10.54883 -5.53711,0.88593 -13.98301,0.58716 -21.11133,-0.24024 -3.56415,-0.41369 -6.83737,-0.94216 -9.31054,-1.4414 -2.47317,-0.49925 -4.73515,-1.38028 -3.79493,-0.91016 -1.53787,-0.76894 -1.6558,-0.82575 -2.01757,-1.37305 -0.36178,-0.5473 -1.16228,-2.29163 -1.27735,-6.77929 -0.15378,-5.9978 3.98686,-11.91031 5.25391,-13.64454 2.89865,-0.86836 15.08677,-4.48534 30.03125,-7.90039 8.41094,-1.92203 17.17699,-3.62254 24.3125,-4.41406 3.56775,-0.39576 6.84014,-0.34339 9.20312,-0.20117 z"
         style="color:#000000;font-style:normal;font-variant:normal;font-weight:normal;font-stretch:normal;font-size:medium;line-height:normal;font-family:sans-serif;font-variant-ligatures:normal;font-variant-position:normal;font-variant-caps:normal;font-variant-numeric:normal;font-variant-alternates:normal;font-feature-settings:normal;text-indent:0;text-align:start;text-decoration:none;text-decoration-line:none;text-decoration-style:solid;text-decoration-color:#000000;letter-spacing:normal;word-spacing:normal;text-transform:none;writing-mode:lr-tb;direction:ltr;text-orientation:mixed;dominant-baseline:auto;baseline-shift:baseline;text-anchor:start;white-space:normal;shape-padding:0;clip-rule:nonzero;display:inline;overflow:visible;visibility:visible;opacity:1;isolation:auto;mix-blend-mode:normal;color-interpolation:sRGB;color-interpolation-filters:linearRGB;solid-color:#000000;solid-opacity:1;vector-effect:none;fill:#7d2000;fill-opacity:1;fill-rule:nonzero;stroke:none;stroke-width:13.22916698;stroke-linecap:butt;stroke-linejoin:miter;stroke-miterlimit:4;stroke-dasharray:none;stroke-dashoffset:0;stroke-opacity:1;color-rendering:auto;image-rendering:auto;shape-rendering:auto;text-rendering:auto;enable-background:accumulate" />
      <path
         transform="matrix(0.26458333,0,0,0.26458333,0,32.41665)"
         sodipodi:nodetypes="ccsccccccccccccscsssccc"
         inkscape:connector-curvature="0"
         id="path901"
         d="m 1889.916,-87.935547 c -1.2837,-0.01501 -2.6035,-0.01393 -3.9609,0.002 -86.8731,1.010152 -143.4414,151.522165 -143.4414,226.273437 0,74.75129 77.3181,173.72592 75.7617,216.17188 -0.8817,24.04638 -9.7413,49.67572 -27.2031,58.70312 0,0 12.0271,-24.68071 8.1484,-55.13086 -0.5478,-4.3005 -1.1605,-8.33745 -1.998,-12.32617 -18.3036,-4.58923 -39.4862,-9.61492 -56.8125,-12.90429 C 1735.0245,344.73123 1731.4277,355 1731.4277,355 l -2.7168,16.30469 -120.5488,22.60351 -83.8418,88.89453 251.5274,75.75977 73.914,50.22461 5.8887,-10.32227 c -0.054,-0.10711 46.4046,6.31133 58.9609,80.61328 6.9736,41.26651 23.3019,66.79349 42.7774,82.92383 37.006,30.64983 100.8163,28.75594 132.0781,20.38282 53.7882,-14.40657 73.2695,-68.06057 73.2695,-156.14063 0,-88.89343 -51.5184,-211.12277 -79.8027,-252.53906 -28.2842,-41.41622 -26.2631,-19.19171 -88.8926,-84.85156 -62.6294,-65.65994 -90.9129,-210.112702 -88.8926,-262.640629 1.9888,-51.707186 65.6431,-113.202866 -15.2324,-114.148438 z"
         style="opacity:1;fill:#ecc569;fill-opacity:1;stroke:none;stroke-width:0.99999994px;stroke-linecap:butt;stroke-linejoin:miter;stroke-opacity:1" />
      <path
         inkscape:connector-curvature="0"
         id="path897"
         d="m 397.96431,216.81912 c 0,0 -8.01806,9.08717 -7.75081,19.51068 0.26728,10.42351 3.74179,12.2944 6.94902,13.89801 3.20722,1.60362 24.85607,5.34539 38.21954,3.20724 13.36346,-2.13816 25.92514,-8.55263 31.00326,-11.22532 5.07812,-2.6727 21.64882,-15.23437 21.11428,-20.84703 -0.53454,-5.61265 -2.67269,-10.15624 -14.96708,-16.83798 -12.29439,-6.68173 -74.56821,12.2944 -74.56821,12.2944 z"
         style="opacity:1;fill:#ecc569;fill-opacity:1;stroke:none;stroke-width:0.26458332px;stroke-linecap:butt;stroke-linejoin:miter;stroke-opacity:1" />
      <path
         inkscape:connector-curvature="0"
         id="path905"
         d="m 459.49219,167.10742 c -8.23288,0.27443 -17.88496,1.22101 -27.18164,2.35352 -18.59337,2.26501 -35.76367,5.29687 -35.76367,5.29687 l -2.50391,0.44141 -1.5625,2.00586 c 0,0 -3.34741,4.28272 -6.58399,9.99219 -3.23657,5.70946 -6.90585,12.73162 -6.2871,20.77539 0.58725,7.63427 5.46092,13.64985 11.29882,17.45898 5.83791,3.80913 12.85395,5.9774 20,7.01953 14.54061,2.1205 34.41312,-0.0477 43.01368,-1.95898 3.05327,-0.67851 6.19926,-2.03713 10.27734,-3.93555 4.07808,-1.89842 8.73752,-4.31389 13.27539,-6.9668 4.53787,-2.65291 8.93127,-5.51374 12.55859,-8.46093 3.62733,-2.9472 6.92819,-5.33262 8.1836,-10.71289 1.4449,-6.19243 -0.40635,-12.41639 -3.82227,-17.60352 -3.41592,-5.18713 -8.44991,-9.64293 -14.55664,-13.1543 -3.05675,-1.75763 -5.84732,-2.06732 -9.16211,-2.36523 -3.31479,-0.29791 -7.06715,-0.32276 -11.18359,-0.18555 z m 0.43945,13.2207 c 3.77636,-0.12587 7.1019,-0.0803 9.56055,0.14063 2.45864,0.22097 4.13601,0.87903 3.75195,0.6582 4.58406,2.63584 8.10527,5.92954 10.10156,8.96094 1.99629,3.0314 2.41427,5.49465 1.98828,7.32031 0.31996,-1.37123 -0.85543,1.18857 -3.64257,3.45313 -2.78715,2.26455 -6.74615,4.88143 -10.89453,7.30664 -4.14839,2.42521 -8.50891,4.68676 -12.18165,6.39648 -3.67273,1.70973 -7.00764,2.89037 -7.5625,3.01367 -5.83204,1.29601 -27.11905,3.40447 -38.23632,1.78321 -5.68288,-0.82876 -11.09439,-2.66974 -14.67774,-5.00781 -3.58335,-2.33807 -5.12528,-4.60725 -5.33984,-7.39649 -0.18306,-2.37974 1.89529,-8.45546 4.60547,-13.23633 1.57009,-2.76971 2.97867,-4.85619 4.04687,-6.36328 3.40564,-0.58769 16.5083,-2.82059 32.45899,-4.76367 9.07809,-1.10588 18.46876,-2.01387 26.02148,-2.26563 z"
         style="color:#000000;font-style:normal;font-variant:normal;font-weight:normal;font-stretch:normal;font-size:medium;line-height:normal;font-family:sans-serif;font-variant-ligatures:normal;font-variant-position:normal;font-variant-caps:normal;font-variant-numeric:normal;font-variant-alternates:normal;font-feature-settings:normal;text-indent:0;text-align:start;text-decoration:none;text-decoration-line:none;text-decoration-style:solid;text-decoration-color:#000000;letter-spacing:normal;word-spacing:normal;text-transform:none;writing-mode:lr-tb;direction:ltr;text-orientation:mixed;dominant-baseline:auto;baseline-shift:baseline;text-anchor:start;white-space:normal;shape-padding:0;clip-rule:nonzero;display:inline;overflow:visible;visibility:visible;opacity:1;isolation:auto;mix-blend-mode:normal;color-interpolation:sRGB;color-interpolation-filters:linearRGB;solid-color:#000000;solid-opacity:1;vector-effect:none;fill:#7d2000;fill-opacity:1;fill-rule:nonzero;stroke:none;stroke-width:13.22916698;stroke-linecap:butt;stroke-linejoin:miter;stroke-miterlimit:4;stroke-dasharray:none;stroke-dashoffset:0;stroke-opacity:1;color-rendering:auto;image-rendering:auto;shape-rendering:auto;text-rendering:auto;enable-background:accumulate" />
      <path
         inkscape:connector-curvature="0"
         id="path895"
         d="m 397.69706,181.27228 c 0,0 -12.2944,15.7689 -11.4926,26.19241 0.80181,10.42351 12.82895,16.57071 25.65788,18.4416 12.82894,1.87088 33.40868,-0.26727 40.62498,-1.87089 7.21627,-1.60362 37.41771,-17.10525 39.28861,-25.12333 1.87089,-8.01809 -4.54358,-17.37252 -15.23437,-23.51972 -10.69078,-6.1472 -78.8445,5.87993 -78.8445,5.87993 z"
         style="opacity:1;fill:#ecc569;fill-opacity:1;stroke:none;stroke-width:0.26458332px;stroke-linecap:butt;stroke-linejoin:miter;stroke-opacity:1" />
      <path
         inkscape:connector-curvature="0"
         id="path909"
         transform="matrix(0.26458333,0,0,0.26458333,0,32.41665)"
         d="m 1713.2188,304.25781 c -33.9563,0 -67.38,15.06847 -127.9141,50.97852 -30.4285,18.05079 -60.7374,37.81292 -85.4531,55.85937 -24.7158,18.04642 -42.7503,31.06085 -54.2481,49.26563 -9.797,15.51209 -14.857,35.09499 -15.4726,57.875 -0.6157,22.78 4.1433,48.79035 20.4336,71.18945 13.4793,18.53405 31.9157,23.92466 53.1406,30.14063 21.2248,6.21596 45.962,10.69628 71.1406,14.14453 50.3573,6.89646 101.584,9.44922 125.2402,9.44922 34.8966,0 69.6274,-19.69675 103.17,-38.56446 16.7712,-9.43385 32.2226,-19.04269 44.1718,-26.96484 5.9747,-3.9611 11.0592,-7.48734 15.1328,-10.48242 4.0737,-2.99509 5.7877,-3.45623 10.8965,-9.29492 7.9838,-9.12424 8.5883,-16.7059 9.3614,-23.61329 0.773,-6.90742 0.5519,-13.5978 -0.1641,-20.35937 -1.4319,-13.52319 -3.909,-26.35107 -11.7734,-39.13086 -5.7277,-9.30735 -16.8862,-19.956 -30.377,-24.64844 -13.4908,-4.69243 -28.2264,-5.90885 -49.9004,-6.4375 -43.2633,-1.0552 -82.4165,14.63892 -95.7441,20.28516 C 1697.125,409.23436 1668.9277,390 1668.9277,390 c 0,0 14.0731,35.94051 5.6153,69.125 -28.4838,-5.50946 -80.4367,-10.77923 -112.8477,14.58594 -28.6402,22.4141 -27.725,5.10948 -22.8125,-11.4668 l -38.3144,48.30664 65.7128,-12.26758 c 0,0 70.1354,-10.71473 115.6387,14.47461 l 10.6739,5.90625 11.2285,-4.7832 c 0,0 54.0146,-20.99585 85.5547,-20.22656 19.7423,0.48151 30.7687,2.29951 34.7031,3.66797 3.9344,1.36845 1.8612,-0.19185 4.2148,3.63281 0.2166,0.35225 3.8017,10.25275 4.6426,18.19531 0.3349,3.16226 0.2448,5.56863 0.1484,7.58984 -0.06,0.045 -0.088,0.0808 -0.1484,0.125 -3.1395,2.3082 -7.6801,5.47867 -13.1328,9.09375 -10.9054,7.23009 -25.5031,16.31358 -41.0567,25.0625 -31.1071,17.49778 -70.1221,32.14063 -78.6621,32.14063 -19.7802,0 -71.082,-2.49633 -118.457,-8.98438 -23.6875,-3.24404 -46.6194,-7.54021 -63.875,-12.59375 -17.2557,-5.05356 -28.1094,-13.42507 -26.7519,-11.55859 -7.9535,-10.93591 -11.2832,-25.84379 -10.8887,-40.43945 0.3945,-14.59563 5.4409,-28.84263 7.7656,-32.52344 0.6241,-0.98812 18.4509,-18.78404 41.4649,-35.58789 11.834,-8.64083 25.3623,-17.88121 39.6464,-27.1875 l -5.8105,7.32422 72.1973,-44.60352 -5.8184,0.63477 c 44.5921,-25.21969 67.3703,-33.38086 83.6602,-33.38086 3.7503,0 28.5793,4.52414 52.7578,9.9082 l 20.9824,-3.0918 15.1894,-39.87109 c -3.4314,-0.85711 -6.958,-1.72806 -10.541,-2.59961 -28.4673,-6.92447 -56.6029,-14.34961 -78.3886,-14.34961 z"
         style="color:#000000;font-style:normal;font-variant:normal;font-weight:normal;font-stretch:normal;font-size:medium;line-height:normal;font-family:sans-serif;font-variant-ligatures:normal;font-variant-position:normal;font-variant-caps:normal;font-variant-numeric:normal;font-variant-alternates:normal;font-feature-settings:normal;text-indent:0;text-align:start;text-decoration:none;text-decoration-line:none;text-decoration-style:solid;text-decoration-color:#000000;letter-spacing:normal;word-spacing:normal;text-transform:none;writing-mode:lr-tb;direction:ltr;text-orientation:mixed;dominant-baseline:auto;baseline-shift:baseline;text-anchor:start;white-space:normal;shape-padding:0;clip-rule:nonzero;display:inline;overflow:visible;visibility:visible;opacity:1;isolation:auto;mix-blend-mode:normal;color-interpolation:sRGB;color-interpolation-filters:linearRGB;solid-color:#000000;solid-opacity:1;vector-effect:none;fill:#7d2000;fill-opacity:1;fill-rule:nonzero;stroke:none;stroke-width:50;stroke-linecap:butt;stroke-linejoin:miter;stroke-miterlimit:4;stroke-dasharray:none;stroke-dashoffset:0;stroke-opacity:1;color-rendering:auto;image-rendering:auto;shape-rendering:auto;text-rendering:auto;enable-background:accumulate" />
      <path
         inkscape:connector-curvature="0"
         id="path874"
         transform="matrix(0.26458333,0,0,0.26458333,0,32.41665)"
         d="m 1713.2188,329.25781 c -26.264,0 -55.5593,12.12319 -115.1583,47.47852 -59.5989,35.35536 -119.1965,77.78171 -131.3183,96.97461 -12.1218,19.19289 -20.2045,67.68061 4.039,101.01562 24.2437,33.33506 185.8682,43.43555 229.3047,43.43555 43.4366,0 147.4837,-68.69029 154.5547,-76.77149 7.0711,-8.08122 3.0304,-40.4051 -5.0508,-53.5371 -8.0812,-13.13197 -18.1833,-18.18321 -59.5996,-19.19336 -41.4162,-1.01016 -95.9648,22.22265 -95.9648,22.22265 -56.5685,-31.31474 -132.3301,-17.17187 -132.3301,-17.17187 l 46.4668,-58.58985 46.4531,-5.0625 -2.0058,-21.20117 28.2851,-7.07031 19.0586,23.33203 65.793,-7.16992 33.8926,-19.29883 c 0.5091,-6.36055 0.5092,-13.2877 -0.418,-20.56641 -0.5478,-4.3005 -1.1605,-8.33745 -1.998,-12.32617 l 0.019,-0.008 c -30.4378,-7.6241 -69.0433,-16.49219 -84.0234,-16.49219 z"
         style="opacity:1;fill:#ecc569;fill-opacity:1;stroke:none;stroke-width:0.99999994px;stroke-linecap:butt;stroke-linejoin:miter;stroke-opacity:1" />
      <path
         inkscape:connector-curvature="0"
         id="path996"
         transform="matrix(0.26458333,0,0,0.26458333,0,32.41665)"
         d="m 1950.6055,199.95898 -180.8184,59.59961 10.252,30.07227 4.8437,-0.19531 c 36.5921,-1.47916 113.9114,-9.10704 176.9512,-56.31836 l 5.0312,-3.76758 z"
         style="color:#000000;font-style:normal;font-variant:normal;font-weight:normal;font-stretch:normal;font-size:medium;line-height:normal;font-family:sans-serif;font-variant-ligatures:normal;font-variant-position:normal;font-variant-caps:normal;font-variant-numeric:normal;font-variant-alternates:normal;font-feature-settings:normal;text-indent:0;text-align:start;text-decoration:none;text-decoration-line:none;text-decoration-style:solid;text-decoration-color:#000000;letter-spacing:normal;word-spacing:normal;text-transform:none;writing-mode:lr-tb;direction:ltr;text-orientation:mixed;dominant-baseline:auto;baseline-shift:baseline;text-anchor:start;white-space:normal;shape-padding:0;clip-rule:nonzero;display:inline;overflow:visible;visibility:visible;opacity:1;isolation:auto;mix-blend-mode:normal;color-interpolation:sRGB;color-interpolation-filters:linearRGB;solid-color:#000000;solid-opacity:1;vector-effect:none;fill:#7d2000;fill-opacity:1;fill-rule:nonzero;stroke:none;stroke-width:49.99999619;stroke-linecap:butt;stroke-linejoin:miter;stroke-miterlimit:4;stroke-dasharray:none;stroke-dashoffset:0;stroke-opacity:1;color-rendering:auto;image-rendering:auto;shape-rendering:auto;text-rendering:auto;enable-background:accumulate" />
      <path
         inkscape:connector-curvature="0"
         id="path992"
         transform="matrix(0.26458333,0,0,0.26458333,0,32.41665)"
         d="m 1889.916,-87.935547 c -1.2837,-0.01501 -2.6035,-0.01393 -3.9609,0.002 -86.8731,1.010152 -143.4414,151.522165 -143.4414,226.273437 0,39.27292 21.3267,85.18034 41.3593,126.11524 34.0862,-1.37786 107.0499,-9.46485 162.9747,-51.34766 -29.6744,-68.30264 -43.1136,-150.122386 -41.6993,-186.894532 1.9888,-51.707186 65.6431,-113.202866 -15.2324,-114.148438 z"
         style="opacity:1;fill:#87c120;fill-opacity:1;stroke:none;stroke-width:0.99999994px;stroke-linecap:butt;stroke-linejoin:miter;stroke-opacity:1" />
    </g>
  </g>
</svg>
