<?xml version="1.0" encoding="UTF-8" standalone="no"?>
<!-- Created with Inkscape (http://www.inkscape.org/) -->

<svg
   xmlns:dc="http://purl.org/dc/elements/1.1/"
   xmlns:cc="http://creativecommons.org/ns#"
   xmlns:rdf="http://www.w3.org/1999/02/22-rdf-syntax-ns#"
   xmlns:svg="http://www.w3.org/2000/svg"
   xmlns="http://www.w3.org/2000/svg"
   xmlns:sodipodi="http://sodipodi.sourceforge.net/DTD/sodipodi-0.dtd"
   xmlns:inkscape="http://www.inkscape.org/namespaces/inkscape"
   width="1000"
   height="1000"
   viewBox="0 0 264.58333 264.58334"
   version="1.1"
   id="svg8"
   inkscape:version="0.92.5 (2060ec1f9f, 2020-04-08)"
   sodipodi:docname="wizard-head-logo.svg">
  <defs
     id="defs2" />
  <sodipodi:namedview
     id="base"
     pagecolor="#ffffff"
     bordercolor="#666666"
     borderopacity="1.0"
     inkscape:pageopacity="0.0"
     inkscape:pageshadow="2"
     inkscape:zoom="0.49497475"
     inkscape:cx="309.18006"
     inkscape:cy="316.84674"
     inkscape:document-units="mm"
     inkscape:current-layer="layer1"
     showgrid="false"
     units="px"
     borderlayer="true"
     inkscape:showpageshadow="false"
     inkscape:window-width="1920"
     inkscape:window-height="1043"
     inkscape:window-x="1920"
     inkscape:window-y="0"
     inkscape:window-maximized="1" />
  <metadata
     id="metadata5">
    <rdf:RDF>
      <cc:Work
         rdf:about="">
        <dc:format>image/svg+xml</dc:format>
        <dc:type
           rdf:resource="http://purl.org/dc/dcmitype/StillImage" />
        <dc:title />
      </cc:Work>
    </rdf:RDF>
  </metadata>
  <g
     inkscape:label="Layer 1"
     inkscape:groupmode="layer"
     id="layer1"
     transform="translate(0,-32.41665)">
    <rect
       style="opacity:1;fill:#ffcb03;fill-opacity:1;stroke:none;stroke-width:5.23291779;stroke-linecap:round;stroke-linejoin:round;stroke-miterlimit:4;stroke-dasharray:none;stroke-opacity:1"
       id="rect938"
       width="288.23904"
       height="293.22592"
       x="-8.5707979"
       y="14.832485" />
    <g
       id="g1196"
       transform="matrix(1.0688482,0,0,1.0688482,-6.7878524,-5.6644166)">
      <path
         id="path936"
         d="m 138.81412,43.459964 c -15.76081,0.303465 -35.18234,12.286412 -43.446947,20.551009 -8.815539,8.815557 -25.03589,36.673427 -58.887635,51.483567 28.386107,7.58138 63.119539,-7.40507 63.119539,-7.40507 l 6.347343,-20.099758 -2.93695,61.339638 c -2.81175,7.9217 -10.059891,24.62689 -24.411672,36.4671 a 1.728023,1.728023 0 0 0 -0.161023,2.51463 c 0,0 3.787535,3.77151 9.847408,4.89428 -0.101502,1.86695 -0.572124,8.40898 -3.939751,12.52499 a 1.728023,1.728023 0 0 0 0.827297,2.74798 c 0,0 1.699655,0.523 3.935851,0.97673 1.564399,0.3174 3.436346,0.35511 5.244312,0.40786 -0.284243,1.92501 -1.064353,6.05847 -4.031307,9.30937 -0.733501,0.0629 -1.479149,0.1308 -2.197443,0.18802 -4.87633,0.38883 -9.695453,0.78722 -17.619828,3.00638 -18.6825,5.23187 -27.185697,18.95719 -27.185697,18.95719 a 1.728023,1.728023 0 0 0 2.051851,2.53585 c 17.958086,-6.40091 31.914085,-3.75428 38.253759,-1.85802 -6.687076,3.58397 -9.93805,9.14353 -9.93805,9.14353 a 1.728023,1.728023 0 0 0 1.570668,2.53972 c 16.954113,-0.48441 33.235555,6.48316 44.393805,9.41639 7.29572,1.91787 15.35561,2.58573 20.69179,2.9225 -4.83753,3.386 -8.55245,7.44556 -8.55245,7.44556 a 1.728023,1.728023 0 0 0 1.31128,2.90419 c 39.62183,-1.00948 59.18895,-18.07967 68.4786,-34.9292 8.9326,-16.2019 8.54995,-32.0177 8.50715,-33.22158 5.75378,-2.14889 11.14971,-6.21421 15.13701,-13.23945 a 1.728023,1.728023 0 0 0 -1.81174,-2.55418 c 0,0 -4.61735,0.829 -9.41638,0.29119 -2.39953,-0.26893 -4.8019,-0.88811 -6.63278,-2.00071 -1.83082,-1.11261 -3.11798,-2.61161 -3.63692,-5.05822 a 1.7282266,1.7282266 0 0 0 -0.14181,-0.40399 c 0.25232,-0.16251 0.50039,-0.32898 0.73953,-0.50333 2.72432,-1.98617 4.5702,-5.05366 3.99468,-8.62188 -0.56229,-3.48622 -2.95882,-5.84047 -5.80162,-7.03 -0.86935,-0.36379 -1.78709,-0.6332 -2.72867,-0.84176 a 1.728023,1.728023 0 0 0 -0.242,-0.10598 c 0,0.001 -0.0435,-0.0168 -0.20345,-0.22948 -0.37371,-0.49943 -1.09299,-1.82814 -1.76453,-4.68217 -1.25728,-5.34343 0.95289,-11.30883 0,-18.36033 -0.53167,-3.93448 -3.17959,-7.24352 -5.57212,-9.68252 -1.13238,-1.15436 -2.23159,-2.1079 -3.08445,-2.80197 -1.01401,-4.89264 -5.46683,-24.60253 -13.1556,-33.829025 -8.81554,-10.578688 -17.63153,-53.599177 -33.85214,-55.009665 -1.01381,-0.08816 -2.04825,-0.119544 -3.09898,-0.09932 z"
         style="opacity:1;fill:#ffffff;stroke:none;stroke-width:0.40968648px;stroke-linecap:butt;stroke-linejoin:miter;stroke-opacity:1"
         inkscape:connector-curvature="0" />
      <g
         style="opacity:1;fill:#bf0a30;fill-opacity:1;stroke:none"
         transform="matrix(1.865845,0,0,1.865845,-704.73312,-108.95957)"
         id="g871">
        <path
           sodipodi:nodetypes="csccccc"
           inkscape:connector-curvature="0"
           id="path843"
           d="m 447.04179,144.53836 c 0,0 1.10901,-5.98862 3.5488,-6.21042 2.43981,-0.2218 5.68284,2.23936 7.23543,2.12846 1.55261,-0.1109 4.29822,-2.90476 4.29822,-2.90476 0,0 -0.7763,7.65213 -4.21421,7.76302 -3.43791,0.11091 -5.65592,-0.9981 -6.98672,-1.5526 -1.33081,-0.5545 -3.88152,0.7763 -3.88152,0.7763 z"
           style="fill:#bf0a30;fill-opacity:1;stroke:none;stroke-width:0.21957155px;stroke-linecap:butt;stroke-linejoin:miter;stroke-opacity:1" />
        <circle
           r="2.2180076"
           cy="148.97437"
           cx="452.14319"
           id="circle845"
           style="opacity:1;fill:#bf0a30;fill-opacity:1;stroke:none;stroke-width:2.32745838;stroke-linecap:round;stroke-linejoin:round;stroke-miterlimit:4;stroke-dasharray:none;stroke-opacity:1" />
        <circle
           style="opacity:1;fill:#bf0a30;fill-opacity:1;stroke:none;stroke-width:1.90677083;stroke-linecap:round;stroke-linejoin:round;stroke-miterlimit:4;stroke-dasharray:none;stroke-opacity:1"
           id="circle847"
           cx="479.03818"
           cy="143.09444"
           r="1.8171033" />
        <path
           inkscape:connector-curvature="0"
           id="path849"
           d="m 469.88672,138.97461 a 0.92613427,0.92613427 0 0 0 -0.86133,1.3418 l 4.94531,10.22265 a 0.92613427,0.92613427 0 0 0 1.07422,0.49024 c 0,0 3.08482,-0.82272 6.2207,-0.89453 1.56795,-0.0359 3.13363,0.13034 4.25977,0.60156 1.12614,0.47122 1.79632,1.11495 1.99609,2.35351 0.19269,1.19463 -0.29819,2.02173 -1.40429,2.82813 -1.1061,0.8064 -2.82129,1.42381 -4.6543,1.75781 -1.83301,0.334 -3.78535,0.39611 -5.34961,0.20899 -1.56426,-0.18713 -2.69336,-0.7361 -2.9043,-1.01954 a 0.92613427,0.92613427 0 0 0 -1.08007,-0.30859 c 0,0 -1.56212,0.59664 -3.29102,0.67969 -0.86445,0.0415 -1.7463,-0.0523 -2.46289,-0.35938 -0.71659,-0.30711 -1.28534,-0.78618 -1.67969,-1.69726 -0.41902,-0.96809 -0.37796,-1.5271 -0.23047,-1.90039 0.1475,-0.3733 0.46191,-0.65967 0.91407,-0.89063 0.90431,-0.46191 2.16406,-0.52539 2.16406,-0.52539 a 0.92613427,0.92613427 0 1 0 -0.043,-1.85156 c 0,0 -1.54725,0.002 -2.96484,0.72656 -0.7088,0.36205 -1.43308,0.94852 -1.79297,1.85938 -0.3599,0.91085 -0.29593,2.04806 0.2539,3.31836 0.5745,1.32729 1.56918,2.20068 2.65039,2.66406 1.08121,0.46337 2.23306,0.55621 3.28125,0.50586 1.82795,-0.0878 3.0026,-0.56249 3.37891,-0.70117 0.89109,0.75864 2.10135,1.16201 3.58789,1.33984 1.78705,0.21378 3.88305,0.14102 5.90039,-0.22656 2.01735,-0.36759 3.95396,-1.01755 5.41406,-2.08203 1.46011,-1.06449 2.44908,-2.70871 2.14063,-4.6211 -0.30137,-1.86844 -1.58578,-3.13005 -3.10938,-3.76758 -1.52359,-0.63753 -3.30311,-0.7834 -5.01757,-0.74414 -2.79344,0.064 -5.01165,0.57226 -5.90235,0.79102 l -4.62695,-9.56445 a 0.92613427,0.92613427 0 0 0 -0.80664,-0.53516 z"
           style="color:#000000;font-style:normal;font-variant:normal;font-weight:normal;font-stretch:normal;font-size:medium;line-height:normal;font-family:sans-serif;font-variant-ligatures:normal;font-variant-position:normal;font-variant-caps:normal;font-variant-numeric:normal;font-variant-alternates:normal;font-feature-settings:normal;text-indent:0;text-align:start;text-decoration:none;text-decoration-line:none;text-decoration-style:solid;text-decoration-color:#000000;letter-spacing:normal;word-spacing:normal;text-transform:none;writing-mode:lr-tb;direction:ltr;text-orientation:mixed;dominant-baseline:auto;baseline-shift:baseline;text-anchor:start;white-space:normal;shape-padding:0;clip-rule:nonzero;display:inline;overflow:visible;visibility:visible;opacity:1;isolation:auto;mix-blend-mode:normal;color-interpolation:sRGB;color-interpolation-filters:linearRGB;solid-color:#000000;solid-opacity:1;vector-effect:none;fill:#bf0a30;fill-opacity:1;fill-rule:nonzero;stroke:none;stroke-width:1.85208333;stroke-linecap:round;stroke-linejoin:round;stroke-miterlimit:4;stroke-dasharray:none;stroke-dashoffset:0;stroke-opacity:1;color-rendering:auto;image-rendering:auto;shape-rendering:auto;text-rendering:auto;enable-background:accumulate" />
        <path
           inkscape:connector-curvature="0"
           id="path851"
           d="m 477.58203,128.5293 a 0.92613427,0.92613427 0 0 0 -0.53711,1.69336 c 0,0 1.08929,0.75834 2.24024,1.93164 1.15094,1.17329 2.28514,2.75302 2.47265,4.14062 0.43422,3.21331 -0.80486,6.45386 0.0332,10.01563 0.39604,1.68318 0.83203,2.61845 1.26367,3.19531 0.21581,0.28843 0.43572,0.48648 0.64648,0.61523 0.10538,0.0644 0.20721,0.1115 0.30078,0.14258 0.0936,0.0311 0.2461,0.0527 0.2461,0.0527 a 0.92613427,0.92613427 0 0 0 0.40039,-1.79688 c 9.6e-4,7.3e-4 -0.0237,-0.009 -0.10938,-0.12305 -0.20029,-0.26767 -0.5854,-0.98014 -0.94531,-2.50976 -0.67384,-2.86381 0.5107,-6.06059 0,-9.83984 -0.28496,-2.10869 -1.70405,-3.88228 -2.98633,-5.18946 -1.28228,-1.30717 -2.50586,-2.15625 -2.50586,-2.15625 a 0.92613427,0.92613427 0 0 0 -0.51953,-0.17187 z"
           style="color:#000000;font-style:normal;font-variant:normal;font-weight:normal;font-stretch:normal;font-size:medium;line-height:normal;font-family:sans-serif;font-variant-ligatures:normal;font-variant-position:normal;font-variant-caps:normal;font-variant-numeric:normal;font-variant-alternates:normal;font-feature-settings:normal;text-indent:0;text-align:start;text-decoration:none;text-decoration-line:none;text-decoration-style:solid;text-decoration-color:#000000;letter-spacing:normal;word-spacing:normal;text-transform:none;writing-mode:lr-tb;direction:ltr;text-orientation:mixed;dominant-baseline:auto;baseline-shift:baseline;text-anchor:start;white-space:normal;shape-padding:0;clip-rule:nonzero;display:inline;overflow:visible;visibility:visible;opacity:1;isolation:auto;mix-blend-mode:normal;color-interpolation:sRGB;color-interpolation-filters:linearRGB;solid-color:#000000;solid-opacity:1;vector-effect:none;fill:#bf0a30;fill-opacity:1;fill-rule:nonzero;stroke:none;stroke-width:1.85208333;stroke-linecap:round;stroke-linejoin:round;stroke-miterlimit:4;stroke-dasharray:none;stroke-dashoffset:0;stroke-opacity:1;color-rendering:auto;image-rendering:auto;shape-rendering:auto;text-rendering:auto;enable-background:accumulate" />
        <path
           inkscape:connector-curvature="0"
           id="path853"
           transform="matrix(0.26458333,0,0,0.26458333,0,32.41665)"
           d="m 1818.125,383.07812 c -0.2293,-0.014 -0.4601,-0.0121 -0.6914,0.008 -7.4007,0.63813 -15.7695,9.71262 -20.4629,10.20898 -4.6934,0.49622 -14.377,-6.3789 -14.3769,-6.3789 0,0 6.3959,22.42685 16.7167,20.92578 10.3208,-1.50089 16.3486,-5.9931 20.0254,-8.35742 1.316,-0.84619 3.229,-1.04973 5.1407,-0.96876 l -2.545,-13.77539 c -1.2132,-0.95703 -2.4923,-1.58193 -3.8066,-1.66211 z"
           style="fill:#bf0a30;fill-opacity:1;stroke:none;stroke-width:0.66575444px;stroke-linecap:butt;stroke-linejoin:miter;stroke-opacity:1" />
        <path
           inkscape:connector-curvature="0"
           id="path855"
           d="m 463.62305,154.80664 c 0,0 -5.2809,-0.36984 -8.17969,2.75195 -1.54204,1.66067 -1.77634,3.93121 -3.55274,6.25586 -1.77639,2.32466 -5.00988,4.8489 -12.34179,6.70508 a 0.92613427,0.92613427 0 0 0 -0.28906,1.66602 c 0,0 4.19049,2.81379 10.38281,3.6582 6.06265,0.82673 14.13947,-0.35258 22.01758,-7.62305 0.74574,0.36486 4.62586,2.21388 9.83398,2.74805 5.73128,0.58782 12.75445,-0.73803 16.91602,-8.07031 a 0.92613427,0.92613427 0 0 0 -0.97071,-1.36914 c 0,0 -2.47482,0.44449 -5.04687,0.15625 -1.28603,-0.14413 -2.57344,-0.47597 -3.55469,-1.07227 -0.98125,-0.5963 -1.67107,-1.39968 -1.94922,-2.71094 a 0.92624341,0.92624341 0 1 0 -1.8125,0.38282 c 0.38331,1.80705 1.47874,3.10676 2.80078,3.91015 1.32205,0.8034 2.85625,1.1671 4.31055,1.33008 1.25533,0.14068 2.37912,0.0918 3.35156,0.0312 -3.77634,5.03715 -9.05475,6.06269 -13.85547,5.57031 -5.32452,-0.5461 -9.73632,-2.78711 -9.73632,-2.78711 a 0.92613427,0.92613427 0 0 0 -1.0625,0.15625 c -7.64913,7.32658 -15.23101,8.29734 -20.99219,7.51172 -3.71951,-0.5072 -6.12863,-1.5528 -7.73047,-2.37695 6.05348,-1.86899 9.3698,-4.29735 11.19922,-6.69141 2.05062,-2.68352 2.52465,-5.13592 3.43945,-6.12109 2.01489,-2.16989 6.75195,-2.16211 6.75195,-2.16211 a 0.92613427,0.92613427 0 1 0 0.0703,-1.84961 z"
           style="color:#000000;font-style:normal;font-variant:normal;font-weight:normal;font-stretch:normal;font-size:medium;line-height:normal;font-family:sans-serif;font-variant-ligatures:normal;font-variant-position:normal;font-variant-caps:normal;font-variant-numeric:normal;font-variant-alternates:normal;font-feature-settings:normal;text-indent:0;text-align:start;text-decoration:none;text-decoration-line:none;text-decoration-style:solid;text-decoration-color:#000000;letter-spacing:normal;word-spacing:normal;text-transform:none;writing-mode:lr-tb;direction:ltr;text-orientation:mixed;dominant-baseline:auto;baseline-shift:baseline;text-anchor:start;white-space:normal;shape-padding:0;clip-rule:nonzero;display:inline;overflow:visible;visibility:visible;opacity:1;isolation:auto;mix-blend-mode:normal;color-interpolation:sRGB;color-interpolation-filters:linearRGB;solid-color:#000000;solid-opacity:1;vector-effect:none;fill:#bf0a30;fill-opacity:1;fill-rule:nonzero;stroke:none;stroke-width:1.85208333;stroke-linecap:round;stroke-linejoin:round;stroke-miterlimit:4;stroke-dasharray:none;stroke-dashoffset:0;stroke-opacity:1;color-rendering:auto;image-rendering:auto;shape-rendering:auto;text-rendering:auto;enable-background:accumulate" />
        <path
           inkscape:connector-curvature="0"
           id="path857"
           d="m 441.68164,133.56055 a 0.92613427,0.92613427 0 0 0 -0.9375,0.8164 c -1.55773,11.58138 0.33939,19.85231 2.6582,25.22852 2.31882,5.37621 5.125,7.92383 5.125,7.92383 a 0.92665125,0.92665125 0 1 0 1.23828,-1.37891 c 0,0 -2.47269,-2.19663 -4.66406,-7.27734 -2.19136,-5.08072 -4.03736,-12.97984 -2.52148,-24.25 a 0.92613427,0.92613427 0 0 0 -0.89844,-1.0625 z"
           style="color:#000000;font-style:normal;font-variant:normal;font-weight:normal;font-stretch:normal;font-size:medium;line-height:normal;font-family:sans-serif;font-variant-ligatures:normal;font-variant-position:normal;font-variant-caps:normal;font-variant-numeric:normal;font-variant-alternates:normal;font-feature-settings:normal;text-indent:0;text-align:start;text-decoration:none;text-decoration-line:none;text-decoration-style:solid;text-decoration-color:#000000;letter-spacing:normal;word-spacing:normal;text-transform:none;writing-mode:lr-tb;direction:ltr;text-orientation:mixed;dominant-baseline:auto;baseline-shift:baseline;text-anchor:start;white-space:normal;shape-padding:0;clip-rule:nonzero;display:inline;overflow:visible;visibility:visible;opacity:1;isolation:auto;mix-blend-mode:normal;color-interpolation:sRGB;color-interpolation-filters:linearRGB;solid-color:#000000;solid-opacity:1;vector-effect:none;fill:#bf0a30;fill-opacity:1;fill-rule:nonzero;stroke:none;stroke-width:1.85208333;stroke-linecap:round;stroke-linejoin:round;stroke-miterlimit:4;stroke-dasharray:none;stroke-dashoffset:0;stroke-opacity:1;color-rendering:auto;image-rendering:auto;shape-rendering:auto;text-rendering:auto;enable-background:accumulate" />
        <path
           inkscape:connector-curvature="0"
           id="path859"
           d="m 437.44922,150.79883 a 0.92613427,0.92613427 0 0 0 -0.92188,0.93164 c 0,0 -0.14128,7.06736 3.36719,12.22265 a 0.9263493,0.9263493 0 1 0 1.53125,-1.04296 c -3.03964,-4.46641 -3.04687,-11.16211 -3.04687,-11.16211 a 0.92613427,0.92613427 0 0 0 -0.92969,-0.94922 z"
           style="color:#000000;font-style:normal;font-variant:normal;font-weight:normal;font-stretch:normal;font-size:medium;line-height:normal;font-family:sans-serif;font-variant-ligatures:normal;font-variant-position:normal;font-variant-caps:normal;font-variant-numeric:normal;font-variant-alternates:normal;font-feature-settings:normal;text-indent:0;text-align:start;text-decoration:none;text-decoration-line:none;text-decoration-style:solid;text-decoration-color:#000000;letter-spacing:normal;word-spacing:normal;text-transform:none;writing-mode:lr-tb;direction:ltr;text-orientation:mixed;dominant-baseline:auto;baseline-shift:baseline;text-anchor:start;white-space:normal;shape-padding:0;clip-rule:nonzero;display:inline;overflow:visible;visibility:visible;opacity:1;isolation:auto;mix-blend-mode:normal;color-interpolation:sRGB;color-interpolation-filters:linearRGB;solid-color:#000000;solid-opacity:1;vector-effect:none;fill:#bf0a30;fill-opacity:1;fill-rule:nonzero;stroke:none;stroke-width:1.85208333;stroke-linecap:round;stroke-linejoin:round;stroke-miterlimit:4;stroke-dasharray:none;stroke-dashoffset:0;stroke-opacity:1;color-rendering:auto;image-rendering:auto;shape-rendering:auto;text-rendering:auto;enable-background:accumulate" />
        <path
           inkscape:connector-curvature="0"
           id="path861"
           d="m 433.4668,152.4707 c -1.04055,0.10698 -2.17564,0.48333 -2.96094,1.4375 -0.7853,0.95418 -1.10733,2.37478 -0.85156,4.23828 0.25056,1.82554 0.80108,3.17296 1.61718,4.10547 0.81611,0.93252 1.9006,1.39329 2.95704,1.46094 2.11287,0.13531 4.10412,-1.03314 5.32031,-2.40625 a 0.92613427,0.92613427 0 1 0 -1.38477,-1.22852 c -0.85516,0.96551 -2.5383,1.86896 -3.8164,1.78711 -0.63906,-0.0409 -1.1802,-0.26101 -1.68164,-0.83398 -0.50145,-0.57297 -0.96058,-1.55456 -1.17774,-3.13672 -0.21194,-1.54418 0.0674,-2.34708 0.44727,-2.80859 0.37983,-0.46152 0.97389,-0.69471 1.7207,-0.77149 1.49362,-0.15355 3.29102,0.43555 3.29102,0.43555 a 0.92613427,0.92613427 0 1 0 0.61132,-1.74609 c 0,0 -2.01069,-0.74715 -4.09179,-0.53321 z"
           style="color:#000000;font-style:normal;font-variant:normal;font-weight:normal;font-stretch:normal;font-size:medium;line-height:normal;font-family:sans-serif;font-variant-ligatures:normal;font-variant-position:normal;font-variant-caps:normal;font-variant-numeric:normal;font-variant-alternates:normal;font-feature-settings:normal;text-indent:0;text-align:start;text-decoration:none;text-decoration-line:none;text-decoration-style:solid;text-decoration-color:#000000;letter-spacing:normal;word-spacing:normal;text-transform:none;writing-mode:lr-tb;direction:ltr;text-orientation:mixed;dominant-baseline:auto;baseline-shift:baseline;text-anchor:start;white-space:normal;shape-padding:0;clip-rule:nonzero;display:inline;overflow:visible;visibility:visible;opacity:1;isolation:auto;mix-blend-mode:normal;color-interpolation:sRGB;color-interpolation-filters:linearRGB;solid-color:#000000;solid-opacity:1;vector-effect:none;fill:#bf0a30;fill-opacity:1;fill-rule:nonzero;stroke:none;stroke-width:1.85208333;stroke-linecap:round;stroke-linejoin:round;stroke-miterlimit:4;stroke-dasharray:none;stroke-dashoffset:0;stroke-opacity:1;color-rendering:auto;image-rendering:auto;shape-rendering:auto;text-rendering:auto;enable-background:accumulate" />
        <path
           inkscape:connector-curvature="0"
           id="path863"
           d="m 489.40625,168.97461 a 0.92613427,0.92613427 0 0 0 -0.96094,0.98242 c 0,0 0.37964,8.40676 -4.33008,16.94922 -4.50229,8.16624 -13.67114,16.38569 -32.5664,17.5625 1.30419,-1.17413 2.99994,-2.54775 4.80078,-3.37891 a 0.92613427,0.92613427 0 0 0 -0.35352,-1.76757 c 0,0 -8.46938,-0.33274 -13.69726,-1.70704 -5.33439,-1.40228 -13.59428,-4.7747 -22.51953,-4.98828 0.87444,-1.17413 2.38804,-2.85175 5.44922,-3.78711 a 0.92613427,0.92613427 0 0 0 0.12109,-1.72461 c 0,0 -8.70363,-3.90072 -20.90039,-0.63671 1.81354,-2.14717 5.01027,-5.29277 11.53906,-7.1211 4.1174,-1.15304 6.47793,-1.34056 9.08984,-1.54883 2.61192,-0.20827 5.46254,-0.43515 10.26368,-1.65234 a 0.92613427,0.92613427 0 1 0 -0.45508,-1.79492 c -4.68693,1.18824 -7.34161,1.39317 -9.95508,1.60156 -2.61347,0.20839 -5.19629,0.42197 -9.44336,1.61133 -10.01288,2.80402 -14.57031,10.16016 -14.57031,10.16016 a 0.92613427,0.92613427 0 0 0 1.09961,1.35937 c 9.62464,-3.43057 17.1042,-2.01239 20.50195,-0.99609 -3.58393,1.92083 -5.32617,4.90039 -5.32617,4.90039 a 0.92613427,0.92613427 0 0 0 0.8418,1.36133 c 9.08656,-0.25962 17.81267,3.4748 23.79296,5.04687 3.91013,1.02788 8.22992,1.38592 11.08985,1.56641 -2.59267,1.81473 -4.58399,3.99023 -4.58399,3.99023 a 0.92613427,0.92613427 0 0 0 0.70313,1.55664 c 21.23531,-0.54103 31.72237,-9.69019 36.70117,-18.7207 4.9788,-9.03052 4.55664,-17.92774 4.55664,-17.92774 a 0.92613427,0.92613427 0 0 0 -0.88867,-0.89648 z"
           style="color:#000000;font-style:normal;font-variant:normal;font-weight:normal;font-stretch:normal;font-size:medium;line-height:normal;font-family:sans-serif;font-variant-ligatures:normal;font-variant-position:normal;font-variant-caps:normal;font-variant-numeric:normal;font-variant-alternates:normal;font-feature-settings:normal;text-indent:0;text-align:start;text-decoration:none;text-decoration-line:none;text-decoration-style:solid;text-decoration-color:#000000;letter-spacing:normal;word-spacing:normal;text-transform:none;writing-mode:lr-tb;direction:ltr;text-orientation:mixed;dominant-baseline:auto;baseline-shift:baseline;text-anchor:start;white-space:normal;shape-padding:0;clip-rule:nonzero;display:inline;overflow:visible;visibility:visible;opacity:1;isolation:auto;mix-blend-mode:normal;color-interpolation:sRGB;color-interpolation-filters:linearRGB;solid-color:#000000;solid-opacity:1;vector-effect:none;fill:#bf0a30;fill-opacity:1;fill-rule:nonzero;stroke:none;stroke-width:1.85208333;stroke-linecap:round;stroke-linejoin:round;stroke-miterlimit:4;stroke-dasharray:none;stroke-dashoffset:0;stroke-opacity:1;color-rendering:auto;image-rendering:auto;shape-rendering:auto;text-rendering:auto;enable-background:accumulate" />
        <path
           inkscape:connector-curvature="0"
           id="path865"
           d="m 434.61523,135.29883 a 0.92613427,0.92613427 0 0 0 -0.93164,0.70898 c 0,0 -3.45194,13.38229 -13.85742,21.9668 a 0.92613427,0.92613427 0 0 0 -0.0859,1.34766 c 0,0 2.02957,2.02129 5.27735,2.62304 -0.0544,1.00059 -0.30644,4.50691 -2.11133,6.71289 a 0.92613427,0.92613427 0 0 0 0.44336,1.47266 c 0,0 0.91088,0.28026 2.10937,0.52344 0.83843,0.17011 1.84158,0.19048 2.81055,0.21875 -0.15514,1.05064 -0.5825,3.32992 -2.24609,5.08593 a 0.92613427,0.92613427 0 1 0 1.34375,1.27344 c 2.71658,-2.8675 2.92578,-7.12305 2.92578,-7.12304 a 0.92613427,0.92613427 0 0 0 -1.0332,-0.98243 c -0.93919,0.1105 -2.32494,-0.0645 -3.43165,-0.28906 -0.464,-0.0941 -0.48535,-0.11754 -0.81054,-0.20117 1.91829,-3.27696 1.93555,-7.41016 1.93554,-7.41016 a 0.92613427,0.92613427 0 0 0 -0.85351,-0.92187 c -2.25294,-0.17331 -3.55567,-1.08951 -4.27539,-1.6836 10.28457,-9.05087 13.6543,-22.15429 13.6543,-22.15429 a 0.92613427,0.92613427 0 0 0 -0.86329,-1.16797 z"
           style="color:#000000;font-style:normal;font-variant:normal;font-weight:normal;font-stretch:normal;font-size:medium;line-height:normal;font-family:sans-serif;font-variant-ligatures:normal;font-variant-position:normal;font-variant-caps:normal;font-variant-numeric:normal;font-variant-alternates:normal;font-feature-settings:normal;text-indent:0;text-align:start;text-decoration:none;text-decoration-line:none;text-decoration-style:solid;text-decoration-color:#000000;letter-spacing:normal;word-spacing:normal;text-transform:none;writing-mode:lr-tb;direction:ltr;text-orientation:mixed;dominant-baseline:auto;baseline-shift:baseline;text-anchor:start;white-space:normal;shape-padding:0;clip-rule:nonzero;display:inline;overflow:visible;visibility:visible;opacity:1;isolation:auto;mix-blend-mode:normal;color-interpolation:sRGB;color-interpolation-filters:linearRGB;solid-color:#000000;solid-opacity:1;vector-effect:none;fill:#bf0a30;fill-opacity:1;fill-rule:nonzero;stroke:none;stroke-width:1.85208333;stroke-linecap:round;stroke-linejoin:round;stroke-miterlimit:4;stroke-dasharray:none;stroke-dashoffset:0;stroke-opacity:1;color-rendering:auto;image-rendering:auto;shape-rendering:auto;text-rendering:auto;enable-background:accumulate" />
        <path
           sodipodi:nodetypes="cccsscccc"
           inkscape:connector-curvature="0"
           id="path867"
           d="m 432.78274,141.0848 c 0,0 29.85159,-11.21614 46.29356,-11.12164 0,0 -2.44832,-13.06883 -7.17303,-18.73847 -4.7247,-5.66965 -9.4494,-28.726195 -18.14285,-29.482147 -8.69346,-0.755953 -20.22173,6.236607 -24.94643,10.961309 -4.7247,4.724703 -13.41816,19.654758 -31.56101,27.592258 l 1.7127,-0.28348 35.51795,-14.45759 z"
           style="fill:#bf0a30;fill-opacity:1;stroke:none;stroke-width:0.26458332px;stroke-linecap:butt;stroke-linejoin:miter;stroke-opacity:1" />
        <path
           inkscape:connector-curvature="0"
           id="path869"
           d="m 434.48364,105.55504 -3.4018,10.77232 c 0,0 -18.61532,8.03199 -33.82886,3.96875 l 3.25041,-1.13059 33.60227,-16.20906 z"
           style="fill:#bf0a30;fill-opacity:1;stroke:none;stroke-width:0.26458332px;stroke-linecap:butt;stroke-linejoin:miter;stroke-opacity:1" />
      </g>
    </g>
  </g>
</svg>
