<?xml version="1.0" encoding="UTF-8" standalone="no"?>
<!-- Created with Inkscape (http://www.inkscape.org/) -->

<svg
   xmlns:dc="http://purl.org/dc/elements/1.1/"
   xmlns:cc="http://creativecommons.org/ns#"
   xmlns:rdf="http://www.w3.org/1999/02/22-rdf-syntax-ns#"
   xmlns:svg="http://www.w3.org/2000/svg"
   xmlns="http://www.w3.org/2000/svg"
   xmlns:sodipodi="http://sodipodi.sourceforge.net/DTD/sodipodi-0.dtd"
   xmlns:inkscape="http://www.inkscape.org/namespaces/inkscape"
   width="1000"
   height="700"
   viewBox="0 0 264.58333 185.20833"
   version="1.1"
   id="svg8"
   inkscape:version="0.92.5 (2060ec1f9f, 2020-04-08)"
   sodipodi:docname="football-logo.svg">
  <defs
     id="defs2" />
  <sodipodi:namedview
     id="base"
     pagecolor="#ffffff"
     bordercolor="#666666"
     borderopacity="1.0"
     inkscape:pageopacity="0.0"
     inkscape:pageshadow="2"
     inkscape:zoom="0.49497475"
     inkscape:cx="282.87854"
     inkscape:cy="430.43392"
     inkscape:document-units="mm"
     inkscape:current-layer="layer1"
     showgrid="false"
     units="px"
     borderlayer="true"
     inkscape:showpageshadow="false"
     inkscape:window-width="1920"
     inkscape:window-height="1043"
     inkscape:window-x="1920"
     inkscape:window-y="0"
     inkscape:window-maximized="1" />
  <metadata
     id="metadata5">
    <rdf:RDF>
      <cc:Work
         rdf:about="">
        <dc:format>image/svg+xml</dc:format>
        <dc:type
           rdf:resource="http://purl.org/dc/dcmitype/StillImage" />
        <dc:title />
      </cc:Work>
    </rdf:RDF>
  </metadata>
  <g
     inkscape:label="Layer 1"
     inkscape:groupmode="layer"
     id="layer1"
     transform="translate(0,-111.79165)">
    <rect
       style="opacity:1;fill:#ffffff;fill-opacity:1;stroke:none;stroke-width:19.84375;stroke-linecap:round;stroke-linejoin:round;stroke-miterlimit:4;stroke-dasharray:none;stroke-opacity:1"
       id="rect1391"
       width="274.75305"
       height="195.64128"
       x="-6.4144688"
       y="106.70408" />
    <g
       id="g826">
      <path
         style="opacity:1;fill:#ffd700;fill-opacity:1;stroke:none;stroke-width:4.72677422;stroke-linecap:round;stroke-linejoin:round;stroke-miterlimit:4;stroke-dasharray:none;stroke-opacity:1"
         d="M 132.47514,134.95463 A 143.75815,143.75815 0 0 0 9.9319933,203.89255 143.75815,143.75815 0 0 0 132.47514,272.72402 143.75815,143.75815 0 0 0 255.01827,203.78556 143.75815,143.75815 0 0 0 132.47514,134.95463 Z"
         id="path1182"
         inkscape:connector-curvature="0" />
      <path
         inkscape:connector-curvature="0"
         id="path877"
         d="m 132.47187,132.59124 c -50.884837,0.0744 -98.074419,26.62132 -124.5578761,70.07129 a 2.3636234,2.3636234 0 0 0 0.00105,2.46167 C 34.4249,248.5327 81.609679,275.03607 132.47291,275.08741 a 2.3636234,2.3636234 0 0 0 0.005,0 c 50.88494,-0.0745 98.07456,-26.62166 124.55787,-70.07181 a 2.3636234,2.3636234 0 0 0 -10e-4,-2.46169 c -26.5098,-43.40828 -73.69457,-69.91143 -124.55767,-69.96267 a 2.3636234,2.3636234 0 0 0 -0.005,0 z m 0.001,4.72678 h 0.005 c 48.73565,0.051 93.95259,25.1971 119.74368,66.46863 -25.76604,41.3121 -70.98792,66.50074 -119.74477,66.57398 C 83.739205,270.31145 38.519909,245.16474 12.727963,203.89146 38.494131,162.57955 83.715991,137.39114 132.47272,137.31802 Z"
         style="color:#000000;font-style:normal;font-variant:normal;font-weight:normal;font-stretch:normal;font-size:medium;line-height:normal;font-family:sans-serif;font-variant-ligatures:normal;font-variant-position:normal;font-variant-caps:normal;font-variant-numeric:normal;font-variant-alternates:normal;font-feature-settings:normal;text-indent:0;text-align:start;text-decoration:none;text-decoration-line:none;text-decoration-style:solid;text-decoration-color:#000000;letter-spacing:normal;word-spacing:normal;text-transform:none;writing-mode:lr-tb;direction:ltr;text-orientation:mixed;dominant-baseline:auto;baseline-shift:baseline;text-anchor:start;white-space:normal;shape-padding:0;clip-rule:nonzero;display:inline;overflow:visible;visibility:visible;opacity:1;isolation:auto;mix-blend-mode:normal;color-interpolation:sRGB;color-interpolation-filters:linearRGB;solid-color:#000000;solid-opacity:1;vector-effect:none;fill:#bf0a30;fill-opacity:1;fill-rule:nonzero;stroke:none;stroke-width:4.72677422;stroke-linecap:round;stroke-linejoin:round;stroke-miterlimit:4;stroke-dasharray:none;stroke-dashoffset:0;stroke-opacity:1;color-rendering:auto;image-rendering:auto;shape-rendering:auto;text-rendering:auto;enable-background:accumulate" />
      <path
         inkscape:connector-curvature="0"
         id="path884"
         d="m 132.47187,132.59124 c -50.844946,0.0748 -98.003159,26.58092 -124.49868,69.97679 a 2.3636234,2.3636234 0 0 0 0.8927757,3.31048 c 37.9682073,20.52591 80.4468063,31.28418 123.6080943,31.3051 a 2.3636234,2.3636234 0 0 0 0.005,0 c 43.15861,-0.084 85.61893,-10.90309 123.5554,-31.48214 a 2.3636234,2.3636234 0 0 0 0.88844,-3.31156 c -26.52899,-43.31148 -73.65479,-69.7434 -124.44531,-69.79867 a 2.3636234,2.3636234 0 0 0 -0.006,0 z m 5.6e-4,4.72678 h 0.006 c 48.30568,0.0546 93.15618,24.7655 119.0567,65.40261 -36.67484,19.42608 -77.53154,29.65449 -119.05887,29.73621 C 90.944758,232.43666 50.068722,222.26669 13.362264,202.89115 39.232732,162.17279 84.114401,137.39122 132.47275,137.31802 Z"
         style="color:#000000;font-style:normal;font-variant:normal;font-weight:normal;font-stretch:normal;font-size:medium;line-height:normal;font-family:sans-serif;font-variant-ligatures:normal;font-variant-position:normal;font-variant-caps:normal;font-variant-numeric:normal;font-variant-alternates:normal;font-feature-settings:normal;text-indent:0;text-align:start;text-decoration:none;text-decoration-line:none;text-decoration-style:solid;text-decoration-color:#000000;letter-spacing:normal;word-spacing:normal;text-transform:none;writing-mode:lr-tb;direction:ltr;text-orientation:mixed;dominant-baseline:auto;baseline-shift:baseline;text-anchor:start;white-space:normal;shape-padding:0;clip-rule:nonzero;display:inline;overflow:visible;visibility:visible;opacity:1;isolation:auto;mix-blend-mode:normal;color-interpolation:sRGB;color-interpolation-filters:linearRGB;solid-color:#000000;solid-opacity:1;vector-effect:none;fill:#bf0a30;fill-opacity:1;fill-rule:nonzero;stroke:none;stroke-width:4.72677422;stroke-linecap:round;stroke-linejoin:round;stroke-miterlimit:4;stroke-dasharray:none;stroke-dashoffset:0;stroke-opacity:1;color-rendering:auto;image-rendering:auto;shape-rendering:auto;text-rendering:auto;enable-background:accumulate" />
      <path
         id="path1006"
         d="m 135.69221,135.00948 v 70.38245 a 10.42775,10.42775 0 1 0 20.85342,0 v -68.19936 a 143.75815,143.75815 0 0 0 -20.85342,-2.18309 z m -6.4863,0.1135 a 143.75815,143.75815 0 0 0 -20.85341,2.06253 v 68.20642 a 10.42775,10.42775 0 1 0 20.85341,0 z m 33.82327,3.19101 v 41.52056 a 10.42775,10.42775 0 1 0 20.85341,0 v -35.1228 a 143.75815,143.75815 0 0 0 -20.85341,-6.39776 z m -61.16023,0.0749 a 143.75815,143.75815 0 0 0 -20.853419,6.34345 v 35.10217 a 10.42775,10.42775 0 1 0 20.853419,0 z"
         style="color:#000000;font-style:normal;font-variant:normal;font-weight:normal;font-stretch:normal;font-size:medium;line-height:normal;font-family:sans-serif;font-variant-ligatures:normal;font-variant-position:normal;font-variant-caps:normal;font-variant-numeric:normal;font-variant-alternates:normal;font-feature-settings:normal;text-indent:0;text-align:start;text-decoration:none;text-decoration-line:none;text-decoration-style:solid;text-decoration-color:#000000;letter-spacing:normal;word-spacing:normal;text-transform:none;writing-mode:lr-tb;direction:ltr;text-orientation:mixed;dominant-baseline:auto;baseline-shift:baseline;text-anchor:start;white-space:normal;shape-padding:0;clip-rule:nonzero;display:inline;overflow:visible;visibility:visible;opacity:1;isolation:auto;mix-blend-mode:normal;color-interpolation:sRGB;color-interpolation-filters:linearRGB;solid-color:#000000;solid-opacity:1;vector-effect:none;fill:#bf0a30;fill-opacity:1;fill-rule:nonzero;stroke:none;stroke-width:20.85341644;stroke-linecap:round;stroke-linejoin:round;stroke-miterlimit:4;stroke-dasharray:none;stroke-dashoffset:0;stroke-opacity:1;color-rendering:auto;image-rendering:auto;shape-rendering:auto;text-rendering:auto;enable-background:accumulate"
         inkscape:connector-curvature="0" />
    </g>
  </g>
</svg>
