<?xml version="1.0" encoding="UTF-8" standalone="no"?>
<!-- Created with Inkscape (http://www.inkscape.org/) -->

<svg
   xmlns:dc="http://purl.org/dc/elements/1.1/"
   xmlns:cc="http://creativecommons.org/ns#"
   xmlns:rdf="http://www.w3.org/1999/02/22-rdf-syntax-ns#"
   xmlns:svg="http://www.w3.org/2000/svg"
   xmlns="http://www.w3.org/2000/svg"
   xmlns:sodipodi="http://sodipodi.sourceforge.net/DTD/sodipodi-0.dtd"
   xmlns:inkscape="http://www.inkscape.org/namespaces/inkscape"
   width="1000"
   height="1000"
   viewBox="0 0 264.58333 264.58334"
   version="1.1"
   id="svg8"
   inkscape:version="0.92.3 (2405546, 2018-03-11)"
   sodipodi:docname="atl.svg">
  <defs
     id="defs2" />
  <sodipodi:namedview
     id="base"
     pagecolor="#ffffff"
     bordercolor="#666666"
     borderopacity="1.0"
     inkscape:pageopacity="0.0"
     inkscape:pageshadow="2"
     inkscape:zoom="0.49497475"
     inkscape:cx="494.06888"
     inkscape:cy="532.40364"
     inkscape:document-units="mm"
     inkscape:current-layer="layer1"
     showgrid="false"
     units="px"
     inkscape:snap-global="false"
     inkscape:window-width="1920"
     inkscape:window-height="1029"
     inkscape:window-x="1920"
     inkscape:window-y="0"
     inkscape:window-maximized="1" />
  <metadata
     id="metadata5">
    <rdf:RDF>
      <cc:Work
         rdf:about="">
        <dc:format>image/svg+xml</dc:format>
        <dc:type
           rdf:resource="http://purl.org/dc/dcmitype/StillImage" />
        <dc:title></dc:title>
      </cc:Work>
    </rdf:RDF>
  </metadata>
  <g
     inkscape:label="Layer 1"
     inkscape:groupmode="layer"
     id="layer1"
     transform="translate(0,-32.41665)">
    <rect
       style="opacity:1;fill:#ffffff;fill-opacity:1;stroke:none;stroke-width:5.29166651;stroke-linecap:square;stroke-linejoin:miter;stroke-miterlimit:4;stroke-dasharray:none;stroke-opacity:1;paint-order:normal"
       id="rect1112"
       width="280.633"
       height="280.09848"
       x="-4.8108511"
       y="25.988684" />
    <g
       id="g1110"
       transform="matrix(1.1387797,0,0,1.1387797,-307.40212,-27.898635)">
      <g
         transform="translate(-72.162772,-20.312484)"
         id="g1015">
        <path
           inkscape:connector-curvature="0"
           id="path1005"
           d="m 377.54386,87.492559 c 0.3746,-0.219738 0.75616,-0.420875 1.13979,-0.601376 4.35593,-3.068918 10.71414,-1.489581 12.75033,3.530311 1.2667,2.20199 2.53696,4.40214 3.80456,6.60369 0.97892,-0.76791 2.04213,-1.38619 3.29436,-1.64244 4.0985,-0.83869 9.01048,1.99904 13.85813,0.94605 4.84768,-1.05302 7.07456,-6.26692 11.68939,-6.96727 4.61483,-0.70036 4.98114,2.57984 8.2613,2.21362 3.28013,-0.36623 5.28138,-3.703559 10.01602,-3.818404 4.73462,-0.114836 6.36632,3.089284 6.36632,3.089284 0,0 -4.20491,3.30035 -4.87133,6.30381 -0.66644,3.003466 1.83941,2.43003 -0.88551,6.403736 -2.72495,3.97372 -8.15797,5.14638 -10.83906,8.44009 -2.68109,3.29372 -1.25717,7.27231 -3.05075,9.83541 -1.79356,2.56309 -5.65875,3.0492 -8.47818,6.85925 -2.70206,3.65142 0.51735,3.6839 -2.53326,7.90403 28.97581,50.12318 58.05854,100.19219 86.68107,150.49569 2.70973,7.04696 -5.93759,12.70294 -12.14252,12.48589 -7.20283,-1.37871 -8.3804,-10.60103 -12.42589,-15.41309 -25.14712,-43.75429 -50.53737,-87.3845 -75.7245,-131.11829 -2.96848,2.36833 -4.84241,0.32971 -9.86121,5.06325 -5.36894,5.06378 -7.43054,15.85595 -15.03029,14.78804 -7.59974,-1.0679 -10.2476,-11.32346 -12.95582,-14.12437 -2.70821,-2.8009 -8.50076,-3.38445 -10.44128,-7.50148 -1.9405,-4.11704 0.98006,-6.23985 -0.79679,-10.45138 -1.77686,-4.21152 -8.54629,-8.37732 -9.30904,-11.21032 -0.76272,-2.83301 2.3149,-6.57382 2.13766,-9.52663 -0.17724,-2.95282 -1.97271,-6.06298 2.30121,-9.62166 4.27392,-3.55867 12.51625,-0.2429 16.65861,-1.76159 3.76187,-1.3792 4.51714,-5.16126 7.99072,-6.80754 -0.77131,-1.35594 -1.5449,-2.710636 -2.31575,-4.066786 -1.88864,-4.31324 1.09096,-8.20482 4.7119,-10.329636 z m 1.39994,1.395385 c -7.05152,4.0712 -4.76377,7.93296 -2.87327,11.207396 l 0.7165,1.24101 c 4.3117,-0.93006 8.39029,2.00735 11.90686,0.81773 1.97316,-0.66749 3.49123,-2.344596 5.11551,-3.878936 l -3.64654,-6.316 c -1.81131,-3.13728 -4.17231,-7.139642 -11.21906,-3.0712 z m -4.20117,14.992806 c 0,0 -2.30076,1.87374 -2.95204,3.01355 0,0 4,16.56702 22.01915,25.47655 l -0.69325,-3.0911 c -16.22561,-11.4726 -18.37386,-25.399 -18.37386,-25.399 z m 4.85726,-0.61382 c -0.15933,0.0935 -0.30411,0.20822 -0.42803,0.34797 2.63408,7.2082 11.3213,12.99449 11.3213,12.99449 l -0.89271,-5.70408 c 0,0 -5.0722,-1.98145 -7.07939,-7.9149 0,0 -1.80575,-0.37791 -2.92117,0.27652 z m -19.92677,11.93257 c 0,0 2.03746,2.20607 4.22844,2.03222 2.191,-0.17384 3.08797,-1.45498 5.19716,-1.5816 2.10914,-0.12658 4.17803,1.18835 4.17803,1.18835 0,0 -1.53423,-2.27848 -4.1943,-2.16114 -2.66007,0.11733 -2.54931,1.25379 -4.9858,1.56937 -2.43651,0.3156 -4.42353,-1.0472 -4.42353,-1.0472 z m -3.02652,4.58471 c 0,0 -1.90117,2.18834 -1.20173,3.96675 0.69942,1.77844 2.20104,2.1118 2.77142,3.85563 0.57034,1.74384 -1.73347,2.85599 -1.31752,4.14341 0.41597,1.28742 5.02344,6.81054 5.02344,6.81054 0,0 -3.99999,-5.98324 -4.01604,-6.95597 -0.016,-0.97276 1.67719,-2.38653 1.27051,-4.22487 -0.40668,-1.83834 -2.3555,-2.56844 -2.83138,-4.1486 -0.47585,-1.58017 0.3013,-3.44689 0.3013,-3.44689 z m 39.70528,-21.942266 c 0,0 -4.44648,4.204286 -7.20691,5.470676 0,0 4.95893,31.83468 11.54075,49.09334 0,0 3.58538,-0.21535 3.78612,-2.5135 0,0 -8.3267,-19.52455 -11.07769,-47.72392 l 18.06448,32.23329 4.8729,-0.6312 z m 10.6765,8.060836 c -0.74154,0.4235 -1.52518,0.963 -2.34699,1.64206 0,0 6.10334,-3.41431 10.68108,-1.91101 0,0 -3.14372,-2.69639 -8.33409,0.26895 z m -11.3197,8.02302 1.30533,6.22965 6.20822,1.87079 -3.6882,-7.14466 z m 23.02057,-12.85474 c 15.36563,-0.0332 15.21649,-4.638716 15.21649,-4.638716 -2.25923,3.26838 -15.21649,4.638716 -15.21649,4.638716 z m -39.13355,32.47823 c -0.22261,0.13892 -0.43443,0.30926 -0.62834,0.51674 -1.55147,1.65952 0.24296,1.9326 -1.60124,3.65203 -1.8442,1.71943 -8.93005,2.8644 -8.93005,2.8644 0,0 6.39074,0.67521 9.90625,-2.11825 1.42299,-1.13072 0.0261,-2.47349 1.17951,-3.62693 1.74238,-1.74239 3.7078,-1.70451 3.7078,-1.70451 0,0 -2.07574,-0.55619 -3.63393,0.41652 z m 42.20308,-22.24823 c 0,0 0.85454,5.07152 -7.08337,9.65448 0,0 8.66627,-1.62116 7.08337,-9.65448 z m -55.81483,39.20798 c 0,0 4.0741,1.57603 5.52268,3.14016 1.44862,1.56411 4.02595,9.24128 8.26957,9.40991 4.24362,0.16864 5.15197,-3.73828 5.15197,-3.73828 0,0 -1.93186,3.07955 -5.39172,2.56753 -3.45989,-0.51203 -5.03254,-6.25998 -7.30628,-8.87529 -2.27376,-2.61529 -6.24622,-2.50403 -6.24622,-2.50403 z m 33.80424,-17.98931 1.10974,4.37879 3.16108,1.88468 c 0,0 0.54378,-1.51435 2.68414,-2.53186 z m -9.55849,11.99645 c -0.43428,0.2654 -0.74543,0.69062 -0.73142,1.36449 0.0448,2.1564 1.45529,3.08731 1.38024,4.65822 -0.0751,1.5709 -2.84795,2.62646 -2.84795,2.62646 0,0 3.91304,-0.40395 3.86828,-2.56036 -0.0448,-2.1564 -1.65383,-2.86409 -1.4151,-4.52949 0.23871,-1.66539 2.25333,-1.95615 2.25333,-1.95615 0,0 -1.55193,-0.18703 -2.50738,0.39683 z m 17.08443,-7.30382 c -2.14607,1.27898 -3.8716,3.2905 -4.14762,6.45045 0,0 1.10589,3.6168 2.11076,5.54624 0,0 0.27495,-6.70531 4.56492,-9.29125 4.28995,-2.58592 2.8929,-0.47015 5.2315,-1.71122 2.33861,-1.24108 1.96658,-3.20837 1.96658,-3.20837 0,0 -5.62916,-0.2276 -9.72614,2.21415 z m 3.93682,3.01331 c -0.45442,0.27772 -0.96745,0.69214 -1.56538,1.31013 -3.50014,3.61759 -1.63076,7.05421 -3.85742,10.10124 l 2.66392,4.61405 c 4.3612,-6.81365 11.21794,-8.22612 13.87114,-8.5193 l -5.54875,-9.61072 c -2.51482,2.66085 -3.33634,0.74334 -5.56351,2.1046 z m 6.16732,14.16928 c -3.49275,1.96169 -5.59044,4.63157 -6.52015,6.02355 l 4.17184,7.22583 c 0.40251,-3.16973 1.59519,-9.91997 4.79573,-14.39089 -0.87991,0.33517 -1.69739,0.72027 -2.44742,1.14151 z m 8.53206,-0.45008 c -1.61949,1.72515 -5.10602,6.28891 -5.51988,13.94794 7.63857,-0.10632 12.95781,2.11623 15.65699,3.61005 z m -7.97098,18.73867 6.26757,10.85576 c 2.48683,-3.83933 5.77205,-5.94617 8.6273,-7.10228 0.18691,-0.0757 0.37149,-0.14612 0.55439,-0.21384 -8.19548,-4.26841 -13.54007,-3.89367 -15.44925,-3.53963 z m 15.13747,9.0912 c -3.42515,1.9237 -5.50426,4.52415 -6.46074,5.93733 l 4.0491,7.01326 c 0.38974,-3.06856 1.52194,-9.48779 4.49702,-13.9523 -0.74307,0.30127 -1.43867,0.63849 -2.08538,1.00171 z m 8.46848,-0.74932 c -1.7211,1.83064 -5.55106,6.86094 -5.56547,15.3986 4.12642,-4.13816 9.12803,-5.15358 11.33643,-5.40299 z m 0.86786,16.6537 c -3.52057,1.97728 -5.62618,4.67676 -6.54442,6.05904 l 42.00752,72.75915 c 4.33842,-6.81188 11.16594,-8.24857 13.85228,-8.55197 l -41.88943,-72.55462 c -2.95811,0.27358 -5.42082,1.16224 -7.42595,2.2884 z m 44.41202,76.92387 c -3.52055,1.97728 -5.62618,4.67677 -6.54442,6.05904 l 7.09517,12.2892 c 1.81131,3.13728 4.17214,7.13916 11.21881,3.07076 7.05147,-4.07117 4.76401,-7.93252 2.87351,-11.20696 l -7.21713,-12.50044 c -2.95811,0.27358 -5.42082,1.16224 -7.42594,2.2884 z"
           style="opacity:1;fill:#13274f;fill-opacity:1;stroke:none;stroke-width:5.2002368;stroke-linecap:square;stroke-linejoin:miter;stroke-miterlimit:4;stroke-dasharray:none;stroke-opacity:1;paint-order:normal" />
        <path
           inkscape:connector-curvature="0"
           style="opacity:1;fill:#ffffff;fill-opacity:1;stroke:#ffffff;stroke-width:20;stroke-linecap:square;stroke-linejoin:miter;stroke-miterlimit:4;stroke-dasharray:none;stroke-opacity:1;paint-order:normal"
           d="m 2005.1875,199.96875 c -12.3648,-0.0396 -24.4516,6.81081 -29.502,19.26172 -4.7875,8.32248 -9.5879,16.63816 -14.3789,24.95898 -3.6998,-2.90233 -7.7183,-5.23852 -12.4511,-6.20703 -15.4904,-3.16985 -34.0552,7.55598 -52.377,3.57617 -18.3219,-3.97991 -26.7397,-23.68699 -44.1816,-26.33398 -17.4419,-2.64703 -18.8252,9.75133 -31.2227,8.36719 -12.3973,-1.38418 -19.9607,-13.99758 -37.8554,-14.43164 -17.8947,-0.43403 -24.0625,11.67578 -24.0626,11.67578 0,0 15.8934,12.47256 18.4122,23.82422 2.5188,11.35168 -6.9532,9.18439 3.3457,24.20312 10.299,15.01879 30.8335,19.45172 40.9668,31.90039 10.1332,12.44871 4.7523,27.48652 11.5312,37.17383 6.7788,9.68727 21.3869,11.52364 32.043,25.92383 10.2125,13.80064 -1.9557,13.92295 9.5742,29.87305 -109.5149,189.44194 -219.4336,378.67926 -327.6133,568.80273 -10.2415,26.63418 22.4409,48.01179 45.8926,47.19139 27.2233,-5.2109 31.6748,-40.06658 46.9648,-58.25389 95.0443,-165.37055 191.0077,-330.27334 286.2032,-495.56641 11.2194,8.95117 18.3008,1.24618 37.2695,19.13672 20.2921,19.1387 28.0851,59.92878 56.8086,55.89258 28.7234,-4.03616 38.731,-42.7967 48.9668,-53.38281 10.2357,-10.58608 32.1286,-12.79309 39.4629,-28.35352 7.3341,-15.56046 -3.704,-23.5824 3.0117,-39.5 6.7157,-15.91755 32.3008,-31.66369 35.1836,-42.37109 2.8827,-10.70744 -8.75,-24.84563 -8.0801,-36.00586 0.6699,-11.16027 7.4561,-22.91511 -8.6973,-36.36524 -16.1534,-13.45009 -47.3047,-0.91827 -62.9609,-6.6582 -14.2181,-5.21272 -17.0727,-19.50635 -30.2012,-25.72851 2.9152,-5.12482 5.8385,-10.24549 8.752,-15.3711 7.1382,-16.30201 -4.1232,-31.01021 -17.8086,-39.04101 -1.4158,-0.83051 -2.8567,-1.58928 -4.3066,-2.27149 -5.6593,-3.98718 -12.2127,-5.8992 -18.6895,-5.91992 z m -2.5527,6.95703 c 5.341,-0.12185 11.9348,1.70452 20.2578,6.50977 26.6514,15.38721 18.0045,29.9816 10.8594,42.35742 l -2.7071,4.69141 c -16.2962,-3.51519 -31.711,7.58604 -45.0019,3.08984 -7.4576,-2.5228 -13.197,-8.86108 -19.336,-14.66016 l 13.7832,-23.87109 c 4.7066,-8.15199 10.3943,-17.84912 22.1446,-18.11719 z m -187.6231,35.02344 c 8.5388,12.35293 57.5117,17.53125 57.5117,17.53125 -58.0748,-0.12548 -57.5117,-17.53125 -57.5117,-17.53125 z m 142.086,5.32812 c 0,0 16.8071,15.88943 27.2402,20.67578 0,0 -18.743,120.31925 -43.6191,185.54883 0,0 -13.5519,-0.81212 -14.3106,-9.49804 0,0 31.4717,-73.79471 41.8691,-180.375 l -68.2753,121.82617 -18.418,-2.38477 z m 56.2148,19.05274 c 2.2332,-0.0479 4.9937,0.21445 7.1016,1.45117 0.6022,0.35339 1.1488,0.78626 1.6171,1.31445 -9.9555,27.24359 -42.789,49.11328 -42.789,49.11328 l 3.373,-21.55859 c 0,0 19.1716,-7.48842 26.7578,-29.91406 0,0 1.7063,-0.35835 3.9395,-0.40625 z m 25.459,3.76953 c 0,0 8.6947,7.08268 11.1562,11.39062 0,0 -15.1168,62.61525 -83.2207,96.28907 l 2.6192,-11.68164 c 61.3251,-43.36101 69.4453,-95.99805 69.4453,-95.99805 z m -139.3438,2.38867 c 4.7469,0.0786 10.575,1.4013 17.3184,5.25391 2.8027,1.60063 5.765,3.6405 8.8711,6.20703 0,0 -23.0675,-12.90442 -40.3692,-7.22266 0,0 5.1175,-4.38841 14.1797,-4.23828 z m -38.5058,25.6582 c 0,0 -3.2301,19.16686 26.7715,36.48829 0,0 -32.7541,-6.12613 -26.7715,-36.48829 z m 98.6074,9.91993 -4.9336,23.54492 -23.4629,7.07031 13.9395,-27.00391 z m 99.7051,2.82421 c 0.3058,-0.003 0.6155,0.002 0.9297,0.0156 10.0538,0.44345 9.6349,4.7389 18.8437,5.93164 9.2089,1.19282 16.7188,-3.95703 16.7188,-3.95703 0,0 -7.6996,8.33676 -15.9805,7.67969 -8.281,-0.65704 -11.6708,-5.498 -19.6426,-5.97657 -7.9715,-0.47841 -15.791,4.49024 -15.791,4.49024 0,0 5.4413,-8.08168 14.9219,-8.1836 z m 47.9316,19.31836 c 0,0 7.1846,8.27064 4.541,14.99219 -2.6434,6.72166 -8.3188,7.98141 -10.4746,14.57227 -2.1556,6.59089 6.5526,10.79431 4.9805,15.66015 -1.5722,4.86584 -18.9863,25.74024 -18.9863,25.74024 0,0 15.117,-22.61456 15.1777,-26.29102 0.061,-3.67657 -6.3378,-9.01874 -4.8008,-15.96679 1.5371,-6.94806 8.9026,-9.70743 10.7012,-15.67969 1.7985,-5.9723 -1.1387,-13.02735 -1.1387,-13.02735 z m -163.0547,48.13282 -4.1953,16.55078 -11.9472,7.12304 c 0,0 -2.055,-5.7246 -10.1446,-9.57031 z m 68.2852,1.72461 c 2.5046,0.0562 5.4567,0.55955 8.0332,2.16797 0.8413,0.52505 1.6421,1.16894 2.375,1.95312 5.8638,6.2722 -0.9194,7.3041 6.0508,13.80273 6.9702,6.49864 33.7519,10.82618 33.7519,10.82618 0,0 -24.1544,2.5521 -37.4414,-8.00586 -5.3782,-4.27359 -0.098,-9.34953 -4.457,-13.70899 -6.5854,-6.58541 -14.0137,-6.4414 -14.0137,-6.4414 0,0 2.481,-0.66608 5.7012,-0.59375 z m -132.5449,7.625 c 4.2839,-0.0385 22.2653,0.31164 35.8144,8.38671 8.1111,4.83395 14.6326,12.43579 15.6758,24.37891 0,0 -4.1786,13.67052 -7.9766,20.96289 0,0 -1.0398,-25.34355 -17.2539,-35.11719 -16.214,-9.77355 -10.9327,-1.77613 -19.7715,-6.46679 -8.8388,-4.6907 -7.4335,-12.12696 -7.4336,-12.12696 0,0 0.3334,-0.0121 0.9454,-0.0176 z m -0.092,11.82226 c 9.5048,10.05676 12.6097,2.80821 21.0273,7.95313 1.7175,1.04965 3.6561,2.61546 5.916,4.95117 13.2289,13.67278 6.1644,26.66335 14.5801,38.17969 l -10.0684,17.4375 c -16.4832,-25.75238 -42.3998,-31.09114 -52.4277,-32.19922 z m 93.0468,22.5625 c 2.0359,-0.0131 5.1747,0.22823 7.4317,1.60742 1.6414,1.00309 2.8166,2.60934 2.7637,5.15625 -0.1694,8.15018 -5.5005,11.66817 -5.2168,17.60547 0.2838,5.93726 10.7636,9.92774 10.7636,9.92774 0,0 -14.7883,-1.52753 -14.6191,-9.67774 0.1693,-8.15017 6.2499,-10.82471 5.3476,-17.11914 -0.9022,-6.29439 -8.5156,-7.39258 -8.5156,-7.39258 0,0 0.8235,-0.0995 2.0449,-0.10742 z m 98.4063,24.25781 c 0.4273,-0.008 0.6621,0 0.6621,0 0,0 -15.3981,5.95552 -20.873,11.86719 -5.4751,5.9116 -15.217,34.92907 -31.2559,35.56641 -16.0389,0.63738 -19.4707,-14.12891 -19.4707,-14.12891 0,0 7.3003,11.63832 20.3769,9.70313 13.0768,-1.93523 19.0216,-23.66029 27.6153,-33.54492 7.5195,-8.649 19.954,-9.40824 22.9453,-9.4629 z m -202.9863,10.3711 c 3.3256,1.26678 6.4172,2.72236 9.2519,4.31445 13.201,7.41426 21.1287,17.50655 24.6426,22.76758 l -15.7676,27.31055 c -1.5213,-11.98009 -6.0304,-37.49462 -18.1269,-54.39258 z m -22.9961,2.61328 c 6.1209,6.52025 19.2991,23.76928 20.8633,52.7168 -28.8702,-0.40184 -48.9762,7.99859 -59.1778,13.64453 z m 22.3144,70.08203 c 3.3925,0.0689 6.0086,0.40766 7.8125,0.74219 l -23.6894,41.0293 c -9.3991,-14.51086 -21.816,-22.47421 -32.6075,-26.84376 -0.7064,-0.28611 -1.4024,-0.55069 -2.0937,-0.80664 23.2313,-12.09943 40.4007,-14.32773 50.5781,-14.12109 z m -57.2812,31.31641 c 2.8084,1.13866 5.4366,2.41431 7.8808,3.78711 12.9455,7.27067 20.803,17.0983 24.418,22.43945 l -15.3027,26.50586 c -1.4731,-11.59771 -5.7517,-35.85868 -16.9961,-52.73242 z m -24.127,0.95508 c 6.505,6.91895 20.9807,25.93089 21.0352,58.19921 -15.5959,-15.64029 -34.499,-19.47922 -42.8457,-20.42187 z m -31.3457,54.29296 c 11.1803,1.03401 20.488,4.39209 28.0664,8.64844 13.3061,7.47319 21.2639,17.67603 24.7344,22.90039 l -30.0352,52.02344 -40.9082,-52.14844 z m -73.2715,126.91211 34.541,63.17578 -67.2363,116.45704 c -16.3972,-25.74569 -42.2024,-31.17556 -52.3554,-32.32227 z m -94.5859,163.82422 c 11.1803,1.03401 20.4899,4.39209 28.0684,8.64844 13.306,7.47318 21.2638,17.67606 24.7343,22.90039 l -26.8164,46.44727 c -6.8459,11.85743 -15.7692,26.98213 -42.4023,11.60546 -26.6512,-15.38709 -18.0065,-29.97963 -10.8614,-42.35546 z"
           transform="matrix(0.26458333,0,0,0.26458333,0,32.41665)"
           id="path1007" />
        <path
           style="opacity:1;fill:#ce1141;fill-opacity:1;stroke:none;stroke-width:5.2002368;stroke-linecap:square;stroke-linejoin:miter;stroke-miterlimit:4;stroke-dasharray:none;stroke-opacity:1;paint-order:normal"
           d="m 536.62369,87.492559 c -0.3746,-0.219738 -0.75616,-0.420875 -1.13979,-0.601376 -4.35593,-3.068918 -10.71414,-1.489581 -12.75033,3.530311 -1.2667,2.20199 -2.53696,4.40214 -3.80456,6.60369 -0.97892,-0.76791 -2.04213,-1.38619 -3.29436,-1.64244 -4.0985,-0.83869 -9.01048,1.99904 -13.85813,0.94605 -4.84768,-1.05302 -7.07456,-6.26692 -11.68939,-6.96727 -4.61483,-0.70036 -4.98114,2.57984 -8.2613,2.21362 -3.28013,-0.36623 -5.28138,-3.703559 -10.01602,-3.818404 -4.73462,-0.114836 -6.36632,3.089284 -6.36632,3.089284 0,0 4.20491,3.30035 4.87133,6.30381 0.66644,3.003466 -1.83941,2.43003 0.88551,6.403736 2.72495,3.97372 8.15797,5.14638 10.83906,8.44009 2.68109,3.29372 1.25717,7.27231 3.05075,9.83541 1.79356,2.56309 5.65875,3.0492 8.47818,6.85925 2.70206,3.65142 -0.51735,3.6839 2.53326,7.90403 -28.97581,50.12318 -58.05854,100.19219 -86.68107,150.49569 -2.70973,7.04696 5.93759,12.70294 12.14252,12.48589 7.20283,-1.37871 8.3804,-10.60103 12.42589,-15.41309 25.14712,-43.75429 50.53737,-87.3845 75.7245,-131.11829 2.96848,2.36833 4.84241,0.32971 9.86121,5.06325 5.36894,5.06378 7.43054,15.85595 15.03029,14.78804 7.59974,-1.0679 10.2476,-11.32346 12.95582,-14.12437 2.70821,-2.8009 8.50076,-3.38445 10.44128,-7.50148 1.9405,-4.11704 -0.98006,-6.23985 0.79679,-10.45138 1.77686,-4.21152 8.54629,-8.37732 9.30904,-11.21032 0.76272,-2.83301 -2.3149,-6.57382 -2.13766,-9.52663 0.17724,-2.95282 1.97271,-6.06298 -2.30121,-9.62166 -4.27392,-3.55867 -12.51625,-0.2429 -16.65861,-1.76159 -3.76187,-1.3792 -4.51714,-5.16126 -7.99072,-6.80754 0.77131,-1.35594 1.5449,-2.710636 2.31575,-4.066786 1.88864,-4.31324 -1.09096,-8.20482 -4.7119,-10.329636 z m -1.39994,1.395385 c 7.05152,4.0712 4.76377,7.93296 2.87327,11.207396 l -0.7165,1.24101 c -4.3117,-0.93006 -8.39029,2.00735 -11.90686,0.81773 -1.97316,-0.66749 -3.49123,-2.344596 -5.11551,-3.878936 l 3.64654,-6.316 c 1.81131,-3.13728 4.17231,-7.139642 11.21906,-3.0712 z m 4.20117,14.992806 c 0,0 2.30076,1.87374 2.95204,3.01355 0,0 -4,16.56702 -22.01915,25.47655 l 0.69325,-3.0911 c 16.22561,-11.4726 18.37386,-25.399 18.37386,-25.399 z m -4.85726,-0.61382 c 0.15933,0.0935 0.30411,0.20822 0.42803,0.34797 -2.63408,7.2082 -11.3213,12.99449 -11.3213,12.99449 l 0.89271,-5.70408 c 0,0 5.0722,-1.98145 7.07939,-7.9149 0,0 1.80575,-0.37791 2.92117,0.27652 z m 19.92677,11.93257 c 0,0 -2.03746,2.20607 -4.22844,2.03222 -2.191,-0.17384 -3.08797,-1.45498 -5.19716,-1.5816 -2.10914,-0.12658 -4.17803,1.18835 -4.17803,1.18835 0,0 1.53423,-2.27848 4.1943,-2.16114 2.66007,0.11733 2.54931,1.25379 4.9858,1.56937 2.43651,0.3156 4.42353,-1.0472 4.42353,-1.0472 z m 3.02652,4.58471 c 0,0 1.90117,2.18834 1.20173,3.96675 -0.69942,1.77844 -2.20104,2.1118 -2.77142,3.85563 -0.57034,1.74384 1.73347,2.85599 1.31752,4.14341 -0.41597,1.28742 -5.02344,6.81054 -5.02344,6.81054 0,0 3.99999,-5.98324 4.01604,-6.95597 0.016,-0.97276 -1.67719,-2.38653 -1.27051,-4.22487 0.40668,-1.83834 2.3555,-2.56844 2.83138,-4.1486 0.47585,-1.58017 -0.3013,-3.44689 -0.3013,-3.44689 z M 517.81567,97.841944 c 0,0 4.44648,4.204286 7.20691,5.470676 0,0 -4.95893,31.83468 -11.54075,49.09334 0,0 -3.58538,-0.21535 -3.78612,-2.5135 0,0 8.3267,-19.52455 11.07769,-47.72392 l -18.06448,32.23329 -4.8729,-0.6312 z m -10.6765,8.060836 c 0.74154,0.4235 1.52518,0.963 2.34699,1.64206 0,0 -6.10334,-3.41431 -10.68108,-1.91101 0,0 3.14372,-2.69639 8.33409,0.26895 z m 11.3197,8.02302 -1.30533,6.22965 -6.20822,1.87079 3.6882,-7.14466 z M 495.4383,101.07106 c -15.36563,-0.0332 -15.21649,-4.638716 -15.21649,-4.638716 2.25923,3.26838 15.21649,4.638716 15.21649,4.638716 z m 39.13355,32.47823 c 0.22261,0.13892 0.43443,0.30926 0.62834,0.51674 1.55147,1.65952 -0.24296,1.9326 1.60124,3.65203 1.8442,1.71943 8.93005,2.8644 8.93005,2.8644 0,0 -6.39074,0.67521 -9.90625,-2.11825 -1.42299,-1.13072 -0.0261,-2.47349 -1.17951,-3.62693 -1.74238,-1.74239 -3.7078,-1.70451 -3.7078,-1.70451 0,0 2.07574,-0.55619 3.63393,0.41652 z m -42.20308,-22.24823 c 0,0 -0.85454,5.07152 7.08337,9.65448 0,0 -8.66627,-1.62116 -7.08337,-9.65448 z m 55.81483,39.20798 c 0,0 -4.0741,1.57603 -5.52268,3.14016 -1.44862,1.56411 -4.02595,9.24128 -8.26957,9.40991 -4.24362,0.16864 -5.15197,-3.73828 -5.15197,-3.73828 0,0 1.93186,3.07955 5.39172,2.56753 3.45989,-0.51203 5.03254,-6.25998 7.30628,-8.87529 2.27376,-2.61529 6.24622,-2.50403 6.24622,-2.50403 z m -33.80424,-17.98931 -1.10974,4.37879 -3.16108,1.88468 c 0,0 -0.54378,-1.51435 -2.68414,-2.53186 z m 9.55849,11.99645 c 0.43428,0.2654 0.74543,0.69062 0.73142,1.36449 -0.0448,2.1564 -1.45529,3.08731 -1.38024,4.65822 0.0751,1.5709 2.84795,2.62646 2.84795,2.62646 0,0 -3.91304,-0.40395 -3.86828,-2.56036 0.0448,-2.1564 1.65383,-2.86409 1.4151,-4.52949 -0.23871,-1.66539 -2.25333,-1.95615 -2.25333,-1.95615 0,0 1.55193,-0.18703 2.50738,0.39683 z m -17.08443,-7.30382 c 2.14607,1.27898 3.8716,3.2905 4.14762,6.45045 0,0 -1.10589,3.6168 -2.11076,5.54624 0,0 -0.27495,-6.70531 -4.56492,-9.29125 -4.28995,-2.58592 -2.8929,-0.47015 -5.2315,-1.71122 -2.33861,-1.24108 -1.96658,-3.20837 -1.96658,-3.20837 0,0 5.62916,-0.2276 9.72614,2.21415 z m -3.93682,3.01331 c 0.45442,0.27772 0.96745,0.69214 1.56538,1.31013 3.50014,3.61759 1.63076,7.05421 3.85742,10.10124 l -2.66392,4.61405 c -4.3612,-6.81365 -11.21794,-8.22612 -13.87114,-8.5193 l 5.54875,-9.61072 c 2.51482,2.66085 3.33634,0.74334 5.56351,2.1046 z m -6.16732,14.16928 c 3.49275,1.96169 5.59044,4.63157 6.52015,6.02355 l -4.17184,7.22583 c -0.40251,-3.16973 -1.59519,-9.91997 -4.79573,-14.39089 0.87991,0.33517 1.69739,0.72027 2.44742,1.14151 z m -8.53206,-0.45008 c 1.61949,1.72515 5.10602,6.28891 5.51988,13.94794 -7.63857,-0.10632 -12.95781,2.11623 -15.65699,3.61005 z m 7.97098,18.73867 -6.26757,10.85576 c -2.48683,-3.83933 -5.77205,-5.94617 -8.6273,-7.10228 -0.18691,-0.0757 -0.37149,-0.14612 -0.55439,-0.21384 8.19548,-4.26841 13.54007,-3.89367 15.44925,-3.53963 z m -15.13747,9.0912 c 3.42515,1.9237 5.50426,4.52415 6.46074,5.93733 l -4.0491,7.01326 c -0.38974,-3.06856 -1.52194,-9.48779 -4.49702,-13.9523 0.74307,0.30127 1.43867,0.63849 2.08538,1.00171 z m -8.46848,-0.74932 c 1.7211,1.83064 5.55106,6.86094 5.56547,15.3986 -4.12642,-4.13816 -9.12803,-5.15358 -11.33643,-5.40299 z m -0.86786,16.6537 c 3.52057,1.97728 5.62618,4.67676 6.54442,6.05904 l -42.00752,72.75915 c -4.33842,-6.81188 -11.16594,-8.24857 -13.85228,-8.55197 l 41.88943,-72.55462 c 2.95811,0.27358 5.42082,1.16224 7.42595,2.2884 z m -44.41202,76.92387 c 3.52055,1.97728 5.62618,4.67677 6.54442,6.05904 l -7.09517,12.2892 c -1.81131,3.13728 -4.17214,7.13916 -11.21881,3.07076 -7.05147,-4.07117 -4.76401,-7.93252 -2.87351,-11.20696 l 7.21713,-12.50044 c 2.95811,0.27358 5.42082,1.16224 7.42594,2.2884 z"
           id="path923"
           inkscape:connector-curvature="0" />
      </g>
      <g
         transform="translate(-25.324405,-1.889881)"
         id="g1099">
        <path
           inkscape:connector-curvature="0"
           id="path1093"
           d="m 470.526,175.2926 c 0,0 2.07886,-2.45684 -1.32292,-7.74851 l 4.9137,-2.64583 c 0,0 1.88988,5.66964 0.37798,10.77232 0,0 4.53571,-4.91369 11.33928,-7.55952 6.80357,-2.64584 16.44197,-4.34673 18.14286,-3.02381 1.70089,1.32291 -3.96875,13.41815 -11.33929,18.70982 -7.37053,5.29167 -20.41071,-0.37798 -20.41071,-0.37798 l -22.48958,-2.45684 c 0,0 -6.23661,-6.80357 -7.9375,-10.20536 -1.7009,-3.40179 -2.64584,-8.31548 -1.88988,-9.07143 0.75595,-0.75595 12.6622,0.75595 17.57589,3.40179 4.91369,2.64583 13.04017,10.20535 13.04017,10.20535 z"
           style="fill:#ff8f1b;fill-opacity:1;stroke:#ffffff;stroke-width:5.29166651;stroke-linecap:butt;stroke-linejoin:miter;stroke-miterlimit:4;stroke-dasharray:none;stroke-opacity:1" />
        <path
           style="fill:#ff8f1b;fill-opacity:1;stroke:none;stroke-width:0.26458332px;stroke-linecap:butt;stroke-linejoin:miter;stroke-opacity:1"
           d="m 470.526,175.2926 c 0,0 2.07886,-2.45684 -1.32292,-7.74851 l 4.9137,-2.64583 c 0,0 1.88988,5.66964 0.37798,10.77232 0,0 4.53571,-4.91369 11.33928,-7.55952 6.80357,-2.64584 16.44197,-4.34673 18.14286,-3.02381 1.70089,1.32291 -3.96875,13.41815 -11.33929,18.70982 -7.37053,5.29167 -20.41071,-0.37798 -20.41071,-0.37798 l -22.48958,-2.45684 c 0,0 -6.23661,-6.80357 -7.9375,-10.20536 -1.7009,-3.40179 -2.64584,-8.31548 -1.88988,-9.07143 0.75595,-0.75595 12.6622,0.75595 17.57589,3.40179 4.91369,2.64583 13.04017,10.20535 13.04017,10.20535 z"
           id="path1081"
           inkscape:connector-curvature="0" />
        <path
           inkscape:connector-curvature="0"
           id="path1083"
           d="m 472.98285,229.91016 c 0,0 14.36309,-43.08929 -6.04764,-50.08185 -20.41069,-6.99256 -40.82142,7.55953 -31.75,30.04911 9.07143,22.48958 33.82889,33.82887 33.82889,33.82887 0,0 29.10416,-10.77232 34.77379,-33.63988 5.66965,-22.86756 -8.50445,-31.93899 -15.30803,-32.12798 -6.80357,-0.18899 -14.17409,4.72471 -14.17409,4.72471 0,0 13.04017,14.36309 -1.32292,47.24702 z"
           style="fill:#ff8f1b;fill-opacity:1;stroke:#ffffff;stroke-width:5.29166651;stroke-linecap:butt;stroke-linejoin:miter;stroke-miterlimit:4;stroke-dasharray:none;stroke-opacity:1" />
        <path
           style="fill:#ff8f1b;fill-opacity:1;stroke:none;stroke-width:0.26458332px;stroke-linecap:butt;stroke-linejoin:miter;stroke-opacity:1"
           d="m 472.98285,229.91016 c 0,0 14.36309,-43.08929 -6.04764,-50.08185 -20.41069,-6.99256 -40.82142,7.55953 -31.75,30.04911 9.07143,22.48958 33.82889,33.82887 33.82889,33.82887 0,0 29.10416,-10.77232 34.77379,-33.63988 5.66965,-22.86756 -8.50445,-31.93899 -15.30803,-32.12798 -6.80357,-0.18899 -14.17409,4.72471 -14.17409,4.72471 0,0 13.04017,14.36309 -1.32292,47.24702 z"
           id="path1079"
           inkscape:connector-curvature="0" />
      </g>
    </g>
  </g>
</svg>
