<?xml version="1.0" encoding="UTF-8" standalone="no"?>
<!-- Created with Inkscape (http://www.inkscape.org/) -->

<svg
   xmlns:dc="http://purl.org/dc/elements/1.1/"
   xmlns:cc="http://creativecommons.org/ns#"
   xmlns:rdf="http://www.w3.org/1999/02/22-rdf-syntax-ns#"
   xmlns:svg="http://www.w3.org/2000/svg"
   xmlns="http://www.w3.org/2000/svg"
   xmlns:sodipodi="http://sodipodi.sourceforge.net/DTD/sodipodi-0.dtd"
   xmlns:inkscape="http://www.inkscape.org/namespaces/inkscape"
   width="1000"
   height="1000"
   viewBox="0 0 264.58333 264.58334"
   version="1.1"
   id="svg8"
   inkscape:version="0.92.3 (2405546, 2018-03-11)"
   sodipodi:docname="bal.svg">
  <defs
     id="defs2" />
  <sodipodi:namedview
     id="base"
     pagecolor="#ffffff"
     bordercolor="#666666"
     borderopacity="1.0"
     inkscape:pageopacity="0.0"
     inkscape:pageshadow="2"
     inkscape:zoom="0.70710678"
     inkscape:cx="280.09023"
     inkscape:cy="474.94119"
     inkscape:document-units="mm"
     inkscape:current-layer="g4690"
     showgrid="false"
     units="px"
     showborder="true"
     inkscape:snap-global="true"
     inkscape:window-width="1920"
     inkscape:window-height="1029"
     inkscape:window-x="1920"
     inkscape:window-y="0"
     inkscape:window-maximized="1"
     inkscape:snap-object-midpoints="false"
     inkscape:snap-page="false" />
  <metadata
     id="metadata5">
    <rdf:RDF>
      <cc:Work
         rdf:about="">
        <dc:format>image/svg+xml</dc:format>
        <dc:type
           rdf:resource="http://purl.org/dc/dcmitype/StillImage" />
        <dc:title></dc:title>
      </cc:Work>
    </rdf:RDF>
  </metadata>
  <g
     inkscape:groupmode="layer"
     id="layer2"
     inkscape:label="Layer 2"
     style="display:inline"
     transform="translate(0,-32.416658)">
    <g
       id="g4690"
       transform="matrix(1.1243022,0,0,1.1243022,-693.57053,-382.96772)">
      <rect
         style="opacity:1;fill:#ffffff;fill-opacity:1;stroke:none;stroke-width:0.23570174;stroke-miterlimit:4;stroke-dasharray:none;stroke-opacity:1"
         id="rect4697"
         width="274.89981"
         height="254.93132"
         x="607.57111"
         y="363.5047" />
      <g
         id="g4708">
        <path
           style="opacity:1;fill:#755b44;fill-opacity:1;stroke:none;stroke-width:0.26458332px;stroke-linecap:butt;stroke-linejoin:miter;stroke-opacity:1"
           d="m 826.43839,483.10361 c -3.40616,0.0206 -6.98518,0.24889 -10.31771,0.83354 -8.58097,1.5054 -19.95131,8.81293 -24.10913,11.63701 3.38069,2.25872 6.27251,5.97188 8.77829,9.6175 24.00883,-16.37618 39.7913,-18.26324 41.52355,-18.35444 1.77734,-0.0935 1.58981,-1.87113 -0.37465,-2.43242 -1.35054,-0.38584 -8.00676,-1.34638 -15.50035,-1.30119 z m -36.51972,13.40072 c 0,0 -3.83519,4.02235 -6.26732,5.42552 -2.43215,1.40316 -16.55712,2.15185 -26.37927,6.4549 -9.82216,4.30303 -16.83806,18.61521 -13.65756,30.02762 3.18051,11.4124 15.24778,13.8443 33.20831,2.43189 9.36786,-5.95249 6.87506,-4.67016 10.47686,-6.73499 7.94843,-4.55663 16.57456,-7.86001 24.5086,-12.44161 7.21995,-4.16925 15.06048,-9.16691 20.95375,-13.65705 5.8933,-4.49014 8.13856,-9.72905 7.85791,-10.38387 -0.28061,-0.65481 -0.52101,-0.98861 -12.06748,6.92259 -10.84197,7.42847 -25.60307,7.03516 -25.81804,7.29617 0,0 -6.54828,-11.50585 -12.81576,-15.34117 z"
           id="path4605"
           inkscape:connector-curvature="0" />
        <path
           id="path4618"
           transform="matrix(0.23533115,0,0,0.23533115,616.88977,369.45972)"
           d="M 114.47461 164.07812 C 100.25839 164.09087 86.134432 167.16668 72.994141 174.54492 C 20.433016 204.05784 64.842779 247.90415 88.453125 260.27148 C 112.06347 272.63882 171.65259 296.8117 212.9707 304.96289 C 254.28878 313.11409 322.87109 317.04883 322.87109 317.04883 L 276.49414 327.44922 C 276.49414 327.44922 244.05424 404.75848 237.45898 467.15625 C 259.00207 463.80336 280.14285 458.95143 300.08594 449.46875 C 302.53151 447.94991 304.97617 446.43095 307.42188 444.91211 C 317.08604 461.7228 326.18601 482.46897 344.7793 489.60547 C 397.20011 509.72588 457.80626 477.35146 510.49609 496.91016 C 554.29463 513.16835 560.11546 567.65327 562.00195 605.74023 C 579.03824 588.70921 601.0597 576.48375 625.04492 571.17188 C 646.45535 565.55664 671.13145 564.54895 692.89648 557.82617 C 686.55555 518.79636 674.87313 451.08945 665.50195 421.60938 C 665.50195 421.60938 702.60327 435.38181 711.59766 443.25195 C 711.59766 443.25195 708.78782 389.00512 612.37891 343.75195 L 645.7793 352.7168 C 645.7793 352.7168 672.66098 303.1804 665.2207 288.09961 C 648.44965 254.10633 619.98266 230.06375 586.80273 215.07227 A 21.530846 11.179948 18.466891 0 0 592.98438 212.06445 A 21.530846 11.179948 18.466891 0 0 582.29883 194.24023 A 21.530846 11.179948 18.466891 0 0 555.00391 193.76367 A 21.530846 11.179948 18.466891 0 0 555.63672 203.93945 C 524.38897 195.46192 491.10884 193.82913 460.59766 198.43555 C 420.68492 205.46241 396.50586 265.7168 396.50586 265.7168 L 429.67969 275.45117 C 429.67969 275.45117 364.18813 274.60785 324.27539 268.98633 C 284.36266 263.3648 247.8231 241.72047 220.83984 213.05078 C 200.6024 191.54849 157.12345 164.03865 114.47461 164.07812 z M 307.04297 345.57227 C 307.48857 345.56394 307.93229 345.57015 308.37305 345.5918 C 311.21113 345.73117 313.85912 346.49877 316.24219 347.875 C 327.30511 354.28737 331.30169 372.89355 326.24805 394.44922 C 326.29309 386.03763 322.6817 379.42972 316.88672 377.32031 C 308.32423 374.20768 297.73463 381.72025 293.23438 394.09961 C 288.7331 406.48021 292.02799 419.0406 300.5918 422.15234 C 306.42728 424.26163 313.48491 421.45902 318.85742 414.90039 C 306.21417 440.41295 285.40778 454.07005 271.42383 446.0332 C 256.86545 437.62365 255.09597 408.83343 267.47266 381.72852 C 277.2256 360.36915 293.22941 345.8303 307.04297 345.57227 z M 376.99805 361.4707 C 377.44365 361.46236 377.88736 361.46861 378.32812 361.49023 L 378.33008 361.49023 C 381.16829 361.63004 383.81628 362.39835 386.19922 363.77539 C 397.40135 370.27912 401.3363 389.27677 396.00781 411.125 C 396.1047 402.63267 392.48528 395.94218 386.64453 393.81836 C 378.08209 390.70572 367.4924 398.21829 362.99219 410.59766 C 358.49215 422.97736 361.78483 435.5364 370.34766 438.64844 C 376.08383 440.72772 383.0135 438.05944 388.36328 431.71289 C 375.64584 456.6959 355.17168 469.86574 341.38086 461.93164 C 326.82227 453.52319 325.05211 424.73394 337.42773 397.62891 C 347.18027 376.26913 363.18421 361.72941 376.99805 361.4707 z "
           style="fill:#000000;fill-opacity:1;stroke:none;stroke-width:1.12430215px;stroke-linecap:butt;stroke-linejoin:miter;stroke-opacity:1" />
        <path
           style="display:inline;opacity:1;fill:#df4601;fill-opacity:1;stroke:none;stroke-width:0.26458332px;stroke-linecap:butt;stroke-linejoin:miter;stroke-opacity:1"
           d="m 688.37344,477.67343 c 0,0 -5.55625,3.63802 -23.01875,5.15937 -17.4625,1.52136 -29.43489,8.59896 -34.52812,12.23698 -5.09323,3.63802 -4.49792,5.49011 -2.84427,5.29167 1.65364,-0.19844 4.43177,-3.57185 15.94114,-0.79375 11.50938,2.77815 11.17865,7.27604 22.82031,13.03073 11.64167,5.75469 29.63334,8.06979 42.46563,2.4474 12.83229,-5.6224 22.62187,-16.17266 22.62187,-16.17266 -0.69453,-0.79375 -3.63802,-1.38906 -4.66328,-1.68672 -1.02523,-0.29763 -2.44739,-1.25677 -0.0992,-1.62057 2.34818,-0.3638 7.24297,-0.99219 9.45886,2.48047 2.21588,3.47265 0.82682,7.77213 -0.13229,9.42578 -0.95912,1.65364 -3.27422,3.14195 -2.01745,-0.62839 1.25677,-3.77031 -0.23151,-5.29166 -0.23151,-5.29166 -15.21354,13.0969 -26.72292,21.29895 -44.31771,20.37291 -17.59479,-0.92604 -31.61771,-9.92187 -35.45417,-12.56771 -3.83645,-2.64583 -3.83645,-0.26458 -3.30729,1.5875 0.52917,1.85209 6.48229,14.15521 14.81667,23.9448 8.33437,9.7896 29.46783,23.68639 53.84271,24.34166 12.18022,0.32745 25.67842,-5.00898 30.75418,-10.03763 -7.98007,-3.13851 -11.25093,-13.74706 -9.18805,-21.86583 0.66884,-4.53633 2.50412,-8.68545 5.15781,-12.2189 -0.0374,-5.38287 -0.42396,-11.81862 -1.78697,-16.7318 -2.84427,-10.25261 -10.84791,-10.45102 -16.6026,-10.58334 -5.75469,-0.13218 -23.61406,1.91823 -29.43489,-0.0661 -5.82084,-1.98438 -10.25261,-10.05417 -10.25261,-10.05417 z"
           id="path4636"
           inkscape:connector-curvature="0"
           sodipodi:nodetypes="cssscssccsssccssscccccccsc" />
      </g>
    </g>
  </g>
</svg>
