<?xml version="1.0" encoding="UTF-8" standalone="no"?>
<!-- Created with Inkscape (http://www.inkscape.org/) -->

<svg
   xmlns:dc="http://purl.org/dc/elements/1.1/"
   xmlns:cc="http://creativecommons.org/ns#"
   xmlns:rdf="http://www.w3.org/1999/02/22-rdf-syntax-ns#"
   xmlns:svg="http://www.w3.org/2000/svg"
   xmlns="http://www.w3.org/2000/svg"
   xmlns:sodipodi="http://sodipodi.sourceforge.net/DTD/sodipodi-0.dtd"
   xmlns:inkscape="http://www.inkscape.org/namespaces/inkscape"
   width="1000"
   height="1000"
   viewBox="0 0 264.58333 264.58334"
   version="1.1"
   id="svg8"
   inkscape:version="0.92.3 (2405546, 2018-03-11)"
   sodipodi:docname="bos.svg">
  <defs
     id="defs2" />
  <sodipodi:namedview
     id="base"
     pagecolor="#ffffff"
     bordercolor="#666666"
     borderopacity="1.0"
     inkscape:pageopacity="0.0"
     inkscape:pageshadow="2"
     inkscape:zoom="0.49497475"
     inkscape:cx="768.48439"
     inkscape:cy="400.61835"
     inkscape:document-units="mm"
     inkscape:current-layer="layer1"
     showgrid="false"
     units="px"
     inkscape:snap-global="false"
     inkscape:window-width="1920"
     inkscape:window-height="1029"
     inkscape:window-x="1920"
     inkscape:window-y="0"
     inkscape:window-maximized="1" />
  <metadata
     id="metadata5">
    <rdf:RDF>
      <cc:Work
         rdf:about="">
        <dc:format>image/svg+xml</dc:format>
        <dc:type
           rdf:resource="http://purl.org/dc/dcmitype/StillImage" />
        <dc:title></dc:title>
      </cc:Work>
    </rdf:RDF>
  </metadata>
  <g
     inkscape:label="Layer 1"
     inkscape:groupmode="layer"
     id="layer1"
     transform="translate(0,-32.41665)">
    <rect
       style="opacity:1;fill:#ffffff;fill-opacity:1;stroke:none;stroke-width:5.29166651;stroke-linecap:square;stroke-linejoin:miter;stroke-miterlimit:4;stroke-dasharray:none;stroke-opacity:1;paint-order:normal"
       id="rect1019"
       width="284.90933"
       height="303.08362"
       x="-6.9490075"
       y="25.454144" />
    <g
       id="g1017"
       transform="matrix(0.8083785,0,0,0.8083785,-129.04152,41.971916)">
      <g
         transform="translate(-255.50967,0.53453905)"
         id="g959">
        <path
           inkscape:connector-curvature="0"
           style="fill:#0c2340;fill-opacity:1;stroke:none;stroke-width:0.26458332px;stroke-linecap:butt;stroke-linejoin:miter;stroke-opacity:1"
           d="m 561.13939,23.232714 c -1.94742,0.01294 -3.35857,0.204618 -4.0163,0.618051 -4.67722,2.939965 -8.55244,33.408296 -8.55244,33.408296 0,0 -2.27185,0.04364 -3.50417,1.525488 -1.79348,2.156602 -10.60829,84.001231 -27.99519,100.065211 -17.38691,16.06399 -31.93878,9.63832 -49.32569,12.47314 -17.38688,2.83482 -49.89269,25.3244 -48.75877,46.30208 1.13393,20.97768 57.64123,13.79613 81.83168,9.26042 24.19049,-4.53572 54.61736,-10.58334 54.61736,-10.58334 0,0 7.74843,-6.61443 5.85854,-30.23794 l 27.02575,-7.55975 c 0,0 2.83475,14.17425 -0.75604,34.58497 l 32.31689,-8.69353 -13.58005,-156.624542 c 0,0 4.1425,-10.82447 1.20253,-14.699878 -2.52651,-3.330428 -34.4633,-9.91777 -46.3641,-9.838676 z M 441.65832,190.72368 c 5.25903,2.18902 19.70887,12.44079 19.70887,12.44079 l -8.28838,22.05932 c -10.77233,0.94494 -25.66772,0.86986 -27.76117,-10.2445 -1.32731,-7.0468 7.74079,-19.62926 16.34068,-24.25561 z"
           id="path918"
           sodipodi:nodetypes="ccccsssscccccccccccsc" />
        <path
           id="path954"
           d="m 612.96155,41.387162 c -7.44011,0.05005 -44.95191,14.623248 -46.75322,17.865575 -1.8899,3.401784 9.07129,30.994492 9.07129,30.994492 0,0 -2.51629,1.539095 -2.56731,4.002339 -0.27508,13.292312 40.55391,80.097362 23.73397,101.830992 -5.85864,7.18155 -28.15896,18.89859 -37.98633,26.83609 -9.82737,7.9375 -48.00296,38.74271 -39.6875,53.1058 8.31548,14.3631 47.05765,10.01644 61.04279,3.40186 13.98511,-6.61459 38.55365,-24.56844 52.34979,-30.42708 13.79612,-5.85863 50.45972,-7.55961 57.45229,-29.8602 5.85862,-18.70983 -17.76479,-34.9628 -27.0252,-56.88541 -3.98812,-9.44124 -12.09511,-44.41249 -14.36296,-51.97202 -2.26785,-7.55952 -12.77498,-33.93663 -15.20113,-36.048965 -2.43981,-2.124207 -5.20952,-1.37046 -5.20952,-1.37046 0,0 -9.44946,-29.860339 -13.98518,-31.372244 -0.21262,-0.07087 -0.50589,-0.103231 -0.87178,-0.100769 z m 58.70236,147.417358 c 0,0 12.56747,13.98512 10.29962,26.45833 -2.26785,12.47322 -25.60775,18.048 -25.60775,18.048 0,0 -0.28368,-22.11124 -7.55973,-32.60008 z m -132.71489,59.0181 21.38164,3.20704 c 1.40314,13.96483 -3.14039,27.06088 -3.14039,27.06088 -7.6876,1.26756 -28.65713,2.49502 -31.67145,-7.2161 -1.88036,-6.6873 13.4302,-23.05182 13.4302,-23.05182 z"
           style="fill:#bd3039;fill-opacity:1;stroke:#ffffff;stroke-width:5.29166651;stroke-linecap:butt;stroke-linejoin:miter;stroke-miterlimit:4;stroke-dasharray:none;stroke-opacity:1"
           inkscape:connector-curvature="0"
           sodipodi:nodetypes="sccccsscscsscccscscccccccc" />
        <path
           sodipodi:nodetypes="sccccsscscsscccscscccccccc"
           inkscape:connector-curvature="0"
           style="fill:#bd3039;fill-opacity:1;stroke:none;stroke-width:0.26458332px;stroke-linecap:butt;stroke-linejoin:miter;stroke-opacity:1"
           d="m 612.96155,41.387162 c -7.44011,0.05005 -44.95191,14.623248 -46.75322,17.865575 -1.8899,3.401784 9.07129,30.994492 9.07129,30.994492 0,0 -2.51629,1.539095 -2.56731,4.002339 -0.27508,13.292312 40.55391,80.097362 23.73397,101.830992 -5.85864,7.18155 -28.15896,18.89859 -37.98633,26.83609 -9.82737,7.9375 -48.00296,38.74271 -39.6875,53.1058 8.31548,14.3631 47.05765,10.01644 61.04279,3.40186 13.98511,-6.61459 38.55365,-24.56844 52.34979,-30.42708 13.79612,-5.85863 50.45972,-7.55961 57.45229,-29.8602 5.85862,-18.70983 -17.76479,-34.9628 -27.0252,-56.88541 -3.98812,-9.44124 -12.09511,-44.41249 -14.36296,-51.97202 -2.26785,-7.55952 -12.77498,-33.93663 -15.20113,-36.048965 -2.43981,-2.124207 -5.20952,-1.37046 -5.20952,-1.37046 0,0 -9.44946,-29.860339 -13.98518,-31.372244 -0.21262,-0.07087 -0.50589,-0.103231 -0.87178,-0.100769 z m 58.70236,147.417358 c 0,0 12.56747,13.98512 10.29962,26.45833 -2.26785,12.47322 -25.60775,18.048 -25.60775,18.048 0,0 -0.28368,-22.11124 -7.55973,-32.60008 z m -132.71489,59.0181 21.38164,3.20704 c 1.40314,13.96483 -3.14039,27.06088 -3.14039,27.06088 -7.6876,1.26756 -28.65713,2.49502 -31.67145,-7.2161 -1.88036,-6.6873 13.4302,-23.05182 13.4302,-23.05182 z"
           id="path912" />
      </g>
      <path
         style="fill:#006747;fill-opacity:1;stroke:#ffffff;stroke-width:5.29166651;stroke-linecap:butt;stroke-linejoin:miter;stroke-miterlimit:4;stroke-dasharray:none;stroke-opacity:1"
         d="m 352.22008,154.74857 9.19897,-33.39934 70.90281,2.54741 c 0,0 9.90659,-11.60486 15.42597,-8.34983 5.51938,3.25502 0.5661,5.09481 1.69828,7.64222 1.13217,2.5474 7.07612,0.42456 7.92525,2.5474 0.84915,2.12284 -13.58616,6.51004 -15.00139,13.7277 -1.41521,7.21765 6.51004,3.39654 9.05744,7.35917 2.54742,3.96263 1.13219,6.79308 2.12285,10.47268 0.99066,3.67958 3.39654,0.99065 4.9533,2.97197 1.55673,1.98131 -0.99067,4.10415 0.56608,7.21765 1.55676,3.1135 16.69967,2.97197 19.10556,-1.2737 2.40588,-4.24569 -3.96264,-11.60486 -5.37786,-11.46333 -1.41523,0.14152 -1.55675,2.40588 -1.55675,2.40588 l -3.11351,-4.67025 c 0,0 6.93461,-0.99066 9.76507,5.37786 2.83044,6.36852 4.10415,13.86922 2.83044,19.3886 l -1.13217,-4.10416 c 0,0 -15.28444,0.70762 -24.76646,7.07614 0,0 4.38721,-17.54881 -6.08547,-5.37786 -10.47267,12.17094 -11.46333,4.95329 -11.60485,2.97197 -0.14152,-1.98131 -3.67959,-7.07612 -5.6609,-8.63288 -1.98131,-1.55674 -2.83045,-12.45399 -2.83045,-12.45399 z"
         id="path1009"
         inkscape:connector-curvature="0" />
      <path
         inkscape:connector-curvature="0"
         id="path1007"
         d="m 352.22008,154.74857 9.19897,-33.39934 70.90281,2.54741 c 0,0 9.90659,-11.60486 15.42597,-8.34983 5.51938,3.25502 0.5661,5.09481 1.69828,7.64222 1.13217,2.5474 7.07612,0.42456 7.92525,2.5474 0.84915,2.12284 -13.58616,6.51004 -15.00139,13.7277 -1.41521,7.21765 6.51004,3.39654 9.05744,7.35917 2.54742,3.96263 1.13219,6.79308 2.12285,10.47268 0.99066,3.67958 3.39654,0.99065 4.9533,2.97197 1.55673,1.98131 -0.99067,4.10415 0.56608,7.21765 1.55676,3.1135 16.69967,2.97197 19.10556,-1.2737 2.40588,-4.24569 -3.96264,-11.60486 -5.37786,-11.46333 -1.41523,0.14152 -1.55675,2.40588 -1.55675,2.40588 l -3.11351,-4.67025 c 0,0 6.93461,-0.99066 9.76507,5.37786 2.83044,6.36852 4.10415,13.86922 2.83044,19.3886 l -1.13217,-4.10416 c 0,0 -15.28444,0.70762 -24.76646,7.07614 0,0 4.38721,-17.54881 -6.08547,-5.37786 -10.47267,12.17094 -11.46333,4.95329 -11.60485,2.97197 -0.14152,-1.98131 -3.67959,-7.07612 -5.6609,-8.63288 -1.98131,-1.55674 -2.83045,-12.45399 -2.83045,-12.45399 z"
         style="fill:#006747;fill-opacity:1;stroke:none;stroke-width:0.14010023px;stroke-linecap:butt;stroke-linejoin:miter;stroke-opacity:1" />
    </g>
  </g>
</svg>
