<?xml version="1.0" encoding="UTF-8" standalone="no"?>
<!-- Created with Inkscape (http://www.inkscape.org/) -->

<svg
   xmlns:dc="http://purl.org/dc/elements/1.1/"
   xmlns:cc="http://creativecommons.org/ns#"
   xmlns:rdf="http://www.w3.org/1999/02/22-rdf-syntax-ns#"
   xmlns:svg="http://www.w3.org/2000/svg"
   xmlns="http://www.w3.org/2000/svg"
   xmlns:sodipodi="http://sodipodi.sourceforge.net/DTD/sodipodi-0.dtd"
   xmlns:inkscape="http://www.inkscape.org/namespaces/inkscape"
   width="1000"
   height="1000"
   viewBox="0 0 264.58333 264.58334"
   version="1.1"
   id="svg8"
   inkscape:version="0.92.3 (2405546, 2018-03-11)"
   sodipodi:docname="laa.svg">
  <defs
     id="defs2" />
  <sodipodi:namedview
     id="base"
     pagecolor="#ffffff"
     bordercolor="#666666"
     borderopacity="1.0"
     inkscape:pageopacity="0.0"
     inkscape:pageshadow="2"
     inkscape:zoom="0.49497475"
     inkscape:cx="325.98522"
     inkscape:cy="567.77989"
     inkscape:document-units="mm"
     inkscape:current-layer="layer1"
     showgrid="false"
     units="px"
     inkscape:snap-global="false"
     inkscape:window-width="1920"
     inkscape:window-height="1029"
     inkscape:window-x="1920"
     inkscape:window-y="0"
     inkscape:window-maximized="1" />
  <metadata
     id="metadata5">
    <rdf:RDF>
      <cc:Work
         rdf:about="">
        <dc:format>image/svg+xml</dc:format>
        <dc:type
           rdf:resource="http://purl.org/dc/dcmitype/StillImage" />
        <dc:title></dc:title>
      </cc:Work>
    </rdf:RDF>
  </metadata>
  <g
     inkscape:label="Layer 1"
     inkscape:groupmode="layer"
     id="layer1"
     transform="translate(0,-32.41665)">
    <rect
       style="opacity:1;fill:#ffffff;fill-opacity:1;stroke:none;stroke-width:3.96875;stroke-linecap:square;stroke-linejoin:round;stroke-miterlimit:4;stroke-dasharray:none;stroke-opacity:1;paint-order:normal"
       id="rect1152"
       width="288.65109"
       height="280.633"
       x="-8.5526247"
       y="26.523222" />
    <g
       id="g1150">
      <g
         transform="matrix(0.96402688,0,0,0.96402688,-449.98222,11.84747)"
         id="g1047">
        <path
           inkscape:connector-curvature="0"
           style="opacity:1;fill:#f3d03e;fill-opacity:1;stroke:none;stroke-width:0.46469602;stroke-linecap:square;stroke-linejoin:round;stroke-miterlimit:4;stroke-dasharray:none;stroke-opacity:1;paint-order:normal"
           d="m 2044.9609,111.39258 a 199.99999,48.571427 5.0852701 0 0 -125.6015,33.73633 199.99999,48.571427 5.0852701 0 0 194.9082,66.10742 199.99999,48.571427 5.0852701 0 0 104.8066,2.05859 l 7.3418,78.09375 c -58.6097,-39.00939 -127.7124,-48.59321 -182.4961,-48.33398 -55.7026,0.26357 -96.5976,10.69531 -96.5976,10.69531 53.5381,6.56598 69.6992,25.25391 69.6992,25.25391 -128.2894,11.61675 -212.8887,97.98437 -212.8887,97.98437 39.6485,-8.0812 74.4981,-8.08203 74.4981,-8.08203 C 1831.9113,412.09026 1810,470.71484 1810,470.71484 c 53.2143,-40.35711 101.4277,-62.14257 101.4277,-62.14257 -4.6428,33.92855 -20.3554,58.92773 -20.3554,58.92773 61.4286,-18.2143 112.1425,-56.78516 112.1425,-56.78516 10.3572,41.78574 0.7129,62.14258 0.7129,62.14258 45.3572,-24.28573 58.2149,-61.07226 58.2149,-61.07226 10.3571,72.14282 55,118.57226 55,118.57226 -3.2143,-23.57144 3.5722,-41.42969 3.5722,-41.42969 7.5611,27.2197 38.0853,52.31862 47.2852,59.39063 a 46.545668,53.571428 0 0 0 -3.2109,19.53906 46.545668,53.571428 0 0 0 2.08,15.6582 37.857142,43.571429 0 0 1 -0.4414,-6.37304 37.857142,43.571429 0 0 1 37.8575,-43.57031 37.857142,43.571429 0 0 1 37.8574,43.57031 37.857142,43.571429 0 0 1 -37.8574,43.57226 37.857142,43.571429 0 0 1 -0.2422,-0.0137 46.545668,53.571428 0 0 0 7.291,0.72656 46.545668,53.571428 0 0 0 28.5117,-11.30664 c 6.0907,10.19246 19.8568,40.46861 11.9395,97.02149 l 117.5273,-98.07227 -8.2402,-117.28515 c -8.2143,-31.42855 -22.1446,-52.14258 -22.1446,-52.14258 15.7143,-15 50.3575,-5 50.3575,-5 -29.2858,-39.28573 -76.7852,-49.28516 -76.7852,-49.28516 11.4286,-45 52.8574,-48.21484 52.8574,-48.21484 -29.2857,-23.21428 -80.7148,4.64258 -80.7148,4.64258 17.8571,-35.71427 -3.5703,-69.28516 -3.5703,-69.28516 -5.3572,34.99997 -28.6856,38.82812 -28.6856,38.82812 -3.7548,-3.31633 -7.5783,-6.47551 -11.459,-9.49414 l -7.4668,-89.59765 a 199.99999,48.571427 5.0852701 0 0 84.3243,-31.65039 199.99999,48.571427 5.0852701 0 0 -194.9082,-66.10938 199.99999,48.571427 5.0852701 0 0 -77.9161,-3.08398 z m 17.2559,12.38281 a 162.5,32.499999 5.0852701 0 1 58.8477,3.01758 162.5,32.499999 5.0852701 0 1 158.9785,46.77734 162.5,32.499999 5.0852701 0 1 -164.7403,17.9668 162.5,32.499999 5.0852701 0 1 -158.9804,-46.77539 162.5,32.499999 5.0852701 0 1 105.8945,-20.98633 z"
           transform="matrix(0.26458333,0,0,0.26458333,0,32.41665)"
           id="ellipse1006" />
        <path
           inkscape:connector-curvature="0"
           style="opacity:1;fill:#ba0021;fill-opacity:1;stroke:#ffffff;stroke-width:20;stroke-linecap:butt;stroke-linejoin:miter;stroke-miterlimit:4;stroke-dasharray:none;stroke-opacity:1"
           d="m 2716.9922,397.59375 c -8.5801,-0.0237 -18.37,0.16606 -28.9766,0.35547 -56.5685,1.01015 -233.3457,39.39648 -233.3457,39.39648 0,0 -85.9194,21.58205 -105.2051,44.08203 -19.2857,22.50002 -47.3278,123.60335 -83.6933,187.74805 -19.3583,34.14585 -41.1985,62.32896 -64.8262,86.82617 l 33.7988,24.36719 c 18.5291,-13.03231 36.4234,-25.23692 49.7168,-31.64453 34.5421,-16.64981 109.9626,-37.15417 112.4258,-37.57813 62.6911,-10.7904 134.0695,-25.44259 159.75,-41.68945 49.4975,-31.31471 16.1624,-30.30312 -40.4062,-29.29297 -6.8903,0.12304 -15.5873,0.80718 -25.5078,1.90235 50.6088,-9.68491 99.5238,-21.68288 119.8418,-34.53711 49.4974,-31.31471 16.1623,-30.30508 -40.4063,-29.29492 -7.0506,0.12585 -15.9713,0.8322 -26.1816,1.97265 49.1347,-9.54423 95.9863,-21.23881 115.7558,-33.74609 49.4975,-31.31471 16.1624,-30.30313 -40.4062,-29.29297 -10.4032,0.18577 -24.893,1.64206 -41.5801,3.88476 51.8816,-9.80168 102.6609,-22.06024 123.4629,-35.2207 49.4975,-31.31471 16.1623,-30.30507 -40.4063,-29.29492 -13.2161,0.236 -33.0305,2.52693 -55.582,5.87695 51.7905,-9.79348 102.4342,-22.0316 123.2012,-35.16992 40.2167,-25.4432 25.7509,-29.54779 -11.4297,-29.65039 z"
           transform="matrix(0.26458333,0,0,0.26458333,0,32.41665)"
           id="path1039" />
        <path
           inkscape:connector-curvature="0"
           style="opacity:1;fill:#ba0021;fill-opacity:1;stroke:none;stroke-width:0.99999994px;stroke-linecap:butt;stroke-linejoin:miter;stroke-opacity:1"
           d="m 2716.9922,397.59375 c -8.5801,-0.0237 -18.37,0.16606 -28.9766,0.35547 -56.5685,1.01015 -233.3457,39.39648 -233.3457,39.39648 0,0 -85.9194,21.58205 -105.2051,44.08203 -19.2857,22.50002 -47.3278,123.60335 -83.6933,187.74805 -36.3655,64.14471 -81.4858,107.25363 -130.7715,144.39649 0,0 -91.9673,17.22658 -133.8887,19.75195 -41.9213,2.5254 -75.2551,1.01052 -84.8515,-3.53516 -9.5965,-4.54567 -9.5973,-14.39535 -18.1836,-25.00195 -8.5863,-10.6066 -46.719,-27.77823 -57.5782,-61.11328 -10.8591,-33.33502 6.0612,-55.81003 3.2832,-68.68945 -2.7776,-12.87943 -32.8298,-22.47621 -34.5976,-38.63868 -1.7678,-16.16243 38.3853,-54.29653 35.6074,-67.93359 -2.7779,-13.63707 -22.7283,-20.7073 -27.0215,-36.61719 -4.2931,-15.90992 7.0703,-59.59961 7.0703,-59.59961 0,0 -17.1716,41.66784 -13.8886,61.11328 3.2829,19.44545 23.7379,24.24499 24.748,37.37696 1.0102,13.132 -35.8595,45.96237 -34.0918,66.41797 1.7678,20.45555 30.81,31.3135 33.5879,40.15234 2.778,8.83884 -13.1318,43.43762 -1.7676,76.26758 11.3643,32.82996 56.3159,52.77953 61.6192,61.11328 5.3033,8.33378 5.807,15.65782 14.8984,21.71875 9.0914,6.06092 79.5507,5.80742 109.0977,3.78711 29.5469,-2.02031 103.2871,-14.89844 103.2871,-14.89844 0,0 7.3239,10.35449 33.5879,4.04102 26.2639,-6.31344 93.4401,-63.64051 128.5429,-80.56055 34.5421,-16.64981 109.9626,-37.15417 112.4258,-37.57813 62.6911,-10.7904 134.0695,-25.44259 159.75,-41.68945 49.4975,-31.31471 16.1624,-30.30312 -40.4062,-29.29297 -6.8903,0.12304 -15.5873,0.80718 -25.5078,1.90235 50.6088,-9.68491 99.5238,-21.68288 119.8418,-34.53711 49.4974,-31.31471 16.1623,-30.30508 -40.4063,-29.29492 -7.0506,0.12586 -15.9713,0.8322 -26.1816,1.97265 49.1347,-9.54423 95.9863,-21.23881 115.7558,-33.74609 49.4975,-31.31471 16.1624,-30.30313 -40.4062,-29.29297 -10.4032,0.18577 -24.893,1.64206 -41.5801,3.88476 51.8816,-9.80168 102.6609,-22.06024 123.4629,-35.2207 49.4975,-31.31471 16.1623,-30.30507 -40.4063,-29.29492 -13.2161,0.236 -33.0305,2.52693 -55.582,5.87695 51.7905,-9.79348 102.4342,-22.0316 123.2012,-35.16992 40.2167,-25.4432 25.7509,-29.54779 -11.4297,-29.65039 z m -737.8516,95.81445 c 0,0 -96.974,53.53848 -102.2773,51.26563 -5.3033,-2.27282 -8.082,-20.20313 -8.0821,-20.20313 0,0 -12.3742,45.45667 -9.3437,48.99219 3.0305,3.53556 15.658,2.5259 59.5996,-22.98047 43.9416,-25.50633 60.1035,-26.51758 60.1035,-26.51758 z m -43.1836,64.14453 -48.9922,23.99219 c 0,0 1.3582,11.93588 10.3536,14.14063 16.7795,4.11265 40.6592,-8.08051 44.4472,-19.69727 3.7881,-11.61675 -5.8086,-18.43555 -5.8086,-18.43555 z m 38.3282,51.01954 c 0,0 -30.2457,13.63137 -21.1543,50.50195 8.0237,32.54078 44.2672,43.73967 59.0019,51.56055 -31.6057,29.8542 -73.5605,42.9375 -73.5605,42.9375 0,0 38.3353,-4.20378 80.2343,-38.04102 11.3278,11.04847 13.336,21.61133 13.336,21.61133 0,0 -0.691,-18.5484 -8.5703,-26.42774 -19.2858,-16.42854 -42.9024,-16.76161 -57.1446,-41.42968 -21.1318,-36.60148 7.8575,-60.71289 7.8575,-60.71289 z m 77.8574,0 A 10.714286,6.428571 0 0 0 2041.4277,615 a 10.714286,6.428571 0 0 0 10.7149,6.42773 10.714286,6.428571 0 0 0 10.7148,-6.42773 10.714286,6.428571 0 0 0 -10.7148,-6.42773 z m -50,5 A 10.714286,6.428571 0 0 0 1991.4277,620 a 10.714286,6.428571 0 0 0 10.7149,6.42773 10.714286,6.428571 0 0 0 10.7148,-6.42773 10.714286,6.428571 0 0 0 -10.7148,-6.42773 z m -150.7149,21.07031 a 6.7857139,6.4285712 0 0 0 -6.7851,6.42969 6.7857139,6.4285712 0 0 0 6.7851,6.42773 6.7857139,6.4285712 0 0 0 6.7871,-6.42773 6.7857139,6.4285712 0 0 0 -6.7871,-6.42969 z m 175,13.21484 a 10.714286,6.428571 0 0 0 -10.7129,6.42774 10.714286,6.428571 0 0 0 10.7129,6.42968 10.714286,6.428571 0 0 0 10.7149,-6.42968 10.714286,6.428571 0 0 0 -10.7149,-6.42774 z"
           transform="matrix(0.26458333,0,0,0.26458333,0,32.41665)"
           id="path963" />
      </g>
      <path
         style="fill:#003263;fill-opacity:1;stroke:#ffffff;stroke-width:3.96875;stroke-linecap:butt;stroke-linejoin:miter;stroke-miterlimit:4;stroke-dasharray:none;stroke-opacity:1"
         d="m 183.28702,170.12081 c 0,0 -2.76884,8.98322 -8.07368,15.64963 l 2.62136,-0.0263 -0.48614,18.97993 -2.45387,-4.92305 -6.4652,7.99652 0.14619,-4.63031 2.26417,-0.023 c 0,0 -3.97259,-5.94986 -5.727,-12.9739 0,0 -2.3176,7.51952 -6.75817,13.09986 l 2.12551,-0.0216 -0.47048,11.48955 -1.81619,2.42761 -4.15912,-9.94714 -4.87243,12.64434 -1.87736,0.43744 0.0455,-7.69398 3.18042,-0.0321 c 0,0 -4.74564,-7.10769 -6.84152,-15.4988 0,0 -2.76882,8.98289 -8.07364,15.6493 l 3.06826,-0.0309 -0.73318,12.65407 -4.63727,-6.6075 c 0,0 -2.5754,10.72883 -5.85105,16.09252 l 5.20558,0.41272 c 0,0 1.75912,6.23653 -1.84672,15.89855 l 24.56424,-0.0555 a 19.441291,19.441289 1.8084131 0 1 -1.115,-7.03991 19.441291,19.441289 1.8084131 0 1 20.04537,-18.818 19.441291,19.441289 1.8084131 0 1 18.81801,20.04504 19.441291,19.441289 1.8084131 0 1 -1.05848,5.72982 l 25.68345,-0.0578 c -0.77842,-2.15071 -3.18321,-9.85726 -1.2689,-18.5862 l 7.95761,0.31476 c 0,0 -6.44552,-4.4281 -6.74743,-18.4782 l -5.2354,8.40805 -2.86031,-19.59795 -7.00332,17.17427 -3.28748,-6.06817 -0.23304,-6.82384 3.58248,-0.036 c 0,0 -3.97257,-5.94985 -5.727,-12.97389 0,0 -2.31759,7.51952 -6.75817,13.09986 l 2.44531,-0.0247 0.17661,8.41685 -5.34124,-11.84834 0.234,-18.27985 2.45618,-0.0248 c 0,0 -4.74562,-7.10804 -6.8415,-15.49915 z"
         id="path1130"
         inkscape:connector-curvature="0" />
      <path
         inkscape:connector-curvature="0"
         id="path1113"
         d="m 183.28702,170.12081 c 0,0 -2.76884,8.98322 -8.07368,15.64963 l 2.62136,-0.0263 -0.48614,18.97993 -2.45387,-4.92305 -6.4652,7.99652 0.14619,-4.63031 2.26417,-0.023 c 0,0 -3.97259,-5.94986 -5.727,-12.9739 0,0 -2.3176,7.51952 -6.75817,13.09986 l 2.12551,-0.0216 -0.47048,11.48955 -1.81619,2.42761 -4.15912,-9.94714 -4.87243,12.64434 -1.87736,0.43744 0.0455,-7.69398 3.18042,-0.0321 c 0,0 -4.74564,-7.10769 -6.84152,-15.4988 0,0 -2.76882,8.98289 -8.07364,15.6493 l 3.06826,-0.0309 -0.73318,12.65407 -4.63727,-6.6075 c 0,0 -2.5754,10.72883 -5.85105,16.09252 l 5.20558,0.41272 c 0,0 1.75912,6.23653 -1.84672,15.89855 l 24.56424,-0.0555 a 19.441291,19.441289 1.8084131 0 1 -1.115,-7.03991 19.441291,19.441289 1.8084131 0 1 20.04537,-18.818 19.441291,19.441289 1.8084131 0 1 18.81801,20.04504 19.441291,19.441289 1.8084131 0 1 -1.05848,5.72982 l 25.68345,-0.0578 c -0.77842,-2.15071 -3.18321,-9.85726 -1.2689,-18.5862 l 7.95761,0.31476 c 0,0 -6.44552,-4.4281 -6.74743,-18.4782 l -5.2354,8.40805 -2.86031,-19.59795 -7.00332,17.17427 -3.28748,-6.06817 -0.23304,-6.82384 3.58248,-0.036 c 0,0 -3.97257,-5.94985 -5.727,-12.97389 0,0 -2.31759,7.51952 -6.75817,13.09986 l 2.44531,-0.0247 0.17661,8.41685 -5.34124,-11.84834 0.234,-18.27985 2.45618,-0.0248 c 0,0 -4.74562,-7.10804 -6.8415,-15.49915 z"
         style="fill:#003263;fill-opacity:1;stroke:none;stroke-width:0.1738672px;stroke-linecap:butt;stroke-linejoin:miter;stroke-opacity:1" />
      <path
         inkscape:connector-curvature="0"
         id="path1135"
         d="m 132.48065,214.17595 0.66146,2.92931 3.92151,4.86645 0.42522,-8.69345 z"
         style="fill:#ffffff;stroke:none;stroke-width:0.26458332px;stroke-linecap:butt;stroke-linejoin:miter;stroke-opacity:1;fill-opacity:1" />
      <path
         inkscape:connector-curvature="0"
         id="path1137"
         d="m 200.0439,208.31732 0.33073,5.57515 1.74813,2.26785 5.6224,-10.72507 -4.15774,0.37797 0.33073,2.17337 z"
         style="fill:#ffffff;stroke:none;stroke-width:0.26458332px;stroke-linecap:butt;stroke-linejoin:miter;stroke-opacity:1;fill-opacity:1" />
      <path
         inkscape:connector-curvature="0"
         id="path1139"
         d="m 154.49777,205.05727 2.83482,-1.03943 2.22061,0.8032 -1.03944,9.68564 z"
         style="fill:#ffffff;stroke:none;stroke-width:0.26458332px;stroke-linecap:butt;stroke-linejoin:miter;stroke-opacity:1;fill-opacity:1" />
    </g>
  </g>
</svg>
