<?xml version="1.0" encoding="UTF-8" standalone="no"?>
<!-- Created with Inkscape (http://www.inkscape.org/) -->

<svg
   xmlns:dc="http://purl.org/dc/elements/1.1/"
   xmlns:cc="http://creativecommons.org/ns#"
   xmlns:rdf="http://www.w3.org/1999/02/22-rdf-syntax-ns#"
   xmlns:svg="http://www.w3.org/2000/svg"
   xmlns="http://www.w3.org/2000/svg"
   xmlns:sodipodi="http://sodipodi.sourceforge.net/DTD/sodipodi-0.dtd"
   xmlns:inkscape="http://www.inkscape.org/namespaces/inkscape"
   width="1000"
   height="1000"
   viewBox="0 0 264.58333 264.58334"
   version="1.1"
   id="svg8"
   sodipodi:docname="lad.svg"
   inkscape:version="0.92.3 (2405546, 2018-03-11)">
  <defs
     id="defs2" />
  <sodipodi:namedview
     id="base"
     pagecolor="#ffffff"
     bordercolor="#666666"
     borderopacity="1.0"
     inkscape:pageopacity="0.0"
     inkscape:pageshadow="2"
     inkscape:zoom="0.49497475"
     inkscape:cx="1008.3633"
     inkscape:cy="367.43532"
     inkscape:document-units="mm"
     inkscape:current-layer="layer1"
     showgrid="false"
     units="px"
     inkscape:snap-global="false"
     inkscape:snap-object-midpoints="false"
     inkscape:snap-smooth-nodes="false"
     inkscape:window-width="1920"
     inkscape:window-height="1029"
     inkscape:window-x="1920"
     inkscape:window-y="0"
     inkscape:window-maximized="1" />
  <metadata
     id="metadata5">
    <rdf:RDF>
      <cc:Work
         rdf:about="">
        <dc:format>image/svg+xml</dc:format>
        <dc:type
           rdf:resource="http://purl.org/dc/dcmitype/StillImage" />
        <dc:title />
      </cc:Work>
    </rdf:RDF>
  </metadata>
  <g
     inkscape:label="Layer 1"
     inkscape:groupmode="layer"
     id="layer1"
     transform="translate(0,-32.41665)">
    <rect
       style="opacity:1;fill:#ffffff;fill-opacity:1;stroke:none;stroke-width:5.29166651;stroke-linecap:square;stroke-linejoin:round;stroke-miterlimit:4;stroke-dasharray:none;stroke-opacity:1;paint-order:normal"
       id="rect889"
       width="304.68726"
       height="323.39612"
       x="-12.828937"
       y="14.763366" />
    <g
       id="g887"
       transform="matrix(0.5216523,0,0,0.5216523,-178.58253,73.622878)">
      <path
         id="rect931"
         transform="matrix(0.26458333,0,0,0.26458333,0,32.41665)"
         d="m 1451.8906,190.84766 c -8.6568,6.25737 -13.1243,21.23587 -12.9297,34.87109 0.1255,8.77766 4.7353,15.18294 9.3438,19.41406 h 1402.3086 l 4.8652,-29.79687 v -24.48828 z m 4.5703,65.71289 -54.5156,232.85742 h 1408.7852 l 38.0175,-232.85742 z m 569.0176,21.42968 h 148.5703 v 55.71485 h -148.5703 z m 188.5703,0 h 147.1426 v 55.71485 h -147.1426 z m 187.1426,0 h 148.5742 v 55.71485 h -148.5742 z m -939.1211,48.57227 h 130.5527 v 141.42773 h -163.6621 z m 224.8379,38.57031 h 102.8574 v 102.85742 h -102.8574 z m 150,0 h 104.2832 v 102.85742 h -104.2832 z m 188.5703,0 h 148.5703 v 102.85742 h -148.5703 z m 188.5703,0 h 147.1426 v 102.85742 h -147.1426 z m 187.1426,0 h 148.5742 v 102.85742 h -148.5742 z"
         style="opacity:1;fill:#005a9c;fill-opacity:1;stroke:none;stroke-width:42.84662628;stroke-linecap:square;stroke-linejoin:round;stroke-miterlimit:4;stroke-dasharray:none;stroke-opacity:1;paint-order:normal"
         inkscape:connector-curvature="0" />
      <path
         id="path922"
         transform="matrix(0.26458333,0,0,0.26458333,0,32.41665)"
         d="m 1399.2695,500.84766 -30.5625,130.55273 h -38.3906 v 88.57031 h 44.1289 c 19.7231,50.06763 54.5444,129.35953 84.084,148.57227 15.0365,9.77983 31.1442,18.01758 46.4492,18.01758 h 483.5371 c 38.1198,-88.53789 110.5973,-146.58985 168.2285,-146.58985 h 248.5723 c 57.6312,0 130.1087,58.05196 168.2285,146.58985 h 148.9043 l 38.7363,-170.85743 h -774.2773 v -11.42968 h 776.8691 l 16,-70.57032 h -792.8691 v -11.42773 h 795.4609 l 23.834,-105.12891 2.6602,-16.29882 z m 287.6387,18.57031 h 102.8574 v 94.28711 h -102.8574 z m 150,0 h 104.2832 v 94.28711 H 1836.9082 Z M 1342.457,645.13281 h 268.6836 c 5.2267,4.79864 10.4537,12.06261 10.5957,22.01758 0.2208,15.46401 -4.8442,32.45216 -14.6621,39.54883 H 1342.457 Z m 344.4512,1.42969 h 102.8574 v 64.28516 h -102.8574 z m 150,0 h 104.2832 v 64.28516 h -104.2832 z m 319.8359,113.4082 a 110,110 0 0 0 -110,110 110,110 0 0 0 110,110 110,110 0 0 0 110,-110 110,110 0 0 0 -110,-110 z m 250.2207,0 a 110,110 0 0 0 -110,110 110,110 0 0 0 110,110 110,110 0 0 0 110,-110 110,110 0 0 0 -110,-110 z m -250.2207,55 a 54.999995,54.999995 0 0 1 55,55 54.999995,54.999995 0 0 1 -55,55 54.999995,54.999995 0 0 1 -55,-55 54.999995,54.999995 0 0 1 55,-55 z m 250.2207,0 a 54.999999,54.999999 0 0 1 55,55 54.999999,54.999999 0 0 1 -55,55 54.999999,54.999999 0 0 1 -55,-55 54.999999,54.999999 0 0 1 55,-55 z"
         style="opacity:1;fill:#a5acaf;fill-opacity:1;stroke:none;stroke-width:42.84662628;stroke-linecap:square;stroke-linejoin:round;stroke-miterlimit:4;stroke-dasharray:none;stroke-opacity:1;paint-order:normal"
         inkscape:connector-curvature="0" />
      <path
         style="fill:#ef3e42;fill-opacity:1;stroke:#ffffff;stroke-width:5.29166651;stroke-linecap:butt;stroke-linejoin:round;stroke-miterlimit:4;stroke-dasharray:none;stroke-opacity:1"
         d="m 759.26775,70.54774 c -18.5209,-36.285714 -60.0982,-29.482143 -60.0982,-29.482143 6.8035,0.377976 11.7172,10.205357 11.7172,10.205357 -34.7738,-7.181547 -56.6964,21.922619 -56.6964,21.922619 25.3244,-7.559523 43.0893,0.755953 43.0893,0.755953 -10.9613,1.133928 -17.3869,17.76488 -17.3869,17.76488 8.6934,-12.473214 39.6875,-10.583333 39.6875,-10.583333 -30.2381,2.267857 -31.3721,46.869047 -31.3721,46.869047 -0.3779,-7.9375 10.5834,-17.00893 10.5834,-17.00893 -3.7798,29.10416 18.1428,61.61011 18.1428,61.61011 -2.2678,-38.17559 9.4494,-64.25594 9.4494,-64.25594 -1.1339,10.58333 5.6697,18.8988 5.6697,18.8988 4.5357,-20.4107 17.0089,-23.81249 17.0089,-23.81249 0,0 -21.5446,131.91368 -51.7827,201.08332 0,0 3.7797,12.85119 19.2768,7.55953 0,0 35.9077,-123.22024 40.4434,-196.92559 0,0 0.378,18.52083 7.5595,32.12797 0,0 -1.5119,-7.55952 6.4256,-15.49702 0,0 1.5119,32.12797 5.6697,48.75892 0,0 12.0952,-27.21428 7.1815,-52.91666 0,0 11.7173,4.91369 14.3631,12.47321 0,0 -1.1339,-27.21428 -11.7173,-37.04166 0,0 20.0328,11.33929 24.5685,37.79761 0,0 4.9137,-6.42559 5.2917,-15.11904 0,0 12.8512,7.9375 15.119,34.01785 0,0 14.7411,-33.2619 -6.4256,-56.31844 0,0 5.6697,-1.13393 8.3155,0 0,0 -14.3631,-12.473216 -34.7738,-16.252978 0,0 15.119,-8.693452 32.5059,-3.401785 0,0 -9.8273,-10.205358 -24.1904,-11.339286 0,0 19.2767,-2.645833 28.3482,3.401786 0,0 -21.1667,-21.166667 -33.64,-20.788691 -12.4732,0.377977 -42.3332,15.497024 -42.3332,15.497024 z"
         id="path881"
         inkscape:connector-curvature="0"
         sodipodi:nodetypes="cccccccccccccccccccccccccccccccsc" />
      <path
         sodipodi:nodetypes="cccccccccccccccccccccccccccccccsc"
         inkscape:connector-curvature="0"
         id="path873"
         d="m 759.26775,70.54774 c -18.5209,-36.285714 -60.0982,-29.482143 -60.0982,-29.482143 6.8035,0.377976 11.7172,10.205357 11.7172,10.205357 -34.7738,-7.181547 -56.6964,21.922619 -56.6964,21.922619 25.3244,-7.559523 43.0893,0.755953 43.0893,0.755953 -10.9613,1.133928 -17.3869,17.76488 -17.3869,17.76488 8.6934,-12.473214 39.6875,-10.583333 39.6875,-10.583333 -30.2381,2.267857 -31.3721,46.869047 -31.3721,46.869047 -0.3779,-7.9375 10.5834,-17.00893 10.5834,-17.00893 -3.7798,29.10416 18.1428,61.61011 18.1428,61.61011 -2.2678,-38.17559 9.4494,-64.25594 9.4494,-64.25594 -1.1339,10.58333 5.6697,18.8988 5.6697,18.8988 4.5357,-20.4107 17.0089,-23.81249 17.0089,-23.81249 0,0 -21.5446,131.91368 -51.7827,201.08332 0,0 3.7797,12.85119 19.2768,7.55953 0,0 35.9077,-123.22024 40.4434,-196.92559 0,0 0.378,18.52083 7.5595,32.12797 0,0 -1.5119,-7.55952 6.4256,-15.49702 0,0 1.5119,32.12797 5.6697,48.75892 0,0 12.0952,-27.21428 7.1815,-52.91666 0,0 11.7173,4.91369 14.3631,12.47321 0,0 -1.1339,-27.21428 -11.7173,-37.04166 0,0 20.0328,11.33929 24.5685,37.79761 0,0 4.9137,-6.42559 5.2917,-15.11904 0,0 12.8512,7.9375 15.119,34.01785 0,0 14.7411,-33.2619 -6.4256,-56.31844 0,0 5.6697,-1.13393 8.3155,0 0,0 -14.3631,-12.473216 -34.7738,-16.252978 0,0 15.119,-8.693452 32.5059,-3.401785 0,0 -9.8273,-10.205358 -24.1904,-11.339286 0,0 19.2767,-2.645833 28.3482,3.401786 0,0 -21.1667,-21.166667 -33.64,-20.788691 -12.4732,0.377977 -42.3332,15.497024 -42.3332,15.497024 z"
         style="fill:#ef3e42;fill-opacity:1;stroke:none;stroke-width:0.26458332px;stroke-linecap:butt;stroke-linejoin:miter;stroke-opacity:1" />
    </g>
  </g>
</svg>
