<?xml version="1.0" encoding="UTF-8" standalone="no"?>
<!-- Created with Inkscape (http://www.inkscape.org/) -->

<svg
   xmlns:dc="http://purl.org/dc/elements/1.1/"
   xmlns:cc="http://creativecommons.org/ns#"
   xmlns:rdf="http://www.w3.org/1999/02/22-rdf-syntax-ns#"
   xmlns:svg="http://www.w3.org/2000/svg"
   xmlns="http://www.w3.org/2000/svg"
   xmlns:sodipodi="http://sodipodi.sourceforge.net/DTD/sodipodi-0.dtd"
   xmlns:inkscape="http://www.inkscape.org/namespaces/inkscape"
   width="1000"
   height="1000"
   viewBox="0 0 264.58333 264.58334"
   version="1.1"
   id="svg8"
   sodipodi:docname="mil.svg"
   inkscape:version="0.92.3 (2405546, 2018-03-11)">
  <defs
     id="defs2" />
  <sodipodi:namedview
     id="base"
     pagecolor="#ffffff"
     bordercolor="#666666"
     borderopacity="1.0"
     inkscape:pageopacity="0.0"
     inkscape:pageshadow="2"
     inkscape:zoom="0.49497475"
     inkscape:cx="517.52536"
     inkscape:cy="421.03013"
     inkscape:document-units="mm"
     inkscape:current-layer="layer1"
     showgrid="false"
     units="px"
     inkscape:snap-global="false"
     inkscape:window-width="1920"
     inkscape:window-height="1029"
     inkscape:window-x="1920"
     inkscape:window-y="0"
     inkscape:window-maximized="1" />
  <metadata
     id="metadata5">
    <rdf:RDF>
      <cc:Work
         rdf:about="">
        <dc:format>image/svg+xml</dc:format>
        <dc:type
           rdf:resource="http://purl.org/dc/dcmitype/StillImage" />
        <dc:title />
      </cc:Work>
    </rdf:RDF>
  </metadata>
  <g
     inkscape:label="Layer 1"
     inkscape:groupmode="layer"
     id="layer1"
     transform="translate(0,-32.41665)">
    <rect
       style="opacity:1;fill:#ffffff;fill-opacity:1;stroke:none;stroke-width:6.61458302;stroke-linecap:square;stroke-linejoin:round;stroke-miterlimit:4;stroke-dasharray:none;stroke-opacity:1;paint-order:normal"
       id="rect1103"
       width="280.633"
       height="280.633"
       x="-5.8799295"
       y="28.661377" />
    <ellipse
       style="opacity:1;fill:#ffffff;fill-opacity:1;stroke:none;stroke-width:7.9375;stroke-linecap:square;stroke-linejoin:round;stroke-miterlimit:4;stroke-dasharray:none;stroke-opacity:1;paint-order:normal"
       id="path934"
       cx="633.81879"
       cy="32.511143"
       rx="7.6067705"
       ry="5.3861609"
       transform="matrix(0.26458333,0,0,0.26458333,0,32.41665)" />
    <g
       id="g1101"
       transform="translate(-271.54584,-11.22532)">
      <path
         inkscape:connector-curvature="0"
         id="path1019"
         d="m 494.00654,128.55369 -64.07877,1.54668 1.93061,8.87077 c -7.83659,12.13733 -8.46614,33.79742 -8.46614,33.79742 3.77976,-4.53571 10.58334,-6.04717 10.58334,-6.04717 -6.80358,8.31547 -6.42546,26.45833 -6.42546,26.45833 14.7411,-18.14286 32.50596,-13.98511 34.39583,-2.64583 1.88989,11.33929 -10.20556,17.38653 -10.20556,17.38653 l 38.55371,-0.37776 c 9.45941,-12.97916 9.8258,-48.74616 3.71244,-78.98897 z"
         style="opacity:1;fill:#fed141;fill-opacity:1;stroke:none;stroke-width:0.27984586px;stroke-linecap:butt;stroke-linejoin:miter;stroke-opacity:1" />
      <g
         transform="translate(11.209585,28.545071)"
         id="g1090">
        <path
           inkscape:connector-curvature="0"
           id="path1083"
           d="m 459.92134,142.55598 c -4.24607,0.001 -8.59793,2.62831 -9.96595,6.75578 -5.67717,-3.0626 -14.40611,2.12906 -12.3031,8.84685 0.36657,1.96295 3.04852,3.15109 0.87267,4.78847 -1.72175,2.67667 -1.17568,5.5795 0.49713,7.83483 -0.38765,0.54031 -0.76361,1.14022 -1.1074,1.80632 0,0 6.61369,29.69694 -3.24208,56.67065 0,0 2.85304,8.04038 6.87315,10.63401 4.02013,2.59362 35.53257,3.50119 44.35089,0.6482 8.81832,-2.85299 12.06056,-9.98545 12.06056,-9.98545 0,0 -0.46309,-2.4223 -0.9943,-6.39339 3.65945,-0.38736 11.19885,-1.50651 13.73213,-4.31367 3.39284,-3.75964 1.00867,-35.85411 -1.83397,-38.42167 -1.59899,-1.44424 -6.62186,-1.72814 -10.71062,-1.69994 -0.20887,0.001 -0.40719,0.005 -0.61061,0.009 0.34709,-1.54971 0.74321,-3.0717 1.19535,-4.55374 0,0 -0.85463,-2.20436 -3.10982,-4.63494 2.92835,-0.85895 5.39327,-2.71083 5.64271,-5.91645 0.18539,-2.78316 -2.65306,-4.4876 -4.49239,-5.58065 1.84664,-5.99115 -4.98791,-12.06738 -10.7028,-9.28761 -1.99665,-7.40539 -12.71287,-9.42156 -17.62136,-3.71085 -2.14509,-2.35292 -5.37771,-3.55499 -8.53019,-3.49527 z m 0.24327,1.73292 a 8.8901435,7.610973 0 0 1 8.27806,4.83847 8.4362594,7.610973 0 0 1 7.77348,-4.65515 8.4362594,7.610973 0 0 1 8.43657,7.61107 8.4362594,7.610973 0 0 1 -0.0461,0.7826 6.154923,6.154923 0 0 1 4.5282,-1.9971 6.154923,6.154923 0 0 1 6.15474,6.15511 6.154923,6.154923 0 0 1 -0.94464,3.26264 8.2946626,4.728429 0 0 1 5.22428,4.38849 8.2946626,4.728429 0 0 1 -5.42853,4.43389 c -6.8e-4,-6.9e-4 -0.002,-0.001 -0.003,-0.003 a 8.2946626,4.728429 0 0 1 -1.58859,0.23793 8.2946626,4.728429 0 0 1 -0.094,0.006 8.2946626,4.728429 0 0 1 -0.7131,0.0436 8.2946626,4.728429 0 0 1 -0.4677,0.009 8.2946626,4.728429 0 0 1 -4.44241,-0.74182 8.3270829,6.5115457 0 0 1 0.28759,1.68682 8.3270829,6.5115457 0 0 1 -8.327,6.51147 8.3270829,6.5115457 0 0 1 -7.65363,-3.9644 8.3270829,6.5115457 0 0 1 -8.23232,5.58561 8.3270829,6.5115457 0 0 1 -8.32702,-6.51146 8.3270829,6.5115457 0 0 1 0.19185,-1.373 8.7161264,6.543966 0 0 1 -6.84301,2.50275 8.7161264,6.543966 0 0 1 -7.81533,-3.66512 c -10e-4,0.001 -0.002,0.003 -0.003,0.004 a 8.7161264,6.543966 0 0 1 -0.89713,-2.88287 8.7161264,6.543966 0 0 1 3.40447,-5.18315 6.9330103,5.9604004 0 0 1 -3.53427,-5.1913 6.9330103,5.9604004 0 0 1 6.93309,-5.96042 6.9330103,5.9604004 0 0 1 5.27606,2.10382 8.8901435,7.610973 0 0 1 -0.0177,-0.42445 8.8901435,7.610973 0 0 1 8.89047,-7.61107 z m -10.12623,34.63385 c 4.53471,-0.0839 7.52031,16.18542 7.42986,23.84843 -0.11546,9.78059 -4.99198,27.2171 -11.74779,26.71393 -6.75582,-0.50318 0.21726,-14.0136 1.13859,-25.44802 0.92133,-11.4344 -4.29536,-24.81214 2.96232,-25.09803 0.0728,-0.01 0.14503,-0.015 0.21702,-0.0163 z m 37.70536,1.01876 c 6.77397,-0.0858 1.00154,13.97927 1.07727,25.45049 0.0757,11.47122 6.43521,24.34534 -0.77019,25.2608 -4.58486,1.02131 -9.10412,-15.31436 -9.68901,-23.07754 -0.73484,-9.75362 2.60794,-27.54798 9.38193,-27.63375 z m -18.91456,1.46448 c 6.3733,0.23754 4.48634,15.81752 4.35871,23.73213 -0.12969,8.04023 2.59362,26.71438 -6.35438,26.84406 -8.94802,0.12968 -4.79832,-12.06051 -4.66863,-26.97385 0.25934,-7.65119 -0.38906,-23.34262 6.35437,-23.60198 0.10538,-0.004 0.20878,-0.004 0.30993,-3.6e-4 z m 27.5146,5.09734 c 2.88436,-0.0154 6.38595,0.19094 7.50895,1.20527 2.01648,1.82133 3.70778,24.5881 1.30101,27.25505 -1.62338,1.7989 -6.13998,2.61909 -8.91279,2.96372 -0.84274,-8.55136 -1.39169,-20.27385 0.10283,-31.42404 z"
           style="opacity:1;fill:#b6922e;fill-opacity:1;stroke:#ffffff;stroke-width:6.61458349;stroke-linecap:square;stroke-linejoin:round;stroke-miterlimit:4;stroke-dasharray:none;stroke-opacity:1;paint-order:normal" />
        <path
           style="opacity:1;fill:#b6922e;fill-opacity:1;stroke:none;stroke-width:5.44616127;stroke-linecap:square;stroke-linejoin:round;stroke-miterlimit:4;stroke-dasharray:none;stroke-opacity:1;paint-order:normal"
           d="m 459.92134,142.55598 c -4.24607,0.001 -8.59793,2.62831 -9.96595,6.75578 -5.67717,-3.0626 -14.40611,2.12906 -12.3031,8.84685 0.36657,1.96295 3.04852,3.15109 0.87267,4.78847 -1.72175,2.67667 -1.17568,5.5795 0.49713,7.83483 -0.38765,0.54031 -0.76361,1.14022 -1.1074,1.80632 0,0 6.61369,29.69694 -3.24208,56.67065 0,0 2.85304,8.04038 6.87315,10.63401 4.02013,2.59362 35.53257,3.50119 44.35089,0.6482 8.81832,-2.85299 12.06056,-9.98545 12.06056,-9.98545 0,0 -0.46309,-2.4223 -0.9943,-6.39339 3.65945,-0.38736 11.19885,-1.50651 13.73213,-4.31367 3.39284,-3.75964 1.00867,-35.85411 -1.83397,-38.42167 -1.59899,-1.44424 -6.62186,-1.72814 -10.71062,-1.69994 -0.20887,0.001 -0.40719,0.005 -0.61061,0.009 0.34709,-1.54971 0.74321,-3.0717 1.19535,-4.55374 0,0 -0.85463,-2.20436 -3.10982,-4.63494 2.92835,-0.85895 5.39327,-2.71083 5.64271,-5.91645 0.18539,-2.78316 -2.65306,-4.4876 -4.49239,-5.58065 1.84664,-5.99115 -4.98791,-12.06738 -10.7028,-9.28761 -1.99665,-7.40539 -12.71287,-9.42156 -17.62136,-3.71085 -2.14509,-2.35292 -5.37771,-3.55499 -8.53019,-3.49527 z m 0.24327,1.73292 a 8.8901435,7.610973 0 0 1 8.27806,4.83847 8.4362594,7.610973 0 0 1 7.77348,-4.65515 8.4362594,7.610973 0 0 1 8.43657,7.61107 8.4362594,7.610973 0 0 1 -0.0461,0.7826 6.154923,6.154923 0 0 1 4.5282,-1.9971 6.154923,6.154923 0 0 1 6.15474,6.15511 6.154923,6.154923 0 0 1 -0.94464,3.26264 8.2946626,4.728429 0 0 1 5.22428,4.38849 8.2946626,4.728429 0 0 1 -5.42853,4.43389 c -6.8e-4,-6.9e-4 -0.002,-0.001 -0.003,-0.003 a 8.2946626,4.728429 0 0 1 -1.58859,0.23793 8.2946626,4.728429 0 0 1 -0.094,0.006 8.2946626,4.728429 0 0 1 -0.7131,0.0436 8.2946626,4.728429 0 0 1 -0.4677,0.009 8.2946626,4.728429 0 0 1 -4.44241,-0.74182 8.3270829,6.5115457 0 0 1 0.28759,1.68682 8.3270829,6.5115457 0 0 1 -8.327,6.51147 8.3270829,6.5115457 0 0 1 -7.65363,-3.9644 8.3270829,6.5115457 0 0 1 -8.23232,5.58561 8.3270829,6.5115457 0 0 1 -8.32702,-6.51146 8.3270829,6.5115457 0 0 1 0.19185,-1.373 8.7161264,6.543966 0 0 1 -6.84301,2.50275 8.7161264,6.543966 0 0 1 -7.81533,-3.66512 c -10e-4,0.001 -0.002,0.003 -0.003,0.004 a 8.7161264,6.543966 0 0 1 -0.89713,-2.88287 8.7161264,6.543966 0 0 1 3.40447,-5.18315 6.9330103,5.9604004 0 0 1 -3.53427,-5.1913 6.9330103,5.9604004 0 0 1 6.93309,-5.96042 6.9330103,5.9604004 0 0 1 5.27606,2.10382 8.8901435,7.610973 0 0 1 -0.0177,-0.42445 8.8901435,7.610973 0 0 1 8.89047,-7.61107 z m -10.12623,34.63385 c 4.53471,-0.0839 7.52031,16.18542 7.42986,23.84843 -0.11546,9.78059 -4.99198,27.2171 -11.74779,26.71393 -6.75582,-0.50318 0.21726,-14.0136 1.13859,-25.44802 0.92133,-11.4344 -4.29536,-24.81214 2.96232,-25.09803 0.0728,-0.01 0.14503,-0.015 0.21702,-0.0163 z m 37.70536,1.01876 c 6.77397,-0.0858 1.00154,13.97927 1.07727,25.45049 0.0757,11.47122 6.43521,24.34534 -0.77019,25.2608 -4.58486,1.02131 -9.10412,-15.31436 -9.68901,-23.07754 -0.73484,-9.75362 2.60794,-27.54798 9.38193,-27.63375 z m -18.91456,1.46448 c 6.3733,0.23754 4.48634,15.81752 4.35871,23.73213 -0.12969,8.04023 2.59362,26.71438 -6.35438,26.84406 -8.94802,0.12968 -4.79832,-12.06051 -4.66863,-26.97385 0.25934,-7.65119 -0.38906,-23.34262 6.35437,-23.60198 0.10538,-0.004 0.20878,-0.004 0.30993,-3.6e-4 z m 27.5146,5.09734 c 2.88436,-0.0154 6.38595,0.19094 7.50895,1.20527 2.01648,1.82133 3.70778,24.5881 1.30101,27.25505 -1.62338,1.7989 -6.13998,2.61909 -8.91279,2.96372 -0.84274,-8.55136 -1.39169,-20.27385 0.10283,-31.42404 z"
           id="path1067"
           inkscape:connector-curvature="0" />
        <path
           style="fill:#ffffff;fill-opacity:1;stroke:none;stroke-width:0.26458332px;stroke-linecap:butt;stroke-linejoin:miter;stroke-opacity:1"
           d="m 444.49999,152.04611 7.37053,1.32292 3.59079,-5.66964 6.2366,-1.7009 5.00819,3.2128 2.64584,1.51191 3.59076,-4.25224 6.04761,-0.37797 3.59079,3.1183 1.22841,4.25223 3.96875,-0.18899 3.87427,-0.56696 2.17336,3.30729 -0.56697,5.48066 3.21281,1.5119 1.88986,1.98438 -4.3467,2.55133 -5.95313,0.0945 -2.83482,-0.66146 0.56695,2.64584 -2.26785,3.96875 -4.7247,2.26785 -7.9375,-4.34673 -5.57516,4.63021 -7.74851,-0.47247 -2.17337,-6.99256 -7.9375,2.92932 -6.42559,-2.64583 v -5.29167 l 3.68528,-3.2128 -4.25223,-3.30729 z"
           id="path1085"
           inkscape:connector-curvature="0" />
      </g>
      <path
         inkscape:connector-curvature="0"
         id="path879"
         d="m 353.88951,137.4503 c -6.56153,8.94682 -10.86615,19.24303 -10.15648,29.53308 0.26725,3.87541 2.94,10.42367 3.34087,13.76454 0.40089,3.34087 0,7.75095 -5.47873,11.76001 -4.67873,3.42345 -10.60728,3.11779 -16.83824,10.69082 -8.68627,10.55714 4.9444,23.25232 4.9444,23.25232 0,0 -3.74142,9.0871 -17.7731,8.95346 -14.03164,-0.13363 -24.85636,-12.56151 -24.85636,-12.56151 0.40093,7.61719 5.07844,20.04532 24.18821,27.39523 10.54309,4.05503 21.27779,1.51908 28.78998,-1.56838 -0.3896,1.24863 -0.57383,2.67632 -0.19225,4.10724 1.06907,4.00904 9.75548,6.14714 10.42366,8.95346 0.66815,2.80633 -4.14269,10.1565 0,16.17008 4.14266,6.01355 27.66224,9.88878 44.23296,3.87521 16.57072,-6.01356 33.4088,-25.3907 33.4088,-25.3907 0,0 -23.51987,18.44159 -38.08605,22.98516 -14.56616,4.54359 -33.94316,0.66827 -36.61585,-4.27622 -2.67269,-4.94448 1.2024,-10.42326 0.13332,-14.16503 -1.06907,-3.74177 -9.22033,-6.81561 -10.02212,-9.48831 -0.45614,-1.52042 0.25514,-3.38516 0.95343,-4.71186 3.63979,-1.84772 5.84668,-3.4401 5.84668,-3.4401 0,0 10.30507,12.42818 59.48267,11.09183 49.17757,-1.33634 63.07521,-41.02592 63.07521,-41.02592 -22.85156,18.0407 -61.8726,16.03611 -69.08879,14.29887 -7.2163,-1.73726 -9.62173,-10.55709 -13.36352,-13.63069 -3.74179,-3.0736 -8.09255,-1.70842 -8.09255,-1.70842 -0.85045,-4.7247 -5.24462,-5.90558 -5.24462,-5.90558 5.29164,6.23661 -0.18886,12.0948 -5.10255,12.66176 -4.91371,0.56697 -5.66933,-3.02367 -8.88214,-2.4567 -3.21278,0.56696 -5.85864,6.99255 -14.55208,9.26041 -8.69347,2.26785 -21.3559,-2.26793 -22.11184,-13.98519 -0.75594,-11.71726 12.05508,-12.17735 18.33171,-17.00878 2.22197,-1.71038 5.08132,-6.35918 5.66994,-10.48877 0.94517,-6.63074 -4.53564,-12.9457 -3.21273,-23.15104 1.32292,-10.20536 10.77196,-23.43474 10.77196,-23.43474 z m 23.10609,12.92325 c -6.70912,2.45685 -20.03237,12.00081 -20.03237,12.00081 l 4.06281,5.95313 c 27.49775,-9.92188 46.58577,-3.49643 46.58577,-3.49643 0.66145,-2.74032 4.1579,-6.14174 4.1579,-6.14174 -3.21281,-2.83482 -16.72561,-2.55127 -16.72561,-2.55127 1.51191,-2.55134 5.48081,-4.72477 5.48081,-4.72477 -8.12646,-1.13393 -24.94679,4.06331 -24.94679,4.06331 -0.0945,-1.60639 1.41748,-5.10304 1.41748,-5.10304 z m 10.07483,16.03261 c -0.22786,-0.004 -0.4581,-0.003 -0.69091,0.001 -1.54146,0.0288 -3.19182,0.23467 -4.95421,0.64544 -18.7987,4.38166 -10.17718,26.28987 -10.17718,26.28987 0,0 13.85184,-6.2189 31.66113,-3.39204 3.02617,-7.43937 -1.48415,-23.31535 -15.83883,-23.5443 z m -0.25477,2.11098 c 11.58801,0.18481 15.22921,13.00107 12.78631,19.00659 -14.3768,-2.28201 -25.55865,2.73834 -25.55865,2.73834 0,0 -6.95997,-17.68585 8.21553,-21.223 1.42272,-0.33161 2.75487,-0.49767 3.99923,-0.5209 0.18793,-0.004 0.37364,-0.004 0.55758,-0.001 z m -7.18251,7.48068 c -2.76138,1.7e-4 -4.9998,2.23882 -4.9997,5.00021 1.6e-4,2.76118 2.23851,4.99953 4.9997,4.9997 2.76138,1.1e-4 5.00007,-2.23832 5.00023,-4.9997 8e-5,-2.76159 -2.23864,-5.00032 -5.00023,-5.00021 z"
         style="opacity:1;fill:#fed141;fill-opacity:1;stroke:#ffffff;stroke-width:6.61458302;stroke-linecap:butt;stroke-linejoin:round;stroke-miterlimit:4;stroke-dasharray:none;stroke-opacity:1" />
      <path
         inkscape:connector-curvature="0"
         style="opacity:1;fill:#fed141;fill-opacity:1;stroke:none;stroke-width:0.27984586px;stroke-linecap:butt;stroke-linejoin:miter;stroke-opacity:1"
         d="m 353.88951,137.4503 c -6.56153,8.94682 -10.86615,19.24303 -10.15648,29.53308 0.26725,3.87541 2.94,10.42367 3.34087,13.76454 0.40089,3.34087 0,7.75095 -5.47873,11.76001 -4.67873,3.42345 -10.60728,3.11779 -16.83824,10.69082 -8.68627,10.55714 4.9444,23.25232 4.9444,23.25232 0,0 -3.74142,9.0871 -17.7731,8.95346 -14.03164,-0.13363 -24.85636,-12.56151 -24.85636,-12.56151 0.40093,7.61719 5.07844,20.04532 24.18821,27.39523 10.54309,4.05503 21.27779,1.51908 28.78998,-1.56838 -0.3896,1.24863 -0.57383,2.67632 -0.19225,4.10724 1.06907,4.00904 9.75548,6.14714 10.42366,8.95346 0.66815,2.80633 -4.14269,10.1565 0,16.17008 4.14266,6.01355 27.66224,9.88878 44.23296,3.87521 16.57072,-6.01356 33.4088,-25.3907 33.4088,-25.3907 0,0 -23.51987,18.44159 -38.08605,22.98516 -14.56616,4.54359 -33.94316,0.66827 -36.61585,-4.27622 -2.67269,-4.94448 1.2024,-10.42326 0.13332,-14.16503 -1.06907,-3.74177 -9.22033,-6.81561 -10.02212,-9.48831 -0.45614,-1.52042 0.25514,-3.38516 0.95343,-4.71186 3.63979,-1.84772 5.84668,-3.4401 5.84668,-3.4401 0,0 10.30507,12.42818 59.48267,11.09183 49.17757,-1.33634 63.07521,-41.02592 63.07521,-41.02592 -22.85156,18.0407 -61.8726,16.03611 -69.08879,14.29887 -7.2163,-1.73726 -9.62173,-10.55709 -13.36352,-13.63069 -3.74179,-3.0736 -8.09255,-1.70842 -8.09255,-1.70842 -0.85045,-4.7247 -5.24462,-5.90558 -5.24462,-5.90558 5.29164,6.23661 -0.18886,12.0948 -5.10255,12.66176 -4.91371,0.56697 -5.66933,-3.02367 -8.88214,-2.4567 -3.21278,0.56696 -5.85864,6.99255 -14.55208,9.26041 -8.69347,2.26785 -21.3559,-2.26793 -22.11184,-13.98519 -0.75594,-11.71726 12.05508,-12.17735 18.33171,-17.00878 2.22197,-1.71038 5.08132,-6.35918 5.66994,-10.48877 0.94517,-6.63074 -4.53564,-12.9457 -3.21273,-23.15104 1.32292,-10.20536 10.77196,-23.43474 10.77196,-23.43474 z m 23.10609,12.92325 c -6.70912,2.45685 -20.03237,12.00081 -20.03237,12.00081 l 4.06281,5.95313 c 27.49775,-9.92188 46.58577,-3.49643 46.58577,-3.49643 0.66145,-2.74032 4.1579,-6.14174 4.1579,-6.14174 -3.21281,-2.83482 -16.72561,-2.55127 -16.72561,-2.55127 1.51191,-2.55134 5.48081,-4.72477 5.48081,-4.72477 -8.12646,-1.13393 -24.94679,4.06331 -24.94679,4.06331 -0.0945,-1.60639 1.41748,-5.10304 1.41748,-5.10304 z m 10.07483,16.03261 c -0.22786,-0.004 -0.4581,-0.003 -0.69091,0.001 -1.54146,0.0288 -3.19182,0.23467 -4.95421,0.64544 -18.7987,4.38166 -10.17718,26.28987 -10.17718,26.28987 0,0 13.85184,-6.2189 31.66113,-3.39204 3.02617,-7.43937 -1.48415,-23.31535 -15.83883,-23.5443 z m -0.25477,2.11098 c 11.58801,0.18481 15.22921,13.00107 12.78631,19.00659 -14.3768,-2.28201 -25.55865,2.73834 -25.55865,2.73834 0,0 -6.95997,-17.68585 8.21553,-21.223 1.42272,-0.33161 2.75487,-0.49767 3.99923,-0.5209 0.18793,-0.004 0.37364,-0.004 0.55758,-0.001 z m -7.18251,7.48068 c -2.76138,1.7e-4 -4.9998,2.23882 -4.9997,5.00021 1.6e-4,2.76118 2.23851,4.99953 4.9997,4.9997 2.76138,1.1e-4 5.00007,-2.23832 5.00023,-4.9997 8e-5,-2.76159 -2.23864,-5.00032 -5.00023,-5.00021 z"
         id="path1023" />
      <path
         inkscape:connector-curvature="0"
         style="opacity:1;fill:#0a2351;fill-opacity:1;stroke:#ffffff;stroke-width:6.61458349;stroke-linecap:butt;stroke-linejoin:miter;stroke-miterlimit:4;stroke-dasharray:none;stroke-opacity:1"
         d="m 409.65525,66.89152 a 7.0557556,5.2193935 0 0 0 -7.05591,5.21932 7.0557556,5.2193935 0 0 0 0.98806,2.651517 c -16.96717,1.04023 -31.02964,3.501782 -34.62374,6.158281 -7.0943,8.326969 -8.81372,22.278482 -9.67949,33.516302 l 23.20321,9.11572 c 0,0 -10.62516,-3.10657 -23.37892,-6.73241 -12.75377,-3.62583 -47.50507,-14.73267 -53.17197,-14.92156 -5.66962,-0.18899 -16.44216,1.70052 -20.78889,4.81882 -4.34673,3.11831 -2.83469,15.49703 9.44954,25.79687 12.28423,10.29986 25.51319,4.72478 25.51319,4.72478 -3.21281,-2.92932 -21.54457,-21.92269 -23.05648,-23.24561 -1.51191,-1.32291 -2.83453,-2.36213 -5.57485,-1.70067 -2.74034,0.66146 -2.64583,4.9134 -2.64583,4.9134 -3.4018,-10.20536 5.81533,-9.22229 8.69299,-6.89777 6.39098,5.16246 26.08035,29.19837 31.75,30.71026 3.43058,0.91483 59.09154,-0.65986 102.58237,-2.04742 l 63.43851,-3.37343 c -4.05673,-24.5813 -12.33226,-47.044948 -23.52363,-53.16523 -10.96132,-5.994466 -31.31304,-8.186175 -51.10334,-8.192781 -1.53977,-5.14e-4 -3.07557,0.01255 -4.60386,0.03772 a 7.0557556,5.2193935 0 0 0 0.64492,-2.166792 7.0557556,5.2193935 0 0 0 -7.05588,-5.21932 z m 7.12256,10.438639 c 4.15774,2.645834 13.229,15.874705 14.36293,18.142562 1.07286,2.145712 0.79817,29.380769 0.76483,32.393889 -0.0485,-7.25774 -2.13548,-27.8514 -3.03239,-31.259591 -0.94493,-3.590775 -12.09537,-19.27686 -12.09537,-19.27686 z"
         id="path899" />
      <path
         inkscape:connector-curvature="0"
         id="path922"
         d="m 409.65525,66.89152 a 7.0557556,5.2193935 0 0 0 -7.05591,5.21932 7.0557556,5.2193935 0 0 0 0.98806,2.651517 c -16.96717,1.04023 -31.02964,3.501782 -34.62374,6.158281 -7.0943,8.326969 -8.81372,22.278482 -9.67949,33.516302 l 23.20321,9.11572 c 0,0 -10.62516,-3.10657 -23.37892,-6.73241 -12.75377,-3.62583 -47.50507,-14.73267 -53.17197,-14.92156 -5.66962,-0.18899 -16.44216,1.70052 -20.78889,4.81882 -4.34673,3.11831 -2.83469,15.49703 9.44954,25.79687 12.28423,10.29986 25.51319,4.72478 25.51319,4.72478 -3.21281,-2.92932 -21.54457,-21.92269 -23.05648,-23.24561 -1.51191,-1.32291 -2.83453,-2.36213 -5.57485,-1.70067 -2.74034,0.66146 -2.64583,4.9134 -2.64583,4.9134 -3.4018,-10.20536 5.81533,-9.22229 8.69299,-6.89777 6.39098,5.16246 26.08035,29.19837 31.75,30.71026 3.43058,0.91483 59.09154,-0.65986 102.58237,-2.04742 l 63.43851,-3.37343 c -4.05673,-24.5813 -12.33226,-47.044948 -23.52363,-53.16523 -10.96132,-5.994466 -31.31304,-8.186175 -51.10334,-8.192781 -1.53977,-5.14e-4 -3.07557,0.01255 -4.60386,0.03772 a 7.0557556,5.2193935 0 0 0 0.64492,-2.166792 7.0557556,5.2193935 0 0 0 -7.05588,-5.21932 z m 7.12256,10.438639 c 4.15774,2.645834 13.229,15.874705 14.36293,18.142562 1.07286,2.145712 0.79817,29.380769 0.76483,32.393889 -0.0485,-7.25774 -2.13548,-27.8514 -3.03239,-31.259591 -0.94493,-3.590775 -12.09537,-19.27686 -12.09537,-19.27686 z"
         style="opacity:1;fill:#0a2351;fill-opacity:1;stroke:none;stroke-width:0.26458332px;stroke-linecap:butt;stroke-linejoin:miter;stroke-opacity:1" />
    </g>
  </g>
</svg>
