<?xml version="1.0" encoding="UTF-8" standalone="no"?>
<!-- Created with Inkscape (http://www.inkscape.org/) -->

<svg
   xmlns:dc="http://purl.org/dc/elements/1.1/"
   xmlns:cc="http://creativecommons.org/ns#"
   xmlns:rdf="http://www.w3.org/1999/02/22-rdf-syntax-ns#"
   xmlns:svg="http://www.w3.org/2000/svg"
   xmlns="http://www.w3.org/2000/svg"
   xmlns:sodipodi="http://sodipodi.sourceforge.net/DTD/sodipodi-0.dtd"
   xmlns:inkscape="http://www.inkscape.org/namespaces/inkscape"
   width="1000"
   height="1000"
   viewBox="0 0 264.58333 264.58334"
   version="1.1"
   id="svg8"
   inkscape:version="0.92.3 (2405546, 2018-03-11)"
   sodipodi:docname="pit.svg">
  <defs
     id="defs2" />
  <sodipodi:namedview
     id="base"
     pagecolor="#ffffff"
     bordercolor="#666666"
     borderopacity="1.0"
     inkscape:pageopacity="0.0"
     inkscape:pageshadow="2"
     inkscape:zoom="0.7"
     inkscape:cx="837.81282"
     inkscape:cy="487.60563"
     inkscape:document-units="mm"
     inkscape:current-layer="layer1"
     showgrid="false"
     units="px"
     inkscape:window-width="1920"
     inkscape:window-height="1029"
     inkscape:window-x="1920"
     inkscape:window-y="0"
     inkscape:window-maximized="1"
     inkscape:snap-global="false" />
  <metadata
     id="metadata5">
    <rdf:RDF>
      <cc:Work
         rdf:about="">
        <dc:format>image/svg+xml</dc:format>
        <dc:type
           rdf:resource="http://purl.org/dc/dcmitype/StillImage" />
        <dc:title></dc:title>
      </cc:Work>
    </rdf:RDF>
  </metadata>
  <g
     inkscape:label="Layer 1"
     inkscape:groupmode="layer"
     id="layer1"
     transform="translate(0,-32.41665)">
    <rect
       style="opacity:1;fill:#ffffff;fill-opacity:1;stroke:none;stroke-width:5.29166651;stroke-linecap:square;stroke-linejoin:round;stroke-miterlimit:4;stroke-dasharray:none;stroke-opacity:1;paint-order:normal"
       id="rect1063"
       width="277.05655"
       height="279.70236"
       x="-4.9136906"
       y="27.124983" />
    <g
       id="g1061"
       transform="matrix(1.0351018,0,0,1.0351018,-448.73895,-12.182722)">
      <path
         id="path896"
         transform="matrix(0.26458333,0,0,0.26458333,0,32.41665)"
         d="m 1849.084,306.5293 c 0,0 -55.5586,44.95319 -53.0332,60.10547 2.5253,15.15227 22.2238,17.17192 21.7187,34.84961 -0.5051,17.6776 -53.0332,45.45703 -53.0332,45.45703 10.1015,70.20559 -87.3789,153.54296 -87.3789,153.54297 l 46.9727,50.50781 c 25.0253,-15.54201 44.8149,-19.12138 58.0371,-18.99805 -25.3489,19.78348 -29.156,50.92828 -24.7012,56.37305 3.3594,4.1059 11.4021,8.2013 17.209,8.84179 3.3883,6.66345 10.8081,25.22128 6.1348,53.00977 -36.7413,3.3644 -46.103,10.93492 -48.0938,19.4668 -3.5355,15.15227 21.7197,25.25399 37.377,42.93164 8.4466,9.53644 13.0511,21.69057 15.5195,30.88867 -4.3529,5.91197 -7.798,11.49082 -8.4492,15.07226 -2.0203,11.11166 24.7488,80.30706 42.9316,94.44922 0,0 37.8803,-50.50793 77.7813,-75.76172 39.901,-25.25373 64.1457,-25.75785 71.2168,-30.80859 7.071,-5.05077 19.6964,-81.31803 16.666,-105.05664 -3.0305,-23.73857 -32.8299,-89.39731 -76.7715,-105.05469 -2.1541,-0.76754 -4.2178,-1.47223 -6.2344,-2.14453 5.8091,-28.12766 7.2461,-58.9707 7.2461,-58.9707 l -77.2773,11.11133 56.5683,5.05078 c 0,0 -2.2989,20.87469 -5.6191,37.32617 -25.0716,-5.77345 -36.1993,-1.45951 -46.4043,5.60547 0,0 -32.83,-42.9311 -102.0254,-3.53516 l -28.2832,-30.30468 c 0,0 76.7715,-59.09443 79.2969,-141.42188 10.6279,-4.15878 55.0689,-28.18585 64.1054,-46.55664 7.3441,-0.6915 17.6498,-1.72144 31.2676,-3.26563 -1.1132,25.2007 -2.361,125.58176 48.8867,119.33204 51.9046,-6.32983 77.9864,-105.15682 80.2735,-137.52735 43.9075,-7.29102 94.2113,-16.73107 148.4805,-28.82422 l -47.4825,153.60352 -41.9922,8.95508 30.4727,26.83203 -41.4629,8.84179 30.4727,26.83204 -41.4629,8.83984 30.7734,27.09766 -35.2148,113.91992 L 2125,638.57227 c 49.2858,-148.57142 76.1301,-226.14379 141.4277,-214.28711 70.9822,12.88887 -11.4277,125 -11.4277,125 0,0 101.4283,79.2857 127.1426,35 15.5302,-26.74652 28.9397,-75.53822 37.1543,-110.07032 l -40.8926,-28.78906 10.1016,-55.05273 25.1347,3.39648 -0.068,-0.19726 -186.43,-60.71485 L 2200,341.50781 V 340 c -70.3977,16.40089 -135.9311,28.68551 -191.3184,37.73633 -6.9717,-10.89413 -26.2933,-14.6416 -52.9668,-12.73633 -20.0422,1.43158 -46.0812,18.13471 -61.1992,29.08594 -19.8592,2.41829 -34.8019,4.00927 -43.9297,4.91211 -6.914,-16.11272 -33.9781,-32.14468 -34.8359,-39.43555 -1.0102,-8.58629 33.334,-53.0332 33.334,-53.0332 z m -36.3028,355.9414 c 6.5785,3.80893 20.6864,11.83217 36.5196,19.85938 l 3.4472,32.76367 c -11.7688,0.48649 -23.4968,1.52608 -33.7363,2.66992 z m -6.1718,0.4375 5.8554,55.63282 c -9.2681,1.13727 -16.8659,2.26564 -21.2558,2.96484 -0.1715,-9.73752 -1.2397,-21.01886 -4.0293,-33.11524 6.6186,-8.16527 15.487,-20.1214 19.4297,-25.48242 z m 49.414,22.77344 c 10.7778,5.27933 21.7485,10.17671 30.9414,13.29297 0.8804,0.29843 1.7488,0.58268 2.6172,0.86719 l 1.7403,16.52734 c -9.5452,-1.37604 -20.6467,-1.74443 -32.0098,-1.49023 z m 40.2735,16.25391 c 6.0036,1.8024 11.6893,3.319 16.8886,4.59765 8.5783,19.50053 12.1661,44.96875 12.1661,44.96875 -8.2148,-0.46064 -16.0727,-0.86489 -23.6055,-1.21875 l -3.2715,-29.0332 c 8.0592,0.43402 12.7344,0.95898 12.7344,0.95898 -3.5243,-2.00522 -8.007,-3.52502 -13.1524,-4.65234 z m 32.7676,8.31836 c 8.1757,1.8913 14.0765,3.41381 16.4902,5.38867 5.5558,4.54567 16.1617,43.94065 12.1211,56.0625 -4.0406,12.12181 -11.8106,29.987 -52.0235,59.09375 -43.9331,31.79958 -56.0634,37.37536 -66.6699,33.83984 -22.7284,-7.57617 -30.8086,-47.47656 -30.8086,-47.47656 0,0 -7.7043,8.1206 -15.4218,17.48828 -2.1878,-7.65146 -6.457,-17.76635 -14.8829,-28.59961 -17.6776,-22.72841 -28.2843,-25.75861 -25.2539,-33.83984 3.0305,-8.0812 46.4666,-20.2027 184.8575,-8.58594 0,0 3.5896,-12.69206 -8.4082,-53.37109 z m -54.5997,10.43945 c 6.5789,-0.0367 12.3347,0.083 17.3399,0.26172 l 3.0547,29.01953 c -11.336,-0.49762 -21.9049,-0.87458 -31.7207,-1.13477 l -3.1348,-27.83007 c 5.1211,-0.19187 9.9647,-0.29129 14.4609,-0.31641 z m -21.0625,0.61328 2.8809,27.36914 c -12.4738,-0.2718 -23.7139,-0.35095 -33.8164,-0.2539 l -2.7168,-24.11133 c 12.0137,-1.52916 23.3327,-2.46875 33.6523,-3.00391 z m -40.2363,3.89258 2.4551,23.31836 c -9.9214,0.1829 -18.7119,0.54095 -26.4297,1.06445 0.7966,-4.63211 1.7283,-11.76448 1.9785,-20.64258 7.5041,-1.48419 14.8561,-2.72036 21.9961,-3.74023 z"
         style="opacity:1;fill:#27251f;fill-opacity:1;stroke:none;stroke-width:0.99999994px;stroke-linecap:butt;stroke-linejoin:miter;stroke-opacity:1"
         inkscape:connector-curvature="0" />
      <path
         style="opacity:1;fill:#e4002b;fill-opacity:1;stroke:#fcfcfc;stroke-width:20;stroke-linecap:butt;stroke-linejoin:miter;stroke-miterlimit:4;stroke-dasharray:none;stroke-opacity:1"
         d="m 2128.0312,100.44531 c -37.5181,0.20858 -76.1912,4.35344 -114.2929,12.13477 -143.4417,29.29442 -161.6231,178.79883 -161.6231,178.79883 291.8388,41.53371 466.6376,87.57637 540.2618,109.58789 a 53.033003,41.921327 0 0 0 -16.4981,30.3164 53.033003,41.921327 0 0 0 49.3438,41.81836 c 1.8176,15.72036 17.5673,124.64896 104.4199,114.04102 0,0 8.2151,-62.14232 -41.4278,-124.28516 0,0 38.9286,18.21455 72.5,5.35742 0,0 -16.2655,-60.56319 -84.9062,-59.73046 -0.8014,0.01 -1.6178,0.0374 -2.4336,0.0645 a 53.033003,41.921327 0 0 0 -39.3691,-18.95117 c -0.4895,-41.63564 -7.9997,-128.26841 -57.6211,-194.1836 -49.7028,-66.02294 -144.6238,-95.545372 -248.3536,-94.96875 z m 40.1836,31.69727 a 38.214288,36.785712 0 0 1 38.2149,36.78515 38.214288,36.785712 0 0 1 -38.2149,36.78711 38.214288,36.785712 0 0 1 -38.2148,-36.78711 38.214288,36.785712 0 0 1 38.2148,-36.78515 z m -131.0722,3.57226 a 42.142845,33.214287 0 0 1 42.1426,33.21289 42.142845,33.214287 0 0 1 -42.1426,33.21485 42.142845,33.214287 0 0 1 -42.1426,-33.21485 42.142845,33.214287 0 0 1 42.1426,-33.21289 z m 262.5,32.14258 a 36.071431,36.785712 0 0 1 36.0722,36.78516 36.071431,36.785712 0 0 1 -36.0722,36.78515 36.071431,36.785712 0 0 1 -36.0703,-36.78515 36.071431,36.785712 0 0 1 36.0703,-36.78516 z M 1945,202.14258 a 44.999989,35.000001 0 0 1 45,35 44.999989,35.000001 0 0 1 -45,35 44.999989,35.000001 0 0 1 -45,-35 44.999989,35.000001 0 0 1 45,-35 z m 271.7852,25.71484 a 36.071428,35.714286 0 0 1 36.0722,35.71485 36.071428,35.714286 0 0 1 -36.0722,35.71289 36.071428,35.714286 0 0 1 -36.0704,-35.71289 36.071428,35.714286 0 0 1 36.0704,-35.71485 z m -128.9278,19.28516 a 42.857134,34.642855 0 0 1 42.8574,34.64258 42.857134,34.642855 0 0 1 -42.8574,34.64257 42.857134,34.642855 0 0 1 -42.8574,-34.64257 42.857134,34.642855 0 0 1 42.8574,-34.64258 z m 291.4278,17.14258 a 29.285714,29.285714 0 0 1 29.2871,29.28711 29.285714,29.285714 0 0 1 -29.2871,29.28515 A 29.285714,29.285714 0 0 1 2350,293.57227 29.285714,29.285714 0 0 1 2379.2852,264.28516 Z M 2302.8574,300 a 35.000001,28.214284 0 0 1 35,28.21484 35.000001,28.214284 0 0 1 -35,28.21289 35.000001,28.214284 0 0 1 -35,-28.21289 35.000001,28.214284 0 0 1 35,-28.21484 z m 111.7852,45 a 39.642857,35.000001 0 0 1 7.0273,0.58398 c 1.6607,14.48317 2.4741,29.62908 2.6543,43.96094 a 53.033003,41.921327 0 0 0 -20.4844,4.81446 c -9.3192,-2.69255 -18.6308,-5.38975 -28.1894,-8.1211 A 39.642857,35.000001 0 0 1 2375,380 a 39.642857,35.000001 0 0 1 39.6426,-35 z m 14.4179,51.92773 c 17.6369,0.0891 37.2284,8.23257 43.8067,25.63868 0.3495,1.68148 0.5702,3.3118 0.6973,4.90234 a 31.785714,25.714285 0 0 1 -18.2071,4.67383 31.785714,25.714285 0 0 1 -31.7851,-25.71485 31.785714,25.714285 0 0 1 2.2402,-9.41992 c 1.0735,-0.0559 2.156,-0.0856 3.248,-0.0801 z m 67.379,20.89649 c 13.3355,2.90326 25.7665,9.47323 35.7734,18.70703 a 20.892857,19.107144 0 0 1 -19.5352,12.39648 20.892857,19.107144 0 0 1 -20.8925,-19.10546 20.892857,19.107144 0 0 1 4.6543,-11.99805 z m -95.3672,5.0332 a 29.642856,28.214284 0 0 1 29.6425,28.21485 29.642856,28.214284 0 0 1 -4.3242,14.60351 c -12.8575,-0.36185 -25.4804,-4.77962 -33.6836,-13.69922 -7.89,-7.38406 -10.1885,-15.84317 -8.7793,-23.8789 a 29.642856,28.214284 0 0 1 17.1446,-5.24024 z m 79.6093,42.26172 c 10.5644,13.52442 20.001,28.54525 27.1661,44.58203 a 25.535716,26.428571 0 0 1 -14.8125,4.94141 25.535716,26.428571 0 0 1 -25.5352,-26.42774 25.535716,26.428571 0 0 1 13.1816,-23.0957 z m -13.539,65.5957 a 28.928572,31.785714 0 0 1 28.9297,31.78516 28.928572,31.785714 0 0 1 -2.7227,13.37109 c -18.3175,-7.17126 -31.9178,-22.34247 -41.5957,-40.26953 a 28.928572,31.785714 0 0 1 15.3887,-4.88672 z"
         transform="matrix(0.26458333,0,0,0.26458333,0,32.41665)"
         id="path1045"
         inkscape:connector-curvature="0" />
      <path
         id="path956"
         transform="matrix(0.26458333,0,0,0.26458333,0,32.41665)"
         d="m 2128.0312,100.44531 c -37.5181,0.20858 -76.1912,4.35344 -114.2929,12.13477 -143.4417,29.29442 -161.6231,178.79883 -161.6231,178.79883 291.8388,41.53371 466.6376,87.57637 540.2618,109.58789 a 53.033003,41.921327 0 0 0 -16.4981,30.3164 53.033003,41.921327 0 0 0 49.3438,41.81836 c 1.8176,15.72036 17.5673,124.64896 104.4199,114.04102 0,0 8.2151,-62.14232 -41.4278,-124.28516 0,0 38.9286,18.21455 72.5,5.35742 0,0 -16.2655,-60.56319 -84.9062,-59.73046 -0.8014,0.01 -1.6178,0.0374 -2.4336,0.0645 a 53.033003,41.921327 0 0 0 -39.3691,-18.95117 c -0.4895,-41.63564 -7.9997,-128.26841 -57.6211,-194.1836 -49.7028,-66.02294 -144.6238,-95.545372 -248.3536,-94.96875 z m 40.1836,31.69727 a 38.214288,36.785712 0 0 1 38.2149,36.78515 38.214288,36.785712 0 0 1 -38.2149,36.78711 38.214288,36.785712 0 0 1 -38.2148,-36.78711 38.214288,36.785712 0 0 1 38.2148,-36.78515 z m -131.0722,3.57226 a 42.142845,33.214287 0 0 1 42.1426,33.21289 42.142845,33.214287 0 0 1 -42.1426,33.21485 42.142845,33.214287 0 0 1 -42.1426,-33.21485 42.142845,33.214287 0 0 1 42.1426,-33.21289 z m 262.5,32.14258 a 36.071431,36.785712 0 0 1 36.0722,36.78516 36.071431,36.785712 0 0 1 -36.0722,36.78515 36.071431,36.785712 0 0 1 -36.0703,-36.78515 36.071431,36.785712 0 0 1 36.0703,-36.78516 z M 1945,202.14258 a 44.999989,35.000001 0 0 1 45,35 44.999989,35.000001 0 0 1 -45,35 44.999989,35.000001 0 0 1 -45,-35 44.999989,35.000001 0 0 1 45,-35 z m 271.7852,25.71484 a 36.071428,35.714286 0 0 1 36.0722,35.71485 36.071428,35.714286 0 0 1 -36.0722,35.71289 36.071428,35.714286 0 0 1 -36.0704,-35.71289 36.071428,35.714286 0 0 1 36.0704,-35.71485 z m -128.9278,19.28516 a 42.857134,34.642855 0 0 1 42.8574,34.64258 42.857134,34.642855 0 0 1 -42.8574,34.64257 42.857134,34.642855 0 0 1 -42.8574,-34.64257 42.857134,34.642855 0 0 1 42.8574,-34.64258 z m 291.4278,17.14258 a 29.285714,29.285714 0 0 1 29.2871,29.28711 29.285714,29.285714 0 0 1 -29.2871,29.28515 A 29.285714,29.285714 0 0 1 2350,293.57227 29.285714,29.285714 0 0 1 2379.2852,264.28516 Z M 2302.8574,300 a 35.000001,28.214284 0 0 1 35,28.21484 35.000001,28.214284 0 0 1 -35,28.21289 35.000001,28.214284 0 0 1 -35,-28.21289 35.000001,28.214284 0 0 1 35,-28.21484 z m 111.7852,45 a 39.642857,35.000001 0 0 1 7.0273,0.58398 c 1.6607,14.48317 2.4741,29.62908 2.6543,43.96094 a 53.033003,41.921327 0 0 0 -20.4844,4.81446 c -9.3192,-2.69255 -18.6308,-5.38975 -28.1894,-8.1211 A 39.642857,35.000001 0 0 1 2375,380 a 39.642857,35.000001 0 0 1 39.6426,-35 z m 14.4179,51.92773 c 17.6369,0.0891 37.2284,8.23257 43.8067,25.63868 0.3495,1.68148 0.5702,3.3118 0.6973,4.90234 a 31.785714,25.714285 0 0 1 -18.2071,4.67383 31.785714,25.714285 0 0 1 -31.7851,-25.71485 31.785714,25.714285 0 0 1 2.2402,-9.41992 c 1.0735,-0.0559 2.156,-0.0856 3.248,-0.0801 z m 67.379,20.89649 c 13.3355,2.90326 25.7665,9.47323 35.7734,18.70703 a 20.892857,19.107144 0 0 1 -19.5352,12.39648 20.892857,19.107144 0 0 1 -20.8925,-19.10546 20.892857,19.107144 0 0 1 4.6543,-11.99805 z m -95.3672,5.0332 a 29.642856,28.214284 0 0 1 29.6425,28.21485 29.642856,28.214284 0 0 1 -4.3242,14.60351 c -12.8575,-0.36185 -25.4804,-4.77962 -33.6836,-13.69922 -7.89,-7.38406 -10.1885,-15.84317 -8.7793,-23.8789 a 29.642856,28.214284 0 0 1 17.1446,-5.24024 z m 79.6093,42.26172 c 10.5644,13.52442 20.001,28.54525 27.1661,44.58203 a 25.535716,26.428571 0 0 1 -14.8125,4.94141 25.535716,26.428571 0 0 1 -25.5352,-26.42774 25.535716,26.428571 0 0 1 13.1816,-23.0957 z m -13.539,65.5957 a 28.928572,31.785714 0 0 1 28.9297,31.78516 28.928572,31.785714 0 0 1 -2.7227,13.37109 c -18.3175,-7.17126 -31.9178,-22.34247 -41.5957,-40.26953 a 28.928572,31.785714 0 0 1 15.3887,-4.88672 z"
         style="opacity:1;fill:#e4002b;fill-opacity:1;stroke:none;stroke-width:0.99999994px;stroke-linecap:butt;stroke-linejoin:miter;stroke-opacity:1"
         inkscape:connector-curvature="0" />
      <path
         style="opacity:1;fill:#ffc72c;fill-opacity:1;stroke:#ffffff;stroke-width:20;stroke-linecap:square;stroke-linejoin:round;stroke-miterlimit:4;stroke-dasharray:none;stroke-opacity:1;paint-order:normal"
         d="m 2198.7012,517.77344 22.9961,86.24609 h -61.3828 l 60,283.85352 h 100.25 24 100.248 l 60,-283.85352 h -61.3828 l 22.9961,-86.24609 h -124.5352 -18.6523 z"
         transform="matrix(0.26458333,0,0,0.26458333,0,32.41665)"
         id="path1052"
         inkscape:connector-curvature="0" />
      <path
         id="rect1035"
         transform="matrix(0.26458333,0,0,0.26458333,0,32.41665)"
         d="m 2198.7012,517.77344 22.9961,86.24609 h -61.3828 l 60,283.85352 h 100.25 24 100.248 l 60,-283.85352 h -61.3828 l 22.9961,-86.24609 h -124.5352 -18.6523 z"
         style="opacity:1;fill:#ffc72c;fill-opacity:1;stroke:none;stroke-width:20;stroke-linecap:square;stroke-linejoin:round;stroke-miterlimit:4;stroke-dasharray:none;stroke-opacity:1;paint-order:normal"
         inkscape:connector-curvature="0" />
      <path
         style="opacity:1;fill:#27251f;fill-opacity:1;stroke:#ffffff;stroke-width:5.29166651;stroke-linecap:butt;stroke-linejoin:miter;stroke-miterlimit:4;stroke-dasharray:none;stroke-opacity:1"
         d="m 492.57772,118.46394 c 0,0 2.13818,5.47902 5.21176,5.47902 3.07362,0 17.77344,-10.55714 34.07688,-11.09168 4.27631,6.01357 1.87089,11.09168 1.87089,11.09168 0,0 -7.61718,-2.00452 -13.89802,-1.33634 -6.28083,0.66817 -16.70434,8.01808 -16.70434,8.01808 0,0 -11.75986,2.00452 -13.49712,-2.80633 -1.73725,-4.81085 2.93995,-9.35443 2.93995,-9.35443 z"
         id="path1050"
         inkscape:connector-curvature="0" />
      <path
         inkscape:connector-curvature="0"
         id="path954"
         d="m 492.57772,118.46394 c 0,0 2.13818,5.47902 5.21176,5.47902 3.07362,0 17.77344,-10.55714 34.07688,-11.09168 4.27631,6.01357 1.87089,11.09168 1.87089,11.09168 0,0 -7.61718,-2.00452 -13.89802,-1.33634 -6.28083,0.66817 -16.70434,8.01808 -16.70434,8.01808 0,0 -11.75986,2.00452 -13.49712,-2.80633 -1.73725,-4.81085 2.93995,-9.35443 2.93995,-9.35443 z"
         style="opacity:1;fill:#27251f;fill-opacity:1;stroke:none;stroke-width:0.26458332px;stroke-linecap:butt;stroke-linejoin:miter;stroke-opacity:1" />
    </g>
  </g>
</svg>
