<?xml version="1.0" encoding="UTF-8" standalone="no"?>
<!-- Created with Inkscape (http://www.inkscape.org/) -->

<svg
   xmlns:dc="http://purl.org/dc/elements/1.1/"
   xmlns:cc="http://creativecommons.org/ns#"
   xmlns:rdf="http://www.w3.org/1999/02/22-rdf-syntax-ns#"
   xmlns:svg="http://www.w3.org/2000/svg"
   xmlns="http://www.w3.org/2000/svg"
   xmlns:sodipodi="http://sodipodi.sourceforge.net/DTD/sodipodi-0.dtd"
   xmlns:inkscape="http://www.inkscape.org/namespaces/inkscape"
   width="1000"
   height="1000"
   viewBox="0 0 264.58333 264.58334"
   version="1.1"
   id="svg8"
   inkscape:version="0.92.3 (2405546, 2018-03-11)"
   sodipodi:docname="sea.svg">
  <defs
     id="defs2" />
  <sodipodi:namedview
     id="base"
     pagecolor="#ffffff"
     bordercolor="#666666"
     borderopacity="1.0"
     inkscape:pageopacity="0.0"
     inkscape:pageshadow="2"
     inkscape:zoom="0.74696976"
     inkscape:cx="485.44764"
     inkscape:cy="344.22069"
     inkscape:document-units="mm"
     inkscape:current-layer="layer1"
     showgrid="false"
     units="px"
     inkscape:window-width="1920"
     inkscape:window-height="1029"
     inkscape:window-x="1920"
     inkscape:window-y="0"
     inkscape:window-maximized="1" />
  <metadata
     id="metadata5">
    <rdf:RDF>
      <cc:Work
         rdf:about="">
        <dc:format>image/svg+xml</dc:format>
        <dc:type
           rdf:resource="http://purl.org/dc/dcmitype/StillImage" />
        <dc:title />
      </cc:Work>
    </rdf:RDF>
  </metadata>
  <g
     inkscape:label="Layer 1"
     inkscape:groupmode="layer"
     id="layer1"
     transform="translate(0,-32.41665)">
    <rect
       style="opacity:1;fill:#ffffff;fill-opacity:1;stroke:none;stroke-width:5.29166651;stroke-linecap:square;stroke-linejoin:round;stroke-miterlimit:4;stroke-dasharray:none;stroke-opacity:1;paint-order:normal"
       id="rect961"
       width="282.52283"
       height="280.51913"
       x="-6.5120516"
       y="27.501244" />
    <g
       id="g959"
       transform="matrix(1.1917722,0,0,1.1917722,-519.43175,-18.383207)">
      <path
         id="path916"
         transform="matrix(0.26458333,0,0,0.26458333,0,32.41665)"
         d="m 1746.5547,320.16797 c 0,0 -33.8418,90.91224 -26.2656,121.2168 7.5761,30.30459 25.2554,20.70939 28.791,29.80078 3.5355,9.09135 -39.3961,87.37786 -30.3047,123.23828 9.0914,35.86042 60.6074,23.73828 60.6074,23.73828 0,0 -22.7285,5.55595 -20.2031,32.83008 2.5254,27.27413 67.1758,3.02968 82.3281,2.01953 15.1523,-1.01016 28.7891,13.13281 28.7891,13.13281 0,0 -12.1215,-4.04021 -26.2637,-3.53515 -14.1421,0.50509 -56.063,20.70783 -72.7305,21.21289 0,0 3.0293,17.67702 -2.0215,34.84961 -5.0507,17.17258 -16.1617,22.2235 -17.1718,35.35546 -1.0102,13.13201 15.1516,39.39731 34.8496,50.00391 19.698,10.6066 63.1344,20.70818 74.2461,20.20313 11.1117,-0.5051 190.4148,-71.72192 198.4961,-81.31836 8.0812,-9.59645 30.305,-82.83183 19.1933,-131.82422 -11.1117,-48.99243 -26.7695,-133.33985 -26.7695,-133.33985 l -46.9727,5.05078 c -18.1827,32.32487 -10.1015,68.68946 -10.1015,68.68946 -52.528,15.15231 -76.7715,69.70117 -76.7715,69.70117 -13.132,-15.15228 -52.9419,-19.50334 -71.1081,-18.72672 -18.5798,0.7943 -99.6068,13.67625 -114.7591,-7.53695 -15.1523,-21.21321 29.293,-102.02586 29.293,-121.21875 0,-19.1929 -27.2723,-10.1017 -30.3028,-40.40625 -3.0305,-30.30459 30.3028,-108.08594 30.3028,-108.08594 z m 45.3301,75.94922 c -9.4702,-0.0631 -19.5723,0.56972 -22.0977,3.34765 -5.0508,5.55583 -6.0606,33.83951 6.5664,39.90039 12.6269,6.06093 64.1446,-6.06172 79.2969,-8.08203 15.1523,-2.02031 52.5286,-0.50512 57.0742,-2.52539 4.5457,-2.02034 2.5249,-27.27303 -9.0918,-30.80859 -11.6168,-3.53552 -75.2574,14.64765 -83.8437,11.61719 -8.5864,-3.03047 -9.5957,-12.62696 -9.5957,-12.62696 0,0 -8.8384,-0.75913 -18.3086,-0.82226 z m 85.9882,52.84375 -64.1445,12.12304 c -7.0711,12.62691 0.5055,31.82033 9.0918,36.8711 8.5863,5.05073 23.2333,10.60656 46.4668,-12.62696 23.2335,-23.23351 8.5859,-36.36718 8.5859,-36.36718 z m -45.8535,105.77344 c -12.8465,0.0746 -27.8867,9.38476 -27.8867,9.38476 0,0 30.8098,-4.54598 27.7793,26.26367 0,0 25.2531,-10.60552 14.6465,-28.2832 -3.3146,-5.52426 -8.6997,-7.39915 -14.5391,-7.36523 z"
         style="fill:#005c5c;fill-opacity:1;stroke:none;stroke-width:0.99999994px;stroke-linecap:butt;stroke-linejoin:miter;stroke-opacity:1"
         inkscape:connector-curvature="0"
         sodipodi:nodetypes="cccscsscccccsccsccccsssscccccsccccccccscccccc" />
      <g
         id="g914">
        <path
           inkscape:connector-curvature="0"
           id="path906"
           d="m 583.71665,179.66866 c 0,0 18.44159,-76.43909 5.87992,-93.277066 -12.56168,-16.83798 -40.89223,-28.063299 -62.27379,-26.99422 -21.38156,1.069078 -39.5559,13.096205 -55.3248,37.150463 -15.7689,24.054253 58.79931,33.141423 58.79931,33.141423 0,0 -6.94902,24.85606 0.26725,37.15046 7.21627,12.2944 52.65211,12.82894 52.65211,12.82894 z"
           style="opacity:1;fill:#ffcc00;fill-opacity:1;stroke:#ffffff;stroke-width:5.29166651;stroke-linecap:butt;stroke-linejoin:miter;stroke-miterlimit:4;stroke-dasharray:none;stroke-opacity:1" />
        <path
           style="opacity:1;fill:#ffcc00;fill-opacity:1;stroke:none;stroke-width:0.26458332px;stroke-linecap:butt;stroke-linejoin:miter;stroke-opacity:1"
           d="m 583.71665,179.66866 c 0,0 18.44159,-76.43909 5.87992,-93.277066 -12.56168,-16.83798 -40.89223,-28.063299 -62.27379,-26.99422 -21.38156,1.069078 -39.5559,13.096205 -55.3248,37.150463 -15.7689,24.054253 58.79931,33.141423 58.79931,33.141423 0,0 -6.94902,24.85606 0.26725,37.15046 7.21627,12.2944 52.65211,12.82894 52.65211,12.82894 z"
           id="path896"
           inkscape:connector-curvature="0" />
        <path
           inkscape:connector-curvature="0"
           id="path900"
           d="m 447.14191,115.2567 c 0,0 7.75081,-31.270531 14.43255,-35.279575 6.68176,-4.009043 29.66693,12.02713 43.29768,20.847025 13.63073,8.81989 23.78697,21.9161 37.15047,28.59784 13.36346,6.68174 107.44234,29.93419 105.57144,36.08138 -1.87089,6.1472 -117.86586,-34.47776 -200.45214,-50.24667 z"
           style="opacity:1;fill:#ffcc00;fill-opacity:1;stroke:#ffffff;stroke-width:5.29166651;stroke-linecap:butt;stroke-linejoin:miter;stroke-miterlimit:4;stroke-dasharray:none;stroke-opacity:1" />
        <path
           style="opacity:1;fill:#ffcc00;fill-opacity:1;stroke:none;stroke-width:0.26511249;stroke-linecap:butt;stroke-linejoin:miter;stroke-miterlimit:4;stroke-dasharray:none;stroke-opacity:1"
           d="m 447.14191,115.2567 c 0,0 7.75081,-31.270531 14.43255,-35.279575 6.68176,-4.009043 29.66693,12.02713 43.29768,20.847025 13.63073,8.81989 23.78697,21.9161 37.15047,28.59784 13.36346,6.68174 107.44234,29.93419 105.57144,36.08138 -1.87089,6.1472 -117.86586,-34.47776 -200.45214,-50.24667 z"
           id="path898"
           inkscape:connector-curvature="0" />
        <path
           inkscape:connector-curvature="0"
           id="path904"
           d="m 542.28986,164.16703 c 0,0 2.67269,22.98517 -12.56167,39.02135 l 1.33636,9.35443 10.95805,-2.13815 c 0,0 17.10525,-24.32153 13.89802,-46.23763 z"
           style="fill:#ffcc00;fill-opacity:1;stroke:#ffffff;stroke-width:5.29166651;stroke-linecap:butt;stroke-linejoin:miter;stroke-miterlimit:4;stroke-dasharray:none;stroke-opacity:1" />
        <path
           style="fill:#ffcc00;fill-opacity:1;stroke:none;stroke-width:0.26458332px;stroke-linecap:butt;stroke-linejoin:miter;stroke-opacity:1"
           d="m 542.28986,164.16703 c 0,0 2.67269,22.98517 -12.56167,39.02135 l 1.33636,9.35443 10.95805,-2.13815 c 0,0 17.10525,-24.32153 13.89802,-46.23763 z"
           id="path902"
           inkscape:connector-curvature="0" />
      </g>
      <path
         style="opacity:1;fill:#0c2c56;fill-opacity:1;stroke:#ffffff;stroke-width:5.29166651;stroke-linecap:square;stroke-linejoin:round;stroke-miterlimit:4;stroke-dasharray:none;stroke-opacity:1;paint-order:normal"
         d="m 597.53169,157.89757 a 13.859418,13.859418 0 0 0 -11.41021,6.01864 13.859418,13.859418 0 0 0 -10.68114,-5.03672 13.859418,13.859418 0 0 0 -13.84388,13.42634 13.859418,13.859418 0 0 0 -2.11065,-0.17189 13.859418,13.859418 0 0 0 -13.8593,13.85929 13.859418,13.859418 0 0 0 12.8165,13.81739 13.859418,13.859418 0 0 0 13.80665,12.80575 13.859418,13.859418 0 0 0 10.80539,-5.18641 13.859418,13.859418 0 0 0 10.79464,5.18641 13.859418,13.859418 0 0 0 13.50083,-10.80466 13.859418,13.859418 0 0 0 4.41755,0.74126 13.859418,13.859418 0 0 0 13.85928,-13.85964 13.859418,13.859418 0 0 0 -13.85928,-13.85929 13.859418,13.859418 0 0 0 -0.74914,0.0372 13.859418,13.859418 0 0 0 0.37207,-3.11442 13.859418,13.859418 0 0 0 -13.85931,-13.85928 z m 8.53861,54.05094 c 0,0 -3.38429,17.14058 -3.05675,20.52501 0.32751,3.38443 4.14855,5.13123 7.42381,4.25783 3.27527,-0.8734 5.13107,-4.58547 3.82095,-7.96992 -1.3101,-3.38443 -8.18801,-16.81292 -8.18801,-16.81292 z m -30.89423,3.29777 c 0,0 -3.38466,17.14057 -3.05712,20.52501 0.32751,3.38445 4.14855,5.13123 7.42382,4.25784 3.27526,-0.87339 5.13142,-4.58548 3.82131,-7.96993 -1.3101,-3.38444 -8.18801,-16.81292 -8.18801,-16.81292 z m 16.48848,7.98389 c 0,0 -3.38466,17.14058 -3.05712,20.52501 0.32751,3.38445 4.14892,5.13125 7.42418,4.25785 3.27527,-0.8734 5.13104,-4.58549 3.82095,-7.96994 -1.3101,-3.38442 -8.18801,-16.81292 -8.18801,-16.81292 z"
         id="path947"
         inkscape:connector-curvature="0" />
      <path
         inkscape:connector-curvature="0"
         id="path925"
         d="m 597.53169,157.89757 a 13.859418,13.859418 0 0 0 -11.41021,6.01864 13.859418,13.859418 0 0 0 -10.68114,-5.03672 13.859418,13.859418 0 0 0 -13.84388,13.42634 13.859418,13.859418 0 0 0 -2.11065,-0.17189 13.859418,13.859418 0 0 0 -13.8593,13.85929 13.859418,13.859418 0 0 0 12.8165,13.81739 13.859418,13.859418 0 0 0 13.80665,12.80575 13.859418,13.859418 0 0 0 10.80539,-5.18641 13.859418,13.859418 0 0 0 10.79464,5.18641 13.859418,13.859418 0 0 0 13.50083,-10.80466 13.859418,13.859418 0 0 0 4.41755,0.74126 13.859418,13.859418 0 0 0 13.85928,-13.85964 13.859418,13.859418 0 0 0 -13.85928,-13.85929 13.859418,13.859418 0 0 0 -0.74914,0.0372 13.859418,13.859418 0 0 0 0.37207,-3.11442 13.859418,13.859418 0 0 0 -13.85931,-13.85928 z m 8.53861,54.05094 c 0,0 -3.38429,17.14058 -3.05675,20.52501 0.32751,3.38443 4.14855,5.13123 7.42381,4.25783 3.27527,-0.8734 5.13107,-4.58547 3.82095,-7.96992 -1.3101,-3.38443 -8.18801,-16.81292 -8.18801,-16.81292 z m -30.89423,3.29777 c 0,0 -3.38466,17.14057 -3.05712,20.52501 0.32751,3.38445 4.14855,5.13123 7.42382,4.25784 3.27526,-0.87339 5.13142,-4.58548 3.82131,-7.96993 -1.3101,-3.38444 -8.18801,-16.81292 -8.18801,-16.81292 z m 16.48848,7.98389 c 0,0 -3.38466,17.14058 -3.05712,20.52501 0.32751,3.38445 4.14892,5.13125 7.42418,4.25785 3.27527,-0.8734 5.13104,-4.58549 3.82095,-7.96994 -1.3101,-3.38442 -8.18801,-16.81292 -8.18801,-16.81292 z"
         style="opacity:1;fill:#0c2c56;fill-opacity:1;stroke:none;stroke-width:3.80747485;stroke-linecap:square;stroke-linejoin:round;stroke-miterlimit:4;stroke-dasharray:none;stroke-opacity:1;paint-order:normal" />
    </g>
  </g>
</svg>
