<?xml version="1.0" encoding="UTF-8" standalone="no"?>
<!-- Created with Inkscape (http://www.inkscape.org/) -->

<svg
   xmlns:dc="http://purl.org/dc/elements/1.1/"
   xmlns:cc="http://creativecommons.org/ns#"
   xmlns:rdf="http://www.w3.org/1999/02/22-rdf-syntax-ns#"
   xmlns:svg="http://www.w3.org/2000/svg"
   xmlns="http://www.w3.org/2000/svg"
   xmlns:sodipodi="http://sodipodi.sourceforge.net/DTD/sodipodi-0.dtd"
   xmlns:inkscape="http://www.inkscape.org/namespaces/inkscape"
   width="1000"
   height="1000"
   viewBox="0 0 264.58333 264.58334"
   version="1.1"
   id="svg8"
   inkscape:version="0.92.3 (2405546, 2018-03-11)"
   sodipodi:docname="tex.svg">
  <defs
     id="defs2" />
  <sodipodi:namedview
     id="base"
     pagecolor="#ffffff"
     bordercolor="#666666"
     borderopacity="1.0"
     inkscape:pageopacity="0.0"
     inkscape:pageshadow="2"
     inkscape:zoom="0.35355339"
     inkscape:cx="1311.2014"
     inkscape:cy="512.05891"
     inkscape:document-units="mm"
     inkscape:current-layer="layer1"
     showgrid="false"
     units="px"
     inkscape:window-width="1920"
     inkscape:window-height="1029"
     inkscape:window-x="1920"
     inkscape:window-y="0"
     inkscape:window-maximized="1"
     inkscape:snap-global="false" />
  <metadata
     id="metadata5">
    <rdf:RDF>
      <cc:Work
         rdf:about="">
        <dc:format>image/svg+xml</dc:format>
        <dc:type
           rdf:resource="http://purl.org/dc/dcmitype/StillImage" />
        <dc:title />
      </cc:Work>
    </rdf:RDF>
  </metadata>
  <g
     inkscape:label="Layer 1"
     inkscape:groupmode="layer"
     id="layer1"
     transform="translate(0,-32.41665)">
    <rect
       style="opacity:1;fill:#ffffff;fill-opacity:1;stroke:none;stroke-width:5.29166651;stroke-linecap:square;stroke-linejoin:miter;stroke-miterlimit:4;stroke-dasharray:none;stroke-opacity:1;paint-order:normal"
       id="rect1012"
       width="292.60669"
       height="288.11655"
       x="-8.2319012"
       y="26.095592" />
    <g
       id="g1010"
       transform="matrix(1.007981,0,0,1.007981,-296.01959,-10.140865)">
      <g
         id="g979">
        <path
           style="opacity:1;fill:#003278;fill-opacity:1;stroke:none;stroke-width:0.99999994px;stroke-linecap:butt;stroke-linejoin:miter;stroke-opacity:1"
           d="m 1347.834,168.90625 c -8.3593,-0.0675 -17.4763,1.30497 -27.1192,5.02148 -34.2857,13.21429 -60.7154,80.35799 -41.4296,138.57227 15.4345,46.5894 43.9395,49.47915 101.9277,44.56836 l 6.7812,-17.36328 c 85.8861,-77.24875 65.0547,-126.91202 5.2207,-157.20508 -7.603,-3.84933 -24.0181,-13.42118 -45.3808,-13.59375 z"
           transform="matrix(0.26458333,0,0,0.26458333,0,32.41665)"
           id="path903"
           inkscape:connector-curvature="0" />
        <path
           style="opacity:1;fill:#003278;fill-opacity:1;stroke:none;stroke-width:0.99999994px;stroke-linecap:butt;stroke-linejoin:miter;stroke-opacity:1"
           d="m 1830.0391,275.57812 -117.0918,58.20313 c -35.2184,14.35449 -39.2311,33.7426 -32.9473,54.79102 0,0 90.7143,-32.85769 125,-60.71485 12.1887,-9.90332 20.67,-29.92108 25.0391,-52.2793 z"
           transform="matrix(0.26458333,0,0,0.26458333,0,32.41665)"
           id="path871"
           inkscape:connector-curvature="0" />
        <path
           sodipodi:nodetypes="csccsscccc"
           inkscape:connector-curvature="0"
           id="path919"
           d="m 367.24023,122.2967 c 0,0 4.13078,-63.166598 9.74344,-64.903849 5.61266,-1.737251 10.15625,0.668174 12.56165,3.741774 0,0 -7.3499,17.506154 -9.62169,5.61266 0,0 -0.78277,16.874739 11.35896,-4.009043 6.68174,-11.492589 46.5049,-8.686259 50.51394,-6.280834 4.00904,2.405426 11.49259,33.275057 11.49259,33.275057 l -49.9794,25.390605 -35.94776,7.96797 z"
           style="opacity:1;fill:#ffffff;fill-opacity:1;stroke:#ffffff;stroke-width:5.29166651;stroke-linecap:butt;stroke-linejoin:miter;stroke-miterlimit:4;stroke-dasharray:none;stroke-opacity:1" />
        <path
           style="opacity:1;fill:#003278;fill-opacity:1;stroke:none;stroke-width:0.99999994px;stroke-linecap:butt;stroke-linejoin:miter;stroke-opacity:1"
           d="m 1593.9922,82.712891 c -47.086,0.122076 -100.9236,7.455608 -115.1289,31.888669 -45.89,78.93083 -42.9317,15.15235 -42.9317,15.15235 8.5863,44.95178 36.3653,-21.21289 36.3653,-21.21289 -9.0913,-11.61676 -26.2634,-20.708571 -47.4766,-14.142582 -11.5738,3.582376 -21.4725,76.258132 -28.0859,141.583982 11.4972,-1.43961 101.7456,-12.60783 153.7656,-14.48242 37.9499,-1.36756 3.1991,54.06031 -22.5762,89.25977 l 185.295,-94.13282 c -1e-4,0 -28.2853,-116.672295 -43.4376,-125.763669 -6.6291,-3.977474 -39.1665,-8.245339 -75.789,-8.15039 z"
           transform="matrix(0.26458333,0,0,0.26458333,0,32.41665)"
           id="path867"
           inkscape:connector-curvature="0" />
        <path
           sodipodi:nodetypes="cccsccsc"
           inkscape:connector-curvature="0"
           id="path881"
           d="m 417.475,118.06303 c 0,0 1.46998,43.96584 -15.10072,64.27832 0,0 5.34538,8.28536 6.28083,12.56167 0,0 4.92227,-7.1155 13.0962,-42.22858 6.8997,-29.63931 34.00465,5.4876 8.41899,12.82894 0,0 -0.4009,21.11429 8.8199,27.66239 -0.52458,-19.93421 21.36529,-58.23003 14.22686,-72.43632 -9.34703,-18.60166 -35.74206,-2.66642 -35.74206,-2.66642 z"
           style="opacity:1;fill:#c0111f;fill-opacity:1;stroke:#ffffff;stroke-width:5.29166651;stroke-linecap:butt;stroke-linejoin:miter;stroke-miterlimit:4;stroke-dasharray:none;stroke-opacity:1" />
        <path
           style="opacity:1;fill:#c0111f;fill-opacity:1;stroke:none;stroke-width:0.26458332px;stroke-linecap:butt;stroke-linejoin:miter;stroke-opacity:1"
           d="m 417.475,118.06303 c 0,0 1.46998,43.96584 -15.10072,64.27832 0,0 5.34538,8.28536 6.28083,12.56167 0,0 4.92227,-7.1155 13.0962,-42.22858 6.8997,-29.63931 34.00465,5.4876 8.41899,12.82894 0,0 -0.4009,21.11429 8.8199,27.66239 -0.52458,-19.93421 21.36529,-58.23003 14.22686,-72.43632 -9.34703,-18.60166 -35.74206,-2.66642 -35.74206,-2.66642 z"
           id="path869"
           inkscape:connector-curvature="0"
           sodipodi:nodetypes="cccsccsc" />
        <path
           style="fill:#c0111f;fill-opacity:1;stroke:none;stroke-width:0.99999994px;stroke-linecap:butt;stroke-linejoin:miter;stroke-opacity:1"
           d="m 1388.0508,362.89648 -10.6074,0.35352 c 0,0 -6.5393,13.78962 -4.418,26.87109 2.2463,15.95649 18.7371,27.9296 20.6816,38.00586 1.9446,10.0763 -41.8415,117.04046 -42.0722,147.96289 -0.1769,23.68804 32.7928,13.08132 34.5605,15.29102 1.7678,2.2097 -11.4034,33.76397 -10.873,39.95117 0.5303,6.18716 4.4193,12.28553 9.3691,13.25781 0,0 -4.7726,6.62917 -3.1816,13.52344 1.591,6.89431 8.6627,10.43015 11.6679,15.20313 3.0053,4.77297 4.0658,54.97837 18.7383,65.4082 14.6725,10.42983 50.0266,4.77334 93.8672,-3.53516 43.8406,-8.30849 81.6724,-19.27005 86.0918,-23.68945 4.4194,-4.41944 19.6214,-47.90618 16.0859,-57.62891 0,0 -11.8435,46.66825 -23.3339,53.20899 -11.4905,6.54074 -145.502,40.41991 -164.752,27.41992 -19.25,-12.99999 -16.875,-58.37499 -20.625,-63.875 -3.75,-5.50001 -7.5,-5.625 -9.25,-9.5 -1.7499,-3.875 -2.75,-5.99998 -0.375,-10.5 2.375,-4.49998 23.25,-8.99999 34.375,-11 11.125,-1.99997 29.375,2.75 29.375,2.75 -4.625,-5.625 -14,-9.9999 -24.5,-10.125 -10.5,-0.1251 -28.375,7.37501 -32.5,7.875 C 1392.25,640.62503 1385.5,638 1384.5,632 c -1,-6 12.7428,-40.00141 7.793,-45.30469 -4.9497,-5.30332 -28.6383,4.95094 -32.8809,-10.95898 -4.2427,-15.90989 43.4884,-132.93586 42.0742,-148.13867 -1.4142,-15.20278 -16.2633,-22.2741 -19.4453,-34.29493 -3.182,-12.02078 6.0098,-30.40625 6.0098,-30.40625 z m 118.0859,1.76758 c -95.8129,33.23403 -86.2656,5.30469 -86.2656,5.30469 0,0 -19.4466,28.63788 10.6055,36.0625 7.4245,3.53556 70.0034,-22.9819 74.5996,-27.93164 4.5962,-4.94975 1.0605,-13.43555 1.0605,-13.43555 z m -32.8789,48.79102 c -6.364,-0.35354 -28.6387,6.00976 -28.6387,6.00976 -5.3032,8.48531 -2.4754,18.38451 5.6563,20.85938 8.1317,2.47487 40.6601,-17.32422 40.6601,-17.32422 0,0 -11.3138,-9.19154 -17.6777,-9.54492 z m -60.2422,142.85156 c -4.6369,0.05 -11.1093,1.05273 -20.0156,3.44336 0,0 24,-2.75003 25.75,14 0,0 14.3591,-17.65997 -5.7344,-17.44336 z M 1443.25,585.75 c 0,0 24.25,32.49999 33.25,70.5 0,0 6.5,-39.49997 -33.25,-70.5 z"
           transform="matrix(0.26458333,0,0,0.26458333,0,32.41665)"
           id="path930"
           inkscape:connector-curvature="0" />
        <path
           id="path911"
           transform="matrix(0.26458333,0,0,0.26458333,0,32.41665)"
           d="m 1637.2988,156.50195 c -31.7548,-0.16043 -61.3166,1.66797 -82.2988,6.35547 -67.1429,15 -84.0762,130.03655 -109.0762,149.32227 -25,19.28572 -34.7915,27.10696 -57.9297,27.52539 l -114.8086,-57.88867 c 0.7963,10.27839 2.7638,20.61422 6.0997,30.68359 19.2857,58.21429 58.9294,48.21431 151.0722,40 92.1429,-8.21427 282.5899,-18.71875 282.5899,-18.71875 L 1761.7852,330 l 7.9882,-162.91992 c -35.7939,-5.93307 -86.4352,-10.34552 -132.4746,-10.57813 z"
           style="opacity:1;fill:#003278;fill-opacity:1;stroke:#ffffff;stroke-width:20;stroke-linecap:butt;stroke-linejoin:miter;stroke-miterlimit:4;stroke-dasharray:none;stroke-opacity:1"
           inkscape:connector-curvature="0" />
        <path
           style="opacity:1;fill:#003278;fill-opacity:1;stroke:none;stroke-width:0.99999994px;stroke-linecap:butt;stroke-linejoin:miter;stroke-opacity:1"
           d="m 1637.2988,156.50195 c -31.7548,-0.16043 -61.3166,1.66797 -82.2988,6.35547 -67.1429,15 -77.9512,109.78655 -110.9512,148.32227 -20.5373,23.98243 -32.9165,28.10696 -56.0547,28.52539 -53.1555,1.35204 -76.5391,-38.59245 -114.8086,-57.88867 0.7963,10.27839 2.7638,20.61422 6.0997,30.68359 19.2857,58.21429 58.9294,48.21431 151.0722,40 92.1429,-8.21427 282.5899,-18.71875 282.5899,-18.71875 L 1761.7852,330 l 7.9882,-162.91992 c -35.7939,-5.93307 -86.4352,-10.34552 -132.4746,-10.57813 z"
           transform="matrix(0.26458333,0,0,0.26458333,0,32.41665)"
           id="path878"
           inkscape:connector-curvature="0"
           sodipodi:nodetypes="ssscccscccs" />
        <path
           style="opacity:1;fill:#003278;fill-opacity:1;stroke:none;stroke-width:0.99999994px;stroke-linecap:butt;stroke-linejoin:miter;stroke-opacity:1"
           d="m 1714.0234,160.23438 -1.0761,173.54687 10.5605,-1.54297 c 1.731,4.17323 3.0313,10.51953 3.0313,10.51953 l 11.707,9.17969 33.4101,-6.54102 30.4981,-22.50976 4.2383,3.77344 c 33.0209,-29.60805 37.433,-134.7234 4.3222,-149.51758 -14.7324,-6.58262 -52.8762,-13.01529 -96.6914,-16.9082 z"
           transform="matrix(0.26458333,0,0,0.26458333,0,32.41665)"
           id="path883"
           inkscape:connector-curvature="0" />
        <path
           style="opacity:1;fill:#003278;fill-opacity:1;stroke:none;stroke-width:0.99999994px;stroke-linecap:butt;stroke-linejoin:miter;stroke-opacity:1"
           d="m 1273.6973,254.83008 c -2.1292,18.71758 -0.7069,38.66919 5.5879,57.66992 15.9524,48.15289 45.9328,49.61267 107.9336,44.03711 l 0.3984,-8.66602 -23.961,-2.47461 2.4434,-4.82617 c 6.321,1.15801 12.2925,2.29172 12.2793,1.73633 -0.044,-1.85616 0.6914,-18.30664 0.6914,-18.30664 l -12.5859,-27.92578 -39.2442,-15.02539 0.2637,13.73828 z"
           transform="matrix(0.26458333,0,0,0.26458333,0,32.41665)"
           id="path894"
           inkscape:connector-curvature="0"
           sodipodi:nodetypes="cccccccccccc" />
        <path
           style="fill:#c0111f;fill-opacity:1;stroke:none;stroke-width:0.99999994px;stroke-linecap:butt;stroke-linejoin:miter;stroke-opacity:1"
           d="m 1655.7246,579.67383 c -0.9393,-0.12558 -3.0683,3.17773 -7.2246,12.82617 -10.8781,25.25278 -12.0835,76.95278 -12.0859,98.94141 a 24.566929,24.566929 0 0 0 -12.9922,19.05468 c -16.5233,6.14714 -68.1342,24.44382 -130.4551,37.67774 l -8.043,-12.27735 -7.4238,2.82813 7.2988,11.1543 c -41.6043,8.39657 -87.29,14.23119 -129.9824,12.5332 0,0 5e-4,25.8099 13.7891,68.58984 13.7886,42.77998 65.0528,129.4 82.7304,151.32032 0,0 24.0429,-48.08414 43.4883,-64.70118 19.4454,-16.61699 40.1669,-14.39746 61.8711,-39.59765 52.6795,-61.16474 46.9547,-94.5571 56.9219,-111.72266 4.6897,-8.07668 18.737,-22.81649 25.8301,-30.04297 a 24.566929,24.566929 0 0 0 8.3691,1.49219 24.566929,24.566929 0 0 0 11.8965,-3.10352 c 7.6778,4.45596 20.9212,9.56654 41.1621,9.35352 35.625,-0.375 51.5,-7.74998 52,-12.25 0.5,-4.49998 -7,-9.74998 -19.75,-14.625 -12.75,-4.87499 -30.25,-7.5 -30.25,-7.5 21.875,-8.75002 42.625,-25.62498 41.625,-28.375 -0.9375,-2.57811 -9.6751,-6.47405 -32.084,-6.53906 -1.4939,-0.004 -3.0488,0.008 -4.666,0.0391 -20.7638,0.40123 -42.8017,11.30597 -50.7988,15.64648 a 24.566929,24.566929 0 0 0 -9.1348,-1.78125 24.566929,24.566929 0 0 0 -2.8281,0.17969 C 1644.0803,650.25851 1653.5,599.5 1653.5,599.5 c 0,0 4.4493,-19.52876 2.2246,-19.82617 z"
           transform="matrix(0.26458333,0,0,0.26458333,0,32.41665)"
           id="path951"
           inkscape:connector-curvature="0" />
      </g>
      <g
         transform="translate(1.122532,1.122532)"
         id="g992">
        <path
           inkscape:connector-curvature="0"
           id="path988"
           d="m 439.47134,168.09595 v 12.15044 h 11.01282 c -9.10771,14.55157 -10.34053,24.8578 -9.756,32.2619 0.62847,7.96073 6.49451,25.13928 35.82347,25.55827 29.329,0.41899 36.87027,-22.83462 36.66078,-33.30925 -0.15788,-7.89385 -4.47405,-19.34141 -6.59426,-24.51092 h 11.01051 v -12.15044 h -23.67247 v 12.15044 c 0,0 5.22059,9.84616 4.8016,21.57776 -0.41901,11.73158 -13.4074,21.36831 -22.83457,20.94934 -9.42718,-0.41899 -19.06404,-7.12303 -19.69251,-19.06411 -0.62847,-11.94109 6.9131,-23.46299 6.9131,-23.46299 v -12.15044 z"
           style="opacity:1;fill:#857874;fill-opacity:1;stroke:#ffffff;stroke-width:5.29166651;stroke-linecap:square;stroke-linejoin:miter;stroke-miterlimit:4;stroke-dasharray:none;stroke-opacity:1;paint-order:normal" />
        <path
           style="opacity:1;fill:#857874;fill-opacity:1;stroke:none;stroke-width:5.92534781;stroke-linecap:square;stroke-linejoin:round;stroke-miterlimit:4;stroke-dasharray:none;stroke-opacity:1;paint-order:normal"
           d="m 439.47134,168.09595 v 12.15044 h 11.01282 c -9.10771,14.55157 -10.34053,24.8578 -9.756,32.2619 0.62847,7.96073 6.49451,25.13928 35.82347,25.55827 29.329,0.41899 36.87027,-22.83462 36.66078,-33.30925 -0.15788,-7.89385 -4.47405,-19.34141 -6.59426,-24.51092 h 11.01051 v -12.15044 h -23.67247 v 12.15044 c 0,0 5.22059,9.84616 4.8016,21.57776 -0.41901,11.73158 -13.4074,21.36831 -22.83457,20.94934 -9.42718,-0.41899 -19.06404,-7.12303 -19.69251,-19.06411 -0.62847,-11.94109 6.9131,-23.46299 6.9131,-23.46299 v -12.15044 z"
           id="rect981"
           inkscape:connector-curvature="0" />
      </g>
    </g>
  </g>
</svg>
