<?xml version="1.0" encoding="UTF-8" standalone="no"?>
<!-- Created with Inkscape (http://www.inkscape.org/) -->

<svg
   xmlns:dc="http://purl.org/dc/elements/1.1/"
   xmlns:cc="http://creativecommons.org/ns#"
   xmlns:rdf="http://www.w3.org/1999/02/22-rdf-syntax-ns#"
   xmlns:svg="http://www.w3.org/2000/svg"
   xmlns="http://www.w3.org/2000/svg"
   xmlns:sodipodi="http://sodipodi.sourceforge.net/DTD/sodipodi-0.dtd"
   xmlns:inkscape="http://www.inkscape.org/namespaces/inkscape"
   width="1000"
   height="1000"
   viewBox="0 0 264.58333 264.58334"
   version="1.1"
   id="svg8"
   inkscape:version="0.92.3 (2405546, 2018-03-11)"
   sodipodi:docname="wsh.svg">
  <defs
     id="defs2" />
  <sodipodi:namedview
     id="base"
     pagecolor="#ffffff"
     bordercolor="#666666"
     borderopacity="1.0"
     inkscape:pageopacity="0.0"
     inkscape:pageshadow="2"
     inkscape:zoom="0.7"
     inkscape:cx="267.19837"
     inkscape:cy="386.1663"
     inkscape:document-units="mm"
     inkscape:current-layer="layer2"
     showgrid="false"
     units="px"
     inkscape:snap-global="false"
     inkscape:window-width="1920"
     inkscape:window-height="1054"
     inkscape:window-x="0"
     inkscape:window-y="0"
     inkscape:window-maximized="1" />
  <metadata
     id="metadata5">
    <rdf:RDF>
      <cc:Work
         rdf:about="">
        <dc:format>image/svg+xml</dc:format>
        <dc:type
           rdf:resource="http://purl.org/dc/dcmitype/StillImage" />
        <dc:title />
      </cc:Work>
    </rdf:RDF>
  </metadata>
  <g
     inkscape:label="Layer 1"
     inkscape:groupmode="layer"
     id="layer1"
     transform="translate(0,-32.41665)"
     style="display:inline;opacity:0.679" />
  <g
     inkscape:groupmode="layer"
     id="layer2"
     inkscape:label="Layer 2">
    <rect
       style="opacity:1;fill:#ffffff;fill-opacity:1;stroke:none;stroke-width:7.9375;stroke-linecap:square;stroke-linejoin:round;stroke-miterlimit:4;stroke-dasharray:none;stroke-opacity:1;paint-order:normal"
       id="rect935"
       width="299.8764"
       height="298.80734"
       x="-21.916109"
       y="-12.842436" />
    <path
       style="opacity:1;fill:#ababab;fill-opacity:1;stroke:none;stroke-width:1.79456103;stroke-linecap:square;stroke-linejoin:round;stroke-miterlimit:4;stroke-dasharray:none;stroke-opacity:1;paint-order:normal"
       d="m 152.73801,48.835823 c -42.51595,-0.123205 -79.835157,10.859541 -86.176723,15.365388 -7.515938,5.340262 -4.94476,20.767691 -4.94476,20.767691 0,0 1.186638,-10.087086 6.131342,-14.438413 4.944677,-4.351324 33.250421,-16.021025 92.784431,-16.218811 l -9.0983,6.725163 c 0,0 23.02147,0.472193 39.24004,6.207922 l -9.00027,3.087785 c 0,0 15.22958,11.472064 21.36098,24.723827 l -10.48281,-3.956137 2.76928,42.227872 5.14216,-0.98917 -1.58217,-33.920256 11.07611,3.560256 C 206.79271,85.364786 192.35401,71.519659 192.35401,71.519659 l 12.26321,-3.16491 c -12.26285,-7.911501 -37.7215,-11.519611 -37.7215,-11.519611 l 9.83329,-6.676998 c -8.066,-0.896222 -16.11766,-1.2995 -23.991,-1.322317 z M 127.29163,85.353428 100.6733,96.479826 c -0.37299,2.296735 -0.12173,4.604334 0.73335,6.734894 3.0181,7.46461 12.58151,11.00914 21.36098,7.91714 8.77975,-3.09213 13.45098,-11.650333 10.4336,-19.115465 l -2.94209,1.035679 c 1.013,1.575958 1.54459,3.32658 1.55002,5.104311 l -11.97551,0.0022 c -0.37487,-2.116092 -2.3349,-3.668363 -4.63272,-3.668958 -2.59399,2.21e-4 -4.69668,1.963194 -4.69651,4.384472 0,2.421051 2.10332,4.383451 4.69707,4.383391 2.59399,6e-5 4.6969,-1.96266 4.69707,-4.383934 h -4.69707 l 4.69707,-0.0011 c 0,-0.239038 -0.0224,-0.477615 -0.0649,-0.71335 h 11.97551 c -2.8e-4,6.124684 -6.11437,11.089604 -13.65639,11.089624 -7.54172,2.2e-4 -13.65592,-4.96412 -13.65692,-11.088542 0.003,-0.416821 0.0339,-0.833197 0.0941,-1.247144 l 20.19713,-8.442822 c 2.33675,1.058377 4.23916,2.650871 5.47098,4.579708 l 2.94209,-1.036222 c -1.1119,-2.73163 -3.17205,-5.053898 -5.90852,-6.660262 z"
       id="path1000"
       inkscape:connector-curvature="0"
       sodipodi:nodetypes="ssccccccccccccccccscccccccccccccccccccccccc" />
    <path
       style="display:inline;opacity:1;fill:#ab0003;fill-opacity:1;stroke:none;stroke-width:0.27690253px;stroke-linecap:butt;stroke-linejoin:miter;stroke-opacity:1"
       d="m 74.124741,82.46542 c 0,0 -8.390922,8.391125 -15.383791,10.628841 -6.992842,2.237702 -36.083115,5.594641 -40.838251,10.349769 -4.755137,4.75514 -8.6714804,21.53788 -3.356918,38.32072 5.314563,16.78282 6.713281,16.22314 8.11186,16.22314 1.398552,0 1.678085,-13.98555 6.153495,-17.34211 4.475437,-3.35657 73.565144,-11.18857 86.431994,-6.99287 12.86683,4.1957 -25.454095,2.51734 -43.355789,4.47533 -17.901694,1.958 -37.761421,3.91635 -39.4397,6.15405 -0.972454,1.29664 18.603421,3.78248 32.492298,5.11767 2.83886,4.10383 7.690248,13.15056 25.017979,20.1962 l -4.644598,40.97833 20.13979,-14.5455 13.70559,15.94407 14.82512,-14.54549 15.6639,13.42653 13.14639,-14.54496 11.18861,15.10417 9.79,-11.74781 17.06251,12.30756 c 0,0 -3.65125,-20.14052 -1.41354,-56.78303 l -5.39096,2.29365 c -0.24431,16.93948 1.4898,44.27968 1.4898,44.27968 l -12.0274,-11.88788 -8.95068,11.74781 -11.74834,-13.42599 -13.42598,14.54496 -15.10473,-14.82456 -15.1047,15.10416 -11.74781,-16.22313 -16.223138,11.7478 3.239566,-27.26732 c 4.954894,1.72154 10.562782,3.21527 16.899692,4.33092 0,0 -28.239432,-10.00442 -39.100547,-25.53306 6.694036,0.60007 8.331915,0.35873 8.331915,0.35873 0,0 2.517348,-6.15352 5.873906,-7.55208 3.356557,-1.39858 43.635626,-2.79717 44.474786,-5.5943 0.83912,-2.79714 -8.11192,-10.34956 -26.29331,-10.90899 -18.181393,-0.55942 -20.699019,-0.2796 -20.699019,-0.2796 0,0 4.475382,-20.69888 -9.79,-43.63541 z M 58.453248,99.042257 c 1.842066,-0.0014 4.447276,0.406861 7.11886,1.115183 5.002216,1.32637 8.816549,3.30945 8.519626,4.42936 -0.296562,1.1201 -4.592678,0.95278 -9.59531,-0.37371 -5.002216,-1.32638 -8.816549,-3.30946 -8.519626,-4.429363 0.126849,-0.477994 1.003938,-0.740603 2.47645,-0.74147 z"
       id="path976"
       inkscape:connector-curvature="0"
       sodipodi:nodetypes="csssscsscccccccccccccccccccccccccccccscccccccc" />
    <g
       id="g926"
       transform="matrix(0.66247178,0,0,0.66247178,-277.51221,-37.807138)">
      <path
         style="fill:#14225a;fill-opacity:1;stroke:#ffffff;stroke-width:7.9375;stroke-linecap:butt;stroke-linejoin:miter;stroke-miterlimit:4;stroke-dasharray:none;stroke-opacity:1"
         d="m 735.11949,195.16739 -1.22244,15.44364 -3.46857,8.77731 -4.3359,3.19161 3.03523,3.19215 0.43333,9.97465 -6.5038,2.79286 0.43332,6.7825 c -18.21142,2.39388 -20.81333,29.52466 -20.81333,29.52466 l -4.76923,7.58052 v 13.96429 l -6.93782,4.38839 v 25.53501 l -9.10583,8.77735 107.96835,0.79803 -9.10572,-8.77734 v -25.53499 l -5.63715,-5.18645 v -13.96429 l -4.76992,-8.37857 c 0,0 -2.60156,-24.73712 -20.37932,-29.1259 l -0.43344,-6.38321 -5.20313,-2.39411 v -9.97465 l 3.03523,-3.1916 -3.90258,-3.19216 -3.90258,-9.9741 -0.43332,-14.36358 -2.0969,-1.08108 z"
         id="path922"
         inkscape:connector-curvature="0"
         sodipodi:nodetypes="cccccccccccccccccccccccccccccc" />
      <path
         sodipodi:nodetypes="cccccccccccccccccccccccccccccc"
         inkscape:connector-curvature="0"
         id="path917"
         d="m 735.11949,195.16739 -1.22244,15.44364 -3.46857,8.77731 -4.3359,3.19161 3.03523,3.19215 0.43333,9.97465 -6.5038,2.79286 0.43332,6.7825 c -18.21142,2.39388 -20.81333,29.52466 -20.81333,29.52466 l -4.76923,7.58052 v 13.96429 l -6.93782,4.38839 v 25.53501 l -9.10583,8.77735 107.96835,0.79803 -9.10572,-8.77734 v -25.53499 l -5.63715,-5.18645 v -13.96429 l -4.76992,-8.37857 c 0,0 -2.60156,-24.73712 -20.37932,-29.1259 l -0.43344,-6.38321 -5.20313,-2.39411 v -9.97465 l 3.03523,-3.1916 -3.90258,-3.19216 -3.90258,-9.9741 -0.43332,-14.36358 -2.0969,-1.08108 z"
         style="fill:#14225a;fill-opacity:1;stroke:none;stroke-width:0.29115316px;stroke-linecap:butt;stroke-linejoin:miter;stroke-opacity:1" />
    </g>
  </g>
</svg>
